<?xml version="1.0" encoding="UTF-8" standalone="no"?>
<svg
   xmlns:dc="http://purl.org/dc/elements/1.1/"
   xmlns:cc="http://creativecommons.org/ns#"
   xmlns:rdf="http://www.w3.org/1999/02/22-rdf-syntax-ns#"
   xmlns:svg="http://www.w3.org/2000/svg"
   xmlns="http://www.w3.org/2000/svg"
   xmlns:sodipodi="http://sodipodi.sourceforge.net/DTD/sodipodi-0.dtd"
   xmlns:inkscape="http://www.inkscape.org/namespaces/inkscape"
   id="airport"
   width="80"
   height="80"
   viewBox="0 0 80 80"
   version="1.1"
   sodipodi:docname="tasfiah.svg"
   inkscape:version="0.92.4 (5da689c313, 2019-01-14)">
  <metadata
     id="metadata10416">
    <rdf:RDF>
      <cc:Work
         rdf:about="">
        <dc:format>image/svg+xml</dc:format>
        <dc:type
           rdf:resource="http://purl.org/dc/dcmitype/StillImage" />
        <dc:title></dc:title>
      </cc:Work>
    </rdf:RDF>
  </metadata>
  <sodipodi:namedview
     pagecolor="#ffffff"
     bordercolor="#666666"
     borderopacity="1"
     objecttolerance="10"
     gridtolerance="10"
     guidetolerance="10"
     inkscape:pageopacity="0"
     inkscape:pageshadow="2"
     inkscape:window-width="1920"
     inkscape:window-height="1001"
     id="namedview10414"
     showgrid="false"
     fit-margin-top="0"
     fit-margin-left="0"
     fit-margin-right="0"
     fit-margin-bottom="0"
     inkscape:zoom="2.95"
     inkscape:cx="75.935271"
     inkscape:cy="71.055102"
     inkscape:window-x="-9"
     inkscape:window-y="-9"
     inkscape:window-maximized="1"
     inkscape:current-layer="airport" />
  <defs
     id="defs10407">
    <filter
       id="Path_29"
       x="19.5"
       y="18"
       width="40.375"
       height="42.625"
       filterUnits="userSpaceOnUse">
      <feOffset
         dy="-1"
         input="SourceAlpha"
         id="feOffset10396" />
      <feGaussianBlur
         result="blur"
         id="feGaussianBlur10398" />
      <feFlood
         flood-opacity="0.102"
         id="feFlood10400" />
      <feComposite
         operator="in"
         in2="blur"
         id="feComposite10402"
         result="result1" />
      <feComposite
         in="SourceGraphic"
         in2="result1"
         id="feComposite10404" />
    </filter>
  </defs>
  <g
     id="g9581">
    <circle
       style="opacity:1;fill:#e2e3db;fill-opacity:1"
       r="40"
       cy="39.999996"
       cx="39.999989"
       data-name="Ellipse 130"
       id="Ellipse_130-4-4-3" />
    <g
       transform="matrix(0.21897216,0,0,0.21897216,163.86334,56.944653)"
       id="g9575">
      <path
         inkscape:connector-curvature="0"
         style="fill:#1c998a;fill-opacity:1"
         d="m -454.625,-202.39258 c -0.076,0.009 -0.15093,0.0338 -0.22266,0.0781 -0.44538,0.27527 -1.0855,3.46494 -1.42382,7.08789 -0.80865,8.65966 -4.27497,14.90959 -12.6504,22.81054 -20.13881,18.99794 -47.91134,23.95216 -101.08007,18.03125 -24.36499,-2.71331 -35.93355,9.8e-4 -42.6875,10.01954 -4.87583,7.23263 -5.7264,11.39252 -5.6543,27.61523 0.13033,29.316468 5.54522,62.00367 13.16992,79.5 7.81637,17.93615 22.23909,31.44364 38.14063,35.71875 19.38093,5.21055 33.91831,-4.90215 37.10547,-25.8125 1.44872,-9.50478 -0.80474,-33.534912 -3.28907,-35.070312 -1.44693,-0.89425 -3.73429,2.527918 -3.74609,5.605468 -0.0155,4.06586 -4.34533,12.287069 -8.30273,15.761719 -12.45231,10.93327 -36.20384,4.4433 -50.43555,-13.78125 -12.78421,-16.37096 -18.61654,-35.273716 -14.86524,-48.177735 4.20415,-14.46176 14.13949,-18.20133 42.11329,-15.85352 38.14248,3.20127 42.54236,3.38734 52.68164,2.23438 30.47063,-3.46486 52.47222,-15.47821 61.33593,-33.49219 3.88506,-7.89571 6.4403,-18.33409 6.4668,-26.42383 0.0315,-9.58834 -4.29892,-26.11747 -6.65625,-25.85156 z"
         id="path9560" />
      <path
         inkscape:connector-curvature="0"
         style="fill:#4cc4e0;fill-opacity:1"
         d="m -524.00391,-99.154297 c -7.47338,-0.04976 -15.46773,3.511655 -23.63476,10.636719 -10.37509,9.05141 -21.69188,22.767578 -18.78516,22.767578 0.29068,0 3.30222,-1.399488 6.69336,-3.111328 15.33028,-7.7387 28.61803,-3.469652 36.13477,11.611328 3.94571,7.91634 4.90925,13.402216 4.42773,25.222656 -0.47384,11.63186 -3.09486,20.990965 -8.44922,30.1718752 -3.86813,6.6325201 -13.53143,16.3508608 -18.94922,19.0566408 -14.27523,7.12939 -23.97974,1.650584 -42.41015,-23.9414064 -4.55164,-6.3202796 -10.76363,-14.6104646 -13.80469,-18.4218746 -23.27329,-29.16877 -47.6531,-44.015125 -72.17187,-43.953125 -9.63461,0.02438 -16.23408,1.934681 -22.49415,6.513672 -7.55897,5.529089 -24.9536,25.851562 -22.12695,25.851562 0.20836,0 2.962,-1.553958 6.11914,-3.455078 3.15712,-1.90112 7.75573,-3.759556 10.21875,-4.128906 13.46776,-2.01962 32.01203,4.309195 49.10156,16.759765 8.78501,6.40032 22.84244,21.143599 32.25196,33.824219 4.69339,6.325 11.03157,14.875 14.08398,19 6.90446,9.33062 13.52882,15.831836 19.08008,18.722656 8.99316,4.68319 20.30132,2.50596 31.16406,-6 9.39468,-7.35643 36.42161,-36.4337166 45.77539,-49.248047 5.41839,-7.42298 11.33814,-18.909789 14.41797,-27.974609 2.2674,-6.67359 2.73485,-9.82381 2.81445,-19 0.14909,-17.184 -4.18166,-27.520581 -14.95898,-35.712891 -4.51494,-3.431999 -9.38468,-5.157356 -14.49805,-5.191406 z"
         id="path9545" />
    </g>
  </g>
</svg>
