<?xml version="1.0" encoding="UTF-8" standalone="no"?>
<svg
   xmlns:dc="http://purl.org/dc/elements/1.1/"
   xmlns:cc="http://creativecommons.org/ns#"
   xmlns:rdf="http://www.w3.org/1999/02/22-rdf-syntax-ns#"
   xmlns:svg="http://www.w3.org/2000/svg"
   xmlns="http://www.w3.org/2000/svg"
   xmlns:xlink="http://www.w3.org/1999/xlink"
   xmlns:sodipodi="http://sodipodi.sourceforge.net/DTD/sodipodi-0.dtd"
   xmlns:inkscape="http://www.inkscape.org/namespaces/inkscape"
   id="airport"
   width="80"
   height="80"
   viewBox="0 0 80 80"
   version="1.1"
   sodipodi:docname="coverage_area.svg"
   inkscape:version="0.92.4 (5da689c313, 2019-01-14)">
  <metadata
     id="metadata10416">
    <rdf:RDF>
      <cc:Work
         rdf:about="">
        <dc:format>image/svg+xml</dc:format>
        <dc:type
           rdf:resource="http://purl.org/dc/dcmitype/StillImage" />
        <dc:title></dc:title>
      </cc:Work>
    </rdf:RDF>
  </metadata>
  <sodipodi:namedview
     pagecolor="#ffffff"
     bordercolor="#666666"
     borderopacity="1"
     objecttolerance="10"
     gridtolerance="10"
     guidetolerance="10"
     inkscape:pageopacity="0"
     inkscape:pageshadow="2"
     inkscape:window-width="1920"
     inkscape:window-height="1001"
     id="namedview10414"
     showgrid="false"
     fit-margin-top="0"
     fit-margin-left="0"
     fit-margin-right="0"
     fit-margin-bottom="0"
     inkscape:zoom="8.34386"
     inkscape:cx="67.130877"
     inkscape:cy="47.775908"
     inkscape:window-x="-9"
     inkscape:window-y="-9"
     inkscape:window-maximized="1"
     inkscape:current-layer="g3529" />
  <defs
     id="defs10407">
    <filter
       id="Path_29"
       x="19.5"
       y="18"
       width="40.375"
       height="42.625"
       filterUnits="userSpaceOnUse">
      <feOffset
         dy="-1"
         input="SourceAlpha"
         id="feOffset10396" />
      <feGaussianBlur
         result="blur"
         id="feGaussianBlur10398" />
      <feFlood
         flood-opacity="0.102"
         id="feFlood10400" />
      <feComposite
         operator="in"
         in2="blur"
         id="feComposite10402"
         result="result1" />
      <feComposite
         in="SourceGraphic"
         in2="result1"
         id="feComposite10404" />
    </filter>
    <linearGradient
       inkscape:collect="always"
       xlink:href="#linearGradient4172"
       id="linearGradient7997"
       x1="5.3993721"
       y1="236.00909"
       x2="82.158096"
       y2="236.00909"
       gradientUnits="userSpaceOnUse" />
    <linearGradient
       id="linearGradient4172"
       inkscape:collect="always">
      <stop
         style="stop-color:#407ec9;stop-opacity:1"
         offset="0"
         id="stop4170" />
      <stop
         style="stop-color:#2cd5c4;stop-opacity:1;"
         offset="1"
         id="stop4168" />
    </linearGradient>
  </defs>
  <g
     id="g7090"
     transform="matrix(0.27575583,0,0,0.27575583,257.85869,77.163259)">
    <g
       id="g7012"
       transform="matrix(3.7795276,0,0,3.7795276,-955.50496,-1026.7716)">
      <g
         id="g3529">
        <circle
           style="opacity:1;fill:url(#linearGradient7997);fill-opacity:1.0;stroke-width:0.9594841"
           r="38.379364"
           cy="236.00909"
           cx="43.778736"
           data-name="Ellipse 130"
           id="Ellipse_130-4-4-3-6-5-0-7-3" />
        <path
           id="path2138"
           d="m 27.303756,206.44787 -1.154757,0.0146 -0.634956,9.5e-4 c -0.984342,0.002 -1.934394,0.0312 -2.111295,0.0654 -0.07772,0.0151 -0.151633,0.0369 -0.222424,0.0627 -6.59e-4,2.1e-4 -0.0011,4.5e-4 -0.0023,8.9e-4 -0.0547,0.02 -0.107904,0.0419 -0.157265,0.0674 -0.07818,0.0284 -0.139615,0.0627 -0.189832,0.10512 -0.03678,0.004 -0.07101,0.0306 -0.108251,0.10826 -0.0081,0.009 -0.02035,0.0173 -0.02683,0.0246 -0.01585,0.0175 -0.03111,0.0416 -0.0488,0.0878 -0.01492,0.0235 -0.02868,0.0474 -0.04036,0.072 -0.04638,0.0978 -0.237909,1.09117 -0.42566,2.20744 -0.241066,1.43323 -0.610611,3.61114 -1.06826,6.30117 -0.0069,0.0155 -0.0093,0.038 -0.01041,0.0633 -0.343847,2.02103 -0.71951,4.22694 -1.216873,7.14138 -0.183576,1.07568 -0.666634,3.91522 -1.073453,6.31011 -0.40682,2.39489 -0.823228,4.8359 -0.925267,5.42448 -0.366249,2.11247 -0.823817,4.86876 -0.838505,5.04811 -0.0023,0.002 -0.0023,0.005 -0.0023,0.007 0,9.4e-4 0.0011,0.002 0.0011,0.004 -5.8e-5,9.5e-4 -0.0011,0.009 -0.0011,0.009 0,0.004 0.0011,0.006 0.0035,0.009 -2.2e-4,0.002 -0.0035,0.0229 -0.0035,0.0239 0,2.2e-4 0.0023,6.7e-4 0.0023,8.9e-4 -4.39e-4,0.006 -0.0023,0.0202 -0.0023,0.0235 0,0.004 0.04001,0.006 0.106979,0.009 0.122025,0.0278 0.386939,0.0326 0.963189,0.0326 0.207851,0 0.379433,-0.004 0.532176,-0.009 0.297458,0.002 0.713565,0.005 1.122027,0.006 4.51e-4,1e-5 8.9e-4,0 0.0011,0 0.08108,2.2e-4 0.17984,1.5e-4 0.263202,6.8e-4 l 1.62e-4,2.1e-4 h 0.05216 l 0.0081,0.0118 1.249025,-0.009 c 0.05539,3e-5 0.10189,2.4e-4 0.157692,2.4e-4 0.101427,0 0.170623,-1.6e-4 0.267828,-1.6e-4 h 4.253877 l 0.07147,-0.0363 0.06569,-6.6e-4 0.0081,-0.005 0.08651,-0.0485 c 0.05216,-0.017 0.105129,-0.0389 0.158283,-0.0655 0.178162,-0.0623 0.270789,-0.14943 0.400863,-0.27143 0.06199,-0.0581 0.134585,-0.14802 0.200934,-0.24361 0.04221,-0.0567 0.08015,-0.11473 0.112184,-0.17341 l 0.139963,-0.2018 1.62e-4,-0.1339 1.5e-4,-0.029 0.03666,-0.0722 v -15.92809 -14.56097 -0.006 -0.26711 l 0.0011,-1.09406 h -0.0011 v -0.0737 z"
           style="fill:#ffffff;fill-opacity:1;stroke-width:0.07380246"
           inkscape:connector-curvature="0" />
        <path
           id="path2136"
           d="m 43.317754,206.46086 -12.916591,1.5e-4 1.51e-4,0.0362 h -8.91e-4 l 1.5e-4,0.037 h -2.19e-4 l 0.0035,1.02501 v 4.33791 0.006 1.00398 4.36486 0.65587 c -4.5e-4,0.0452 -1.61e-4,0.0926 0,0.14154 v 1.27742 l 0.03678,0.0737 1.51e-4,0.066 0.0931,0.15754 c 0.01353,0.0505 0.02879,0.0879 0.04637,0.12339 0.09101,0.18336 0.233976,0.34753 0.411098,0.47987 0.03226,0.0267 0.065,0.0521 0.09877,0.0743 l 0.298962,0.19807 0.168645,0.002 c 0.0046,9.5e-4 0.0093,0.002 0.01365,0.004 0.54787,0.14491 13.635048,0.13212 14.164332,-0.0139 0.119226,-0.0328 0.219752,-0.0687 0.318126,-0.12324 0.09622,-0.0458 0.165244,-0.081 0.3138,-0.24736 0.238776,-0.24052 0.544088,-0.64908 1.080092,-1.39649 0.464344,-0.64749 1.446166,-2.0075 2.181785,-3.02228 3.539687,-4.88301 5.261107,-7.26501 6.038119,-8.36159 0.07055,-0.0964 0.213842,-0.29389 0.245334,-0.33613 0.168586,-0.22619 0.306467,-0.43077 0.319281,-0.47266 l 0.01249,-0.018 h -0.0035 v -1.6e-4 h -0.01156 c 6.6e-4,-0.002 0.0046,-0.009 0.0046,-0.009 0,-0.009 -0.332015,-0.0163 -0.888801,-0.0235 -0.895719,-0.021 -2.861362,-0.0297 -6.238626,-0.0332 -1.750841,-0.005 -3.66081,-0.007 -5.789176,-0.007 z"
           style="fill:#ffffff;fill-opacity:1;stroke-width:0.07380246"
           inkscape:connector-curvature="0" />
        <path
           id="path2134"
           d="m 61.982165,206.47547 c -0.02024,-1.6e-4 -0.04187,2.2e-4 -0.06222,1.5e-4 -0.0081,-3e-5 -0.01874,1.5e-4 -0.02741,1.5e-4 -0.149238,-4.5e-4 -0.30102,-8.9e-4 -0.453335,0.002 l -1.326859,0.02 -1.313882,1.80815 c -0.603719,0.83082 -0.982377,1.35572 -1.221489,1.72052 -0.120116,0.17528 -0.213633,0.31496 -0.238279,0.36152 -0.02799,0.053 -0.05158,0.1153 -0.07147,0.18291 -0.08628,0.20408 -0.09426,0.34609 -0.09252,0.54646 0.0046,0.49451 0.148961,0.80229 0.568364,1.20838 0.169084,0.1637 0.853574,0.82937 1.521166,1.4792 0.667594,0.64985 2.159929,2.09455 3.316212,3.21041 1.156283,1.11588 2.451037,2.36709 2.877148,2.78042 0.231085,0.22415 0.435085,0.41793 0.580471,0.55281 0.04245,0.0447 0.07228,0.0773 0.07506,0.0837 v 0 c 0.02729,0.0633 0.04337,0.0759 0.0473,0.0305 0.04985,0.0457 0.08038,0.0726 0.08188,0.0707 v -9.5e-4 c 0,-1e-5 6.59e-4,6.6e-4 6.59e-4,6.6e-4 4.7e-5,-6e-5 -6.59e-4,-0.004 -6.59e-4,-0.004 3.5e-5,0 0.0035,0.004 0.0035,0.002 3.4e-5,-4e-5 -4.6e-5,-9.4e-4 0,-9.4e-4 l 0.0023,9.4e-4 c 0,-1.5e-4 -0.0023,-0.0179 -0.0023,-0.0193 -6.71e-4,-0.009 -0.0023,-0.0236 -0.0046,-0.046 0.01249,-0.007 0.0093,-0.0328 -0.0058,-0.076 -0.0023,-0.007 -0.0081,-0.0355 -0.01365,-0.0576 -6.59e-4,-0.002 -0.0023,-0.0116 -0.0023,-0.0142 -0.06442,-0.41269 -0.227696,-1.39164 -0.42308,-2.5309 -0.257431,-1.50108 -0.77131,-4.51476 -1.141919,-6.69699 -0.0093,-0.054 -0.01492,-0.0866 -0.02406,-0.14011 -0.03226,-0.19069 -0.06153,-0.36174 -0.09194,-0.54169 l -0.56088,-3.32115 -0.02707,-0.0275 c -0.0023,-0.009 -0.0069,-0.0336 -0.0081,-0.0358 -0.04048,-0.10535 -0.193833,-0.2293 -0.385008,-0.32981 -0.03204,-0.0211 -0.06442,-0.038 -0.09368,-0.0468 -0.03458,-0.0177 -0.07066,-0.0338 -0.114149,-0.0464 -6.7e-4,-1.5e-4 -0.0011,-2.2e-4 -0.0023,-4.4e-4 -0.07494,-0.0281 -0.15139,-0.0523 -0.226587,-0.0684 -0.103509,-0.0221 -0.370851,-0.0389 -0.704162,-0.0486 -0.06916,-0.002 -0.151077,-0.004 -0.228043,-0.005 -0.06939,-9.5e-4 -0.132169,-0.004 -0.204822,-0.004 z"
           style="fill:#ffffff;fill-opacity:1;stroke-width:0.07380246"
           inkscape:connector-curvature="0" />
        <path
           id="path2132"
           d="m 55.092149,214.65354 c -0.162457,-8.9e-4 -0.327239,0.0186 -0.480155,0.0568 -0.240927,0.0567 -0.460979,0.15609 -0.612611,0.29333 -0.01572,0.0143 -0.04893,0.0531 -0.09079,0.10466 v 1.6e-4 c -0.02683,0.028 -0.05216,0.057 -0.07587,0.0872 -0.01273,0.0163 -0.09136,0.12432 -0.139385,0.18956 -0.120695,0.15916 -0.266544,0.35718 -0.421184,0.57009 -0.493188,0.66778 -1.286079,1.76817 -2.630945,3.63016 -1.91907,2.65698 -2.714447,3.70147 -2.925444,3.84161 l -0.138668,0.0921 c -0.101428,0.0505 -0.232092,0.0821 -0.785304,0.10316 l -7.305012,0.034 -7.93925,0.0369 -0.124974,0.0736 -0.03528,1.5e-4 -0.118776,0.0823 c -0.0081,0.002 -0.01885,0.004 -0.02244,0.006 -0.04348,0.0249 -0.09079,0.0611 -0.139106,0.10131 -0.278492,0.18233 -0.453254,0.38944 -0.573406,0.68181 l -0.09299,0.15034 -1.5e-4,0.0773 -0.03678,0.0738 v 1.83324 1.57522 0.21045 5.47335 5.35859 0.0334 0.0812 11.11937 1.60851 0.72793 l -0.0011,0.88045 h 0.0011 5.276314 0.02093 5.25079 0.0093 0.03678 l -0.422201,-0.85579 c -1.867894,-3.78626 -3.03381,-7.81157 -3.507072,-12.11196 -0.100271,-0.95714 -0.167258,-1.93578 -0.201941,-2.94069 -0.0046,-0.18823 -0.01041,-0.37655 -0.01458,-0.58653 l -0.014,-0.65255 0.02151,-1.29255 c 0.0093,-0.0411 0.0222,-0.0683 0.03724,-0.0876 l 0.437918,-0.2475 c 0.169049,-0.0934 0.400459,-0.22521 0.675897,-0.38385 0.521154,-0.2967 1.262012,-0.72152 1.876625,-1.07735 2.373677,-1.37422 4.252245,-2.45961 5.682799,-3.28334 0.77124,-0.44408 2.714088,-1.56624 4.31745,-2.49371 1.292626,-0.74771 2.522476,-1.44863 3.123776,-1.78235 0.429824,-0.22376 0.782159,-0.38992 1.091195,-0.51229 0.465166,-0.16735 0.949507,-0.28061 1.441019,-0.3376 0.232462,-0.0149 0.479554,-0.019 0.764835,-0.0173 0.409143,0.002 0.76067,0.0233 1.084254,0.0686 0.164019,0.0284 0.327308,0.0618 0.488945,0.10316 0.05944,0.0152 0.106516,0.0279 0.15871,0.0414 0.40365,0.12782 0.835382,0.31082 1.328593,0.55755 0.03041,0.0163 0.06696,0.0364 0.09923,0.0538 0.432784,0.24042 1.092721,0.61254 1.869421,1.05342 0.805682,0.4622 1.824893,1.05104 3.199887,1.8452 0.933606,0.53922 2.029565,1.1724 2.435483,1.407 0.227338,0.13141 0.381005,0.2183 0.495281,0.27619 0.03099,0.0174 0.06708,0.0381 0.09148,0.0504 6.6e-4,2.2e-4 0.0046,0.002 0.0046,0.004 0.114959,0.0753 0.157461,0.0857 0.222852,0.0246 0.01422,-0.0116 0.02856,-0.0254 0.04441,-0.0445 6.71e-4,-8.9e-4 0.0011,-0.002 0.0023,-0.002 6.59e-4,-6.8e-4 0.0011,-9e-4 0.0023,-9.5e-4 0.0011,-0.002 0.0023,-0.005 0.0046,-0.007 0.017,-0.0155 0.03168,-0.0316 0.03967,-0.061 0.05378,-0.12811 0,-0.5203 -0.225303,-1.84189 -0.03342,-0.19846 -0.05552,-0.33595 -0.09761,-0.58277 l -0.368863,-2.1665 c -0.0046,-0.03 -0.02776,-0.16401 -0.02787,-0.16692 0,-1.5e-4 -8.91e-4,-9.5e-4 -8.91e-4,-9.5e-4 l -0.0046,-0.0269 -0.0148,-0.0146 -0.0023,-0.0138 -0.0058,-0.006 v -6.8e-4 l -0.017,-0.0165 -0.0023,-0.0104 -0.264937,-0.24764 L 66.3275,224.949 c -0.871002,-0.85381 -2.553551,-2.48536 -5.700528,-5.53042 -1.217729,-1.1783 -2.767335,-2.68267 -3.443637,-3.34316 -0.699397,-0.68304 -1.342877,-1.24818 -1.492184,-1.31057 -0.172057,-0.072 -0.382579,-0.10767 -0.597635,-0.10871 z"
           style="fill:#ffffff;fill-opacity:1;stroke-width:0.07380246"
           inkscape:connector-curvature="0" />
        <path
           id="path2130"
           d="m 56.302974,228.15549 c -0.395289,-0.005 -0.787699,0.0448 -1.095219,0.14832 -0.05632,0.019 -0.123633,0.0459 -0.209158,0.0849 -0.108366,0.0406 -0.213528,0.0859 -0.314089,0.13693 -0.300303,0.15232 -1.604656,0.89777 -4.145347,2.3673 -0.65449,0.37699 -1.226982,0.70617 -2.097754,1.20896 -1.059135,0.61152 -3.428995,1.97541 -5.266205,3.03079 l -3.340291,1.91885 0.0011,0.0477 -0.0058,0.004 1.51e-4,0.002 -0.0023,9.5e-4 2.31e-4,0.009 0.02324,0.52742 v 8.9e-4 c -6.59e-4,0.66848 0.03758,1.41317 0.109061,2.19649 0.375339,4.76135 1.814427,9.3681 4.241628,13.59203 0.319953,0.55883 0.656236,1.10832 1.008884,1.64729 0.02186,0.0336 0.04325,0.0673 0.06523,0.10073 0.04001,0.0607 0.08084,0.12092 0.121239,0.18135 0.06442,0.0968 0.128201,0.19373 0.19373,0.29001 0.233803,0.34357 0.475736,0.68364 0.725048,1.01983 l 0.04557,0.0654 0.0023,-0.002 c 0.01156,0.0156 0.02324,0.0309 0.03493,0.0464 l -0.0011,9.4e-4 0.03504,0.0437 c 0.222458,0.29615 0.450305,0.58935 0.684119,0.879 0.274872,0.34407 0.544019,0.66353 0.8248,0.98163 0.465652,0.53268 0.949717,1.05219 1.450388,1.55619 0.06118,0.0644 0.124696,0.12744 0.190133,0.18912 0.780111,0.77292 1.598932,1.50855 2.448885,2.1998 0.06696,0.0549 0.134308,0.10918 0.201525,0.16332 0.0011,8.9e-4 0.0023,0.002 0.0035,0.002 0.634852,0.51171 1.281905,0.99042 1.959513,1.45096 0.05679,0.0389 0.113571,0.0775 0.17053,0.11589 0.01862,0.0125 0.03736,0.0249 0.05609,0.0375 0.305612,0.20513 0.613815,0.405 0.924701,0.59806 l 0.920941,0.57197 0.333705,-0.19056 c 0.196366,-0.11218 0.48256,-0.29208 0.803172,-0.50061 0.552692,-0.35243 1.160482,-0.76805 1.749928,-1.19526 0.200808,-0.14393 0.390871,-0.28226 0.548043,-0.40159 0.20703,-0.15717 0.411839,-0.31681 0.614636,-0.47841 0.04059,-0.0322 0.08431,-0.0654 0.123817,-0.0973 0.693997,-0.55836 1.030708,-0.84 1.532281,-1.31345 0.657219,-0.5984 1.288024,-1.22171 1.891754,-1.86768 0.03157,-0.022 0.05771,-0.0492 0.07425,-0.08 0.948085,-1.0212 1.828479,-2.09899 2.636416,-3.22698 l 0.0046,-0.006 v -1.5e-4 c 0.09599,-0.13409 0.190758,-0.26884 0.284691,-0.40433 0.02591,-0.0373 0.05147,-0.0747 0.07725,-0.11196 0.03054,-0.0446 0.06129,-0.0888 0.09172,-0.13348 1.228219,-1.80029 2.269255,-3.71593 3.111957,-5.72429 0.810319,-1.92326 1.441494,-3.93207 1.878788,-6.00364 0.132897,-0.6296 0.259745,-1.39223 0.365994,-2.15685 0.01202,-0.0844 0.02371,-0.16895 0.03516,-0.25355 0.0046,-0.0369 0.0104,-0.0734 0.01469,-0.11021 0.0266,-0.202 0.05135,-0.40444 0.07436,-0.60744 0.02347,-0.20691 0.04568,-0.41419 0.06546,-0.62212 0.0093,-0.0916 0.01654,-0.19877 0.02464,-0.3004 0.02059,-0.24812 0.03782,-0.48559 0.04753,-0.69681 0.01041,-0.18365 0.01862,-0.35946 0.02509,-0.52915 5.8e-5,-0.002 7e-5,-0.004 0,-0.005 0.0035,-0.0865 0.0069,-0.17207 0.0081,-0.25096 0.0148,-0.33299 0.02868,-0.62768 0.03666,-0.75618 0.0081,-0.13777 0.0035,-0.25626 -0.01238,-0.3435 l 0.0035,-0.0958 -0.0118,-0.009 0.0011,-0.0473 -1.492346,-0.8506 -0.014,-0.009 c -0.180743,-0.10479 -0.361877,-0.21001 -0.557423,-0.3223 -1.060129,-0.60888 -1.928865,-1.14646 -1.930531,-1.19468 -0.0023,-0.0435 -0.05089,-0.0746 -0.112414,-0.0767 -0.0093,-0.0138 -0.01977,-0.0156 -0.03319,-0.004 -0.08455,-0.0183 -0.495177,-0.2306 -1.029909,-0.52757 -0.374367,-0.21309 -1.01395,-0.58067 -1.726578,-0.99071 -2.848419,-1.65105 -4.875208,-2.82153 -6.116102,-3.52638 -0.323434,-0.18635 -0.739784,-0.42664 -0.950642,-0.54789 -0.345547,-0.1987 -0.687415,-0.37766 -0.969955,-0.51128 -0.169431,-0.0857 -0.284678,-0.13821 -0.356187,-0.16303 -0.05123,-0.0178 -0.105128,-0.0338 -0.160143,-0.0489 -0.0069,-0.002 -0.017,-0.006 -0.02382,-0.007 -0.01458,-0.004 -0.02938,-0.007 -0.04395,-0.0104 -0.02024,-0.005 -0.04071,-0.009 -0.06142,-0.0145 -0.02892,-0.007 -0.05782,-0.013 -0.08709,-0.0187 -0.01249,-0.002 -0.02509,-0.005 -0.03758,-0.007 -0.150719,-0.0284 -0.304328,-0.0473 -0.459395,-0.0566 -0.07934,-0.006 -0.159081,-0.009 -0.238847,-0.009 z"
           style="fill:#ffffff;fill-opacity:1;stroke-width:0.07380246"
           inkscape:connector-curvature="0" />
        <path
           id="path2053"
           d="m 16.473954,242.77109 -0.0023,0.0135 -0.0392,0.2635 c -0.0093,0.0652 -0.065,0.39343 -0.128861,0.77059 -0.246478,1.4005 -0.500406,2.88967 -0.734139,4.28084 -0.591506,3.45037 -0.738835,4.38391 -0.738604,4.64003 1.1e-5,0.009 6.71e-4,0.0178 8.91e-4,0.0267 -1.51e-4,0.004 -0.0011,0.0127 -0.0011,0.0159 0,0.10582 0.02012,0.21206 0.05597,0.31424 0.0628,0.25865 0.212083,0.43566 0.47842,0.59805 0.01469,0.009 0.02903,0.0173 0.04441,0.0252 0.0148,0.009 0.03065,0.0147 0.04857,0.0212 0.04383,0.0233 0.08662,0.0406 0.12613,0.0481 0.01214,0.002 0.07367,0.005 0.170091,0.007 0.085,0.0201 0.164885,0.0332 0.220399,0.0326 l 0.221405,-0.002 -0.04488,-0.0116 c 0.0643,0.002 0.129832,0.005 0.206844,0.006 0.389877,0.009 0.950665,0.0143 1.770688,0.017 0.412533,9.5e-4 1.118152,9.5e-4 1.6731,9.5e-4 0.04071,3e-5 0.08119,1.6e-4 0.122812,1.6e-4 0.523328,2.2e-4 0.899441,9.5e-4 1.565566,9.5e-4 h 0.0011 l 5.811947,1.4e-4 h 1.51e-4 v -1.4e-4 -4.80134 -0.10871 c 0,-0.67047 2.2e-4,-1.25452 -2.2e-4,-1.76433 v -0.009 c -8.91e-4,-0.74557 -0.0035,-1.33102 -0.01041,-1.79562 -1.63e-4,-0.009 -1.63e-4,-0.0198 -2.32e-4,-0.0285 -2.2e-4,-0.0161 -6.59e-4,-0.0284 -8.79e-4,-0.0441 -0.0046,-0.3146 -0.01238,-0.57103 -0.02278,-0.78242 l -0.0023,-0.59199 v -0.0117 l -0.05609,-0.0918 c -0.0104,-0.0304 -0.02151,-0.0611 -0.03516,-0.0919 -8.79e-4,-0.002 -0.0023,-0.004 -0.0023,-0.006 -3.4e-5,-6e-5 -6.9e-5,-2.2e-4 -1.5e-4,-2.2e-4 -8.9e-4,-0.004 -0.0023,-0.007 -0.0023,-0.0104 -0.0058,-0.0212 -0.01295,-0.0411 -0.0199,-0.0598 -0.01226,-0.033 -0.02556,-0.0622 -0.03978,-0.0895 -0.0023,-0.004 -0.0035,-0.009 -0.0058,-0.012 -3.5e-5,-6e-5 -1.51e-4,-9e-5 -1.51e-4,-1.7e-4 -0.05795,-0.10674 -0.132468,-0.17924 -0.22876,-0.28193 -0.01041,-0.0104 -0.02163,-0.0216 -0.03319,-0.0327 -0.0035,-0.005 -0.0069,-0.009 -0.0093,-0.009 -0.03424,-0.032 -0.07667,-0.0652 -0.120221,-0.0986 -0.04013,-0.0318 -0.08084,-0.0617 -0.123389,-0.0912 -0.06511,-0.0452 -0.130283,-0.0871 -0.186664,-0.11605 -0.06465,-0.0333 -0.128085,-0.0587 -0.256147,-0.0781 l -0.123829,-0.0627 h -3.012634 -0.01272 c -0.02625,-1e-5 -0.03851,-1.6e-4 -0.06534,-1.6e-4 -0.131612,0 -0.228876,9.5e-4 -0.352868,9.5e-4 -0.03053,5e-5 -0.0547,2.3e-4 -0.08442,2.3e-4 -0.407629,-2.3e-4 -0.684941,-9.5e-4 -1.193095,-9.5e-4 H 19.44551 c -0.0035,-10e-6 -0.0058,-1.5e-4 -0.0081,-1.5e-4 -8.91e-4,0 -0.0023,1.5e-4 -0.0023,1.5e-4 H 19.404522 19.377 16.887903 Z"
           style="fill:#ffffff;fill-opacity:1;stroke-width:0.07380246"
           inkscape:connector-curvature="0" />
      </g>
    </g>
  </g>
</svg>
