<?xml version="1.0" encoding="UTF-8" standalone="no"?>
<svg
   xmlns:dc="http://purl.org/dc/elements/1.1/"
   xmlns:cc="http://creativecommons.org/ns#"
   xmlns:rdf="http://www.w3.org/1999/02/22-rdf-syntax-ns#"
   xmlns:svg="http://www.w3.org/2000/svg"
   xmlns="http://www.w3.org/2000/svg"
   xmlns:sodipodi="http://sodipodi.sourceforge.net/DTD/sodipodi-0.dtd"
   xmlns:inkscape="http://www.inkscape.org/namespaces/inkscape"
   width="39.6875mm"
   height="39.6875mm"
   viewBox="0 0 39.6875 39.6875"
   version="1.1"
   id="svg197"
   inkscape:version="1.0 (4035a4fb49, 2020-05-01)"
   sodipodi:docname="مشروع مسجد.svg">
  <defs
     id="defs191" />
  <sodipodi:namedview
     fit-margin-bottom="0"
     fit-margin-right="0"
     fit-margin-left="0"
     fit-margin-top="0"
     id="base"
     pagecolor="#ffffff"
     bordercolor="#666666"
     borderopacity="1.0"
     inkscape:pageopacity="0.0"
     inkscape:pageshadow="2"
     inkscape:zoom="0.35"
     inkscape:cx="56.017827"
     inkscape:cy="173.15934"
     inkscape:document-units="mm"
     inkscape:current-layer="layer1"
     inkscape:document-rotation="0"
     showgrid="false"
     inkscape:window-width="1424"
     inkscape:window-height="1030"
     inkscape:window-x="160"
     inkscape:window-y="0"
     inkscape:window-maximized="0" />
  <metadata
     id="metadata194">
    <rdf:RDF>
      <cc:Work
         rdf:about="">
        <dc:format>image/svg+xml</dc:format>
        <dc:type
           rdf:resource="http://purl.org/dc/dcmitype/StillImage" />
        <dc:title></dc:title>
      </cc:Work>
    </rdf:RDF>
  </metadata>
  <g
     transform="translate(-91.01195,-102.35159)"
     inkscape:label="Layer 1"
     inkscape:groupmode="layer"
     id="layer1">
    <path
       inkscape:connector-curvature="0"
       id="path17973-2-83-93"
       d="m 113.4908,102.35184 h -6e-5 c -0.0333,0 -0.0654,6e-5 -0.0965,0.002 -0.15404,-0.007 -0.27052,0.015 -0.37729,0.079 -0.35742,0.15593 -0.55952,0.55313 -0.90169,1.3228 -0.73778,1.6596 -1.81912,2.28816 -3.93654,2.28816 -0.87836,0 -1.47924,-0.0705 -1.97161,-0.27991 -0.37654,-0.21038 -0.74347,-0.50048 -1.12615,-0.87979 -0.0416,-0.048 -0.0835,-0.0977 -0.12589,-0.14944 -1.07457,-1.31061 -1.23407,-1.35113 -2.66157,-0.6764 -0.67758,0.32026 -1.8455,0.97896 -2.595403,1.46381 l -1.363452,0.88154 0.142343,0.76516 c 0.07831,0.42085 0.259765,1.08632 0.40321,1.47883 0.152023,0.41605 0.206751,0.9969 0.131245,1.39279 -0.204686,1.0733 -1.256796,2.71962 -2.152356,3.368 -0.763288,0.5526 -0.943199,0.59405 -2.577329,0.59405 -0.259781,0 -0.480742,6e-5 -0.670629,0.003 -0.19505,-0.008 -0.361305,-0.004 -0.50522,0.0165 -0.592098,0.0396 -0.673886,0.16061 -0.864907,0.52979 -0.494278,0.95529 -1.307278,4.5431 -1.22298,5.28012 0.0013,0.0884 0.01013,0.1504 0.02887,0.18064 0.03678,0.0595 0.249117,0.195 0.555282,0.36187 0.316405,0.20235 0.732791,0.43788 1.165932,0.65374 1.397873,0.69665 1.563513,0.84546 2.052229,1.8438 0.92953,1.89878 0.413853,3.90122 -1.326362,5.15075 -1.272246,0.91351 -1.394928,1.42475 -0.688651,2.86944 0.921701,1.8853 2.287726,3.80334 2.708829,3.80334 0.209393,0 0.852011,-0.17905 1.428054,-0.39788 0.675853,-0.25672 1.179589,-0.38155 1.665718,-0.37095 0.06287,0.002 0.126058,0.006 0.189356,0.011 0.424121,0.0402 0.850198,0.18478 1.382151,0.43613 0.38189,0.18043 0.72024,0.37862 1.01611,0.5961 0.34369,0.29683 0.68226,0.64226 0.95967,0.97796 0.51624,0.76312 0.70631,1.69464 0.59008,2.82862 -0.091,0.88751 -0.0572,1.37419 0.10949,1.57486 0.23748,0.28598 2.5362,1.12139 4.09335,1.48762 0.64554,0.15183 1.07902,0.22571 1.41339,0.1685 0.10085,0.0173 0.17336,0.0284 0.20613,0.0311 0.2105,0.0174 0.50684,-0.3459 0.77251,-0.91003 0.0921,-0.16062 0.18895,-0.34574 0.29554,-0.55796 0.59052,-1.17568 0.83636,-1.45803 1.61203,-1.85166 2.19914,-1.11606 4.42257,-0.73649 5.64467,0.96362 0.48041,0.6683 0.84658,0.982 1.14642,0.982 h 0.0156 0.006 c 0.0169,0 0.0383,-0.003 0.0639,-0.008 0.71191,-0.11338 3.31327,-1.42696 4.48272,-2.2785 0.8758,-0.63773 0.91845,-0.71173 0.76858,-1.33328 -0.0873,-0.36193 -0.30301,-0.99091 -0.47934,-1.39777 -0.41308,-0.95303 -0.39951,-1.65475 0.0511,-2.64274 0.2096,-0.45953 0.42626,-0.8514 0.66184,-1.18328 0.12478,-0.15302 0.26079,-0.30497 0.40833,-0.45557 0.18163,-0.18541 0.35864,-0.34748 0.53451,-0.48767 0.69312,-0.46445 1.56596,-0.65154 2.76843,-0.65635 0.56702,0.0705 0.95479,0.0874 1.24818,-0.002 l 0.47148,-0.001 0.37772,-0.79588 c 0.49613,-1.04538 1.411,-4.74889 1.26624,-5.12591 -0.0622,-0.16209 -0.54595,-0.49856 -1.07483,-0.74769 -1.36915,-0.6449 -2.0228,-1.32659 -2.35999,-2.4614 -0.15622,-0.52577 -0.25269,-1.02116 -0.28986,-1.48519 -0.003,-0.0824 -0.004,-0.16578 -0.004,-0.25045 0,-0.25506 0.004,-0.48158 0.0142,-0.68638 0.10893,-0.97706 0.53979,-1.77952 1.28994,-2.39386 0.49024,-0.40148 0.94367,-0.93834 1.00763,-1.19306 0.008,-0.0331 0.013,-0.0709 0.0142,-0.11311 0.0278,-0.14008 -0.01,-0.28226 -0.0803,-0.48997 -0.23042,-0.81425 -0.93771,-2.17813 -1.9024,-3.62051 -0.83345,-1.24619 -0.8477,-1.2563 -1.60836,-1.13841 -0.42208,0.0654 -1.02235,0.25067 -1.3339,0.4117 -0.68766,0.35538 -1.0555,0.35637 -2.03988,0.005 -1.11399,-0.39713 -2.26965,-1.26175 -2.77772,-2.07824 -0.346,-0.55608 -0.46951,-1.1188 -0.54655,-2.48995 l -0.0284,-0.50541 c 0.0372,-0.51696 0.0327,-0.77487 -0.0533,-0.94949 l -0.0178,-0.31661 -1.22467,-0.45683 c -0.67357,-0.25129 -1.9529,-0.60435 -2.843,-0.7846 -0.59463,-0.12041 -1.01577,-0.19781 -1.33452,-0.20046 z m -2.62154,5.3969 c 0.44063,1e-4 0.88071,0.0211 1.31818,0.0637 4.38218,0.42689 8.29137,2.77015 10.73224,6.43311 1.26605,1.89988 2.09912,4.26832 2.3285,6.62024 0.3617,3.70885 -0.84935,7.64739 -3.22782,10.49743 -0.58141,0.69667 -1.82198,1.88761 -2.48106,2.38189 -2.88265,2.16163 -6.57886,3.19134 -10.14304,2.82576 -2.77564,-0.28471 -5.61331,-1.46944 -7.71815,-3.22239 -0.26476,-0.22053 -0.6033,-0.53913 -0.9479,-0.88492 -0.15718,-0.15477 -0.31051,-0.31281 -0.45976,-0.47396 -0.391124,-0.41406 -0.749816,-0.82266 -0.969597,-1.11542 -2.14218,-2.85342 -3.177673,-6.50765 -2.836261,-10.00839 0.280566,-2.87662 1.442301,-5.69729 3.227753,-7.83673 0.581405,-0.69666 1.821965,-1.88761 2.481055,-2.3819 2.49614,-1.87177 5.6114,-2.89966 8.69586,-2.89846 z m -0.0638,1.26722 c -0.90524,0.003 -1.8157,0.0983 -2.71612,0.29287 -1.08565,0.2346 -1.9046,0.51652 -2.9195,1.005 -3.7818,1.8201 -6.40029,5.16947 -7.243493,9.26515 -0.497728,2.41762 -0.263967,5.13768 0.637024,7.41196 0.812478,2.05085 2.135559,3.8974 3.775689,5.26946 2.06043,1.72367 4.57779,2.7866 7.26612,3.06809 0.85827,0.0899 2.48963,0.0247 3.44566,-0.13765 5.3584,-0.91002 9.60527,-4.98506 10.70742,-10.27422 0.82399,-3.95416 -0.15102,-7.92487 -2.72746,-11.10752 -2.47863,-3.06188 -6.30268,-4.804 -10.22534,-4.79314 z m -4.6303,2.97929 h 1.2e-4 6e-5 0.002 c 0.1899,0 0.33481,0.0518 0.233,0.0824 -0.24514,0.0738 -0.39411,0.14795 -0.48239,0.24011 -0.0982,0.10313 -0.10395,0.12389 -0.10395,0.42348 0,0.28687 0.008,0.32339 0.089,0.41008 0.14102,0.15079 0.27568,0.2028 0.51869,0.20178 0.35872,-0.002 0.55484,-0.1567 0.60778,-0.47932 0.0306,-0.18653 0.0992,-0.14643 0.1131,0.0663 0.022,0.33468 -0.11732,0.59084 -0.39867,0.73258 -0.19112,0.0962 -0.18644,0.0889 -0.10905,0.17436 0.0483,0.0533 0.0704,0.14359 0.0811,0.32298 0.0131,0.2333 0.008,0.25561 -0.0854,0.35281 -0.0547,0.0571 -0.0928,0.10811 -0.0842,0.11478 0.008,0.006 0.0569,0.0371 0.10786,0.0689 0.13448,0.0838 0.20994,0.27081 0.20994,0.5197 0,0.27332 -0.0429,0.38865 -0.19429,0.52168 l -0.12158,0.1067 0.85207,0.87818 c 0.46863,0.48296 0.852,0.9024 0.852,0.9321 0,0.0298 -0.0716,0.10342 -0.15911,0.16358 -0.0875,0.0602 -0.19942,0.16199 -0.24853,0.22643 -0.17763,0.23272 -0.19746,0.35814 -0.19746,1.24249 v 0.81894 l -0.35595,0.36153 c -0.19578,0.19885 -0.35562,0.37664 -0.35688,0.39508 0,0.0184 0.25608,0.2816 0.57011,0.58489 l 0.57093,0.5514 -10e-4,1.12122 -0.001,1.12115 -0.56943,0.54706 c -0.31324,0.30086 -0.56962,0.56389 -0.56962,0.58451 0,0.0206 0.16025,0.20002 0.35601,0.39886 l 0.35595,0.36156 v 2.65551 2.65557 h 0.40939 0.40925 v -1.32953 c 0,-1.29894 0.002,-1.33759 0.0885,-1.67818 0.15785,-0.62191 0.44704,-1.11483 0.9769,-1.66516 0.65842,-0.68385 1.43397,-1.21755 2.66393,-1.83334 0.27554,-0.13794 0.51042,-0.26627 0.52205,-0.28508 0.0117,-0.0187 -0.01,-0.044 -0.0483,-0.0561 -0.0382,-0.0121 -0.11688,-0.0759 -0.17476,-0.14178 -0.20606,-0.23451 -0.18242,-0.66066 0.0491,-0.88542 0.1133,-0.10995 0.11873,-0.12449 0.0645,-0.16955 -0.17173,-0.14236 -0.20844,-0.53181 -0.0661,-0.70091 0.11062,-0.13138 0.11036,-0.13566 -0.007,-0.16507 -0.15699,-0.0394 -0.27567,-0.14537 -0.38246,-0.34147 -0.0821,-0.15067 -0.10394,-0.24219 -0.11753,-0.49179 -0.0155,-0.2862 -0.01,-0.31974 0.0867,-0.50219 0.0885,-0.16755 0.13521,-0.21204 0.32703,-0.31126 0.18506,-0.0958 0.26372,-0.11585 0.4544,-0.11585 0.23453,0 0.38714,0.0475 0.34941,0.10856 -0.0116,0.0184 -0.10558,0.0336 -0.20919,0.0336 -0.13734,0 -0.22129,0.0221 -0.3095,0.0815 -0.17556,0.11816 -0.22769,0.24755 -0.22769,0.56532 0,0.30793 0.0547,0.41784 0.27071,0.54504 0.15583,0.0917 0.53207,0.0964 0.6957,0.009 0.12873,-0.0691 0.26161,-0.31307 0.26161,-0.48031 0,-0.13548 0.0542,-0.17817 0.10518,-0.0829 0.0256,0.0475 0.0268,0.14675 0.004,0.30851 -0.0449,0.31689 -0.1793,0.53407 -0.40108,0.64813 l -0.16691,0.0859 0.0783,0.10593 c 0.10646,0.14503 0.10418,0.42785 -0.006,0.61398 l -0.0797,0.13503 0.12632,0.12632 c 0.28201,0.2819 0.25052,0.79688 -0.0601,0.982 -0.16761,0.0999 -0.17697,0.0914 0.3903,0.35532 2.01915,0.93949 3.27588,2.11797 3.64587,3.4191 0.0787,0.27674 0.0812,0.33573 0.0923,2.12915 0.008,1.36615 -2e-5,1.85737 -0.0301,1.89442 l -12.56424,0.0301 c -0.0225,-0.0272 -0.0321,-1.15231 -0.0255,-3.15908 l 0.009,-3.11676 0.34704,-0.34814 c 0.19088,-0.19149 0.34685,-0.37194 0.34685,-0.40087 -1e-4,-0.029 -0.18705,-0.23692 -0.4153,-0.46193 -0.22827,-0.22504 -0.48438,-0.48564 -0.56932,-0.57922 l -0.15434,-0.17017 v -1.08496 -1.08494 l 0.56949,-0.5736 c 0.31326,-0.31548 0.56963,-0.5901 0.56963,-0.61024 0,-0.0201 -0.16026,-0.19703 -0.35602,-0.39327 l -0.35602,-0.35674 v -0.82161 c 0,-0.81577 2e-5,-0.82294 -0.0935,-1.00925 -0.0854,-0.17131 -0.38866,-0.46672 -0.47914,-0.46672 -0.0178,0 -0.0324,-0.0325 -0.0324,-0.0723 0,-0.047 0.30548,-0.37762 0.87215,-0.94413 0.47967,-0.47952 0.87207,-0.88005 0.87207,-0.89065 0,-0.0104 -0.0541,-0.0699 -0.12053,-0.13242 -0.27074,-0.25532 -0.26734,-0.77954 0.007,-1.00967 l 0.0935,-0.0785 -0.0848,-0.0901 c -0.12435,-0.13231 -0.14331,-0.42913 -0.0399,-0.62731 0.0424,-0.0813 0.0732,-0.15136 0.0666,-0.15709 -0.006,-0.005 -0.0746,-0.0415 -0.15294,-0.0809 -0.17663,-0.089 -0.24317,-0.16134 -0.33544,-0.36455 -0.0871,-0.19208 -0.10078,-0.6486 -0.0249,-0.83019 0.12865,-0.30778 0.41721,-0.48601 0.78498,-0.485 z"
       style="fill:#e4d4ba;fill-opacity:1;stroke-width:0.199024" />
  </g>
</svg>
