<?xml version="1.0" encoding="UTF-8" standalone="no"?>
<svg
   xmlns:dc="http://purl.org/dc/elements/1.1/"
   xmlns:cc="http://creativecommons.org/ns#"
   xmlns:rdf="http://www.w3.org/1999/02/22-rdf-syntax-ns#"
   xmlns:svg="http://www.w3.org/2000/svg"
   xmlns="http://www.w3.org/2000/svg"
   xmlns:sodipodi="http://sodipodi.sourceforge.net/DTD/sodipodi-0.dtd"
   xmlns:inkscape="http://www.inkscape.org/namespaces/inkscape"
   sodipodi:docname="مشروع مدن اقتصادية.svg"
   inkscape:version="1.0 (4035a4fb49, 2020-05-01)"
   id="svg528"
   version="1.1"
   viewBox="0 0 39.687504 39.687447"
   height="39.687447mm"
   width="39.687504mm">
  <defs
     id="defs522" />
  <sodipodi:namedview
     inkscape:window-maximized="0"
     inkscape:window-y="0"
     inkscape:window-x="128"
     inkscape:window-height="1030"
     inkscape:window-width="1424"
     fit-margin-bottom="0"
     fit-margin-right="0"
     fit-margin-left="0"
     fit-margin-top="0"
     showgrid="false"
     inkscape:document-rotation="0"
     inkscape:current-layer="layer1"
     inkscape:document-units="mm"
     inkscape:cy="613.16097"
     inkscape:cx="587.44621"
     inkscape:zoom="0.35"
     inkscape:pageshadow="2"
     inkscape:pageopacity="0.0"
     borderopacity="1.0"
     bordercolor="#666666"
     pagecolor="#ffffff"
     id="base" />
  <metadata
     id="metadata525">
    <rdf:RDF>
      <cc:Work
         rdf:about="">
        <dc:format>image/svg+xml</dc:format>
        <dc:type
           rdf:resource="http://purl.org/dc/dcmitype/StillImage" />
        <dc:title></dc:title>
      </cc:Work>
    </rdf:RDF>
  </metadata>
  <g
     transform="translate(49.595143,14.065506)"
     id="layer1"
     inkscape:groupmode="layer"
     inkscape:label="Layer 1">
    <path
       style="fill:#cbb778;fill-opacity:1;stroke-width:0.199024"
       d="m -27.116521,-14.065506 -6.4e-5,6.03e-4 c -0.03329,0 -0.06537,5.8e-5 -0.09652,0.0017 -0.154033,-0.0072 -0.270502,0.01497 -0.377273,0.07895 -0.357417,0.155919 -0.559521,0.553138 -0.901679,1.322813 -0.737777,1.659596 -1.819104,2.288187 -3.936512,2.288187 -0.878337,0 -1.479211,-0.07044 -1.971578,-0.279856 -0.376537,-0.210384 -0.743459,-0.500503 -1.126148,-0.879815 -0.04159,-0.04796 -0.08348,-0.0977 -0.125878,-0.14943 -1.074564,-1.310626 -1.23405,-1.351204 -2.661534,-0.67649 -0.677583,0.32028 -1.845482,0.978994 -2.595383,1.463831 l -1.363442,0.881625 0.142345,0.7650979 c 0.07831,0.4208443 0.259766,1.0863915 0.403208,1.4789104 0.152019,0.4160299 0.206749,0.9969052 0.131246,1.392791 -0.204686,1.0733091 -1.256791,2.7196428 -2.152336,3.3680327 -0.763279,0.5525983 -0.943176,0.5940458 -2.5773,0.5940458 -0.259779,0 -0.480738,-1.33e-5 -0.670623,0.00262 -0.195048,-0.00808 -0.361301,-0.00397 -0.505214,0.016514 -0.59208,0.039589 -0.67388,0.1606004 -0.864898,0.5297991 -0.494273,0.95528035 -1.307264,4.5431197 -1.222967,5.2801539 0.0013,0.088425 0.01013,0.1504071 0.02887,0.1806505 0.03679,0.059495 0.249114,0.1949934 0.555275,0.3618594 0.316415,0.2023544 0.732796,0.4378797 1.165921,0.6537399 1.397857,0.6966711 1.563507,0.8454787 2.052207,1.843823 0.92952,1.8987945 0.413848,3.9012554 -1.326348,5.1507884 -1.272232,0.913511 -1.394914,1.424754 -0.688633,2.869457 0.92168,1.885311 2.287691,3.803365 2.708789,3.803365 0.209402,0 0.852015,-0.179051 1.428038,-0.397877 0.675852,-0.256728 1.179583,-0.38156 1.665701,-0.370961 0.06287,0.0024 0.126059,0.0062 0.189354,0.01098 0.424113,0.04024 0.850181,0.18479 1.382139,0.436138 0.381869,0.180432 0.720238,0.378623 1.016097,0.596101 0.343689,0.296833 0.682251,0.642263 0.959666,0.977965 0.516227,0.763138 0.706293,1.694651 0.590065,2.828638 -0.09098,0.887525 -0.05714,1.374197 0.109485,1.574875 0.237486,0.285982 2.536177,1.121389 4.093316,1.487632 0.645531,0.151828 1.079006,0.225719 1.413382,0.168502 0.100835,0.0173 0.173347,0.02838 0.206122,0.03109 0.210489,0.01741 0.50683,-0.345907 0.772496,-0.91004 0.09214,-0.160625 0.188944,-0.345737 0.295533,-0.557965 0.590512,-1.175689 0.836362,-1.458033 1.61203,-1.851676 2.199111,-1.116071 4.422517,-0.736484 5.644603,0.963632 0.480412,0.66831 0.846575,0.982014 1.146403,0.982014 h 0.01559 0.0064 c 0.01689,0 0.0383,-0.0027 0.06391,-0.008 0.711914,-0.113388 3.313232,-1.426978 4.482675,-2.27853 0.875793,-0.637731 0.918446,-0.711733 0.768574,-1.333282 -0.08728,-0.361928 -0.302999,-0.990921 -0.479337,-1.397774 -0.413076,-0.953038 -0.399505,-1.654773 0.05112,-2.64276 0.209608,-0.45954 0.426247,-0.85141 0.661839,-1.183289 0.124769,-0.153024 0.260779,-0.30498 0.408312,-0.455583 0.181632,-0.185413 0.358647,-0.347476 0.534516,-0.487671 0.693107,-0.464446 1.565944,-0.651548 2.768404,-0.656359 0.566999,0.0705 0.954778,0.0874 1.248154,-0.0019 l 0.471483,-0.0012 0.377707,-0.79588 C -10.693087,11.959739 -9.7782244,8.2562054 -9.9229802,7.8791972 -9.985228,7.71709 -10.468919,7.3806137 -10.997814,7.1314836 c -1.369123,-0.6449061 -2.022762,-1.3266009 -2.359948,-2.4614208 -0.15623,-0.52577 -0.252685,-1.0211544 -0.289862,-1.4852037 -0.0028,-0.082359 -0.0041,-0.1657779 -0.0041,-0.2504413 0,-0.2550772 0.0037,-0.4815903 0.01421,-0.6863946 0.108929,-0.9770711 0.539785,-1.7795245 1.289941,-2.39387122 0.490218,-0.40147892 0.943645,-0.93834818 1.007603,-1.19307428 0.0082,-0.033124 0.01297,-0.070945 0.01417,-0.113101 0.02779,-0.1400968 -0.0097,-0.2822697 -0.08031,-0.4899789 -0.230426,-0.814257 -0.937699,-2.1781449 -1.902383,-3.6205307 -0.833437,-1.246197 -0.847697,-1.2563082 -1.608344,-1.1384267 -0.422075,0.065444 -1.022346,0.2506814 -1.333887,0.4117137 -0.687655,0.3553888 -1.055497,0.3563744 -2.039855,0.00542 -1.113977,-0.3971258 -2.269632,-1.2617631 -2.777692,-2.0782483 -0.345994,-0.5560953 -0.469507,-1.1188025 -0.546554,-2.4899628 l -0.02843,-0.505432 c 0.03724,-0.516964 0.03267,-0.774863 -0.05331,-0.949487 l -0.01783,-0.316617 -1.224644,-0.456828 c -0.673566,-0.251275 -1.952879,-0.604361 -2.842977,-0.7846 -0.594613,-0.120431 -1.01576,-0.197814 -1.334514,-0.200468 z m -2.6215,5.3969333 c 0.440628,9.53e-5 0.880701,0.021133 1.318169,0.063746 4.38213,0.4268987 8.291266,2.7701726 10.732121,6.4331605 1.266031,1.89989172 2.099097,4.2684075 2.328474,6.6203535 0.361701,3.7088711 -0.849337,7.6473627 -3.227788,10.4974337 -0.581404,0.696671 -1.821947,1.887625 -2.481037,2.381907 -2.882617,2.161648 -6.578793,3.191366 -10.14293,2.825777 -2.775618,-0.284717 -5.613252,-1.469449 -7.718078,-3.222407 -0.26476,-0.220527 -0.603286,-0.539138 -0.94788,-0.88493 -0.157182,-0.154771 -0.310504,-0.312813 -0.45976,-0.473961 -0.391121,-0.414071 -0.749805,-0.822673 -0.969582,-1.115432 -2.142143,-2.853433 -3.177638,-6.5076237 -2.836229,-10.0083876 0.280563,-2.8766387 1.44228,-5.6973985 3.227712,-7.836856 0.581404,-0.6966614 1.821947,-1.8876288 2.481037,-2.381907 2.496116,-1.8717973 5.611334,-2.8997034 8.695771,-2.8984971 z m -0.06379,1.2672253 c -0.90523,0.00253 -1.815679,0.098325 -2.716091,0.2928792 -1.085641,0.2346002 -1.904591,0.5165901 -2.91947,1.0050707 -3.78175,1.820124 -6.400234,5.16945526 -7.243419,9.2651643 -0.497717,2.4176402 -0.263965,5.1377113 0.637015,7.4119962 0.812472,2.050876 2.135538,3.897436 3.775646,5.269498 2.06041,1.723677 4.577745,2.786619 7.266038,3.068116 0.858269,0.08987 2.489619,0.02472 3.445642,-0.137654 5.358347,-0.910027 9.605177,-4.985087 10.707309,-10.2742827 0.82398,-3.9541928 -0.151017,-7.9249374 -2.727438,-11.1076169 -2.478601,-3.0618926 -6.302608,-4.8040203 -10.225232,-4.7931708 z m 4.568662,3.1260693 h 6.4e-5 c 0.08262,0.00241 0.164347,0.036582 0.210923,0.1050633 0.03598,0.052876 0.03972,0.1502696 0.04551,1.1737558 l 0.0064,1.1161751 h -0.05637 c -0.03098,0 -0.0563,-0.00832 -0.0563,-0.018633 0,-0.028232 -0.10519,-0.070165 -0.175892,-0.070165 -0.03443,0 -0.08806,0.01994 -0.119147,0.044367 -0.132935,0.1044409 -0.127241,0.1503879 -0.127241,-1.0537367 0,-0.6595398 0.0086,-1.1206409 0.02169,-1.1548759 0.03644,-0.095769 0.144106,-0.1451103 0.250333,-0.1419509 z m -4.69466,0.927551 c 0.199523,0 0.399058,0.00929 0.417792,0.028043 0.01866,0.018715 0.02674,0.1431898 0.02674,0.4176294 0,0.2744445 -0.008,0.3988629 -0.02674,0.4175704 -0.03749,0.0375 -0.798093,0.0375 -0.835602,0 -0.01878,-0.018708 -0.02662,-0.1431259 -0.02662,-0.4175704 0,-0.2744396 0.0078,-0.3989148 0.02662,-0.4176294 0.01875,-0.01877 0.218262,-0.028043 0.41781,-0.028043 z m -2.406421,0.00461 c 0.0477,0 0.09875,0.00121 0.150704,0.00156 l 0.377768,0.00636 v 0.1041875 c 0.01207,0.1694958 0.01384,0.6199766 0,0.7039054 v 0.05814 l -0.412437,0.00604 c -0.226882,0.00326 -0.419457,-0.00121 -0.427901,-0.00929 -0.0084,-0.00844 -0.01533,-0.2033665 -0.01533,-0.4332101 0,-0.4149116 6.3e-5,-0.4179938 0.05012,-0.4302197 0.02064,-0.00495 0.133972,-0.00832 0.277076,-0.00748 z m -1.004987,1.2739576 h 2.200403 2.200225 v 0.3297054 c 0.0054,0.82863143 0.0098,3.5312045 0.0098,6.7375016 0,1.3976379 -0.0017,2.5356605 -0.0017,3.4823206 l 0.0028,3.5224509 h 0.435694 c -0.0076,-0.240023 -0.0134,-2.0142562 -0.0134,-4.145284 0,-3.7517782 0.0034,-4.1628513 0.03485,-4.1943251 0.03001,-0.030013 0.118158,-0.034586 0.627847,-0.034586 V 3.62856 c 0.326103,0 0.605482,0.00831 0.620815,0.018008 0.02216,0.014069 0.02665,0.8695385 0.0222,4.2034243 l -0.0057,4.1528227 h 0.446791 c -0.0075,-0.28437 -0.0134,-2.8951406 -0.0134,-6.0446906 v -6.05908113 l 0.05,-0.0537784 c 0.02749,-0.0295787 0.239137,-0.22251487 0.47035,-0.42878368 0.231237,-0.20629173 0.545903,-0.48794019 0.699248,-0.62588619 0.166048,-0.1494216 0.29405,-0.2482471 0.316475,-0.2444002 0.0207,0.00362 0.368673,0.3046106 0.773184,0.66894655 l 0.735534,0.66240187 V 5.9621127 12.002817 h 0.434945 c -0.0074,-0.175032 -0.01273,-1.199342 -0.01273,-2.4244692 0,-2.3885176 0.0012,-2.439332 0.04296,-2.4618562 0.02863,-0.015302 0.210864,-0.024019 0.35801,-0.022934 0.08828,0.00121 0.164021,0.00495 0.186169,0.013397 0.03173,0.012181 0.0351,0.2510602 0.0351,2.4766902 v 2.4191722 h 0.431896 c -0.0052,-0.152028 -0.0071,-1.511624 -0.004,-3.1434545 l 0.0058,-3.1319258 0.629838,-0.011219 0.629789,-0.010905 0.05362,-0.062377 0.05362,-0.062314 V 4.4619532 c 0,-0.6152671 0.006,-1.1344761 0.0134,-1.1538168 0.0078,-0.02049 0.01677,-0.031716 0.03137,-0.031716 h 6.2e-5 c 0.02431,0 0.06447,0.031106 0.142031,0.1020692 0.595072,0.5443991 1.588044,1.4637194 1.61913,1.4990992 0.0054,0.00615 0.0099,0.01436 0.01403,0.02717 l 0.0012,0.00121 v 0.00224 c 0.02194,0.076957 0.0228,0.3324509 0.01834,1.4941147 l -0.0058,1.4799683 -0.448288,0.011158 c -0.433933,0.010736 -0.450134,0.012788 -0.504466,0.063874 -0.03087,0.029024 -0.06228,0.080745 -0.06976,0.1149695 -0.01573,0.071652 0.03358,0.1834539 0.09383,0.2126152 0.02186,0.010616 0.239814,0.024276 0.484272,0.030473 l 0.444416,0.011158 0.0062,0.3758828 c 0.0046,0.2858947 -0.0012,0.3802762 -0.02227,0.3939509 -0.01559,0.00989 -0.216533,0.018323 -0.446539,0.018323 -0.24359,0 -0.436008,0.00989 -0.460943,0.023243 -0.05051,0.02701 -0.109798,0.1338096 -0.109798,0.1977209 0,0.024852 0.02908,0.077874 0.06473,0.1177753 l 0.05542,0.062004 c 0.0099,0.00458 0.02109,0.0082 0.03461,0.011098 l 0.426707,0.010531 0.451907,0.010977 0.0062,0.3725775 c 0.0047,0.2866671 -0.0012,0.3750261 -0.02245,0.3834211 -0.01563,0.006 -0.220658,0.0133 -0.455647,0.0162 l -0.26242,0.0032 c -0.08572,0.0047 -0.145975,0.01121 -0.18617,0.02337 l -0.03978,0.03976 c -0.0867,0.08649 -0.08625,0.221926 0.0012,0.296678 0.06063,0.05201 0.07032,0.05322 0.491244,0.05322 0.336741,0 0.434898,0.0065 0.454778,0.03041 0.018,0.02157 0.02355,0.211381 0.01932,0.649692 l -0.0057,0.586628 h -3.202112 -0.431882 -0.609523 -0.434946 -3.031319 -0.446852 -1.286636 -0.435743 -4.422775 l 0.0057,-7.014364 z m -2.299608,3.1868848 h 6.4e-5 c 0.909073,0.00121 1.816589,0.00924 1.835854,0.025113 0.04118,0.034171 0.04457,0.9740758 0.0037,1.014978 -0.0203,0.020311 -0.462523,0.026548 -1.854493,0.026548 -1.005277,0 -1.832828,-0.00819 -1.839102,-0.018384 -0.0063,-0.010133 -0.01439,-0.2403687 -0.01802,-0.5116634 -0.0057,-0.4193147 -0.0016,-0.4963663 0.02676,-0.5140315 0.02555,-0.015879 0.936144,-0.023163 1.845205,-0.02256 z m -0.0017,1.4900024 v 6.39e-5 c 0.701046,-0.00121 1.395553,0.00218 1.679928,0.00978 h 0.176881 v 4.7089766 4.6765148 h -3.722714 l 0.0042,-3.5083044 c 0,-0.3832364 -0.0012,-0.7238287 -0.0012,-1.1735061 -0.0012,-2.6213517 1.2e-5,-3.7688088 0.0076,-4.2781368 l 0.0012,-0.4256092 h 0.368853 c 0.347211,-0.00567 0.915515,-0.00918 1.485266,-0.00978 z m -2.889228,2.0644167 h 1.21e-4 c 0.427817,0 0.556277,0.0067 0.575107,0.029287 0.01746,0.020837 0.0229,1.0719664 0.0194,3.681541 l -0.0047,3.6200946 h -2.511465 c -0.0064,-0.07966 -0.01098,-0.325587 -0.01098,-0.612924 0,-0.551222 0.0041,-0.628627 0.03503,-0.640467 0.01935,-0.0075 0.219982,-0.01352 0.445924,-0.01352 0.239235,0 0.428757,-0.0095 0.453644,-0.02275 0.06393,-0.03421 0.114949,-0.147887 0.09901,-0.220406 -0.0075,-0.03423 -0.03852,-0.08555 -0.06883,-0.114035 -0.05325,-0.04996 -0.06995,-0.05203 -0.482149,-0.05845 -0.234905,-0.0036 -0.439869,-0.01133 -0.455454,-0.01708 -0.02105,-0.0081 -0.02696,-0.09711 -0.02226,-0.3831092 l 0.0062,-0.3725763 0.157483,-0.00368 c 0.06506,-0.00326 0.150608,-0.00544 0.2471,-0.00616 l 0.04377,-0.00125 c 0.433945,-0.010736 0.45005,-0.012866 0.504393,-0.063934 0.03088,-0.029023 0.06242,-0.080748 0.06989,-0.1149683 0.01574,-0.071653 -0.03363,-0.1833972 -0.09389,-0.2125549 -0.02186,-0.010616 -0.239802,-0.024313 -0.484272,-0.030474 l -0.444476,-0.011284 V 8.714725 8.3260735 l 0.444476,-0.011098 c 0.29446,-0.00736 0.460797,-0.020428 0.492741,-0.038696 0.06267,-0.035862 0.104237,-0.1596608 0.07725,-0.2301899 -0.01122,-0.029254 -0.04254,-0.073142 -0.06964,-0.097583 -0.04485,-0.040461 -0.08944,-0.04543 -0.497047,-0.055525 l -0.447781,-0.011219 -0.0062,-0.3709599 c -0.0055,-0.3365813 -0.0024,-0.3729647 0.03349,-0.3921426 0.02175,-0.011569 0.283784,-0.022159 0.582273,-0.023244 0.588389,-0.00229 0.624421,-0.00917 0.669248,-0.1269348 0.01239,-0.032762 0.02119,-0.5129711 0.02119,-1.1625999 0,-0.9887735 0.0039,-1.1082558 0.03524,-1.1202911 0.01935,-0.00736 0.283072,-0.013459 0.586133,-0.013459 z"
       id="path17973-2-80"
       inkscape:connector-curvature="0" />
  </g>
</svg>
