<?xml version="1.0" encoding="UTF-8" standalone="no"?>
<svg
   xmlns:dc="http://purl.org/dc/elements/1.1/"
   xmlns:cc="http://creativecommons.org/ns#"
   xmlns:rdf="http://www.w3.org/1999/02/22-rdf-syntax-ns#"
   xmlns:svg="http://www.w3.org/2000/svg"
   xmlns="http://www.w3.org/2000/svg"
   xmlns:sodipodi="http://sodipodi.sourceforge.net/DTD/sodipodi-0.dtd"
   xmlns:inkscape="http://www.inkscape.org/namespaces/inkscape"
   id="Hospitals"
   width="78"
   height="78"
   viewBox="0 0 78 78"
   version="1.1"
   sodipodi:docname="Laboratory.svg"
   inkscape:version="0.92.4 (5da689c313, 2019-01-14)">
  <metadata
     id="metadata1589">
    <rdf:RDF>
      <cc:Work
         rdf:about="">
        <dc:format>image/svg+xml</dc:format>
        <dc:type
           rdf:resource="http://purl.org/dc/dcmitype/StillImage" />
        <dc:title></dc:title>
      </cc:Work>
    </rdf:RDF>
  </metadata>
  <defs
     id="defs1587" />
  <sodipodi:namedview
     pagecolor="#ffffff"
     bordercolor="#666666"
     borderopacity="1"
     objecttolerance="10"
     gridtolerance="10"
     guidetolerance="10"
     inkscape:pageopacity="0"
     inkscape:pageshadow="2"
     inkscape:window-width="1920"
     inkscape:window-height="1001"
     id="namedview1585"
     showgrid="false"
     inkscape:zoom="3.025641"
     inkscape:cx="48.027326"
     inkscape:cy="8.2672709"
     inkscape:window-x="-9"
     inkscape:window-y="-9"
     inkscape:window-maximized="1"
     inkscape:current-layer="Hospitals" />
  <g
     id="g2858">
    <circle
       fill="#f27070"
       r="39"
       cy="39"
       cx="39"
       data-name="Ellipse 78"
       id="Ellipse_78" />
    <g
       transform="translate(0,0.3997696)"
       id="g2852">
      <path
         inkscape:connector-curvature="0"
         style="fill:#da6565;fill-opacity:1;stroke-width:0.09629963"
         d="m 49.849214,15.845921 c -0.0469,0.0024 -0.091,0.0094 -0.13468,0.01886 l -0.19015,-3.89e-4 -0.007,0.0094 -0.0607,7.78e-4 -0.30413,0.393839 c -0.30048,0.324346 -0.73185,0.885178 -1.48757,1.858662 -0.96624,1.244671 -1.79887,2.263038 -1.85038,2.263038 -0.0515,0 -0.2807,-0.153227 -0.50914,-0.340434 -0.46566,-0.38157 -0.97684,-0.62256 -1.32037,-0.62256 -0.20181,0 -0.33983,-0.0035 -0.58231,0.180749 -0.0708,0.03241 -0.13442,0.07496 -0.19918,0.132222 -0.0249,0.02192 -0.12513,0.141924 -0.25899,0.30564 -0.72703,0.787207 -2.11642,2.577765 -5.29216,6.665931 -2.409,3.101152 -4.03666,5.231543 -4.85222,6.347126 -0.24965,0.329921 -0.43415,0.577888 -0.49165,0.665628 -0.0345,0.05269 -0.0722,0.08687 -0.0859,0.12772 -0.0296,0.04267 -0.0495,0.07331 -0.0496,0.07838 -6e-5,0.0024 0.007,0.01179 0.0179,0.02251 -8.7e-4,0.0035 -0.002,0.0083 -0.002,0.01061 0.0328,0.194445 4.65686,3.809907 6.65859,5.260373 0.23636,0.181809 0.4786,0.368686 0.70231,0.539616 0.0387,0.02947 0.0977,0.04337 0.15441,0.04255 0.0249,0.01226 0.0437,0.0198 0.0515,0.01827 0.0918,-0.01768 0.88208,-0.951007 1.75616,-2.074204 0.83301,-1.070405 1.5503,-1.977789 1.67245,-2.116895 0.0239,-0.02369 0.0482,-0.04809 0.0685,-0.06624 0.0921,-0.05115 0.24445,-0.01438 0.58307,0.131279 0.77331,0.332667 1.83143,0.37405 2.6695,0.104548 0.79462,-0.255511 0.85378,-0.23182 1.60455,0.637788 1.52577,1.767291 2.25521,3.691486 2.25965,5.960618 0.002,1.177887 -0.0991,1.893538 -0.40155,2.834443 -0.77339,2.405715 -2.50046,4.354521 -4.81254,5.430395 -1.09547,0.509737 -1.7816,0.701164 -2.94523,0.821553 -0.25964,0.02687 -0.51897,0.04196 -0.77754,0.04609 -0.0143,2.4e-5 -0.0276,1.89e-4 -0.042,1.89e-4 -1.82953,0.02039 -3.61896,-0.524907 -5.19323,-1.59233 -0.60958,-0.413335 -1.71533,-1.404993 -1.71533,-1.538347 0,-0.01839 0.14889,-0.03524 0.40137,-0.04915 l 1.70932,-0.03571 c 0.0566,-1.89e-4 0.10432,-0.0011 0.16194,-0.0011 h 2.27282 l 0.32727,-0.327457 0.32746,-0.327457 v -1.001547 c 5.7e-4,-0.04962 6.7e-4,-0.09783 0,-0.147463 v -1.008148 l -0.28213,-0.281937 c -0.0273,-0.03807 -0.0605,-0.07202 -0.10266,-0.102662 l -0.26985,-0.270102 h -7.2268 -0.0296 -7.197275 l -0.270091,0.23248 -0.27028,0.232468 v 0.412286 c -0.02204,0.197886 -0.03112,0.457687 -0.03607,0.80801 -0.0047,0.35584 0.0047,0.63285 0.03607,0.853154 v 0.463628 l 0.27028,0.232291 0.270091,0.232469 h 2.673265 0.13278 2.53351 c 0.004,0.0012 0.007,0.0024 0.009,0.0035 l 0.22457,0.405508 c 1.1948,2.156663 3.1556,4.038721 5.39598,5.179681 0.34329,0.17482 1.07908,0.479092 1.63521,0.675976 l 1.01115,0.357926 0.0246,0.596039 0.004,0.09182 0.0202,0.558605 v 0.123572 h -3.43218 c -3.23147,0 -3.46441,0.01179 -3.83412,0.190531 -0.55983,0.271022 -0.69628,0.490643 -0.71924,1.531959 -0.004,0.123783 -0.006,0.262041 -0.006,0.411531 -8e-5,0.02074 -9.6e-4,0.03713 -9.6e-4,0.05834 0,0.0035 2e-4,0.0059 2e-4,0.01061 0,0.0047 -2e-4,0.0082 -2e-4,0.01238 0,0.285343 0.006,0.521948 0.0179,0.723571 0.0351,0.794043 0.15378,0.997398 0.52269,1.16029 0.029,0.01285 0.0958,0.02428 0.20332,0.03477 l 0.1036,0.103605 h 0.0929 0.0486 l 0.004,0.0024 1.03503,-0.0024 h 5.97679 c 2.29943,0.01061 4.79675,0.01179 7.02724,0 h 6.03208 0.20501 l 0.10549,-0.09971 c 0.0242,-0.0035 0.0468,-0.0071 0.0581,-0.01179 0.0664,-0.02393 0.12559,-0.04962 0.17887,-0.07885 0.27457,-0.08451 0.2999,-0.206538 0.39122,-0.383126 0.10714,-0.207256 0.14661,-0.59037 0.14652,-1.420233 -8e-5,-0.572254 -0.0242,-0.960388 -0.0961,-1.24889 V 57.17412 l -0.0632,-0.06907 c -0.0931,-0.231313 -0.2356,-0.390444 -0.44934,-0.547336 -0.0382,-0.02805 -0.0747,-0.05174 -0.11849,-0.07261 l -0.0281,-0.03041 -0.0533,-7.78e-4 c -0.29544,-0.09253 -0.97831,-0.102897 -3.62817,-0.124137 l -3.55612,-0.02841 5.7e-4,-0.693845 3.9e-4,-0.693668 0.79409,-0.234531 c 1.08194,-0.319501 2.83566,-1.222111 3.83619,-1.974335 1.53912,-1.157155 2.91661,-2.816139 3.79011,-4.564831 0.48074,-0.962427 1.01603,-2.597531 1.01603,-3.103591 0,-0.102426 0.0106,-0.299782 0.0265,-0.531343 0.0362,-0.314267 0.0633,-0.639767 0.0814,-0.972964 0.0106,-0.111384 0.0189,-0.22964 0.0256,-0.351537 0.0389,-0.52684 0.0401,-0.896552 0.004,-1.412136 -0.007,-0.166876 -0.0152,-0.334824 -0.0263,-0.503125 -6.7e-4,-0.0094 -10e-4,-0.01933 -10e-4,-0.029 -0.0732,-1.087355 -0.23325,-2.166093 -0.44237,-2.790998 -0.71577,-2.138913 -2.20281,-4.366426 -3.78691,-5.672646 -0.55938,-0.461247 -0.57572,-0.48818 -0.62482,-1.029576 -0.0542,-0.598032 -0.38845,-1.426033 -0.78601,-1.94725 -0.13569,-0.177908 -0.24677,-0.356488 -0.24677,-0.396857 0,-0.04043 0.59112,-0.83281 1.31359,-1.760856 1.52025,-1.952801 1.61714,-2.117956 1.54738,-2.638089 -0.0668,-0.49841 -0.25335,-0.768054 -0.86425,-1.248879 -0.27721,-0.218182 -0.51834,-0.434927 -0.53586,-0.481685 -0.0176,-0.04679 0.77335,-1.121229 1.75748,-2.38774 0.94723,-1.219071 1.44696,-1.878463 1.66248,-2.287496 0.0106,-0.01733 0.0204,-0.03465 0.0291,-0.05139 0.006,-0.0094 0.0176,-0.02758 0.0203,-0.03347 0.0222,-0.04868 0.0385,-0.095 0.0477,-0.140685 1e-5,-7.1e-5 -2e-5,-9.4e-5 0,-2e-4 0.0813,-0.249937 0.0106,-0.386567 -0.139,-0.557109 -0.0926,-0.105962 -0.67198,-0.583616 -1.28725,-1.061364 -0.74655,-0.579668 -1.21105,-0.875018 -1.39635,-0.887571 -0.14665,-0.0094 -0.2623,-0.0211 -0.36583,-0.01674 z m -17.27601,19.278737 c -0.44307,-4.83e-4 -0.60462,0.10667 -1.04444,0.693091 -0.43523,0.580363 -0.65541,0.841591 -0.3141,1.310771 0.0306,0.04903 0.0679,0.09771 0.11292,0.146708 0.005,0.0059 0.0242,0.0218 0.0335,0.03064 0.38844,0.425675 1.17106,1.028162 2.53595,2.088313 1.47664,1.146936 2.78642,2.126937 2.91062,2.177832 0.37137,0.152201 0.68436,0.02416 1.1146,-0.45592 0.75592,-0.843618 0.8409,-1.301647 0.33121,-1.784546 -0.14136,-0.133932 -1.40548,-1.135173 -2.80905,-2.22505 -2.1443,-1.665054 -2.60282,-1.981561 -2.87112,-1.981855 z"
         id="path2760-9" />
      <path
         inkscape:connector-curvature="0"
         style="fill:#ffffff;stroke-width:0.09629963"
         d="m 49.849214,16.64546 c -0.0469,0.0024 -0.091,0.0094 -0.13468,0.01886 l -0.19015,-3.89e-4 -0.007,0.0094 -0.0607,7.78e-4 -0.30413,0.393839 c -0.30048,0.324346 -0.73185,0.885178 -1.48757,1.858662 -0.96624,1.244671 -1.79887,2.263038 -1.85038,2.263038 -0.0515,0 -0.2807,-0.153227 -0.50914,-0.340434 -0.46566,-0.38157 -0.97684,-0.62256 -1.32037,-0.62256 -0.20181,0 -0.33983,-0.0035 -0.58231,0.180749 -0.0708,0.03241 -0.13442,0.07496 -0.19918,0.132222 -0.0249,0.02192 -0.12513,0.141924 -0.25899,0.30564 -0.72703,0.787207 -2.11642,2.577765 -5.29216,6.665931 -2.409,3.101152 -4.03666,5.231543 -4.85222,6.347126 -0.24965,0.329921 -0.43415,0.577888 -0.49165,0.665628 -0.0345,0.05269 -0.0722,0.08687 -0.0859,0.12772 -0.0296,0.04267 -0.0495,0.07331 -0.0496,0.07838 -6e-5,0.0024 0.007,0.01179 0.0179,0.02251 -8.7e-4,0.0035 -0.002,0.0083 -0.002,0.01061 0.0328,0.194445 4.65686,3.809907 6.65859,5.260373 0.23636,0.181809 0.4786,0.368686 0.70231,0.539616 0.0387,0.02947 0.0977,0.04337 0.15441,0.04255 0.0249,0.01226 0.0437,0.0198 0.0515,0.01827 0.0918,-0.01768 0.88208,-0.951007 1.75616,-2.074204 0.83301,-1.070405 1.5503,-1.977789 1.67245,-2.116895 0.0239,-0.02369 0.0482,-0.04809 0.0685,-0.06624 0.0921,-0.05115 0.24445,-0.01438 0.58307,0.131279 0.77331,0.332667 1.83143,0.37405 2.6695,0.104548 0.79462,-0.255511 0.85378,-0.23182 1.60455,0.637788 1.52577,1.767291 2.25521,3.691486 2.25965,5.960618 0.002,1.177887 -0.0991,1.893538 -0.40155,2.834443 -0.77339,2.405715 -2.50046,4.354521 -4.81254,5.430395 -1.09547,0.509737 -1.7816,0.701164 -2.94523,0.821553 -0.25964,0.02687 -0.51897,0.04196 -0.77754,0.04609 -0.0143,2.4e-5 -0.0276,1.89e-4 -0.042,1.89e-4 -1.82953,0.02039 -3.61896,-0.524907 -5.19323,-1.59233 -0.60958,-0.413335 -1.71533,-1.404993 -1.71533,-1.538347 0,-0.01839 0.14889,-0.03524 0.40137,-0.04915 l 1.70932,-0.03571 c 0.0566,-1.89e-4 0.10432,-0.0011 0.16194,-0.0011 h 2.27282 l 0.32727,-0.327457 0.32746,-0.327457 v -1.001547 c 5.7e-4,-0.04962 6.7e-4,-0.09783 0,-0.147463 v -1.008148 l -0.28213,-0.281937 c -0.0273,-0.03807 -0.0605,-0.07202 -0.10266,-0.102662 l -0.26985,-0.270102 h -7.2268 -0.0296 -7.197275 l -0.270091,0.23248 -0.27028,0.232468 v 0.412286 c -0.02204,0.197886 -0.03112,0.457687 -0.03607,0.80801 -0.0047,0.35584 0.0047,0.63285 0.03607,0.853154 v 0.463628 l 0.27028,0.232291 0.270091,0.232469 h 2.673265 0.13278 2.53351 c 0.004,0.0012 0.007,0.0024 0.009,0.0035 l 0.22457,0.405508 c 1.1948,2.156663 3.1556,4.038721 5.39598,5.179681 0.34329,0.17482 1.07908,0.479092 1.63521,0.675976 l 1.01115,0.357926 0.0246,0.596039 0.004,0.09182 0.0202,0.558605 v 0.123572 h -3.43218 c -3.23147,0 -3.46441,0.01179 -3.83412,0.190531 -0.55983,0.271022 -0.69628,0.490643 -0.71924,1.531959 -0.004,0.123783 -0.006,0.262041 -0.006,0.411531 -8e-5,0.02074 -9.6e-4,0.03713 -9.6e-4,0.05834 0,0.0035 2e-4,0.0059 2e-4,0.01061 0,0.0047 -2e-4,0.0082 -2e-4,0.01238 0,0.285343 0.006,0.521948 0.0179,0.723571 0.0351,0.794043 0.15378,0.997398 0.52269,1.16029 0.029,0.01285 0.0958,0.02428 0.20332,0.03477 l 0.1036,0.103605 h 0.0929 0.0486 l 0.004,0.0024 1.03503,-0.0024 h 5.97679 c 2.29943,0.01061 4.79675,0.01179 7.02724,0 h 6.03208 0.20501 l 0.10549,-0.09971 c 0.0242,-0.0035 0.0468,-0.0071 0.0581,-0.01179 0.0664,-0.02393 0.12559,-0.04962 0.17887,-0.07885 0.27457,-0.08451 0.2999,-0.206538 0.39122,-0.383126 0.10714,-0.207256 0.14661,-0.59037 0.14652,-1.420233 -8e-5,-0.572254 -0.0242,-0.960388 -0.0961,-1.24889 v -0.130875 l -0.0632,-0.06907 c -0.0931,-0.231313 -0.2356,-0.390444 -0.44934,-0.547336 -0.0382,-0.02805 -0.0747,-0.05174 -0.11849,-0.07261 l -0.0281,-0.03041 -0.0533,-7.78e-4 c -0.29544,-0.09253 -0.97831,-0.102897 -3.62817,-0.124137 l -3.55612,-0.02841 5.7e-4,-0.693845 3.9e-4,-0.693668 0.79409,-0.234531 c 1.08194,-0.319501 2.83566,-1.222111 3.83619,-1.974335 1.53912,-1.157155 2.91661,-2.816139 3.79011,-4.564831 0.48074,-0.962427 1.01603,-2.597531 1.01603,-3.103591 0,-0.102426 0.0106,-0.299782 0.0265,-0.531343 0.0362,-0.314267 0.0633,-0.639767 0.0814,-0.972964 0.0106,-0.111384 0.0189,-0.22964 0.0256,-0.351537 0.0389,-0.52684 0.0401,-0.896552 0.004,-1.412136 -0.007,-0.166876 -0.0152,-0.334824 -0.0263,-0.503125 -6.7e-4,-0.0094 -10e-4,-0.01933 -10e-4,-0.029 -0.0732,-1.087355 -0.23325,-2.166093 -0.44237,-2.790998 -0.71577,-2.138913 -2.20281,-4.366426 -3.78691,-5.672646 -0.55938,-0.461247 -0.57572,-0.48818 -0.62482,-1.029576 -0.0542,-0.598032 -0.38845,-1.426033 -0.78601,-1.94725 -0.13569,-0.177908 -0.24677,-0.356488 -0.24677,-0.396857 0,-0.04043 0.59112,-0.83281 1.31359,-1.760856 1.52025,-1.952801 1.61714,-2.117956 1.54738,-2.638089 -0.0668,-0.49841 -0.25335,-0.768054 -0.86425,-1.248879 -0.27721,-0.218182 -0.51834,-0.434927 -0.53586,-0.481685 -0.0176,-0.04679 0.77335,-1.121229 1.75748,-2.38774 0.94723,-1.219071 1.44696,-1.878463 1.66248,-2.287496 0.0106,-0.01733 0.0204,-0.03465 0.0291,-0.05139 0.006,-0.0094 0.0176,-0.02758 0.0203,-0.03347 0.0222,-0.04868 0.0385,-0.095 0.0477,-0.140685 1e-5,-7.1e-5 -2e-5,-9.4e-5 0,-2e-4 0.0813,-0.249937 0.0106,-0.386567 -0.139,-0.557109 -0.0926,-0.105962 -0.67198,-0.583616 -1.28725,-1.061364 -0.74655,-0.579668 -1.21105,-0.875018 -1.39635,-0.887571 -0.14665,-0.0094 -0.2623,-0.0211 -0.36583,-0.01674 z m -17.27601,19.278737 c -0.44307,-4.83e-4 -0.60462,0.10667 -1.04444,0.693091 -0.43523,0.580363 -0.65541,0.841591 -0.3141,1.310771 0.0306,0.04903 0.0679,0.09771 0.11292,0.146708 0.005,0.0059 0.0242,0.0218 0.0335,0.03064 0.38844,0.425675 1.17106,1.028162 2.53595,2.088313 1.47664,1.146936 2.78642,2.126937 2.91062,2.177832 0.37137,0.152201 0.68436,0.02416 1.1146,-0.45592 0.75592,-0.843618 0.8409,-1.301647 0.33121,-1.784546 -0.14136,-0.133932 -1.40548,-1.135173 -2.80905,-2.22505 -2.1443,-1.665054 -2.60282,-1.981561 -2.87112,-1.981855 z"
         id="path2760" />
    </g>
  </g>
</svg>
