<?xml version="1.0" encoding="UTF-8" standalone="no"?>
<svg
   xmlns:dc="http://purl.org/dc/elements/1.1/"
   xmlns:cc="http://creativecommons.org/ns#"
   xmlns:rdf="http://www.w3.org/1999/02/22-rdf-syntax-ns#"
   xmlns:svg="http://www.w3.org/2000/svg"
   xmlns="http://www.w3.org/2000/svg"
   xmlns:sodipodi="http://sodipodi.sourceforge.net/DTD/sodipodi-0.dtd"
   xmlns:inkscape="http://www.inkscape.org/namespaces/inkscape"
   sodipodi:docname="مشروع التعدين والنفط.svg"
   inkscape:version="1.0 (4035a4fb49, 2020-05-01)"
   id="svg413"
   version="1.1"
   viewBox="0 0 39.687511 39.687531"
   height="39.687531mm"
   width="39.687511mm">
  <defs
     id="defs407" />
  <sodipodi:namedview
     inkscape:window-maximized="0"
     inkscape:window-y="0"
     inkscape:window-x="32"
     inkscape:window-height="1030"
     inkscape:window-width="1424"
     fit-margin-bottom="0"
     fit-margin-right="0"
     fit-margin-left="0"
     fit-margin-top="0"
     showgrid="false"
     inkscape:document-rotation="0"
     inkscape:current-layer="layer1"
     inkscape:document-units="mm"
     inkscape:cy="470.30303"
     inkscape:cx="450.30319"
     inkscape:zoom="0.35"
     inkscape:pageshadow="2"
     inkscape:pageopacity="0.0"
     borderopacity="1.0"
     bordercolor="#666666"
     pagecolor="#ffffff"
     id="base" />
  <metadata
     id="metadata410">
    <rdf:RDF>
      <cc:Work
         rdf:about="">
        <dc:format>image/svg+xml</dc:format>
        <dc:type
           rdf:resource="http://purl.org/dc/dcmitype/StillImage" />
        <dc:title></dc:title>
      </cc:Work>
    </rdf:RDF>
  </metadata>
  <g
     transform="translate(13.309386,-23.732323)"
     id="layer1"
     inkscape:groupmode="layer"
     inkscape:label="Layer 1">
    <path
       style="fill:#00543c;fill-opacity:1;stroke-width:0.199024"
       d="m 9.1692411,23.732939 h -6.39e-5 c -0.033306,0 -0.065382,6.1e-5 -0.096517,0.0017 -0.1540456,-0.0072 -0.2705146,0.01497 -0.3772729,0.07895 -0.357417,0.155915 -0.5595339,0.553141 -0.9016911,1.322813 -0.7377659,1.659603 -1.8191004,2.288186 -3.9364967,2.288186 -0.8783491,0 -1.4792231,-0.0705 -1.9715898,-0.279912 -0.376525,-0.210392 -0.7434597,-0.500497 -1.12613682,-0.87982 -0.0416056,-0.04795 -0.0834886,-0.0977 -0.12589031,-0.149426 -1.07455095,-1.31063 -1.234049,-1.351137 -2.66153357,-0.676425 -0.6775712,0.320275 -1.8454824,0.978991 -2.595384,1.463831 l -1.3634297,0.881558 0.1423326,0.765161 c 0.078314,0.420845 0.2597661,1.086329 0.4032083,1.478849 0.1520189,0.416044 0.2067491,0.996906 0.1312462,1.392792 -0.2046862,1.073313 -1.25678,2.719646 -2.1523309,3.368048 -0.7632792,0.552586 -0.9431881,0.594035 -2.5773125,0.594035 -0.259767,0 -0.480738,6.4e-5 -0.670611,0.0027 -0.195048,-0.0081 -0.361301,-0.004 -0.505214,0.01651 -0.592092,0.03959 -0.673892,0.160608 -0.864899,0.529798 -0.494272,0.955288 -1.307276,4.543126 -1.222967,5.280168 0.0013,0.08842 0.01013,0.150404 0.02887,0.180645 0.03678,0.0595 0.249103,0.195 0.555276,0.361856 0.316402,0.202358 0.732784,0.437891 1.165921,0.653747 1.397857,0.69668 1.5634952,0.845478 2.0521945,1.843831 0.9295329,1.898789 0.4138602,3.901261 -1.3263355,5.150791 -1.272245,0.913513 -1.394914,1.424759 -0.688645,2.869457 0.921692,1.885315 2.2877025,3.803372 2.7088007,3.803372 0.2093908,0 0.8520031,-0.179057 1.4280275,-0.397879 0.6758582,-0.256727 1.1795883,-0.381555 1.6657063,-0.370952 0.062873,0.0024 0.126059,0.0062 0.1893541,0.01098 0.4241136,0.04023 0.8501937,0.184783 1.3821396,0.436128 0.3818809,0.180443 0.720238,0.378624 1.0160971,0.596113 0.3436895,0.296836 0.6822519,0.64226 0.9596787,0.977953 0.5162153,0.763145 0.706281,1.694656 0.5900656,2.828645 -0.090992,0.887529 -0.057155,1.374201 0.1094841,1.574885 0.2374741,0.285978 2.536178,1.121382 4.0933045,1.487631 0.6455316,0.151829 1.0790063,0.22571 1.4133828,0.168496 0.1008474,0.0173 0.1733586,0.02839 0.2061219,0.0311 0.2104887,0.01741 0.5068424,-0.345909 0.7725076,-0.91005 0.092126,-0.160619 0.188944,-0.345728 0.2955213,-0.557952 0.590524,-1.175695 0.8363575,-1.458041 1.6120256,-1.851685 2.1991116,-1.116077 4.4225306,-0.736486 5.6446046,0.963636 0.480413,0.668308 0.846575,0.982019 1.146403,0.982019 h 0.0156 0.0064 c 0.01688,0 0.03829,-0.0027 0.0639,-0.008 0.711903,-0.113394 3.313234,-1.426992 4.482677,-2.278535 0.875793,-0.637741 0.918447,-0.711734 0.768574,-1.333284 -0.08727,-0.361931 -0.302999,-0.990924 -0.479337,-1.397788 -0.413076,-0.953029 -0.399505,-1.654765 0.05112,-2.642756 0.209608,-0.459543 0.426247,-0.851413 0.661839,-1.183292 0.124769,-0.15302 0.260779,-0.304979 0.408312,-0.455575 0.181633,-0.185421 0.358647,-0.347488 0.534516,-0.487673 0.693107,-0.464453 1.565945,-0.651553 2.768405,-0.656365 0.567001,0.0705 0.954781,0.0874 1.248155,-0.0019 l 0.471483,-0.0012 0.377707,-0.795886 c 0.496133,-1.045375 1.410995,-4.74891 1.26624,-5.125929 -0.06225,-0.162104 -0.545939,-0.498579 -1.074834,-0.747706 -1.369123,-0.644904 -2.022763,-1.326601 -2.359949,-2.461424 -0.15623,-0.525769 -0.252685,-1.021164 -0.289862,-1.485206 -0.0028,-0.08237 -0.0041,-0.165783 -0.0041,-0.250442 0,-0.255074 0.0037,-0.481594 0.01421,-0.686401 0.10893,-0.977074 0.539799,-1.779522 1.289942,-2.393871 0.49022,-0.401483 0.943658,-0.938351 1.007606,-1.193075 0.0082,-0.03312 0.01297,-0.07094 0.01416,-0.113103 0.02779,-0.140101 -0.0097,-0.282264 -0.08031,-0.489978 -0.230427,-0.81426 -0.9377,-2.178148 -1.902382,-3.620542 -0.833439,-1.246201 -0.847697,-1.25631 -1.608346,-1.138417 -0.422075,0.06543 -1.022337,0.250671 -1.333887,0.411701 -0.687656,0.35539 -1.055496,0.356379 -2.039856,0.0054 -1.113978,-0.397116 -2.269633,-1.261761 -2.777693,-2.078251 -0.345994,-0.556084 -0.469496,-1.118803 -0.546555,-2.489953 l -0.02843,-0.505443 c 0.03724,-0.516963 0.03268,-0.77486 -0.05331,-0.949485 l -0.01783,-0.31662 -1.224656,-0.456829 C 12.673144,24.46612 11.39383,24.113034 10.503731,23.932787 9.909106,23.812362 9.4879718,23.734977 9.169229,23.732323 Z m -2.6215124,5.396878 c 0.4406402,9.6e-5 0.8807014,0.0212 1.318169,0.06381 4.3821313,0.4269 8.2912683,2.770166 10.7321363,6.433169 1.266019,1.899887 2.099086,4.268341 2.328465,6.620292 0.361712,3.708879 -0.849337,7.647439 -3.22778,10.497511 -0.581416,0.696679 -1.821959,1.887631 -2.481037,2.381916 C 12.335064,57.288159 8.6388878,58.317887 5.0747422,57.952292 2.299136,57.66758 -0.53851015,56.48284 -2.6433249,54.72988 -2.9080851,54.509355 -3.2466235,54.190745 -3.5912175,53.844945 -3.7483993,53.690176 -3.901709,53.532137 -4.0509655,53.370986 -4.442087,52.956921 -4.8007703,52.548308 -5.0205597,52.255549 -7.1627096,49.402112 -8.1982043,45.747855 -7.856795,42.247088 c 0.280563,-2.876635 1.4422979,-5.697345 3.2277305,-7.836805 0.5813923,-0.696655 1.8219351,-1.887631 2.4810379,-2.381904 2.49610459,-1.871804 5.6113222,-2.899772 8.6957553,-2.898566 z m -0.063778,1.267288 c -0.9052256,0.0025 -1.8156866,0.09833 -2.716099,0.292879 -1.085629,0.234603 -1.9045794,0.516529 -2.9194705,1.005012 -3.781751,1.820126 -6.4002237,5.169525 -7.2434088,9.265243 -0.4977227,2.417634 -0.2639642,5.137714 0.637015,7.412003 0.8124727,2.050881 2.1355393,3.897437 3.7756476,5.269504 2.06041044,1.723682 4.5777335,2.786619 7.2660392,3.068123 0.858264,0.08987 2.4896147,0.02472 3.4456379,-0.13765 C 14.087648,55.662191 18.33448,51.587114 19.436622,46.297911 20.260605,42.343717 19.285595,38.372973 16.709185,35.190286 14.230584,32.128386 10.406575,30.38626 6.4839507,30.397105 Z m 4.7710923,6.637131 h 0.600054 0.0078 0.592189 0.01558 v 0.303712 0.303785 h -0.607774 -0.607847 v -0.01557 -0.288212 -0.0078 z m 5.942575,0.342664 c 0.0054,0 -0.01842,0.04516 -0.05305,0.100389 -0.0883,0.140716 -0.137809,0.289249 -0.138171,0.414705 -0.0012,0.231213 0.07701,0.358153 0.433137,0.706896 0.140426,0.137531 0.30066,0.306101 0.356078,0.374631 0.120148,0.148617 0.242902,0.388709 0.28686,0.560765 0.06959,0.272662 0.05293,0.674254 -0.04152,1.001091 -0.03969,0.137302 -0.191465,0.478024 -0.206315,0.463186 -0.0045,-0.0045 -0.02695,-0.05672 -0.05012,-0.116216 -0.05782,-0.148496 -0.184818,-0.333122 -0.37591,-0.546373 -0.201453,-0.224844 -0.238776,-0.274423 -0.288536,-0.383051 -0.07698,-0.168015 -0.05814,-0.383051 0.05087,-0.58021 0.02071,-0.03749 0.03772,-0.07126 0.03772,-0.07497 0,-0.02043 -0.258379,0.176302 -0.369601,0.281419 -0.218257,0.206315 -0.357706,0.451111 -0.418239,0.734003 -0.0331,0.154769 -0.03737,0.491329 -0.0086,0.682348 0.01134,0.07543 0.01697,0.1408 0.01247,0.145312 -0.0045,0.0045 -0.03635,-0.02741 -0.07076,-0.07092 -0.106842,-0.135094 -0.169896,-0.362351 -0.154311,-0.556337 0.0043,-0.05454 0.0035,-0.09916 -0.0019,-0.09915 -0.02631,6.4e-5 -0.131391,0.197847 -0.18898,0.355572 l -0.04171,0.114092 -0.137483,-0.145251 c -0.249464,-0.263675 -0.370915,-0.463379 -0.42234,-0.694375 -0.05328,-0.239296 -0.0047,-0.583938 0.127748,-0.905492 0.0604,-0.146735 0.16962,-0.332723 0.226882,-0.386477 l 0.03636,-0.03408 v 0.189873 c 0.0012,0.210489 0.02355,0.314195 0.102995,0.463862 0.04446,0.08381 0.191212,0.246605 0.207557,0.23026 0.0043,-0.0043 -0.0037,-0.06355 -0.01808,-0.131488 -0.01737,-0.08214 -0.0246,-0.180572 -0.02594,-0.365909 -0.0012,-0.04045 -0.0012,-0.08059 -1.21e-4,-0.120209 0,-0.238897 0.0055,-0.281407 0.04079,-0.411713 0.107794,-0.398829 0.351444,-0.720335 0.752169,-0.992598 0.150897,-0.102524 0.319272,-0.203492 0.339612,-0.203589 z M 6.977307,37.858905 c 0.0047,0 0.00736,0.0068 0.00736,0.02037 1.207e-4,0.03898 0.2000662,0.461124 0.3191047,0.673687 0.067167,0.119943 0.2037575,0.351253 0.3035191,0.514032 0.3239782,0.528725 0.4726074,0.812364 0.5546484,1.058596 0.1573146,0.472185 0.1315238,1.022237 -0.066841,1.42588 -0.097458,0.198341 -0.2910821,0.398022 -0.4797125,0.494659 -0.2008865,0.102922 -0.3141829,0.129654 -0.5835757,0.136096 -0.043162,0.0019 -0.086227,0.0024 -0.127567,0.0019 -0.093441,0 -0.1687143,-0.0012 -0.1845531,-0.004 C 6.1931003,42.079833 5.8654549,41.771753 5.728153,41.247649 5.672072,41.03365 5.658066,40.631189 5.698731,40.403221 c 0.071438,-0.400639 0.2133115,-0.708754 0.6996104,-1.519659 0.279767,-0.466515 0.4728366,-0.8117 0.5269154,-0.942078 0.021955,-0.05299 0.041774,-0.08311 0.052052,-0.08263 z m 3.140008,0.125504 h 1.737783 0.0078 1.729918 0.01559 v 0.630875 0.630863 h -1.745504 -1.745576 v -0.01557 -0.61529 -0.0078 z m 1.425156,1.60404 v 0 h 0.0012 l 0.176387,0.16594 0.176447,0.166 0.166603,-0.166 0.166531,-0.16594 h 0.01558 0.553032 0.0029 0.555843 0.01001 l 0.127627,0.634735 c 0.0702,0.349118 0.296041,1.468898 0.501776,2.488397 0.205748,1.019511 0.521716,2.58542 0.70224,3.479837 0.180488,0.894417 0.328201,1.635706 0.328201,1.647286 0,0.0019 -0.0012,0.0039 -0.003,0.0055 l 0.0036,0.01563 h -0.341868 -0.0059 -0.335993 -0.01122 l -0.06789,-0.346584 c -0.03735,-0.190621 -0.07406,-0.3534 -0.08162,-0.361676 -0.0084,-0.0093 -0.0798,0.05073 -0.184988,0.15553 l -0.170704,0.170125 c 0,0.0012 0,0.0012 0.0012,0.0018 l 0.189342,0.18968 0.169161,0.169439 0.02206,0.02112 h -0.0012 v 0 l -0.880303,-6.4e-5 -0.880352,-6.3e-5 0.199632,-0.190753 0.160548,-0.153286 c 0.01832,-0.01983 0.03206,-0.03551 0.03536,-0.04114 l -0.473729,-0.462185 -0.477589,-0.465804 -0.189668,0.185386 c -0.104346,0.101981 -0.317669,0.311541 -0.474091,0.465683 l -0.280889,0.2768 c -0.0016,0.0019 -0.0023,0.0033 -0.0028,0.0042 l 0.189848,0.190234 0.190669,0.191007 h -0.04002 -0.834222 -0.8703889 l 0.00133,-0.0013 H 9.5638474 L 9.7551316,47.67559 c 0.1052142,-0.100305 0.1911516,-0.189343 0.1909103,-0.197919 0,-0.0086 -0.09069,-0.101065 -0.2009467,-0.205579 L 9.5476949,47.085029 c 0,-6.4e-5 -0.00121,0 -0.00145,0 -0.00121,0.0012 -0.00326,0.0084 -0.00615,0.01957 l -0.072198,0.36217 -0.076697,0.384727 -0.00663,1.21e-4 -0.00133,0.0077 H 9.0410817 c -0.087916,0 -0.1665429,-0.0012 -0.2273287,-0.0022 -0.035369,0 -0.062028,-0.0012 -0.07987,-0.0025 -0.021074,-0.0012 -0.034911,-0.0022 -0.034911,-0.0034 0,-3.2e-5 0,-0.0028 0,-0.0029 -0.00796,-0.0039 -0.00844,-0.0089 -0.00676,-0.01589 v -6.4e-5 c 0.00362,-0.01515 0.3363911,-1.664319 0.7395754,-3.664788 0.4031482,-2.000457 0.7760066,-3.849233 0.8285526,-4.108396 l 0.09552,-0.47116 h 0.593624 0.535577 z m -0.563937,0.413884 c -0.0077,0.02033 -0.20132,0.971862 -0.205868,1.011996 0.0089,-0.0057 0.02281,-0.01668 0.04139,-0.03271 0.05315,-0.04983 0.152188,-0.146349 0.269477,-0.263469 l 0.311373,-0.310951 c 0,0 -1.21e-4,-0.0012 0,-0.0012 l -0.205133,-0.205386 c -0.08731,-0.08745 -0.163117,-0.160933 -0.194529,-0.189004 -0.0074,-0.0052 -0.01335,-0.0089 -0.01645,-0.0097 z m 1.778303,0.05547 c -0.0053,-0.0066 -0.352917,0.323761 -0.36118,0.343352 -0.004,0.0095 0.496552,0.510823 0.534949,0.53659 0.0012,1.2e-4 0.0018,0 0.0023,0 0.0012,-0.0023 -0.03664,-0.198932 -0.08424,-0.438192 -0.04764,-0.239729 -0.08895,-0.438493 -0.09178,-0.442184 z m -13.61288361,0.830769 h 6.394e-5 c 0.0561536,0 0.11327232,0.0024 0.17064433,0.0075 0.15916028,0.0074 0.26431415,0.02981 0.44024211,0.08612 0.0485298,0.01554 0.0995928,0.02866 0.12819435,0.0334 0.0149944,0 0.03041103,0 0.04700983,-0.0028 0.03133988,-0.0069 0.0792665,-0.02047 0.12625219,-0.03645 0.18460132,-0.06279 0.30932102,-0.08314 0.50970085,-0.08319 0.2510327,-9.6e-5 0.43065196,0.04211 0.63788361,0.149871 0.4113269,0.213879 0.6803095,0.615459 0.7473802,1.11586 0.015899,0.118568 0.00121,0.114128 0.1483276,0.142139 0.024959,0.0041 0.049254,0.0089 0.073006,0.01484 0.1078681,0.02462 0.1964714,0.0624 0.2932294,0.124937 0.2437827,0.15752 0.4178892,0.453246 0.4187336,0.711251 l 6.39e-5,0.01994 0.00362,0.04307 h -0.00121 -0.00253 -3.26177197 v 0 h -3.26126623 -0.00362 l 0.00362,-0.05067 v -0.02542 c 0,-0.227679 0.1436231,-0.500304 0.3456556,-0.656172 0.1406916,-0.108555 0.2942064,-0.168678 0.4773481,-0.186953 0.06157,-0.0062 0.1044784,-0.01719 0.1318616,-0.03427 0.014174,-0.01158 0.026129,-0.02652 0.036853,-0.04561 0.00917,-0.02152 0.023595,-0.05895 0.03672,-0.09566 0.066142,-0.18541 0.1639855,-0.358997 0.2861244,-0.514032 0.1096773,-0.142984 0.237944,-0.265846 0.3854996,-0.369275 0.1506318,-0.108568 0.3170782,-0.195277 0.4936092,-0.254181 0.165614,-0.05526 0.2742425,-0.07859 0.4350675,-0.08649 0.0035,0 0.00676,-0.0012 0.0102536,-0.0012 0.0467083,-0.0042 0.0947193,-0.0065 0.14346621,-0.0066 z m 12.74804561,0.0037 -0.127567,0.12314 c -0.07016,0.06771 -0.283881,0.277379 -0.474899,0.465925 l -0.344727,0.340299 c 0.0029,0.0046 0.01432,0.01749 0.03099,0.03539 l 0.438433,0.429723 c 0.251611,0.246594 0.462763,0.447794 0.480774,0.458446 0.0092,-0.0071 0.02761,-0.0234 0.05168,-0.04537 0.07719,-0.07396 0.237257,-0.230707 0.421544,-0.413197 0.25353,-0.251093 0.460943,-0.462076 0.460943,-0.468856 0,-0.0068 -0.210899,-0.217799 -0.468615,-0.468916 z m -5.7120012,0.021 c -0.079677,-0.0012 -0.1390874,0.04046 -0.162357,0.126819 -0.062668,0.232552 0.2262189,0.675883 0.5113177,0.784656 0.086927,0.03317 0.2001869,0.02033 0.2487769,-0.02823 0.1213064,-0.121258 0.01871,-0.430471 -0.2237098,-0.674182 C 6.418328,40.985902 6.2824374,40.914537 6.1799978,40.91327 Z m 4.3213212,1.449995 c -0.0027,0.0034 -0.07438,0.351059 -0.159366,0.772761 l -0.154503,0.766789 0.130932,0.131669 0.131066,0.131668 0.472908,-0.462245 c 0.25002,-0.244398 0.454139,-0.449362 0.467746,-0.469483 -0.0092,-0.0117 -0.03273,-0.03711 -0.06503,-0.07098 -0.200633,-0.202069 -0.819734,-0.805235 -0.823751,-0.800179 z m 2.729622,0.05572 c -0.0031,0.0012 -0.0077,0.0028 -0.01334,0.0062 -0.04469,0.04075 -0.212902,0.203022 -0.41187,0.397623 l -0.420796,0.41152 0.475345,0.466745 0.474538,0.465985 c 0,0 0.0012,0 0.0012,0 l 0.105118,-0.104816 0.105371,-0.104997 -0.156434,-0.769963 c -0.08447,-0.415838 -0.154516,-0.754811 -0.158871,-0.768768 z m -1.344672,1.301932 -0.473971,0.46537 c -0.260646,0.255954 -0.471063,0.467517 -0.467552,0.470158 0.0035,0.0027 0.215048,0.209379 0.470037,0.459387 0.255038,0.250007 0.468929,0.45444 0.475346,0.454332 0.0064,0 0.222106,-0.206376 0.479278,-0.458265 L 12.83696,44.65395 12.571983,44.386753 c -0.145698,-0.14694 -0.359637,-0.356838 -0.475346,-0.466491 z m -16.9426079,0.02256 h 4.67345455 4.67346595 v 0.226883 0.226954 l -0.2039987,0.0042 -0.2040108,0.0042 -0.035284,0.03602 c -0.03397,0.03467 -0.042534,0.07066 -0.2281973,0.960631 -0.3427845,1.643185 -0.457818,2.204504 -0.457818,2.234228 v 0.02917 H 3.4916564 3.82204 v 0.468289 0.468301 H 3.4393986 c -0.2396331,0 -0.3963687,0.0047 -0.4193488,0.01277 -0.039326,0.01369 -0.056503,0.04518 -0.068277,0.125311 -0.00386,0.02642 -0.018867,0.111523 -0.033294,0.189125 l -0.026249,0.141078 H 2.6446467 2.3971244 L 2.369319,48.783589 C 2.2605824,48.442541 2.0504073,48.199072 1.7390351,48.053567 1.5696815,47.974437 1.4651911,47.952889 1.2510232,47.952937 1.0261674,47.95297 0.92353469,47.975547 0.74045332,48.065281 0.47885336,48.193487 0.28028348,48.4254 0.15050887,48.754167 l -0.0459483,0.116469 h -0.48955598 -0.48949567 l -0.0136554,-0.05104 c -0.0698814,-0.262227 -0.25833082,-0.528218 -0.47734822,-0.673735 -0.3898666,-0.259043 -0.9053822,-0.266244 -1.2769614,-0.01783 -0.2079073,0.139003 -0.4020746,0.403076 -0.4986635,0.678174 -0.021545,0.06136 -0.021967,0.06164 -0.082427,0.06892 -0.06157,0.0074 -0.1986185,0.0068 -0.319032,-0.0014 -0.1204742,-0.0082 -0.1252148,-0.01817 -0.1871709,-0.397189 -0.01146,-0.07006 -0.036985,-0.07415 -0.4671788,-0.07415 h -0.3788894 v -0.468301 -0.468289 h 0.330625 0.3306369 l -0.00639,-0.02699 c -0.0035,-0.01485 -0.05473,-0.262082 -0.1137186,-0.549365 -0.059001,-0.287282 -0.1940347,-0.941101 -0.3002139,-1.452925 -0.1061432,-0.511813 -0.204602,-0.986338 -0.2187156,-1.054483 -0.035888,-0.173093 -0.03906,-0.176036 -0.1924063,-0.177291 -0.068253,0 -0.166024,-0.0019 -0.2172197,-0.003 l -0.093091,-0.0019 v -0.228125 z m 15.5057869,1.39173 c -0.0019,0 -0.01098,0.008 -0.02469,0.02 l -0.294532,0.28815 -0.3171019,0.310263 -0.051063,0.258548 -0.051135,0.258536 0.3629289,0.357996 c 0.199584,0.196906 0.367695,0.358382 0.373534,0.358623 0.0058,0 0.221442,-0.206978 0.479145,-0.460628 0.25768,-0.253651 0.465346,-0.466359 0.461449,-0.472656 -0.0039,-0.0063 -0.217195,-0.216074 -0.47391,-0.466178 z m 2.886429,0.0031 -0.111668,0.103067 c -0.06142,0.05669 -0.275267,0.265834 -0.475164,0.464755 l -0.363485,0.361603 0.467299,0.459265 c 0.25698,0.252553 0.473609,0.459519 0.48139,0.460002 0.0078,0 0.165445,-0.149462 0.350275,-0.333074 l 0.336005,-0.333822 -0.06117,-0.316487 -0.06116,-0.316499 -0.28113,-0.274375 z m -6.3668573,3.095604 4.8939913,6.4e-5 h 4.893932 l -0.0041,0.93852 -0.004,0.93846 -0.555589,0.0041 -0.555529,0.0041 -0.06559,-0.07827 C 15.43033,49.87157 15.142082,49.671878 14.819853,49.519617 13.828473,49.051148 12.262275,48.856124 10.818566,49.021412 9.6410764,49.156229 8.6871642,49.50753 8.2106605,49.981814 L 8.0730569,50.118779 H 7.5210142 6.9689835 v -0.01559 -0.926807 -0.926854 z m -5.69954,0.170681 h 6.39e-5 c 0.051835,0 0.101535,0.0049 0.1423323,0.01464 0.3647152,0.08594 0.6076656,0.462499 0.5313425,0.823607 -0.070364,0.333086 -0.364691,0.568678 -0.703362,0.563021 -0.043379,-0.0012 -0.1005096,-0.0057 -0.1269398,-0.01098 -0.25770358,-0.0517 -0.47397048,-0.256075 -0.54030536,-0.510666 -0.0238005,-0.09111 -0.0235109,-0.264339 0,-0.356947 0.0574564,-0.221538 0.23496468,-0.413607 0.45134016,-0.488229 0.066395,-0.0229 0.1586174,-0.03495 0.2450253,-0.03446 z m -3.3052233,6.4e-5 c 0.086287,0 0.1784372,0.01134 0.2437829,0.0339 0.1973521,0.06811 0.3686961,0.240852 0.4380707,0.44175 0.040303,0.116542 0.040074,0.333038 0,0.450472 -0.03777,0.109364 -0.132187,0.247703 -0.2159169,0.316306 -0.078205,0.06409 -0.2074248,0.127338 -0.2999608,0.146747 -0.085165,0.01788 -0.2325641,0.01525 -0.319032,-0.0057 -0.300588,-0.07272 -0.5352391,-0.369444 -0.5362039,-0.678163 -0.00121,-0.321288 0.2331669,-0.616628 0.5477964,-0.690756 0.040484,-0.0095 0.090123,-0.01422 0.1419102,-0.01458 z"
       id="path17973-2-88"
       inkscape:connector-curvature="0" />
  </g>
</svg>
