<?xml version="1.0" encoding="UTF-8" standalone="no"?>
<svg
   xmlns:dc="http://purl.org/dc/elements/1.1/"
   xmlns:cc="http://creativecommons.org/ns#"
   xmlns:rdf="http://www.w3.org/1999/02/22-rdf-syntax-ns#"
   xmlns:svg="http://www.w3.org/2000/svg"
   xmlns="http://www.w3.org/2000/svg"
   xmlns:sodipodi="http://sodipodi.sourceforge.net/DTD/sodipodi-0.dtd"
   xmlns:inkscape="http://www.inkscape.org/namespaces/inkscape"
   width="39.687504mm"
   height="39.6875mm"
   viewBox="0 0 39.687504 39.6875"
   version="1.1"
   id="svg119"
   inkscape:version="1.0 (4035a4fb49, 2020-05-01)"
   sodipodi:docname="مشروع حكومي.svg">
  <defs
     id="defs113" />
  <sodipodi:namedview
     fit-margin-bottom="0"
     fit-margin-right="0"
     fit-margin-left="0"
     fit-margin-top="0"
     id="base"
     pagecolor="#ffffff"
     bordercolor="#666666"
     borderopacity="1.0"
     inkscape:pageopacity="0.0"
     inkscape:pageshadow="2"
     inkscape:zoom="0.35"
     inkscape:cx="628.87511"
     inkscape:cy="221.7324"
     inkscape:document-units="mm"
     inkscape:current-layer="layer1"
     inkscape:document-rotation="0"
     showgrid="false"
     inkscape:window-width="1424"
     inkscape:window-height="1030"
     inkscape:window-x="160"
     inkscape:window-y="0"
     inkscape:window-maximized="0" />
  <metadata
     id="metadata116">
    <rdf:RDF>
      <cc:Work
         rdf:about="">
        <dc:format>image/svg+xml</dc:format>
        <dc:type
           rdf:resource="http://purl.org/dc/dcmitype/StillImage" />
        <dc:title></dc:title>
      </cc:Work>
    </rdf:RDF>
  </metadata>
  <g
     transform="translate(-87.988104,-89.499969)"
     inkscape:label="Layer 1"
     inkscape:groupmode="layer"
     id="layer1">
    <path
       inkscape:connector-curvature="0"
       id="path17973-2-6"
       d="m 110.46685,89.499969 -6e-5,0.0012 c -0.0333,0 -0.0654,-1.2e-5 -0.0965,0.0017 -0.15404,-0.0072 -0.27051,0.01496 -0.37728,0.07894 -0.35741,0.155926 -0.55954,0.553183 -0.90169,1.322848 -0.73777,1.65956 -1.8191,2.288077 -3.93653,2.288077 -0.87833,0 -1.47922,-0.07045 -1.97158,-0.279849 -0.37655,-0.21039 -0.74347,-0.500491 -1.12615,-0.879799 -0.0416,-0.04796 -0.0835,-0.0977 -0.12589,-0.149424 -1.07457,-1.310604 -1.23406,-1.351112 -2.661556,-0.676418 -0.677588,0.320271 -1.845495,0.978981 -2.595402,1.463803 l -1.363451,0.881537 0.142345,0.765093 c 0.07831,0.420816 0.259768,1.086353 0.403212,1.478858 0.15202,0.416027 0.20675,0.996883 0.131247,1.392764 -0.204688,1.073277 -1.256789,2.719582 -2.152346,3.367951 -0.763284,0.55258 -0.943194,0.59403 -2.577331,0.59403 -0.259768,0 -0.480741,-1e-5 -0.670615,0.003 -0.19505,-0.008 -0.361304,-0.004 -0.505217,0.0165 -0.592096,0.0396 -0.673885,0.16059 -0.864905,0.52978 -0.494275,0.95527 -1.307273,4.54301 -1.222975,5.28004 0.0013,0.0884 0.01013,0.15041 0.02887,0.18065 0.03678,0.0595 0.249104,0.19498 0.55528,0.36184 0.316404,0.20236 0.732788,0.43787 1.165916,0.65373 1.397879,0.69666 1.563519,0.84546 2.052221,1.84378 0.929539,1.89874 0.413863,3.90116 -1.326344,5.15066 -1.272242,0.91349 -1.394924,1.42474 -0.68865,2.86939 0.921686,1.88527 2.287718,3.80328 2.70882,3.80328 0.209391,0 0.851996,-0.17905 1.428037,-0.39787 0.675863,-0.25673 1.179596,-0.38155 1.665717,-0.37094 0.06287,0.002 0.12606,0.006 0.189356,0.011 0.424116,0.0402 0.850199,0.18477 1.382161,0.43611 0.381871,0.18043 0.720231,0.37863 1.016091,0.5961 0.343692,0.29683 0.682257,0.64226 0.959674,0.97795 0.516231,0.76311 0.706298,1.69461 0.590081,2.82856 -0.09099,0.88751 -0.05716,1.37416 0.109473,1.57484 0.237481,0.28597 2.536191,1.12137 4.093341,1.4876 0.64554,0.15183 1.07901,0.22571 1.41338,0.16849 0.10084,0.0173 0.17337,0.0284 0.20615,0.0311 0.21048,0.0174 0.50683,-0.3459 0.77249,-0.91002 0.0921,-0.16062 0.18894,-0.34572 0.29552,-0.55795 0.59053,-1.17564 0.83638,-1.45798 1.61206,-1.85162 2.19912,-1.11604 4.42254,-0.73647 5.64463,0.9636 0.48041,0.6683 0.84658,0.98199 1.14641,0.98199 h 0.0156 0.006 c 0.0169,0 0.0383,-0.003 0.064,-0.008 0.71191,-0.11337 3.31326,-1.42692 4.48271,-2.27846 0.8758,-0.6377 0.91844,-0.71171 0.76857,-1.33324 -0.0873,-0.36193 -0.303,-0.99084 -0.47933,-1.39769 -0.41309,-0.95302 -0.39957,-1.65479 0.0511,-2.64275 0.20959,-0.45952 0.42629,-0.85134 0.66188,-1.1832 0.12477,-0.15302 0.26078,-0.30503 0.40833,-0.45564 0.18163,-0.1854 0.35864,-0.34746 0.53451,-0.48766 0.69311,-0.46443 1.56595,-0.65152 2.76842,-0.65634 0.56701,0.0705 0.95479,0.0874 1.24817,-0.002 l 0.47142,-0.001 0.37778,-0.79585 c 0.49613,-1.04536 1.411,-4.7488 1.26625,-5.1258 -0.0622,-0.1621 -0.54596,-0.49857 -1.07485,-0.74769 -1.36912,-0.64491 -2.02285,-1.32658 -2.36004,-2.46137 -0.15621,-0.52576 -0.25261,-1.02113 -0.28979,-1.48517 -0.003,-0.0824 -0.004,-0.16578 -0.004,-0.25044 0,-0.25508 0.004,-0.48157 0.0142,-0.68637 0.10893,-0.97705 0.5398,-1.7795 1.28995,-2.39382 0.49022,-0.40148 0.94366,-0.93833 1.00762,-1.19304 0.008,-0.0331 0.013,-0.0709 0.0142,-0.1131 0.0278,-0.14009 -0.01,-0.28227 -0.0803,-0.48997 -0.23043,-0.81425 -0.9377,-2.178092 -1.90239,-3.620447 -0.83345,-1.246163 -0.84771,-1.256271 -1.60836,-1.138405 -0.42208,0.06545 -1.02234,0.25068 -1.3339,0.411709 -0.68765,0.355386 -1.0555,0.356375 -2.03987,0.0054 -1.11398,-0.397124 -2.26965,-1.261736 -2.77771,-2.078205 -0.34599,-0.556078 -0.46949,-1.118779 -0.54654,-2.489903 l -0.0284,-0.505425 c 0.0372,-0.516946 0.0327,-0.77484 -0.0533,-0.949463 l -0.0178,-0.316604 -1.22464,-0.456825 c -0.67358,-0.251269 -1.9529,-0.60434 -2.843,-0.784584 -0.59462,-0.120425 -1.01576,-0.197796 -1.33452,-0.20045 z m -2.62153,5.396797 c 0.44065,9.6e-5 0.88072,0.02114 1.31819,0.06375 4.38216,0.426884 8.29132,2.7701 10.73221,6.433004 1.26603,1.89984 2.09909,4.26831 2.32847,6.62019 0.36172,3.70878 -0.84934,7.64725 -3.2278,10.49725 -0.58142,0.69665 -1.82198,1.88757 -2.48105,2.38185 -2.88264,2.1616 -6.57883,3.19129 -10.143,2.82571 -2.77563,-0.28471 -5.61329,-1.46941 -7.718133,-3.22233 -0.264762,-0.22053 -0.603279,-0.53919 -0.947874,-0.88497 -0.157195,-0.15478 -0.310519,-0.31274 -0.459776,-0.47389 -0.391124,-0.41405 -0.74981,-0.82271 -0.969588,-1.11548 -2.142165,-2.85334 -3.177667,-6.50747 -2.836255,-10.00814 0.280565,-2.87658 1.442308,-5.69725 3.227752,-7.83667 0.581396,-0.696644 1.821948,-1.887571 2.481043,-2.38185 2.496141,-1.871749 5.611371,-2.899633 8.695811,-2.898427 z m -0.0638,1.267262 c -0.90522,0.0025 -1.81568,0.09831 -2.7161,0.292864 -1.08565,0.234601 -1.90459,0.516524 -2.91949,1.004989 -3.78178,1.820083 -6.40027,5.169339 -7.243462,9.264949 -0.497726,2.41758 -0.263978,5.13764 0.637008,7.41188 0.812478,2.05082 2.135554,3.89728 3.775673,5.26932 2.060421,1.72364 4.577761,2.78656 7.266091,3.06804 0.85826,0.0899 2.48963,0.0247 3.44566,-0.13766 5.35837,-0.91 9.60523,-4.98496 10.70738,-10.27403 0.824,-3.9541 -0.15103,-7.9247 -2.72746,-11.10731 -2.47862,-3.061815 -6.30265,-4.803887 -10.2253,-4.793042 z m 0.0613,3.702325 4.87358,1.352947 c 2.68013,0.74429 5.01183,1.39675 5.18146,1.44984 l 0.14807,0.0463 0.16367,0.0439 -0.004,0.006 -0.13548,0.26956 -0.33974,0.67685 -0.002,0.004 -0.47686,0.94959 h -9.40173 -0.0207 -9.381027 -0.04139 l -0.478039,-0.95209 -0.478027,-0.95202 0.309613,-0.0867 c 0.170356,-0.0476 2.50857,-0.69895 5.19594,-1.44734 z m -5.70573,5.845027 v 0.005 0.0957 3.63072 0.003 3.72931 h -1.19898 -0.0449 -1.243733 v -0.0957 -3.63365 -3.63353 -0.0957 h 1.243733 0.9835 z m 4.59243,0 v 3.73235 0.003 3.63365 0.0956 h -1.19897 c -0.10912,0 -0.20983,0 -0.30271,-0.002 -0.64998,-0.007 -0.91293,-0.0418 -0.94226,-0.11821 -0.0252,-0.0659 -0.0348,-1.73339 -0.0209,-3.70537 l 0.0252,-3.5855 1.2198,-0.0267 z m 2.20062,0 1.21992,0.0268 1.21979,0.0267 v 3.68146 3.68151 l -1.21979,0.0267 -1.21992,0.0269 v -0.10139 -3.63365 -3.63359 z m 7.07998,0 v 0.005 0.0957 3.63072 0.003 3.72931 h -1.19891 -0.0448 -1.2438 v -0.0957 -3.63365 -3.63353 -0.0957 h 1.2438 0.98356 z m -17.29151,8.51508 0.36187,10e-4 h 8.74396 8.67712 l 0.36405,-10e-4 10e-4,10e-4 h 0.0714 0.005 0.006 l 0.0307,0.0477 h 0.015 l 0.60578,0.93238 0.35035,0.53921 0.26179,0.39305 h -0.006 -10.25092 -0.12602 -10.302598 l 0.02942,-0.045 c -0.0064,0 -0.01074,-0.002 -0.01074,-0.002 0,-0.002 0.0029,-0.009 0.0074,-0.0177 -0.0046,-0.001 -0.0074,-0.003 -0.0074,-0.003 0,-0.0368 0.264171,-0.46735 0.587017,-0.9567 l 0.344982,-0.52274 0.234797,-0.36596 h 0.0063 z"
       style="fill:#e8d4a2;fill-opacity:1;stroke-width:0.199023" />
  </g>
</svg>
