<?xml version="1.0" encoding="UTF-8" standalone="no"?>
<svg
   xmlns:dc="http://purl.org/dc/elements/1.1/"
   xmlns:cc="http://creativecommons.org/ns#"
   xmlns:rdf="http://www.w3.org/1999/02/22-rdf-syntax-ns#"
   xmlns:svg="http://www.w3.org/2000/svg"
   xmlns="http://www.w3.org/2000/svg"
   xmlns:sodipodi="http://sodipodi.sourceforge.net/DTD/sodipodi-0.dtd"
   xmlns:inkscape="http://www.inkscape.org/namespaces/inkscape"
   width="39.687511mm"
   height="39.687569mm"
   viewBox="0 0 39.687511 39.687569"
   version="1.1"
   id="svg604"
   inkscape:version="1.0 (4035a4fb49, 2020-05-01)"
   sodipodi:docname="مشروع سكني تجاري.svg">
  <defs
     id="defs598" />
  <sodipodi:namedview
     id="base"
     pagecolor="#ffffff"
     bordercolor="#666666"
     borderopacity="1.0"
     inkscape:pageopacity="0.0"
     inkscape:pageshadow="2"
     inkscape:zoom="0.35"
     inkscape:cx="378.87482"
     inkscape:cy="233.16085"
     inkscape:document-units="mm"
     inkscape:current-layer="layer1"
     inkscape:document-rotation="0"
     showgrid="false"
     fit-margin-top="0"
     fit-margin-left="0"
     fit-margin-right="0"
     fit-margin-bottom="0"
     inkscape:window-width="1424"
     inkscape:window-height="1030"
     inkscape:window-x="32"
     inkscape:window-y="0"
     inkscape:window-maximized="0" />
  <metadata
     id="metadata601">
    <rdf:RDF>
      <cc:Work
         rdf:about="">
        <dc:format>image/svg+xml</dc:format>
        <dc:type
           rdf:resource="http://purl.org/dc/dcmitype/StillImage" />
        <dc:title />
      </cc:Work>
    </rdf:RDF>
  </metadata>
  <g
     inkscape:label="Layer 1"
     inkscape:groupmode="layer"
     id="layer1"
     transform="translate(-5.5893717,-86.476191)">
    <path
       inkscape:connector-curvature="0"
       id="path17973-2-83-56"
       d="m 28.068,86.476191 -6.4e-5,6.03e-4 c -0.03329,0 -0.06537,-7e-6 -0.09651,0.0017 -0.154045,-0.0072 -0.270514,0.01503 -0.377273,0.07902 -0.357429,0.155917 -0.559533,0.553139 -0.901691,1.322816 -0.737765,1.6596 -1.819099,2.288125 -3.936495,2.288125 -0.878349,0 -1.479223,-0.07044 -1.971589,-0.279854 -0.376537,-0.210385 -0.74346,-0.5005 -1.126149,-0.879815 -0.04159,-0.04796 -0.08348,-0.0977 -0.125878,-0.14943 -1.074567,-1.310626 -1.234053,-1.351144 -2.661537,-0.676425 -0.677584,0.320277 -1.845482,0.978989 -2.595384,1.46383 l -1.363441,0.88156 0.142344,0.765158 c 0.07831,0.420846 0.259767,1.08633 0.403209,1.478847 0.152019,0.416034 0.206749,0.996905 0.131246,1.392788 -0.204686,1.07331 -1.256792,2.719641 -2.152342,3.368033 -0.763279,0.552595 -0.943176,0.594042 -2.5773007,0.594042 -0.2597784,0 -0.4807378,6.4e-5 -0.6706227,0.0027 -0.1950479,-0.0081 -0.3612891,-0.004 -0.5052137,0.01651 -0.5920799,0.03959 -0.6738796,0.160599 -0.8648864,0.529796 -0.4942845,0.955284 -1.3072756,4.543115 -1.2229788,5.280145 0.00133,0.0884 0.010133,0.1504 0.028867,0.18065 0.036792,0.0595 0.2491145,0.19499 0.5552754,0.36186 0.3164145,0.20236 0.7327957,0.43788 1.1659205,0.65374 1.3978693,0.69667 1.5635072,0.84548 2.0522068,1.84383 0.9295206,1.89878 0.4138599,3.90124 -1.3263353,5.15075 -1.2722444,0.91352 -1.3949139,1.42476 -0.6886449,2.86946 0.9216794,1.88531 2.28769,3.80337 2.7087998,3.80337 0.209391,0 0.852003,-0.17905 1.428027,-0.39789 0.675858,-0.25672 1.179588,-0.38155 1.665706,-0.37095 0.06287,0.002 0.126059,0.006 0.189354,0.011 0.424114,0.0402 0.850194,0.18478 1.382139,0.43613 0.381881,0.18044 0.720238,0.37863 1.016097,0.5961 0.343689,0.29684 0.682252,0.64226 0.959666,0.97797 0.516227,0.76313 0.706293,1.69465 0.590077,2.82863 -0.09099,0.88752 -0.05715,1.3742 0.109485,1.57488 0.237475,0.28597 2.536166,1.12138 4.093304,1.48763 0.645532,0.15182 1.079006,0.2257 1.413383,0.16849 0.100835,0.0173 0.173346,0.0284 0.206122,0.0311 0.210488,0.0174 0.50683,-0.34589 0.772495,-0.91003 0.09214,-0.16062 0.188956,-0.34573 0.295533,-0.55797 0.590524,-1.17568 0.836357,-1.45803 1.612025,-1.85167 2.199111,-1.11606 4.422517,-0.73648 5.644603,0.96363 0.480412,0.66832 0.846575,0.98201 1.146403,0.98201 h 0.01559 0.0064 c 0.01688,0 0.0383,-0.003 0.06391,-0.008 0.711902,-0.11339 3.313232,-1.42697 4.482676,-2.27852 0.875791,-0.63773 0.918444,-0.71173 0.768573,-1.33328 -0.08728,-0.36193 -0.303003,-0.99091 -0.479336,-1.39778 -0.413077,-0.95302 -0.39951,-1.65476 0.05113,-2.64274 0.209595,-0.45955 0.426244,-0.85142 0.661829,-1.1833 0.124779,-0.15302 0.260787,-0.30497 0.408319,-0.45557 0.181629,-0.18542 0.35864,-0.34749 0.534513,-0.48768 0.693113,-0.46444 1.565938,-0.65155 2.768403,-0.65636 0.567004,0.0705 0.954781,0.0874 1.248158,-0.002 l 0.47148,-10e-4 0.377707,-0.79588 c 0.496132,-1.04537 1.410999,-4.7489 1.266239,-5.1259 -0.06225,-0.1621 -0.545938,-0.49859 -1.074827,-0.74771 -1.369123,-0.6449 -2.022771,-1.3266 -2.35996,-2.46142 -0.156217,-0.52577 -0.252683,-1.02115 -0.289857,-1.4852 -0.0028,-0.0824 -0.0041,-0.16577 -0.0041,-0.25044 0,-0.25508 0.0037,-0.4816 0.01422,-0.68639 0.108926,-0.97708 0.539788,-1.77954 1.28993,-2.39388 0.490222,-0.401471 0.943659,-0.93834 1.007617,-1.193065 0.0082,-0.03312 0.01296,-0.07094 0.01415,-0.113099 0.0278,-0.140098 -0.0097,-0.282271 -0.08031,-0.489983 -0.23042,-0.814253 -0.937695,-2.178139 -1.902377,-3.620528 -0.833439,-1.246193 -0.847697,-1.256308 -1.608347,-1.138421 -0.422075,0.06544 -1.02234,0.25068 -1.333887,0.411711 -0.687652,0.35539 -1.055494,0.356373 -2.039859,0.0054 -1.113972,-0.397126 -2.269627,-1.261762 -2.777687,-2.078251 -0.345993,-0.55609 -0.469507,-1.118801 -0.546554,-2.489955 l -0.02843,-0.505433 c 0.03724,-0.516961 0.03267,-0.774867 -0.05331,-0.949486 l -0.01784,-0.31662 -1.224656,-0.45683 c -0.673554,-0.251276 -1.952867,-0.60436 -2.842965,-0.784601 -0.594626,-0.120431 -1.01576,-0.197813 -1.334514,-0.200467 z m -2.621512,5.396875 c 0.440628,9.6e-5 0.880701,0.02119 1.318169,0.06381 4.382129,0.4269 8.291266,2.770168 10.732129,6.433154 1.266021,1.89988 2.099087,4.26833 2.328471,6.62028 0.361701,3.70886 -0.849341,7.6474 -3.227788,10.49747 -0.58141,0.69668 -1.821953,1.88762 -2.481043,2.38191 -2.882605,2.16163 -6.57878,3.19136 -10.142924,2.82576 -2.775605,-0.28471 -5.613251,-1.46945 -7.718066,-3.2224 -0.26476,-0.22053 -0.603298,-0.53913 -0.947892,-0.88493 -0.157182,-0.15477 -0.310492,-0.31281 -0.45976,-0.47395 -0.39111,-0.41408 -0.749805,-0.82268 -0.969582,-1.11544 -2.142149,-2.85343 -3.177644,-6.50765 -2.836234,-10.00842 0.280562,-2.87663 1.442297,-5.697325 3.227717,-7.836783 0.581404,-0.69666 1.821946,-1.887626 2.481037,-2.381905 2.496117,-1.871793 5.611334,-2.899761 8.695766,-2.898554 z m -0.06379,1.267287 c -0.905225,0.0025 -1.815673,0.09832 -2.716086,0.292878 -1.08564,0.2346 -1.904591,0.516526 -2.919469,1.005006 -3.781751,1.820123 -6.400223,5.16945 -7.243408,9.265153 -0.497735,2.41764 -0.263964,5.13776 0.637015,7.41205 0.81246,2.05086 2.135538,3.89742 3.775634,5.26948 2.060411,1.72368 4.577746,2.78661 7.26605,3.06811 0.858252,0.0899 2.489614,0.0247 3.445625,-0.13765 5.358346,-0.91003 9.605172,-4.98509 10.707313,-10.27426 0.82398,-3.95418 -0.151023,-7.92492 -2.727431,-11.107607 -2.478612,-3.061888 -6.30262,-4.804011 -10.225243,-4.79316 z m -0.03591,3.261975 c 0.01841,0 0.02548,0.850199 0.0156,1.88937 l -0.0179,1.889302 -1.651363,0.0145 -1.651303,0.0144 v 3.06345 h 1.119345 0.26242 v 0.78535 4.73956 0.58526 4.93971 H 18.11043 16.616127 v -4.93971 -0.65374 h 0.0035 v -8.11725 l 0.03011,-0.0145 v -0.0199 l 4.331791,-2.08791 c 2.382482,-1.148325 4.346845,-2.087842 4.365217,-2.087842 z m -2.462521,4.648022 h 6.066027 6.066014 v 0.0674 0.6399 0.63997 h -6.049126 -0.01689 -6.032286 -0.03374 v -0.67366 z m -4.839368,0.58819 v 0.94369 h 3.719034 v -0.94369 z m 0,1.63476 v 0.94369 h 3.719034 v -0.94369 z m 6.255622,0 h 1.330702 3.320193 4.650642 0.0031 v 10.75901 0.28975 H 32.397002 24.30047 v -0.0362 -0.25354 -5.28015 z m 2.007441,1.10726 v 0.94369 h 2.317558 v -0.94369 z m 2.998157,0 v 0.94369 h 2.317558 v -0.94369 z m -11.26122,0.52756 v 0.94375 h 3.719034 v -0.94375 z m 8.263063,1.02438 v 0.94376 h 2.317558 v -0.94376 z m 2.998157,0 v 0.94376 h 2.317558 v -0.94376 z m -11.26122,0.61037 v 0.94376 h 3.719034 v -0.94376 z m 0.69774,3.27326 v 3.89344 h 2.306593 v -3.89344 z m 9.151786,0.002 v 3.8935 h 2.306581 v -3.8935 z"
       style="fill:#8aaea2;fill-opacity:1;stroke-width:0.199024" />
  </g>
</svg>
