<?xml version="1.0" encoding="UTF-8" standalone="no"?>
<svg
   xmlns:dc="http://purl.org/dc/elements/1.1/"
   xmlns:cc="http://creativecommons.org/ns#"
   xmlns:rdf="http://www.w3.org/1999/02/22-rdf-syntax-ns#"
   xmlns:svg="http://www.w3.org/2000/svg"
   xmlns="http://www.w3.org/2000/svg"
   xmlns:sodipodi="http://sodipodi.sourceforge.net/DTD/sodipodi-0.dtd"
   xmlns:inkscape="http://www.inkscape.org/namespaces/inkscape"
   id="Hospitals"
   width="78"
   height="78"
   viewBox="0 0 78 78"
   version="1.1"
   sodipodi:docname="Hospital.svg"
   inkscape:version="0.92.4 (5da689c313, 2019-01-14)">
  <metadata
     id="metadata1589">
    <rdf:RDF>
      <cc:Work
         rdf:about="">
        <dc:format>image/svg+xml</dc:format>
        <dc:type
           rdf:resource="http://purl.org/dc/dcmitype/StillImage" />
        <dc:title></dc:title>
      </cc:Work>
    </rdf:RDF>
  </metadata>
  <defs
     id="defs1587" />
  <sodipodi:namedview
     pagecolor="#ffffff"
     bordercolor="#666666"
     borderopacity="1"
     objecttolerance="10"
     gridtolerance="10"
     guidetolerance="10"
     inkscape:pageopacity="0"
     inkscape:pageshadow="2"
     inkscape:window-width="1920"
     inkscape:window-height="1001"
     id="namedview1585"
     showgrid="false"
     inkscape:zoom="2.1394513"
     inkscape:cx="226.65886"
     inkscape:cy="60.435729"
     inkscape:window-x="-9"
     inkscape:window-y="-9"
     inkscape:window-maximized="1"
     inkscape:current-layer="Hospitals" />
  <g
     id="g3756">
    <circle
       r="39"
       cy="39"
       cx="39"
       data-name="Ellipse 78"
       id="Ellipse_78"
       style="fill:#f27070" />
    <g
       id="g3750">
      <path
         inkscape:connector-curvature="0"
         style="fill:#da6565;fill-opacity:1;stroke-width:0.08589008"
         d="m 22.359065,18.26683 -0.0116,10.57991 -0.0101,9.07986 v 0.0743 c -4e-5,0.0293 3e-5,0.0452 0,0.0745 l -0.0217,19.6596 4.23462,-0.0218 c 0.054,-2.6e-4 0.0805,-1.8e-4 0.13588,-5.2e-4 l 1.61848,-0.009 2.6433,-0.0136 0.022,-7.88092 0.022,-7.88075 8.00874,0.0218 8.00875,0.022 0.022,7.88125 0.022,7.88127 4.07558,-0.0212 0.0461,3.4e-4 c 2.22537,0.013 4.12995,0.003 4.26498,-0.0224 l 0.24424,-0.002 V 37.97766 18.26589 h -4.2945 -4.29451 l -0.0441,7.77305 c -0.0242,4.27517 -0.0532,7.78297 -0.0644,7.79502 -0.0112,0.0121 -3.60514,0.0121 -7.98661,0 l -7.96631,-0.022 -0.0429,-7.77306 -0.0429,-7.77304 h -4.2945 z"
         id="path3673-2" />
      <path
         inkscape:connector-curvature="0"
         style="fill:#ffffff;stroke-width:0.08589008;fill-opacity:1"
         d="m 22.359065,19.266016 -0.0116,10.57991 -0.0101,9.079862 v 0.07432 c -4e-5,0.02935 3e-5,0.04523 0,0.07449 l -0.0217,19.659599 4.23462,-0.02184 c 0.054,-2.59e-4 0.0805,-1.73e-4 0.13588,-5.18e-4 l 1.61848,-0.0087 2.6433,-0.01355 0.022,-7.880915 0.022,-7.880752 8.00874,0.02184 8.00875,0.02201 0.022,7.881252 0.022,7.881261 4.07558,-0.02115 0.0461,3.45e-4 c 2.22537,0.01303 4.12995,0.0026 4.26498,-0.02244 l 0.24424,-0.0017 V 38.977528 19.265757 h -4.2945 -4.29451 l -0.0441,7.77305 c -0.0242,4.275177 -0.0532,7.782976 -0.0644,7.795026 -0.0112,0.01208 -3.60514,0.01208 -7.98661,0 l -7.96631,-0.02201 -0.0429,-7.773059 -0.0429,-7.773049 h -4.2945 z"
         id="path3673" />
    </g>
  </g>
</svg>
