<?xml version="1.0" encoding="UTF-8" standalone="no"?>
<svg
   xmlns:dc="http://purl.org/dc/elements/1.1/"
   xmlns:cc="http://creativecommons.org/ns#"
   xmlns:rdf="http://www.w3.org/1999/02/22-rdf-syntax-ns#"
   xmlns:svg="http://www.w3.org/2000/svg"
   xmlns="http://www.w3.org/2000/svg"
   xmlns:sodipodi="http://sodipodi.sourceforge.net/DTD/sodipodi-0.dtd"
   xmlns:inkscape="http://www.inkscape.org/namespaces/inkscape"
   id="airport"
   width="80"
   height="80"
   viewBox="0 0 80 80"
   version="1.1"
   sodipodi:docname="initiatives2.svg"
   inkscape:version="0.92.4 (5da689c313, 2019-01-14)">
  <metadata
     id="metadata10416">
    <rdf:RDF>
      <cc:Work
         rdf:about="">
        <dc:format>image/svg+xml</dc:format>
        <dc:type
           rdf:resource="http://purl.org/dc/dcmitype/StillImage" />
        <dc:title></dc:title>
      </cc:Work>
    </rdf:RDF>
  </metadata>
  <sodipodi:namedview
     pagecolor="#ffffff"
     bordercolor="#666666"
     borderopacity="1"
     objecttolerance="10"
     gridtolerance="10"
     guidetolerance="10"
     inkscape:pageopacity="0"
     inkscape:pageshadow="2"
     inkscape:window-width="1920"
     inkscape:window-height="1001"
     id="namedview10414"
     showgrid="false"
     fit-margin-top="0"
     fit-margin-left="0"
     fit-margin-right="0"
     fit-margin-bottom="0"
     inkscape:zoom="1.475"
     inkscape:cx="154.62301"
     inkscape:cy="247.46507"
     inkscape:window-x="-9"
     inkscape:window-y="-9"
     inkscape:window-maximized="1"
     inkscape:current-layer="airport" />
  <defs
     id="defs10407">
    <filter
       id="Path_29"
       x="19.5"
       y="18"
       width="40.375"
       height="42.625"
       filterUnits="userSpaceOnUse">
      <feOffset
         dy="-1"
         input="SourceAlpha"
         id="feOffset10396" />
      <feGaussianBlur
         result="blur"
         id="feGaussianBlur10398" />
      <feFlood
         flood-opacity="0.102"
         id="feFlood10400" />
      <feComposite
         operator="in"
         in2="blur"
         id="feComposite10402"
         result="result1" />
      <feComposite
         in="SourceGraphic"
         in2="result1"
         id="feComposite10404" />
    </filter>
    <filter
       filterUnits="userSpaceOnUse"
       height="37"
       width="36"
       y="21"
       x="22"
       id="Path_128-3">
      <feOffset
         id="feOffset949-8"
         input="SourceAlpha"
         dy="-1" />
      <feGaussianBlur
         id="feGaussianBlur951-4"
         result="blur" />
      <feFlood
         id="feFlood953-1"
         flood-opacity="0.102" />
      <feComposite
         result="result1"
         id="feComposite955-7"
         in2="blur"
         operator="in" />
      <feComposite
         id="feComposite957-5"
         in2="result1"
         in="SourceGraphic" />
    </filter>
  </defs>
  <g
     id="g10708"
     transform="matrix(1.2676273,0,0,1.2788888,-431.57014,298.79975)">
    <path
       inkscape:connector-curvature="0"
       id="path10478-9-0"
       d="m 341.22111,-206.4373 -0.38241,0.38241 -0.38363,0.38363 v 3.52742 c 0,3.34445 0.0145,3.54474 0.26597,3.86448 0.33516,0.42609 0.29361,0.41436 3.07271,0.87634 1.28115,0.21298 2.34858,0.40592 2.37163,0.42898 0.023,0.023 0.21814,0.72722 0.43388,1.56393 0.21574,0.83672 0.63087,2.12086 0.92169,2.85454 0.29083,0.73369 0.52826,1.3912 0.52826,1.46098 0,0.0698 -0.75118,0.8914 -1.66934,1.82499 -0.91815,0.93361 -1.75364,1.87137 -1.85685,2.08484 -0.23116,0.47806 -0.0878,0.8299 0.86162,2.1167 0.34961,0.47386 1.12842,1.54526 1.73062,2.38144 1.16964,1.62406 1.71032,2.17431 2.13877,2.17431 0.14716,0 1.26507,-0.50079 2.48439,-1.11289 1.21932,-0.61211 2.2922,-1.11289 2.38389,-1.11289 0.0917,0 0.30956,0.15525 0.48413,0.34563 0.45181,0.49268 2.20717,1.78362 3.49433,2.57019 1.08126,0.66073 1.09632,0.67778 1.01607,1.10554 -0.21911,1.16791 -0.59145,3.96157 -0.59198,4.44176 -5.1e-4,0.82364 0.26247,1.03301 2.02845,1.61296 0.86415,0.28378 2.27842,0.75052 3.14257,1.0369 0.86415,0.28638 1.73025,0.52429 1.92427,0.52948 0.58087,0.0156 0.96755,-0.47477 2.10322,-2.6707 l 1.08102,-2.09218 h 3.20631 3.20508 l 1.08102,2.09218 c 1.09109,2.10974 1.5225,2.6805 2.02478,2.6805 0.15088,0 1.22334,-0.29942 2.38266,-0.66552 4.67273,-1.47562 4.79228,-1.53882 4.79107,-2.53833 -5.1e-4,-0.46961 -0.37617,-3.27507 -0.59321,-4.43196 -0.0809,-0.43144 -0.0652,-0.44902 0.87757,-1.00625 1.13371,-0.67009 2.7013,-1.80019 3.47717,-2.50646 0.30444,-0.27714 0.61257,-0.50374 0.68392,-0.50374 0.0713,0 1.05989,0.46977 2.19637,1.04425 2.51873,1.27321 2.7247,1.32661 3.29332,0.84815 0.44707,-0.37619 3.39274,-4.37685 3.93557,-5.34507 0.27958,-0.49868 0.29935,-0.61549 0.15932,-0.95355 -0.0877,-0.21177 -0.9228,-1.14819 -1.85563,-2.08116 -0.93283,-0.93297 -1.69672,-1.76346 -1.69753,-1.84583 -5.1e-4,-0.0824 0.23621,-0.75058 0.52703,-1.48427 0.29084,-0.73368 0.70596,-2.01782 0.9217,-2.85454 0.21574,-0.83671 0.41082,-1.54087 0.43387,-1.56393 0.023,-0.023 1.09049,-0.216 2.37164,-0.42898 2.7791,-0.46198 2.73755,-0.45025 3.07271,-0.87634 0.25151,-0.31974 0.26597,-0.52003 0.26597,-3.86448 v -3.52742 l -0.38363,-0.38363 -0.38241,-0.38241 h -5.65025 -5.65025 l -0.38241,0.38241 c -0.51456,0.51457 -0.51456,1.07756 0,1.59212 l 0.38241,0.3824 h 4.85848 4.85726 l -0.0355,2.05174 -0.0368,2.05297 -2.22579,0.36893 c -2.41405,0.40034 -2.88721,0.54006 -3.0862,0.91188 -0.0716,0.13376 -0.27184,0.87644 -0.4449,1.65095 -0.38679,1.73102 -0.97143,3.51405 -1.57619,4.80578 -0.75867,1.62046 -0.74583,1.65758 1.24526,3.66837 0.93616,0.94543 1.70243,1.79322 1.70243,1.88383 0,0.16012 -2.16418,3.23905 -2.36305,3.36196 -0.0547,0.0337 -1.04984,-0.41073 -2.21231,-0.98664 -1.40444,-0.6958 -2.26503,-1.04671 -2.56406,-1.04671 -0.36683,0 -0.61093,0.14705 -1.3237,0.79299 -1.24429,1.12762 -2.88974,2.33639 -4.38416,3.22224 -1.62628,0.96401 -1.65841,1.03038 -1.37886,2.82635 0.47302,3.03892 0.5125,3.38774 0.39834,3.48943 -0.10386,0.0925 -3.73423,1.32248 -3.9037,1.32248 -0.0369,0 -0.53698,-0.93022 -1.11167,-2.06645 -0.57467,-1.13622 -1.19472,-2.20593 -1.37763,-2.37776 l -0.33337,-0.31255 -2.07135,0.1716 c -1.69834,0.14084 -2.45511,0.14184 -4.20277,0.004 l -2.1314,-0.16914 -0.30764,0.31254 c -0.16974,0.17207 -0.76237,1.19708 -1.31635,2.27727 -0.55399,1.08018 -1.04484,2.00677 -1.09083,2.05909 -0.086,0.0979 -3.78055,-1.03113 -3.99072,-1.21952 -0.11406,-0.10224 -0.0755,-0.44076 0.40201,-3.48576 0.28172,-1.79647 0.24864,-1.86515 -1.39357,-2.8386 -1.53462,-0.90969 -3.4391,-2.31386 -4.47853,-3.30191 -1.019,-0.96862 -1.14546,-0.95726 -3.78236,0.33706 -1.16903,0.57381 -2.16716,1.01833 -2.21843,0.98664 -0.19458,-0.12025 -2.35692,-3.20121 -2.35692,-3.35828 0,-0.0906 0.76626,-0.9384 1.70243,-1.88383 1.96867,-1.98816 1.98233,-2.02589 1.29184,-3.54458 -0.69692,-1.53277 -1.39063,-3.70385 -1.69141,-5.28869 -0.20793,-1.09559 -0.41702,-1.49879 -0.87021,-1.68037 -0.20143,-0.0807 -1.36804,-0.31684 -2.59225,-0.52335 l -2.22579,-0.37505 -0.0368,-2.04929 -0.0355,-2.04929 h 4.85848 4.85726 l 0.3824,-0.3824 c 0.51456,-0.51456 0.51456,-1.07756 0,-1.59212 l -0.3824,-0.3824 h -5.65025 z"
       style="fill:#2cd5c4;fill-opacity:1;stroke-width:0.13093148" />
    <path
       id="path10633-6"
       d="m 372.04485,-233.63998 c -0.53301,0.0127 -1.2254,0.70274 -4.04688,3.67578 -1.85804,1.95786 -4.05809,4.26672 -4.88867,5.13086 -2.54998,2.65304 -10.78095,11.34533 -11.5,12.14453 -0.81777,0.90891 -0.88613,1.35215 -0.29688,1.94141 l 0.38282,0.38281 h 1.70312 1.70313 l 0.0547,5.33594 c 0.0489,4.83326 0.0792,5.4391 0.32422,6.44726 1.66071,6.83339 6.56112,11.62842 13.32227,13.03711 4.01717,0.83699 8.44608,0.0303 12.03125,-2.19336 4.07333,-2.52636 6.78382,-6.44072 7.74414,-11.18359 0.30833,-1.52278 0.32227,-1.8025 0.32227,-6.51758 v -4.92578 h 1.71289 1.71093 l 0.38282,-0.38281 c 0.56309,-0.56309 0.51865,-1.04722 -0.17188,-1.8125 -0.30604,-0.33918 -2.70945,-2.88342 -5.33789,-5.65625 l -14.78516,-15.3457 c -0.13017,-0.0496 -0.24418,-0.081 -0.36718,-0.0781 z m 2.09375,12.46484 h 0.002 c 0.2131,-2.7e-4 0.48289,0.004 0.82422,0.01 l 1.55469,0.0312 v 1.60937 1.60938 l -0.38672,0.008 c -0.24579,0.0721 -0.66887,0.057 -1.38477,0.0723 l -0.83398,0.0176 c -0.25365,0.0804 -0.32751,0.26577 -0.34571,0.70312 v 1.23828 0.002 1.875 h 2.03511 c 1.90236,0 2.04265,0.015 2.14648,0.20898 0.0645,0.12039 0.11133,0.99564 0.11133,2.08398 v 1.875 l 1.39844,0.0371 c 1.09915,0.0278 1.42215,0.0689 1.50195,0.19532 0.0559,0.0885 0.10106,0.74995 0.10157,1.46875 l 0.002,1.30664 0.61719,0.0664 c 0.33939,0.0374 0.69079,0.0781 0.77929,0.0899 0.20744,0.0276 0.29126,1.62025 0.0977,1.85351 -0.1665,0.20063 -1.63232,0.21197 -1.79688,0.0137 -0.0631,-0.0761 -0.12858,-0.45063 -0.14648,-0.83203 l -0.0332,-0.69336 -0.13282,-0.006 -1.15429,-0.0234 c -0.60921,-0.0126 -0.96613,-0.0286 -1.1875,-0.0625 l -0.42188,-0.0156 -0.0234,-0.63476 c -0.0164,-0.2002 -0.0253,-0.45817 -0.0293,-0.77539 v -0.0391 l -0.0547,-1.44922 h -1.87695 -1.87891 l -0.0293,2.86524 -0.0234,2.51562 v 0.34766 l 2.04101,0.0332 c 1.67532,0.0273 2.06329,0.0635 2.14649,0.19532 0.15591,0.24708 0.13273,4.22077 -0.0254,4.3789 -0.0915,0.0914 -0.7414,0.12891 -2.24805,0.12891 -1.98723,0 -2.12833,-0.0145 -2.23242,-0.20899 -0.0647,-0.12113 -0.11133,-1.01406 -0.11133,-2.14648 v -1.94141 l -2.87305,0.0293 -0.34765,0.002 -2.52149,0.0254 -0.0273,2.57618 c -0.0245,2.26821 -0.05,2.59084 -0.20899,2.70898 -0.22847,0.16987 -5.13526,0.18565 -5.42382,0.0176 -0.17116,-0.0996 -0.1875,-0.35257 -0.1875,-2.84375 0,-2.3438 0.0228,-2.74338 0.16211,-2.79688 0.0894,-0.0343 1.30804,-0.0682 2.70898,-0.0762 l 2.54687,-0.0156 0.0156,-2.92383 c 0.009,-1.60884 0.0442,-2.99784 0.0781,-3.08594 0.003,-0.008 0.008,-0.0164 0.0137,-0.0234 v -0.084 l 0.29101,-0.002 c 0.36462,-0.042 1.13905,-0.0508 2.76367,-0.0508 h 2.75586 l 0.25391,-0.002 v -1.92969 -1.93164 h -1.97266 c -1.54485,0 -1.9995,-0.0325 -2.0957,-0.14843 -0.0857,-0.10282 -0.11405,-0.79896 -0.0937,-2.28125 l 0.0293,-2.13086 2.0664,-0.0293 2.06641,-0.0293 v -1.31836 c 0,-0.88983 0.0437,-1.37933 0.13477,-1.5039 0.0889,-0.12161 0.22578,-0.16195 0.86328,-0.16407 z m 6.48242,3.3125 h 0.002 c 0.62899,4e-5 0.75868,0.0101 0.84375,0.17188 0.1281,0.13827 0.15039,0.38701 0.15039,0.82031 v 0.0195 0.008 c 0,0.005 -0.002,0.009 -0.002,0.0137 -10e-4,0.45717 -0.0187,0.71045 -0.1543,0.8457 -0.0683,0.11971 -0.17591,0.14934 -0.53125,0.15234 -0.11233,0.006 -0.24067,0.008 -0.39258,0.008 -0.43656,0 -0.6899,-0.0201 -0.8164,-0.0684 -0.002,-0.001 -0.006,-0.001 -0.008,-0.002 0,0 -0.002,-0.002 -0.002,-0.002 -0.0463,-0.0193 -0.075,-0.044 -0.0859,-0.0723 -0.0155,-0.0406 -0.0263,-0.17927 -0.0312,-0.36719 -0.0312,-0.34891 -0.0227,-0.82361 0.0254,-1.125 l 0.0137,-0.34961 0.35742,-0.0117 c 0.16361,-0.0252 0.38256,-0.0409 0.63086,-0.041 z m -15.91992,3.86329 c 0.70552,0 1.07312,0.0145 1.2832,0.0625 l 0.28711,0.0547 v 0.14063 c 0.0845,0.17564 0.10742,0.54 0.10742,1.45898 0,0.91893 -0.0229,1.28334 -0.10742,1.45899 v 0.125 l -0.16016,0.0312 c -0.17799,0.0804 -0.54012,0.10161 -1.42969,0.0996 -0.29878,-7e-4 -0.58808,-0.01 -0.83593,-0.0234 -0.28791,-0.01 -0.51886,-0.0252 -0.60157,-0.0469 -0.015,-0.004 -0.0301,-0.0125 -0.0449,-0.0215 -0.0306,-0.007 -0.0534,-0.0145 -0.0664,-0.0215 -0.16457,-0.0959 -0.1875,-0.29452 -0.1875,-1.60352 0,-1.14771 0.0124,-1.42646 0.1289,-1.54688 0.004,-0.0115 0.009,-0.0214 0.0137,-0.0254 0.007,-0.007 0.0237,-0.0145 0.0469,-0.0215 0.006,-0.004 0.0116,-0.007 0.0176,-0.01 0.11417,-0.0611 0.81136,-0.11132 1.54883,-0.11132 z"
       style="fill:#2cd5c4;fill-opacity:1;stroke-width:0.13093148"
       inkscape:connector-curvature="0" />
  </g>
</svg>
