<?xml version="1.0" encoding="UTF-8" standalone="no"?>
<!-- Created with Inkscape (http://www.inkscape.org/) -->

<svg
   xmlns:dc="http://purl.org/dc/elements/1.1/"
   xmlns:cc="http://creativecommons.org/ns#"
   xmlns:rdf="http://www.w3.org/1999/02/22-rdf-syntax-ns#"
   xmlns:svg="http://www.w3.org/2000/svg"
   xmlns="http://www.w3.org/2000/svg"
   xmlns:sodipodi="http://sodipodi.sourceforge.net/DTD/sodipodi-0.dtd"
   xmlns:inkscape="http://www.inkscape.org/namespaces/inkscape"
   width="39.68721mm"
   height="39.687069mm"
   viewBox="0 0 39.687209 39.687069"
   version="1.1"
   id="svg8"
   inkscape:version="0.92.4 (5da689c313, 2019-01-14)"
   sodipodi:docname="Others.svg">
  <defs
     id="defs2" />
  <sodipodi:namedview
     id="base"
     pagecolor="#ffffff"
     bordercolor="#666666"
     borderopacity="1.0"
     inkscape:pageopacity="0.0"
     inkscape:pageshadow="2"
     inkscape:zoom="0.98994949"
     inkscape:cx="422.98878"
     inkscape:cy="92.083211"
     inkscape:document-units="mm"
     inkscape:current-layer="layer1-6"
     showgrid="false"
     fit-margin-top="0"
     fit-margin-left="0"
     fit-margin-right="0"
     fit-margin-bottom="0"
     inkscape:window-width="1920"
     inkscape:window-height="1001"
     inkscape:window-x="-9"
     inkscape:window-y="-9"
     inkscape:window-maximized="1" />
  <metadata
     id="metadata5">
    <rdf:RDF>
      <cc:Work
         rdf:about="">
        <dc:format>image/svg+xml</dc:format>
        <dc:type
           rdf:resource="http://purl.org/dc/dcmitype/StillImage" />
        <dc:title />
      </cc:Work>
    </rdf:RDF>
  </metadata>
  <g
     inkscape:label="Layer 1"
     inkscape:groupmode="layer"
     id="layer1"
     transform="translate(38.74244,-135.03769)">
    <g
       inkscape:label="Layer 1"
       id="layer1-6"
       transform="translate(-22.409215,73.509924)">
      <path
         style="fill:#6f8a91;fill-opacity:1;stroke-width:0.75220913"
         d="m 84.958984,0.00195313 v 0.00195312 c -0.12579,0 -0.247513,0.0013873 -0.365234,0.0078125 -0.582127,-0.0272126 -1.022331,0.05701395 -1.425781,0.29882813 -1.350958,0.58927748 -2.115058,2.08905032 -3.408203,4.99804692 -2.78845,6.2723642 -6.87602,8.6484372 -14.878907,8.6484372 -3.319741,0 -5.59026,-0.267172 -7.451171,-1.058593 -1.42304,-0.795172 -2.809523,-1.890626 -4.25586,-3.3242192 C 53.016619,9.3929526 52.857477,9.2052995 52.697266,9.0097656 48.635864,4.0563281 48.033841,3.903074 42.638672,6.453125 c -2.560988,1.2104693 -6.97437,3.698773 -9.808594,5.53125 l -5.154297,3.332031 0.539063,2.892578 c 0.295941,1.590569 0.981203,4.106327 1.523437,5.589844 0.574559,1.572378 0.781596,3.767433 0.496094,5.263672 -0.773571,4.056548 -4.750009,10.277942 -8.134766,12.728516 -2.884785,2.088521 -3.566016,2.246093 -9.742187,2.246093 -0.981838,0 -1.815528,-1.97e-4 -2.5332032,0.0098 -0.7371893,-0.03061 -1.3662369,-0.01502 -1.9101563,0.0625 -2.237828,0.149631 -2.5475243,0.606612 -3.2695313,2.001953 -1.8680239,3.610477 -4.93974189,17.171406 -4.6210937,19.957031 0.0049134,0.334186 0.03854665,0.567344 0.109375,0.681641 0.13904882,0.224844 0.940467,0.738511 2.0976563,1.369141 1.1957593,0.764806 2.7691967,1.65488 4.40625,2.470703 5.2831902,2.633076 5.9107612,3.195553 7.7578122,6.96875 3.513192,7.176408 1.56353,14.744239 -5.0136716,19.466797 -4.8084359,3.452585 -5.2728297,5.385465 -2.6035156,10.845695 3.4836022,7.12549 8.6465972,14.37305 10.2382812,14.37305 0.791354,0 3.221297,-0.67686 5.398437,-1.50391 2.554469,-0.97028 4.457628,-1.44046 6.294922,-1.40039 0.237536,0.009 0.47571,0.023 0.714844,0.041 1.603039,0.15209 3.214063,0.69847 5.22461,1.64844 1.443327,0.68196 2.721637,1.43002 3.839843,2.25195 1.299028,1.12189 2.578413,2.42853 3.626953,3.69727 1.951095,2.88428 2.6698,6.40357 2.230469,10.68945 -0.343861,3.35437 -0.21571,5.19466 0.414063,5.95312 0.89758,1.08087 9.585506,4.23884 15.470703,5.62305 2.439802,0.57385 4.077967,0.85295 5.341797,0.63672 0.381109,0.0654 0.655376,0.10698 0.779296,0.11719 0.795593,0.0658 1.915835,-1.30731 2.919922,-3.43946 0.348193,-0.60706 0.714331,-1.30724 1.117188,-2.10937 2.231808,-4.44347 3.160049,-5.5103 6.091797,-6.99805 8.311595,-4.21817 16.715079,-2.78297 21.333984,3.64258 1.81573,2.52586 3.200777,3.71094 4.333987,3.71094 h 0.0586 0.0234 c 0.0637,0 0.14532,-0.009 0.24219,-0.0293 2.69065,-0.42854 12.52155,-5.39485 16.9414,-8.61328 3.31007,-2.41029 3.47269,-2.68994 2.90625,-5.03906 -0.32987,-1.3679 -1.14602,-3.74353 -1.8125,-5.28125 -1.56123,-3.60195 -1.5099,-6.25421 0.19336,-9.98828 0.79204,-1.73683 1.61153,-3.21833 2.50195,-4.47266 0.47166,-0.57833 0.98533,-1.15344 1.54297,-1.72266 0.68649,-0.70074 1.35489,-1.31197 2.01953,-1.84179 2.61964,-1.75539 5.91817,-2.46423 10.4629,-2.48243 2.14304,0.26646 3.60993,0.33166 4.71875,-0.006 l 1.78125,-0.006 1.42773,-3.00782 c 1.87523,-3.950998 5.33231,-17.948154 4.78516,-19.37304 -0.23532,-0.612669 -2.06353,-1.884608 -4.0625,-2.826172 -5.17468,-2.43744 -7.64352,-5.013711 -8.91797,-9.302734 -0.59039,-1.987128 -0.9551,-3.859448 -1.09571,-5.613281 -0.0106,-0.31132 -0.0156,-0.6253 -0.0156,-0.945313 0,-0.96404 0.0129,-1.821641 0.0527,-2.595703 0.41165,-3.692814 2.03982,-6.724922 4.875,-9.046875 1.85274,-1.517348 3.56692,-3.546999 3.8086,-4.509766 0.031,-0.12514 0.0501,-0.266477 0.0547,-0.425781 0.10511,-0.529508 -0.0378,-1.068466 -0.30468,-1.853515 -0.87087,-3.077413 -3.54336,-8.232155 -7.18946,-13.683594 -3.14999,-4.709972 -3.20328,-4.748261 -6.07812,-4.302734 -1.59529,0.247332 -3.86545,0.948034 -5.04297,1.55664 -2.59897,1.343188 -3.98857,1.346002 -7.70898,0.01953 -4.21026,-1.500933 -8.57769,-4.767618 -10.49805,-7.853515 -1.3076,-2.101746 -1.77511,-4.227895 -2.06641,-9.410156 l -0.10742,-1.910157 c 0.14071,-1.9538454 0.12379,-2.9299002 -0.20117,-3.5898435 l -0.0664,-1.1953125 -4.6289,-1.7265625 C 98.202269,2.7768353 93.366102,1.4409537 90.001953,0.75976562 87.754552,0.3046198 86.163863,0.01198399 84.958984,0.00195313 Z M 75.050781,20.396484 c 1.665502,3.63e-4 3.329049,0.08114 4.982422,0.242188 16.562369,1.613454 31.337187,10.470304 40.562497,24.314453 4.78491,7.180603 7.93374,16.132364 8.80078,25.021484 1.36709,14.01758 -3.21179,28.902031 -12.20117,39.673831 -2.19743,2.63307 -6.88581,7.13382 -9.37695,9.00195 -10.894833,8.16987 -24.865164,12.0614 -38.335938,10.67969 -10.490607,-1.07606 -21.214591,-5.55249 -29.169922,-12.17774 -1.000577,-0.83351 -2.279584,-2.03876 -3.582031,-3.3457 -0.594118,-0.58495 -1.174254,-1.18195 -1.738281,-1.79102 -1.478252,-1.56494 -2.833502,-3.10837 -3.664063,-4.21484 C 23.231771,97.016311 19.317057,83.205639 20.607422,69.974609 21.667817,59.10242 26.058556,48.441484 32.806641,40.355469 35.004072,37.722438 39.694407,33.219692 42.185547,31.351562 51.619636,24.277186 63.393134,20.391926 75.050781,20.396484 Z M 74.808594,25.1875 c -3.421281,0.0094 -6.862404,0.372096 -10.265625,1.107422 -4.103115,0.886673 -7.197312,1.95067 -11.033203,3.796875 -14.293132,6.879103 -24.190069,19.537952 -27.376954,35.017578 -1.881245,9.137412 -0.997071,19.418078 2.408204,28.013672 3.070713,7.751233 8.070703,14.730333 14.269531,19.916013 7.787373,6.5146 17.302329,10.53182 27.462891,11.59571 3.243692,0.3397 9.408217,0.0941 13.021484,-0.51954 20.251998,-3.43941 36.303268,-18.84166 40.468748,-38.832027 3.11425,-14.944785 -0.571,-29.951612 -10.30859,-41.980469 C 104.08705,31.730388 89.634289,25.146466 74.808594,25.1875 Z m 31.060546,40.982422 c 0.24066,7.56e-4 0.48276,0.01399 0.72461,0.03516 0.0218,0.0019 0.0429,0.0039 0.0644,0.0059 0.0412,0.0042 0.0839,0.01147 0.125,0.01562 0.11112,0.01198 0.22114,0.02514 0.33203,0.04102 0,0 0.002,0 0.002,0 0.17012,0.02498 0.34055,0.05432 0.50976,0.08984 0.078,0.01625 0.15472,0.03308 0.23243,0.05273 0.001,5.14e-4 0.002,0.0016 0.004,0.002 1.08302,0.235575 2.03858,0.669154 2.95508,1.34375 0.0575,0.0418 0.11473,0.08491 0.17187,0.128907 0.0291,0.0226 0.0568,0.0453 0.0859,0.06836 0.02,0.01565 0.0405,0.031 0.0605,0.04687 0.88662,0.675489 1.64914,1.50481 2.20312,2.421875 0.95091,1.48978 1.37366,3.167047 1.26954,5.056641 -0.0263,0.477327 -0.0929,0.942778 -0.19141,1.396484 -0.057,0.294202 -0.1317,0.57765 -0.23242,0.865234 -0.66908,2.048625 -2.06347,3.75891 -3.87696,4.832032 -0.0797,0.04739 -0.16085,0.09392 -0.24218,0.138672 -0.62406,0.348177 -1.29502,0.623737 -2.00391,0.808593 -0.13239,0.03451 -0.29545,0.06584 -0.4707,0.0957 -0.43542,0.08697 -0.88179,0.142456 -1.33789,0.16211 -0.11354,0.0038 -0.22777,0.0056 -0.3418,0.0098 -0.35104,0.01587 -0.67606,0.01978 -0.92773,0.0039 -0.17214,-0.0053 -0.31951,-0.01172 -0.39454,-0.02344 -0.74286,-0.115139 -1.51967,-0.356691 -2.26172,-0.691406 -0.01,-0.006 -0.0191,-0.0095 -0.0293,-0.01367 -0.0182,-0.0091 -0.0365,-0.01745 -0.0547,-0.02539 -0.53572,-0.239988 -1.03655,-0.528338 -1.5,-0.857421 -0.0244,-0.01697 -0.0481,-0.03497 -0.0723,-0.05273 -0.027,-0.01962 -0.0552,-0.03894 -0.082,-0.05859 -0.33193,-0.241515 -0.640598,-0.499396 -0.916012,-0.771484 -0.913654,-0.902665 -1.537654,-1.814784 -1.996094,-2.927734 -0.149415,-0.344217 -0.282551,-0.700902 -0.394531,-1.070313 -0.09853,-0.325013 -0.167462,-0.715572 -0.208984,-1.140625 -0.148358,-1.091456 -0.08263,-2.179914 0.171875,-3.216797 0.04971,-0.233314 0.107667,-0.455658 0.173828,-0.658203 0.374623,-1.146675 0.971457,-2.170093 1.726562,-3.037109 0.05071,-0.05922 0.102015,-0.116002 0.154297,-0.173828 0.01141,-0.01285 0.0237,-0.02735 0.03516,-0.03906 1.181669,-1.294371 2.755219,-2.258506 4.595699,-2.667969 0.48824,-0.108737 0.90801,-0.166017 1.40625,-0.177734 0.17648,-0.0098 0.35361,-0.01614 0.53125,-0.01563 z m -30.906249,0.0059 v 0.002 c 0.449517,0 0.891883,0.03348 1.324218,0.09766 0.520027,0.04377 0.871441,0.140588 1.46875,0.345703 0.109191,0.03742 0.2171,0.0758 0.324219,0.117187 2.201753,0.825702 3.996602,2.516488 4.97461,4.75 0.08698,0.193508 0.169321,0.388622 0.24414,0.589844 0.04101,0.110324 0.07956,0.23503 0.115234,0.365234 0.04235,0.135323 0.08252,0.271637 0.119141,0.410157 0.282965,1.070626 0.28241,3.158397 0,4.265625 -0.282655,1.10784 -0.703245,2.018676 -1.359375,2.90039 -0.147482,0.207477 -0.304151,0.410521 -0.46875,0.605469 -0.533416,0.650188 -1.16073,1.224469 -1.873047,1.699219 -0.786998,0.558213 -1.611194,0.937423 -2.574219,1.197265 -0.427167,0.1152 -0.953552,0.196064 -1.503906,0.238282 -0.635426,0.08277 -0.922974,0.08962 -1.480468,0.02344 -0.198068,-0.0087 -0.379946,-0.02344 -0.544922,-0.04687 -0.210636,-0.02396 -0.410552,-0.05452 -0.587891,-0.09375 -0.214766,-0.04747 -0.501428,-0.136172 -0.808594,-0.242187 -0.240718,-0.07937 -0.479743,-0.167723 -0.71289,-0.267579 C 71.416565,83.050441 71.220264,82.96688 71.048828,82.884865 70.29224,82.522838 69.87394,82.245916 69.25,81.658203 c -0.764984,-0.651791 -1.423602,-1.42277 -1.929688,-2.277344 -0.414208,-0.678776 -0.71159,-1.393102 -0.927734,-2.207031 -0.113552,-0.427616 -0.179062,-1.0416 -0.201172,-1.689453 -0.02008,-0.348136 -0.02001,-0.698277 0.002,-1.048828 0.01928,-0.46108 0.06267,-0.898141 0.128907,-1.259766 0.04804,-0.39908 0.134704,-0.679353 0.294922,-1.097656 0.07951,-0.207575 0.165637,-0.409967 0.257812,-0.609375 0.156483,-0.368905 0.34446,-0.722998 0.560547,-1.066406 0.912289,-1.493583 2.226519,-2.666814 3.779297,-3.394532 0.359317,-0.174481 0.73251,-0.32767 1.117187,-0.455078 0.453297,-0.150047 0.79756,-0.229871 1.273438,-0.271484 0.443688,-0.06837 0.895932,-0.105469 1.357422,-0.105469 z m -30.671875,0.0039 c 0.03506,0 0.07047,0.0034 0.105468,0.0039 0,0 0.002,0 0.002,0 0.0031,6e-5 0.0067,-8e-5 0.0098,0 0.545832,0.01172 1.08239,0.07123 1.587891,0.183594 1.970718,0.438451 3.618007,1.504883 4.8125,2.923828 0.02433,0.02812 0.04834,0.05759 0.07227,0.08594 0.03087,0.03768 0.06351,0.07522 0.09375,0.113281 0.595831,0.73606 1.058108,1.55802 1.386719,2.460938 0.0087,0.02336 0.0188,0.04688 0.02734,0.07031 0.02114,0.05964 0.04059,0.11948 0.06055,0.179688 7.96e-4,0.0019 0.0012,0.0039 0.002,0.0059 0.0099,0.02971 0.01977,0.05999 0.0293,0.08984 0.183725,0.563263 0.31112,1.146426 0.378906,1.738281 0.0051,0.0412 0.0093,0.08185 0.01367,0.123047 0.150382,1.502563 -0.08402,3.062891 -0.783203,4.535156 -0.326238,0.68696 -0.732068,1.317621 -1.201172,1.884766 -0.366619,0.449786 -0.778525,0.867019 -1.232422,1.244141 -0.133095,0.110551 -0.296066,0.229344 -0.478516,0.349609 -0.82281,0.588008 -1.738131,1.032399 -2.703125,1.3125 -0.108181,0.03409 -0.212005,0.06559 -0.30664,0.08789 -0.0656,0.01569 -0.133563,0.03094 -0.203125,0.04492 0,0 -0.002,0 -0.002,0 -1.064745,0.24034 -2.180282,0.282751 -3.291016,0.0957 -0.06802,-0.01807 -0.134051,-0.03699 -0.201172,-0.05664 -1.815442,-0.358481 -3.33177,-1.178303 -4.625,-2.5 -0.121202,-0.164527 -0.235831,-0.330803 -0.347656,-0.498047 -1.269489,-1.433174 -1.898969,-2.951716 -2.035156,-4.443359 -0.206349,-1.439293 -0.04655,-2.916453 0.466797,-4.28711 0,0 0,-0.002 0,-0.002 0.01085,-0.02872 0.02209,-0.05954 0.0332,-0.08789 0.0056,-0.01451 0.01037,-0.02899 0.01563,-0.04297 0.488657,-1.428038 1.377354,-2.711652 2.675781,-3.722656 0.227839,-0.188448 0.465665,-0.371555 0.71875,-0.544922 0.703502,-0.472214 1.569861,-0.82832 2.492187,-1.056641 0.12152,-0.03428 0.242622,-0.06622 0.367188,-0.0957 0.533379,-0.111572 1.068593,-0.171563 1.597656,-0.185547 0.02597,-9.71e-4 0.05021,-0.0029 0.07617,-0.0039 0.09315,-0.0026 0.186332,-0.0039 0.279297,-0.0039 0.035,0 0.07055,-2.99e-4 0.105469,0 z"
         transform="matrix(0.26458333,0,0,0.26458333,-16.333351,61.527246)"
         id="path17973-2-83-5"
         inkscape:connector-curvature="0" />
    </g>
  </g>
</svg>
