<?xml version="1.0" encoding="UTF-8" standalone="no"?>
<!-- Created with Inkscape (http://www.inkscape.org/) -->

<svg
   xmlns:dc="http://purl.org/dc/elements/1.1/"
   xmlns:cc="http://creativecommons.org/ns#"
   xmlns:rdf="http://www.w3.org/1999/02/22-rdf-syntax-ns#"
   xmlns:svg="http://www.w3.org/2000/svg"
   xmlns="http://www.w3.org/2000/svg"
   xmlns:xlink="http://www.w3.org/1999/xlink"
   xmlns:sodipodi="http://sodipodi.sourceforge.net/DTD/sodipodi-0.dtd"
   xmlns:inkscape="http://www.inkscape.org/namespaces/inkscape"
   version="1.1"
   id="svg8077"
   width="80"
   height="80"
   viewBox="0 0 80 80"
   sodipodi:docname="ad.svg"
   inkscape:version="0.92.4 (5da689c313, 2019-01-14)">
  <metadata
     id="metadata8083">
    <rdf:RDF>
      <cc:Work
         rdf:about="">
        <dc:format>image/svg+xml</dc:format>
        <dc:type
           rdf:resource="http://purl.org/dc/dcmitype/StillImage" />
        <dc:title></dc:title>
      </cc:Work>
    </rdf:RDF>
  </metadata>
  <defs
     id="defs8081">
    <linearGradient
       id="linearGradient4172"
       inkscape:collect="always">
      <stop
         style="stop-color:#407ec9;stop-opacity:1"
         offset="0"
         id="stop4170" />
      <stop
         style="stop-color:#2cd5c4;stop-opacity:1;"
         offset="1"
         id="stop4168" />
    </linearGradient>
    <linearGradient
       inkscape:collect="always"
       xlink:href="#linearGradient4172"
       id="linearGradient10176"
       x1="184.61897"
       y1="198.80626"
       x2="274.39697"
       y2="198.80626"
       gradientUnits="userSpaceOnUse"
       gradientTransform="matrix(0.73447963,0,0,0.73447963,-128.56893,-120.84022)" />
    <linearGradient
       inkscape:collect="always"
       xlink:href="#linearGradient4172"
       id="linearGradient10184"
       x1="199.11877"
       y1="224.60378"
       x2="259.03055"
       y2="224.60378"
       gradientUnits="userSpaceOnUse"
       gradientTransform="matrix(0.73447963,0,0,0.73447963,-128.56893,-120.84022)" />
  </defs>
  <sodipodi:namedview
     pagecolor="#ffffff"
     bordercolor="#666666"
     borderopacity="1"
     objecttolerance="10"
     gridtolerance="10"
     guidetolerance="10"
     inkscape:pageopacity="0"
     inkscape:pageshadow="2"
     inkscape:window-width="1920"
     inkscape:window-height="1001"
     id="namedview8079"
     showgrid="false"
     fit-margin-top="0"
     fit-margin-left="0"
     fit-margin-right="0"
     fit-margin-bottom="0"
     inkscape:zoom="0.5034003"
     inkscape:cx="751.87164"
     inkscape:cy="-134.63196"
     inkscape:window-x="-9"
     inkscape:window-y="-9"
     inkscape:window-maximized="1"
     inkscape:current-layer="svg8077" />
  <circle
     id="Ellipse_130-7-1"
     data-name="Ellipse 130"
     cx="40"
     cy="40"
     r="40"
     style="fill:#e2e3db;fill-opacity:1" />
  <path
     style="fill:url(#linearGradient10184);fill-opacity:1;stroke-width:0.08874812"
     d="m 31.789617,22.385562 c -0.0735,0 -3.27835,3.14567 -7.12188,6.9903 l -6.98799,6.99013 v 6.61849 c 0,6.25009 0.01,6.65573 0.17143,7.28879 0.26559,1.03855 0.64891,1.70967 1.39882,2.44924 0.69812,0.68856 1.30047,1.03353 2.29025,1.31129 0.48013,0.13474 1.35049,0.15079 8.85122,0.16346 l 8.31857,0.014 0.7781,0.7502 c 3.21276,3.09812 6.46409,6.22561 9.43094,9.07172 1.04943,1.00675 1.95717,1.83243 2.01725,1.83477 0.0602,0.002 0.12773,-0.0857 0.1505,-0.19553 0.0228,-0.10982 0.0934,-2.70246 0.15703,-5.76134 0.0639,-3.0589 0.14565,-5.59139 0.18215,-5.62788 0.0367,-0.0365 1.634,-0.0741 3.54996,-0.0835 1.86227,-0.009 2.84515,-0.0183 3.4627,-0.0832 l 0.28704,-0.004 0.12537,-0.0588 c 0.36306,-0.0767 0.58156,-0.19666 0.89871,-0.38845 0.71465,-0.43221 1.20741,-0.97154 1.57803,-1.72712 l 0.32663,-0.66561 0.025,-5.6577 c 0.014,-3.11172 -0.007,-5.66241 -0.0441,-5.66809 -0.0382,-0.006 -2.79653,-0.0167 -6.12931,-0.0247 l -6.05967,-0.0148 -8.76146,-8.76111 c -3.97875,-3.97862 -7.36368,-7.32212 -8.47737,-8.3801 -0.0154,-0.0152 -0.37679,-0.37623 -0.37789,-0.37719 -6.6e-4,-5.9e-4 -0.0125,0.01 -0.0176,0.0137 -0.007,-0.004 -0.0206,-0.0175 -0.0228,-0.0175 z"
     id="path10107"
     inkscape:connector-curvature="0" />
  <path
     style="fill:url(#linearGradient10176);fill-opacity:1;stroke-width:0.08874812"
     d="m 28.816597,14.131992 -10.89337,10.8947 c -5.99129,5.99207 -10.8932798,10.92545 -10.8932798,10.96316 0,0.0378 0.0898,0.10475 0.1997,0.1489 0.29879,0.12011 6.1567798,0.11424 6.3955598,-0.007 0.10664,-0.0538 4.33717,-4.23708 9.40126,-9.29602 l 9.20744,-9.19808 9.16337,9.15337 c 5.03992,5.03434 9.2435,9.19097 9.34111,9.23691 0.13485,0.0635 21.75771,0.0971 22.16483,0.0345 0.0367,-0.006 0.0668,-0.067 0.0668,-0.13625 0,-0.12905 -21.15514,-21.35921 -21.56227,-21.63876 -0.0316,-0.0218 -0.0803,-0.0404 -0.16606,-0.0565 l -0.011,-0.0107 h -0.0499 c -0.57885,-0.0812 -2.62525,-0.0876 -11.18143,-0.0881 z"
     id="path10079"
     inkscape:connector-curvature="0" />
</svg>
