<?xml version="1.0" encoding="UTF-8" standalone="no"?>
<!-- Created with Inkscape (http://www.inkscape.org/) -->

<svg
   xmlns:dc="http://purl.org/dc/elements/1.1/"
   xmlns:cc="http://creativecommons.org/ns#"
   xmlns:rdf="http://www.w3.org/1999/02/22-rdf-syntax-ns#"
   xmlns:svg="http://www.w3.org/2000/svg"
   xmlns="http://www.w3.org/2000/svg"
   xmlns:sodipodi="http://sodipodi.sourceforge.net/DTD/sodipodi-0.dtd"
   xmlns:inkscape="http://www.inkscape.org/namespaces/inkscape"
   width="20.637499mm"
   height="20.637499mm"
   viewBox="0 0 20.637499 20.637499"
   version="1.1"
   id="svg8"
   inkscape:version="0.92.4 (5da689c313, 2019-01-14)"
   sodipodi:docname="Specialized centers.svg">
  <defs
     id="defs2">
    <filter
       filterUnits="userSpaceOnUse"
       height="37"
       width="36"
       y="21"
       x="22"
       id="Path_128">
      <feOffset
         id="feOffset949"
         input="SourceAlpha"
         dy="-1" />
      <feGaussianBlur
         id="feGaussianBlur951"
         result="blur" />
      <feFlood
         id="feFlood953"
         flood-opacity="0.102" />
      <feComposite
         result="result1"
         id="feComposite955"
         in2="blur"
         operator="in" />
      <feComposite
         id="feComposite957"
         in2="result1"
         in="SourceGraphic" />
    </filter>
  </defs>
  <sodipodi:namedview
     id="base"
     pagecolor="#ffffff"
     bordercolor="#666666"
     borderopacity="1.0"
     inkscape:pageopacity="0.0"
     inkscape:pageshadow="2"
     inkscape:zoom="1.979899"
     inkscape:cx="83.745722"
     inkscape:cy="26.976301"
     inkscape:document-units="mm"
     inkscape:current-layer="layer1"
     showgrid="false"
     fit-margin-top="0"
     fit-margin-left="0"
     fit-margin-right="0"
     fit-margin-bottom="0"
     inkscape:window-width="1536"
     inkscape:window-height="801"
     inkscape:window-x="-8"
     inkscape:window-y="-8"
     inkscape:window-maximized="1" />
  <metadata
     id="metadata5">
    <rdf:RDF>
      <cc:Work
         rdf:about="">
        <dc:format>image/svg+xml</dc:format>
        <dc:type
           rdf:resource="http://purl.org/dc/dcmitype/StillImage" />
        <dc:title></dc:title>
      </cc:Work>
    </rdf:RDF>
  </metadata>
  <g
     inkscape:label="Layer 1"
     inkscape:groupmode="layer"
     id="layer1"
     transform="translate(-166.5741,-219.40148)">
    <g
       id="g5635">
      <circle
         r="10.318749"
         cy="229.72023"
         cx="176.89285"
         data-name="Ellipse 78"
         id="Ellipse_78-8-6"
         style="fill:#f27070;stroke-width:0.26458332" />
      <path
         inkscape:connector-curvature="0"
         id="path1122"
         d="m 175.82742,223.94382 c -0.28834,0.008 -0.57304,0.13765 -0.76557,0.39934 -7.6e-4,7.5e-4 -0.002,0.002 -0.002,0.003 -0.008,0.0114 -0.0169,0.0224 -0.0248,0.0342 -0.0328,0.0469 -0.0618,0.0971 -0.0862,0.15077 -0.0153,0.0338 -0.0284,0.0684 -0.0394,0.10342 -0.10029,0.30029 -0.0453,0.6196 0.12007,0.86989 0.10785,0.1739 0.26392,0.31432 0.4552,0.38659 0.0473,0.0179 0.0978,0.031 0.14996,0.0406 0.009,0.002 0.0185,0.005 0.028,0.007 0.22831,0.0489 0.41542,0.031 0.6149,-0.064 0.0332,-0.0141 0.0645,-0.0307 0.0938,-0.0495 0.002,-7.5e-4 0.002,-0.002 0.004,-0.002 0.0647,-0.0326 0.12412,-0.0709 0.17574,-0.11475 l 0.0697,-0.0473 c 0.0351,-0.009 0.0572,0.0307 0.10592,0.14745 0.003,0.007 0.005,0.0134 0.008,0.0201 0.004,0.009 0.007,0.018 0.0105,0.0284 0.0213,0.0649 0.0384,0.15088 0.0489,0.23412 0.004,0.085 -0.005,0.18661 -0.0289,0.31939 -0.0964,0.39883 -0.35794,1.307 -0.60687,2.13027 -0.30266,0.97705 -0.46481,1.45108 -0.61851,1.70948 -0.11115,0.12716 -0.2743,0.28746 -0.37495,0.36814 -0.0322,0.0208 -0.0638,0.0411 -0.0845,0.052 -0.0177,-0.003 -0.10042,-0.0603 -0.19459,-0.13402 -0.0167,-0.0147 -0.0357,-0.0291 -0.056,-0.0432 -0.089,-0.0684 -0.17186,-0.11241 -0.26702,-0.13923 -0.0805,-0.0301 -0.1658,-0.0425 -0.27355,-0.0425 -7.5e-4,0 -0.002,1e-4 -0.002,1e-4 -7.6e-4,0 -0.002,-1e-4 -0.002,-1e-4 -0.0227,0 -0.0454,0.002 -0.0682,0.003 -0.17227,-7e-5 -0.28964,0.0369 -0.4197,0.13171 -0.0476,0.0303 -0.0915,0.0661 -0.13091,0.10703 -0.005,0.005 -0.01,0.009 -0.0138,0.0129 l -0.14686,0.13271 c -0.0223,7.5e-4 -0.0485,-0.008 -0.0855,-0.0258 l -0.12067,-0.0848 c -0.0297,-0.0208 -0.057,-0.0412 -0.0834,-0.0616 -0.0392,-0.0324 -0.0798,-0.0703 -0.11896,-0.10964 -0.008,-0.008 -0.0147,-0.0146 -0.022,-0.0221 -0.0138,-0.0144 -0.0261,-0.0287 -0.0391,-0.0431 -1.6e-4,-1.8e-4 -3.9e-4,-3.9e-4 -5.8e-4,-5.9e-4 -0.0659,-0.0827 -0.12728,-0.18685 -0.1939,-0.33684 -0.12764,-0.33323 -0.35446,-1.00939 -0.58712,-1.75742 -0.5864,-1.88543 -0.62813,-2.10837 -0.46503,-2.48668 l 0.0387,-0.0898 0.0205,-0.0398 c 0.0264,-0.0156 0.069,-0.005 0.13742,0.0336 l 0.0401,0.0385 c 0.26058,0.24966 0.6548,0.30827 0.99827,0.18346 0.15179,-0.0447 0.2812,-0.12455 0.3889,-0.23994 0.0251,-0.0258 0.0487,-0.0532 0.0708,-0.0824 0.0252,-0.0333 0.0481,-0.0683 0.0691,-0.10452 0.0427,-0.0675 0.076,-0.13755 0.10061,-0.20914 0.0199,-0.0566 0.0344,-0.11346 0.0424,-0.17073 1.4e-4,-7.5e-4 3.9e-4,-0.002 5.9e-4,-0.003 1e-5,-1.3e-4 -3e-5,-2e-4 0,-3.9e-4 3.8e-4,-0.003 7.5e-4,-0.006 0.002,-0.009 0.0707,-0.51219 -0.27212,-1.03749 -0.86437,-1.11625 -0.07,-0.0119 -0.13957,-0.0141 -0.21065,-0.006 -0.2546,0.0106 -0.47987,0.11402 -0.6481,0.2915 -0.14095,0.13572 -0.24263,0.30928 -0.27917,0.50405 -0.008,0.0386 -0.0236,0.0855 -0.0456,0.13422 -7.6e-4,0.002 -0.002,0.004 -0.002,0.005 -0.006,0.0125 -0.012,0.0252 -0.0184,0.0378 -0.0143,0.0274 -0.0289,0.0542 -0.0435,0.0774 -0.0171,0.0271 -0.0343,0.0504 -0.0502,0.068 -0.0181,0.02 -0.0409,0.0508 -0.0655,0.0859 -0.1436,0.17156 -0.23402,0.33695 -0.28498,0.53575 -0.036,0.10978 -0.0485,0.22026 -0.0514,0.40315 -0.002,0.0347 -0.003,0.0682 -0.003,0.10512 -7.6e-4,0.4116 0.0308,0.53929 0.55511,2.2341 0.13193,0.42643 0.26001,0.82324 0.37235,1.16118 0.012,0.0368 0.0219,0.0665 0.0333,0.10111 0.012,0.0357 0.0247,0.0745 0.0361,0.10824 0.0834,0.25125 0.15029,0.44584 0.17314,0.49543 0.004,0.008 0.008,0.0152 0.0113,0.0227 0.0214,0.0545 0.0395,0.0982 0.0499,0.11615 0.15183,0.262 0.56355,0.64931 0.8404,0.79054 0.14966,0.0764 0.19709,0.11846 0.20894,0.20724 7.5e-4,0.0132 0.002,0.0269 0.002,0.0425 1.9e-4,0.0171 0.002,0.0345 0.004,0.0523 0.0135,0.22289 0.15226,0.46701 0.35248,0.6142 0.0725,0.0533 0.10532,0.0759 0.13904,0.0994 0.0297,0.0285 0.0536,0.0588 0.0707,0.0896 0.0171,0.0685 0.0472,0.20346 0.0798,0.36142 0.0798,0.3865 0.21989,0.74762 0.41027,1.07421 0.002,0.003 0.003,0.005 0.005,0.008 0.0164,0.028 0.0331,0.0557 0.0502,0.0831 0.005,0.008 0.0105,0.0165 0.0157,0.0247 0.0148,0.0233 0.0296,0.0464 0.0449,0.0693 0.009,0.0128 0.0175,0.0256 0.0263,0.0383 0.0122,0.0178 0.0242,0.0356 0.0368,0.053 0.0234,0.0328 0.0474,0.0657 0.0724,0.0987 0.0451,0.0595 0.0944,0.11787 0.14595,0.17544 0.002,0.002 0.005,0.005 0.007,0.008 0.0168,0.0187 0.0338,0.0373 0.0513,0.0557 0.13211,0.14244 0.27617,0.27368 0.43083,0.39251 0.27318,0.20988 0.57917,0.38103 0.91162,0.50556 0.14665,0.0575 0.29413,0.10419 0.43956,0.13723 0.0682,0.0155 0.14145,0.0279 0.21807,0.0378 0.45694,0.0708 0.93991,0.0409 1.41056,-0.0842 0.002,-3.8e-4 0.003,-7.5e-4 0.005,-0.002 0.0721,-0.0177 0.14157,-0.0376 0.20704,-0.0594 0.0591,-0.0196 0.11693,-0.0413 0.17433,-0.0638 0.0365,-0.0143 0.0728,-0.0291 0.10864,-0.0446 0.0619,-0.0261 0.12345,-0.0532 0.18426,-0.0828 0.22374,-0.10853 0.37446,-0.19994 0.54529,-0.34286 0.29769,-0.22676 0.55436,-0.49943 0.76195,-0.80689 0.34444,-0.47153 0.51707,-0.96235 0.57508,-1.59483 0.005,-0.0449 0.008,-0.09 0.0112,-0.13541 l 0.0273,-0.42702 0.005,-0.0754 0.15167,-0.0511 0.13923,-0.043 c 0.12095,-0.0374 0.22384,-0.0773 0.31879,-0.12348 0.0588,-0.0268 0.11291,-0.0533 0.14895,-0.0756 0.10778,-0.0666 0.22961,-0.17262 0.34738,-0.29561 0.0565,-0.0549 0.10984,-0.11249 0.15919,-0.17293 5.8e-4,-5.8e-4 7.6e-4,-0.002 0.002,-0.002 1.9e-4,-1.9e-4 3.9e-4,-3.9e-4 5.8e-4,-7.6e-4 0.10456,-0.1232 0.18669,-0.24397 0.24968,-0.37094 0.0146,-0.0267 0.0283,-0.053 0.0403,-0.0786 0.0849,-0.18107 0.11795,-0.28646 0.1304,-0.48891 0.0294,-0.18711 0.0314,-0.38085 0.004,-0.57657 -0.007,-0.20305 -0.0307,-0.30676 -0.0993,-0.46033 -0.0485,-0.13733 -0.11742,-0.26349 -0.21255,-0.3913 -0.15633,-0.23221 -0.35391,-0.42934 -0.58551,-0.58371 -0.12583,-0.0927 -0.25031,-0.16001 -0.3857,-0.20754 -0.14604,-0.065 -0.24503,-0.0895 -0.42811,-0.0974 -0.0538,-0.008 -0.10803,-0.0121 -0.16261,-0.0149 -0.13571,-0.009 -0.27339,-0.005 -0.41147,0.0156 -0.18002,0.008 -0.28028,0.0325 -0.4224,0.0944 -0.13927,0.0475 -0.26619,0.11522 -0.39221,0.20774 -0.40169,0.26386 -0.66816,0.63241 -0.80429,1.0363 -0.12418,0.33332 -0.14873,0.68577 -0.0709,1.04131 0.11034,0.58979 0.47571,1.13325 1.08414,1.42882 0.11397,0.0594 0.23023,0.10517 0.34547,0.13321 l 0.23774,0.0743 -0.002,0.37747 c -7.5e-4,0.16797 -0.0128,0.31721 -0.0383,0.46112 -0.0189,0.0907 -0.0417,0.18154 -0.0668,0.27114 -0.0502,0.15982 -0.1205,0.32328 -0.21636,0.50917 -0.0815,0.158 -0.17545,0.3051 -0.27997,0.44096 -0.0455,0.0542 -0.0929,0.10817 -0.14003,0.15929 -0.0375,0.0401 -0.076,0.0795 -0.11495,0.11847 -0.14664,0.1445 -0.30353,0.27097 -0.46855,0.37887 -0.40384,0.25544 -0.87514,0.41376 -1.38247,0.44227 -0.0255,0.002 -0.0509,0.002 -0.0764,0.003 -0.0132,3.9e-4 -0.0264,7.5e-4 -0.0397,7.5e-4 -0.33744,0.004 -0.68288,-0.0508 -1.02335,-0.16862 -0.009,-0.003 -0.0173,-0.006 -0.0258,-0.009 -0.0625,-0.0224 -0.1242,-0.0476 -0.18507,-0.0752 -0.13876,-0.0669 -0.27769,-0.14776 -0.421,-0.24495 -0.0752,-0.051 -0.14753,-0.1062 -0.21758,-0.16462 -0.0123,-0.0105 -0.0248,-0.0208 -0.0369,-0.0316 -0.43317,-0.38254 -0.76433,-0.90196 -0.90941,-1.46431 -0.0257,-0.0994 -0.0443,-0.17542 -0.0566,-0.23774 -0.009,-0.0588 -0.0142,-0.10252 -0.0153,-0.13752 0.008,-0.0385 0.0216,-0.0724 0.0428,-0.10402 l 0.0523,-0.0505 c 0.0194,-0.0133 0.0418,-0.0269 0.0676,-0.0421 0.0653,-0.0385 0.13008,-0.10387 0.18798,-0.18257 0.0149,-0.0195 0.0287,-0.04 0.0419,-0.0613 0.0102,-0.0159 0.0199,-0.0323 0.0294,-0.0489 0.0458,-0.0616 0.0705,-0.11874 0.0879,-0.1923 0.0285,-0.082 0.0455,-0.16311 0.0455,-0.23452 0,-7.5e-4 1e-4,-0.002 1e-4,-0.002 0.0304,-0.10917 0.0736,-0.16905 0.19319,-0.26001 0.1729,-0.0921 0.33127,-0.21203 0.47216,-0.3575 0.0539,-0.0516 0.10353,-0.10798 0.15057,-0.17283 0.01,-0.0131 0.0194,-0.0255 0.0288,-0.0394 0.0156,-0.0211 0.0316,-0.0418 0.0466,-0.0637 0.0325,-0.0471 0.0643,-0.10251 0.0986,-0.17324 0.004,-0.007 0.008,-0.0139 0.0113,-0.0204 0.006,-0.0117 0.0159,-0.0367 0.0257,-0.0612 1.5e-4,-3.9e-4 4e-4,-0.002 5.9e-4,-0.002 0.004,-0.009 0.006,-0.0135 0.01,-0.0242 0.0837,-0.19607 0.18892,-0.49929 0.35008,-1.00721 0.0765,-0.23812 0.16164,-0.50963 0.26161,-0.83177 0.29227,-0.94186 0.43587,-1.42141 0.50677,-1.72482 0.0421,-0.15374 0.0729,-0.27184 0.0784,-0.30956 0.0157,-0.10718 0.011,-0.23438 -0.01,-0.36854 -0.008,-0.10346 -0.0285,-0.19444 -0.0616,-0.28769 -0.0422,-0.15857 -0.10997,-0.30463 -0.20513,-0.4518 -0.0109,-0.0179 -0.0217,-0.0357 -0.0331,-0.0529 -0.0839,-0.1267 -0.17004,-0.30318 -0.20915,-0.42381 -9e-5,-5.9e-4 -3.8e-4,-0.002 -3.8e-4,-0.002 -0.0101,-0.0548 -0.0267,-0.11171 -0.0483,-0.16882 -0.0448,-0.13307 -0.1107,-0.2485 -0.1924,-0.34476 -0.0664,-0.0861 -0.13973,-0.15804 -0.21236,-0.20293 -0.13088,-0.0809 -0.27431,-0.1277 -0.41949,-0.14394 -0.0582,-0.008 -0.117,-0.0127 -0.17574,-0.0111 z m 4.78868,4.93916 c 0.1475,1.8e-4 0.2986,0.0283 0.41097,0.0808 0.0137,0.008 0.0272,0.0158 0.04,0.0245 0.0656,0.0446 0.12336,0.0936 0.17383,0.14545 0.0915,0.0966 0.15724,0.2049 0.19731,0.31828 0.003,0.008 0.006,0.0168 0.009,0.0251 0,3e-5 -2e-5,7e-5 0,1e-4 0,3e-5 -2e-5,7e-5 0,10e-5 0.067,0.21917 0.0411,0.45612 -0.0773,0.66194 -0.004,0.007 -0.008,0.0132 -0.0118,0.0198 -0.002,0.003 -0.004,0.006 -0.005,0.009 -0.0184,0.0287 -0.0387,0.0568 -0.0611,0.0841 -0.0609,0.0725 -0.13552,0.13997 -0.22388,0.20012 v -1e-4 c -0.0135,0.009 -0.0275,0.0176 -0.0419,0.0257 -7e-5,4e-5 -1.4e-4,6e-5 -2e-4,1e-4 -0.17906,0.082 -0.45894,0.10114 -0.66114,0.047 -0.0679,-0.024 -0.13413,-0.0557 -0.19651,-0.0962 -0.0796,-0.0584 -0.16671,-0.14011 -0.22128,-0.21166 -0.0283,-0.0372 -0.0511,-0.0701 -0.0692,-0.10271 -0.002,-0.002 -0.002,-0.004 -0.003,-0.006 -0.008,-0.0138 -0.0142,-0.0276 -0.0202,-0.0418 -0.0149,-0.0431 -0.0269,-0.0905 -0.0353,-0.14104 -0.007,-0.0555 -0.01,-0.12034 -0.01,-0.20503 0,-0.0868 0.003,-0.15229 0.0101,-0.20835 0.007,-0.0391 0.0153,-0.0765 0.0259,-0.11134 0.0221,-0.0621 0.0566,-0.11784 0.11204,-0.19049 0.0665,-0.0871 0.17794,-0.18358 0.27194,-0.23944 0.10089,-0.0498 0.21648,-0.076 0.36252,-0.0862 0.009,-5.8e-4 0.0166,-7.5e-4 0.0253,-0.002 z"
         style="fill:#ffffff;fill-opacity:1;stroke-width:0.05135856" />
    </g>
  </g>
  <style
     id="style815"
     type="text/css">
	.st0{fill:#7796C9;}
	.st1{opacity:0.1;}
	.st2{fill:#FFFFFF;}
</style>
</svg>
