<?xml version="1.0" encoding="UTF-8" standalone="no"?>
<!-- Generator: Adobe Illustrator 24.2.1, SVG Export Plug-In . SVG Version: 6.00 Build 0)  -->

<svg
   xmlns:dc="http://purl.org/dc/elements/1.1/"
   xmlns:cc="http://creativecommons.org/ns#"
   xmlns:rdf="http://www.w3.org/1999/02/22-rdf-syntax-ns#"
   xmlns:svg="http://www.w3.org/2000/svg"
   xmlns="http://www.w3.org/2000/svg"
   xmlns:sodipodi="http://sodipodi.sourceforge.net/DTD/sodipodi-0.dtd"
   xmlns:inkscape="http://www.inkscape.org/namespaces/inkscape"
   version="1.1"
   id="Colleges_Universities_"
   x="0px"
   y="0px"
   viewBox="0 0 80 80"
   xml:space="preserve"
   sodipodi:docname="Banks &amp; Credit Unions.svg"
   width="80"
   height="80"
   inkscape:version="0.92.4 (5da689c313, 2019-01-14)"><metadata
   id="metadata17147"><rdf:RDF><cc:Work
       rdf:about=""><dc:format>image/svg+xml</dc:format><dc:type
         rdf:resource="http://purl.org/dc/dcmitype/StillImage" /><dc:title></dc:title></cc:Work></rdf:RDF></metadata><defs
   id="defs17145" /><sodipodi:namedview
   pagecolor="#ffffff"
   bordercolor="#666666"
   borderopacity="1"
   objecttolerance="10"
   gridtolerance="10"
   guidetolerance="10"
   inkscape:pageopacity="0"
   inkscape:pageshadow="2"
   inkscape:window-width="1920"
   inkscape:window-height="1001"
   id="namedview17143"
   showgrid="false"
   fit-margin-top="0"
   fit-margin-left="0"
   fit-margin-right="0"
   fit-margin-bottom="0"
   inkscape:zoom="5.9"
   inkscape:cx="60.887455"
   inkscape:cy="7.0135008"
   inkscape:window-x="-9"
   inkscape:window-y="-9"
   inkscape:window-maximized="1"
   inkscape:current-layer="Colleges_Universities_" />
<style
   type="text/css"
   id="style17129">
	.st0{fill:#7796C9;}
	.st1{opacity:0.1;}
	.st2{fill:#FFFFFF;}
</style>


<g
   id="g18476"><circle
     r="40"
     cy="40"
     cx="40"
     data-name="Ellipse 4"
     id="Ellipse_4"
     style="fill:#848fa6" /><g
     transform="translate(-9313,-11574)"
     data-name="Group 18"
     id="Group_18"><g
       style="opacity:0.1;isolation:isolate;mix-blend-mode:multiply"
       data-name="Group 15"
       id="Group_15"><path
         d="m 9349,11608.063 c -1.365,2.184 0.111,3.314 2,3.96 v -5.132 a 3,3 0 0 0 -2,1.172 z"
         data-name="Path 19"
         id="Path_19"
         inkscape:connector-curvature="0" /><path
         d="m 9355,11616.866 v 5.228 a 4.077,4.077 0 0 0 2.471,-1.217 2.089,2.089 0 0 0 -0.149,-2.812 6.342,6.342 0 0 0 -2.322,-1.199 z"
         data-name="Path 20"
         id="Path_20"
         inkscape:connector-curvature="0" /><path
         d="m 9375,11599 -20,-8 h -4 l -20,8 v 4 h 9 l -5,1 v 22 l 5,1 h -9 v 4 h 44 v -4 h -9 l 5,-1 v -22 l -5,-1 h 9 z m -16.65,26.125 A 13.82,13.82 0 0 1 9355,11626 v 1 h -4 v -1 c -3.867,-0.472 -7.5,-2.418 -8.36,-6 h 5.269 a 0.609,0.609 0 0 1 0.023,0.06 3.9,3.9 0 0 0 3.068,2.085 v -6.159 c -0.442,-0.08 -0.869,-0.169 -1.25,-0.269 -2.7,-0.7 -5.48,-1.549 -6.134,-4.644 a 5.67,5.67 0 0 1 1.947,-5.437 c 1.535,-1.144 3.593,-1.4 5.437,-1.64 v -2 h 4 v 2 c 3.772,0.447 7.4,1.806 7.813,6 h -5.057 a 3.207,3.207 0 0 0 -2.757,-3.053 v 5.952 c 0.063,0.01 0.135,0.03 0.188,0.04 2.864,0.53 6.882,1.912 7.5,5.125 0.652,3.39 -1.235,5.892 -4.337,7.063 z"
         data-name="Path 21"
         id="Path_21"
         inkscape:connector-curvature="0" /></g><g
       data-name="Group 17"
       id="Group_17"><g
         data-name="Group 16"
         id="Group_16"><path
           d="m 9349,11609.063 c -1.365,2.184 0.111,3.314 2,3.96 v -5.132 a 3,3 0 0 0 -2,1.172 z"
           data-name="Path 22"
           id="Path_22"
           inkscape:connector-curvature="0"
           style="fill:#ffffff" /><path
           d="m 9355,11617.866 v 5.228 a 4.077,4.077 0 0 0 2.471,-1.217 2.089,2.089 0 0 0 -0.149,-2.812 6.342,6.342 0 0 0 -2.322,-1.199 z"
           data-name="Path 23"
           id="Path_23"
           inkscape:connector-curvature="0"
           style="fill:#ffffff" /><path
           d="m 9375,11600 -20,-8 h -4 l -20,8 v 4 h 9 l -5,1 v 22 l 5,1 h -9 v 4 h 44 v -4 h -9 l 5,-1 v -22 l -5,-1 h 9 z m -16.65,26.125 A 13.82,13.82 0 0 1 9355,11627 v 1 h -4 v -1 c -3.867,-0.472 -7.5,-2.418 -8.36,-6 h 5.269 a 0.609,0.609 0 0 1 0.023,0.06 3.9,3.9 0 0 0 3.068,2.085 v -6.159 c -0.442,-0.08 -0.869,-0.169 -1.25,-0.269 -2.7,-0.7 -5.48,-1.549 -6.134,-4.644 a 5.67,5.67 0 0 1 1.947,-5.437 c 1.535,-1.144 3.593,-1.4 5.437,-1.64 v -2 h 4 v 2 c 3.772,0.447 7.4,1.806 7.813,6 h -5.057 a 3.207,3.207 0 0 0 -2.757,-3.053 v 5.952 c 0.063,0.01 0.135,0.03 0.188,0.04 2.864,0.53 6.882,1.912 7.5,5.125 0.652,3.39 -1.235,5.892 -4.337,7.063 z"
           data-name="Path 24"
           id="Path_24"
           inkscape:connector-curvature="0"
           style="fill:#ffffff" /></g></g></g></g></svg>