<?xml version="1.0" encoding="UTF-8" standalone="no"?>
<svg
   xmlns:dc="http://purl.org/dc/elements/1.1/"
   xmlns:cc="http://creativecommons.org/ns#"
   xmlns:rdf="http://www.w3.org/1999/02/22-rdf-syntax-ns#"
   xmlns:svg="http://www.w3.org/2000/svg"
   xmlns="http://www.w3.org/2000/svg"
   xmlns:xlink="http://www.w3.org/1999/xlink"
   xmlns:sodipodi="http://sodipodi.sourceforge.net/DTD/sodipodi-0.dtd"
   xmlns:inkscape="http://www.inkscape.org/namespaces/inkscape"
   id="airport"
   width="78"
   height="78"
   viewBox="0 0 78.000001 78"
   version="1.1"
   sodipodi:docname="property.svg"
   inkscape:version="0.92.4 (5da689c313, 2019-01-14)">
  <metadata
     id="metadata10416">
    <rdf:RDF>
      <cc:Work
         rdf:about="">
        <dc:format>image/svg+xml</dc:format>
        <dc:type
           rdf:resource="http://purl.org/dc/dcmitype/StillImage" />
        <dc:title></dc:title>
      </cc:Work>
    </rdf:RDF>
  </metadata>
  <sodipodi:namedview
     pagecolor="#ffffff"
     bordercolor="#666666"
     borderopacity="1"
     objecttolerance="10"
     gridtolerance="10"
     guidetolerance="10"
     inkscape:pageopacity="0"
     inkscape:pageshadow="2"
     inkscape:window-width="1920"
     inkscape:window-height="1001"
     id="namedview10414"
     showgrid="false"
     fit-margin-top="0"
     fit-margin-left="0"
     fit-margin-right="0"
     fit-margin-bottom="0"
     inkscape:zoom="4.17193"
     inkscape:cx="53.79619"
     inkscape:cy="27.601156"
     inkscape:window-x="-9"
     inkscape:window-y="-9"
     inkscape:window-maximized="1"
     inkscape:current-layer="airport" />
  <defs
     id="defs10407">
    <filter
       id="Path_29"
       x="19.5"
       y="18"
       width="40.375"
       height="42.625"
       filterUnits="userSpaceOnUse">
      <feOffset
         dy="-1"
         input="SourceAlpha"
         id="feOffset10396" />
      <feGaussianBlur
         result="blur"
         id="feGaussianBlur10398" />
      <feFlood
         flood-opacity="0.102"
         id="feFlood10400" />
      <feComposite
         operator="in"
         in2="blur"
         id="feComposite10402"
         result="result1" />
      <feComposite
         in="SourceGraphic"
         in2="result1"
         id="feComposite10404" />
    </filter>
    <linearGradient
       id="linearGradient4172"
       inkscape:collect="always">
      <stop
         style="stop-color:#407ec9;stop-opacity:1"
         offset="0"
         id="stop4170" />
      <stop
         style="stop-color:#2cd5c4;stop-opacity:1;"
         offset="1"
         id="stop4168" />
    </linearGradient>
    <linearGradient
       inkscape:collect="always"
       xlink:href="#linearGradient4172"
       id="linearGradient7402"
       x1="0"
       y1="39"
       x2="78"
       y2="39"
       gradientUnits="userSpaceOnUse" />
    <linearGradient
       inkscape:collect="always"
       xlink:href="#linearGradient4172"
       id="linearGradient7404"
       gradientUnits="userSpaceOnUse"
       x1="0"
       y1="39"
       x2="78"
       y2="39" />
  </defs>
  <g
     id="g4988-5-9-0"
     style="fill:url(#linearGradient7402);fill-opacity:1">
    <circle
       id="Ellipse_78-4-6-4"
       data-name="Ellipse 78"
       cx="39"
       cy="39"
       r="39"
       style="fill:url(#linearGradient7404);fill-opacity:1" />
  </g>
  <g
     id="g7386"
     transform="matrix(1.2231917,0,0,1.2231917,135.75454,13.24275)">
    <path
       inkscape:connector-curvature="0"
       id="path1174-3-4"
       d="m -87.099163,2.3626435 c -0.0076,0 -0.05631,0.01928 -0.117165,0.04547 -0.168945,0.05949 -0.470778,0.202923 -1.10143,0.508089 -0.522595,0.252851 -1.160995,0.561101 -1.418608,0.684809 -0.797367,0.382851 -3.699779,1.772829 -4.193499,2.008392 -0.257386,0.122948 -0.749745,0.358677 -1.093266,0.523884 -0.343559,0.165241 -0.82526,0.395134 -1.070627,0.510811 -0.241512,0.113801 -0.460271,0.233839 -0.49474,0.270916 l -0.04044,0.02041 -0.0031,0.255988 c -0.01134,0.178393 -0.0189,0.442662 -0.0189,0.815505 -0.0031,0.564132 -0.0076,1.050584 -0.0031,1.081258 v 0 c 0.0019,0.02721 0.0189,0.04981 0.04195,0.05412 0,5.7e-5 0,0.0013 0,0.0013 3.8e-5,0 0.0019,-8.28e-4 0.0019,-8.28e-4 0.0019,2.8e-4 0.0031,0.0011 0.0076,0.0011 0.05707,0 0.709228,-0.297486 2.006249,-0.915163 0.552038,-0.262904 1.124069,-0.533628 1.271282,-0.601753 0.174614,-0.08085 0.639761,-0.299944 1.043679,-0.488761 0.08542,-0.04003 0.103559,-0.04819 0.18822,-0.08825 0.930747,-0.435372 1.993323,-0.931507 2.292662,-1.073908 0.269858,-0.12839 0.98245,-0.463049 1.58366,-0.743614 0.244913,-0.114369 0.465524,-0.221632 0.65537,-0.31612 0.07861,-0.0378 0.147401,-0.06985 0.225638,-0.107263 l 0.278929,-0.133984 v -0.04713 c 0.03024,-0.07453 0.04498,-0.280328 0.04498,-0.645317 0,-0.282557 0.01134,-0.519855 0.03024,-0.578887 0.02268,-0.0049 0.06841,0.0064 0.135685,0.02684 0.06614,0.02494 0.151559,0.05885 0.241134,0.09638 0.181418,0.07604 0.741014,0.304781 1.244032,0.508369 0.503017,0.203641 1.46657,0.600049 2.141329,0.881118 1.03423,0.430824 1.656227,0.685383 2.037997,0.832384 0.216945,0.08636 0.406186,0.159874 0.443565,0.168529 0.05405,0.01247 0.09524,0.0031 0.118299,-0.02154 0.03855,-0.0257 0.04044,-0.06093 0.0076,-0.104277 0,-6.99e-4 0,-0.0013 0,-0.0019 -0.0012,-0.0029 -0.0076,-0.0076 -0.0076,-0.01096 -0.0076,-0.0057 -0.0076,-0.0098 -0.01134,-0.01587 -0.0076,-0.0064 -0.01134,-0.01323 -0.02268,-0.02003 -0.07068,-0.06403 -0.194649,-0.141092 -0.378069,-0.231687 -0.165544,-0.08194 -0.389141,-0.199219 -0.496668,-0.260561 -0.107339,-0.06138 -0.4464,-0.241776 -0.753109,-0.400804 -0.306898,-0.159042 -0.939137,-0.489683 -1.405304,-0.734906 -0.466167,-0.245216 -1.108611,-0.582391 -1.427603,-0.749065 -0.318992,-0.166677 -0.840983,-0.440946 -1.159899,-0.609649 -0.31937,-0.168718 -0.625739,-0.330104 -0.681865,-0.358601 -0.03402,-0.01852 -0.06841,-0.02872 -0.117165,-0.02494 -0.0019,-4.61e-4 -0.02268,-0.0098 -0.02268,-0.0098 z"
       style="fill:#ffffff;fill-opacity:1;stroke-width:0.04461169" />
    <path
       inkscape:connector-curvature="0"
       id="path1172-6-5"
       d="m -87.043377,6.3331465 c -3.7e-5,0 -0.0019,8.24e-4 -0.0019,8.24e-4 0,-1.5e-5 -0.0019,-5.59e-4 -0.0019,-5.59e-4 -0.06312,0 -0.338268,0.118261 -1.975484,0.847087 -0.453938,0.202129 -1.36745,0.608749 -2.029925,0.903726 -0.662476,0.294992 -1.354923,0.601255 -1.538948,0.680447 -0.183685,0.07914 -0.605707,0.264832 -0.936945,0.412521 -0.331087,0.147704 -1.058533,0.470986 -1.616277,0.718567 -0.453619,0.2013355 -0.734665,0.3285545 -0.947339,0.4277635 -0.190866,0.08364 -0.32126,0.14468 -0.384227,0.19113 -0.05291,0.03175 -0.08391,0.05522 -0.09638,0.07408 -0.01134,0.01625 -0.0189,0.229266 -0.02646,0.50727 -0.0013,0.03288 0,0.07918 -0.0013,0.11467 -0.0031,0.168454 -0.0076,0.328706 -0.0076,0.532048 0,0.02305 0,0.03742 0,0.05934 -3.8e-5,0.0189 0,0.03288 0,0.05174 0,0.04293 0.0013,0.06871 0.0013,0.110287 0.0013,0.169247 0.0031,0.312983 0.0076,0.43076 0.0076,0.256479 0.01134,0.451726 0.02268,0.451726 0,0 0.01134,-0.0053 0.01134,-0.0057 0.0012,0.0013 0.0031,0.0057 0.0031,0.0057 0.02646,0 0.181795,-0.05722 0.345449,-0.126879 0.447836,-0.190867 0.871974,-0.366766 1.903558,-0.790179 0.515263,-0.211541 1.278123,-0.525506 1.695232,-0.697879 0.417109,-0.172384 0.828699,-0.339817 0.914646,-0.371943 0.266078,-0.09948 3.11966,-1.2798345 4.084308,-1.6868255 0.191245,-0.07722 0.330331,-0.131603 0.421493,-0.17862 l 0.0019,-0.0011 0.198425,-0.09472 0.0446,-0.67691 c 0.02646,-0.372321 0.05556,-0.687953 0.06916,-0.701136 0.02646,-0.02872 0.205984,0.02532 1.135408,0.350702 0.392617,0.137272 1.005165,0.348586 1.360932,0.469689 0.355654,0.121134 1.268976,0.433864 2.029644,0.694885 1.821241,0.62501 1.666847,0.578174 1.723011,0.521976 0.0031,-0.0038 0.0076,-0.0076 0.0076,-0.01134 0.01134,-0.0072 0.0189,-0.01739 0.02268,-0.03099 0.01134,-0.02721 0.01134,-0.05563 -0.0076,-0.08712 0,-6.96e-4 0,-0.0011 0,-0.0019 -0.01509,-0.04381 -0.06649,-0.08788 -0.283435,-0.199598 -0.120945,-0.06539 -0.279307,-0.142752 -0.49149,-0.241512 -0.410192,-0.190715 -0.876283,-0.412089 -1.035817,-0.491754 -0.159874,-0.07967 -0.78206,-0.375194 -1.383194,-0.656757 -1.106079,-0.518075 -1.441965,-0.676577 -2.560328,-1.208685 -0.305007,-0.145096 -0.57222,-0.261355 -0.652648,-0.285355 -0.0076,-0.0021 -0.02646,-0.0098 -0.02646,-0.0098 z"
       style="fill:#ffffff;fill-opacity:1;stroke-width:0.04461169" />
    <path
       inkscape:connector-curvature="0"
       id="path1170-6-6"
       d="m -71.919106,8.4589045 c -0.07143,-0.0072 -0.207496,0.01965 -0.470815,0.08874 -0.253607,0.06667 -0.486652,0.140107 -0.517342,0.163389 0,4.16e-4 -0.0013,0.0045 -0.0019,0.0057 -0.0012,4.16e-4 -0.0076,0.0023 -0.0076,0.0027 -0.0076,0.0038 -0.01134,0.13062 -0.0189,0.326211 0,0.0189 -0.0013,0.04482 -0.0019,0.06535 -0.0019,0.08149 -0.0031,0.225146 -0.0076,0.333845 -0.0189,0.9086515 -0.02268,2.8404855 -0.02268,6.8676475 0,0.0068 0,0.01096 0,0.01776 0,0.0016 0,0.0025 0,0.0042 v 7.578044 0.0025 l 0.163275,0.06811 c 0.08957,0.0378 0.305764,0.105411 0.479433,0.150879 v 5.59e-4 c 0.121701,0.03213 0.244536,0.05688 0.326174,0.06807 0.03402,0.0057 0.06501,0.0087 0.07937,0.0079 0.02268,-0.0025 0.03893,-0.0064 0.0514,-0.132851 0,-1.13e-4 0,-4.19e-4 0,-5.55e-4 0.0076,-0.06316 0.01134,-0.157115 0.0189,-0.296542 0,-6.1e-5 0,-1.4e-4 0,-2.76e-4 0.0076,-0.139654 0.0076,-0.325002 0.01134,-0.57126 0.01134,-0.985063 0.01512,-2.944286 0.0189,-6.844502 0.0076,-5.940631 0.0013,-7.5422095 -0.03855,-7.8310035 -0.0031,-0.0291 -0.0076,-0.04985 -0.0076,-0.05284 -0.0013,-6.95e-4 -0.0019,-8.24e-4 -0.0032,-0.0013 0,-2.83e-4 0,-0.0015 0,-0.0016 -0.01134,-0.0095 -0.02646,-0.01587 -0.05178,-0.01814 z"
       style="fill:#ffffff;fill-opacity:1;stroke-width:0.04461169" />
    <path
       inkscape:connector-curvature="0"
       id="path1168-5-1"
       d="m -71.246879,8.6135585 c -0.01512,0.0031 -0.02268,0.02116 -0.02268,0.05068 -0.0031,0.09581 -0.0076,0.672737 -0.0076,1.4161665 -0.04687,3.774924 -0.04951,14.07626 0.01512,14.129294 0.0019,0.0018 0.0189,0.0079 0.02646,0.01134 3.7e-5,3e-5 0,0.0038 0,0.0038 0.0189,0.01512 0.213165,0.08394 0.434343,0.15273 0.02646,0.0083 0.06992,0.02154 0.100913,0.03137 0.12737,0.04192 0.242268,0.08088 0.389896,0.127181 0.490734,0.153487 1.063068,0.334489 1.271585,0.402169 0.286866,0.09316 0.391861,0.110778 0.431849,0.07189 0,-1.43e-4 0,-0.0079 0,-0.0083 0.0076,-0.0079 0.0189,-0.01776 0.0189,-0.03175 0.0076,-0.07105 0.01134,-0.472732 0.0189,-1.200793 0.04838,-2.753579 0.09713,-9.551905 0.07861,-11.534389 l 0.0031,-0.541035 -0.04687,-0.05469 c -0.06119,-0.0943 -0.206321,-0.265436 -0.614737,-0.725412 -0.721625,-0.812599 -1.118135,-1.2599735 -1.226948,-1.3845875 -0.303496,-0.346923 -0.495609,-0.563161 -0.626305,-0.702225 -0.13493,-0.149632 -0.212032,-0.220082 -0.244914,-0.212901 z"
       style="fill:#ffffff;fill-opacity:1;stroke-width:0.04461169" />
    <path
       inkscape:connector-curvature="0"
       id="path1166-2-4"
       d="m -73.631799,8.9092615 -0.08769,0.01361 c -0.04838,0.0021 -0.136063,0.0189 -0.240756,0.04218 -0.27137,0.05288 -0.629631,0.144529 -0.708699,0.185688 -0.0076,0.0042 -0.01512,0.01474 -0.02268,0.03591 -0.0076,0.0031 -0.01512,0.0076 -0.0189,0.0098 -0.0031,0.0068 -0.0076,0.139389 -0.01134,0.322394 -0.02646,0.5961975 -0.02646,2.2102595 -0.02646,6.7581875 0,4.561327 0.0076,6.34921 0.03402,6.905768 0.0031,0.115918 0.0076,0.185953 0.0076,0.191433 0,7.03e-4 0.0031,0.0023 0.0031,0.0031 0.0031,0.01814 0.0076,0.03024 0.0076,0.03326 0.03024,0.0257 0.20674,0.08723 0.390236,0.136403 0.183308,0.04921 0.383849,0.109569 0.445153,0.133985 0.06161,0.02419 0.131528,0.03893 0.156095,0.0325 0,-1.44e-4 0.0012,-0.01587 0.0019,-0.01776 0.01134,0.0016 0.02646,0.0042 0.03024,0.0025 0.0189,-0.0091 0.03402,-3.338461 0.03402,-7.39779 0,-2.174295 -0.0013,-3.557761 -0.0031,-4.641695 z"
       style="fill:#ffffff;fill-opacity:1;stroke-width:0.04461169" />
    <path
       inkscape:connector-curvature="0"
       id="path1164-1-4"
       d="m -75.438942,9.3740605 c -0.0076,-0.0045 -0.05405,0.0027 -0.122079,0.01587 -0.104315,0.01587 -0.259275,0.04857 -0.427502,0.09422 l -0.476523,0.129335 v 0.0019 l -0.0012,0.6191805 -0.0076,6.016203 v 0.01852 l -0.01134,6.6166 v 0.03919 l 0.189732,0.04981 c 0.104315,0.02683 0.3103,0.08621 0.457437,0.131263 0.105826,0.0325 0.179149,0.0517 0.239622,0.06482 0.02646,0.0064 0.05291,0.0102 0.07294,0.01247 0.07748,0.0079 0.110741,-0.0091 0.128504,-0.05582 0.01512,-0.03779 0.02646,-3.13991 0.02646,-6.893786 0,-6.056697 -0.0076,-6.8023255 -0.06652,-6.8485835 -3.7e-5,-8.7e-5 3.8e-5,-0.01134 0,-0.01134 z"
       style="fill:#ffffff;fill-opacity:1;stroke-width:0.04461169" />
    <path
       inkscape:connector-curvature="0"
       id="path1162-4-8"
       d="m -77.196082,9.8127165 c -0.0076,0 -0.05821,0.01172 -0.0892,0.01814 -0.25852,0.04396 -0.915817,0.2135045 -0.974816,0.2605975 0,1.4e-4 0,0.0076 -0.0012,0.0079 l -0.05707,0.02457 0.0031,3.8605 c 0,0.0027 3.8e-5,0.0045 0,0.0072 -0.01134,2.969756 -0.0031,6.726535 0.02646,7.95408 0.0031,0.197594 0.0076,0.384427 0.0076,0.389639 0.0013,0.0013 0.0076,0.0042 0.0076,0.0057 0.0013,0.0053 0.0019,0.03175 0.0031,0.03213 0.02646,0.01663 0.262677,0.09691 0.524145,0.178621 0.547238,0.170872 0.528832,0.167622 0.565266,0.108359 l 0.02268,5.52e-4 v -3.366048 c 0.0076,-3.795341 0.0019,-9.4502425 -0.02268,-9.4734415 -0.0012,-0.0013 -0.01134,4.23e-4 -0.0189,0 0,-4.19e-4 0,-0.0083 0,-0.0083 z"
       style="fill:#ffffff;fill-opacity:1;stroke-width:0.04461169" />
    <path
       inkscape:connector-curvature="0"
       id="path1160-5-3"
       d="m -79.02749,10.295751 c -0.0189,-0.0013 -0.05669,0.0057 -0.09676,0.01247 -0.09184,0.01172 -0.230551,0.04271 -0.441638,0.100762 -0.25474,0.07011 -0.46628,0.136252 -0.531779,0.163918 l -0.07106,0.02079 -0.0012,0.643419 c -0.01512,0.71681 -0.02268,2.131604 -0.02268,4.981776 v 5.596611 l 0.122457,0.04709 c 0.06727,0.0257 0.313323,0.103635 0.546519,0.173178 v 5.56e-4 c 0.507931,0.151559 0.518665,0.152882 0.551887,0.06618 0.01512,-0.03779 0.02646,-2.694962 0.02646,-5.905383 0.0013,-4.628164 -0.01134,-5.84688 -0.0548,-5.88333 -0.0031,-0.0023 -0.0076,-0.0035 -0.01134,-0.0053 -3.8e-5,-1.2e-4 7.6e-5,-0.0053 0,-0.0057 -0.0019,-0.0038 -0.0076,-0.0064 -0.0189,-0.0076 z"
       style="fill:#ffffff;fill-opacity:1;stroke-width:0.04461169" />
    <path
       inkscape:connector-curvature="0"
       id="path1158-5-8"
       d="m -87.082268,10.489353 c -0.04687,0.0027 -0.09487,0.01587 -0.16252,0.03742 -0.152315,0.04876 -2.758034,1.141058 -3.830589,1.605955 -0.109984,0.04785 -0.562205,0.239471 -1.00388,0.425859 -0.441676,0.186331 -1.103962,0.466628 -1.472051,0.622998 -0.368126,0.156359 -0.940308,0.398 -1.271546,0.53695 -0.331087,0.138898 -0.806891,0.341065 -1.056983,0.449001 -0.249827,0.107943 -0.469304,0.196044 -0.487143,0.196044 -0.0189,0 -0.06917,0.03364 -0.11452,0.07404 -0.0076,0.0072 -0.01512,0.01512 -0.02268,0.02343 -0.0012,5.55e-4 -0.0031,0.0023 -0.0076,0.0027 -0.01134,0.0083 -0.0189,0.03477 -0.02646,0.08032 -0.02646,0.119207 -0.02646,0.377273 -0.02646,1.04722 -3.8e-5,0.0016 0,0.0025 0,0.0042 0,4.23e-4 0,4.23e-4 0,8.24e-4 -3.8e-5,2.83e-4 0,4.19e-4 0,8.24e-4 0,0.45047 -0.0031,0.723677 0.01134,0.88521 0,0.0035 0,0.0087 0,0.0121 0.0076,0.04501 0.01134,0.0796 0.0189,0.107263 0.02268,0.07517 0.05745,0.0943 0.116788,0.08141 0.05556,-0.0094 0.131527,-0.04377 0.235464,-0.08391 0.227528,-0.08746 0.509707,-0.191811 2.225386,-0.822035 0.171591,-0.06316 0.543156,-0.198085 0.825298,-0.300019 0.28233,-0.101934 0.663647,-0.241928 0.847634,-0.310942 0.183685,-0.06901 0.595692,-0.220082 0.914608,-0.335736 1.448769,-0.525293 2.14817,-0.783583 2.230602,-0.8234 0.04875,-0.02343 0.430488,-0.162671 0.847596,-0.309052 0.417185,-0.146381 0.898923,-0.323074 1.070665,-0.392368 l 0.312189,-0.126085 0.0031,-0.14211 c 0.01134,-0.136592 0.0189,-0.388581 0.0189,-0.670919 1.89e-4,-0.148762 0.0013,-0.254438 0.0019,-0.348511 0.01134,-0.253946 0.03402,-0.359395 0.101291,-0.373303 0.02646,0.0031 0.09487,0.01928 0.186331,0.04384 0.08542,0.03061 0.375685,0.124762 0.692371,0.222463 0.331087,0.102085 0.752958,0.232289 0.936983,0.289436 0.183685,0.05722 0.575509,0.176957 0.869972,0.266305 0.294047,0.08931 0.715804,0.219326 0.93668,0.288907 0.220724,0.06958 0.672643,0.210482 1.003918,0.312869 0.331087,0.102426 0.799521,0.248618 1.040693,0.324851 0.370016,0.116976 0.444888,0.128428 0.479509,0.07457 0.01134,-0.01776 0.0189,-0.03439 0.02646,-0.05065 0.0012,-0.0042 0.0019,-0.0083 0.0031,-0.01247 0.0019,-0.01058 0.0031,-0.02117 0.0031,-0.03175 0,-0.0053 -0.0013,-0.01058 -0.0019,-0.01587 -0.0019,-0.0102 -0.0076,-0.02117 -0.01134,-0.03213 -0.0019,-0.0038 -0.0031,-0.0076 -0.0076,-0.01172 -0.0189,-0.0291 -0.05631,-0.0593 -0.10696,-0.09124 -0.03855,-0.02381 -0.08882,-0.05106 -0.146268,-0.07952 -0.0019,-8.24e-4 -0.0019,-0.0013 -0.0031,-0.0021 -0.0076,-0.0023 -0.04535,-0.02041 -0.05254,-0.02343 -0.07068,-0.03364 -0.139464,-0.06633 -0.23811,-0.108359 -0.03969,-0.01663 -0.09713,-0.04271 -0.142488,-0.06236 -0.974435,-0.436235 -3.69732,-1.633956 -4.296413,-1.887547 -0.220724,-0.09343 -0.501883,-0.218419 -0.624642,-0.277758 -0.122457,-0.05934 -0.356032,-0.154998 -0.518929,-0.212674 -0.170835,-0.06055 -0.249449,-0.08462 -0.328441,-0.08009 z"
       style="fill:#ffffff;fill-opacity:1;stroke-width:0.04461169" />
    <path
       inkscape:connector-curvature="0"
       id="path1156-2-5"
       d="m -87.007131,14.465299 c -0.06576,0.01209 -0.310677,0.09211 -0.543761,0.177789 -0.233197,0.08572 -0.71486,0.259275 -1.070626,0.385565 -0.355654,0.126274 -0.777449,0.27719 -0.936983,0.33547 -0.606312,0.22133 -1.969285,0.711882 -2.676548,0.963085 -1.419062,0.503996 -1.989959,0.707077 -2.542904,0.905083 -0.306898,0.109833 -0.822841,0.29435 -1.147163,0.410067 -0.335622,0.119774 -0.505322,0.192 -0.576982,0.249147 l -0.03855,0.01852 v 0.02646 c -0.0012,0.0018 -0.0019,0.0038 -0.0031,0.0053 -0.01512,0.04917 -0.01134,3.118579 0.0076,6.820807 v 0 c 0.01134,2.697113 0.02646,4.345675 0.03855,5.347737 0.0076,0.780733 0.0076,1.343157 0.01134,1.350278 0.0076,0.01625 0.0189,0.02419 0.03402,0.02419 0.0019,0.0038 0.0031,0.0087 0.0076,0.0087 0.03024,0 0.205228,-0.174161 0.384264,-0.387198 1.872983,-2.227479 1.711635,-2.055345 1.946306,-2.078373 0.114897,-0.01134 1.289953,-0.02343 2.612107,-0.02721 l 1.756763,-0.0053 h 0.630765 l 0.0019,-0.0019 h 0.01512 l 0.139086,-0.115993 c 0.39326,-0.327685 1.54303,-1.428839 1.543597,-1.478525 1.14e-4,-0.0072 -0.0019,-0.01323 -0.0076,-0.01814 0.0013,-0.0029 0.0076,-0.0079 0.0031,-0.0083 -0.0012,-9.41e-4 -0.01134,-2.76e-4 -0.01512,-8.24e-4 -0.02646,-0.01663 -0.09071,-0.01663 -0.216567,-0.0013 -0.246047,0.02948 -0.837619,0.128202 -1.215723,0.202318 -0.122456,0.02381 -0.403842,0.07196 -0.62468,0.106734 -0.220724,0.03477 -0.511975,0.08549 -0.646904,0.112743 -0.230929,0.04653 -1.156763,0.211919 -2.631988,0.46997 -0.355653,0.06225 -0.787464,0.140863 -0.959244,0.174841 -0.17159,0.03402 -0.402595,0.07465 -0.512957,0.09041 -0.109985,0.01587 -0.345449,0.05726 -0.522255,0.0923 -0.274772,0.05446 -0.401953,0.09237 -0.458571,0.03515 0,-3e-5 0,3.5e-5 0,0 -0.0189,-0.06459 -0.02268,-0.212409 -0.02268,-0.527965 v -0.56772 -0.01172 l 0.05254,-0.0094 0.505059,-0.08606 c 0.306897,-0.05235 0.788447,-0.139162 1.070626,-0.192756 0.282331,-0.05359 0.683717,-0.12514 0.892309,-0.159269 0.471912,-0.07722 0.798728,-0.136252 1.115301,-0.200957 0.135307,-0.02721 0.416088,-0.07797 0.624642,-0.111912 0.20863,-0.03402 0.499427,-0.08357 0.64664,-0.110514 0.147401,-0.02646 0.438425,-0.07699 0.647017,-0.111118 0.20863,-0.03439 0.600038,-0.104806 0.869934,-0.157115 0.270236,-0.05235 0.621165,-0.116523 0.780623,-0.142412 0.100536,-0.01625 0.306898,-0.05575 0.490167,-0.0901 0.224126,-0.03742 0.454678,-0.07877 0.625172,-0.115692 l 0.155717,-0.03402 0.0031,-0.05745 c 0.01134,-0.01965 0.0189,-0.04381 0.02646,-0.0751 0.01512,-0.07253 0.03024,-0.526545 0.03402,-1.009089 0.0031,-0.616845 0.0189,-0.882455 0.05632,-0.89447 0.02646,-0.0091 0.183685,-0.0027 0.345827,0.01512 0.66977,0.07332 1.398236,0.131527 1.92291,0.153562 l 0.327685,0.01398 0.229418,0.01209 0.03402,-0.03439 0.227906,-0.210482 c 0.144378,-0.133304 0.249827,-0.261694 0.235086,-0.285619 -0.03024,-0.04845 -0.08882,-0.06508 -1.16674,-0.326211 -0.417108,-0.101102 -0.888831,-0.219553 -1.048327,-0.26332 -0.159496,-0.04373 -0.5167,-0.134815 -0.793739,-0.202318 l -0.503433,-0.122494 -0.388573,0.09502 c -0.421909,0.103408 -1.368983,0.323981 -2.217789,0.516529 -0.294047,0.06678 -0.87651,0.2016 -1.293619,0.29949 -0.925039,0.217058 -1.605052,0.375723 -2.542866,0.59359 -0.392655,0.09116 -0.994243,0.233197 -1.33697,0.315326 -0.342803,0.08209 -0.633298,0.139124 -0.645581,0.126879 -0.02646,-0.02948 -0.0076,-0.761216 0.02268,-0.987591 0.0076,-0.0359 0.01134,-0.061 0.02268,-0.06996 0.03024,-0.02154 0.345449,-0.112101 0.715578,-0.206098 0.37886,-0.0963 0.970015,-0.248617 1.313537,-0.338721 0.343559,-0.09007 0.885656,-0.230891 1.204573,-0.312869 0.318992,-0.08202 0.901039,-0.231534 1.293657,-0.332447 0.392617,-0.100952 0.844497,-0.221065 1.003956,-0.266835 0.159496,-0.04577 0.379993,-0.102576 0.49062,-0.126312 0.109984,-0.02343 0.481814,-0.11743 0.825336,-0.208025 0.343559,-0.0906 0.824693,-0.214375 1.069266,-0.275301 0.131527,-0.03288 0.255496,-0.06879 0.350362,-0.09989 0.0076,-0.0031 0.0189,-0.0064 0.02646,-0.0094 0.06539,-0.0223 0.116031,-0.04203 0.130015,-0.05363 0.04951,-0.0412 0.0582,-0.143849 0.03969,-0.480049 -0.01134,-0.235238 -0.01134,-0.484192 0,-0.553013 l 0.02646,-0.124989 0.339402,0.02872 c 0.186708,0.01587 0.449915,0.04804 0.584806,0.07079 0.233575,0.03946 0.432302,0.07079 1.137676,0.179187 0.17159,0.02646 0.588397,0.08723 0.925757,0.135345 2.168882,0.30909 2.435641,0.348548 2.74628,0.40707 0.130394,0.02457 0.266079,0.03402 0.301607,0.02041 0.07899,-0.03024 0.08504,-0.157758 0.0076,-0.181871 -0.03024,-0.0094 -0.638136,-0.207798 -1.349745,-0.440292 -2.884762,-0.942531 -4.005695,-1.3067 -4.47258,-1.450481 l -0.322771,-0.104806 -0.08806,0.02268 c -0.09902,0.01739 -0.331843,0.07098 -0.617802,0.145701 -0.335622,0.08769 -0.911206,0.236863 -1.279219,0.331389 -0.368126,0.09449 -0.910148,0.234822 -1.204611,0.312037 -0.294047,0.07722 -0.916724,0.238262 -1.382929,0.357771 -0.466205,0.119546 -1.208958,0.311319 -1.650595,0.426395 -1.852574,0.482607 -2.125871,0.548194 -2.169941,0.518161 -0.0076,-0.01738 -0.0189,-0.06822 -0.02646,-0.148384 0,-0.0098 -0.0019,-0.01625 -0.0019,-0.02721 -0.0031,-0.09838 -0.0076,-0.229078 -0.0019,-0.368126 l 0.01134,-0.505641 0.312189,-0.09857 c 0.171591,-0.05409 0.603213,-0.182891 0.959018,-0.286186 0.355653,-0.103294 0.837543,-0.245593 1.070627,-0.316384 0.5969,-0.181266 1.366072,-0.409882 1.940598,-0.576707 0.270236,-0.07835 0.711723,-0.20931 0.981582,-0.291061 0.270236,-0.08179 0.731603,-0.219666 1.026028,-0.306595 0.99583,-0.294048 1.511471,-0.449961 1.79709,-0.543213 0.122834,-0.03851 0.226393,-0.07302 0.265701,-0.09203 0,-9.9e-5 0,-1.44e-4 0,-2.84e-4 0.0013,-2.8e-4 0,-5.56e-4 0.0013,-8.24e-4 0.0076,-0.0038 0.0189,-0.0083 0.02268,-0.01096 3.8e-5,-7.1e-5 0,-9.52e-4 0,-0.0011 0.0076,-0.0027 0.01134,-0.0064 0.01512,-0.0083 0.04346,-0.03666 0.06198,-0.245821 0.07068,-0.813869 l 0.01134,-0.765123 0.111496,0.01361 c 0.06161,0.0072 0.322393,0.06414 0.57993,0.126312 0.257386,0.06221 0.598867,0.140182 0.758363,0.173178 0.360567,0.07453 1.773883,0.394015 2.2529,0.509457 0.196536,0.04732 0.597846,0.139314 0.892271,0.204473 0.294048,0.0652 0.7536,0.169398 1.020284,0.231458 0.07521,0.01739 0.122078,0.0257 0.179149,0.03779 0.289512,0.07128 0.327307,0.0703 0.352252,0.0064 0.02646,-0.02646 0.03024,-0.06795 0.03024,-0.130431 0,-0.05975 -0.04649,-0.109493 -0.190867,-0.182173 0,-1.36e-4 -0.0013,-4.12e-4 -0.0013,-5.56e-4 0,-1.44e-4 -0.0012,-4.23e-4 -0.0012,-5.59e-4 -0.119811,-0.06017 -0.301984,-0.135005 -0.609411,-0.252397 -0.331087,-0.126463 -0.853228,-0.331729 -1.159937,-0.456079 -0.56538,-0.229229 -0.921638,-0.369525 -1.605921,-0.633071 -0.20863,-0.08032 -0.907578,-0.352139 -1.553159,-0.603935 -0.219591,-0.08564 -0.403125,-0.155641 -0.563604,-0.215093 -0.362456,-0.143697 -0.52868,-0.214148 -0.660585,-0.214828 -0.03024,-0.0057 -0.05594,-0.0083 -0.06879,-0.0064 z"
       style="fill:#ffffff;fill-opacity:1;stroke-width:0.04461169" />
    <path
       inkscape:connector-curvature="0"
       id="path1154-3-1"
       d="m -80.990161,22.551976 c -0.0076,-2.8e-4 -0.0076,4.2e-4 -0.01134,0.0025 0,1.14e-4 -0.0076,0.0057 -0.0076,0.006 -0.0019,7.03e-4 -0.0076,5.64e-4 -0.0076,0.0013 -0.0031,0.0019 -0.194645,0.191395 -0.233196,0.227905 -0.122457,0.118942 -0.30463,0.297147 -0.522256,0.511359 -0.430374,0.423269 -0.999344,0.985943 -1.768781,1.748904 -0.400214,0.396541 -0.712403,0.704247 -1.160768,1.149873 l -3.587944,3.565886 -0.57804,-0.02759 c -0.318993,-0.01512 -1.292864,-0.04721 -2.163894,-0.07106 -0.87103,-0.02381 -1.835225,-0.05511 -2.142614,-0.06943 l -0.558727,-0.02608 -0.311055,0.325947 c -3.8e-5,4.1e-5 0,2.79e-4 0,2.79e-4 -0.0012,8.24e-4 -0.0012,0.0013 -0.0019,0.0021 -0.169701,0.177864 -0.721512,0.754945 -1.225852,1.28248 -0.504303,0.527528 -1.567371,1.641669 -2.362394,2.475912 -0.794948,0.834237 -1.662274,1.743957 -1.926992,2.021466 -0.264484,0.277587 -0.481016,0.532033 -0.481016,0.565599 0,0.04142 0.08277,0.06985 0.256633,0.08852 0.140976,0.01512 0.378482,0.04683 0.527697,0.07026 0.148914,0.02343 0.360189,0.04244 0.469153,0.04244 h 0.197669 l 1.270715,-1.370699 c 1.593676,-1.718952 2.987415,-3.218634 3.279761,-3.528854 l 0.224504,-0.237959 1.626898,1.298271 c 0.943861,0.753128 1.658948,1.293294 1.702828,1.286287 0.08202,-0.01323 1.41411,-1.323043 6.334262,-6.22859 l 3.153411,-3.144109 0.170079,0.1457 c 0.09373,0.08016 0.792529,0.761311 1.553159,1.513372 0.76063,0.752058 1.965241,1.939053 2.67685,2.637933 0.711534,0.698872 1.996195,1.963706 2.854942,2.810551 3.881348,3.827422 4.735786,4.666515 4.814589,4.729096 0.07294,0.05813 0.686551,0.06988 4.683326,0.0901 1.51e-4,0 0,0 0,0 2.529486,0.01285 4.910286,0.02759 5.290586,0.03326 0.19011,0.0027 0.37001,4.16e-4 0.50645,-0.0049 0.13644,-0.0053 0.2298,-0.01398 0.24643,-0.02457 0.0265,-0.01587 0.0386,-0.04872 0.0427,-0.125254 0.002,-0.0381 0.002,-0.08712 0,-0.150009 0,-1.4e-4 4e-5,-4.2e-4 0,-5.56e-4 -0.002,-0.06308 -0.008,-0.140069 -0.0113,-0.234444 v -5.59e-4 l -0.0302,-0.470517 v -0.0016 l -0.34167,-0.329197 c -0.18747,-0.181115 -0.49255,-0.4678 -0.67718,-0.637153 -0.18444,-0.16936 -1.31879,-1.220757 -2.520528,-2.336504 -1.201701,-1.115754 -2.586671,-2.398794 -3.077367,-2.851128 -0.490772,-0.452341 -0.934337,-0.864382 -0.985965,-0.915704 -0.05178,-0.05133 -0.312567,-0.294047 -0.579478,-0.539403 -0.266834,-0.245329 -0.666141,-0.616834 -0.887357,-0.825577 -0.931011,-0.878638 -1.272869,-1.169318 -1.415925,-1.203515 -0.131149,-0.03175 -0.483666,-0.127295 -1.0608,-0.288605 -0.395376,-0.110551 -1.28262,-0.348132 -1.918299,-0.513811 -0.355653,-0.09271 -0.847597,-0.222955 -1.092926,-0.289172 -0.245291,-0.06625 -0.667086,-0.178621 -0.936945,-0.249978 -0.774538,-0.204737 -1.790967,-0.476549 -2.252938,-0.602302 -0.488618,-0.133039 -0.804057,-0.216416 -1.672933,-0.442197 -0.343559,-0.08927 -0.865209,-0.229077 -1.159672,-0.310715 -0.294047,-0.0816 -0.816416,-0.222841 -1.159937,-0.313928 -0.343559,-0.09112 -0.712328,-0.193511 -0.819591,-0.227603 -0.08164,-0.0257 -0.165921,-0.03942 -0.215811,-0.03666 -0.0031,-8.24e-4 -0.0076,-0.0023 -0.0076,-0.0025 z"
       style="fill:#ffffff;fill-opacity:1;stroke-width:0.04461169" />
    <path
       inkscape:connector-curvature="0"
       id="path1152-6-6"
       d="m -79.436208,29.039237 c -0.457361,-0.0064 -0.925304,0.0013 -0.995452,0.02835 -0.06161,0.02343 -0.07068,0.163578 -0.07068,1.107942 0,0.297184 0.0031,0.570652 0.0076,0.771935 0.0031,0.100649 0.0076,0.18308 0.0076,0.241512 0.0031,0.05854 0.0076,0.09286 0.01134,0.09694 0.0076,0.0072 0.04195,0.01323 0.09865,0.01776 0.05632,0.0045 0.133417,0.0079 0.224882,0.01058 0.182929,0.0049 0.421833,0.0057 0.660888,0.0027 0.477808,-0.0057 0.955918,-0.0257 0.984907,-0.05469 0.04724,-0.04751 0.06539,-0.853059 0.05367,-1.468997 -0.0019,-0.123175 -0.0076,-0.238564 -0.01134,-0.338986 -0.0076,-0.200882 -0.02646,-0.341215 -0.04271,-0.360226 -0.02646,-0.02835 -0.475237,-0.04845 -0.932598,-0.05473 z"
       style="fill:#ffffff;fill-opacity:1;stroke-width:0.04461169" />
    <path
       inkscape:connector-curvature="0"
       id="path1150-5-1"
       d="m -82.618381,29.0485 c -0.175748,0.0021 -0.298583,0.0072 -0.326552,0.01399 l -0.100535,0.02457 v 1.0848 c 0,0.596588 0.01134,1.098479 0.03024,1.11529 0.0031,0.0042 0.03402,0.0076 0.08617,0.01096 0.153827,0.0087 0.496744,0.01247 0.884372,0.0076 l 0.939666,-0.01209 v -1.115343 -1.115294 l -0.869971,-0.01247 c -0.239244,-0.0035 -0.468095,-0.0042 -0.643956,-0.0019 z"
       style="fill:#ffffff;fill-opacity:1;stroke-width:0.04461169" />
    <path
       inkscape:connector-curvature="0"
       id="path1148-8-1"
       d="m -79.475666,31.851152 c -0.486955,0 -0.917178,0.01209 -0.955994,0.02646 -0.06161,0.02343 -0.07068,0.163578 -0.07068,1.107938 0,0.594429 0.01134,1.094279 0.02646,1.110664 0.0189,0.01625 0.465941,0.02948 0.999043,0.02948 0.842646,0 0.972737,-0.0087 0.996283,-0.07053 0.01512,-0.03882 0.02646,-0.519326 0.02646,-1.067641 0,-0.423405 -0.0019,-0.675111 -0.01134,-0.828571 -0.0076,-0.07672 -0.01134,-0.128919 -0.02268,-0.165543 -0.0076,-0.03666 -0.02268,-0.05809 -0.03402,-0.07294 -0.05896,-0.05904 -0.210142,-0.06996 -0.955427,-0.06996 z"
       style="fill:#ffffff;fill-opacity:1;stroke-width:0.04461169" />
    <path
       inkscape:connector-curvature="0"
       id="path1146-3-1"
       d="m -82.041436,31.852517 c -0.432114,0.0021 -0.866344,0.01776 -0.91733,0.04494 -0.08164,0.04365 -0.0858,0.103937 -0.0858,1.107935 0,0.583922 0.01134,1.075616 0.03024,1.092419 0.0189,0.01739 0.453581,0.02494 0.970432,0.01852 l 0.939666,-0.01209 0.01134,-1.089967 c 0.0076,-0.842143 -0.0013,-1.09787 -0.0446,-1.125634 -0.04195,-0.02646 -0.472138,-0.03851 -0.904214,-0.03628 z"
       style="fill:#ffffff;fill-opacity:1;stroke-width:0.04461169" />
    <path
       inkscape:connector-curvature="0"
       id="path1144-5-8"
       d="m -95.134892,33.766708 v 0.551648 c 0,0.303383 0.01134,0.565002 0.02646,0.581333 0.0189,0.01625 0.237355,0.02986 0.489827,0.02986 0.546255,0 0.516888,0.03946 0.497197,-0.669282 l -0.01134,-0.468335 -0.501884,-0.01285 z"
       style="fill:#ffffff;fill-opacity:1;stroke-width:0.04461169" />
    <path
       inkscape:connector-curvature="0"
       id="path1142-1-2"
       d="m -93.323667,33.769693 c -0.44897,0 -0.514204,0.0094 -0.533404,0.07816 -0.02268,0.08175 -0.03024,0.322129 -0.02646,0.549747 0.0031,0.170722 0.01512,0.334224 0.03024,0.418239 0.0076,0.02797 0.01134,0.04709 0.0189,0.05473 0.03931,0.04724 0.163275,0.05885 0.524182,0.04932 l 0.47297,-0.01247 0.01134,-0.568811 0.01134,-0.568808 z"
       style="fill:#ffffff;fill-opacity:1;stroke-width:0.04461169" />
    <path
       inkscape:connector-curvature="0"
       id="path1140-0-8"
       d="m -94.575635,35.151833 c -0.201827,-0.0079 -0.415106,-5.6e-4 -0.488769,0.02759 -0.02268,0.0083 -0.03855,0.02646 -0.048,0.07079 -0.01134,0.0438 -0.0189,0.113083 -0.0189,0.222992 -0.0019,0.07328 -0.0031,0.164787 -0.0031,0.278816 0,0.299981 0.01134,0.559585 0.03024,0.57671 0.0076,0.0083 0.06916,0.01512 0.160252,0.01814 0.09109,0.0035 0.212032,0.0038 0.34167,2.76e-4 l 0.470815,-0.01247 0.01134,-0.529054 c 0.0076,-0.351912 -0.0076,-0.549831 -0.03931,-0.591137 -0.02646,-0.03213 -0.216189,-0.05514 -0.418204,-0.06289 z"
       style="fill:#ffffff;fill-opacity:1;stroke-width:0.04461169" />
    <path
       inkscape:connector-curvature="0"
       id="path1128-5-1"
       d="m -93.336215,35.153189 c -0.27326,-4.11e-4 -0.410683,4.2e-4 -0.479735,0.07816 -0.0189,0.01928 -0.03024,0.04354 -0.04006,0.07381 -0.02646,0.09075 -0.02646,0.235654 -0.02646,0.466436 0,0.319596 0.0189,0.496735 0.0548,0.533408 0.0189,0.01928 0.06841,0.03213 0.153449,0.03893 0.04271,0.0035 0.09487,0.0053 0.156094,0.006 0.06161,5.56e-4 0.133417,-2.79e-4 0.214299,-0.0025 l 0.469115,-0.01247 0.01134,-0.554105 c 0.0076,-0.413337 -0.0019,-0.563509 -0.0446,-0.590589 -0.03024,-0.02003 -0.241889,-0.03666 -0.466696,-0.03704 z"
       style="fill:#ffffff;fill-opacity:1;stroke-width:0.04461169" />
  </g>
</svg>
