<?xml version="1.0" encoding="UTF-8" standalone="no"?>
<!-- Created with Inkscape (http://www.inkscape.org/) -->

<svg
   xmlns:dc="http://purl.org/dc/elements/1.1/"
   xmlns:cc="http://creativecommons.org/ns#"
   xmlns:rdf="http://www.w3.org/1999/02/22-rdf-syntax-ns#"
   xmlns:svg="http://www.w3.org/2000/svg"
   xmlns="http://www.w3.org/2000/svg"
   xmlns:sodipodi="http://sodipodi.sourceforge.net/DTD/sodipodi-0.dtd"
   xmlns:inkscape="http://www.inkscape.org/namespaces/inkscape"
   width="39.687717mm"
   height="39.687065mm"
   viewBox="0 0 39.687717 39.687065"
   version="1.1"
   id="svg8"
   inkscape:version="0.92.4 (5da689c313, 2019-01-14)"
   sodipodi:docname="cities Humanization &amp; gardens.svg">
  <defs
     id="defs2" />
  <sodipodi:namedview
     id="base"
     pagecolor="#ffffff"
     bordercolor="#666666"
     borderopacity="1.0"
     inkscape:pageopacity="0.0"
     inkscape:pageshadow="2"
     inkscape:zoom="1.979899"
     inkscape:cx="121.01523"
     inkscape:cy="110.77174"
     inkscape:document-units="mm"
     inkscape:current-layer="layer1"
     showgrid="false"
     fit-margin-top="0"
     fit-margin-left="0"
     fit-margin-right="0"
     fit-margin-bottom="0"
     inkscape:window-width="1920"
     inkscape:window-height="1001"
     inkscape:window-x="-9"
     inkscape:window-y="-9"
     inkscape:window-maximized="1" />
  <metadata
     id="metadata5">
    <rdf:RDF>
      <cc:Work
         rdf:about="">
        <dc:format>image/svg+xml</dc:format>
        <dc:type
           rdf:resource="http://purl.org/dc/dcmitype/StillImage" />
        <dc:title></dc:title>
      </cc:Work>
    </rdf:RDF>
  </metadata>
  <g
     inkscape:label="Layer 1"
     inkscape:groupmode="layer"
     id="layer1"
     transform="translate(4.1510377,-206.9946)">
    <path
       style="fill:#71c837;fill-opacity:1;stroke-width:0.7522167"
       d="m 69.269531,782.3418 c -0.125858,0 -0.245738,2.5e-4 -0.363281,0.008 -0.582236,-0.0265 -1.024194,0.0569 -1.427734,0.29883 -1.350917,0.5893 -2.113085,2.08898 -3.40625,4.99804 -2.788498,6.27243 -6.876059,8.64844 -14.878907,8.64844 -3.319785,0 -5.590246,-0.26536 -7.451171,-1.05664 -1.423106,-0.79514 -2.811501,-1.89256 -4.257813,-3.32617 -0.157228,-0.18142 -0.314395,-0.36894 -0.474609,-0.56445 -4.061367,-4.95353 -4.665272,-5.10677 -10.060547,-2.55664 -2.56097,1.21046 -6.974288,3.70073 -9.808594,5.5332 l -5.154297,3.33203 0.539063,2.89063 c 0.295937,1.59061 0.981302,4.1063 1.523437,5.58984 0.574639,1.5724 0.781448,3.76743 0.496094,5.26367 -0.773632,4.05661 -4.749972,10.27986 -8.1347658,12.73047 -2.8848756,2.08853 -3.563995,2.24414 -9.7402343,2.24414 -0.9818457,0 -1.8174618,6.1e-4 -2.5351563,0.0117 -0.7371968,-0.0302 -1.3661688,-0.0146 -1.9101562,0.0625 -2.2377824,0.14967 -2.5456504,0.60655 -3.2675784,2.00195 -1.868145,3.61043 -4.941661,17.17141 -4.623047,19.95703 0.0038,0.33411 0.03832,0.56731 0.109375,0.68164 0.139087,0.22489 0.940441,0.7365 2.097657,1.36719 1.195842,0.76479 2.771138,1.65677 4.4082028,2.47266 5.2832881,2.63304 5.9087664,3.19347 7.7558593,6.96679 3.5132221,7.17642 1.56349977,14.74612 -5.0136719,19.46875 -4.8085042,3.45264 -5.2709672,5.38542 -2.6015624,10.84571 3.4835527,7.1255 8.64476902,14.37304 10.2363281,14.37304 0.7914708,0 3.2213162,-0.67491 5.3984375,-1.50195 2.5544693,-0.97039 4.4575806,-1.44244 6.2949216,-1.40234 0.237733,0.008 0.477591,0.0221 0.716797,0.041 1.602973,0.15194 3.212137,0.69849 5.222656,1.64844 1.443364,0.68194 2.723586,1.4319 3.841797,2.25391 1.298986,1.12191 2.578437,2.42656 3.626953,3.69531 1.951106,2.88435 2.669726,6.4055 2.230469,10.69141 -0.343937,3.3544 -0.217522,5.19269 0.412109,5.95117 0.897601,1.08083 9.587365,4.23887 15.472657,5.62304 2.439836,0.57389 4.077998,0.85303 5.341797,0.63672 0.381165,0.0654 0.655479,0.10699 0.779296,0.11719 0.795553,0.0658 1.913862,-1.30723 2.917969,-3.43945 0.348095,-0.60703 0.714328,-1.30522 1.117188,-2.10742 2.231886,-4.44352 3.162084,-5.51231 6.09375,-7 8.311748,-4.2183 16.715061,-2.78304 21.333984,3.64257 1.815723,2.52594 3.198816,3.71094 4.332031,3.71094 h 0.06055 0.02148 c 0.06387,0 0.145431,-0.0104 0.242187,-0.0293 2.690759,-0.42848 12.521438,-5.39283 16.941409,-8.61132 3.31007,-2.41028 3.47269,-2.68986 2.90625,-5.03907 -0.32995,-1.36781 -1.14605,-3.74557 -1.8125,-5.2832 -1.56121,-3.60204 -1.50973,-6.25415 0.19336,-9.98828 0.79217,-1.73681 1.61158,-3.21831 2.50195,-4.47266 0.47162,-0.5783 0.98538,-1.15349 1.54297,-1.72265 0.68648,-0.7008 1.35475,-1.31191 2.01953,-1.8418 2.61962,-1.7554 5.92005,-2.46218 10.46485,-2.48047 2.143,0.26646 3.60796,0.33008 4.71679,-0.008 l 1.78125,-0.004 1.42774,-3.00781 c 1.87514,-3.95108 5.33421,-17.95008 4.78711,-19.375 -0.23509,-0.61266 -2.0635,-1.88263 -4.0625,-2.82422 -5.1747,-2.43742 -7.64554,-5.0156 -8.91993,-9.30469 -0.59046,-1.98716 -0.95522,-3.85939 -1.0957,-5.61328 -0.0113,-0.31143 -0.0156,-0.62534 -0.0156,-0.94531 0,-0.96404 0.0161,-1.8197 0.0547,-2.59375 0.41172,-3.69283 2.03978,-6.72688 4.875,-9.04883 1.8528,-1.5174 3.56685,-3.54704 3.8086,-4.50976 0.0302,-0.12511 0.0481,-0.26629 0.0527,-0.42579 0.10507,-0.52951 -0.037,-1.0685 -0.30273,-1.85351 -0.87086,-3.07729 -3.5453,-8.23204 -7.19141,-13.68359 -3.15001,-4.70998 -3.20318,-4.74827 -6.07812,-4.30274 -1.59526,0.24718 -3.86347,0.94806 -5.04102,1.55664 -2.59903,1.34321 -3.99045,1.34755 -7.71094,0.0195 -4.210381,-1.50077 -8.577845,-4.76956 -10.498046,-7.85547 -1.307754,-2.10175 -1.773316,-4.22781 -2.064453,-9.41015 l -0.107422,-1.91016 c 0.140599,-1.95386 0.121915,-2.92798 -0.203125,-3.58789 l -0.06641,-1.19726 -4.628906,-1.72657 c -2.545966,-0.94798 -7.381899,-2.28167 -10.746094,-2.96289 -2.247383,-0.45517 -3.838207,-0.74779 -5.042969,-0.75781 z m -9.908203,20.39648 c 1.665373,3.8e-4 3.328992,0.0812 4.982422,0.24219 16.56257,1.61348 31.337131,10.47016 40.5625,24.31445 4.78504,7.18065 7.93379,16.1323 8.80078,25.02149 1.36705,14.0177 -3.20969,28.90202 -12.19922,39.67382 -2.197407,2.63313 -6.885902,7.1358 -9.376951,9.00391 -10.895055,8.16994 -24.864983,12.06137 -38.335937,10.67969 -10.49057,-1.07622 -21.216537,-5.55433 -29.171875,-12.17969 -1.000668,-0.8335 -2.279606,-2.0369 -3.582031,-3.34375 -0.594104,-0.58507 -1.174149,-1.18194 -1.738282,-1.79101 -1.478248,-1.56496 -2.833398,-3.11027 -3.664062,-4.2168 C 7.5422435,879.358 3.6295533,865.54759 4.9199219,852.31641 c 1.0603842,-10.87223 5.4510611,-21.533 12.1992191,-29.61914 2.197455,-2.63297 6.885904,-7.13577 9.376953,-9.00391 9.43423,-7.07441 21.207395,-10.95961 32.865234,-10.95508 z m -0.240234,4.79102 c -3.421342,0.0113 -6.862425,0.37005 -10.265625,1.10547 -4.103207,0.88667 -7.199276,1.95264 -11.035157,3.79882 -14.293342,6.8792 -24.190093,19.53781 -27.376953,35.01758 -1.8812217,9.13739 -0.997113,19.41801 2.408203,28.01367 3.070791,7.75129 8.070615,14.73028 14.269532,19.91602 7.787452,6.51462 17.302273,10.53368 27.46289,11.59766 3.243893,0.33978 9.410096,0.0922 13.023438,-0.52149 20.252145,-3.43937 36.303138,-18.84154 40.468748,-38.83203 3.11428,-14.94489 -0.57091,-29.95144 -10.308592,-41.98047 -9.368016,-11.57242 -23.820683,-18.1562 -38.646484,-18.11523 z m -32.611328,19.60351 9.943359,0.002 h 9.945313 v 14.99609 c -10e-7,8.24818 -0.04071,14.99805 -0.08984,14.99805 -0.04913,0 -0.394539,-0.10991 -0.767578,-0.24219 -0.457096,-0.16177 -1.066584,-0.25713 -1.871094,-0.29492 -1.382967,-0.0643 -2.301085,0.10797 -3.441406,0.64648 -0.400781,0.18898 -0.761916,0.34375 -0.802735,0.34375 -0.04006,0 -0.07422,-0.76349 -0.07422,-1.69726 0,-1.62554 -0.01158,-1.70568 -0.251953,-1.875 -0.214185,-0.1493 -0.744736,-0.17579 -3.498047,-0.17579 -2.753272,0 -3.283747,0.0254 -3.498046,0.17579 -0.251981,0.17612 -0.253907,0.19004 -0.253907,3.62695 0,2.98541 0.02548,3.47628 0.179688,3.63086 0.149745,0.15118 0.523877,0.17773 2.318359,0.17773 2.07447,0 2.138724,0.006 2.082032,0.22266 -0.03213,0.12283 -0.269266,0.34964 -0.529297,0.50195 -0.619767,0.36321 -1.534732,1.34136 -1.953125,2.08789 l -0.335938,0.59571 h -0.626953 c -0.384454,0 -0.726277,0.0696 -0.880859,0.17773 -0.251717,0.17613 -0.251954,0.19014 -0.251954,3.61719 0,3.18939 0.01465,3.45467 0.207032,3.6289 0.178582,0.1629 0.524813,0.18745 2.470703,0.18946 1.938935,10e-4 2.36932,0.0334 2.986328,0.22656 0.396246,0.12397 0.829915,0.22618 0.964844,0.22656 0.181039,3e-4 0.366305,0.19878 0.701172,0.75196 0.625814,1.03324 1.779658,2.07648 2.892578,2.61718 1.315049,0.63901 1.266311,0.41342 1.228515,5.55664 l -0.03125,4.17969 h 1.275391 c -0.04611,-0.0468 -0.08008,-0.96212 -0.08008,-2.03906 v -1.96094 l 0.867187,-2.08203 c 0.477204,-1.14482 0.911994,-2.13131 0.966797,-2.19141 0.05896,-0.0627 0.08921,1.67596 0.07031,4.0918 l -0.0293,4.18164 16.611328,-0.002 c -0.04233,-0.0416 -0.07617,-3.62077 -0.07617,-7.95313 v -3.60351 h 1.023438 v 3.67968 7.87696 h 20.050781 c -0.04346,-0.0204 -0.09608,-0.038 -0.107422,-0.0645 l -0.002,-0.002 c -0.03024,-0.0782 -0.04246,-3.64547 -0.02734,-7.92578 l 0.01563,-3.56445 H 84.8125 v 3.67382 7.88282 h 4.767578 c -0.04346,-0.008 -0.152597,-0.016 -0.160156,-0.0274 v -0.002 c -0.03553,-0.0575 0.04054,-1.72766 0.166016,-3.71289 0.12548,-1.98523 0.226562,-3.62759 0.226562,-3.64648 0,-0.0189 0.435471,-0.0332 0.966797,-0.0332 0.531326,0 0.964844,0.0202 0.964844,0.0391 0,0.0227 0.101838,1.66194 0.226562,3.64649 0.124725,1.98452 0.198078,3.655 0.164063,3.71094 -0.0072,0.0113 -0.108312,0.0178 -0.146485,0.0254 h 2.398438 v 1.52539 H 24.236328 v -1.52539 h 2.34961 c -0.04233,-0.043 -0.07617,-13.31091 -0.07617,-29.48438 z m 35.951172,2.67188 c 0.453354,0.0144 0.909709,0.12019 1.34375,0.32617 1.023458,0.48559 1.765223,1.46021 1.974609,2.59766 l 0.07813,0.42773 h -5.353516 c -4.448466,0 -5.355468,-0.0274 -5.355468,-0.15625 0,-0.23471 0.434922,-0.73643 0.800781,-0.92578 0.178923,-0.0926 0.554299,-0.16797 0.833984,-0.16797 0.408605,0 0.612405,0.0798 1.042969,0.4082 0.676951,0.51651 0.930809,0.43237 1.330078,-0.43945 0.612094,-1.33648 1.944587,-2.11302 3.304688,-2.07031 z m -26.859376,2.08984 c -1.758311,0 -3.517722,0.0494 -3.615234,0.14649 -0.100913,0.10015 -0.134766,1.05072 -0.134766,3.57031 10e-7,2.97063 0.02353,3.4587 0.177735,3.61328 0.154356,0.15496 0.635489,0.17773 3.53125,0.17773 2.091401,0 3.430848,-0.0439 3.570312,-0.11718 0.209386,-0.11226 0.220703,-0.27415 0.220703,-3.61328 0,-2.56706 -0.03694,-3.53071 -0.136718,-3.63086 -0.09744,-0.0975 -1.854932,-0.14649 -3.613282,-0.14649 z m -2.615234,1.14649 2.617188,0.002 h 2.615234 l -0.03125,2.58398 -0.0293,2.58399 -2.507812,0.0293 c -1.379226,0.0151 -2.542851,-0.007 -2.585938,-0.0469 -0.04422,-0.0431 -0.07813,-1.21968 -0.07813,-2.61524 z m 47.279297,5.39843 v 0.002 c 0.782098,-0.002 1.068038,0.0489 1.5,0.26171 1.033776,0.50899 1.853026,1.60728 1.931641,2.58985 l 0.03516,0.44141 -5.314453,0.0293 c -4.893506,0.0265 -5.3125,0.0148 -5.3125,-0.16015 0,-0.10394 0.129125,-0.35967 0.287109,-0.56641 0.546936,-0.71683 1.648474,-0.7863 2.373047,-0.15039 0.627893,0.55109 0.929066,0.45694 1.306641,-0.4043 0.311395,-0.71025 0.922694,-1.34958 1.660156,-1.74023 0.484913,-0.25701 0.708812,-0.30073 1.533203,-0.30274 z m -44.664063,4.47461 c -1.758311,0 -3.517722,0.049 -3.615234,0.14649 -0.100913,0.0998 -0.134766,1.05069 -0.134766,3.57031 10e-7,2.97063 0.02353,3.4587 0.177735,3.61328 0.154356,0.15496 0.635489,0.17774 3.53125,0.17774 2.091401,0 3.430848,-0.0439 3.570312,-0.11719 0.209386,-0.11225 0.220703,-0.27216 0.220703,-3.61133 0,-2.56706 -0.03694,-3.53266 -0.136718,-3.63281 -0.09744,-0.0975 -1.854932,-0.14649 -3.613282,-0.14649 z m -2.615234,1.14649 h 2.617188 2.615234 l -0.03125,2.58398 -0.0293,2.58594 -2.507812,0.0293 c -1.379226,0.0189 -2.542851,-0.003 -2.585938,-0.0469 -0.04422,-0.0431 -0.07813,-1.21972 -0.07813,-2.61523 z m 40.28711,5.09375 c 2.349845,0.0929 3.943617,0.79284 5.640624,2.47851 0.783497,0.77825 1.069691,1.16175 1.447266,1.93164 0.722003,1.4722 0.85577,2.14946 0.783203,4.00782 l -0.0625,1.57031 1.041016,1.04297 c 1.138772,1.1407 1.651226,1.91089 2.072265,3.12109 1.167534,3.35615 0.02717,7.06037 -2.835937,9.20703 -0.3936,0.29533 -0.323046,0.30039 -1.652344,-0.10742 -0.588699,-0.18028 -1.086698,-0.34451 -1.109375,-0.36719 -0.02154,-0.0226 0.06971,-0.30021 0.203125,-0.62109 0.230173,-0.55453 0.232955,-0.59878 0.05078,-0.87695 -0.141959,-0.21619 -0.270455,-0.28427 -0.496093,-0.25782 -0.25251,0.0265 -0.37109,0.1701 -0.685547,0.8125 -0.32829,0.67087 -0.413725,0.76801 -0.625,0.71094 -0.1344,-0.0378 -0.820219,-0.10138 -1.523438,-0.14258 l -1.279296,-0.0742 v -4.16406 c 0,-3.08685 -0.03581,-4.19791 -0.136719,-4.29883 -0.07483,-0.0752 -0.269121,-0.13672 -0.431641,-0.13672 -0.162557,0 -0.356806,0.0619 -0.43164,0.13672 -0.102804,0.10129 -0.136719,1.2161 -0.136719,4.31641 v 4.18164 l -0.369141,-0.004 -0.36914,-0.002 -1.357422,-3.17773 c -0.746419,-1.7477 -1.407585,-3.22985 -1.470704,-3.29297 -0.280743,-0.28086 -0.978515,0.0377 -0.978515,0.44531 0,0.0794 0.569953,1.46919 1.267578,3.08789 0.697625,1.61873 1.236131,2.97676 1.195313,3.01758 -0.04082,0.0408 -0.317786,0.11379 -0.615235,0.16406 l -0.541015,0.0918 -0.634766,-0.67188 c -0.349115,-0.36926 -0.860813,-1.09362 -1.136719,-1.60937 l -0.501953,-0.9375 -0.910156,-0.12891 c -1.773997,-0.25096 -3.027075,-0.85774 -4.205078,-2.03711 -2.026356,-2.02866 -2.514042,-4.87635 -1.271485,-7.42383 0.472592,-0.96892 1.657456,-2.22552 2.634766,-2.79687 0.421455,-0.24643 0.805515,-0.55352 0.853515,-0.68164 0.048,-0.12813 0.194645,-0.59186 0.326172,-1.0293 0.595578,-1.9807 2.198247,-3.75817 4.25586,-4.7207 1.294186,-0.60529 2.443426,-0.82528 3.996094,-0.76367 z m 17.519531,4.51172 c 1.55811,-0.013 2.770694,1.48893 2.308593,3.15234 -0.205568,0.74011 -1.250369,1.67187 -1.873046,1.67187 -0.166791,0 -0.165985,0.0145 -0.002,0.17774 0.158741,0.15949 0.177735,1.17096 0.177735,9.42969 v 9.25195 h -0.625 -0.625 v -9.25 c 0,-7.97764 0.02088,-9.27435 0.166015,-9.41797 0.146419,-0.14627 0.118255,-0.17605 -0.234374,-0.24219 -0.551887,-0.10356 -1.460969,-0.996 -1.625,-1.5957 -0.376933,-1.37737 0.32637,-2.69255 1.646484,-3.07617 0.232781,-0.0677 0.462933,-0.0996 0.685547,-0.10156 z m -57.806641,1.41601 h 2.615234 2.613282 v 1.79883 c 0,1.77464 -0.0021,1.80108 -0.285156,2.06641 -0.157418,0.14778 -0.445916,0.51398 -0.638672,0.81445 l -0.34961,0.54687 h -1.902344 c -1.045681,0 -1.934987,-0.0346 -1.976562,-0.0762 -0.04233,-0.0415 -0.07617,-1.21773 -0.07617,-2.61328 z m 10.175781,2.65039 h 0.002 c 0.357642,-0.0101 0.721111,0.0117 1.085938,0.0664 1.788661,0.26797 3.585785,1.50808 4.376953,3.02148 0.507628,0.971 0.647859,1.70432 0.583985,3.03321 l -0.05469,1.13281 0.818359,0.81445 c 2.460397,2.45148 2.447957,6.04839 -0.0293,8.38281 -0.727861,0.68584 -1.836261,1.33994 -2.550781,1.50586 l -0.30664,0.0723 0.458984,-1.10156 c 0.486576,-1.16508 0.490423,-1.52951 0.01953,-1.65235 -0.485971,-0.12703 -0.666076,0.0918 -1.253906,1.51953 -0.571691,1.38773 -0.580968,1.40285 -0.957031,1.41797 -0.20897,0.006 -0.494167,-0.007 -0.634766,-0.0371 l -0.253906,-0.0508 v -3.96094 c 0,-3.44885 -0.02548,-3.98333 -0.179688,-4.13867 -0.207722,-0.20749 -0.429871,-0.22495 -0.738281,-0.0605 -0.211275,0.11187 -0.21875,0.27064 -0.21875,3.35156 0,1.77864 -0.03907,3.23052 -0.08594,3.22851 -0.04694,-0.002 -0.465411,-0.90871 -0.929688,-2.01562 -1.240554,-2.95763 -1.313302,-3.0918 -1.691406,-3.0918 -0.381203,0 -0.589844,0.18404 -0.589844,0.52344 0,0.13833 0.412873,1.21552 0.917969,2.39258 0.505096,1.17713 0.988801,2.30485 1.074219,2.50781 0.242683,0.57619 -8.4e-4,0.45608 -0.910157,-0.45313 -0.512277,-0.51227 -0.957451,-1.09093 -1.179687,-1.53124 -0.25081,-0.49698 -0.434132,-0.72185 -0.613281,-0.75586 -0.140221,-0.0227 -0.553245,-0.10145 -0.917969,-0.16797 -2.008479,-0.36926 -3.585187,-1.92321 -3.947266,-3.88867 -0.337096,-1.82873 0.547295,-3.66846 2.302735,-4.79102 0.573656,-0.36661 0.636385,-0.45207 0.871093,-1.17774 0.780761,-2.41475 3.024438,-4.02386 5.53125,-4.0957 z m -10.060547,8.36914 c 0.06614,0 0.112375,0.3704 0.113282,0.88086 0.0021,1.42141 0.401398,2.57895 1.265625,3.67188 l 0.443359,0.56054 h -0.96875 -0.96875 v -2.55664 c 0,-1.62841 0.04267,-2.55664 0.115234,-2.55664 z m 41.367188,6.64258 0.939453,0.0742 c 0.515679,0.0401 0.999889,0.0945 1.078125,0.11719 0.108473,0.034 0.142578,0.86068 0.142578,3.62695 v 3.58398 H 75.548828 74.46875 v -3.70117 z m -1.587891,0.0644 c 0.19578,-0.004 0.330966,0.005 0.357422,0.0234 0.05291,0.034 0.0957,1.69165 0.0957,3.6875 v 3.62891 h -1.080078 -1.080078 v -3.6211 -3.61914 l 0.984375,-0.0684 c 0.270539,-0.0189 0.526877,-0.0292 0.722656,-0.0312 z m -2.957031,0.3125 v 3.51172 3.51367 h -1.023437 -1.021485 v -3.23632 -3.23438 l 0.595703,-0.16601 c 0.328139,-0.0919 0.789107,-0.21845 1.023438,-0.2793 z m 8.001953,0.0449 v 0.002 c 0.155225,0.004 0.522054,0.0977 1.402344,0.34375 l 0.597656,0.16601 v 3.23438 3.23437 h -1.080078 -1.080078 v -3.44531 c 0,-1.89539 0.02666,-3.4777 0.06445,-3.51172 0.01587,-0.0151 0.04392,-0.0244 0.0957,-0.0234 z m 3.333985,1.07226 c 0.04694,3.8e-4 0.353577,0.15553 0.68164,0.34375 l 0.597656,0.3418 v 2.61133 2.60937 h -0.68164 -0.681641 v -2.95312 c 0,-1.62467 0.03712,-2.9537 0.08398,-2.95313 z m -14.716797,0.002 c 0.04687,-10e-4 0.08594,1.32655 0.08594,2.95118 v 2.95312 h -0.685547 -0.683593 l 0.0293,-2.64062 0.03125,-2.64063 0.56836,-0.31055 c 0.312605,-0.17045 0.607431,-0.31049 0.654297,-0.3125 z m -21.736328,2.88086 c 0.407055,0 0.40934,0.0228 0.09375,0.8086 -0.365934,0.90947 -0.433481,0.91223 -0.433594,0.0117 V 877.123 Z m -8.355469,0.91016 c -3.759421,0 -4.144069,0.0174 -4.363281,0.19727 -0.233575,0.1946 -0.241122,0.28638 -0.267579,4.00586 l -0.03125,3.78906 h 1.271485 c -0.04422,-0.0427 -0.07813,-1.57728 -0.07813,-3.41016 v -3.33398 h 3.46875 3.46875 l -0.0293,3.38086 -0.03125,3.36328 h 1.25 l -0.02539,-3.78906 c -0.02759,-3.71978 -0.03249,-3.8116 -0.267578,-4.00586 -0.219061,-0.18218 -0.603898,-0.19727 -4.363281,-0.19727 z m 28.699219,3.36523 h 8.751953 8.75 v 0.50977 0.51172 h -8.75 -8.751953 v -0.51172 z"
       transform="scale(0.26458333)"
       id="path17973-2-7-9-6-0"
       inkscape:connector-curvature="0" />
  </g>
</svg>
