<?xml version="1.0" encoding="UTF-8" standalone="no"?>
<svg
   xmlns:dc="http://purl.org/dc/elements/1.1/"
   xmlns:cc="http://creativecommons.org/ns#"
   xmlns:rdf="http://www.w3.org/1999/02/22-rdf-syntax-ns#"
   xmlns:svg="http://www.w3.org/2000/svg"
   xmlns="http://www.w3.org/2000/svg"
   xmlns:sodipodi="http://sodipodi.sourceforge.net/DTD/sodipodi-0.dtd"
   xmlns:inkscape="http://www.inkscape.org/namespaces/inkscape"
   width="39.687515mm"
   height="39.68755mm"
   viewBox="0 0 39.687515 39.68755"
   version="1.1"
   id="svg390"
   inkscape:version="1.0 (4035a4fb49, 2020-05-01)"
   sodipodi:docname="مشروع شبكة كهرباء.svg">
  <defs
     id="defs384" />
  <sodipodi:namedview
     id="base"
     pagecolor="#ffffff"
     bordercolor="#666666"
     borderopacity="1.0"
     inkscape:pageopacity="0.0"
     inkscape:pageshadow="2"
     inkscape:zoom="0.35"
     inkscape:cx="884.28566"
     inkscape:cy="547.44777"
     inkscape:document-units="mm"
     inkscape:current-layer="layer1"
     inkscape:document-rotation="0"
     showgrid="false"
     fit-margin-top="0"
     fit-margin-left="0"
     fit-margin-right="0"
     fit-margin-bottom="0"
     inkscape:window-width="1424"
     inkscape:window-height="1030"
     inkscape:window-x="224"
     inkscape:window-y="0"
     inkscape:window-maximized="0" />
  <metadata
     id="metadata387">
    <rdf:RDF>
      <cc:Work
         rdf:about="">
        <dc:format>image/svg+xml</dc:format>
        <dc:type
           rdf:resource="http://purl.org/dc/dcmitype/StillImage" />
        <dc:title />
      </cc:Work>
    </rdf:RDF>
  </metadata>
  <g
     inkscape:label="Layer 1"
     inkscape:groupmode="layer"
     id="layer1"
     transform="translate(54.887121,-3.3211109)">
    <path
       inkscape:connector-curvature="0"
       id="path17973-2-83-61"
       d="m -32.408528,3.3218106 h -6.4e-5 c -0.03333,0 -0.06538,-1.21e-5 -0.09654,0.00169 -0.154021,-0.00724 -0.270513,0.01503 -0.377259,0.079013 -0.357428,0.1559149 -0.559533,0.553139 -0.901677,1.3228096 -0.737788,1.6595978 -1.819096,2.2881188 -3.93651,2.2881188 -0.878347,0 -1.47922,-0.070448 -1.971562,-0.2798507 -0.37656,-0.2103794 -0.74347,-0.5005079 -1.126157,-0.8798183 -0.04159,-0.047951 -0.08348,-0.097699 -0.125867,-0.149425 -1.074572,-1.3106259 -1.234058,-1.3511336 -2.661526,-0.6764233 -0.677594,0.3202739 -1.845503,0.9789887 -2.595389,1.4638266 l -1.363439,0.8815557 0.142344,0.7651589 c 0.0783,0.4208435 0.259778,1.0863256 0.403208,1.4788449 0.152018,0.4160302 0.206759,0.9969022 0.131232,1.3927872 -0.204684,1.07331 -1.256787,2.719638 -2.152301,3.368027 -0.7633,0.552596 -0.943185,0.594044 -2.577317,0.594044 -0.259754,0 -0.480725,-1.2e-5 -0.670634,0.0027 -0.195047,-0.0081 -0.3613,-0.004 -0.505201,0.01651 -0.592065,0.03959 -0.673889,0.160608 -0.864909,0.529797 -0.494259,0.955285 -1.30726,4.543112 -1.222951,5.28014 0.0013,0.08844 0.01013,0.150415 0.02886,0.180657 0.03682,0.05949 0.249126,0.194987 0.555297,0.361855 0.316414,0.202357 0.732772,0.437876 1.165895,0.653745 1.397854,0.696665 1.563504,0.845474 2.052203,1.843824 0.929553,1.898784 0.41387,3.90125 -1.326345,5.150776 -1.272242,0.913511 -1.394886,1.424755 -0.688631,2.869449 0.921701,1.88531 2.287696,3.803356 2.708818,3.803356 0.209378,0 0.851976,-0.179051 1.42801,-0.397876 0.675857,-0.256723 1.179598,-0.381551 1.665715,-0.37096 0.06285,0.0024 0.126059,0.0063 0.18933,0.01098 0.424125,0.04024 0.850191,0.184734 1.382148,0.436076 0.38188,0.180443 0.720224,0.378684 1.016082,0.596168 0.343713,0.29683 0.682286,0.642262 0.959689,0.977967 0.516213,0.763133 0.70628,1.694638 0.590051,2.828627 -0.09098,0.887527 -0.05714,1.374137 0.109497,1.574804 0.237474,0.28599 2.536172,1.121455 4.093282,1.4877 0.645529,0.151825 1.079004,0.225652 1.413391,0.168437 0.100847,0.0173 0.173346,0.02844 0.206122,0.03116 0.2105,0.01741 0.506841,-0.345968 0.772493,-0.910107 0.09213,-0.160619 0.188956,-0.345727 0.295545,-0.557951 0.590498,-1.175691 0.836331,-1.457976 1.612009,-1.851619 2.199106,-1.116061 4.422496,-0.736544 5.644591,0.963571 0.480423,0.668307 0.846573,0.982004 1.146387,0.982004 h 0.01562 0.0064 c 0.01689,0 0.03834,-0.0027 0.06397,-0.008 0.711901,-0.113381 3.313225,-1.426976 4.482678,-2.278516 0.875753,-0.637739 0.91843,-0.711731 0.768561,-1.333284 -0.08728,-0.361926 -0.303011,-0.990917 -0.479351,-1.39778 -0.413075,-0.95303 -0.399564,-1.654758 0.05108,-2.642745 0.209609,-0.459542 0.426298,-0.85141 0.661888,-1.183289 0.124779,-0.15302 0.260802,-0.304978 0.408309,-0.455573 0.181648,-0.185421 0.358659,-0.347488 0.534514,-0.487673 0.693132,-0.464451 1.565955,-0.651549 2.768411,-0.656362 0.566999,0.0705 0.954765,0.0874 1.248165,-0.0019 l 0.471398,-0.0012 0.377768,-0.795884 c 0.496139,-1.045372 1.411,-4.748896 1.266232,-5.125914 -0.06224,-0.162104 -0.545937,-0.498518 -1.074828,-0.747644 -1.369123,-0.644902 -2.022817,-1.326597 -2.360015,-2.461416 -0.156204,-0.525768 -0.252602,-1.021222 -0.289793,-1.485263 -0.0028,-0.08237 -0.0041,-0.165782 -0.0041,-0.250441 0,-0.255073 0.0037,-0.481532 0.01423,-0.686339 0.108931,-0.977058 0.539785,-1.779516 1.289927,-2.393863 0.490232,-0.401483 0.943655,-0.938409 1.007604,-1.193132 0.0082,-0.03313 0.01295,-0.07088 0.01417,-0.113043 0.02781,-0.140088 -0.0097,-0.282323 -0.08032,-0.490037 -0.230416,-0.814255 -0.937696,-2.178139 -1.902392,-3.62053 -0.833424,-1.246185 -0.847669,-1.256306 -1.608317,-1.138414 -0.422075,0.06544 -1.022343,0.250682 -1.333909,0.411712 -0.687642,0.355389 -1.05548,0.356427 -2.039837,0.0054 -1.113963,-0.397127 -2.269615,-1.2617696 -2.777698,-2.0782568 -0.345969,-0.5560947 -0.469482,-1.1188598 -0.546541,-2.4900182 l -0.02841,-0.5054294 c 0.03722,-0.5169619 0.03266,-0.7748578 -0.05332,-0.9494824 l -0.01784,-0.3166188 -1.22464,-0.4568276 C -28.904559,4.054906 -30.183882,3.7018207 -31.073965,3.5215746 -31.668589,3.4011492 -32.089711,3.3237648 -32.408453,3.3211109 Z m -2.62153,5.3969226 c 0.440651,9.58e-5 0.880699,0.021195 1.318166,0.063813 4.38212,0.4268992 8.291271,2.7701578 10.732121,6.4331378 1.266017,1.899894 2.09909,4.26834 2.328457,6.620284 0.36171,3.708869 -0.849335,7.647405 -3.22777,10.497481 -0.581402,0.696666 -1.821943,1.887625 -2.481043,2.381898 -2.882598,2.161648 -6.578764,3.191363 -10.142901,2.825768 -2.775624,-0.284711 -5.613239,-1.469447 -7.718036,-3.222401 -0.26476,-0.220525 -0.603297,-0.539134 -0.947903,-0.884921 -0.157193,-0.154769 -0.310515,-0.312807 -0.459747,-0.47397 -0.39112,-0.414064 -0.74979,-0.822663 -0.969579,-1.115421 -2.142157,-2.85343 -3.177648,-6.507676 -2.836241,-10.008433 0.280564,-2.876638 1.442284,-5.697328 3.2277,-7.836782 0.581402,-0.696653 1.821942,-1.887625 2.481042,-2.381897 2.49611,-1.8717989 5.611322,-2.8997634 8.695734,-2.8985568 z m -0.06379,1.2672835 c -0.905225,0.00253 -1.815647,0.098325 -2.716082,0.2928783 -1.085613,0.234603 -1.904549,0.516528 -2.919462,1.005009 -3.781718,1.820121 -6.400184,5.16945 -7.243391,9.265143 -0.497733,2.41764 -0.263963,5.137773 0.637014,7.412043 0.812494,2.050875 2.135546,3.897438 3.775649,5.269488 2.060406,1.723689 4.577711,2.786625 7.266021,3.068115 0.858238,0.08987 2.489597,0.02472 3.445618,-0.137651 5.358334,-0.910025 9.605154,-4.985078 10.707281,-10.274265 0.823982,-3.954183 -0.151027,-7.924915 -2.727418,-11.107593 -2.478582,-3.061891 -6.302605,-4.804012 -10.22523,-4.7931673 z m -1.673785,3.4487893 h 2.142409 c 0.424499,0 0.818973,0.0046 1.152818,0.01194 0.189003,-1.33e-4 0.342397,0.0012 0.465682,0.0039 0.313,0.0027 0.523849,0.0077 0.523849,0.01651 0,0 -0.01074,0.03034 -0.01074,0.03366 0.0069,0.0023 0.01074,0.0048 0.01074,0.0071 0,0.04015 -0.518034,1.596967 -1.151248,3.459561 -0.624601,1.837456 -1.134844,3.371477 -1.148572,3.452095 0.03141,0.02549 0.375788,0.03899 0.844317,0.04443 0.01781,-0.0024 0.0331,-0.0023 0.0511,-0.0023 1.64593,-0.07482 2.909184,-0.103887 3.538345,-0.08755 h 0.01596 c 0.255484,-0.02296 0.36539,-0.02285 0.395234,0.01752 l 0.07432,-0.0023 -0.142886,0.221526 c 0,0.0012 -0.01229,0.01963 -0.01229,0.01963 -0.332156,0.570076 -1.416588,2.336745 -2.707853,4.407065 -1.552285,2.488824 -3.258254,5.228064 -3.79103,6.087303 -0.513259,0.827682 -0.83685,1.33316 -1.017531,1.582226 -0.03329,0.05212 -0.06819,0.106311 -0.07147,0.110171 -0.0076,0.009 -0.01376,0.01158 -0.01801,0.0066 -0.09404,0.112476 -0.113743,0.08993 -0.07582,-0.04494 0.02841,-0.101076 0.112621,-0.53537 0.186978,-0.964995 0.147989,-0.854655 1.165351,-6.40806 1.351243,-7.380824 0.03492,-0.213142 0.06579,-0.405089 0.07673,-0.486249 -0.04044,-0.02438 -0.204397,-0.03723 -0.498783,-0.03957 l -1.391811,0.04592 c -1.056289,0.03478 -1.993142,0.08351 -2.081757,0.108435 -0.09392,0.02641 -0.163068,-0.0052 -0.16565,-0.07578 -0.0024,-0.0666 0.774123,-2.467798 1.725693,-5.336161 z"
       style="fill:#ffd42a;fill-opacity:1;stroke-width:0.199024" />
  </g>
</svg>
