<?xml version="1.0" encoding="UTF-8" standalone="no"?>
<svg
   xmlns:dc="http://purl.org/dc/elements/1.1/"
   xmlns:cc="http://creativecommons.org/ns#"
   xmlns:rdf="http://www.w3.org/1999/02/22-rdf-syntax-ns#"
   xmlns:svg="http://www.w3.org/2000/svg"
   xmlns="http://www.w3.org/2000/svg"
   xmlns:sodipodi="http://sodipodi.sourceforge.net/DTD/sodipodi-0.dtd"
   xmlns:inkscape="http://www.inkscape.org/namespaces/inkscape"
   id="airport"
   width="80"
   height="80"
   viewBox="0 0 80 80"
   version="1.1"
   sodipodi:docname="sewerage_coverage_area.svg"
   inkscape:version="0.92.4 (5da689c313, 2019-01-14)">
  <metadata
     id="metadata10416">
    <rdf:RDF>
      <cc:Work
         rdf:about="">
        <dc:format>image/svg+xml</dc:format>
        <dc:type
           rdf:resource="http://purl.org/dc/dcmitype/StillImage" />
        <dc:title></dc:title>
      </cc:Work>
    </rdf:RDF>
  </metadata>
  <sodipodi:namedview
     pagecolor="#ffffff"
     bordercolor="#666666"
     borderopacity="1"
     objecttolerance="10"
     gridtolerance="10"
     guidetolerance="10"
     inkscape:pageopacity="0"
     inkscape:pageshadow="2"
     inkscape:window-width="1920"
     inkscape:window-height="1001"
     id="namedview10414"
     showgrid="false"
     fit-margin-top="0"
     fit-margin-left="0"
     fit-margin-right="0"
     fit-margin-bottom="0"
     inkscape:zoom="1.475"
     inkscape:cx="-98.093"
     inkscape:cy="202.60845"
     inkscape:window-x="-9"
     inkscape:window-y="-9"
     inkscape:window-maximized="1"
     inkscape:current-layer="g7012" />
  <defs
     id="defs10407">
    <filter
       id="Path_29"
       x="19.5"
       y="18"
       width="40.375"
       height="42.625"
       filterUnits="userSpaceOnUse">
      <feOffset
         dy="-1"
         input="SourceAlpha"
         id="feOffset10396" />
      <feGaussianBlur
         result="blur"
         id="feGaussianBlur10398" />
      <feFlood
         flood-opacity="0.102"
         id="feFlood10400" />
      <feComposite
         operator="in"
         in2="blur"
         id="feComposite10402"
         result="result1" />
      <feComposite
         in="SourceGraphic"
         in2="result1"
         id="feComposite10404" />
    </filter>
  </defs>
  <g
     id="g7090"
     transform="matrix(0.27575583,0,0,0.27575583,87.689203,41.231064)">
    <g
       id="g7012"
       transform="matrix(3.7795276,0,0,3.7795276,-955.50496,-1026.7716)">
      <g
         id="g3486"
         transform="translate(401.74181,138.22814)">
        <circle
           style="opacity:1;fill:#666666;fill-opacity:1;stroke-width:0.9594841"
           r="38.379364"
           cy="132.25732"
           cx="-194.68816"
           data-name="Ellipse 130"
           id="Ellipse_130-4-4-3-6-5-0-7-3-1-6" />
        <g
           id="g3475">
          <path
             style="fill:#ffffff;fill-opacity:1;stroke-width:0.07380198"
             d="m -211.16301,102.69624 -1.15475,0.0146 -0.63495,9.5e-4 c -0.98433,0.002 -1.93438,0.0312 -2.11128,0.0654 -0.0777,0.0151 -0.15163,0.0369 -0.22242,0.0627 -6.6e-4,2.2e-4 -0.001,4.6e-4 -0.002,8.9e-4 -0.0547,0.02 -0.1079,0.0419 -0.15726,0.0674 -0.0782,0.0284 -0.13962,0.0627 -0.18983,0.10513 -0.0368,0.004 -0.071,0.0306 -0.10825,0.10825 -0.008,0.009 -0.0204,0.0174 -0.0268,0.0246 -0.0159,0.0175 -0.0311,0.0416 -0.0488,0.0878 -0.0149,0.0235 -0.0287,0.0474 -0.0404,0.072 -0.0464,0.0978 -0.23791,1.09117 -0.42566,2.20743 -0.24106,1.43322 -0.6106,3.61112 -1.06825,6.30114 -0.007,0.0155 -0.009,0.038 -0.0104,0.0632 -0.34384,2.02103 -0.7195,4.22693 -1.21686,7.14135 -0.18358,1.07567 -0.66663,3.9152 -1.07345,6.31008 -0.40681,2.39487 -0.82322,4.83587 -0.92526,5.42445 -0.36624,2.11246 -0.82381,4.86874 -0.8385,5.04808 -0.002,0.002 -0.002,0.005 -0.002,0.007 0,9.5e-4 0.001,0.002 0.001,0.004 -5e-5,9.5e-4 -0.001,0.009 -0.001,0.009 0,0.004 0.001,0.006 0.004,0.009 -2.2e-4,0.002 -0.004,0.0229 -0.004,0.0239 0,2.3e-4 0.002,6.7e-4 0.002,8.9e-4 -4.4e-4,0.006 -0.002,0.0202 -0.002,0.0235 0,0.004 0.04,0.006 0.10698,0.009 0.12203,0.0278 0.38694,0.0326 0.96318,0.0326 0.20785,0 0.37943,-0.004 0.53218,-0.009 0.29745,0.002 0.71356,0.005 1.12201,0.006 4.5e-4,1e-5 8.9e-4,0 0.001,0 0.0811,2.1e-4 0.17984,1.5e-4 0.2632,6.7e-4 l 1.7e-4,2.2e-4 h 0.0522 l 0.008,0.0118 1.24901,-0.009 c 0.0554,3e-5 0.10189,2.4e-4 0.15769,2.4e-4 0.10143,0 0.17062,-1.6e-4 0.26783,-1.6e-4 h 4.25384 l 0.0715,-0.0363 0.0657,-6.7e-4 0.008,-0.005 0.0865,-0.0485 c 0.0522,-0.017 0.10513,-0.0389 0.15828,-0.0655 0.17816,-0.0623 0.27079,-0.14942 0.40086,-0.27143 0.062,-0.0581 0.13459,-0.14802 0.20094,-0.2436 0.0422,-0.0567 0.0801,-0.11473 0.11218,-0.17341 l 0.13996,-0.2018 1.6e-4,-0.1339 1.5e-4,-0.029 0.0367,-0.0722 v -15.92801 -14.56089 -0.006 -0.26712 l 0.001,-1.09404 h -0.001 v -0.0737 z"
             id="path2138-4-0"
             inkscape:connector-curvature="0" />
          <path
             style="fill:#ffffff;fill-opacity:1;stroke-width:0.07380198"
             d="m -195.14913,102.70924 -12.91649,1.5e-4 1.5e-4,0.0362 h -8.9e-4 l 1.5e-4,0.037 h -2.2e-4 l 0.004,1.02501 v 4.33788 0.006 1.00398 4.36484 0.65586 c -4.5e-4,0.0452 -1.6e-4,0.0926 0,0.14154 v 1.27741 l 0.0368,0.0737 1.5e-4,0.066 0.0931,0.15754 c 0.0135,0.0506 0.0288,0.0879 0.0464,0.12339 0.091,0.18336 0.23397,0.34753 0.41109,0.47987 0.0323,0.0267 0.065,0.0521 0.0988,0.0744 l 0.29896,0.19806 0.16865,0.002 c 0.005,9.5e-4 0.009,0.002 0.0137,0.004 0.54786,0.14491 13.63494,0.13213 14.16422,-0.0138 0.11923,-0.0328 0.21975,-0.0687 0.31812,-0.12323 0.0962,-0.0458 0.16525,-0.081 0.3138,-0.24736 0.23877,-0.24052 0.54409,-0.64908 1.08008,-1.39649 0.46435,-0.64749 1.44616,-2.00749 2.18177,-3.02227 3.53966,-4.88298 5.26107,-7.26497 6.03807,-8.36154 0.0705,-0.0965 0.21385,-0.29389 0.24534,-0.33613 0.16858,-0.22618 0.30646,-0.43076 0.31928,-0.47266 l 0.0125,-0.018 h -0.004 v -1.6e-4 h -0.0116 c 6.6e-4,-0.002 0.005,-0.008 0.005,-0.01 0,-0.008 -0.33202,-0.0163 -0.8888,-0.0235 -0.89571,-0.0211 -2.86134,-0.0297 -6.23858,-0.0332 -1.75082,-0.005 -3.66078,-0.007 -5.78913,-0.007 z"
             id="path2136-1-0"
             inkscape:connector-curvature="0" />
          <path
             style="fill:#ffffff;fill-opacity:1;stroke-width:0.07380198"
             d="m -176.48487,102.72384 c -0.0202,-1.6e-4 -0.0419,2.2e-4 -0.0622,1.5e-4 -0.008,-3e-5 -0.0187,1.5e-4 -0.0274,1.5e-4 -0.14923,-4.4e-4 -0.30101,-8.9e-4 -0.45333,0.002 l -1.32685,0.02 -1.31387,1.80815 c -0.60371,0.83082 -0.98237,1.35571 -1.22148,1.72051 -0.12011,0.17528 -0.21363,0.31496 -0.23827,0.36151 -0.028,0.053 -0.0516,0.11531 -0.0715,0.18291 -0.0863,0.20409 -0.0943,0.3461 -0.0925,0.54646 0.005,0.49451 0.14896,0.80229 0.56836,1.20838 0.16908,0.1637 0.85356,0.82936 1.52115,1.47919 0.66759,0.64985 2.15991,2.09454 3.31619,3.21039 1.15627,1.11588 2.45101,2.36708 2.87712,2.78041 0.23109,0.22415 0.43508,0.41793 0.58047,0.5528 0.0425,0.0447 0.0723,0.0773 0.0751,0.0837 v 0 c 0.0273,0.0633 0.0434,0.0759 0.0473,0.0305 0.0498,0.0457 0.0804,0.0726 0.0819,0.0707 v -9.5e-4 c 0,-1e-5 6.5e-4,6.7e-4 6.5e-4,6.7e-4 5e-5,-6e-5 -6.5e-4,-0.004 -6.5e-4,-0.004 3e-5,0 0.004,0.004 0.004,0.002 3e-5,-5e-5 -5e-5,-9.5e-4 0,-9.5e-4 l 0.002,9.5e-4 c 0,-1.5e-4 -0.002,-0.0179 -0.002,-0.0194 -6.8e-4,-0.01 -0.002,-0.0236 -0.005,-0.046 0.0125,-0.007 0.009,-0.0328 -0.006,-0.076 -0.002,-0.007 -0.008,-0.0355 -0.0136,-0.0576 -6.6e-4,-0.002 -0.002,-0.0116 -0.002,-0.0142 -0.0644,-0.41268 -0.2277,-1.39163 -0.42308,-2.53088 -0.25743,-1.50108 -0.7713,-4.51474 -1.14191,-6.69696 -0.009,-0.0541 -0.0149,-0.0866 -0.0241,-0.14011 -0.0323,-0.19069 -0.0615,-0.36174 -0.0919,-0.54169 l -0.56088,-3.32113 -0.0271,-0.0275 c -0.002,-0.009 -0.007,-0.0336 -0.008,-0.0358 -0.0405,-0.10535 -0.19383,-0.2293 -0.38501,-0.32981 -0.032,-0.0211 -0.0644,-0.038 -0.0937,-0.0468 -0.0346,-0.0177 -0.0707,-0.0338 -0.11414,-0.0464 -6.7e-4,-1.5e-4 -0.001,-2.2e-4 -0.002,-4.4e-4 -0.0749,-0.0281 -0.15139,-0.0523 -0.22659,-0.0684 -0.10351,-0.0221 -0.37085,-0.0389 -0.70416,-0.0486 -0.0692,-0.002 -0.15107,-0.004 -0.22804,-0.005 -0.0694,-9.5e-4 -0.13216,-0.004 -0.20482,-0.004 z"
             id="path2134-3-4"
             inkscape:connector-curvature="0" />
          <path
             style="fill:#ffffff;fill-opacity:1;stroke-width:0.07380198"
             d="m -183.37483,110.90187 c -0.16246,-8.9e-4 -0.32724,0.0186 -0.48015,0.0568 -0.24093,0.0567 -0.46098,0.15609 -0.61261,0.29333 -0.0157,0.0143 -0.0489,0.0531 -0.0908,0.10466 v 1.6e-4 c -0.0268,0.028 -0.0522,0.057 -0.0759,0.0871 -0.0127,0.0163 -0.0914,0.12432 -0.13939,0.18956 -0.12069,0.15916 -0.26654,0.35718 -0.42118,0.57009 -0.49318,0.66777 -1.28607,1.76816 -2.63092,3.63013 -1.91906,2.65697 -2.71443,3.70146 -2.92542,3.8416 l -0.13867,0.0921 c -0.10143,0.0505 -0.23209,0.0821 -0.7853,0.10316 l -7.30495,0.0341 -7.93919,0.0369 -0.12498,0.0736 -0.0353,1.5e-4 -0.11877,0.0823 c -0.008,0.002 -0.0189,0.004 -0.0224,0.006 -0.0435,0.0249 -0.0908,0.0611 -0.1391,0.10132 -0.27849,0.18232 -0.45326,0.38944 -0.57341,0.6818 l -0.093,0.15034 -1.5e-4,0.0773 -0.0368,0.0738 v 1.83323 1.57521 0.21045 5.47333 5.35856 0.0334 0.0812 11.11931 1.6085 0.72793 l -0.001,0.88044 h 0.001 5.27628 0.0209 5.25075 0.009 0.0368 l -0.4222,-0.85579 c -1.86788,-3.78624 -3.03379,-7.81152 -3.50705,-12.11189 -0.10027,-0.95713 -0.16725,-1.93577 -0.20194,-2.94068 -0.005,-0.18823 -0.0104,-0.37654 -0.0146,-0.58653 l -0.014,-0.65254 0.0215,-1.29255 c 0.009,-0.0411 0.0222,-0.0683 0.0372,-0.0876 l 0.43792,-0.24749 c 0.16905,-0.0934 0.40045,-0.22521 0.67589,-0.38385 0.52115,-0.29669 1.262,-0.72152 1.87661,-1.07734 2.37366,-1.37422 4.25221,-2.4596 5.68276,-3.28333 0.77123,-0.44408 2.71406,-1.56623 4.31741,-2.49369 1.29262,-0.74771 2.52246,-1.44863 3.12375,-1.78235 0.42982,-0.22376 0.78216,-0.38991 1.09119,-0.51229 0.46516,-0.16734 0.9495,-0.28061 1.44101,-0.33759 0.23246,-0.0149 0.47955,-0.019 0.76483,-0.0173 0.40914,0.002 0.76066,0.0233 1.08424,0.0686 0.16402,0.0284 0.32731,0.0618 0.48894,0.10317 0.0594,0.0152 0.10652,0.0279 0.15871,0.0414 0.40365,0.12782 0.83538,0.31081 1.32859,0.55754 0.0304,0.0163 0.067,0.0364 0.0992,0.0538 0.43279,0.24041 1.09272,0.61253 1.86941,1.05341 0.80568,0.4622 1.82488,1.05104 3.19986,1.84519 0.9336,0.53921 2.02955,1.17239 2.43547,1.40699 0.22733,0.13141 0.381,0.2183 0.49528,0.27619 0.031,0.0174 0.0671,0.0381 0.0915,0.0504 6.6e-4,2.2e-4 0.005,0.002 0.005,0.004 0.11495,0.0753 0.15746,0.0857 0.22285,0.0246 0.0142,-0.0116 0.0286,-0.0254 0.0444,-0.0445 6.7e-4,-8.9e-4 0.001,-0.002 0.002,-0.002 6.6e-4,-6.8e-4 0.001,-9e-4 0.002,-9.5e-4 0.001,-0.002 0.002,-0.005 0.005,-0.007 0.017,-0.0155 0.0317,-0.0316 0.0397,-0.061 0.0538,-0.12811 0,-0.5203 -0.22531,-1.84188 -0.0334,-0.19846 -0.0555,-0.33595 -0.0976,-0.58276 l -0.36886,-2.1665 c -0.005,-0.03 -0.0277,-0.164 -0.0279,-0.16692 0,-1.5e-4 -8.9e-4,-9.4e-4 -8.9e-4,-9.4e-4 l -0.005,-0.0269 -0.0148,-0.0146 -0.002,-0.0139 -0.006,-0.006 v -6.7e-4 l -0.017,-0.0165 -0.002,-0.0104 -0.26493,-0.24764 -0.52052,-0.50407 c -0.87093,-0.8533 -2.55347,-2.48483 -5.70042,-5.52988 -1.21772,-1.1783 -2.76731,-2.68266 -3.44361,-3.34314 -0.69939,-0.68304 -1.34287,-1.24818 -1.49217,-1.31057 -0.17206,-0.072 -0.38258,-0.10767 -0.59763,-0.10871 z"
             id="path2132-3-3"
             inkscape:connector-curvature="0" />
          <path
             style="fill:#ffffff;fill-opacity:1;stroke-width:0.07380198"
             d="m -182.16401,124.40375 c -0.39529,-0.005 -0.7877,0.0448 -1.09521,0.14832 -0.0563,0.019 -0.12364,0.0459 -0.20916,0.0849 -0.10837,0.0406 -0.21353,0.0859 -0.31409,0.13693 -0.3003,0.15232 -1.60464,0.89777 -4.14531,2.36729 -0.65449,0.37699 -1.22697,0.70616 -2.09774,1.20895 -1.05913,0.61152 -3.42897,1.9754 -5.26616,3.03078 l -3.34027,1.91884 10e-4,0.0477 -0.006,0.004 1.5e-4,0.002 -0.002,9.5e-4 2.3e-4,0.009 0.0232,0.52741 v 9e-4 c -6.6e-4,0.66847 0.0376,1.41316 0.10906,2.19648 0.37534,4.76132 1.81442,9.36805 4.2416,13.59196 0.31995,0.55882 0.65623,1.10831 1.00887,1.64727 0.0219,0.0336 0.0433,0.0673 0.0652,0.10074 0.04,0.0607 0.0808,0.12091 0.12124,0.18134 0.0644,0.0968 0.1282,0.19373 0.19373,0.29002 0.2338,0.34356 0.47573,0.68363 0.72504,1.01982 l 0.0456,0.0654 0.002,-0.002 c 0.0116,0.0155 0.0232,0.0309 0.0349,0.0464 l -0.001,9.5e-4 0.035,0.0437 c 0.22246,0.29614 0.45031,0.58934 0.68412,0.87899 0.27487,0.34407 0.54401,0.66352 0.82479,0.98163 0.46565,0.53267 0.94971,1.05218 1.45038,1.55618 0.0612,0.0644 0.12469,0.12744 0.19013,0.18912 0.7801,0.77292 1.59892,1.50855 2.44887,2.19979 0.067,0.0549 0.1343,0.10918 0.20152,0.16332 0.001,8.9e-4 0.002,0.002 0.004,0.002 0.63485,0.51172 1.28189,0.99042 1.9595,1.45096 0.0568,0.0389 0.11357,0.0775 0.17052,0.11589 0.0186,0.0125 0.0374,0.0249 0.0561,0.0375 0.30561,0.20513 0.61381,0.405 0.92469,0.59805 l 0.92094,0.57197 0.3337,-0.19056 c 0.19636,-0.11218 0.48256,-0.29207 0.80317,-0.50061 0.55268,-0.35242 1.16047,-0.76804 1.74991,-1.19524 0.20081,-0.14393 0.39087,-0.28226 0.54804,-0.40159 0.20703,-0.15717 0.41183,-0.31682 0.61463,-0.47842 0.0406,-0.0322 0.0843,-0.0654 0.12382,-0.0973 0.69399,-0.55836 1.0307,-0.83999 1.53227,-1.31345 0.65721,-0.59839 1.28801,-1.2217 1.89173,-1.86767 0.0316,-0.022 0.0577,-0.0492 0.0743,-0.08 0.94808,-1.02119 1.82847,-2.09898 2.6364,-3.22696 l 0.005,-0.006 v -1.5e-4 c 0.096,-0.13409 0.19075,-0.26884 0.28469,-0.40433 0.0259,-0.0373 0.0515,-0.0747 0.0773,-0.11195 0.0305,-0.0446 0.0613,-0.0888 0.0917,-0.13348 1.22821,-1.80029 2.26924,-3.71591 3.11194,-5.72427 0.81031,-1.92325 1.44148,-3.93205 1.87877,-6.00361 0.1329,-0.62959 0.25974,-1.39222 0.36599,-2.15684 0.012,-0.0844 0.0237,-0.16895 0.0351,-0.25354 0.005,-0.0369 0.0104,-0.0734 0.0147,-0.11022 0.0266,-0.20199 0.0514,-0.40443 0.0744,-0.60743 0.0235,-0.20691 0.0457,-0.41419 0.0655,-0.62212 0.009,-0.0916 0.0165,-0.19876 0.0246,-0.3004 0.0206,-0.24812 0.0378,-0.48558 0.0475,-0.6968 0.0104,-0.18365 0.0186,-0.35946 0.0251,-0.52915 6e-5,-0.002 7e-5,-0.004 0,-0.005 0.003,-0.0865 0.007,-0.17207 0.008,-0.25096 0.0148,-0.33298 0.0287,-0.62767 0.0367,-0.75618 0.008,-0.13776 0.004,-0.25625 -0.0124,-0.3435 l 0.004,-0.0958 -0.0118,-0.009 0.001,-0.0473 -1.49233,-0.8506 -0.014,-0.009 c -0.18074,-0.10479 -0.36188,-0.21001 -0.55742,-0.3223 -1.06012,-0.60887 -1.92885,-1.14645 -1.93052,-1.19467 -0.002,-0.0435 -0.0509,-0.0746 -0.11241,-0.0767 -0.009,-0.0138 -0.0198,-0.0156 -0.0332,-0.004 -0.0845,-0.0183 -0.49517,-0.2306 -1.0299,-0.52756 -0.37437,-0.2131 -1.01394,-0.58068 -1.72657,-0.99071 -2.84839,-1.65104 -4.87517,-2.82152 -6.11605,-3.52636 -0.32343,-0.18635 -0.73978,-0.42664 -0.95064,-0.54789 -0.34554,-0.1987 -0.68741,-0.37766 -0.96994,-0.51128 -0.16943,-0.0857 -0.28468,-0.1382 -0.35619,-0.16303 -0.0512,-0.0178 -0.10513,-0.0338 -0.16014,-0.0489 -0.007,-0.002 -0.017,-0.006 -0.0238,-0.007 -0.0146,-0.004 -0.0294,-0.007 -0.0439,-0.0104 -0.0202,-0.005 -0.0407,-0.009 -0.0614,-0.0145 -0.0289,-0.007 -0.0578,-0.013 -0.0871,-0.0187 -0.0125,-0.002 -0.0251,-0.005 -0.0376,-0.007 -0.15071,-0.0284 -0.30432,-0.0473 -0.45939,-0.0566 -0.0793,-0.006 -0.15908,-0.009 -0.23884,-0.009 z"
             id="path2130-7-5"
             inkscape:connector-curvature="0" />
          <path
             style="fill:#ffffff;fill-opacity:1;stroke-width:0.07380198"
             d="m -221.99273,139.01928 -0.002,0.0135 -0.0392,0.2635 c -0.009,0.0651 -0.065,0.39343 -0.12885,0.77059 -0.24648,1.40049 -0.50041,2.88965 -0.73414,4.28081 -0.5915,3.45036 -0.73883,4.38389 -0.7386,4.64001 1e-5,0.009 6.7e-4,0.0178 8.9e-4,0.0267 -1.5e-4,0.004 -0.001,0.0127 -0.001,0.0159 0,0.10582 0.0201,0.21205 0.056,0.31424 0.0628,0.25864 0.21209,0.43565 0.47842,0.59804 0.0147,0.009 0.029,0.0174 0.0444,0.0252 0.0148,0.009 0.0307,0.0147 0.0486,0.0212 0.0438,0.0233 0.0866,0.0406 0.12613,0.0481 0.0121,0.002 0.0737,0.005 0.17009,0.007 0.085,0.0201 0.16488,0.0332 0.2204,0.0326 l 0.2214,-0.002 -0.0449,-0.0116 c 0.0643,0.002 0.12983,0.005 0.20684,0.006 0.38987,0.009 0.95066,0.0143 1.77068,0.017 0.41252,9.5e-4 1.11814,9.5e-4 1.67308,9.5e-4 0.0407,3e-5 0.0812,1.6e-4 0.12281,1.6e-4 0.52333,2.2e-4 0.89944,9.5e-4 1.56556,9.5e-4 h 0.001 l 5.8119,1.4e-4 h 1.5e-4 v -1.4e-4 -4.80131 -0.10871 c 0,-0.67047 2.2e-4,-1.25452 -2.2e-4,-1.76432 v -0.009 c -8.9e-4,-0.74556 -0.003,-1.33101 -0.0104,-1.7956 -1.6e-4,-0.009 -1.6e-4,-0.0198 -2.3e-4,-0.0285 -2.2e-4,-0.0161 -6.6e-4,-0.0284 -8.8e-4,-0.0441 -0.005,-0.3146 -0.0124,-0.57104 -0.0228,-0.78242 l -0.002,-0.59198 v -0.0117 l -0.0561,-0.0918 c -0.0104,-0.0304 -0.0215,-0.0611 -0.0352,-0.0919 -8.8e-4,-0.002 -0.002,-0.004 -0.002,-0.006 -3e-5,-7e-5 -7e-5,-2.2e-4 -1.5e-4,-2.2e-4 -8.9e-4,-0.004 -0.002,-0.007 -0.002,-0.0104 -0.006,-0.0211 -0.0129,-0.0411 -0.0199,-0.0598 -0.0123,-0.033 -0.0256,-0.0622 -0.0398,-0.0895 -0.002,-0.004 -0.004,-0.009 -0.006,-0.0119 -4e-5,-6e-5 -1.5e-4,-8e-5 -1.5e-4,-1.6e-4 -0.0579,-0.10675 -0.13247,-0.17925 -0.22876,-0.28194 -0.0104,-0.0104 -0.0216,-0.0216 -0.0332,-0.0327 -0.004,-0.005 -0.007,-0.009 -0.009,-0.009 -0.0342,-0.032 -0.0767,-0.0652 -0.12022,-0.0986 -0.0401,-0.0318 -0.0808,-0.0617 -0.12339,-0.0912 -0.0651,-0.0451 -0.13028,-0.0871 -0.18666,-0.11604 -0.0647,-0.0333 -0.12808,-0.0587 -0.25615,-0.0781 l -0.12382,-0.0627 h -3.01262 -0.0127 c -0.0262,-1e-5 -0.0385,-1.6e-4 -0.0653,-1.6e-4 -0.13161,0 -0.22887,9.5e-4 -0.35286,9.5e-4 -0.0305,5e-5 -0.0547,2.3e-4 -0.0844,2.3e-4 -0.40763,-2.3e-4 -0.68494,-9.5e-4 -1.19309,-9.5e-4 h -1.85681 c -0.004,-1e-5 -0.006,-1.5e-4 -0.008,-1.5e-4 -8.9e-4,0 -0.002,1.5e-4 -0.002,1.5e-4 h -0.0308 -0.0275 -2.48908 z"
             id="path2053-5-4"
             inkscape:connector-curvature="0" />
          <path
             inkscape:connector-curvature="0"
             id="path17973-2-9"
             d="m -185.92932,131.16187 v 0 c 0.6633,-0.003 0.84321,0.0274 1.11015,0.18376 0.17998,0.10544 0.29637,0.24467 0.40004,0.47886 0.0987,0.22314 0.13099,0.74501 0.1325,2.15031 l 0.002,1.12763 0.26365,0.021 c 1.55936,0.12423 2.64878,0.42036 3.87352,1.05283 2.44082,1.26045 4.19258,3.48252 4.83029,6.12721 0.18399,0.7631 0.22439,1.16943 0.23988,2.40986 0.008,0.63581 0.0216,1.18988 0.0306,1.23129 0.0227,0.10701 0.29237,0.17971 0.66651,0.17971 0.51273,0 0.91763,-0.16712 1.55999,-0.64387 0.56207,-0.41709 1.02742,-0.61802 1.57224,-0.67896 0.44072,-0.0493 0.63908,0.0572 0.63908,0.34304 0,0.26661 -0.17501,0.43575 -0.45099,0.43575 -0.35199,0 -0.76,0.1846 -1.35199,0.61184 -0.79414,0.57306 -1.18423,0.7214 -1.90515,0.72434 -0.74163,0.003 -1.15586,-0.15401 -1.89933,-0.72031 -0.24946,-0.19001 -0.52877,-0.38355 -0.62062,-0.43008 -0.54979,-0.27845 -1.26486,-0.23204 -1.84578,0.11985 -0.10012,0.0607 -0.34307,0.22791 -0.54005,0.37174 -0.74274,0.54259 -1.38676,0.73952 -2.12132,0.64855 -0.55363,-0.0685 -0.88692,-0.22375 -1.59678,-0.74321 -0.60046,-0.43943 -0.96214,-0.58146 -1.47984,-0.58174 -0.49382,0 -0.77653,0.1206 -1.4555,0.62224 -0.54861,0.40534 -0.78236,0.53623 -1.13025,0.63271 -0.29612,0.0821 -0.81292,0.11424 -1.10405,0.0686 -0.5239,-0.0821 -0.85028,-0.22926 -1.42312,-0.64112 -0.72033,-0.5179 -0.94898,-0.62692 -1.42763,-0.68042 -0.24863,-0.0278 -0.28892,-0.0424 -0.37132,-0.13455 -0.17742,-0.19845 -0.14544,-0.5083 0.0639,-0.61998 0.10187,-0.0544 0.40575,-0.0515 0.69035,0.006 0.4603,0.0938 0.69287,0.21809 1.71802,0.91834 0.60578,0.41381 1.33134,0.48074 1.958,0.18059 0.13387,-0.0641 0.42928,-0.25285 0.65655,-0.41934 0.77653,-0.56884 1.15775,-0.71656 1.84917,-0.71656 0.23044,0 0.48696,0.0221 0.63251,0.0545 0.35062,0.0778 0.80227,0.30369 1.2144,0.6071 0.46743,0.34417 0.70306,0.47986 1.01517,0.58457 0.21991,0.0738 0.30391,0.0843 0.59144,0.0745 0.24988,-0.009 0.34398,-0.0245 0.37006,-0.0625 0.0445,-0.0647 0.0143,-1.54736 -0.0385,-1.89869 -0.0633,-0.42084 -0.16255,-0.75582 -0.3223,-1.08754 -0.4675,-0.97082 -1.27832,-1.68777 -2.2875,-2.02277 -0.36243,-0.12029 -0.93764,-0.22241 -1.03747,-0.18411 -0.043,0.0165 -0.0547,0.13117 -0.0692,0.67697 -0.0187,0.69936 -0.0481,0.85714 -0.21265,1.13766 -0.19781,0.33735 -0.47814,0.45053 -1.21995,0.49272 -0.8706,0.0495 -1.27749,-0.0364 -1.56735,-0.33096 -0.22458,-0.22833 -0.2922,-0.42577 -0.32753,-0.95588 -0.0203,-0.30519 -0.0455,-0.47353 -0.0736,-0.4913 -0.0234,-0.0149 -1.34079,-0.0273 -2.92743,-0.0276 -3.13251,-0.002 -3.02524,0.005 -3.11299,-0.18657 l -7e-5,-0.013 v -7.99462 c 0.0306,-0.0773 0.075,-0.14121 0.12763,-0.1694 0.0434,-0.0233 1.04029,-0.0351 2.96158,-0.0351 1.93131,0 2.91806,-0.0116 2.96195,-0.0352 0.0593,-0.0317 0.0658,-0.0745 0.0658,-0.4358 0,-0.49359 0.0515,-0.68604 0.2413,-0.90158 0.30302,-0.34408 0.59315,-0.4286 1.4821,-0.43178 z m 8.00632,17.92768 v 7e-5 c 0.0446,0 0.0899,0.003 0.13604,0.005 0.62333,0.0332 1.00402,0.17878 1.5326,0.58584 0.73878,0.56895 1.0566,0.72532 1.52916,0.75261 0.54211,0.0313 0.96173,-0.12835 1.63469,-0.62189 0.66066,-0.48451 1.18019,-0.69239 1.76125,-0.70511 0.27989,-0.006 0.28421,-0.005 0.38264,0.10471 0.15931,0.17764 0.12056,0.49302 -0.0757,0.61554 -0.036,0.0224 -0.18832,0.0562 -0.33857,0.0749 -0.45807,0.0574 -0.72396,0.18438 -1.34642,0.64295 -0.40986,0.30199 -0.66792,0.44638 -1.01423,0.56704 -0.25464,0.0887 -0.30835,0.0946 -0.83355,0.0956 -0.82769,0.002 -1.08805,-0.0942 -1.88116,-0.69018 -0.27457,-0.20631 -0.59337,-0.41357 -0.73832,-0.48007 -0.23068,-0.10577 -0.29101,-0.11837 -0.62933,-0.13121 -0.33354,-0.0126 -0.40233,-0.005 -0.63264,0.0727 -0.31292,0.10513 -0.54703,0.23959 -1.01726,0.58413 -0.65354,0.47879 -1.03907,0.6266 -1.70529,0.65385 -0.79414,0.0325 -1.16611,-0.1109 -2.12027,-0.81689 -0.49479,-0.3661 -0.85965,-0.50027 -1.35985,-0.50027 -0.53554,0 -0.80657,0.11626 -1.53601,0.65893 -0.72218,0.53733 -1.07881,0.66855 -1.80724,0.66516 -0.28402,-0.002 -0.47615,-0.0214 -0.65662,-0.0684 -0.37809,-0.0987 -0.67876,-0.25612 -1.19072,-0.62367 -0.67193,-0.48233 -0.88532,-0.57639 -1.47687,-0.65079 -0.29897,-0.0377 -0.46036,-0.30086 -0.34854,-0.56839 0.0757,-0.18091 0.21804,-0.24249 0.49632,-0.21436 0.53628,0.0542 0.98038,0.22549 1.49073,0.57515 0.15434,0.10577 0.40153,0.27489 0.54937,0.37572 0.77445,0.52811 1.61505,0.51309 2.37955,-0.0425 0.48689,-0.35382 0.90391,-0.6241 1.08927,-0.70603 0.7447,-0.32915 1.70061,-0.26065 2.41993,0.17338 0.14031,0.0847 0.40061,0.26139 0.57838,0.39286 0.67206,0.49712 1.18399,0.65381 1.77271,0.54223 0.29038,-0.0551 0.55782,-0.20104 1.05085,-0.5736 0.68316,-0.5162 1.1682,-0.72565 1.77349,-0.74358 0.0433,-0.002 0.0871,-0.002 0.13165,-0.002 z"
             style="fill:#666666;fill-opacity:1;stroke-width:0.2258127"
             sodipodi:nodetypes="cccccccccccsccssccccccccccccccccccccsccccccccccccccccccccscsccccccccccccccsccccccssscccccccccccccccccc" />
        </g>
      </g>
    </g>
  </g>
</svg>
