<?xml version="1.0" encoding="UTF-8" standalone="no"?>
<svg
   xmlns:dc="http://purl.org/dc/elements/1.1/"
   xmlns:cc="http://creativecommons.org/ns#"
   xmlns:rdf="http://www.w3.org/1999/02/22-rdf-syntax-ns#"
   xmlns:svg="http://www.w3.org/2000/svg"
   xmlns="http://www.w3.org/2000/svg"
   xmlns:sodipodi="http://sodipodi.sourceforge.net/DTD/sodipodi-0.dtd"
   xmlns:inkscape="http://www.inkscape.org/namespaces/inkscape"
   id="Hospitals"
   width="78"
   height="78"
   viewBox="0 0 78 78"
   version="1.1"
   sodipodi:docname="School Health Unit.svg"
   inkscape:version="0.92.4 (5da689c313, 2019-01-14)">
  <metadata
     id="metadata1589">
    <rdf:RDF>
      <cc:Work
         rdf:about="">
        <dc:format>image/svg+xml</dc:format>
        <dc:type
           rdf:resource="http://purl.org/dc/dcmitype/StillImage" />
        <dc:title></dc:title>
      </cc:Work>
    </rdf:RDF>
  </metadata>
  <defs
     id="defs1587" />
  <sodipodi:namedview
     pagecolor="#ffffff"
     bordercolor="#666666"
     borderopacity="1"
     objecttolerance="10"
     gridtolerance="10"
     guidetolerance="10"
     inkscape:pageopacity="0"
     inkscape:pageshadow="2"
     inkscape:window-width="1920"
     inkscape:window-height="1001"
     id="namedview1585"
     showgrid="false"
     inkscape:zoom="3.025641"
     inkscape:cx="13.677664"
     inkscape:cy="22.215745"
     inkscape:window-x="-9"
     inkscape:window-y="-9"
     inkscape:window-maximized="1"
     inkscape:current-layer="Hospitals" />
  <g
     id="g2979">
    <circle
       r="39"
       cy="39"
       cx="39"
       data-name="Ellipse 78"
       id="Ellipse_78"
       style="fill:#f27070" />
    <g
       id="g2973">
      <path
         style="fill:#da6565;fill-opacity:1;stroke-width:0.08279075"
         d="m 34.951803,19.868627 -0.687223,0.217168 c -0.626995,0.198052 -0.734605,0.265376 -1.225531,0.767105 -0.299055,0.305641 -0.64849,0.770054 -0.786511,1.045399 l -0.248372,0.495445 -0.02639,1.800699 -0.0265,1.800703 -0.263252,0.01101 c -0.144805,0.0061 -3.001712,0.01663 -6.348523,0.02345 -6.851455,0.01393 -6.386449,-0.02931 -7.045135,0.656181 -0.242454,0.252323 -0.388348,0.23342 -0.476855,0.82516 l -0.05335,0.09864 -9.43e-4,0.445809 c -0.0949,1.408208 -0.08086,4.679786 -0.08861,12.842105 -0.0079,8.088209 0.01797,13.420338 0.06547,13.626196 0.119323,0.516314 0.611384,1.113997 1.135789,1.37963 l 0.449531,0.227673 19.668611,-9.34e-4 19.66864,-9.34e-4 0.41896,-0.19501 c 0.42071,-0.195907 0.78638,-0.578459 1.07839,-1.128026 0.14811,-0.278746 0.15451,-0.795209 0.16574,-13.577683 0.007,-8.205023 -0.0185,-13.414591 -0.0674,-13.619078 -0.11408,-0.477431 -0.64766,-1.131241 -1.11752,-1.369442 l -0.39536,-0.200348 -6.08512,-0.01131 c -3.34682,-0.0062 -6.20357,-0.01626 -6.34837,-0.0223 l -0.26325,-0.01101 -0.0265,-1.800701 -0.0265,-1.8007 -0.24837,-0.495442 c -0.13804,-0.275354 -0.48747,-0.739768 -0.78652,-1.045406 -0.490927,-0.501732 -0.59838,-0.569056 -1.225375,-0.767109 L 43.048231,19.8684 h -4.048342 z m 0.695152,3.684188 h 3.353022 3.353033 l -0.01651,1.189473 c -0.009,0.654178 -0.03627,1.20904 -0.06031,1.23313 -0.04672,0.04667 -5.315561,0.07837 -6.104037,0.03671 l -0.468287,-0.02473 -0.05626,-0.844724 c -0.031,-0.464588 -0.0438,-1.01238 -0.02853,-1.217288 z m 3.218009,5.499928 c 1.064993,0.0025 2.213999,0.122708 2.991302,0.339735 3.038093,0.848268 5.110743,2.227291 6.849803,4.557374 0.55248,0.740243 1.32307,2.168983 1.56155,2.89541 0.63414,1.931738 0.73554,2.522454 0.73637,4.28345 6.3e-4,1.446802 -0.0665,1.909524 -0.50288,3.463632 -0.70039,2.494263 -2.35191,4.762936 -4.68383,6.433745 -0.56944,0.408003 -2.057244,1.175152 -2.594967,1.338073 -0.25045,0.07588 -0.846538,0.25195 -1.324651,0.391156 -0.836824,0.243639 -0.937381,0.253918 -2.690708,0.275375 -1.998509,0.02445 -1.903511,0.0328 -3.021859,-0.264056 -1.732214,-0.459801 -2.95113,-0.9901 -4.002252,-1.741193 -2.32572,-1.661867 -3.983644,-3.938946 -4.683973,-6.4331 -0.436403,-1.554108 -0.503729,-2.01683 -0.502898,-3.463632 6.28e-4,-1.478712 0.06996,-2.053266 0.373849,-3.101742 0.666593,-2.300299 1.448455,-3.696699 2.970761,-5.304912 1.748722,-1.847392 4.035944,-3.039578 6.796606,-3.542701 0.479954,-0.08747 1.088778,-0.12819 1.727777,-0.126614 z m 0.135181,4.186595 c -1.937652,0 -2.225723,0.06768 -2.599505,0.611067 -0.400949,0.582897 -0.420726,0.700908 -0.421557,2.493584 l -9.32e-4,1.697212 -1.69786,6.23e-4 -1.697849,6.24e-4 -0.496103,0.247726 c -0.438571,0.219017 -0.524922,0.304702 -0.744465,0.738973 l -0.248372,0.491405 0.01123,1.586447 c 0.01269,1.79444 0.09894,2.148492 0.62093,2.546625 0.520553,0.397052 0.669951,0.422312 2.511044,0.426891 l 1.735695,0.0044 0.0079,1.744266 c 0.0067,1.675734 0.01539,1.760136 0.209728,2.151911 0.278796,0.561899 0.741287,0.871 1.418436,0.947891 h 3.15e-4 c 0.745329,0.08463 1.993894,0.08635 2.70606,0.0039 0.770238,-0.08919 1.205394,-0.365951 1.49606,-0.95177 0.194387,-0.391775 0.202518,-0.476339 0.209717,-2.152073 l 0.0079,-1.744105 h 1.735864 c 1.650008,0 1.755008,-0.0095 2.127008,-0.192745 0.48025,-0.236525 0.77452,-0.573896 0.90051,-1.032298 0.0538,-0.195867 0.10018,-1.00222 0.10579,-1.843873 l 0.0101,-1.495731 -0.24837,-0.491247 c -0.22062,-0.434142 -0.30705,-0.520005 -0.74558,-0.738997 l -0.49609,-0.247727 -1.697861,-6.23e-4 -1.69786,-6.22e-4 -9.32e-4,-1.69721 c -6.19e-4,-1.792679 -0.02054,-1.910686 -0.421547,-2.493587 -0.37377,-0.543394 -0.66201,-0.611067 -2.599662,-0.611067 z"
         id="path2881-1"
         inkscape:connector-curvature="0" />
      <path
         style="fill:#ffffff;fill-opacity:1;stroke-width:0.08279075"
         d="m 34.951803,20.868927 -0.687223,0.217168 c -0.626995,0.198052 -0.734605,0.265376 -1.225531,0.767105 -0.299055,0.305641 -0.64849,0.770054 -0.786511,1.045399 l -0.248372,0.495445 -0.02639,1.800699 -0.0265,1.800703 -0.263252,0.01101 c -0.144805,0.0061 -3.001712,0.01663 -6.348523,0.02345 -6.851455,0.01393 -6.386449,-0.02931 -7.045135,0.656181 -0.242454,0.252323 -0.388348,0.23342 -0.476855,0.82516 l -0.05335,0.09864 -9.43e-4,0.445809 c -0.0949,1.408208 -0.08086,4.679786 -0.08861,12.842105 -0.0079,8.088209 0.01797,13.420338 0.06547,13.626196 0.119323,0.516314 0.611384,1.113997 1.135789,1.37963 l 0.449531,0.227673 19.668611,-9.34e-4 19.668634,-9.34e-4 0.418962,-0.19501 c 0.420714,-0.195907 0.786376,-0.578459 1.07839,-1.128026 0.148107,-0.278746 0.154508,-0.795209 0.165738,-13.577683 0.0067,-8.205023 -0.01853,-13.414591 -0.06738,-13.619078 -0.114079,-0.477431 -0.647659,-1.131241 -1.117517,-1.369442 l -0.395356,-0.200348 -6.085125,-0.01131 c -3.346811,-0.0062 -6.203561,-0.01626 -6.348366,-0.0223 l -0.263252,-0.01101 -0.0265,-1.800701 -0.0265,-1.8007 -0.248372,-0.495442 C 45.609326,22.623028 45.259903,22.158614 44.960848,21.852976 44.469922,21.351244 44.362469,21.28392 43.735474,21.085867 L 43.048251,20.8687 h -4.048342 z m 0.695152,3.684188 h 3.353022 3.353033 l -0.01651,1.189473 c -0.009,0.654178 -0.03627,1.20904 -0.06031,1.23313 -0.04672,0.04667 -5.315561,0.07837 -6.104037,0.03671 l -0.468287,-0.02473 -0.05626,-0.844724 c -0.031,-0.464588 -0.0438,-1.01238 -0.02853,-1.217288 z m 3.218009,5.499928 c 1.064993,0.0025 2.213999,0.122708 2.991302,0.339735 3.038098,0.848268 5.11074,2.227291 6.849804,4.557374 0.552481,0.740243 1.323067,2.168983 1.561545,2.89541 0.634148,1.931738 0.735548,2.522454 0.736379,4.28345 6.29e-4,1.446802 -0.06648,1.909524 -0.502887,3.463632 -0.700385,2.494263 -2.351909,4.762936 -4.683827,6.433745 -0.569438,0.408003 -2.057245,1.175152 -2.594968,1.338073 -0.25045,0.07588 -0.846538,0.25195 -1.324651,0.391156 -0.836824,0.243639 -0.937381,0.253918 -2.690708,0.275375 -1.998509,0.02445 -1.903511,0.0328 -3.021859,-0.264056 -1.732214,-0.459801 -2.95113,-0.9901 -4.002252,-1.741193 -2.32572,-1.661867 -3.983644,-3.938946 -4.683973,-6.4331 -0.436403,-1.554108 -0.503729,-2.01683 -0.502898,-3.463632 6.28e-4,-1.478712 0.06996,-2.053266 0.373849,-3.101742 0.666593,-2.300299 1.448455,-3.696699 2.970761,-5.304912 1.748722,-1.847392 4.035944,-3.039578 6.796606,-3.542701 0.479954,-0.08747 1.088778,-0.12819 1.727777,-0.126614 z m 0.135181,4.186595 c -1.937652,0 -2.225723,0.06768 -2.599505,0.611067 -0.400949,0.582897 -0.420726,0.700908 -0.421557,2.493584 l -9.32e-4,1.697212 -1.69786,6.23e-4 -1.697849,6.24e-4 -0.496103,0.247726 c -0.438571,0.219017 -0.524922,0.304702 -0.744465,0.738973 l -0.248372,0.491405 0.01123,1.586447 c 0.01269,1.79444 0.09894,2.148492 0.62093,2.546625 0.520553,0.397052 0.669951,0.422312 2.511044,0.426891 l 1.735695,0.0044 0.0079,1.744266 c 0.0067,1.675734 0.01539,1.760136 0.209728,2.151911 0.278796,0.561899 0.741287,0.871 1.418436,0.947891 h 3.15e-4 c 0.745329,0.08463 1.993894,0.08635 2.70606,0.0039 0.770238,-0.08919 1.205394,-0.365951 1.49606,-0.95177 0.194387,-0.391775 0.202518,-0.476339 0.209717,-2.152073 l 0.0079,-1.744105 h 1.735864 c 1.650007,0 1.755012,-0.0095 2.127008,-0.192745 0.480246,-0.236525 0.774517,-0.573896 0.900511,-1.032298 0.05379,-0.195867 0.100176,-1.00222 0.105791,-1.843873 l 0.01011,-1.495731 -0.248372,-0.491247 C 46.438805,39.595199 46.352376,39.509336 45.91385,39.290344 l -0.496092,-0.247727 -1.69786,-6.23e-4 -1.69786,-6.22e-4 -9.32e-4,-1.69721 c -6.29e-4,-1.792679 -0.02055,-1.910686 -0.421557,-2.493587 -0.37377,-0.543394 -0.66201,-0.611067 -2.599662,-0.611067 z"
         id="path2881"
         inkscape:connector-curvature="0" />
    </g>
  </g>
</svg>
