<?xml version="1.0" encoding="UTF-8" standalone="no"?>
<svg
   xmlns:dc="http://purl.org/dc/elements/1.1/"
   xmlns:cc="http://creativecommons.org/ns#"
   xmlns:rdf="http://www.w3.org/1999/02/22-rdf-syntax-ns#"
   xmlns:svg="http://www.w3.org/2000/svg"
   xmlns="http://www.w3.org/2000/svg"
   xmlns:sodipodi="http://sodipodi.sourceforge.net/DTD/sodipodi-0.dtd"
   xmlns:inkscape="http://www.inkscape.org/namespaces/inkscape"
   sodipodi:docname="مشروع شبكة مياه.svg"
   inkscape:version="1.0 (4035a4fb49, 2020-05-01)"
   id="svg298"
   version="1.1"
   viewBox="0 0 39.687496 39.6875"
   height="39.6875mm"
   width="39.687496mm">
  <defs
     id="defs292" />
  <sodipodi:namedview
     inkscape:window-maximized="0"
     inkscape:window-y="0"
     inkscape:window-x="160"
     inkscape:window-height="1030"
     inkscape:window-width="1424"
     fit-margin-bottom="0"
     fit-margin-right="0"
     fit-margin-left="0"
     fit-margin-top="0"
     showgrid="false"
     inkscape:document-rotation="0"
     inkscape:current-layer="layer1"
     inkscape:document-units="mm"
     inkscape:cy="170.30384"
     inkscape:cx="130.30452"
     inkscape:zoom="0.35"
     inkscape:pageshadow="2"
     inkscape:pageopacity="0.0"
     borderopacity="1.0"
     bordercolor="#666666"
     pagecolor="#ffffff"
     id="base" />
  <metadata
     id="metadata295">
    <rdf:RDF>
      <cc:Work
         rdf:about="">
        <dc:format>image/svg+xml</dc:format>
        <dc:type
           rdf:resource="http://purl.org/dc/dcmitype/StillImage" />
        <dc:title></dc:title>
      </cc:Work>
    </rdf:RDF>
  </metadata>
  <g
     transform="translate(-71.356929,-103.10711)"
     id="layer1"
     inkscape:groupmode="layer"
     inkscape:label="Layer 1">
    <path
       style="fill:#49b8e3;fill-opacity:1;stroke-width:0.199021"
       d="m 93.835479,103.10711 v 10e-4 c -0.03329,0 -0.06537,0 -0.09649,0.002 -0.154057,-0.007 -0.270514,0.015 -0.377296,0.079 -0.357404,0.15592 -0.559532,0.55311 -0.901677,1.32277 -0.737764,1.65956 -1.819108,2.28808 -3.936488,2.28808 -0.878347,0 -1.479292,-0.0705 -1.971658,-0.27985 -0.376524,-0.21039 -0.743446,-0.50051 -1.126134,-0.8798 -0.04162,-0.048 -0.08344,-0.0977 -0.12583,-0.14944 -1.074541,-1.31058 -1.234063,-1.35108 -2.661544,-0.67639 -0.677582,0.32028 -1.845467,0.97897 -2.595354,1.46379 l -1.363439,0.88153 0.142344,0.76515 c 0.0783,0.42084 0.259754,1.0863 0.403184,1.47879 0.152042,0.41603 0.206761,0.99689 0.131258,1.39277 -0.204689,1.07328 -1.256793,2.71956 -2.152342,3.36794 -0.763301,0.55259 -0.943186,0.59404 -2.577296,0.59404 -0.259777,0 -0.480748,-2e-5 -0.670621,0.003 -0.195047,-0.008 -0.3613,-0.004 -0.505201,0.0165 -0.592103,0.0396 -0.67389,0.16059 -0.864908,0.52977 -0.494296,0.95526 -1.307262,4.54302 -1.222989,5.28003 0.0013,0.0884 0.01013,0.1504 0.02889,0.18064 0.03678,0.0595 0.24909,0.19498 0.555262,0.36185 0.316414,0.20235 0.732783,0.43787 1.165931,0.65372 1.397854,0.69667 1.563504,0.84546 2.052203,1.84378 0.929518,1.89875 0.413847,3.90116 -1.326345,5.15066 -1.272242,0.91349 -1.394911,1.42471 -0.688632,2.86939 0.921666,1.88525 2.287626,3.80326 2.708711,3.80326 0.20939,0 0.852074,-0.17905 1.428084,-0.39787 0.675869,-0.25672 1.179598,-0.38155 1.665715,-0.37095 0.06289,0.002 0.126059,0.006 0.189366,0.011 0.424125,0.0402 0.850192,0.18479 1.382149,0.43613 0.381856,0.18043 0.720164,0.37861 1.016023,0.59609 0.343676,0.29682 0.68231,0.64224 0.959724,0.97792 0.516214,0.76314 0.70628,1.69462 0.590088,2.82858 -0.09101,0.8875 -0.05718,1.37416 0.109461,1.57483 0.237497,0.28598 2.536172,1.12137 4.09332,1.4876 0.64553,0.15182 1.079004,0.22571 1.413367,0.16849 0.100835,0.0173 0.173298,0.0284 0.206049,0.0311 0.210501,0.0174 0.506902,-0.34589 0.772567,-0.91002 0.09215,-0.16061 0.188943,-0.34572 0.295532,-0.55794 0.590535,-1.17566 0.836368,-1.458 1.612023,-1.85163 2.199106,-1.11605 4.422532,-0.73647 5.644616,0.96361 0.480411,0.66829 0.846561,0.98199 1.146401,0.98199 h 0.01559 0.0064 c 0.01689,0 0.03831,-0.003 0.06391,-0.008 0.711901,-0.11339 3.313237,-1.42694 4.482677,-2.27847 0.87579,-0.63772 0.91845,-0.71172 0.76858,-1.33325 -0.0873,-0.36191 -0.30302,-0.9909 -0.47933,-1.39774 -0.41307,-0.95302 -0.3995,-1.65473 0.0511,-2.64269 0.20961,-0.45953 0.42626,-0.85139 0.66185,-1.18327 0.12476,-0.15301 0.26077,-0.30496 0.40833,-0.45556 0.18159,-0.18541 0.3586,-0.34747 0.5345,-0.48766 0.6931,-0.46444 1.56593,-0.65153 2.76838,-0.65635 0.567,0.0705 0.9548,0.0874 1.24817,-0.002 l 0.47146,-0.001 0.37774,-0.79586 c 0.49611,-1.04535 1.41097,-4.74879 1.26623,-5.12578 -0.0622,-0.1621 -0.54593,-0.49858 -1.07482,-0.7477 -1.36913,-0.64489 -2.02278,-1.32656 -2.35997,-2.46136 -0.15623,-0.52575 -0.2527,-1.02112 -0.28985,-1.48516 -0.003,-0.0824 -0.004,-0.16578 -0.004,-0.25044 0,-0.25506 0.004,-0.48158 0.0142,-0.68638 0.10891,-0.97703 0.53981,-1.77948 1.28992,-2.39381 0.49023,-0.40146 0.94366,-0.93832 1.00763,-1.19303 0.008,-0.0331 0.013,-0.0709 0.0142,-0.1131 0.0278,-0.1401 -0.01,-0.28227 -0.0803,-0.48998 -0.23044,-0.81423 -0.93772,-2.17808 -1.90238,-3.62043 -0.83344,-1.24617 -0.84771,-1.25629 -1.60835,-1.13841 -0.42208,0.0654 -1.02235,0.25068 -1.33389,0.41171 -0.68767,0.35538 -1.05548,0.35637 -2.03987,0.005 -1.11397,-0.39711 -2.26962,-1.26174 -2.777667,-2.07821 -0.346005,-0.55606 -0.469518,-1.11877 -0.546541,-2.48988 l -0.02844,-0.50542 c 0.03721,-0.51695 0.03265,-0.77484 -0.05332,-0.94947 l -0.01781,-0.31661 -1.224677,-0.45681 c -0.673565,-0.25127 -1.952852,-0.60435 -2.842948,-0.78458 -0.594624,-0.12043 -1.01577,-0.19781 -1.334524,-0.20047 z m -2.621435,5.39678 c 0.440628,1e-4 0.880712,0.0212 1.318179,0.0638 4.382121,0.42689 8.291247,2.7701 10.732097,6.433 1.26605,1.89983 2.0991,4.26823 2.32849,6.62011 0.36168,3.70878 -0.84936,7.64723 -3.22781,10.49723 -0.5814,0.69665 -1.82193,1.88758 -2.481009,2.38184 -2.882624,2.1616 -6.578804,3.19129 -10.142942,2.82571 -2.7756,-0.28471 -5.613253,-1.46941 -7.718051,-3.22232 -0.264772,-0.22053 -0.603309,-0.53913 -0.947878,-0.88491 -0.157182,-0.15477 -0.310503,-0.31281 -0.459784,-0.47395 -0.391108,-0.41406 -0.749791,-0.82265 -0.96958,-1.1154 -2.142145,-2.85337 -3.177625,-6.50753 -2.836241,-10.0082 0.280563,-2.87656 1.442319,-5.69718 3.227748,-7.83658 0.581403,-0.69665 1.821943,-1.88759 2.481044,-2.38185 2.496075,-1.87176 5.611299,-2.8997 8.695737,-2.89849 z m -0.06385,1.26727 c -0.905224,0.002 -1.815683,0.0983 -2.716081,0.29287 -1.085651,0.23458 -1.904527,0.5165 -2.919404,1.00496 -3.781768,1.82008 -6.400295,5.16933 -7.243466,9.26494 -0.497734,2.41757 -0.263904,5.13764 0.637074,7.41186 0.812458,2.05083 2.135522,3.89735 3.775627,5.26937 2.060406,1.72363 4.577748,2.78655 7.266036,3.06804 0.858262,0.0899 2.489597,0.0247 3.445643,-0.13766 5.358348,-0.91 9.605147,-4.98496 10.707297,-10.27401 0.82399,-3.95409 -0.15101,-7.92474 -2.72745,-11.10734 -2.478587,-3.06181 -6.302672,-4.8039 -10.225276,-4.79303 z m 0.01877,3.60734 0.531317,1.24464 c 0.599317,1.40407 1.522454,2.7216 3.698159,5.27784 1.130175,1.3278 1.766272,2.23838 2.127826,3.16581 0.06349,0.0761 0.0979,0.17411 0.103802,0.28932 0.159269,0.48529 0.250791,0.98721 0.305027,1.56636 0.02059,0.21771 0.03109,0.43404 0.03109,0.64848 0.03007,0.0229 0.04035,0.12548 0.04035,0.31805 0,0.17327 -0.03721,0.38264 -0.09197,0.54785 -0.390722,3.20257 -2.957933,5.80654 -6.252811,6.06186 -0.667751,0.0518 -1.529656,0.015 -1.915348,-0.0816 -2.02599,-0.50775 -3.771405,-1.95466 -4.686533,-3.88508 -0.393605,-0.83036 -0.527167,-1.20571 -0.570136,-1.99295 -0.12507,-0.72726 -0.127012,-1.30639 -0.0039,-2.00006 0.03859,-0.82735 0.169088,-1.17367 0.588942,-2.01407 0.337669,-0.67577 1.35181,-2.06612 2.298314,-3.1508 1.953274,-2.23846 2.554569,-3.06505 3.143596,-4.41804 0.05966,-0.15049 0.131776,-0.32314 0.209921,-0.50131 z"
       id="path17973-2-83-9"
       inkscape:connector-curvature="0" />
  </g>
</svg>
