<?xml version="1.0" encoding="UTF-8" standalone="no"?>
<!-- Created with Inkscape (http://www.inkscape.org/) -->

<svg
   xmlns:dc="http://purl.org/dc/elements/1.1/"
   xmlns:cc="http://creativecommons.org/ns#"
   xmlns:rdf="http://www.w3.org/1999/02/22-rdf-syntax-ns#"
   xmlns:svg="http://www.w3.org/2000/svg"
   xmlns="http://www.w3.org/2000/svg"
   xmlns:sodipodi="http://sodipodi.sourceforge.net/DTD/sodipodi-0.dtd"
   xmlns:inkscape="http://www.inkscape.org/namespaces/inkscape"
   width="39.687099mm"
   height="39.687378mm"
   viewBox="0 0 39.6871 39.687378"
   version="1.1"
   id="svg8"
   inkscape:version="0.92.4 (5da689c313, 2019-01-14)"
   sodipodi:docname="Rain Drainage.svg">
  <defs
     id="defs2" />
  <sodipodi:namedview
     id="base"
     pagecolor="#ffffff"
     bordercolor="#666666"
     borderopacity="1.0"
     inkscape:pageopacity="0.0"
     inkscape:pageshadow="2"
     inkscape:zoom="0.25"
     inkscape:cx="2208.9573"
     inkscape:cy="-507.54749"
     inkscape:document-units="mm"
     inkscape:current-layer="layer1"
     showgrid="false"
     fit-margin-top="0"
     fit-margin-left="0"
     fit-margin-right="0"
     fit-margin-bottom="0"
     inkscape:window-width="1920"
     inkscape:window-height="1001"
     inkscape:window-x="-9"
     inkscape:window-y="-9"
     inkscape:window-maximized="1" />
  <metadata
     id="metadata5">
    <rdf:RDF>
      <cc:Work
         rdf:about="">
        <dc:format>image/svg+xml</dc:format>
        <dc:type
           rdf:resource="http://purl.org/dc/dcmitype/StillImage" />
        <dc:title></dc:title>
      </cc:Work>
    </rdf:RDF>
  </metadata>
  <g
     inkscape:label="Layer 1"
     inkscape:groupmode="layer"
     id="layer1"
     transform="translate(704.64136,-184.93598)">
    <path
       style="fill:#969799;fill-opacity:1;stroke-width:0.199022"
       d="m -682.1628,184.93644 c -0.0333,0 -0.0655,7e-5 -0.0966,0.002 -0.15402,-0.007 -0.27049,0.0151 -0.37722,0.0791 -0.35745,0.15591 -0.55962,0.55324 -0.90175,1.32291 -0.73779,1.65956 -1.81877,2.28824 -3.93621,2.28824 -0.87834,0 -1.4796,-0.0706 -1.97196,-0.28009 -0.37651,-0.21039 -0.74338,-0.50074 -1.12604,-0.88005 -0.0416,-0.048 -0.0832,-0.0976 -0.12558,-0.14935 -1.07457,-1.3106 -1.23438,-1.35114 -2.66184,-0.67644 -0.67759,0.32027 -1.84531,0.97915 -2.59519,1.46399 l -1.36324,0.8816 0.14211,0.76533 c 0.0783,0.42083 0.25964,1.08595 0.40309,1.47846 0.15201,0.41603 0.2068,0.9968 0.13126,1.39268 -0.20468,1.0733 -1.25677,2.71989 -2.15233,3.36827 -0.76327,0.55259 -0.943,0.59376 -2.57709,0.59376 -0.2598,0 -0.48088,1.7e-4 -0.67078,0.003 -0.19505,-0.008 -0.36147,-0.004 -0.50538,0.0165 -0.59211,0.0396 -0.67352,0.16049 -0.86455,0.52968 -0.49427,0.95527 -1.30749,4.54327 -1.22319,5.2803 0,0.0884 0.01,0.15063 0.0289,0.18087 0.0368,0.0595 0.24934,0.19488 0.55552,0.36173 0.31639,0.20236 0.73268,0.43786 1.16583,0.65371 1.39782,0.69667 1.56337,0.84548 2.05206,1.84381 0.92953,1.89876 0.4137,3.90108 -1.32652,5.15059 -1.27224,0.91349 -1.39459,1.4249 -0.68834,2.86959 0.92171,1.88529 2.28775,3.80339 2.70889,3.80339 0.20936,0 0.85177,-0.17908 1.42782,-0.39791 0.67585,-0.25672 1.17941,-0.38164 1.66553,-0.37104 0.0629,0.002 0.12636,0.006 0.18965,0.0109 0.42413,0.0402 0.84987,0.18481 1.38181,0.43615 0.3819,0.18044 0.72062,0.37836 1.01648,0.59583 0.34372,0.29683 0.6822,0.64255 0.95964,0.97824 0.51623,0.76313 0.70639,1.6948 0.59016,2.82877 -0.091,0.88751 -0.0576,1.3739 0.10903,1.57458 0.23747,0.28597 2.53614,1.12152 4.09329,1.48776 0.64553,0.15183 1.07947,0.22568 1.41386,0.16846 0.10083,0.0173 0.1729,0.0283 0.20568,0.031 0.21048,0.0174 0.50689,-0.34589 0.77256,-0.91002 0.0921,-0.16062 0.18899,-0.34588 0.29559,-0.55811 0.5905,-1.17567 0.83659,-1.45793 1.61229,-1.85156 2.19911,-1.11606 4.42254,-0.73633 5.64462,0.96376 0.48043,0.6683 0.84635,0.98185 1.14618,0.98185 h 0.0156 0.006 c 0.0169,0 0.0385,-0.003 0.0641,-0.008 0.71188,-0.11339 3.31298,-1.42687 4.48241,-2.27841 0.87577,-0.63772 0.91829,-0.71172 0.76843,-1.33325 -0.0873,-0.36193 -0.30271,-0.99099 -0.47906,-1.39785 -0.41306,-0.95301 -0.39954,-1.65477 0.0512,-2.64274 0.20955,-0.45953 0.42585,-0.85151 0.66146,-1.18339 0.12478,-0.15302 0.26123,-0.30518 0.40876,-0.45578 0.18163,-0.18541 0.35848,-0.34712 0.53432,-0.48731 0.69313,-0.46444 1.56586,-0.65148 2.76831,-0.65629 0.567,0.0705 0.95462,0.0873 1.24799,-0.002 l 0.4718,-0.001 0.37775,-0.79581 c 0.49617,-1.04537 1.41086,-4.74879 1.26608,-5.12579 -0.0623,-0.1621 -0.54596,-0.49864 -1.07487,-0.74776 -1.36914,-0.64491 -2.02287,-1.32654 -2.36005,-2.46134 -0.15621,-0.52577 -0.25271,-1.02114 -0.28991,-1.48518 -0.003,-0.0824 -0.004,-0.16597 -0.004,-0.25064 0,-0.25506 0.004,-0.48145 0.014,-0.68626 0.10893,-0.97705 0.53973,-1.77982 1.28985,-2.39417 0.49022,-0.40146 0.94376,-0.93795 1.00769,-1.19269 0.008,-0.0331 0.0132,-0.071 0.0145,-0.11317 0.0278,-0.1401 -0.0103,-0.28218 -0.0806,-0.48989 -0.2304,-0.81423 -0.9375,-2.17809 -1.90219,-3.62045 -0.83344,-1.24618 -0.84754,-1.25631 -1.60817,-1.13844 -0.42209,0.0654 -1.02222,0.25032 -1.33379,0.41135 -0.68763,0.35538 -1.05582,0.35653 -2.04018,0.005 -1.11397,-0.39712 -2.26951,-1.26195 -2.77759,-2.07843 -0.34597,-0.55609 -0.46969,-1.11863 -0.54674,-2.48977 l -0.0284,-0.5054 c 0.0372,-0.51695 0.0328,-0.77468 -0.0532,-0.94929 l -0.0175,-0.31678 -1.22475,-0.45682 c -0.67355,-0.25128 -1.95313,-0.60422 -2.84322,-0.78445 -0.59465,-0.12043 -1.01549,-0.19785 -1.33429,-0.2005 z m -2.62154,5.39606 c 0.44066,9e-5 0.88079,0.0209 1.31826,0.0636 4.38213,0.42689 8.2913,2.77027 10.73216,6.4332 1.266,1.89987 2.09912,4.26835 2.32854,6.62026 0.36171,3.70883 -0.84928,7.647 -3.2277,10.49704 -0.58143,0.69667 -1.8224,1.88801 -2.4815,2.38228 -2.88261,2.16161 -6.57839,3.19124 -10.14254,2.82567 -2.77564,-0.28471 -5.61356,-1.46961 -7.7184,-3.22254 -0.26474,-0.22053 -0.60314,-0.53891 -0.94774,-0.8847 -0.15719,-0.15477 -0.3107,-0.31273 -0.45992,-0.47388 -0.39114,-0.41406 -0.7497,-0.82294 -0.96946,-1.11569 -2.14215,-2.85339 -3.17741,-6.50747 -2.83599,-10.00818 0.28056,-2.8766 1.44227,-5.69729 3.2277,-7.83673 0.5814,-0.69665 1.82187,-1.88749 2.48097,-2.38176 2.49611,-1.87177 5.61121,-2.89974 8.69562,-2.89853 z m -0.0636,1.2671 c -0.90522,0.002 -1.81565,0.0984 -2.71611,0.29301 -1.08561,0.2346 -1.90479,0.51664 -2.9197,1.0051 -3.78175,1.8201 -6.4003,5.16941 -7.2435,9.26507 -0.49776,2.4176 -0.26382,5.1377 0.63717,7.41195 0.81245,2.05085 2.13537,3.8974 3.77547,5.26945 2.06042,1.72365 4.57793,2.78654 7.26623,3.06803 0.85822,0.0899 2.48978,0.0244 3.4458,-0.13798 5.35834,-0.91001 9.60522,-4.98467 10.70734,-10.27379 0.82399,-3.95414 -0.15108,-7.92522 -2.72748,-11.10785 -2.47862,-3.06185 -6.30259,-4.80385 -10.22522,-4.79299 z m 0.0289,1.2051 c 0.004,-8e-4 0.009,7.9e-4 0.0161,0.006 0.003,-0.003 0.005,-0.005 0.007,-0.005 0,0 0,-5.3e-4 0,-5.3e-4 0,0 0.003,7.9e-4 0.003,0.001 0.014,0.005 0.0591,0.0799 0.10335,0.17104 l 0.005,0.0104 c 0.0196,0.0355 0.0401,0.0743 0.0636,0.1204 0.007,0.0145 0.0185,0.036 0.0274,0.0527 0.0596,0.10983 0.13319,0.2412 0.20309,0.36225 0.22294,0.38625 0.37724,0.67533 0.48006,0.91002 0.0354,0.0777 0.0631,0.14761 0.0853,0.21291 0.0138,0.0369 0.0257,0.0709 0.0346,0.1018 0.0384,0.1291 0.0563,0.25948 0.0553,0.38706 0,0.065 -0.005,0.12751 -0.0164,0.18861 -0.003,0.0131 -0.004,0.0263 -0.007,0.0393 -0.003,0.01 -0.004,0.0189 -0.006,0.0289 -0.008,0.0485 -0.0196,0.0912 -0.0367,0.13487 -0.0526,0.15462 -0.13652,0.28897 -0.25167,0.40205 l -0.008,0.008 c -0.0148,0.0142 -0.0302,0.0283 -0.046,0.0419 -0.003,0.002 -0.004,0.003 -0.006,0.005 -0.0616,0.0521 -0.1302,0.0995 -0.20669,0.14108 -0.22971,0.1251 -0.5674,0.16001 -0.78031,0.0806 -0.4676,-0.17435 -0.75965,-0.59025 -0.75965,-1.08159 0,-0.3349 0.1538,-0.71139 0.62476,-1.52911 0.0225,-0.0394 0.047,-0.0817 0.0708,-0.12402 0.0878,-0.16052 0.16869,-0.31111 0.21291,-0.39791 0.0251,-0.0496 0.0491,-0.0934 0.0713,-0.13332 0.0156,-0.0294 0.0296,-0.0548 0.0424,-0.076 0.003,-0.006 0.006,-0.0135 0.006,-0.0155 0,-0.0257 0.004,-0.0399 0.013,-0.0419 z m -0.401,1.10949 c -0.006,0.002 -0.0483,0.0734 -0.10644,0.18345 -0.0228,0.043 -0.0437,0.0854 -0.0641,0.12764 -0.0582,0.13497 -0.11457,0.27562 -0.15865,0.39584 -0.0408,0.12933 -0.0682,0.25194 -0.0811,0.36639 -0.0127,0.11445 -0.0114,0.22099 0.004,0.31729 0,0.003 0.003,0.007 0.003,0.01 0.018,0.10356 0.0525,0.19548 0.10438,0.27388 0.0277,0.0419 0.0569,0.0763 0.0852,0.10181 0.0284,0.0254 0.0557,0.0426 0.0796,0.0496 0.0238,0.007 0.0444,0.005 0.0589,-0.007 0.0148,-0.0122 0.0228,-0.0344 0.0228,-0.0677 0,-0.0418 -0.0453,-0.15313 -0.10075,-0.24753 -0.0318,-0.0542 -0.0535,-0.0958 -0.0682,-0.13953 -0.0148,-0.0437 -0.0217,-0.0894 -0.0259,-0.1509 -0.004,-0.0174 -0.007,-0.034 -0.009,-0.0481 -0.006,-0.0485 -0.007,-0.10658 -0.003,-0.17208 0.003,-0.0622 0.0103,-0.12799 0.0222,-0.19689 0.0151,-0.1272 0.0444,-0.23993 0.10078,-0.39997 0.0604,-0.17156 0.12139,-0.34511 0.13539,-0.38551 0.003,-0.008 0.003,-0.0106 0.003,-0.0103 z m -2.77297,1.74873 v 5.3e-4 c 0,0 0,5.3e-4 0,5.3e-4 0.004,-5.3e-4 0.009,0.001 0.0146,0.006 0.003,-0.003 0.004,-0.005 0.006,-0.005 0,0 0,-5.3e-4 0,-5.3e-4 0,0 0.003,7.9e-4 0.003,0.001 0.0132,0.005 0.0551,0.0748 0.0966,0.16019 0,0.002 0.004,0.007 0.005,0.009 0.0183,0.0333 0.0379,0.07 0.06,0.11317 0.007,0.0136 0.0172,0.0334 0.0254,0.0491 0.0558,0.10292 0.12467,0.2266 0.19015,0.34003 0.20892,0.36195 0.35373,0.63272 0.45011,0.85266 0.0332,0.0728 0.0593,0.13827 0.0801,0.19947 0.0127,0.0346 0.0236,0.0667 0.0325,0.0956 0.0359,0.12097 0.0522,0.24321 0.0512,0.36276 0,0.0609 -0.004,0.11944 -0.0156,0.17674 -0.003,0.0123 -0.004,0.0245 -0.006,0.0367 -0.003,0.009 -0.004,0.0179 -0.006,0.0269 -0.007,0.0455 -0.0188,0.0851 -0.0346,0.12609 -0.0493,0.14489 -0.12824,0.27076 -0.23617,0.37672 l -0.007,0.007 c -0.014,0.0134 -0.0286,0.0266 -0.0434,0.0393 0,0.002 -0.003,0.003 -0.005,0.005 -0.0578,0.0488 -0.1221,0.0933 -0.19378,0.1323 -0.21526,0.1172 -0.5317,0.14985 -0.73123,0.0754 -0.43817,-0.16338 -0.71159,-0.55294 -0.71159,-1.01337 0,-0.31383 0.14414,-0.66671 0.58549,-1.43299 0.0212,-0.037 0.0439,-0.0772 0.0661,-0.11679 0.0823,-0.15042 0.15809,-0.29118 0.19947,-0.37258 0.0236,-0.0465 0.0459,-0.0877 0.0667,-0.12506 0.0146,-0.0276 0.0278,-0.0515 0.0398,-0.0713 0.003,-0.006 0.005,-0.012 0.005,-0.0139 0,-0.0239 0.005,-0.0365 0.0124,-0.0388 0,4e-5 0,-5.3e-4 0,-5.3e-4 z m -0.37465,1.03973 v 5.3e-4 c -0.006,0.001 -0.0447,0.0684 -0.0992,0.17156 -0.0214,0.0403 -0.0414,0.0804 -0.0605,0.11989 -0.0545,0.12647 -0.10753,0.25786 -0.14883,0.37052 -0.0383,0.12119 -0.0633,0.23639 -0.0755,0.34365 -0.0119,0.10725 -0.0109,0.20684 0.004,0.29714 0,0.003 0.003,0.006 0.003,0.009 0.0169,0.097 0.0496,0.18343 0.0982,0.25683 0.0259,0.0393 0.0535,0.0712 0.0801,0.0951 0.0266,0.0239 0.052,0.0395 0.0744,0.0465 0.0225,0.007 0.0417,0.005 0.0553,-0.006 0.0135,-0.0114 0.0212,-0.0318 0.0212,-0.0631 0,-0.0392 -0.0421,-0.14404 -0.0941,-0.23254 -0.0298,-0.0508 -0.0508,-0.0898 -0.0646,-0.13074 -0.014,-0.0409 -0.0204,-0.0835 -0.0243,-0.14108 -0.004,-0.0163 -0.007,-0.0319 -0.009,-0.045 -0.006,-0.0454 -0.007,-0.10035 -0.003,-0.16174 0.003,-0.0583 0.01,-0.11937 0.0206,-0.18397 0.014,-0.11921 0.0417,-0.22521 0.0946,-0.37517 0.0566,-0.16077 0.1135,-0.32342 0.1266,-0.36122 0.003,-0.007 0.003,-0.0101 0.003,-0.01 z m 6.72465,0.54777 v 5.3e-4 c 0,0 0,5.3e-4 0,5.3e-4 0.004,-5.3e-4 0.009,0.001 0.0146,0.006 0.003,-0.003 0.004,-0.005 0.006,-0.005 0,0 0,-5.3e-4 0,-5.3e-4 0,0 0.003,7.9e-4 0.003,0.001 0.0132,0.005 0.0551,0.0748 0.0966,0.16019 0,0.002 0.004,0.007 0.005,0.009 0.0183,0.0333 0.0379,0.07 0.06,0.11317 0.007,0.0136 0.0177,0.0334 0.0259,0.0491 0.0559,0.10292 0.12464,0.2266 0.19015,0.34003 0.20892,0.36195 0.3532,0.63272 0.44958,0.85266 0.0332,0.0728 0.0593,0.13827 0.0801,0.19947 0.0127,0.0346 0.0236,0.0667 0.0325,0.0956 0.0359,0.12097 0.0527,0.24321 0.0517,0.36276 0,0.0609 -0.005,0.11944 -0.0161,0.17674 -0.003,0.0123 -0.004,0.0245 -0.006,0.0367 -0.003,0.009 -0.004,0.0179 -0.006,0.0269 -0.007,0.0455 -0.0188,0.0851 -0.0346,0.12609 -0.0493,0.14489 -0.12824,0.27128 -0.23616,0.37724 l -0.007,0.007 c -0.014,0.0134 -0.0286,0.0266 -0.0434,0.0393 0,0.002 -0.003,0.003 -0.005,0.005 -0.0578,0.0488 -0.12211,0.0933 -0.19378,0.13229 -0.21527,0.1172 -0.53171,0.14985 -0.73123,0.0754 -0.43818,-0.16338 -0.7116,-0.55294 -0.7116,-1.01337 0,-0.31384 0.14415,-0.66671 0.5855,-1.43299 0.0212,-0.037 0.0438,-0.0772 0.0661,-0.11679 0.0823,-0.15042 0.15809,-0.29119 0.19947,-0.37259 0.0236,-0.0465 0.0459,-0.0877 0.0667,-0.12505 0.0145,-0.0276 0.0278,-0.0515 0.0398,-0.0713 0.003,-0.006 0.005,-0.012 0.005,-0.0139 0,-0.0239 0.005,-0.0365 0.0124,-0.0388 0,4e-5 0,-5.3e-4 0,-5.3e-4 z m -0.37465,1.03973 v 5.3e-4 c -0.006,0.001 -0.0452,0.0684 -0.0997,0.17156 -0.0214,0.0403 -0.0414,0.0804 -0.0605,0.11989 -0.0545,0.12647 -0.10753,0.25786 -0.14883,0.37052 -0.0383,0.12119 -0.0633,0.23639 -0.0755,0.34365 -0.0119,0.10725 -0.0103,0.20684 0.004,0.29714 0,0.003 0,0.006 0.003,0.009 0.0169,0.097 0.0496,0.18343 0.0982,0.25683 0.0259,0.0393 0.0535,0.0712 0.0801,0.0951 0.0266,0.0239 0.052,0.0395 0.0744,0.0465 0.0225,0.007 0.0417,0.005 0.0553,-0.006 0.0135,-0.0114 0.0212,-0.0318 0.0212,-0.0631 0,-0.0392 -0.0421,-0.14404 -0.0941,-0.23254 -0.0298,-0.0508 -0.0503,-0.0898 -0.0641,-0.13074 -0.0138,-0.0409 -0.0209,-0.0835 -0.0249,-0.14108 -0.004,-0.0163 -0.007,-0.0319 -0.009,-0.045 -0.006,-0.0454 -0.007,-0.10035 -0.003,-0.16174 0.003,-0.0583 0.01,-0.11937 0.0206,-0.18397 0.014,-0.11921 0.0417,-0.22521 0.0946,-0.37517 0.0566,-0.16077 0.1135,-0.32342 0.1266,-0.36122 0.003,-0.007 0.003,-0.0101 0.003,-0.01 z m -2.78071,2.40605 v 5.3e-4 0.68678 c -0.008,0 -0.0148,-5.2e-4 -0.0228,-5.2e-4 -0.032,0 -0.0637,7.9e-4 -0.0956,0.001 -0.022,2.7e-4 -0.0439,-1.1e-4 -0.0661,5.3e-4 -0.049,0.002 -0.0959,0.004 -0.14158,0.005 -1.61259,0.0767 -3.19352,0.7428 -4.41577,1.97352 -0.0972,0.0979 -0.18449,0.18871 -0.26508,0.27751 -0.15198,0.17009 -0.29485,0.34759 -0.42789,0.53175 -0.0797,0.1126 -0.15954,0.23297 -0.24495,0.36897 -0.27276,0.43417 -0.48575,0.88374 -0.65164,1.38027 0,0.0217 -0.003,0.0452 -0.0103,0.0646 0.008,0.007 0.005,0.0158 -0.009,0.0248 -0.003,0.001 -0.005,0.002 -0.008,0.002 -0.003,0.003 -0.004,0.004 -0.005,0.005 -0.11129,0.35008 -0.19987,0.724 -0.26977,1.13275 0,0.007 -0.003,0.0147 -0.003,0.0227 -0.003,0.0276 -0.007,0.0557 -0.009,0.0837 -0.034,0.35179 -0.0367,1.12283 -0.007,1.53789 0.009,0.0887 0.0196,0.17456 0.0315,0.25786 0.29681,1.71261 1.08384,3.08445 2.41226,4.20129 0.18653,0.14988 0.38216,0.2901 0.586,0.42065 0.26974,0.16536 0.59266,0.34079 0.88368,0.47904 0.20997,0.0958 0.41026,0.17667 0.61132,0.24547 0.34041,0.10702 0.79224,0.21153 1.15961,0.26613 0.16677,0.0248 0.32441,0.0411 0.49922,0.0501 0.14674,0.006 0.30763,0.007 0.46971,0.007 0.16211,0 0.32301,-8e-4 0.46975,-0.007 0.17481,-0.009 0.33295,-0.0254 0.49971,-0.0501 0.36738,-0.0546 0.8187,-0.15907 1.15912,-0.26613 0.20108,-0.0689 0.40185,-0.14957 0.61185,-0.24547 0.29101,-0.13824 0.61338,-0.31368 0.88315,-0.47904 0.20383,-0.13055 0.39947,-0.27079 0.586,-0.42065 1.32842,-1.11685 2.11595,-2.48867 2.41276,-4.20129 0.0119,-0.0832 0.022,-0.16916 0.031,-0.25786 0.0296,-0.41506 0.027,-1.1861 -0.007,-1.53789 -0.003,-0.0282 -0.006,-0.0562 -0.009,-0.0837 0,-0.008 -0.003,-0.0157 -0.003,-0.0227 -0.0698,-0.40874 -0.15849,-0.78268 -0.26977,-1.13275 -0.003,-0.002 -0.004,-0.004 -0.005,-0.005 -0.003,-10e-6 -0.006,-10e-4 -0.008,-0.002 -0.0151,-0.009 -0.0172,-0.0173 -0.009,-0.0253 -0.008,-0.0194 -0.0109,-0.0424 -0.01,-0.0641 -0.16587,-0.49652 -0.37939,-0.94612 -0.65214,-1.38027 -0.0854,-0.136 -0.16526,-0.25635 -0.24496,-0.36898 -0.13305,-0.18415 -0.2759,-0.36167 -0.42788,-0.53175 -0.0806,-0.0888 -0.1679,-0.18012 -0.26509,-0.27801 -1.22224,-1.23072 -2.80318,-1.89631 -4.41576,-1.97301 -0.0457,-0.003 -0.0921,-0.004 -0.14108,-0.005 -0.0222,-2.6e-4 -0.0441,-7.9e-4 -0.0661,-0.001 -0.0318,-5.3e-4 -0.0641,-5.3e-4 -0.0961,-5.3e-4 -0.008,0 -0.0148,5.3e-4 -0.0228,5.3e-4 v -0.6873 0 c 1.97366,-0.007 3.87887,0.78935 5.2777,2.22209 0.30313,0.31045 0.57092,0.63551 0.81028,0.98496 0.006,0.005 0.0103,0.0121 0.0124,0.0191 0.17523,0.25762 0.33552,0.5282 0.48318,0.81649 0.14314,0.27949 0.47459,1.08003 0.46559,1.12293 -0.003,0.0141 0.0116,0.067 0.0326,0.11782 0.0209,0.0508 0.0382,0.12043 0.0382,0.15503 0,0.0346 0.0206,0.11845 0.0465,0.18656 0,0.005 0.004,0.0111 0.006,0.017 0.007,-2.6e-4 0.013,-5.2e-4 0.013,5.3e-4 0,0.002 0.008,0.0464 0.018,0.10749 0.0878,0.3608 0.17809,1.14785 0.17777,1.60611 0,0.81866 -0.17955,1.83125 -0.44545,2.52232 -0.23799,0.61856 -0.43133,1.01542 -0.75033,1.49345 -0.0998,0.15767 -0.19275,0.29104 -0.26046,0.37104 -0.0568,0.0778 -0.11597,0.15809 -0.18037,0.24339 -0.0599,0.0794 -0.17192,0.20393 -0.30591,0.34365 -0.0306,0.0332 -0.0618,0.0666 -0.0925,0.0987 l -0.29403,0.30748 -0.009,-0.0114 c -0.0188,0.0179 -0.0372,0.0356 -0.0558,0.0532 0.003,0.023 -0.006,0.0403 -0.0249,0.0403 -0.006,0 -0.0316,0.0177 -0.0687,0.0465 -0.0963,0.089 -0.18661,0.16942 -0.26249,0.23202 -0.70168,0.57892 -1.74236,1.1224 -2.57969,1.34721 -0.12298,0.0331 -0.23741,0.0623 -0.34676,0.0884 -0.005,0.003 -0.0106,0.004 -0.0164,0.005 -0.34401,0.0815 -0.63343,0.12965 -0.94517,0.15555 h 0.0548 c -0.0156,0.002 -0.029,0.005 -0.0449,0.007 -0.0254,0.004 -0.14465,0.008 -0.30285,0.0114 -0.14224,0.006 -0.29413,0.008 -0.45008,0.007 -0.15621,0.002 -0.30866,2.7e-4 -0.45114,-0.007 -0.15822,-0.003 -0.27691,-0.006 -0.30231,-0.0114 -0.0161,-0.002 -0.0294,-0.005 -0.045,-0.007 h 0.0553 c -0.31197,-0.0259 -0.60198,-0.074 -0.9462,-0.15555 -0.005,-0.003 -0.0106,-0.004 -0.0164,-0.005 -0.1093,-0.0261 -0.22326,-0.0554 -0.34624,-0.0884 -0.83735,-0.22483 -1.87804,-0.76828 -2.57969,-1.34721 -0.0758,-0.0626 -0.16621,-0.14312 -0.26252,-0.23202 -0.0371,-0.0288 -0.0627,-0.0465 -0.0687,-0.0465 -0.0188,0 -0.0268,-0.0173 -0.0249,-0.0403 -0.0185,-0.0176 -0.0376,-0.0353 -0.0563,-0.0532 l -0.009,0.0114 -0.29403,-0.30748 c -0.0307,-0.0321 -0.0619,-0.0655 -0.0925,-0.0987 -0.13401,-0.13971 -0.24603,-0.26425 -0.30593,-0.34365 -0.0644,-0.0853 -0.12417,-0.16559 -0.18087,-0.24339 -0.0677,-0.0799 -0.16013,-0.21335 -0.25993,-0.37104 -0.31903,-0.47803 -0.51236,-0.87489 -0.75033,-1.49345 -0.26591,-0.69106 -0.44485,-1.70364 -0.44545,-2.52232 0,-0.45825 0.09,-1.2453 0.17774,-1.60611 0.01,-0.0611 0.0175,-0.10549 0.0175,-0.10749 10e-5,-0.001 0.005,-7.9e-4 0.013,-5.3e-4 0,-0.006 0.004,-0.0111 0.006,-0.017 0.0257,-0.068 0.047,-0.15196 0.047,-0.18656 0,-0.0345 0.0167,-0.10433 0.0377,-0.15503 0.0209,-0.0507 0.0356,-0.10362 0.0326,-0.11782 -0.01,-0.0429 0.32245,-0.84343 0.46559,-1.12293 0.14766,-0.28829 0.30795,-0.5589 0.48318,-0.81649 0.003,-0.007 0.007,-0.0136 0.013,-0.0196 0.23936,-0.34945 0.50667,-0.67397 0.80978,-0.98443 1.39883,-1.43274 3.30404,-2.22909 5.2777,-2.22209 z m -0.0672,1.88103 h 0.003 c 0.0225,-2.7e-4 0.0451,2.6e-4 0.0677,5.3e-4 0.0225,0 0.0451,-8e-4 0.0677,-5.3e-4 0.33081,0.002 0.65791,0.0335 0.97412,0.0925 0.0876,0.015 0.17417,0.034 0.26458,0.0568 0.21706,0.0524 0.42778,0.11822 0.63045,0.19792 0.78952,0.31046 1.38433,0.69286 1.93064,1.24075 1.2201,1.22363 1.78157,2.82912 1.59316,4.51446 -0.003,0.0402 -0.007,0.0777 -0.0124,0.11058 -0.003,0.0191 -0.007,0.0384 -0.009,0.0574 -0.0156,0.11153 -0.0345,0.2233 -0.0569,0.33537 -0.13679,0.68743 -0.4473,1.39669 -0.86558,2.00402 -0.0558,0.0855 -0.10036,0.14986 -0.11576,0.16226 v 5.3e-4 c -0.12416,0.16684 -0.25669,0.32512 -0.39584,0.47077 -0.83272,0.8716 -1.79922,1.39944 -3.01945,1.649 -0.16634,0.034 -0.5838,0.0581 -0.97049,0.0641 -0.006,1.8e-4 -0.01,-1.6e-4 -0.0156,0 v -0.42839 c 0.0502,-8e-4 0.073,-4e-5 0.13282,-0.001 0.46035,-0.008 0.68363,-0.0271 0.92501,-0.0791 1.72519,-0.37157 3.14206,-1.61997 3.74137,-3.29592 0.0169,-0.0498 0.0334,-0.10041 0.0491,-0.15141 0.0966,-0.32576 0.19785,-0.81749 0.21703,-1.07436 l 0.0175,-0.23771 c -0.0267,-0.15743 -0.0538,-0.28827 -0.0822,-0.39222 -0.003,-0.005 -0.003,-0.009 -0.004,-0.0145 -0.0175,-0.0641 -0.0356,-0.11776 -0.0548,-0.16174 -0.0426,-0.1156 -0.0891,-0.16847 -0.14211,-0.16847 -0.0251,0 -0.0891,0.0361 -0.1633,0.0873 -0.0132,0.006 -0.0265,0.0147 -0.0377,0.0253 -0.0292,0.0212 -0.059,0.0443 -0.0884,0.0687 -0.0114,0.009 -0.0233,0.0185 -0.0346,0.0274 -0.16377,0.10107 -0.34261,0.18649 -0.509,0.24495 -0.12219,0.0299 -0.2508,0.0423 -0.4036,0.0434 -0.12229,7.9e-4 -0.21505,-0.003 -0.29662,-0.0134 -0.14044,-0.0415 -0.29358,-0.1054 -0.44029,-0.18242 -0.0244,-0.0162 -0.0493,-0.0322 -0.0765,-0.0512 -0.0847,-0.0588 -0.15814,-0.1086 -0.22322,-0.15141 -0.009,-0.007 -0.0172,-0.0123 -0.0254,-0.0186 l -0.0977,-0.10284 -0.0341,0.0248 c -0.003,-5.2e-4 -0.003,-0.002 -0.004,-0.002 -0.003,0 -0.0122,0.005 -0.0233,0.0114 -0.003,2.2e-4 -0.006,3e-5 -0.009,5.3e-4 -0.0448,-5.3e-4 -0.0795,0.0291 -0.12092,0.0806 -0.003,7.9e-4 -0.003,0.002 -0.003,0.003 -0.059,0.0388 -0.12417,0.0822 -0.19947,0.13435 -0.20296,0.14078 -0.41407,0.22935 -0.62683,0.26717 -0.0617,0.002 -0.12903,0.003 -0.21187,0.003 -0.11356,0 -0.20379,-0.002 -0.28112,-0.007 -0.0265,-0.006 -0.0529,-0.0122 -0.0791,-0.0191 -0.11176,-0.0333 -0.2268,-0.0785 -0.33332,-0.13074 -0.0816,-0.0435 -0.16201,-0.0942 -0.24083,-0.15399 l -0.0703,-0.0532 -0.16484,-0.13643 -0.008,0.005 -0.0135,-0.0103 -0.29197,0.216 c -0.003,0.003 -0.006,0.003 -0.009,0.007 -0.0647,0.048 -0.13171,0.0898 -0.2005,0.1266 -0.003,8e-4 -0.004,0.003 -0.006,0.003 v 0 c -0.0156,0.008 -0.0309,0.0156 -0.0465,0.0233 -0.19111,0.0916 -0.3968,0.14057 -0.60098,0.14676 -0.2042,0.006 -0.40719,-0.0304 -0.59377,-0.11007 -0.0206,-0.009 -0.0406,-0.0193 -0.0615,-0.0295 -0.0148,-0.007 -0.0307,-0.0139 -0.045,-0.0217 -0.003,-7.9e-4 -0.004,-0.003 -0.007,-0.003 -0.0665,-0.0362 -0.13002,-0.0777 -0.19018,-0.12558 -0.0864,-0.0688 -0.15111,-0.11245 -0.20929,-0.13125 -0.0206,-0.0114 -0.0388,-0.0177 -0.0574,-0.0186 l -0.004,-0.003 -0.004,0.003 c -0.0164,7.9e-4 -0.0334,0.005 -0.0511,0.0145 -0.003,7.9e-4 -0.003,0.002 -0.005,0.003 -0.0103,0.003 -0.0206,0.007 -0.0315,0.0114 -0.0206,0.005 -0.0393,0.017 -0.0589,0.0326 v 0 c -0.0341,0.0208 -0.0702,0.0461 -0.11316,0.0796 -0.0983,0.0766 -0.20235,0.1377 -0.31006,0.18603 -0.23075,0.093 -0.47125,0.13157 -0.70279,0.11576 -0.0127,-7.9e-4 -0.0262,-0.003 -0.0388,-0.005 -0.21736,-0.0389 -0.44347,-0.1344 -0.68575,-0.28525 -0.0331,-0.0269 -0.0651,-0.0559 -0.0961,-0.0863 -0.14155,-0.13887 -0.24329,-0.20967 -0.32454,-0.20412 -0.0159,-0.006 -0.0306,-0.0104 -0.0444,-0.009 h -0.003 l -0.004,5.3e-4 c -0.0199,0.002 -0.0387,0.0127 -0.0558,0.032 v 5.2e-4 c -0.006,0.007 -0.0124,0.0156 -0.0185,0.0253 -0.003,0.003 -0.005,0.007 -0.007,0.0119 -0.003,0.006 -0.007,0.0134 -0.0109,0.0207 -0.0116,0.0235 -0.023,0.0515 -0.0346,0.0847 -0.0497,0.1028 -0.0901,0.25657 -0.12298,0.46044 -0.01,0.0479 -0.0109,0.11813 -0.019,0.17053 l 0.018,0.23771 c 0.019,0.25687 0.12055,0.74859 0.21704,1.07435 0.0156,0.051 0.0318,0.10171 0.0486,0.15141 0.59928,1.67595 2.01615,2.92436 3.74136,3.29593 0.24136,0.0521 0.46467,0.0711 0.92501,0.0791 0.0599,10e-4 0.0827,5.3e-4 0.13283,10e-4 v 0.4284 c -0.006,-1.8e-4 -0.01,1.5e-4 -0.0156,0 -0.38668,-0.006 -0.80364,-0.0301 -0.96998,-0.0641 -1.22024,-0.24955 -2.18724,-0.77739 -3.01996,-1.649 -0.13917,-0.14564 -0.27117,-0.30393 -0.39534,-0.47077 v -5.3e-4 c -0.0156,-0.0123 -0.0606,-0.0768 -0.11628,-0.16226 -0.41828,-0.60735 -0.72827,-1.31659 -0.86506,-2.00401 -0.0222,-0.11204 -0.041,-0.22388 -0.0568,-0.33538 -0.003,-0.0191 -0.007,-0.0383 -0.009,-0.0574 -0.005,-0.0328 -0.009,-0.0705 -0.0124,-0.11059 -0.18841,-1.68535 0.37307,-3.29081 1.59319,-4.51445 0.54631,-0.54789 1.14112,-0.93029 1.93064,-1.24075 0.20267,-0.0797 0.41391,-0.14552 0.63095,-0.19792 0.0904,-0.0228 0.17693,-0.0417 0.26459,-0.0568 0.31623,-0.059 0.6428,-0.0905 0.97358,-0.0925 z m 0.0677,6.34328 v 0.001 c 1.51448,0.005 3.18376,0.0424 3.25975,0.0894 0.0138,0.009 0.0471,0.015 0.0847,0.016 0.0122,-0.002 0.0317,-0.002 0.0605,-0.003 0.0124,0 0.0244,5.3e-4 0.0357,0.001 0.0414,0.002 0.0757,0.011 0.0847,0.0248 0.006,0.009 0,0.0167 -0.0161,0.0227 0.004,0.008 -0.005,0.0145 -0.029,0.0145 -0.005,0 -0.0106,-0.003 -0.0164,-0.005 -0.003,0 -0.006,-2e-4 -0.008,-5.3e-4 -0.0103,2.6e-4 -0.0214,0.001 -0.0336,0.001 -0.068,5.3e-4 -0.30776,0.0167 -0.5333,0.0362 -0.21526,0.0186 -1.04706,0.0339 -1.98387,0.0429 -0.30027,0.004 -0.60497,0.007 -0.90485,0.009 v -0.001 c -0.29987,-0.002 -0.60507,-0.004 -0.90537,-0.009 -0.93679,-0.009 -1.76806,-0.0238 -1.98335,-0.0424 -0.22553,-0.0195 -0.4658,-0.0359 -0.53382,-0.0362 -0.0122,0 -0.0228,-5.3e-4 -0.0331,-0.001 -0.003,2.6e-4 -0.006,2.6e-4 -0.008,5.3e-4 -0.006,0.004 -0.0106,0.005 -0.0164,0.005 -0.023,0 -0.034,-0.005 -0.0289,-0.0145 -0.0151,-0.006 -0.022,-0.0137 -0.0161,-0.0227 0.008,-0.0137 0.0433,-0.0238 0.0847,-0.0248 0.0111,-8e-4 0.023,-10e-4 0.0357,-10e-4 0.0287,10e-4 0.048,10e-4 0.0604,0.003 0.0376,-0.001 0.0707,-0.007 0.0847,-0.0155 0.076,-0.047 1.74527,-0.0839 3.25975,-0.0899 z m -3.64164,0.0992 c 0.008,0 0.0153,0.001 0.0222,0.002 0.004,-0.001 0.007,-0.002 0.0124,-0.002 0.0193,0 0.0257,0.0151 0.0145,0.0331 -0.003,0.002 -0.003,0.005 -0.005,0.007 -0.0106,0.0148 -0.023,0.0264 -0.0299,0.0264 -0.003,0 -0.004,-0.001 -0.005,-0.002 -0.003,10e-4 -0.007,0.002 -0.01,0.002 -0.0161,0 -0.0383,-0.0151 -0.0496,-0.0331 -0.0111,-0.0181 0.0114,-0.0326 0.0496,-0.0326 z m 7.24969,5.3e-4 v 5.3e-4 c 0.004,0 0.007,5.3e-4 0.0124,0.002 0.007,-0.001 0.0143,-0.002 0.0222,-0.002 0.0379,0 0.0609,0.0145 0.0496,0.0325 -0.0111,0.0181 -0.0337,0.0326 -0.0496,0.0326 -0.003,0 -0.007,-5.3e-4 -0.01,-0.002 -0.003,0.001 -0.004,0.002 -0.005,0.002 -0.007,0 -0.0199,-0.0111 -0.0299,-0.0259 -0.003,-0.002 -0.004,-0.005 -0.005,-0.007 -0.0111,-0.0181 -0.005,-0.0326 0.014,-0.0326 z m -3.545,0.89968 c 0.0765,0 0.14399,0.002 0.19741,0.005 0.0217,0.003 0.0427,0.004 0.0641,0.005 0.61471,0.014 1.16941,0.0535 1.20251,0.10697 0.0298,0.0482 -0.85014,0.10657 -1.52705,0.11937 v 0.002 c -0.67693,-0.0128 -1.55683,-0.0712 -1.52704,-0.11937 0.0331,-0.0535 0.5883,-0.0929 1.20304,-0.10697 0.0214,-0.003 0.042,-0.004 0.0636,-0.005 0.0534,-0.004 0.12091,-0.005 0.1974,-0.005 v 0.002 c 0.0193,0 0.0426,2.7e-4 0.0631,5.3e-4 v -0.002 c 0.0204,0 0.0443,-5.3e-4 0.0636,-5.3e-4 z"
       id="path17973-2-83-5-1"
       inkscape:connector-curvature="0" />
  </g>
</svg>
