<?xml version="1.0" encoding="UTF-8" standalone="no"?>
<svg
   xmlns:dc="http://purl.org/dc/elements/1.1/"
   xmlns:cc="http://creativecommons.org/ns#"
   xmlns:rdf="http://www.w3.org/1999/02/22-rdf-syntax-ns#"
   xmlns:svg="http://www.w3.org/2000/svg"
   xmlns="http://www.w3.org/2000/svg"
   xmlns:sodipodi="http://sodipodi.sourceforge.net/DTD/sodipodi-0.dtd"
   xmlns:inkscape="http://www.inkscape.org/namespaces/inkscape"
   id="Hospitals"
   width="80"
   height="80"
   viewBox="0 0 80 80"
   version="1.1"
   sodipodi:docname="Hospitals.svg"
   inkscape:version="0.92.4 (5da689c313, 2019-01-14)">
  <metadata
     id="metadata969">
    <rdf:RDF>
      <cc:Work
         rdf:about="">
        <dc:format>image/svg+xml</dc:format>
        <dc:type
           rdf:resource="http://purl.org/dc/dcmitype/StillImage" />
        <dc:title></dc:title>
      </cc:Work>
    </rdf:RDF>
  </metadata>
  <sodipodi:namedview
     pagecolor="#ffffff"
     bordercolor="#666666"
     borderopacity="1"
     objecttolerance="10"
     gridtolerance="10"
     guidetolerance="10"
     inkscape:pageopacity="0"
     inkscape:pageshadow="2"
     inkscape:window-width="1920"
     inkscape:window-height="1001"
     id="namedview967"
     showgrid="false"
     inkscape:zoom="2.95"
     inkscape:cx="-1.3559322"
     inkscape:cy="40"
     inkscape:window-x="-9"
     inkscape:window-y="-9"
     inkscape:window-maximized="1"
     inkscape:current-layer="Hospitals" />
  <defs
     id="defs960">
    <filter
       id="Path_128"
       x="22"
       y="21"
       width="36"
       height="37"
       filterUnits="userSpaceOnUse">
      <feOffset
         dy="-1"
         input="SourceAlpha"
         id="feOffset949" />
      <feGaussianBlur
         result="blur"
         id="feGaussianBlur951" />
      <feFlood
         flood-opacity="0.102"
         id="feFlood953" />
      <feComposite
         operator="in"
         in2="blur"
         id="feComposite955"
         result="result1" />
      <feComposite
         in="SourceGraphic"
         in2="result1"
         id="feComposite957" />
    </filter>
  </defs>
  <circle
     id="Ellipse_35"
     data-name="Ellipse 35"
     cx="40"
     cy="40"
     r="40"
     fill="#f36f6e" />
  <g
     transform="matrix(1, 0, 0, 1, 0, 0)"
     filter="url(#Path_128)"
     id="g964">
    <path
       id="Path_128-2"
       data-name="Path 128"
       d="M11929,11388h-10v-10a2,2,0,0,0-2-2h-8a2,2,0,0,0-2,2v10h-10a2,2,0,0,0-2,2v8a2,2,0,0,0,2,2h10v10a2,2,0,0,0,2,2h8a2,2,0,0,0,2-2v-10h10a2,2,0,0,0,2-2v-8A2,2,0,0,0,11929,11388Z"
       transform="translate(-11873 -11354)"
       fill="#fff" />
  </g>
</svg>
