<?xml version="1.0" encoding="utf-8"?>
<!-- Generator: Adobe Illustrator 24.2.1, SVG Export Plug-In . SVG Version: 6.00 Build 0)  -->
<svg version="1.1" id="Colleges_Universities_" xmlns="http://www.w3.org/2000/svg" xmlns:xlink="http://www.w3.org/1999/xlink"
	 x="0px" y="0px" viewBox="0 0 80 80" style="enable-background:new 0 0 80 80;" xml:space="preserve">
<style type="text/css">
	.st0{fill:#7796C9;}
	.st1{opacity:0.1;}
	.st2{fill:#FFFFFF;}
</style>
<circle id="Ellipse_11" class="st0" cx="40" cy="40" r="40"/>
<g id="Group_42" transform="translate(-10593 -11574)">
	<g id="Group_39" class="st1">
		<path id="Path_44" d="M10645,11618.4l-4.3,2.4c-5.4,3-11.9,3-17.3,0l-5.3-2.9c0.2,2.4-0.1,4.9-1,7.1c-0.3,0.6-0.8,1.1-0.8,1.8
			c0,0.9,1.1,1.1,1.9,1c0,0,4.6-0.9,10.9,5.3c0.6,0.6,1.3,1.2,2.1,1.5c1.7,0.6,2.9-0.4,4-1.5c0.8-0.7,1.6-1.4,2.5-2
			c2.1-1.5,4.7-3.3,7.4-3.4c0,0,3.4,0.8,1.4-2.4C10645.8,11623,10645.3,11620.7,10645,11618.4z"/>
		<path id="Path_45" d="M10611,11616l-1,6v8h4v-8l-1-6v-5.5l-2-1.1V11616z"/>
		<path id="Path_46" d="M10658.1,11603.5l-19.4-10.7c-4.2-2.3-9.3-2.3-13.5,0l-19.4,10.7c-0.8,0.5-1.2,1.5-0.7,2.4
			c0.2,0.3,0.4,0.5,0.7,0.7l5.1,2.8v-4.4h23v2h-21v3.5l12.3,6.8c4.2,2.3,9.3,2.3,13.5,0l19.4-10.7c0.8-0.5,1.2-1.5,0.7-2.4
			C10658.6,11603.9,10658.4,11603.6,10658.1,11603.5z"/>
	</g>
	<g id="Group_41">
		<g id="Group_40">
			<path id="Path_47" class="st2" d="M10645,11619.4l-4.3,2.4c-5.4,3-11.9,3-17.3,0l-5.3-2.9c0.2,2.4-0.1,4.9-1,7.1
				c-0.3,0.6-0.8,1.1-0.8,1.8c0,0.9,1.1,1.1,1.9,1c0,0,4.6-0.9,10.9,5.3c0.6,0.6,1.3,1.2,2.1,1.5c1.7,0.6,2.9-0.4,4-1.5
				c0.8-0.7,1.6-1.4,2.5-2c2.1-1.5,4.7-3.3,7.4-3.4c0,0,3.4,0.8,1.4-2.4C10645.8,11624,10645.3,11621.7,10645,11619.4z"/>
			<path id="Path_48" class="st2" d="M10611,11617l-1,6v8h4v-8l-1-6v-5.5l-2-1.1V11617z"/>
			<path id="Path_49" class="st2" d="M10658.1,11604.5l-19.4-10.7c-4.2-2.3-9.3-2.3-13.5,0l-19.4,10.7c-0.8,0.5-1.2,1.5-0.7,2.4
				c0.2,0.3,0.4,0.5,0.7,0.7l5.1,2.8v-4.4h23v2h-21v3.5l12.3,6.8c4.2,2.3,9.3,2.3,13.5,0l19.4-10.7c0.8-0.5,1.2-1.5,0.7-2.4
				C10658.6,11604.9,10658.4,11604.6,10658.1,11604.5z"/>
		</g>
	</g>
</g>
</svg>
