<?xml version="1.0" encoding="UTF-8" standalone="no"?>
<svg
   xmlns:dc="http://purl.org/dc/elements/1.1/"
   xmlns:cc="http://creativecommons.org/ns#"
   xmlns:rdf="http://www.w3.org/1999/02/22-rdf-syntax-ns#"
   xmlns:svg="http://www.w3.org/2000/svg"
   xmlns="http://www.w3.org/2000/svg"
   xmlns:sodipodi="http://sodipodi.sourceforge.net/DTD/sodipodi-0.dtd"
   xmlns:inkscape="http://www.inkscape.org/namespaces/inkscape"
   id="Colleges_Universities_"
   data-name="Colleges &amp; Universities "
   width="80"
   height="80"
   viewBox="0 0 80 80"
   version="1.1"
   sodipodi:docname="Technical Education.svg"
   inkscape:version="0.92.4 (5da689c313, 2019-01-14)">
  <metadata
     id="metadata16564">
    <rdf:RDF>
      <cc:Work
         rdf:about="">
        <dc:format>image/svg+xml</dc:format>
        <dc:type
           rdf:resource="http://purl.org/dc/dcmitype/StillImage" />
        <dc:title></dc:title>
      </cc:Work>
    </rdf:RDF>
  </metadata>
  <defs
     id="defs16562" />
  <sodipodi:namedview
     pagecolor="#ffffff"
     bordercolor="#666666"
     borderopacity="1"
     objecttolerance="10"
     gridtolerance="10"
     guidetolerance="10"
     inkscape:pageopacity="0"
     inkscape:pageshadow="2"
     inkscape:window-width="1920"
     inkscape:window-height="1001"
     id="namedview16560"
     showgrid="false"
     inkscape:zoom="5.9"
     inkscape:cx="36.106469"
     inkscape:cy="34.002996"
     inkscape:window-x="-9"
     inkscape:window-y="-9"
     inkscape:window-maximized="1"
     inkscape:current-layer="Colleges_Universities_" />
  <circle
     id="Ellipse_11"
     data-name="Ellipse 11"
     cx="40"
     cy="40"
     r="40"
     fill="#806a49"
     style="fill:#d4aa00" />
  <g
     id="Group_42"
     data-name="Group 42"
     transform="translate(-10593 -11574)">
    <g
       id="Group_39"
       data-name="Group 39"
       style="mix-blend-mode: multiply;isolation: isolate"
       opacity="0.1">
      <path
         id="Path_44"
         data-name="Path 44"
         d="M10644.971,11618.376l-4.3,2.383a17.886,17.886,0,0,1-17.338,0l-5.278-2.924a15.806,15.806,0,0,1-1.037,7.129c-.272.568-.825,1.081-.815,1.763.013.945,1.089,1.105,1.863.962,0,0,4.562-.875,10.875,5.312a5.783,5.783,0,0,0,2.095,1.494c1.662.59,2.9-.429,4.04-1.5a22.975,22.975,0,0,1,2.517-1.983c2.091-1.478,4.746-3.337,7.41-3.381,0,0,3.438.75,1.438-2.437A48.728,48.728,0,0,1,10644.971,11618.376Z" />
      <path
         id="Path_45"
         data-name="Path 45"
         d="M10611,11616l-1,6v8h4v-8l-1-6v-5.536l-2-1.108Z" />
      <path
         id="Path_46"
         data-name="Path 46"
         d="M10658.1,11603.469l-19.368-10.728a13.884,13.884,0,0,0-13.463,0l-19.368,10.728a1.752,1.752,0,0,0,0,3.063l5.1,2.825V11605h23v2h-21v3.464l12.269,6.795a13.884,13.884,0,0,0,13.463,0l19.368-10.728A1.752,1.752,0,0,0,10658.1,11603.469Z" />
    </g>
    <g
       id="Group_41"
       data-name="Group 41">
      <g
         id="Group_40"
         data-name="Group 40">
        <path
           id="Path_47"
           data-name="Path 47"
           d="M10644.971,11619.376l-4.3,2.383a17.886,17.886,0,0,1-17.338,0l-5.278-2.924a15.806,15.806,0,0,1-1.037,7.129c-.272.568-.825,1.081-.815,1.763.013.945,1.089,1.105,1.863.962,0,0,4.562-.875,10.875,5.312a5.783,5.783,0,0,0,2.095,1.494c1.662.59,2.9-.429,4.04-1.5a22.975,22.975,0,0,1,2.517-1.983c2.091-1.478,4.746-3.337,7.41-3.381,0,0,3.438.75,1.438-2.437A48.728,48.728,0,0,1,10644.971,11619.376Z"
           fill="#fff" />
        <path
           id="Path_48"
           data-name="Path 48"
           d="M10611,11617l-1,6v8h4v-8l-1-6v-5.536l-2-1.108Z"
           fill="#fff" />
        <path
           id="Path_49"
           data-name="Path 49"
           d="M10658.1,11604.469l-19.368-10.728a13.884,13.884,0,0,0-13.463,0l-19.368,10.728a1.752,1.752,0,0,0,0,3.063l5.1,2.825V11606h23v2h-21v3.464l12.269,6.795a13.884,13.884,0,0,0,13.463,0l19.368-10.728A1.752,1.752,0,0,0,10658.1,11604.469Z"
           fill="#fff" />
      </g>
    </g>
  </g>
</svg>
