<?xml version="1.0" encoding="UTF-8" standalone="no"?>
<!-- Created with Inkscape (http://www.inkscape.org/) -->

<svg
   xmlns:dc="http://purl.org/dc/elements/1.1/"
   xmlns:cc="http://creativecommons.org/ns#"
   xmlns:rdf="http://www.w3.org/1999/02/22-rdf-syntax-ns#"
   xmlns:svg="http://www.w3.org/2000/svg"
   xmlns="http://www.w3.org/2000/svg"
   xmlns:sodipodi="http://sodipodi.sourceforge.net/DTD/sodipodi-0.dtd"
   xmlns:inkscape="http://www.inkscape.org/namespaces/inkscape"
   width="39.68721mm"
   height="39.687069mm"
   viewBox="0 0 39.687209 39.687069"
   version="1.1"
   id="svg8"
   inkscape:version="0.92.4 (5da689c313, 2019-01-14)"
   sodipodi:docname="infrastructure_networks.svg">
  <defs
     id="defs2" />
  <sodipodi:namedview
     id="base"
     pagecolor="#ffffff"
     bordercolor="#666666"
     borderopacity="1.0"
     inkscape:pageopacity="0.0"
     inkscape:pageshadow="2"
     inkscape:zoom="2.8"
     inkscape:cx="117.37515"
     inkscape:cy="63.781736"
     inkscape:document-units="mm"
     inkscape:current-layer="layer1-6"
     showgrid="false"
     fit-margin-top="0"
     fit-margin-left="0"
     fit-margin-right="0"
     fit-margin-bottom="0"
     inkscape:window-width="1920"
     inkscape:window-height="1001"
     inkscape:window-x="-9"
     inkscape:window-y="-9"
     inkscape:window-maximized="1" />
  <metadata
     id="metadata5">
    <rdf:RDF>
      <cc:Work
         rdf:about="">
        <dc:format>image/svg+xml</dc:format>
        <dc:type
           rdf:resource="http://purl.org/dc/dcmitype/StillImage" />
        <dc:title></dc:title>
      </cc:Work>
    </rdf:RDF>
  </metadata>
  <g
     inkscape:label="Layer 1"
     inkscape:groupmode="layer"
     id="layer1"
     transform="translate(38.74244,-135.03769)">
    <g
       inkscape:label="Layer 1"
       id="layer1-6"
       transform="translate(-22.409215,73.509924)">
      <path
         style="fill:#999999;fill-opacity:1;stroke-width:0.75220913"
         d="m 84.958984,0.00195313 v 0.00195312 c -0.12579,0 -0.247513,0.0013873 -0.365234,0.0078125 -0.582127,-0.0272126 -1.022331,0.05701395 -1.425781,0.29882813 -1.350958,0.58927748 -2.115058,2.08905032 -3.408203,4.99804692 -2.78845,6.2723642 -6.87602,8.6484372 -14.878907,8.6484372 -3.319741,0 -5.59026,-0.267172 -7.451171,-1.058593 -1.42304,-0.795172 -2.809523,-1.890626 -4.25586,-3.3242192 C 53.016619,9.3929526 52.857477,9.2052995 52.697266,9.0097656 48.635864,4.0563281 48.033841,3.903074 42.638672,6.453125 c -2.560988,1.2104693 -6.97437,3.698773 -9.808594,5.53125 l -5.154297,3.332031 0.539063,2.892578 c 0.295941,1.590569 0.981203,4.106327 1.523437,5.589844 0.574559,1.572378 0.781596,3.767433 0.496094,5.263672 -0.773571,4.056548 -4.750009,10.277942 -8.134766,12.728516 -2.884785,2.088521 -3.566016,2.246093 -9.742187,2.246093 -0.981838,0 -1.815528,-1.97e-4 -2.5332032,0.0098 -0.7371893,-0.03061 -1.3662369,-0.01502 -1.9101563,0.0625 -2.237828,0.149631 -2.5475243,0.606612 -3.2695313,2.001953 -1.8680239,3.610477 -4.93974189,17.171406 -4.6210937,19.957031 0.0049134,0.334186 0.03854665,0.567344 0.109375,0.681641 0.13904882,0.224844 0.940467,0.738511 2.0976563,1.369141 1.1957593,0.764806 2.7691967,1.65488 4.40625,2.470703 5.2831902,2.633076 5.9107612,3.195553 7.7578122,6.96875 3.513192,7.176408 1.56353,14.744239 -5.0136716,19.466797 -4.8084359,3.452585 -5.2728297,5.385465 -2.6035156,10.845695 3.4836022,7.12549 8.6465972,14.37305 10.2382812,14.37305 0.791354,0 3.221297,-0.67686 5.398437,-1.50391 2.554469,-0.97028 4.457628,-1.44046 6.294922,-1.40039 0.237536,0.009 0.47571,0.023 0.714844,0.041 1.603039,0.15209 3.214063,0.69847 5.22461,1.64844 1.443327,0.68196 2.721637,1.43002 3.839843,2.25195 1.299028,1.12189 2.578413,2.42853 3.626953,3.69727 1.951095,2.88428 2.6698,6.40357 2.230469,10.68945 -0.343861,3.35437 -0.21571,5.19466 0.414063,5.95312 0.89758,1.08087 9.585506,4.23884 15.470703,5.62305 2.439802,0.57385 4.077967,0.85295 5.341797,0.63672 0.381109,0.0654 0.655376,0.10698 0.779296,0.11719 0.795593,0.0658 1.915835,-1.30731 2.919922,-3.43946 0.348193,-0.60706 0.714331,-1.30724 1.117188,-2.10937 2.231808,-4.44347 3.160049,-5.5103 6.091797,-6.99805 8.311595,-4.21817 16.715079,-2.78297 21.333984,3.64258 1.81573,2.52586 3.200777,3.71094 4.333987,3.71094 h 0.0586 0.0234 c 0.0637,0 0.14532,-0.009 0.24219,-0.0293 2.69065,-0.42854 12.52155,-5.39485 16.9414,-8.61328 3.31007,-2.41029 3.47269,-2.68994 2.90625,-5.03906 -0.32987,-1.3679 -1.14602,-3.74353 -1.8125,-5.28125 -1.56123,-3.60195 -1.5099,-6.25421 0.19336,-9.98828 0.79204,-1.73683 1.61153,-3.21833 2.50195,-4.47266 0.47166,-0.57833 0.98533,-1.15344 1.54297,-1.72266 0.68649,-0.70074 1.35489,-1.31197 2.01953,-1.84179 2.61964,-1.75539 5.91817,-2.46423 10.4629,-2.48243 2.14304,0.26646 3.60993,0.33166 4.71875,-0.006 l 1.78125,-0.006 1.42773,-3.00782 c 1.87523,-3.950998 5.33231,-17.948154 4.78516,-19.37304 -0.23532,-0.612669 -2.06353,-1.884608 -4.0625,-2.826172 -5.17468,-2.43744 -7.64352,-5.013711 -8.91797,-9.302734 -0.59039,-1.987128 -0.9551,-3.859448 -1.09571,-5.613281 -0.0106,-0.31132 -0.0156,-0.6253 -0.0156,-0.945313 0,-0.96404 0.0129,-1.821641 0.0527,-2.595703 0.41165,-3.692814 2.03982,-6.724922 4.875,-9.046875 1.85274,-1.517348 3.56692,-3.546999 3.8086,-4.509766 0.031,-0.12514 0.0501,-0.266477 0.0547,-0.425781 0.10511,-0.529508 -0.0378,-1.068466 -0.30468,-1.853515 -0.87087,-3.077413 -3.54336,-8.232155 -7.18946,-13.683594 -3.14999,-4.709972 -3.20328,-4.748261 -6.07812,-4.302734 -1.59529,0.247332 -3.86545,0.948034 -5.04297,1.55664 -2.59897,1.343188 -3.98857,1.346002 -7.70898,0.01953 -4.21026,-1.500933 -8.57769,-4.767618 -10.49805,-7.853515 -1.3076,-2.101746 -1.77511,-4.227895 -2.06641,-9.410156 l -0.10742,-1.910157 c 0.14071,-1.9538454 0.12379,-2.9299002 -0.20117,-3.5898435 l -0.0664,-1.1953125 -4.6289,-1.7265625 C 98.202269,2.7768353 93.366102,1.4409537 90.001953,0.75976562 87.754552,0.3046198 86.163863,0.01198399 84.958984,0.00195313 Z M 75.050781,20.396484 c 1.665502,3.63e-4 3.329049,0.08114 4.982422,0.242188 16.562369,1.613454 31.337187,10.470304 40.562497,24.314453 4.78491,7.180603 7.93374,16.132364 8.80078,25.021484 1.36709,14.01758 -3.21179,28.902031 -12.20117,39.673831 -2.19743,2.63307 -6.88581,7.13382 -9.37695,9.00195 -10.894833,8.16987 -24.865164,12.0614 -38.335938,10.67969 -10.490607,-1.07606 -21.214591,-5.55249 -29.169922,-12.17774 -1.000577,-0.83351 -2.279584,-2.03876 -3.582031,-3.3457 -0.594118,-0.58495 -1.174254,-1.18195 -1.738281,-1.79102 -1.478252,-1.56494 -2.833502,-3.10837 -3.664063,-4.21484 C 23.231771,97.016311 19.317057,83.205639 20.607422,69.974609 21.667817,59.10242 26.058556,48.441484 32.806641,40.355469 35.004072,37.722438 39.694407,33.219692 42.185547,31.351562 51.619636,24.277186 63.393134,20.391926 75.050781,20.396484 Z M 74.808594,25.1875 c -3.421281,0.0094 -6.862404,0.372096 -10.265625,1.107422 -4.103115,0.886673 -7.197312,1.95067 -11.033203,3.796875 -14.293132,6.879103 -24.190069,19.537952 -27.376954,35.017578 -1.881245,9.137412 -0.997071,19.418078 2.408204,28.013672 3.070713,7.751233 8.070703,14.730333 14.269531,19.916013 7.787373,6.5146 17.302329,10.53182 27.462891,11.59571 3.243692,0.3397 9.408217,0.0941 13.021484,-0.51954 20.251998,-3.43941 36.303268,-18.84166 40.468748,-38.832027 3.11425,-14.944785 -0.571,-29.951612 -10.30859,-41.980469 C 104.08705,31.730388 89.634289,25.146466 74.808594,25.1875 Z"
         transform="matrix(0.26458333,0,0,0.26458333,-16.333351,61.527246)"
         id="path17973-2-83-5"
         inkscape:connector-curvature="0"
         sodipodi:nodetypes="cccccsccccccccccsccccccccccscccccccccccccccscsccccccccccccccccscccccccccccccccccccccccccccccccccccccscscsc" />
      <g
         id="g853"
         transform="matrix(0.04181002,0,0,0.04181002,-6.3988466,63.803565)"
         style="fill:#ffffff">
        <path
           inkscape:connector-curvature="0"
           id="path815"
           style="fill:#ffffff;fill-rule:evenodd"
           d="m 189.4088,312.9542 h 3.45 v -18.2999 h 5.4 v 18.2999 h 75.1499 v -42.5999 h 5.4 v 42.5999 h 7.2 v 347.4 h -96.5999 z m 9,10.1999 h 65.9999 v 16.8001 h -65.9999 z m 0,28.3465 h 65.9999 v 16.8001 h -65.9999 z m 0,28.3465 h 65.9999 v 16.8 h -65.9999 z m 0,28.3464 h 65.9999 v 16.8001 h -65.9999 z m 0,28.3465 h 65.9999 v 16.8001 h -65.9999 z m 0,28.3464 h 65.9999 v 16.8001 h -65.9999 z m 0,28.3465 h 65.9999 v 16.8001 h -65.9999 z m 0,28.3464 h 65.9999 v 16.8001 h -65.9999 z m 0,28.3465 h 65.9999 v 16.8001 h -65.9999 z m 0,28.3465 h 65.9999 v 16.8 h -65.9999 z m 0,28.3464 h 65.9999 v 16.8001 h -65.9999 z" />
        <path
           inkscape:connector-curvature="0"
           id="path817"
           style="fill:#ffffff;fill-rule:evenodd"
           d="m 294.8579,613.4066 h 33.5999 V 179.0065 h -33.5999 z m 6.2614,-30.6964 22.0141,12.7924 -22.0861,12.6684 z m 20.3856,-27.8252 -22.0793,12.6799 22.0207,12.7809 z m 0,-55.3504 -22.0793,12.6799 22.0207,12.7809 z m -20.3856,27.8251 22.0141,12.7925 -22.0861,12.6683 z m 20.3856,-82.9887 -22.0793,12.6799 22.0207,12.7808 z m -20.3856,27.8251 22.0141,12.7925 -22.0861,12.6683 z m 20.3856,-83.1756 -22.0793,12.68 22.0207,12.7808 z m -20.3856,27.8252 22.0141,12.7925 -22.0861,12.6683 z m 20.3856,-82.4649 -22.0793,12.6799 22.0207,12.7808 z m -20.3856,27.8251 22.0141,12.7925 -22.0861,12.6683 z m 20.3856,-83.1756 -22.0793,12.68 22.0207,12.7808 z m -20.3856,27.8252 22.0141,12.7925 -22.0861,12.6683 z m 20.3856,-82.9888 -22.0793,12.6799 22.0207,12.7809 z m -20.3856,27.8252 22.0141,12.7924 -22.0861,12.6684 z m 0,-55.3505 22.0141,12.7925 -22.0861,12.6683 z m 6.8091,-10.2101 2.5075,1.4553 11.0104,6.3905 0.0178,-7.8458 z m 15.1333,419.6461 -4.6128,2.6804 h 4.6205 z" />
        <path
           inkscape:connector-curvature="0"
           id="path819"
           style="fill:#ffffff;fill-rule:evenodd"
           d="M 388.025,228.8378 H 119.452 l -15.5673,26.5884 H 374.366 l 13.659,-22.3752 z m -32.1418,5.5021 10.0341,17.4719 10.1138,-17.4257 z m -43.6521,0 10.0338,17.4719 10.1137,-17.4257 z m 22.0187,16.1314 10.1228,-17.4203 10.0247,17.4773 z m -65.8191,-16.1314 10.0341,17.4719 10.1138,-17.4257 z m 22.019,16.1314 10.1228,-17.4203 10.0247,17.4773 z m -65.2567,-16.1314 10.0341,17.4719 10.1138,-17.4257 z m 22.0187,16.1314 10.1231,-17.4203 10.0247,17.4773 z m -65.8188,-16.1314 10.0341,17.4719 10.1138,-17.4257 z m 22.0187,16.1314 10.1231,-17.4203 10.0247,17.4773 z m -65.6708,-16.1314 10.0338,17.4719 10.1137,-17.4257 z m 22.0187,16.1314 10.1228,-17.4203 10.0247,17.4773 z m -43.8001,0 10.1228,-17.4203 10.0247,17.4773 z" />
        <path
           inkscape:connector-curvature="0"
           id="path821"
           style="fill:#ffffff;fill-rule:evenodd"
           d="m 283.693,212.6078 v 77.4 h 60.0001 v -77.4 z" />
        <path
           inkscape:connector-curvature="0"
           id="path823"
           style="fill:#ffffff;fill-rule:evenodd"
           d="m 317.893,220.4079 v 30.0634 h 16.3568 v -30.0634 z" />
        <path
           inkscape:connector-curvature="0"
           id="path825"
           style="fill:#ffffff;fill-rule:evenodd"
           d="m 114.4925,259.7148 v 133.8001 h 5.4 V 259.7148 Z" />
        <path
           inkscape:connector-curvature="0"
           id="path827"
           style="fill:#ffffff;fill-rule:evenodd"
           d="m 111.0327,394.9274 h 12.0188 c 2.3714,0 4.5702,1.9553 4.3113,4.3118 l -1.6973,15.4501 c -0.2587,2.3562 -1.9411,4.3119 -4.3117,4.3119 h -8.6234 c -2.3709,0 -4.053,-1.9549 -4.3117,-4.3119 l -1.6973,-15.4501 c -0.2592,-2.3573 1.9399,-4.3118 4.3113,-4.3118 z m -2.2124,9.7546 5.402,-7.8678 h 2.5504 l -7.6354,10.9586 z m 12.3541,-7.823 2.3354,0.0446 -12.7107,18.1903 -0.5053,-2.9936 z m 4.0903,5.292 -11.5421,15.153 2.9825,0.0126 8.2866,-11.3851 z m -1.3507,10.9666 -3.189,4.2669 h 1.7067 l 1.0781,-1.4375 z m -12.7774,-16.2374 -2.6052,3.1438 -0.0898,-1.1901 1.6169,-1.9985 z" />
        <path
           inkscape:connector-curvature="0"
           id="path829"
           style="fill:#ffffff;fill-rule:evenodd"
           d="m 121.6491,420.8491 v 5.218 c 0,3.0917 -1.8459,5.0306 -3.8276,7.1127 -0.7382,0.7758 -2.5484,1.8408 -1.3487,3.5929 2.5656,3.7474 7.7346,-0.5159 10.6421,-1.4491 1.8402,5.6744 -2.7491,9.4941 -7.9336,10.0522 -6.0721,0.6526 -12.06,-2.819 -11.975,-9.5538 0.0692,-5.5166 5.9389,-9.586 5.9389,-9.7549 v -5.218 z" />
        <path
           inkscape:connector-curvature="0"
           id="path831"
           style="fill:#ffffff;fill-rule:evenodd"
           d="M 294.8309,619.9534 H 401.631 v 15.6 H 294.8309 Z m 0,25.8001 H 401.631 v 15.5999 H 294.8309 Z" />
        <path
           inkscape:connector-curvature="0"
           id="path833"
           style="fill:#ffffff;fill-rule:evenodd"
           d="m 72.381,504.453 h 93.6003 v 28.2002 H 72.381 Z m 55.4414,-54.3382 -1.9789,1.3584 33.1047,48.232 1.9789,-1.3583 z m -18.5536,0 1.9789,1.3584 -33.1047,48.232 -1.9789,-1.3583 z" />
      </g>
    </g>
  </g>
</svg>
