<?xml version="1.0" encoding="UTF-8" standalone="no"?>
<svg
   xmlns:dc="http://purl.org/dc/elements/1.1/"
   xmlns:cc="http://creativecommons.org/ns#"
   xmlns:rdf="http://www.w3.org/1999/02/22-rdf-syntax-ns#"
   xmlns:svg="http://www.w3.org/2000/svg"
   xmlns="http://www.w3.org/2000/svg"
   xmlns:sodipodi="http://sodipodi.sourceforge.net/DTD/sodipodi-0.dtd"
   xmlns:inkscape="http://www.inkscape.org/namespaces/inkscape"
   id="airport"
   width="80"
   height="80"
   viewBox="0 0 80 80"
   version="1.1"
   sodipodi:docname="water_coverage_area.svg"
   inkscape:version="0.92.4 (5da689c313, 2019-01-14)">
  <metadata
     id="metadata10416">
    <rdf:RDF>
      <cc:Work
         rdf:about="">
        <dc:format>image/svg+xml</dc:format>
        <dc:type
           rdf:resource="http://purl.org/dc/dcmitype/StillImage" />
        <dc:title></dc:title>
      </cc:Work>
    </rdf:RDF>
  </metadata>
  <sodipodi:namedview
     pagecolor="#ffffff"
     bordercolor="#666666"
     borderopacity="1"
     objecttolerance="10"
     gridtolerance="10"
     guidetolerance="10"
     inkscape:pageopacity="0"
     inkscape:pageshadow="2"
     inkscape:window-width="1920"
     inkscape:window-height="1001"
     id="namedview10414"
     showgrid="false"
     fit-margin-top="0"
     fit-margin-left="0"
     fit-margin-right="0"
     fit-margin-bottom="0"
     inkscape:zoom="1.475"
     inkscape:cx="-104.87267"
     inkscape:cy="211.42201"
     inkscape:window-x="-9"
     inkscape:window-y="-9"
     inkscape:window-maximized="1"
     inkscape:current-layer="g7012" />
  <defs
     id="defs10407">
    <filter
       id="Path_29"
       x="19.5"
       y="18"
       width="40.375"
       height="42.625"
       filterUnits="userSpaceOnUse">
      <feOffset
         dy="-1"
         input="SourceAlpha"
         id="feOffset10396" />
      <feGaussianBlur
         result="blur"
         id="feGaussianBlur10398" />
      <feFlood
         flood-opacity="0.102"
         id="feFlood10400" />
      <feComposite
         operator="in"
         in2="blur"
         id="feComposite10402"
         result="result1" />
      <feComposite
         in="SourceGraphic"
         in2="result1"
         id="feComposite10404" />
    </filter>
  </defs>
  <g
     id="g7090"
     transform="matrix(0.27575583,0,0,0.27575583,80.909537,32.417501)">
    <g
       id="g7012"
       transform="matrix(3.7795276,0,0,3.7795276,-955.50496,-1026.7716)">
      <g
         id="g2818"
         transform="translate(227.01808,166.92336)">
        <g
           id="g3503">
          <circle
             id="Ellipse_130-4-4-3-6-5-0-7-3-1"
             data-name="Ellipse 130"
             cx="-13.459445"
             cy="112.01858"
             r="38.379364"
             style="opacity:1;fill:#49b8e3;fill-opacity:1;stroke-width:0.9594841" />
          <path
             style="fill:#ffffff;fill-opacity:1;stroke-width:0.07380198"
             d="m -29.934298,82.457502 -1.154748,0.0146 -0.634951,9.48e-4 c -0.984335,0.0019 -1.934379,0.0312 -2.111279,0.06544 -0.07772,0.01508 -0.151631,0.03689 -0.222422,0.06269 -6.59e-4,2.19e-4 -0.0011,4.56e-4 -0.0023,8.92e-4 -0.0547,0.02001 -0.107903,0.04192 -0.157263,0.06743 -0.07818,0.02845 -0.139615,0.06269 -0.189831,0.105125 -0.03678,0.0038 -0.07101,0.03063 -0.10825,0.108254 -0.0081,0.0085 -0.02035,0.01736 -0.02683,0.02456 -0.01585,0.01754 -0.03111,0.04163 -0.0488,0.08782 -0.01492,0.02352 -0.02868,0.04742 -0.04036,0.07198 -0.04637,0.09784 -0.237907,1.091165 -0.425656,2.207433 -0.241064,1.433217 -0.610606,3.611118 -1.068252,6.301139 -0.0069,0.01546 -0.0093,0.03803 -0.01041,0.06325 -0.343844,2.021025 -0.719504,4.226922 -1.216864,7.141351 -0.183574,1.075669 -0.666628,3.915196 -1.073444,6.310076 -0.406817,2.39487 -0.823221,4.83587 -0.92526,5.42445 -0.366246,2.11246 -0.82381,4.86874 -0.838499,5.04808 -0.0023,0.002 -0.0023,0.005 -0.0023,0.007 0,9.5e-4 0.0011,0.002 0.0011,0.004 -5.7e-5,9.5e-4 -0.0011,0.009 -0.0011,0.009 0,0.004 0.0011,0.006 0.0035,0.009 -2.2e-4,0.002 -0.0035,0.0229 -0.0035,0.0239 0,2.3e-4 0.0023,6.7e-4 0.0023,8.9e-4 -4.39e-4,0.006 -0.0023,0.0202 -0.0023,0.0235 0,0.004 0.04001,0.006 0.106978,0.009 0.122025,0.0278 0.386937,0.0326 0.963182,0.0326 0.20785,0 0.379431,-0.004 0.532172,-0.009 0.297456,0.002 0.71356,0.005 1.122018,0.006 4.51e-4,1e-5 8.9e-4,0 0.0011,0 0.08107,2.1e-4 0.179839,1.5e-4 0.2632,6.7e-4 l 1.62e-4,2.2e-4 h 0.05216 l 0.0081,0.0118 1.249015,-0.009 c 0.05539,3e-5 0.101889,2.4e-4 0.157691,2.4e-4 0.101427,0 0.170621,-1.6e-4 0.267826,-1.6e-4 h 4.253844 l 0.07147,-0.0363 0.06569,-6.7e-4 0.0081,-0.005 0.08651,-0.0485 c 0.05216,-0.017 0.105127,-0.0389 0.158281,-0.0655 0.178161,-0.0623 0.270787,-0.14942 0.40086,-0.27143 0.06199,-0.0581 0.134584,-0.14802 0.200933,-0.2436 0.04221,-0.0567 0.08014,-0.11473 0.112182,-0.17341 l 0.139962,-0.2018 1.62e-4,-0.1339 1.5e-4,-0.029 0.03666,-0.0722 v -15.928013 -14.560892 -0.0057 -0.267113 l 0.0011,-1.094048 h -0.0011 v -0.07369 z"
             id="path2138-4"
             inkscape:connector-curvature="0" />
          <path
             style="fill:#ffffff;fill-opacity:1;stroke-width:0.07380198"
             d="m -13.920423,82.470495 -12.916492,1.51e-4 1.51e-4,0.03623 h -8.9e-4 l 1.49e-4,0.03699 h -2.19e-4 l 0.0035,1.025008 v 4.337888 0.0057 1.003974 4.36484 0.655862 c -4.5e-4,0.04524 -1.61e-4,0.09256 0,0.141541 v 1.277412 l 0.03678,0.07369 1.51e-4,0.06601 0.0931,0.15754 c 0.01353,0.05055 0.02879,0.08791 0.04637,0.12339 0.09101,0.183355 0.233975,0.347524 0.411096,0.479867 0.03226,0.02674 0.065,0.05206 0.09877,0.07435 l 0.29896,0.198064 0.168644,0.0019 c 0.0046,9.48e-4 0.0093,0.0019 0.01365,0.0038 0.547866,0.144908 13.634943,0.132125 14.164223,-0.01385 0.119225,-0.03281 0.21975,-0.06866 0.318123,-0.123238 0.09622,-0.04581 0.165243,-0.08099 0.313798,-0.247359 0.238774,-0.240521 0.544084,-0.649081 1.0800832,-1.396487 0.4643409,-0.647488 1.4461552,-2.007492 2.1817686,-3.022267 3.5396598,-4.882983 5.2610658,-7.264969 6.038072,-8.36154 0.070548,-0.09645 0.2138402,-0.293894 0.2453321,-0.336134 0.1685849,-0.226182 0.3064649,-0.430761 0.3192791,-0.472659 l 0.0124898,-0.01802 h -0.003509 v -1.61e-4 h -0.0115604 c 6.6e-4,-0.0019 0.00465,-0.0085 0.00465,-0.0095 0,-0.0085 -0.3320126,-0.01631 -0.8887942,-0.02352 -0.8957114,-0.02105 -2.8613391,-0.02968 -6.2385774,-0.03319 -1.7508277,-0.0047 -3.6607818,-0.0066 -5.7891308,-0.0066 z"
             id="path2136-1"
             inkscape:connector-curvature="0" />
          <path
             style="fill:#ffffff;fill-opacity:1;stroke-width:0.07380198"
             d="m 4.7438427,82.485099 c -0.020238,-1.61e-4 -0.04187,2.18e-4 -0.062221,1.52e-4 -0.00806,-2.9e-5 -0.018739,1.52e-4 -0.027407,1.52e-4 -0.1492366,-4.46e-4 -0.3010176,-8.92e-4 -0.4533315,0.0019 l -1.3268487,0.02001 -1.3138724,1.808148 c -0.60371364,0.830813 -0.98236903,1.355708 -1.22147907,1.72051 -0.1201155,0.175275 -0.2136316,0.314958 -0.23827739,0.361512 -0.02798588,0.05301 -0.05158089,0.115301 -0.07146785,0.182909 -0.08628112,0.204086 -0.09425676,0.346092 -0.09252128,0.54646 0.0046469,0.494509 0.14895964,0.802287 0.5683591,1.208372 0.16908274,0.163704 0.85356759,0.829363 1.52115479,1.479193 0.667588,0.649849 2.1599119,2.094541 3.3161861,3.210392 1.1562742,1.115879 2.4510183,2.367078 2.8771254,2.780408 0.2310832,0.224153 0.4350814,0.41793 0.5804667,0.552804 0.042448,0.04467 0.072283,0.07729 0.075062,0.08374 v 0 c 0.027294,0.06326 0.043368,0.07587 0.047304,0.03054 0.049845,0.04571 0.080382,0.07255 0.081881,0.07065 v -9.48e-4 c 0,-10e-6 6.591e-4,6.64e-4 6.591e-4,6.64e-4 4.65e-5,-5.7e-5 -6.591e-4,-0.0038 -6.591e-4,-0.0038 3.51e-5,0 0.00351,0.0038 0.00351,0.0019 3.42e-5,-4.7e-5 -4.64e-5,-9.48e-4 0,-9.48e-4 l 0.00228,9.48e-4 c 0,-1.52e-4 -0.00228,-0.01792 -0.00228,-0.01935 -6.714e-4,-0.0095 -0.00228,-0.02361 -0.00465,-0.046 0.01249,-0.0066 0.00929,-0.03281 -0.00578,-0.07596 -0.00228,-0.0066 -0.00806,-0.03547 -0.013647,-0.05756 -6.591e-4,-0.0019 -0.00228,-0.01157 -0.00228,-0.01423 C 8.9166871,95.914986 8.753414,94.93604 8.5580315,93.796784 8.3006022,92.295712 7.7867278,89.282047 7.4161211,87.09983 c -0.00929,-0.05406 -0.014918,-0.08658 -0.02406,-0.140109 -0.032263,-0.190695 -0.061529,-0.36174 -0.091943,-0.54169 L 6.739243,83.0969 6.712177,83.069398 c -0.00228,-0.0095 -0.00692,-0.03357 -0.00806,-0.03585 C 6.663641,82.928196 6.5102851,82.804246 6.3191124,82.70374 6.2870774,82.68269 6.2546904,82.66571 6.2254344,82.65699 6.1908574,82.63926 6.1547724,82.62323 6.111286,82.61062 c -6.705e-4,-1.52e-4 -0.00114,-2.19e-4 -0.00228,-4.46e-4 -0.074939,-0.02807 -0.1513884,-0.05225 -0.2265851,-0.06838 -0.103508,-0.0221 -0.3708486,-0.03888 -0.7041566,-0.04856 -0.069163,-0.0019 -0.1510764,-0.0038 -0.2280418,-0.0047 -0.069391,-9.48e-4 -0.1321672,-0.0038 -0.2048195,-0.0038 z"
             id="path2134-3"
             inkscape:connector-curvature="0" />
          <path
             style="fill:#ffffff;fill-opacity:1;stroke-width:0.07380198"
             d="m -2.1461192,90.663133 c -0.1624566,-8.92e-4 -0.3272367,0.01859 -0.4801519,0.05681 -0.2409252,0.05671 -0.4609752,0.156089 -0.6126064,0.293325 -0.015724,0.01432 -0.048925,0.05311 -0.090786,0.10466 v 1.62e-4 c -0.026829,0.02798 -0.052159,0.057 -0.075868,0.08715 -0.012727,0.01631 -0.091364,0.12432 -0.1393841,0.189557 -0.120694,0.159162 -0.2665421,0.357178 -0.4211805,0.570093 -0.493185,0.667773 -1.2860695,1.768156 -2.6309255,3.630132 -1.919055,2.656971 -2.714426,3.701458 -2.9254212,3.841597 l -0.1386662,0.09208 c -0.1014273,0.05045 -0.2320903,0.08213 -0.785299,0.103161 l -7.304955,0.03405 -7.939189,0.03689 -0.124973,0.07359 -0.03528,1.52e-4 -0.118775,0.08232 c -0.0081,0.0019 -0.01885,0.0038 -0.02244,0.0057 -0.04348,0.02494 -0.09079,0.06107 -0.139105,0.101313 -0.27849,0.182325 -0.453251,0.389445 -0.573402,0.681805 l -0.09299,0.15034 -1.51e-4,0.0773 -0.03678,0.0738 v 1.83323 1.57521 0.21045 5.47333 5.35856 0.0334 0.0812 11.11931 1.6085 0.72793 l -0.0011,0.88044 h 0.0011 5.276274 0.02093 5.25075 0.0093 0.03678 l -0.422198,-0.85579 c -1.86788,-3.78624 -3.033787,-7.81152 -3.507045,-12.11189 -0.100271,-0.95713 -0.167257,-1.93577 -0.20194,-2.94068 -0.0046,-0.18823 -0.01041,-0.37654 -0.01458,-0.58653 l -0.014,-0.65254 0.02151,-1.29255 c 0.0093,-0.0411 0.0222,-0.0683 0.03724,-0.0876 l 0.437915,-0.24749 c 0.169048,-0.0934 0.400455,-0.22521 0.675892,-0.38385 0.521149,-0.29669 1.262002,-0.72152 1.87661,-1.07734 2.373659,-1.37422 4.252212,-2.4596 5.682755,-3.28333 0.771234,-0.44408 2.7140675,-1.56623 4.3174169,-2.49369 1.292616,-0.74771 2.5224558,-1.44863 3.1237521,-1.78235 0.42982,-0.22376 0.7821529,-0.38991 1.0911859,-0.51229 0.4651622,-0.16734 0.9495001,-0.28061 1.4410085,-0.33759 0.2324602,-0.0149 0.4795497,-0.019 0.76482836,-0.0173 0.40914018,0.002 0.76066415,0.0233 1.08424585,0.0686 0.16401758,0.0284 0.32730589,0.0618 0.48894121,0.10317 0.0594427,0.0152 0.10651517,0.0279 0.1587087,0.0414 0.40364728,0.12782 0.83537538,0.31081 1.32858318,0.55754 0.030414,0.0163 0.066963,0.0364 0.099229,0.0538 0.4327807,0.24041 1.0927128,0.61253 1.869406,1.05341 0.8056758,0.4622 1.8248798,1.05104 3.199863,1.84519 0.9335982,0.53921 2.0295486,1.17239 2.4354634,1.40699 0.2273363,0.13141 0.3810029,0.2183 0.4952779,0.27619 0.03099,0.0174 0.06708,0.0381 0.09148,0.0504 6.6e-4,2.2e-4 0.0046,0.002 0.0046,0.004 0.114959,0.0753 0.15746,0.0857 0.22285,0.0246 0.01422,-0.0116 0.02856,-0.0254 0.04441,-0.0445 6.71e-4,-8.9e-4 0.0011,-0.002 0.0023,-0.002 6.59e-4,-6.8e-4 0.0011,-9e-4 0.0023,-9.5e-4 0.0011,-0.002 0.0023,-0.005 0.0046,-0.007 0.017,-0.0155 0.03168,-0.0316 0.03967,-0.061 0.05378,-0.12811 0,-0.5203 -0.225301,-1.84188 -0.03342,-0.19846 -0.05552,-0.33595 -0.09761,-0.58276 l -0.3688603,-2.1665 c -0.00465,-0.03 -0.027758,-0.164 -0.027872,-0.16692 0,-1.5e-4 -8.906e-4,-9.4e-4 -8.906e-4,-9.4e-4 l -0.00465,-0.0269 -0.014804,-0.0146 -0.00228,-0.0139 -0.00578,-0.006 v -6.7e-4 l -0.017004,-0.0165 -0.00228,-0.0104 -0.2649346,-0.24764 -0.5205138,-0.50407 C 8.2181496,100.10473 6.5356136,98.473196 3.388661,95.428149 2.1709412,94.24985 0.62134726,92.745487 -0.05494954,92.085007 -0.75434157,91.401966 -1.3978159,90.836833 -1.5471226,90.774441 c -0.1720549,-0.07198 -0.3825759,-0.107667 -0.59763,-0.10871 z"
             id="path2132-3"
             inkscape:connector-curvature="0" />
          <path
             style="fill:#ffffff;fill-opacity:1;stroke-width:0.07380198"
             d="m -0.93530432,104.16501 c -0.39528568,-0.005 -0.78769218,0.0448 -1.09520978,0.14832 -0.056323,0.019 -0.123632,0.0459 -0.2091563,0.0849 -0.1083654,0.0406 -0.2135273,0.0859 -0.3140868,0.13693 -0.3003006,0.15232 -1.6046439,0.89777 -4.1453156,2.36729 -0.6544847,0.37699 -1.226972,0.70616 -2.097737,1.20895 -1.0591269,0.61152 -3.4289692,1.9754 -5.2661652,3.03078 l -3.340265,1.91884 0.0011,0.0477 -0.0058,0.004 1.51e-4,0.002 -0.0023,9.5e-4 2.32e-4,0.009 0.02324,0.52741 v 9e-4 c -6.59e-4,0.66847 0.03758,1.41316 0.109059,2.19648 0.375336,4.76132 1.814413,9.36805 4.241595,13.59196 0.319951,0.55882 0.656231,1.10831 1.008877,1.64727 0.02186,0.0336 0.04325,0.0673 0.06523,0.10074 0.04001,0.0607 0.08084,0.12091 0.121237,0.18134 0.06442,0.0968 0.1282,0.19373 0.193729,0.29002 0.233801,0.34356 0.475732,0.68363 0.725043,1.01982 l 0.04557,0.0654 0.0023,-0.002 c 0.01156,0.0155 0.02324,0.0309 0.03493,0.0464 l -0.0011,9.5e-4 0.03504,0.0437 c 0.222456,0.29614 0.450302,0.58934 0.684115,0.87899 0.2748691,0.34407 0.5440135,0.66352 0.8247932,0.98163 0.4656477,0.53267 0.9497087,1.05218 1.4503763,1.55618 0.061178,0.0644 0.1246951,0.12744 0.1901314,0.18912 0.7801054,0.77292 1.5989197,1.50855 2.4488665,2.19979 0.066963,0.0549 0.1343066,0.10918 0.201523,0.16332 0.00114,8.9e-4 0.00228,0.002 0.00351,0.002 0.6348472,0.51172 1.2818949,0.99042 1.9594985,1.45096 0.056787,0.0389 0.11357,0.0775 0.170528,0.11589 0.018616,0.0125 0.037356,0.0249 0.056095,0.0375 0.3056095,0.20513 0.6138099,0.405 0.9246931,0.59805 l 0.9209348,0.57197 0.33370158,-0.19056 c 0.19636494,-0.11218 0.48255689,-0.29207 0.80316646,-0.50061 0.55268757,-0.35242 1.16047256,-0.76804 1.74991446,-1.19524 0.2008061,-0.14393 0.3908673,-0.28226 0.5480388,-0.40159 0.2070282,-0.15717 0.4118353,-0.31682 0.6146311,-0.47842 0.04059,-0.0322 0.084309,-0.0654 0.1238159,-0.0973 0.6939912,-0.55836 1.0307,-0.83999 1.5322695,-1.31345 0.657214,-0.59839 1.2880136,-1.2217 1.8917387,-1.86767 0.031571,-0.022 0.057707,-0.0492 0.074247,-0.08 0.9480776,-1.02119 1.8284646,-2.09898 2.6363956,-3.22696 l 0.00465,-0.006 v -1.5e-4 c 0.095991,-0.13409 0.1907564,-0.26884 0.2846888,-0.40433 0.025909,-0.0373 0.051467,-0.0747 0.077253,-0.11195 0.030537,-0.0446 0.061292,-0.0888 0.091715,-0.13348 1.2282103,-1.80029 2.2692373,-3.71591 3.1119333,-5.72427 0.810313,-1.92325 1.441483,-3.93205 1.878774,-6.00361 0.132895,-0.62959 0.259742,-1.39222 0.365991,-2.15684 0.01202,-0.0844 0.02371,-0.16895 0.03515,-0.25354 0.0046,-0.0369 0.0104,-0.0734 0.01469,-0.11022 0.0266,-0.20199 0.05135,-0.40443 0.07436,-0.60743 0.02347,-0.20691 0.04568,-0.41419 0.06546,-0.62212 0.0093,-0.0916 0.01654,-0.19876 0.02464,-0.3004 0.02059,-0.24812 0.03782,-0.48558 0.04753,-0.6968 0.01041,-0.18365 0.01862,-0.35946 0.02509,-0.52915 5.8e-5,-0.002 6.9e-5,-0.004 0,-0.005 0.0035,-0.0865 0.0069,-0.17207 0.0081,-0.25096 0.0148,-0.33298 0.02868,-0.62767 0.03666,-0.75618 0.0081,-0.13776 0.0035,-0.25625 -0.01238,-0.3435 l 0.0035,-0.0958 -0.0118,-0.009 0.0011,-0.0473 -1.492335,-0.8506 -0.014,-0.009 c -0.180741,-0.10479 -0.361875,-0.21001 -0.557418,-0.3223 -1.060122,-0.60887 -1.928851,-1.14645 -1.930517,-1.19467 -0.0023,-0.0435 -0.05089,-0.0746 -0.112413,-0.0767 -0.0093,-0.0138 -0.01977,-0.0156 -0.03319,-0.004 -0.08454,-0.0183 -0.495173,-0.2306 -1.029901,-0.52756 -0.3743645,-0.2131 -1.013942,-0.58068 -1.7265645,-0.99071 -2.848397,-1.65104 -4.8751707,-2.82152 -6.116055,-3.52636 -0.3234318,-0.18635 -0.7397785,-0.42664 -0.9506343,-0.54789 -0.3455446,-0.1987 -0.68741055,-0.37766 -0.96994755,-0.51128 -0.16942983,-0.0857 -0.28467649,-0.1382 -0.35618417,-0.16303 -0.05123,-0.0178 -0.10512773,-0.0338 -0.16014261,-0.0489 -0.00692298,-0.002 -0.01700397,-0.006 -0.02382262,-0.007 -0.01457618,-0.004 -0.02937997,-0.007 -0.04394666,-0.0104 -0.02023785,-0.005 -0.04071278,-0.009 -0.06141532,-0.0145 -0.0289153,-0.007 -0.0578211,-0.013 -0.0870872,-0.0187 -0.0124898,-0.002 -0.0250934,-0.005 -0.0375832,-0.007 -0.15071694,-0.0284 -0.3043254,-0.0473 -0.45939149,-0.0566 -0.0793392,-0.006 -0.15907951,-0.009 -0.2388445,-0.009 z"
             id="path2130-7"
             inkscape:connector-curvature="0" />
          <path
             style="fill:#ffffff;fill-opacity:1;stroke-width:0.07380198"
             d="m -40.764016,118.78054 -0.0023,0.0135 -0.03921,0.2635 c -0.0093,0.0651 -0.065,0.39343 -0.128859,0.77059 -0.246477,1.40049 -0.500402,2.88965 -0.734134,4.28081 -0.591501,3.45036 -0.73883,4.38389 -0.738598,4.64001 1.1e-5,0.009 6.7e-4,0.0178 8.9e-4,0.0267 -1.51e-4,0.004 -0.0011,0.0127 -0.0011,0.0159 0,0.10582 0.02012,0.21205 0.05597,0.31424 0.0628,0.25864 0.212082,0.43565 0.478416,0.59804 0.01469,0.009 0.02903,0.0174 0.04441,0.0252 0.0148,0.009 0.03065,0.0147 0.04857,0.0212 0.04383,0.0233 0.08662,0.0406 0.12613,0.0481 0.01214,0.002 0.07367,0.005 0.170089,0.007 0.085,0.0201 0.164885,0.0332 0.220397,0.0326 l 0.221404,-0.002 -0.04488,-0.0116 c 0.0643,0.002 0.12983,0.005 0.206842,0.006 0.389873,0.009 0.950657,0.0143 1.770674,0.017 0.412529,9.5e-4 1.118144,9.5e-4 1.673087,9.5e-4 0.04071,3e-5 0.08119,1.6e-4 0.122811,1.6e-4 0.523324,2.2e-4 0.899435,9.5e-4 1.565554,9.5e-4 h 0.0011 l 5.811902,1.4e-4 h 1.51e-4 v -1.4e-4 -4.80131 -0.10871 c 0,-0.67047 2.2e-4,-1.25452 -2.2e-4,-1.76432 v -0.009 c -8.91e-4,-0.74556 -0.0035,-1.33101 -0.01041,-1.7956 -1.62e-4,-0.009 -1.62e-4,-0.0198 -2.32e-4,-0.0285 -2.2e-4,-0.0161 -6.59e-4,-0.0284 -8.79e-4,-0.0441 -0.0046,-0.3146 -0.01238,-0.57104 -0.02278,-0.78242 l -0.0023,-0.59198 v -0.0117 l -0.0561,-0.0918 c -0.0104,-0.0304 -0.02151,-0.0611 -0.03516,-0.0919 -8.79e-4,-0.002 -0.0023,-0.004 -0.0023,-0.006 -3.4e-5,-7e-5 -6.9e-5,-2.2e-4 -1.49e-4,-2.2e-4 -8.91e-4,-0.004 -0.0023,-0.007 -0.0023,-0.0104 -0.0058,-0.0211 -0.01295,-0.0411 -0.0199,-0.0598 -0.01226,-0.033 -0.02556,-0.0622 -0.03978,-0.0895 -0.0023,-0.004 -0.0035,-0.009 -0.0058,-0.0119 -3.5e-5,-6e-5 -1.51e-4,-8e-5 -1.51e-4,-1.6e-4 -0.05794,-0.10675 -0.132467,-0.17925 -0.228759,-0.28194 -0.01041,-0.0104 -0.02163,-0.0216 -0.03319,-0.0327 -0.0035,-0.005 -0.0069,-0.009 -0.0093,-0.009 -0.03424,-0.032 -0.07667,-0.0652 -0.12022,-0.0986 -0.04013,-0.0318 -0.08084,-0.0617 -0.123388,-0.0912 -0.06511,-0.0451 -0.130282,-0.0871 -0.186662,-0.11604 -0.06465,-0.0333 -0.128085,-0.0587 -0.256146,-0.0781 l -0.123828,-0.0627 h -3.012611 -0.01272 c -0.02625,-1e-5 -0.03851,-1.6e-4 -0.06534,-1.6e-4 -0.131611,0 -0.228874,9.5e-4 -0.352865,9.5e-4 -0.03053,5e-5 -0.0547,2.3e-4 -0.08442,2.3e-4 -0.407627,-2.3e-4 -0.684936,-9.5e-4 -1.193087,-9.5e-4 h -1.85681 c -0.0035,-1e-5 -0.0058,-1.5e-4 -0.0081,-1.5e-4 -8.91e-4,0 -0.0023,1.5e-4 -0.0023,1.5e-4 h -0.03077 -0.02752 -2.489079 z"
             id="path2053-5"
             inkscape:connector-curvature="0" />
          <path
             style="fill:#49b8e3;fill-opacity:1;stroke-width:0.25658864"
             d="m -1.0016197,110.53192 0.68500103,1.60466 c 0.77267718,1.8102 1.96283037,3.50883 4.76787017,6.80447 1.4570844,1.71188 2.2771721,2.88586 2.7433121,4.08155 0.081814,0.0981 0.126208,0.22447 0.1338237,0.373 0.2053353,0.62566 0.3233337,1.27277 0.3932524,2.01943 0.026486,0.28069 0.040058,0.55959 0.040058,0.83606 0.038739,0.0295 0.052029,0.16177 0.052029,0.41005 0,0.22339 -0.047976,0.49331 -0.1185733,0.70631 -0.5037383,4.12893 -3.8135252,7.48611 -8.06145447,7.81528 -0.86090033,0.0667 -1.97211463,0.0193 -2.46936823,-0.1052 -2.6120238,-0.65461 -4.8623047,-2.52006 -6.0421369,-5.00886 -0.5074613,-1.07054 -0.6796563,-1.55446 -0.7350513,-2.5694 -0.161242,-0.93764 -0.163749,-1.68428 -0.0047,-2.5786 0.04977,-1.06666 0.217994,-1.51315 0.7592934,-2.59664 0.4353467,-0.87125 1.742829,-2.66376 2.9631156,-4.0622 2.5182679,-2.88594 3.2934901,-3.95162 4.0528962,-5.69596 0.076913,-0.19402 0.1698859,-0.41662 0.2706355,-0.64632 z"
             id="path17973-2-83-9"
             inkscape:connector-curvature="0"
             sodipodi:nodetypes="cccccccsccccccccccc" />
        </g>
      </g>
    </g>
  </g>
</svg>
