<?xml version="1.0" encoding="UTF-8" standalone="no"?>
<!-- Generator: Adobe Illustrator 24.2.1, SVG Export Plug-In . SVG Version: 6.00 Build 0)  -->

<svg
   xmlns:dc="http://purl.org/dc/elements/1.1/"
   xmlns:cc="http://creativecommons.org/ns#"
   xmlns:rdf="http://www.w3.org/1999/02/22-rdf-syntax-ns#"
   xmlns:svg="http://www.w3.org/2000/svg"
   xmlns="http://www.w3.org/2000/svg"
   xmlns:sodipodi="http://sodipodi.sourceforge.net/DTD/sodipodi-0.dtd"
   xmlns:inkscape="http://www.inkscape.org/namespaces/inkscape"
   version="1.1"
   id="Colleges_Universities_"
   x="0px"
   y="0px"
   viewBox="0 0 80.001259 80.001259"
   xml:space="preserve"
   sodipodi:docname="statistics2.svg"
   width="80.001259"
   height="80.001259"
   inkscape:version="0.92.4 (5da689c313, 2019-01-14)"><metadata
   id="metadata17147"><rdf:RDF><cc:Work
       rdf:about=""><dc:format>image/svg+xml</dc:format><dc:type
         rdf:resource="http://purl.org/dc/dcmitype/StillImage" /><dc:title></dc:title></cc:Work></rdf:RDF></metadata><defs
   id="defs17145" /><sodipodi:namedview
   pagecolor="#ffffff"
   bordercolor="#666666"
   borderopacity="1"
   objecttolerance="10"
   gridtolerance="10"
   guidetolerance="10"
   inkscape:pageopacity="0"
   inkscape:pageshadow="2"
   inkscape:window-width="1920"
   inkscape:window-height="1001"
   id="namedview17143"
   showgrid="false"
   fit-margin-top="0"
   fit-margin-left="0"
   fit-margin-right="0"
   fit-margin-bottom="0"
   inkscape:zoom="2.085965"
   inkscape:cx="-59.300582"
   inkscape:cy="112.96348"
   inkscape:window-x="-9"
   inkscape:window-y="-9"
   inkscape:window-maximized="1"
   inkscape:current-layer="Colleges_Universities_" />
<style
   type="text/css"
   id="style17129">
	.st0{fill:#7796C9;}
	.st1{opacity:0.1;}
	.st2{fill:#FFFFFF;}
</style>


<g
   id="g17969"
   transform="matrix(0.07275108,0,0,0.07275108,94.035763,62.65032)"><path
     id="path17944"
     d="m -693.32812,-832.80469 c -5.24922,-0.0107 -10.33891,0.006 -14.95508,0.0566 -31.65318,0.34756 -33.78779,0.52896 -37.33399,3.15625 -2.62707,1.94635 -4.3628,2.74846 -5.51562,6.76172 l -0.2461,0.2461 v 0.67968 c -2.15002,9.07403 -2.01893,32.52488 -2.0664,106.19336 -0.0367,56.83334 0.17903,104.68203 0.47851,106.33203 0.71488,3.9386 3.78802,3.80239 10.03907,-0.44531 11.22143,-7.62516 54.90206,-24.24841 76.21484,-29.0039 16.62183,-3.70883 34.5377,-7.44946 40,-8.35157 2.9333,-0.48445 6.00607,-1.40931 6.82617,-2.05664 1.9919,-1.57242 3.81644,-149.44544 2.02734,-164.31836 -0.46843,-3.89447 -0.91562,-6.52175 -1.51953,-8.53125 v -0.49804 l -0.21875,-0.21875 c -0.69404,-2.00037 -1.60188,-3.33625 -2.97461,-4.70899 -1.36015,-1.36013 -2.3056,-2.18401 -4.49218,-2.75781 l -0.10938,-0.10938 h -0.31055 c -3.31756,-0.76462 -9.35095,-1.05913 -22.88281,-1.6582 -10.04254,-0.44459 -27.21328,-0.73556 -42.96093,-0.76758 z"
     style="fill:#407ec9;fill-opacity:1;stroke-width:1.33333337"
     inkscape:connector-curvature="0" /><path
     id="path17942"
     d="m -862.70898,-684.37891 c -55.189,0 -56.55517,0.0637 -60.23633,2.78711 -2.5441,1.8822 -4.23408,2.5062 -5.36914,6.90039 l -0.39844,0.46094 v 1.38281 c -2.0095,10.88141 -1.91866,39.56154 -2.0957,127.13672 -0.13936,68.93334 0.0468,126.7087 0.41406,128.39063 0.71198,3.26067 2.79411,3.34918 4.57812,0.19531 0.59755,-1.05635 6.18219,-12.42058 12.41016,-25.25391 9.54921,-19.67707 13.78237,-26.60902 27.00977,-44.24023 8.62688,-11.49903 20.78424,-26.68355 27.01757,-33.74219 13.71867,-15.53505 38.42873,-38.46009 53.17383,-49.33398 9.04727,-6.67199 10.96808,-8.74909 11.69922,-12.64649 1.41153,-7.52401 -0.45774,-79.00131 -2.20703,-91.40429 v -0.48438 l -0.0937,-0.10742 c -0.0914,-0.53761 -0.18156,-0.95754 -0.27148,-1.14063 -0.89868,-1.82969 -3.32822,-4.58065 -5.39844,-6.11328 -3.67876,-2.72337 -5.04261,-2.78711 -60.23242,-2.78711 z"
     style="fill:#2cd5c4;fill-opacity:1;stroke-width:1.33333337"
     inkscape:connector-curvature="0" /><path
     id="path17940"
     d="m -584.18945,-631.50195 c -16.86266,0.14106 -30.72566,1.49595 -49.18946,4.55078 -22.45226,3.71475 -67.36346,18.10977 -90,28.8457 -7.7,3.65192 -16.1647,7.42754 -18.81054,8.39063 -9.72401,3.53959 -37.16573,21.60531 -53.33985,35.11523 -4.68345,3.91197 -13.29409,11.11197 -19.13281,16 -19.04984,15.94803 -44.34294,43.1935 -53.25,57.35742 -1.68228,2.67516 -7.28613,11.46459 -12.45117,19.53125 -16.59818,25.92278 -30.49669,53.96017 -37.83008,76.31641 -11.53626,35.16892 -18.23434,65.81867 -16.17383,74.00976 1.55975,6.20046 8.02894,9.086 20.52344,9.1543 5.3891,0.0294 27.79883,1.79566 49.79883,3.92578 48.46683,4.69274 104.73313,9.57216 154,13.35352 20.16667,1.54786 40.56536,3.39328 45.33203,4.10156 4.76667,0.70828 23.36736,2.68287 41.33398,4.38867 45.7941,4.34778 45.25894,4.35744 50.21094,-0.91797 2.2372,-2.38334 8.34431,-10.42863 13.57031,-17.8789 5.2259,-7.45027 10.39338,-14.43824 11.48438,-15.5293 1.5753,-1.57528 44.44636,-62.46104 56.06836,-79.62891 1.4666,-2.16654 14.98767,-21.49477 30.04687,-42.95117 15.0591,-21.4564 28.96801,-41.71172 30.90821,-45.01172 1.9402,-3.3 7.73445,-11.69934 12.87695,-18.66601 14.0901,-19.08844 42.24506,-58.9397 43.97656,-62.2461 2.8484,-5.43901 1.88902,-12.91299 -2.14258,-16.70117 -4.6906,-4.40744 -36.81295,-22.3134 -50.66015,-28.24023 -38.8239,-16.61735 -83.44016,-25.29165 -139.00586,-27.02344 -6.56903,-0.20473 -12.52365,-0.29311 -18.14453,-0.24609 z"
     style="fill:#407ec9;fill-opacity:1;stroke-width:1.33333337"
     inkscape:connector-curvature="0" /><path
     id="path17938"
     d="m -346.28516,-553.01367 c -2.63826,-0.0877 -5.0673,0.53851 -6.89062,1.91992 -1.9091,1.44642 -35.86601,49.22148 -53.53711,75.32422 -1.4667,2.16646 -14.66543,21.07997 -29.33203,42.0293 -14.6667,20.94932 -30.26797,43.56949 -34.66797,50.26757 -4.4,6.69808 -11.6,16.98048 -16,22.84961 -14.6703,19.56859 -30.13308,41.48232 -35.45508,50.24414 -2.8953,4.76666 -10.0525,15.51374 -15.9043,23.88086 -11.3419,16.21681 -12.77634,20.76758 -8.27734,26.27149 1.267,1.55005 10.48944,8.54099 20.49414,15.53515 10.0047,6.99415 21.57835,15.47519 25.71875,18.84766 4.1405,3.37246 8.07248,6.13281 8.73828,6.13281 1.5829,0 76.61063,52.50016 82.70313,57.8711 2.5756,2.27058 9.31355,7.12825 14.97265,10.79492 16.9416,10.97683 65.42647,44.69266 69.00977,47.98828 4.7318,4.351919 52.80935,37.882516 56.37305,39.316406 4.6917,1.88776 6.92037,1.570961 11.76367,-1.673828 3.5279,-2.363561 6.64881,-7.306455 14.09961,-22.333985 5.2624,-10.61395 12.62608,-27.097533 16.36328,-36.630863 3.7372,-9.53334 7.45452,-18.49227 8.26172,-19.91015 3.029,-5.32022 9.92949,-32.08133 13.77539,-53.42188 4.7771,-26.50764 5.0914,-91.14185 0.5957,-122.66797 -3.2329,-22.67082 -13.88826,-62.09306 -19.97265,-73.89648 -1.3526,-2.62391 -4.51174,-9.56888 -7.01954,-15.43555 -14.004,-32.7604 -23.84942,-49.32685 -46.17382,-77.6875 -11.9332,-15.15991 -50.50683,-55.40232 -59.26563,-61.83008 -3.24259,-2.37965 -6.981,-3.67237 -10.37305,-3.78515 z"
     style="fill:#2cd5c4;fill-opacity:1;stroke-width:1.33333337"
     inkscape:connector-curvature="0" /><path
     id="path17936"
     d="m -1162.3809,-537.4707 -56.1171,0.83203 c -41.2062,0.61018 -52.4641,0.89144 -56.9356,2.13281 l -0.6113,0.01 -0.2403,0.26757 c -0.7003,0.26668 -1.2317,0.56753 -1.7109,0.92188 -1.8604,1.37581 -4.111,3.98545 -5.0019,5.79883 -0.075,0.15193 -0.1458,0.48434 -0.2149,0.98828 l -0.166,0.18359 v 1.5625 c -0.961,12.14887 -1.3495,67.18856 -1.5899,211.8125 -0.193,116.18733 0.1389,212.6412 0.7383,214.341799 0.5995,1.70059 2.9585,4.228398 5.2422,5.617188 0.9621,0.585094 1.8753,1.030103 3.4766,1.363281 l 0.033,0.0332 h 0.1074 c 5.0658,1.003958 16.9833,0.925994 57.9297,0.425781 28.4881,-0.34803 53.204,-0.856612 58.998,-1.197265 l 0.1856,-0.002 0.016,-0.01367 c 0.4791,-0.03095 1.043,-0.06413 1.1797,-0.0918 1.6407,-0.33206 4.0413,-2.216653 5.334,-4.189453 2.2214,-3.390321 2.3405,-15.143771 2.1914,-214.427731 -0.1194,-159.57891 -0.5437,-212.01304 -1.75,-215.66797 -1.0303,-3.12195 -3.2731,-5.8678 -6.3438,-7.76563 z"
     style="fill:#2cd5c4;fill-opacity:1;stroke-width:1.33333337"
     inkscape:connector-curvature="0" /><path
     id="path17934"
     d="m -1099.2305,-462.37891 -3.4765,3 c -1.9126,1.65 -3.9296,5.10131 -4.4825,7.66797 -0.5529,2.56667 -0.9317,82.66667 -0.8417,178 0.1255,132.70735 0.5415,174.028943 1.7753,176.306643 0.8863,1.63624 3.0759,3.743101 4.8672,4.681641 0.5122,0.268337 1.5305,0.493825 3.1582,0.683594 l 0.3907,0.328124 h 3.9746 c 8.3975,0.460608 24.7038,0.560217 55.2226,0.417969 20.9062,-0.09745 34.6095,-0.157594 43.8594,-0.417969 h 12.5332 l 1.09766,-0.923828 c 5.31178,-0.856756 5.99793,-2.334442 7.43164,-4.966796 1.8751,-3.442748 2.65269,-346.717708 0.80273,-354.373048 -0.65507,-2.71068 -2.75733,-6.16003 -4.67187,-7.66601 -3.39235,-2.66846 -4.98612,-2.73829 -62.56056,-2.73829 z"
     style="fill:#407ec9;fill-opacity:1;stroke-width:1.33333337"
     inkscape:connector-curvature="0" /><path
     id="path17932"
     d="m -925.35352,-281.86719 c -7.25405,-0.13421 -9.77286,1.67784 -12.68554,6.45508 -2.22302,3.64609 -2.6573,6.67716 -2.625,18.36719 0.0382,13.84044 0.3796,17.31167 4.52734,46 3.27581,22.65753 9.8061,50.00134 18.30664,76.66601 3.31634,10.40273 19.04715,42.106704 32.74805,66.000004 17.84066,31.1127 37.45443,54.468185 73.70312,87.759765 17.84846,16.39241 48.63117,37.820085 64.39844,44.828125 3.08137,1.36957 12.80156,5.781168 21.60156,9.804688 36.90388,16.87314 77.62168,28.878688 108.66602,32.039058 5.88961,0.59958 13.70815,0.77024 20.06836,0.59766 0.439,0.0294 1.397,0.10998 1.66601,0.12305 1.07093,0.052 2.25127,-0.089 3.44336,-0.36719 2.8075,-0.20504 4.95162,-0.4977 5.68946,-0.89258 6.3322,-3.38888 6.19606,0.8481 5.78906,-179.583982 -0.3502,-155.242938 -0.56959,-169.980148 -2.58789,-173.060548 -1.2135,-1.85192 -3.69497,-3.93155 -5.51367,-4.62305 -3.1727,-1.20625 -26.2233,-3.24216 -105.88672,-9.3457 -20.16667,-1.54511 -42.06797,-3.62763 -48.66797,-4.62891 -6.6,-1.0013 -28.49936,-3.07857 -48.66602,-4.61523 -87.09468,-6.63644 -105.54798,-8.20121 -120.66601,-10.23047 -5.73511,-0.76982 -10.0113,-1.23196 -13.3086,-1.29297 z"
     style="fill:#2cd5c4;fill-opacity:1;stroke-width:1.33333337"
     inkscape:connector-curvature="0" /><path
     id="path17913"
     d="m -497.49805,-125.10352 c -3.61072,0.10372 -7.13675,1.19338 -9.08007,3.13672 l -3.08008,3.07813 -0.72657,51.921873 c -0.4002,28.5567 -0.63734,100.631126 -0.52734,160.166016 l 0.19922,108.246091 3.85351,4.02344 c 2.9536,3.08325 5.28891,4.14044 10,4.52734 17.7289,1.45597 67.06966,-7.64692 88.81446,-16.38476 5.1333,-2.06278 13.83203,-5.12177 19.33203,-6.79688 11.6962,-3.56225 52.11944,-23.4201 60.33594,-29.64062 3.1153,-2.35845 11.59213,-8.40535 18.83593,-13.4375 12.3044,-8.54765 20.20951,-14.92758 46.72461,-37.70703 5.8093,-4.99086 14.08724,-13.574222 18.39453,-19.074222 16.02501,-20.46283 16.68399,-23.707816 6.70899,-32.972656 -6.5006,-6.03781 -30.29772,-23.111754 -42.54102,-30.521484 -10.1466,-6.14076 -41.83748,-28.3537936 -46.45898,-32.5644536 -4.975,-4.5326904 -64.31152,-46.0117244 -73.16602,-51.1464844 -3.5747,-2.07298 -8.67333,-5.692119 -11.33203,-8.042969 -4.9565,-4.38276 -73.17176,-52.402541 -78.41406,-55.199221 -2.2064,-1.17706 -5.06471,-1.69199 -7.87305,-1.61133 z"
     style="fill:#407ec9;fill-opacity:1;stroke-width:1.33333337"
     inkscape:connector-curvature="0" /></g></svg>