<?xml version="1.0" encoding="UTF-8" standalone="no"?>
<svg
   xmlns:dc="http://purl.org/dc/elements/1.1/"
   xmlns:cc="http://creativecommons.org/ns#"
   xmlns:rdf="http://www.w3.org/1999/02/22-rdf-syntax-ns#"
   xmlns:svg="http://www.w3.org/2000/svg"
   xmlns="http://www.w3.org/2000/svg"
   xmlns:sodipodi="http://sodipodi.sourceforge.net/DTD/sodipodi-0.dtd"
   xmlns:inkscape="http://www.inkscape.org/namespaces/inkscape"
   sodipodi:docname="مشروع مدن صناعية.svg"
   inkscape:version="1.0 (4035a4fb49, 2020-05-01)"
   id="svg275"
   version="1.1"
   viewBox="0 0 39.687496 39.6875"
   height="39.6875mm"
   width="39.687496mm">
  <defs
     id="defs269" />
  <sodipodi:namedview
     inkscape:window-maximized="0"
     inkscape:window-y="0"
     inkscape:window-x="96"
     inkscape:window-height="1030"
     inkscape:window-width="1424"
     fit-margin-bottom="0"
     fit-margin-right="0"
     fit-margin-left="0"
     fit-margin-top="0"
     showgrid="false"
     inkscape:document-rotation="0"
     inkscape:current-layer="layer1"
     inkscape:document-units="mm"
     inkscape:cy="73.159735"
     inkscape:cx="87.446522"
     inkscape:zoom="0.35"
     inkscape:pageshadow="2"
     inkscape:pageopacity="0.0"
     borderopacity="1.0"
     bordercolor="#666666"
     pagecolor="#ffffff"
     id="base" />
  <metadata
     id="metadata272">
    <rdf:RDF>
      <cc:Work
         rdf:about="">
        <dc:format>image/svg+xml</dc:format>
        <dc:type
           rdf:resource="http://purl.org/dc/dcmitype/StillImage" />
        <dc:title></dc:title>
      </cc:Work>
    </rdf:RDF>
  </metadata>
  <g
     transform="translate(-82.696441,-128.80982)"
     id="layer1"
     inkscape:groupmode="layer"
     inkscape:label="Layer 1">
    <path
       style="fill:#9c746c;fill-opacity:1;stroke-width:0.199024"
       d="m 105.17528,128.81006 h -6e-5 c -0.0333,0 -0.0654,0 -0.0965,0.002 -0.15405,-0.007 -0.2705,0.015 -0.37727,0.079 -0.35743,0.15592 -0.55955,0.55313 -0.9017,1.32282 -0.73779,1.65958 -1.81912,2.28811 -3.936537,2.28811 -0.878357,0 -1.479249,-0.0705 -1.97162,-0.27986 -0.376529,-0.21038 -0.743467,-0.5005 -1.126136,-0.87981 -0.04162,-0.048 -0.0835,-0.0977 -0.125891,-0.14943 -1.074574,-1.31062 -1.234062,-1.35114 -2.661561,-0.67642 -0.677589,0.32027 -1.845511,0.97898 -2.59542,1.46382 l -1.363442,0.88155 0.142346,0.76515 c 0.07831,0.42085 0.259756,1.08633 0.4032,1.47885 0.152032,0.41603 0.206751,0.9969 0.131247,1.39278 -0.204688,1.07331 -1.256792,2.71963 -2.152351,3.36802 -0.763287,0.55259 -0.943197,0.59404 -2.577326,0.59404 -0.259781,0 -0.480742,6e-5 -0.670629,0.003 -0.19505,-0.008 -0.361305,-0.004 -0.505231,0.0164 -0.592085,0.0396 -0.673886,0.16067 -0.864894,0.52987 -0.494278,0.95526 -1.307289,4.54308 -1.222992,5.28011 0.0013,0.0884 0.01013,0.1504 0.02888,0.18065 0.03678,0.0595 0.249106,0.19492 0.555281,0.36179 0.316406,0.20235 0.732792,0.43794 1.165932,0.6538 1.397872,0.69667 1.563511,0.8454 2.052216,1.84375 0.929541,1.89877 0.413864,3.90128 -1.326349,5.15081 -1.272244,0.91351 -1.394928,1.42475 -0.688651,2.86945 0.921688,1.88529 2.287712,3.80327 2.708814,3.80327 0.209405,0 0.852024,-0.17897 1.428053,-0.39781 0.675865,-0.25673 1.1796,-0.38155 1.665722,-0.37095 0.06287,0.002 0.12606,0.006 0.189356,0.011 0.424118,0.0402 0.850202,0.18481 1.382153,0.43615 0.381884,0.18043 0.720245,0.3786 1.016107,0.59609 0.343692,0.29684 0.68227,0.64226 0.959687,0.97795 0.516232,0.76314 0.706288,1.69465 0.590072,2.82863 -0.09099,0.88752 -0.05714,1.37419 0.109485,1.57487 0.237489,0.28597 2.536202,1.12138 4.093357,1.48761 0.645537,0.15183 1.079004,0.22573 1.413382,0.1685 0.10085,0.0173 0.17336,0.0284 0.20612,0.0311 0.21049,0.0174 0.50685,-0.3459 0.77252,-0.91003 0.0921,-0.16062 0.18894,-0.34573 0.29553,-0.55797 0.59052,-1.17567 0.83636,-1.45801 1.61203,-1.85165 2.19915,-1.11607 4.42259,-0.73648 5.64468,0.96362 0.48041,0.66832 0.84658,0.98201 1.14641,0.98201 h 0.0156 0.006 c 0.0169,0 0.0383,-0.003 0.0639,-0.008 0.71193,-0.11338 3.31329,-1.42696 4.48274,-2.27851 0.87579,-0.63772 0.91845,-0.71173 0.76858,-1.33328 -0.0873,-0.36191 -0.30302,-0.99091 -0.47935,-1.39775 -0.41307,-0.95304 -0.39951,-1.65477 0.0511,-2.64275 0.20959,-0.45954 0.42626,-0.8514 0.66184,-1.18328 0.12478,-0.15302 0.26079,-0.30498 0.40832,-0.45558 0.18163,-0.18541 0.35864,-0.34747 0.53453,-0.48767 0.69311,-0.46445 1.56595,-0.65153 2.76843,-0.65636 0.567,0.0705 0.95478,0.0874 1.24816,-0.002 l 0.47149,-10e-4 0.37771,-0.79586 c 0.49613,-1.04538 1.411,-4.74889 1.26625,-5.1259 -0.0622,-0.1621 -0.54594,-0.49858 -1.07484,-0.74771 -1.36914,-0.6449 -2.0228,-1.32659 -2.35998,-2.46141 -0.15623,-0.52577 -0.2527,-1.02113 -0.28987,-1.48518 -0.003,-0.0824 -0.004,-0.16579 -0.004,-0.25045 0,-0.25507 0.004,-0.48159 0.0142,-0.68639 0.10893,-0.97706 0.53979,-1.77951 1.28994,-2.39386 0.49022,-0.40148 0.94367,-0.93834 1.00763,-1.19306 0.008,-0.0331 0.013,-0.0709 0.0142,-0.1131 0.0278,-0.1401 -0.01,-0.28227 -0.0803,-0.48997 -0.23043,-0.81426 -0.9377,-2.17813 -1.9024,-3.62052 -0.83344,-1.24618 -0.84771,-1.25629 -1.60837,-1.13841 -0.42208,0.0654 -1.02233,0.25068 -1.33389,0.4117 -0.68766,0.35539 -1.0555,0.35637 -2.03988,0.005 -1.114,-0.39712 -2.26966,-1.26175 -2.77772,-2.07823 -0.346,-0.55609 -0.46951,-1.11879 -0.54655,-2.48995 l -0.0284,-0.50542 c 0.0372,-0.51696 0.0327,-0.77488 -0.0533,-0.94948 l -0.0178,-0.31661 -1.22466,-0.45683 c -0.67358,-0.25129 -1.9529,-0.60436 -2.84301,-0.7846 -0.59462,-0.12043 -1.01576,-0.19781 -1.33452,-0.20046 z m -2.62153,5.39682 c 0.44063,10e-5 0.88071,0.0212 1.31818,0.0638 4.38218,0.4269 8.29136,2.77015 10.73224,6.43312 1.26604,1.89988 2.09911,4.26832 2.3285,6.62025 0.3617,3.70885 -0.84935,7.64739 -3.22783,10.49743 -0.5814,0.69667 -1.82196,1.88762 -2.48105,2.38189 -2.88265,2.16163 -6.57887,3.19134 -10.14306,2.82577 -2.775628,-0.28473 -5.613289,-1.46944 -7.718136,-3.22239 -0.264763,-0.22053 -0.603304,-0.53914 -0.947902,-0.88493 -0.157184,-0.15478 -0.310494,-0.31281 -0.459753,-0.47396 -0.391124,-0.41406 -0.749812,-0.82267 -0.969591,-1.11542 -2.142182,-2.85342 -3.177687,-6.50764 -2.836274,-10.00839 0.280566,-2.87661 1.442312,-5.69729 3.227761,-7.83675 0.58141,-0.69664 1.821965,-1.8876 2.481062,-2.38188 2.496141,-1.87177 5.611388,-2.89975 8.695853,-2.89855 z m -0.0638,1.26728 c -0.90523,0.003 -1.8157,0.0983 -2.716129,0.29288 -1.08564,0.2346 -1.904584,0.51654 -2.919498,1.00501 -3.781775,1.82012 -6.400284,5.16942 -7.243478,9.26511 -0.497739,2.4176 -0.263967,5.13773 0.637021,7.412 0.81248,2.05086 2.13556,3.89741 3.775684,5.26946 2.06043,1.72367 4.577776,2.7866 7.2661,3.06811 0.85828,0.0899 2.48966,0.0247 3.44569,-0.13766 5.35838,-0.91002 9.60526,-4.98506 10.70741,-10.27421 0.82399,-3.95417 -0.15103,-7.92488 -2.72746,-11.10756 -2.47862,-3.06187 -6.30268,-4.80398 -10.22534,-4.79314 z m -3.271723,2.88889 v 0 h 0.05512 0.330833 v 0.003 h 0.02761 0.02756 c 0.68924,0 1.1304,0.055 2.45369,0.24794 0.13787,0.0274 0.2481,0.0547 0.38594,0.082 0.0551,0 0.11041,6e-5 0.16547,0.0274 0.88226,0.11059 1.24056,0.16524 1.65406,0.16524 h 0.22061 0.13786 c 0.0553,0 0.11034,0.0274 0.11034,0.0274 0,0.0276 -0.0827,0.0823 -0.16547,0.19293 -0.0275,0 -0.0275,0.0273 -0.0551,0.0273 -0.0276,0.0273 -0.0551,0.0547 -0.0827,0.082 0,0.0273 -0.0276,0.0273 -0.0276,0.0273 -0.0275,0.0274 -0.0551,0.0547 -0.0551,0.082 h -0.0276 l -0.0276,0.0274 c -0.0277,0 -0.0277,0.0274 -0.0277,0.0274 -0.0276,0 -0.0276,0.0273 -0.0276,0.0273 h -0.0276 c -0.0275,0.056 -0.0828,0.0833 -0.13786,0.11066 -0.0827,0.0833 -0.16543,0.138 -0.22052,0.16532 -0.13785,0.0827 -0.30329,0.16601 -0.4963,0.24802 h -0.0275 c 0,0 -0.0276,-2e-5 -0.0276,0.0273 -0.0551,0 -0.0828,0.0274 -0.13792,0.0274 -0.0276,0.0274 -0.0827,0.0273 -0.11028,0.0547 -0.1103,0.0273 -0.2206,0.0547 -0.33089,0.082 -0.0551,0 -0.11029,0.0274 -0.19297,0.0274 -0.0551,0 -0.13785,0.0273 -0.22054,0.0273 -0.2481,0.0273 -0.52382,0.0547 -0.74437,0.0274 -0.13785,0.0273 -0.27568,0 -0.33078,0 h -0.0828 -0.0276 c -0.0551,-0.0273 -0.13791,-0.0273 -0.22059,-0.0547 -0.27564,-0.0271 -0.49622,-0.083 -0.82699,-0.13765 -0.248115,-0.0558 -0.468777,-0.11057 -0.661715,-0.13789 -0.248115,-0.056 -0.496195,-0.0834 -0.744274,-0.11067 -0.275717,-0.0273 -0.551481,-0.0547 -0.854738,-0.0547 h -0.02756 c -0.11028,0 -0.192974,-0.0273 -0.303255,-0.0273 h -0.634029 -0.193036 -0.08273 l 0.02761,-0.0274 h -0.02761 c 0,-0.0551 0.303232,-0.35815 0.523783,-0.55105 0.02755,-0.0273 0.08281,-0.0547 0.13792,-0.082 0.192999,-0.16531 0.385925,-0.27505 0.634015,-0.38573 0,0 0.02755,3e-5 0.05513,-0.0273 h 0.02762 c 0.165387,-0.0547 0.358348,-0.11062 0.551349,-0.16532 h 0.02762 0.05512 c 0.08271,-0.0273 0.192999,-0.0273 0.275705,-0.0547 0.110257,0 0.192914,3e-5 0.303256,-0.0273 z m -1.819335,2.03891 -6.3e-5,0.0276 h 0.02767 l 0.0275,0.49597 c 0.05509,0.46838 0.110367,1.2674 0.165471,2.1767 l 0.05506,0.52354 c 0.13781,1.76337 0.248139,3.25178 0.248139,3.30647 v 0.1377 l -1.764471,0.68889 c -0.992463,0.38574 -1.819576,0.7166 -1.902282,0.74391 l -0.110293,0.0547 0.02762,-0.22035 c 0,-0.22051 0.606527,-7.79712 0.606527,-7.88042 v -0.0274 h 1.295743 0.02769 1.157825 z m 14.528788,5.40052 v 5.34442 5.31783 0.0547 h -0.13791 -3.3358 -3.4461 v -0.0547 -1.15725 -0.0273 -1.07461 -0.1106 h -4.13545 -4.135375 v 0.13771 1.04693 0.0274 1.15718 0.0546 H 94.94514 93.29095 93.153104 v -0.0546 -0.1377 -0.0273 -3.22383 -3.44423 l 4.824577,-1.90112 4.852209,-1.90127 v 0.2756 0.0273 c 0,0.13787 10e-6,0.33066 0.0276,0.66128 v 0.79924 0.0819 c 0,0.0273 0.0276,0.0273 0.0276,0.0273 0.11024,-0.0274 1.13033,-0.44075 2.39856,-0.93671 0.74434,-0.30318 1.40599,-0.55107 1.84708,-0.74385 0.0827,-0.0274 0.19301,-0.0548 0.24812,-0.0821 0.0275,0 0.0275,10e-6 0.0551,-0.0274 h 0.0276 c 0.0828,-0.0273 0.13782,-0.0547 0.16549,-0.0547 l 0.0276,-0.0273 h 0.0275 c 0.0276,0 0.0277,0.38568 0.0277,0.8266 0,0.63369 -3e-5,0.77166 0.0551,0.79899 0.0551,-0.0275 0.46868,-0.19277 0.99247,-0.38567 0.8822,-0.35824 2.09522,-0.82665 3.00505,-1.1849 z m -17.1479,5.20758 v 0.49572 0.22052 0.27543 h 1.929965 1.957327 v -0.49595 -0.0274 -0.46836 h -1.957327 z m 4.934944,0 -6.4e-5,0.49572 v 0.49595 h 1.90227 0.0276 1.9299 v -0.49595 -0.0274 -0.46836 h -1.9299 z m 4.907266,0 v 0.46868 0.0273 0.49596 h 1.95738 1.90228 v -0.49596 -0.49597 h -1.92983 z"
       id="path17973-2-7"
       inkscape:connector-curvature="0" />
  </g>
</svg>
