<?xml version="1.0" encoding="UTF-8" standalone="no"?>
<svg
   xmlns:dc="http://purl.org/dc/elements/1.1/"
   xmlns:cc="http://creativecommons.org/ns#"
   xmlns:rdf="http://www.w3.org/1999/02/22-rdf-syntax-ns#"
   xmlns:svg="http://www.w3.org/2000/svg"
   xmlns="http://www.w3.org/2000/svg"
   xmlns:sodipodi="http://sodipodi.sourceforge.net/DTD/sodipodi-0.dtd"
   xmlns:inkscape="http://www.inkscape.org/namespaces/inkscape"
   width="39.687504mm"
   height="39.687557mm"
   viewBox="0 0 39.687504 39.687557"
   version="1.1"
   id="svg482"
   inkscape:version="1.0 (4035a4fb49, 2020-05-01)"
   sodipodi:docname="مشروع ميناء بري.svg">
  <defs
     id="defs476" />
  <sodipodi:namedview
     id="base"
     pagecolor="#ffffff"
     bordercolor="#666666"
     borderopacity="1.0"
     inkscape:pageopacity="0.0"
     inkscape:pageshadow="2"
     inkscape:zoom="0.35"
     inkscape:cx="313.16084"
     inkscape:cy="493.16093"
     inkscape:document-units="mm"
     inkscape:current-layer="layer1"
     inkscape:document-rotation="0"
     showgrid="false"
     fit-margin-top="0"
     fit-margin-left="0"
     fit-margin-right="0"
     fit-margin-bottom="0"
     inkscape:window-width="1424"
     inkscape:window-height="1030"
     inkscape:window-x="224"
     inkscape:window-y="0"
     inkscape:window-maximized="0" />
  <metadata
     id="metadata479">
    <rdf:RDF>
      <cc:Work
         rdf:about="">
        <dc:format>image/svg+xml</dc:format>
        <dc:type
           rdf:resource="http://purl.org/dc/dcmitype/StillImage" />
        <dc:title />
      </cc:Work>
    </rdf:RDF>
  </metadata>
  <g
     inkscape:label="Layer 1"
     inkscape:groupmode="layer"
     id="layer1"
     transform="translate(-22.976194,-17.684505)">
    <path
       inkscape:connector-curvature="0"
       id="path17973-2-78"
       d="m 45.454786,17.684505 v 0.0012 c -0.0333,0 -0.06537,6.1e-5 -0.09651,0.0017 -0.154036,-0.0072 -0.270514,0.01497 -0.377278,0.07895 -0.357419,0.155927 -0.559522,0.553139 -0.901679,1.322798 -0.737773,1.659585 -1.819102,2.288131 -3.936503,2.288131 -0.878345,0 -1.479275,-0.07046 -1.971643,-0.279899 -0.376529,-0.210368 -0.743455,-0.500483 -1.126139,-0.879795 -0.0416,-0.04795 -0.08342,-0.0977 -0.125816,-0.149436 -1.07456,-1.310603 -1.234061,-1.351098 -2.661541,-0.676412 -0.67758,0.320286 -1.845477,0.978989 -2.595376,1.463816 l -1.363437,0.881555 0.142332,0.765134 c 0.07833,0.420845 0.259776,1.086315 0.403219,1.478835 0.15202,0.416042 0.206736,0.996902 0.131244,1.392763 -0.204697,1.07331 -1.256792,2.719603 -2.152341,3.368017 -0.76328,0.552572 -0.943184,0.59402 -2.577303,0.59402 -0.259774,0 -0.480736,3.2e-5 -0.670618,0.0027 -0.195046,-0.0081 -0.361352,-0.004 -0.505266,0.01649 -0.592085,0.0396 -0.673827,0.160608 -0.864843,0.52981 -0.494274,0.955262 -1.307321,4.543041 -1.223022,5.280082 0.0013,0.0884 0.01025,0.15039 0.02893,0.180631 0.03679,0.05951 0.24911,0.195013 0.555275,0.361868 0.31641,0.202333 0.732791,0.437864 1.165919,0.653733 1.397859,0.696665 1.563501,0.845463 2.052189,1.843788 0.929537,1.898774 0.41386,3.901192 -1.326337,5.150706 -1.272236,0.913522 -1.394902,1.424767 -0.688631,2.869434 0.921682,1.885271 2.287628,3.803308 2.708727,3.803308 0.209392,0 0.852067,-0.179044 1.428095,-0.397878 0.675854,-0.256714 1.179587,-0.381555 1.665705,-0.370955 0.06287,0.0024 0.126057,0.0062 0.189351,0.01098 0.424115,0.04023 0.850124,0.184784 1.382077,0.436131 0.381875,0.180413 0.720231,0.378608 1.016093,0.59607 0.343689,0.296845 0.68231,0.642281 0.959737,0.977975 0.51622,0.763129 0.706223,1.694605 0.589999,2.82859 -0.09098,0.887525 -0.05709,1.374166 0.109539,1.57484 0.237479,0.286004 2.536185,1.121384 4.093316,1.487624 0.645535,0.151825 1.07894,0.225722 1.413314,0.168514 0.100842,0.01729 0.173353,0.02836 0.206122,0.03108 0.210488,0.01743 0.506894,-0.345904 0.772558,-0.910012 0.09213,-0.16064 0.188952,-0.345748 0.295535,-0.557976 0.590519,-1.17566 0.836346,-1.458008 1.612016,-1.851641 2.199107,-1.116055 4.422513,-0.736459 5.644606,0.963609 0.4804,0.668303 0.846505,0.982014 1.146337,0.982014 h 0.01565 0.0064 c 0.01688,0 0.0383,-0.0027 0.06391,-0.008 0.711906,-0.113384 3.31323,-1.426956 4.482671,-2.278484 0.875787,-0.637745 0.918437,-0.711735 0.768562,-1.333262 -0.08728,-0.361924 -0.302993,-0.990925 -0.479336,-1.397775 -0.413075,-0.953014 -0.399502,-1.65473 0.05113,-2.642712 0.209595,-0.459523 0.42625,-0.851408 0.661835,-1.18328 0.124779,-0.15301 0.260777,-0.304981 0.408309,-0.455567 0.181629,-0.185399 0.35865,-0.347476 0.534511,-0.487654 0.69312,-0.464442 1.565939,-0.651566 2.768404,-0.656376 0.567003,0.07051 0.954776,0.08741 1.248153,-0.0019 l 0.471483,-0.0012 0.377711,-0.795861 c 0.496131,-1.045383 1.410987,-4.74886 1.266227,-5.125879 -0.06224,-0.162078 -0.545937,-0.498566 -1.074825,-0.747679 -1.369119,-0.644891 -2.022761,-1.326599 -2.359947,-2.461406 -0.15622,-0.525755 -0.252696,-1.021148 -0.289866,-1.485166 -0.0028,-0.08238 -0.0041,-0.165783 -0.0041,-0.250453 0,-0.255073 0.0037,-0.481558 0.01421,-0.686388 0.108935,-0.977047 0.539794,-1.779481 1.289936,-2.39384 0.490218,-0.401447 0.943654,-0.938336 1.007609,-1.193034 0.0082,-0.03315 0.01296,-0.07094 0.01415,-0.113105 0.0278,-0.140088 -0.0097,-0.282287 -0.08031,-0.489976 -0.23042,-0.814244 -0.937692,-2.178104 -1.902372,-3.620471 -0.83344,-1.246187 -0.84769,-1.256307 -1.608337,-1.138427 -0.422078,0.06544 -1.022342,0.250681 -1.333888,0.411699 -0.687657,0.35539 -1.055502,0.356379 -2.039861,0.0054 -1.113965,-0.397117 -2.269616,-1.261735 -2.77768,-2.0782 -0.345993,-0.556093 -0.469504,-1.118799 -0.546552,-2.489921 l -0.02843,-0.50543 c 0.03723,-0.516963 0.03266,-0.774882 -0.05332,-0.949483 l -0.01783,-0.316619 -1.22465,-0.456816 c -0.673551,-0.251273 -1.95287,-0.60437 -2.842953,-0.784592 -0.594632,-0.120401 -1.015767,-0.19781 -1.334517,-0.200464 z m -2.621437,5.396852 c 0.440633,9.6e-5 0.880638,0.02115 1.318109,0.06374 4.382119,0.426912 8.291306,2.770148 10.732164,6.433081 1.266033,1.899847 2.099086,4.268281 2.328469,6.62019 0.361701,3.708809 -0.84934,7.647322 -3.227783,10.497334 -0.581409,0.696662 -1.82195,1.887599 -2.481034,2.381898 -2.882611,2.161592 -6.578837,3.19132 -10.142973,2.825719 -2.775606,-0.284711 -5.613177,-1.469424 -7.717995,-3.222357 -0.264759,-0.220523 -0.603355,-0.539118 -0.947949,-0.884906 -0.157185,-0.154769 -0.310437,-0.31282 -0.459696,-0.473969 -0.391116,-0.41406 -0.749802,-0.822658 -0.969581,-1.115413 -2.142147,-2.853384 -3.177641,-6.507572 -2.836232,-10.008305 0.280563,-2.876603 1.442283,-5.697258 3.227711,-7.836676 0.581397,-0.696641 1.821937,-1.887614 2.481033,-2.381873 2.496105,-1.871788 5.611333,-2.89968 8.695757,-2.898462 z m -0.06385,1.267212 c -0.905226,0.0025 -1.815676,0.09834 -2.716087,0.292878 -1.085637,0.234602 -1.904524,0.516516 -2.919411,1.004997 -3.781744,1.820086 -6.400272,5.16944 -7.243459,9.265086 -0.497725,2.417604 -0.263962,5.137616 0.637017,7.411876 0.812468,2.050864 2.135535,3.897401 3.775638,5.269454 2.060407,1.723641 4.577793,2.786565 7.266095,3.068073 0.858256,0.08987 2.489599,0.02469 3.445633,-0.137674 5.358326,-0.910012 9.605145,-4.985021 10.707286,-10.27413 0.823979,-3.954148 -0.151021,-7.924846 -2.727428,-11.107476 -2.478597,-3.061857 -6.302665,-4.80393 -10.225282,-4.793084 z m -0.964224,3.120711 v 1.33e-4 c 0.0081,0 0.01807,0.0022 0.02881,0.0052 0.02621,-0.0051 0.03435,-0.0012 0.04376,0.0039 0.02548,0.01364 0.182909,0.08052 0.349842,0.148641 0.30321,0.123694 2.899816,1.188126 4.342328,1.780048 1.4137,0.580087 4.036295,1.655062 4.344126,1.780602 0.167935,0.06848 0.364669,0.14992 0.437194,0.181019 l 0.13186,0.05656 v 1.827626 1.8276 h -0.02774 -0.346789 -0.346717 -0.02781 -0.01421 -0.750985 l -0.0053,-1.180032 -0.0071,-1.611744 -0.29147,-0.118157 c -0.160298,-0.06502 -1.059648,-0.43339 -1.998583,-0.818612 -0.938924,-0.385209 -1.869512,-0.766787 -2.067983,-0.847959 -0.198461,-0.08116 -1.291203,-0.529327 -2.428285,-0.99589 -0.523062,-0.214662 -0.992493,-0.405222 -1.361568,-0.553477 -0.12824,0.05177 -0.265216,0.107543 -0.408635,0.166507 -0.606925,0.249499 -1.409549,0.579123 -1.783593,0.732432 -0.374045,0.153297 -1.092249,0.447816 -1.596066,0.654457 -0.503806,0.206651 -1.278318,0.524224 -1.721074,0.705797 -0.44273,0.181537 -1.226497,0.502908 -1.741765,0.714277 l -0.922997,0.37855 -0.007,5.969208 -0.0065,5.543538 h -1.096519 -0.36081 V 43.708705 37.62368 31.427905 l 0.01384,-0.0057 v -0.01062 l 1.249083,-0.511653 c 0.687016,-0.281431 1.411493,-0.578339 1.609965,-0.659717 0.198486,-0.08144 0.9854,-0.403822 1.748764,-0.716485 0.763327,-0.312662 1.881323,-0.771262 2.484388,-1.019001 1.721675,-0.707353 2.28512,-0.938759 2.484473,-1.006819 0.01541,-0.0087 0.02591,-0.01622 0.02917,-0.02144 0.0031,-0.0052 0.01086,-0.0072 0.02163,-0.0072 z m 3.041171,7.361501 c 0.831567,0 1.190241,0.0019 1.344301,0.01387 h 0.08822 v 0.01299 c 0.01515,0.0048 0.02191,0.01037 0.02444,0.017 0.0093,0.02413 0.01689,0.154323 0.01689,0.289321 0,0.150269 -0.0069,0.224698 -0.02693,0.265217 l 0.0012,0.03969 h -0.04925 c -0.08579,0.02396 -0.365346,0.02721 -1.391054,0.02555 -0.758464,-0.0012 -1.394625,-0.0086 -1.4137,-0.0162 -0.0087,-0.0035 -0.01544,-0.01733 -0.02063,-0.04314 -0.0012,-0.0012 -0.0021,-0.0017 -0.0021,-0.0029 -0.0028,-0.0076 -0.0051,-0.03203 -0.0064,-0.06766 -0.0037,-0.05179 -0.0054,-0.122646 -0.0054,-0.216931 v -0.316642 z m -4.965675,1.2e-4 h 1.42971 1.429531 v 0.01387 h 0.01384 l 0.008,0.302904 c 0.0053,0.205662 6.4e-5,0.294061 -0.02175,0.319997 v 0.0013 h -0.0012 c -0.0016,0.0017 -0.0031,0.003 -0.0049,0.0041 -0.01962,0.01248 -0.661788,0.02306 -1.427093,0.02306 -1.011339,0 -1.321824,-0.0046 -1.401901,-0.02727 h -0.02413 v -0.01463 c -0.01929,-0.03098 -0.02677,-0.141789 -0.02183,-0.322373 l 0.008,-0.28727 h 0.01385 z m -2.071349,1.303267 v 0 c 0.94784,0 1.306899,0.0066 1.394734,0.02747 h 0.03809 v 0.02884 c 0.02518,0.04678 0.02688,0.171236 0.02133,0.637485 l -0.0075,0.624179 h -0.0861 c -0.192898,0.01437 -1.341442,0.01609 -2.093355,0.0083 -0.321091,-0.0012 -0.509826,-0.0048 -0.605829,-0.01256 -0.0308,-0.0017 -0.05048,-0.0035 -0.0535,-0.0055 0,0 -0.0012,-6.4e-5 -0.0012,-0.0012 -0.01507,-0.0027 -0.02393,-0.0057 -0.0273,-0.009 -0.02401,-0.0241 -0.03354,-0.198967 -0.03354,-0.62244 0,-0.488988 0.0064,-0.59173 0.04152,-0.630295 v -0.0042 h 0.0043 c 0.04253,-0.03662 0.224003,-0.04157 1.408079,-0.04157 z m 10.14903,0.02791 h 0.100382 1.560836 1.661338 l 0.0046,0.01385 h 0.01328 l 0.456075,1.387093 c 0.250847,0.762917 0.469239,1.403224 0.485262,1.422801 0.02154,0.02638 0.131015,0.03449 0.420483,0.03136 0.432174,-0.0047 0.503492,0.01245 0.69668,0.167724 0.171879,0.138183 0.367794,0.384173 0.47322,0.594287 l 0.09583,0.191018 v 0.870192 0.870132 h 0.109732 0.0548 c 0.144684,0 0.171433,0.0088 0.222023,0.07309 0.04703,0.05972 0.05789,0.111775 0.05668,0.284374 -0.0016,0.366729 0.0064,0.363834 -0.982178,0.363834 h -0.792393 l -0.01689,-0.07629 c -0.07252,-0.32791 -0.222229,-0.595649 -0.455401,-0.814232 -0.811334,-0.760636 -2.152993,-0.360083 -2.425292,0.724072 l -0.03828,0.152598 -0.850437,0.0074 -0.850366,0.0074 v -0.02852 -3.107031 -0.01404 z m 0.91366,0.735629 c -0.03687,0.0051 -0.05877,0.01182 -0.07513,0.02099 l -0.03604,0.04451 c -0.04944,0.061 -0.0531,0.119387 -0.05312,0.864956 v 0.0018 0.0014 c 1.2e-5,0.566626 0.0013,0.747812 0.02157,0.824256 l 0.04657,0.04654 0.04657,0.04656 c 0.0758,0.02 0.256313,0.02153 0.811467,0.02156 h 0.01765 0.01758 c 0.555167,-2.5e-5 0.735662,-0.0016 0.811467,-0.02156 l 0.04775,-0.04772 0.04546,-0.04538 c 0.01355,-0.05085 0.01857,-0.148762 0.02038,-0.374908 l -0.0047,-0.466574 c -0.007,-0.708801 -0.01228,-0.813702 -0.052,-0.860784 l -0.01541,-0.01206 c -0.0062,-0.0048 -0.01217,-0.0093 -0.01833,-0.0134 -0.0611,-0.02734 -0.218584,-0.03027 -0.855734,-0.03027 h -0.775983 z m -4.20978,0.208364 v 0 c 0.579574,-6.4e-5 1.215686,0.0047 1.499784,0.01328 h 0.172207 l 0.0012,0.08572 c 0.0087,0.08541 0.01013,0.252878 0.0066,0.552041 0.004,0.339829 0.0039,0.495201 -0.0069,0.570546 l -0.0012,0.06787 h -0.02456 c -0.0025,0.0025 -0.0052,0.0047 -0.008,0.0068 -0.03651,0.02667 -0.362474,0.03427 -1.40926,0.03427 -0.748969,0 -1.377674,-0.01049 -1.397038,-0.02275 -0.0047,-0.0029 -0.0087,-0.0099 -0.01216,-0.02174 -0.0018,0 -0.0033,-6.4e-5 -0.0033,-0.0013 -0.01025,-0.01025 -0.01876,-0.296123 -0.01876,-0.635276 0,-0.333592 0.0022,-0.491498 0.01303,-0.566796 l 0.0012,-0.06974 h 0.05312 c 0.109347,-0.009 0.595826,-0.01321 1.13374,-0.01321 z m -4.09685,0.003 h -0.0012 0.0012 c 0.191897,0 0.440836,0.0012 0.760528,0.0027 0.642373,-0.0031 1.029496,-0.0014 1.229826,0.0063 l 0.198521,0.0012 0.0012,0.09963 c 0.0087,0.08331 0.0099,0.243758 0.0064,0.541932 0.004,0.336729 0.0039,0.491631 -0.0069,0.566686 l -0.0012,0.068 h -0.02455 c -0.0024,0.0025 -0.0051,0.0047 -0.0078,0.0068 -0.0365,0.02663 -0.364041,0.0347 -1.414243,0.0347 -1.205479,0 -1.371785,-0.0052 -1.410262,-0.04364 -0.0369,-0.03682 -0.04371,-0.132875 -0.04371,-0.618883 0,-0.416549 0.0097,-0.588327 0.03474,-0.622526 0.0018,-0.0025 0.004,-0.0049 0.0066,-0.0072 v -0.02561 l 0.118456,-0.0012 c 0.0927,-0.0068 0.256203,-0.0094 0.551789,-0.0094 z m -3.435534,1.083394 v 6.4e-5 c 0.18724,0 0.417226,0 0.698175,0.0019 l 1.427781,0.0071 v 0.638075 0.638038 l -1.433391,0.0072 h -0.0039 c -1.285122,0.0064 -1.431328,0.0027 -1.446554,-0.03695 -0.02525,-0.06576 -0.0197,-1.18528 0.006,-1.225836 0.0021,-0.0031 0.0081,-0.0062 0.01851,-0.0086 v -0.01194 h 0.114849 c 0.112181,-0.006 0.304597,-0.0092 0.618183,-0.0092 z m 4.176854,1.077087 v 1.2e-4 c 1.050201,0 1.377746,0.0081 1.414243,0.03471 0.0029,0.002 0.0055,0.0043 0.0081,0.0069 h 0.02438 l 0.0012,0.06806 c 0.01074,0.07483 0.01074,0.229078 0.0069,0.562766 0.0029,0.25804 0.0012,0.428539 -0.0063,0.52467 l -0.0014,0.120691 -0.317229,0.0016 c -0.484031,0.01809 -1.440703,0.02131 -2.033187,0.0084 -0.351663,-0.0012 -0.458055,-0.0077 -0.496976,-0.02587 -0.0078,-0.0018 -0.01194,-0.0037 -0.0131,-0.0057 -0.0012,0 -0.0012,-0.0022 -0.0012,-0.0034 -0.0047,-0.0043 -0.0078,-0.0093 -0.01074,-0.0147 -0.01728,-0.03228 -0.02887,-0.281878 -0.02887,-0.622454 0,-0.470844 0.0065,-0.571607 0.04159,-0.609992 v -0.0042 h 0.0042 c 0.04249,-0.03666 0.223785,-0.04161 1.408139,-0.04161 z m 3.594142,0 -6.4e-5,1.2e-4 h 0.0012 c 1.037786,0 1.362459,0.0081 1.39892,0.03471 0.0029,0.002 0.0055,0.0043 0.0081,0.0069 h 0.02432 l 0.0012,0.06806 c 0.01061,0.07483 0.01074,0.229078 0.0069,0.562766 0.0029,0.257883 0.0012,0.42831 -0.0063,0.524477 l -0.0014,0.120884 -0.317423,0.0016 c -0.532134,0.01995 -1.636193,0.02166 -2.198406,0.0041 -0.204035,-0.0022 -0.333965,-0.0057 -0.338428,-0.01013 -0.0012,-0.0012 -0.0022,-0.0064 -0.0034,-0.01457 -0.0017,-0.0012 -0.0029,-0.0013 -0.0029,-0.0025 -0.0036,-0.0094 -0.0062,-0.08288 -0.0074,-0.19319 -0.0031,-0.116541 -0.0052,-0.270923 -0.0052,-0.438938 0,-0.345087 0.0023,-0.506165 0.0134,-0.581933 l 0.0012,-0.04065 h 0.0089 c 0.0057,-0.01472 0.01257,-0.02147 0.02114,-0.02473 0.02414,-0.0093 0.651967,-0.01688 1.395362,-0.01688 z m -6.449704,1.861473 h 1.41568 1.41563 l -0.226764,0.07701 c -0.124729,0.04265 -0.289854,0.118061 -0.366986,0.167508 -0.304911,0.195541 -0.569875,0.571764 -0.643122,0.913172 l -0.03067,0.142984 h -0.137423 c -0.08559,0 -0.141439,-0.0131 -0.148196,-0.03469 -0.006,-0.01916 -0.03212,-0.103248 -0.05804,-0.187123 -0.07512,-0.242866 -0.200354,-0.45538 -0.36817,-0.624442 -0.191148,-0.192575 -0.340575,-0.282686 -0.629415,-0.379686 z m 3.219991,0 3.081011,0.0054 3.081203,0.0054 0.0075,0.645867 0.0075,0.645916 -0.340611,-0.0078 -0.340541,-0.0078 -0.0077,-0.387573 c -0.0071,-0.352108 -0.01324,-0.39316 -0.06733,-0.450712 l -0.05954,-0.06337 H 45.59228 c -0.886489,0 -1.459971,0.01049 -1.491195,0.02715 -0.0043,0.0023 -0.0086,0.0051 -0.01272,0.008 l -0.01752,0.01758 -0.01254,0.01254 c -0.05075,0.0696 -0.06933,0.216748 -0.06933,0.50771 v 0.314869 0.02773 h -0.51195 c -0.28154,0 -0.517342,-0.0094 -0.524098,-0.02081 -0.0068,-0.01146 -0.02113,-0.06448 -0.03185,-0.117916 -0.04097,-0.202792 -0.230046,-0.54209 -0.392613,-0.704578 -0.19449,-0.194361 -0.345993,-0.285702 -0.634832,-0.382785 z m -3.60861,0.0013 -0.194333,0.06244 c -0.298951,0.09609 -0.426938,0.173745 -0.644811,0.391266 -0.215605,0.2153 -0.340298,0.433304 -0.39972,0.698679 l -0.03299,0.147181 h -1.106811 c -0.870781,0 -1.10972,-0.0075 -1.120337,-0.03534 -0.0074,-0.01943 -0.01013,-0.30967 -0.006,-0.644987 l 0.0075,-0.60969 1.748752,-0.0048 z m 13.0602,0.217617 c 0.552332,0 1.053326,0.340938 1.250591,0.851024 0.09276,0.239826 0.106102,0.613045 0.03074,0.860337 -0.208523,0.684301 -0.930382,1.091115 -1.61128,0.908093 -0.581493,-0.156264 -1.000854,-0.693684 -1.002062,-1.283773 -0.0014,-0.743723 0.588901,-1.335681 1.332008,-1.335681 z m -12.866976,0.0021 c 0.01534,0 0.03065,6.4e-5 0.04632,0.0013 0.357998,0.0062 0.625747,0.123658 0.886597,0.383556 0.321524,0.320334 0.456558,0.7102 0.391297,1.129742 -0.124633,0.801252 -0.917146,1.314148 -1.689329,1.093334 -0.730401,-0.208836 -1.141981,-0.996215 -0.895332,-1.712735 0.119022,-0.345716 0.370522,-0.618558 0.71982,-0.780867 0.170952,-0.0794 0.249882,-0.09899 0.445349,-0.110087 0.0156,-0.0012 0.03101,-0.0021 0.04627,-0.0021 0.01677,-0.0012 0.03299,-0.0021 0.04901,-0.0021 z m 3.238872,0.0013 c 0.358879,0.0012 0.633241,0.113766 0.903248,0.366234 0.31846,0.297704 0.473654,0.745328 0.402397,1.160587 -0.136313,0.794521 -0.923976,1.299068 -1.687146,1.080703 -0.498376,-0.142609 -0.871298,-0.571788 -0.957431,-1.101886 -0.06363,-0.391664 0.08052,-0.813437 0.380958,-1.114807 0.243149,-0.24394 0.515242,-0.368973 0.843814,-0.387707 0.03904,-0.0019 0.07702,-0.0031 0.11416,-0.0031 z m 4.07167,0.27406 v 0 h 0.0017 1.353532 l 0.06041,0.06426 c 0.05757,0.06128 0.06035,0.08821 0.06035,0.592657 0,0.492679 -0.0039,0.533478 -0.05754,0.601622 l -0.05755,0.0731 h -1.356151 -1.356077 l -0.05755,-0.0731 c -0.05368,-0.06824 -0.05754,-0.108786 -0.05754,-0.610295 0,-0.500266 0.0039,-0.541136 0.05555,-0.592802 0.054,-0.05401 0.09254,-0.05544 1.410757,-0.05544 z m -4.070862,0.22196 c -0.323009,0 -0.638404,0.198099 -0.77205,0.484923 -0.07836,0.168159 -0.08769,0.438781 -0.02177,0.632188 0.05036,0.147652 0.228116,0.362084 0.355018,0.428226 0.236164,0.12302 0.415597,0.142863 0.663754,0.07325 0.212057,-0.05947 0.429834,-0.251695 0.520925,-0.459807 0.23269,-0.531667 -0.170951,-1.158777 -0.745881,-1.158777 z m 9.628925,0.0095 c -0.134997,0 -0.269271,0.02182 -0.354764,0.06723 -0.277909,0.147652 -0.448596,0.405475 -0.472291,0.685144 -0.0012,0.0087 -0.0012,0.01736 -0.0018,0.02603 -0.0046,0.08848 0.0055,0.178835 0.03161,0.268318 0.14594,0.500966 0.698585,0.743096 1.170033,0.512547 0.163155,-0.07978 0.285171,-0.202466 0.381511,-0.383617 0.05058,-0.09495 0.06229,-0.161789 0.06229,-0.352929 0,-0.201513 -0.01074,-0.255966 -0.07357,-0.374496 -0.08757,-0.165361 -0.213492,-0.289466 -0.383755,-0.37819 -0.0885,-0.04612 -0.224243,-0.07004 -0.359254,-0.07004 z m -12.867495,0.0043 c -0.221094,0 -0.264408,0.0086 -0.376638,0.0745 -0.178456,0.104864 -0.2993,0.234362 -0.379703,0.406911 -0.06072,0.130136 -0.06772,0.176398 -0.05686,0.374522 0.01366,0.250416 0.05284,0.348115 0.208932,0.52081 0.235054,0.260019 0.61203,0.337102 0.940469,0.192357 0.623926,-0.275013 0.662933,-1.14716 0.06627,-1.483128 -0.139341,-0.07851 -0.17445,-0.08597 -0.40247,-0.08597 z"
       style="fill:#aebebb;fill-opacity:1;stroke-width:0.199023" />
  </g>
</svg>
