<?xml version="1.0" encoding="UTF-8" standalone="no"?>
<!-- Created with Inkscape (http://www.inkscape.org/) -->

<svg
   xmlns:dc="http://purl.org/dc/elements/1.1/"
   xmlns:cc="http://creativecommons.org/ns#"
   xmlns:rdf="http://www.w3.org/1999/02/22-rdf-syntax-ns#"
   xmlns:svg="http://www.w3.org/2000/svg"
   xmlns="http://www.w3.org/2000/svg"
   xmlns:xlink="http://www.w3.org/1999/xlink"
   xmlns:sodipodi="http://sodipodi.sourceforge.net/DTD/sodipodi-0.dtd"
   xmlns:inkscape="http://www.inkscape.org/namespaces/inkscape"
   width="21.166666mm"
   height="21.166666mm"
   viewBox="0 0 21.166666 21.166666"
   version="1.1"
   id="svg16148"
   inkscape:version="0.92.4 (5da689c313, 2019-01-14)"
   sodipodi:docname="RegZone3.svg">
  <defs
     id="defs16142">
    <linearGradient
       id="linearGradient4172"
       inkscape:collect="always">
      <stop
         style="stop-color:#407ec9;stop-opacity:1"
         offset="0"
         id="stop4170" />
      <stop
         style="stop-color:#2cd5c4;stop-opacity:1;"
         offset="1"
         id="stop4168" />
    </linearGradient>
    <linearGradient
       gradientTransform="translate(-65.572337,-11.006517)"
       inkscape:collect="always"
       xlink:href="#linearGradient4172"
       id="linearGradient2516-4-6-2"
       x1="161.7738"
       y1="111.03571"
       x2="182.94048"
       y2="111.03571"
       gradientUnits="userSpaceOnUse" />
  </defs>
  <sodipodi:namedview
     id="base"
     pagecolor="#ffffff"
     bordercolor="#666666"
     borderopacity="1.0"
     inkscape:pageopacity="0.0"
     inkscape:pageshadow="2"
     inkscape:zoom="1.4"
     inkscape:cx="-175.00001"
     inkscape:cy="101.25251"
     inkscape:document-units="mm"
     inkscape:current-layer="layer1"
     showgrid="false"
     fit-margin-top="0"
     fit-margin-left="0"
     fit-margin-right="0"
     fit-margin-bottom="0"
     inkscape:window-width="1920"
     inkscape:window-height="1001"
     inkscape:window-x="-9"
     inkscape:window-y="-9"
     inkscape:window-maximized="1" />
  <metadata
     id="metadata16145">
    <rdf:RDF>
      <cc:Work
         rdf:about="">
        <dc:format>image/svg+xml</dc:format>
        <dc:type
           rdf:resource="http://purl.org/dc/dcmitype/StillImage" />
        <dc:title></dc:title>
      </cc:Work>
    </rdf:RDF>
  </metadata>
  <g
     inkscape:label="Layer 1"
     inkscape:groupmode="layer"
     id="layer1"
     transform="translate(-96.201449,-89.445689)">
    <circle
       id="Ellipse_130-7"
       data-name="Ellipse 130"
       cx="106.78478"
       cy="100.02902"
       r="10.583333"
       style="fill:#e2e3db;fill-opacity:1;stroke-width:0.26458332" />
    <path
       style="opacity:1;fill:url(#linearGradient2516-4-6-2);fill-opacity:1;stroke-width:0.26458338"
       d="m 111.05985,94.12251 v 10e-4 c -0.4477,7e-5 -0.88079,0.001 -1.28313,0.0021 -1.60514,-9.7e-4 -2.31957,0.008 -2.43602,0.03307 -0.62206,0.13164 -1.09432,0.654229 -1.1896,1.316199 -0.0226,0.1571 -0.0368,1.725286 -0.0372,4.143416 l -0.001,3.887105 -0.22686,0.004 h -0.41961 -0.64699 l -0.0935,0.11111 c -0.0885,0.10508 -0.0934,0.1325 -0.093,0.51418 2.7e-4,0.2219 0.0225,0.48516 0.0491,0.58446 0.14711,0.54993 0.51922,0.94361 1.08779,1.15083 0.13287,0.0484 6.3335,0.092 6.60838,0.0465 0.0993,-0.0165 0.24924,-0.0596 0.33332,-0.0966 0.22469,-0.0986 0.38918,-0.23648 0.51004,-0.42685 0.2337,-0.36814 0.22185,-0.0855 0.22273,-5.25756 7.5e-4,-4.141544 -0.0159,-4.766702 0.12971,-4.981612 0.002,-0.002 0.003,-0.0042 0.005,-0.0072 0.0404,-0.0559 0.0932,-0.08424 0.16124,-0.146761 0.42427,-0.389541 1.13116,-0.243786 1.40611,0.289904 0.0457,0.0888 0.0743,0.220562 0.078,0.360702 l 0.006,0.221175 -0.632,0.01809 c -0.34755,0.009 -0.65373,0.03231 -0.68058,0.04961 -0.0269,0.0173 -0.0717,0.08642 -0.0997,0.153479 -0.044,0.10518 -0.0441,0.138953 5.1e-4,0.245463 0.0283,0.0679 0.0845,0.140804 0.12454,0.162264 0.0462,0.0247 0.37891,0.03927 0.90847,0.03927 h 0.83561 l 0.10956,-0.109554 0.11007,-0.109554 -0.0171,-0.495577 c -0.0133,-0.4012 -0.0314,-0.533318 -0.0966,-0.696598 -0.16005,-0.40077 -0.494,-0.735648 -0.90279,-0.905888 l -0.20153,-0.08423 -0.67335,-0.0021 c -0.49223,-0.011 -1.3603,-0.01415 -2.95589,-0.01395 z m -0.76533,0.648539 v 5.17e-4 c 2.57759,0 2.72271,0.0028 2.70423,0.06305 -0.0107,0.0348 -0.0652,0.169093 -0.12144,0.298173 l -0.10181,0.234611 -0.0181,4.78473 c -0.0146,3.85947 -0.0274,4.80029 -0.0656,4.8674 -0.0857,0.15021 -0.25478,0.22366 -0.51211,0.22221 -0.14128,-8.4e-4 -0.27792,-0.0241 -0.34313,-0.0584 -0.14595,-0.0767 -0.37226,-0.29493 -0.44339,-0.42788 -0.0409,-0.0763 -0.064,-0.24932 -0.0786,-0.58601 -0.0188,-0.43346 -0.0281,-0.48543 -0.10232,-0.55966 l -0.0822,-0.0816 -2.15646,-0.0181 -2.15646,-0.0181 -0.0108,-3.990445 c -0.007,-2.86675 8.9e-4,-4.029411 0.03,-4.129981 0.0222,-0.077 0.11457,-0.21941 0.20516,-0.31626 0.27701,-0.29616 0.14081,-0.28422 3.25303,-0.28422 z m -2.68304,2.853056 -0.11162,0.09457 c -0.14718,0.123841 -0.15813,0.334426 -0.0238,0.468706 l 0.0889,0.08837 1.68207,-5.16e-4 c 0.18072,1.7e-4 0.30416,5.16e-4 0.5302,5.16e-4 h 2.11873 l 0.0351,-0.02945 c 0.0477,-0.004 0.0735,-0.01064 0.0817,-0.01654 0.15855,-0.121741 0.18248,-0.335605 0.0543,-0.484725 l -0.0873,-0.101286 -2.18385,-0.0088 z m -6.31693,0.557072 c -0.12925,0.0011 -0.4112,0.02729 -0.59686,0.220658 l -5.2e-4,-5.17e-4 -1.51722,2.039672 c -1.34507,1.80841 -1.516952,2.05494 -1.517221,2.17144 -1.8e-4,0.0759 0.02883,0.16725 0.06873,0.21652 l 0.06925,0.0853 1.944066,0.0181 c 1.069255,0.009 2.821375,0.0137 3.893825,0.007 1.08504,-0.006 1.56736,-0.009 1.80144,-0.0258 l 0.1726,-5.1e-4 0.0238,-0.0274 c 0.0169,-0.007 0.0296,-0.0129 0.0403,-0.0207 0.12206,-0.0891 0.16501,-0.23541 0.10903,-0.37052 -0.033,-0.0798 -0.0549,-0.12949 -0.16071,-0.16072 l -0.015,-0.016 h -0.0589 c -0.20861,-0.0357 -0.63658,-0.0362 -1.58595,-0.0362 -1.03419,0 -1.57251,-0.0123 -1.57251,-0.0362 0,-0.0199 0.16252,-0.36159 0.36122,-0.75861 l 0.36173,-0.72192 h 1.19476 c 1.29982,0 1.38502,-0.0117 1.47174,-0.20206 0.0642,-0.14098 0.0497,-0.22045 -0.0641,-0.34778 l -0.10542,-0.11782 -1.06816,-0.0109 c -0.58753,-0.006 -1.06747,-0.0223 -1.0666,-0.0362 8.3e-4,-0.0141 0.13469,-0.285304 0.29766,-0.603064 l 0.29662,-0.577742 0.78135,-0.01809 c 0.17616,-0.004 0.31114,-0.0085 0.42581,-0.01395 l 0.33383,-0.0036 0.031,-0.03669 c 0.11417,-0.0338 0.1376,-0.09139 0.16123,-0.198955 0.0257,-0.11723 -0.0541,-0.298799 -0.15245,-0.346748 -0.003,-9.6e-4 -0.0169,-0.0032 -0.0351,-0.0062 l -0.008,-0.0078 h -0.14469 c -0.34235,-0.0141 -1.1137,-0.02867 -1.98954,-0.03617 l -2.11202,-0.01809 c 0,0 -0.0262,-0.0024 -0.0692,-0.0021 z m 6.27042,0.564306 -0.0889,0.08837 c -0.13427,0.13427 -0.12384,0.344865 0.0232,0.468705 l 0.11214,0.09457 2.18385,-0.0093 2.18436,-0.0088 0.0868,-0.101286 c 0.12823,-0.14913 0.10483,-0.362498 -0.0537,-0.484208 -0.007,-0.006 -0.03,-0.01109 -0.0672,-0.01499 l -0.0139,-0.01344 -0.23254,-10e-4 c -0.32039,-0.0109 -0.91659,-0.01562 -1.93942,-0.01602 z m -4.90047,0.113172 c 0.0679,1.4e-4 0.1202,0.001 0.18035,0.001 0.24407,0.006 0.4253,0.01424 0.43253,0.02584 0.0117,0.0189 -0.10913,0.295206 -0.26872,0.613916 l -0.29042,0.579809 h -1.20923 c -0.66521,0 -1.20975,-0.007 -1.20975,-0.0176 0,-0.0271 0.8404,-1.152703 0.88316,-1.182873 0.005,-0.004 0.0359,-0.0071 0.077,-0.01085 l 0.98082,-0.0078 c 0.15019,-9.9e-4 0.29384,-0.002 0.42427,-10e-4 z m 7.12462,0.969966 c -1.38973,0 -1.92043,9.94e-4 -2.14974,0.03617 h -0.0651 l -0.0145,0.01705 c -0.0697,0.0205 -0.096,0.04875 -0.12609,0.08785 -0.0782,0.101699 -0.056,0.321839 0.0424,0.420129 l 0.0889,0.0889 h 2.2009 2.20142 l 0.0935,-0.1111 c 0.12662,-0.15049 0.12219,-0.29901 -0.0124,-0.433566 l -0.10542,-0.10542 z m -10.026261,0.936889 h 1.297601 c 0.71359,0 1.29708,0.007 1.29708,0.0181 0,0.009 -0.16614,0.35084 -0.36949,0.75809 l -0.37,0.74053 h -1.47485 c -0.960012,0 -1.470284,-0.0124 -1.462445,-0.0357 0.006,-0.0197 0.252426,-0.36125 0.546738,-0.75861 z m 8.471321,0.14883 c -0.5655,0.003 -0.66912,0.0331 -0.76119,0.12506 -0.16181,0.16181 -0.0901,0.45183 0.13125,0.53278 0.0298,0.0109 0.57912,0.0212 1.2206,0.0227 0.82714,0.002 1.09843,-0.003 1.21853,-0.0331 h 0.0196 l 0.008,-0.007 c 0.0104,-0.003 0.0198,-0.007 0.0279,-0.0119 0.19803,-0.10243 0.2298,-0.31768 0.0723,-0.49403 l -0.10542,-0.11834 -1.09554,-0.0114 c -0.30792,-0.003 -0.54737,-0.006 -0.73587,-0.004 z m 2.37918,3.24528 0.0419,0.31265 c 0.027,0.20157 0.081,0.39515 0.15141,0.5457 0.058,0.12391 0.10475,0.22962 0.10801,0.24391 -0.0541,0.004 -0.17609,0.007 -0.33848,0.009 -0.36706,0.003 -1.01006,0.006 -1.77974,0.006 -1.03649,-0.003 -2.15332,-0.0129 -2.65772,-0.0279 -0.0862,-0.006 -0.14504,-0.0114 -0.17208,-0.0186 -0.2065,-0.0556 -0.37217,-0.17233 -0.50488,-0.35554 -0.10838,-0.14962 -0.19521,-0.45326 -0.17363,-0.60616 l 0.0124,-0.0904 2.65669,-0.009 z"
       id="Ellipse_130-4-4-3-6-5-0-9-4-2-5-6"
       inkscape:connector-curvature="0" />
  </g>
</svg>
