<?xml version="1.0" encoding="UTF-8" standalone="no"?>
<svg
   xmlns:dc="http://purl.org/dc/elements/1.1/"
   xmlns:cc="http://creativecommons.org/ns#"
   xmlns:rdf="http://www.w3.org/1999/02/22-rdf-syntax-ns#"
   xmlns:svg="http://www.w3.org/2000/svg"
   xmlns="http://www.w3.org/2000/svg"
   xmlns:sodipodi="http://sodipodi.sourceforge.net/DTD/sodipodi-0.dtd"
   xmlns:inkscape="http://www.inkscape.org/namespaces/inkscape"
   width="39.6875mm"
   height="39.687569mm"
   viewBox="0 0 39.6875 39.687569"
   version="1.1"
   id="svg151"
   inkscape:version="0.92.4 (5da689c313, 2019-01-14)"
   sodipodi:docname="Roads and bridges project.svg">
  <defs
     id="defs145" />
  <sodipodi:namedview
     fit-margin-bottom="0"
     fit-margin-right="0"
     fit-margin-left="0"
     fit-margin-top="0"
     id="base"
     pagecolor="#ffffff"
     bordercolor="#666666"
     borderopacity="1.0"
     inkscape:pageopacity="0.0"
     inkscape:pageshadow="2"
     inkscape:zoom="0.98994949"
     inkscape:cx="23.677765"
     inkscape:cy="129.17684"
     inkscape:document-units="mm"
     inkscape:current-layer="layer1"
     inkscape:document-rotation="0"
     showgrid="false"
     inkscape:window-width="1920"
     inkscape:window-height="1001"
     inkscape:window-x="-9"
     inkscape:window-y="-9"
     inkscape:window-maximized="1" />
  <metadata
     id="metadata148">
    <rdf:RDF>
      <cc:Work
         rdf:about="">
        <dc:format>image/svg+xml</dc:format>
        <dc:type
           rdf:resource="http://purl.org/dc/dcmitype/StillImage" />
        <dc:title />
      </cc:Work>
    </rdf:RDF>
  </metadata>
  <g
     transform="translate(-66.821419,-48.678443)"
     inkscape:label="Layer 1"
     inkscape:groupmode="layer"
     id="layer1">
    <path
       inkscape:connector-curvature="0"
       id="path17973-2-8"
       d="m 89.300047,48.678542 -6.4e-5,6.09e-4 c -0.03329,0 -0.06538,5.7e-5 -0.09652,0.0017 -0.154046,-0.0072 -0.270502,0.01497 -0.377272,0.07895 -0.357415,0.155918 -0.559533,0.553138 -0.901689,1.322812 -0.737777,1.659598 -1.8191,2.288189 -3.936494,2.288189 -0.878348,0 -1.479222,-0.07051 -1.971587,-0.27992 -0.376537,-0.210385 -0.743458,-0.5005 -1.126146,-0.879815 -0.0416,-0.04796 -0.08349,-0.0977 -0.125878,-0.149431 -1.074563,-1.310622 -1.234062,-1.351139 -2.661534,-0.676425 -0.677582,0.320276 -1.845492,0.97899 -2.595392,1.463832 l -1.36344,0.88156 0.142344,0.765158 c 0.07831,0.420848 0.259766,1.086332 0.403208,1.47885 0.152019,0.416034 0.206749,0.996906 0.131246,1.39279 -0.204686,1.073309 -1.25679,2.719643 -2.15234,3.368036 -0.763279,0.552595 -0.943175,0.594043 -2.577299,0.594043 -0.259778,0 -0.480738,6.4e-5 -0.670622,0.0027 -0.195048,-0.0081 -0.361289,-0.004 -0.505202,0.01651 -0.592091,0.03959 -0.673891,0.160599 -0.864909,0.529796 -0.494273,0.955282 -1.307263,4.543121 -1.222966,5.280152 0.0013,0.08843 0.01013,0.150408 0.02887,0.180652 0.03678,0.0595 0.249102,0.194993 0.555275,0.361858 0.316402,0.202358 0.732783,0.43788 1.165919,0.653745 1.397856,0.696669 1.563495,0.845479 2.052206,1.843823 0.92952,1.89879 0.413859,3.901254 -1.326347,5.150788 -1.272231,0.913509 -1.394913,1.424752 -0.688644,2.869456 0.921691,1.885313 2.287713,3.803364 2.70881,3.803364 0.209391,0 0.85199,-0.179049 1.428026,-0.397878 0.675846,-0.256727 1.179587,-0.381558 1.665705,-0.370959 0.06287,0.0024 0.126059,0.0061 0.189354,0.01098 0.424113,0.04024 0.850193,0.184787 1.382149,0.436139 0.381868,0.180432 0.720225,0.378624 1.016098,0.596101 0.343688,0.296833 0.682249,0.642262 0.959665,0.97796 0.516215,0.763138 0.706291,1.694656 0.590065,2.828642 -0.09098,0.887526 -0.05715,1.374198 0.109485,1.574874 0.237471,0.285982 2.536174,1.121388 4.09331,1.487632 0.645533,0.151829 1.078994,0.225716 1.413369,0.168498 0.100849,0.0173 0.173371,0.02838 0.206134,0.0311 0.21049,0.01741 0.506844,-0.345906 0.772507,-0.910048 0.09213,-0.160618 0.188934,-0.345728 0.295521,-0.557958 0.590513,-1.175692 0.836358,-1.458037 1.612024,-1.851678 2.19911,-1.116068 4.422525,-0.736481 5.644612,0.963636 0.480412,0.668308 0.846574,0.982014 1.146402,0.982014 h 0.01558 0.0064 c 0.01688,0 0.03829,-0.0027 0.06391,-0.008 0.711901,-0.113387 3.313228,-1.42698 4.482671,-2.278531 0.875792,-0.637733 0.918445,-0.711731 0.768561,-1.33328 -0.08728,-0.361929 -0.303001,-0.99092 -0.479337,-1.397777 -0.413076,-0.953037 -0.399492,-1.654776 0.05114,-2.642756 0.209595,-0.459542 0.426235,-0.851416 0.661828,-1.183291 0.12478,-0.153024 0.260789,-0.30498 0.408321,-0.455583 0.18162,-0.185412 0.35864,-0.34748 0.53452,-0.48767 0.69311,-0.464449 1.56593,-0.651549 2.7684,-0.656359 0.567,0.07049 0.95478,0.0874 1.24816,-0.0019 l 0.47148,-0.0013 0.3777,-0.79588 c 0.49614,-1.045382 1.411,-4.748916 1.26624,-5.125928 -0.0622,-0.162103 -0.54594,-0.498578 -1.07483,-0.747707 -1.36912,-0.644909 -2.02276,-1.326602 -2.35995,-2.461424 -0.15621,-0.525767 -0.25269,-1.021154 -0.28986,-1.485201 -0.003,-0.08236 -0.004,-0.16578 -0.004,-0.250447 0,-0.255071 0.004,-0.481589 0.0142,-0.68639 0.10892,-0.977072 0.5398,-1.779524 1.28994,-2.393875 0.49022,-0.401476 0.94364,-0.938345 1.0076,-1.193071 0.008,-0.03312 0.013,-0.07094 0.0142,-0.1131 0.0278,-0.140099 -0.01,-0.282271 -0.0803,-0.489981 -0.23041,-0.814253 -0.93769,-2.178141 -1.90237,-3.620531 -0.83345,-1.246194 -0.84769,-1.256309 -1.60834,-1.138422 -0.42208,0.06544 -1.02235,0.250681 -1.33389,0.411711 -0.687656,0.355391 -1.055506,0.356373 -2.039867,0.0054 -1.113975,-0.397123 -2.26963,-1.261761 -2.777691,-2.07825 -0.346003,-0.556091 -0.469492,-1.118803 -0.546552,-2.48996 l -0.02843,-0.505431 c 0.03724,-0.516964 0.03266,-0.774868 -0.05331,-0.949488 L 94.70215,50.120339 93.477494,49.663511 C 92.803929,49.412232 91.524629,49.05915 90.634531,48.878908 90.039906,48.758479 89.618772,48.681097 89.300018,48.678443 Z m -2.62151,5.396868 c 0.440629,9.6e-5 0.880713,0.0212 1.318181,0.06381 4.382126,0.4269 8.291259,2.770172 10.732125,6.433161 1.266018,1.89989 2.099077,4.268345 2.328477,6.620289 0.36169,3.70887 -0.84935,7.647423 -3.22779,10.497496 -0.581417,0.696671 -1.821958,1.887627 -2.481048,2.381908 -2.882614,2.161646 -6.578787,3.191367 -10.14293,2.825771 -2.775603,-0.28471 -5.613259,-1.469445 -7.718069,-3.222402 -0.264761,-0.220531 -0.603287,-0.539136 -0.947881,-0.884928 -0.157181,-0.154771 -0.310514,-0.312814 -0.459771,-0.473967 -0.39112,-0.414065 -0.749805,-0.822669 -0.969582,-1.115425 -2.142147,-2.853435 -3.177641,-6.507688 -2.836232,-10.008453 0.280563,-2.876637 1.442297,-5.697334 3.227727,-7.836791 0.581391,-0.696663 1.821933,-1.887629 2.481036,-2.381912 2.496102,-1.871792 5.611327,-2.899763 8.695757,-2.898557 z m -0.06378,1.267291 c -0.905224,0.0025 -1.815684,0.09832 -2.716095,0.292877 -1.085638,0.234601 -1.90459,0.516527 -2.919468,1.005008 -3.781757,1.820123 -6.400228,5.169517 -7.243413,9.265228 -0.497722,2.417637 -0.263976,5.137707 0.637003,7.411996 0.812472,2.050873 2.135537,3.897437 3.775644,5.269499 2.060408,1.723676 4.577741,2.786618 7.266042,3.068111 0.858263,0.08987 2.489626,0.02471 3.445647,-0.13765 5.358343,-0.910028 9.60517,-4.985087 10.70731,-10.274287 0.823983,-3.95419 -0.151027,-7.924934 -2.727446,-11.107617 -2.478598,-3.061892 -6.302602,-4.804017 -10.225224,-4.793165 z m -11.26852,7.956311 h 0.01653 l 11.31079,0.0013 h 11.3106 l -0.299466,0.461126 -0.299466,0.46119 h -0.04053 l -0.0067,0.0096 H 96.492377 95.6814 l -0.814343,0.828222 -0.810516,0.824423 v 1.104024 l 0.0021,0.636482 0.0059,1.736828 -0.0078,0.01222 v 0.02866 l -0.165301,0.2272 -0.164719,0.254804 -0.338055,0.522944 -0.0013,-0.08618 -0.0026,0.0037 V 69.88009 l -0.01193,-1.76163 -0.01566,-2.289622 -0.783206,-0.797435 -0.783051,-0.797192 H 91.35061 86.643649 81.496652 l -0.783219,0.803047 -0.783159,0.802984 -0.01497,2.2417 -0.0149,2.241516 -0.02601,-0.03571 v 0.02643 L 79.71334,70.066287 79.565835,69.863455 79.231084,69.403387 v -1.7625 -0.04088 l -0.02781,-1.74979 -0.785535,-0.794824 -0.810977,-0.820682 -0.783158,-0.0019 -0.812967,-0.0019 -0.0026,-0.0035 h -0.05001 l -0.297645,-0.464367 -0.148641,-0.231873 z m 6.33936,1.166839 0.02289,6.3e-5 v -6.3e-5 h 4.935325 4.935073 l 0.0058,0.006 0.03816,6.4e-5 0.769202,0.816504 0.769249,0.816634 v 0.019 2.229863 0.0095 c 0,0.750633 -0.0021,1.415748 -0.0058,1.821455 -0.0021,0.261773 -0.0051,0.41757 -0.0082,0.41757 -0.0077,0 -0.227968,-0.170471 -0.489508,-0.378375 l -0.475586,-0.37806 v -0.01521 l -0.0278,-0.02238 v -1.609023 c 0,-1.172628 0.03632,-1.489578 -0.154202,-1.793036 l -0.516046,-0.540951 -0.667824,-0.700416 -4.164895,0.0019 -4.179093,0.0019 -0.641006,0.668637 -0.642191,0.669753 v 1.616064 1.61594 l -0.05748,0.04574 v 0.0049 l -0.135985,0.103196 -0.302652,0.240469 c -0.272902,0.216847 -0.512016,0.394263 -0.53145,0.394263 -0.01849,0 -0.03378,-0.899064 -0.03522,-2.031825 0,-0.02082 1.1e-5,-0.04158 0,-0.06256 1.1e-5,-0.03303 0,-0.0662 0,-0.09958 v -2.206992 -0.01426 l 0.779793,-0.822052 z m 4.793053,1.500843 1.745695,1.560605 c 0.960125,0.85834 1.97908,1.769009 2.264372,2.023787 0.285303,0.254775 1.336998,1.194504 2.337025,2.088221 1.000016,0.893741 1.925121,1.71627 2.055886,1.827869 0.130762,0.111617 0.237847,0.220683 0.237847,0.242342 0,0.02167 -0.459351,0.02191 -1.020958,0 l -0.03023,-0.0019 -0.934924,-0.0019 -0.03054,-0.03552 -0.02545,-0.0019 -1.062913,-1.241115 c -1.302256,-1.52052 -4.870812,-5.674806 -5.063074,-5.89414 -0.07693,-0.08775 1.049668,1.497792 2.503532,3.523384 1.45389,2.025597 2.643502,3.684394 2.643526,3.686211 0,0.01074 -2.456463,-0.01437 -4.023481,-0.03639 l -1.291363,0.0019 v -0.2783 c 0,-0.01937 -0.0013,-0.05674 -0.0021,-0.10855 -0.02817,-0.575175 -0.08053,-1.776132 -0.136674,-3.151679 -0.07836,-1.920534 -0.149161,-3.561813 -0.157363,-3.647265 -0.01887,-0.195932 -0.06493,0.745561 -0.21073,4.310168 -0.0429,1.048588 -0.08332,1.972172 -0.107566,2.468088 0,0.02925 -0.0013,0.05518 -0.0013,0.07733 v 0.330206 h -1.056301 c -1.540793,0.02074 -4.258543,0.04256 -4.258543,0.02854 0,-0.0058 1.189575,-1.663912 2.643452,-3.684532 1.453891,-2.020617 2.580544,-3.603272 2.503617,-3.516965 -0.07693,0.0863 -0.37913,0.434988 -0.671428,0.774946 -0.292314,0.339955 -1.085302,1.262107 -1.762236,2.049211 -0.676928,0.787119 -1.696487,1.974886 -2.265743,2.639517 -0.569222,0.664599 -1.137621,1.322152 -1.262993,1.461145 l -0.227883,0.252688 -1.014153,0.01733 c -0.557737,0.0096 -0.996384,-0.0058 -0.974828,-0.0339 0.03374,-0.04408 2.409742,-2.169655 4.934396,-4.414356 0.415404,-0.369318 1.145497,-1.021619 1.622435,-1.449498 0.476938,-0.427911 1.144654,-1.023009 1.483889,-1.322501 z"
       style="fill:#2d1650;fill-opacity:1;stroke-width:0.199023" />
  </g>
</svg>
