<?xml version="1.0" encoding="UTF-8" standalone="no"?>
<svg
   xmlns:dc="http://purl.org/dc/elements/1.1/"
   xmlns:cc="http://creativecommons.org/ns#"
   xmlns:rdf="http://www.w3.org/1999/02/22-rdf-syntax-ns#"
   xmlns:svg="http://www.w3.org/2000/svg"
   xmlns="http://www.w3.org/2000/svg"
   xmlns:sodipodi="http://sodipodi.sourceforge.net/DTD/sodipodi-0.dtd"
   xmlns:inkscape="http://www.inkscape.org/namespaces/inkscape"
   sodipodi:docname="مشروع مطار.svg"
   inkscape:version="1.0 (4035a4fb49, 2020-05-01)"
   id="svg367"
   version="1.1"
   viewBox="0 0 39.687515 39.687561"
   height="39.687561mm"
   width="39.687515mm">
  <defs
     id="defs361" />
  <sodipodi:namedview
     inkscape:window-maximized="0"
     inkscape:window-y="0"
     inkscape:window-x="160"
     inkscape:window-height="1030"
     inkscape:window-width="1424"
     fit-margin-bottom="0"
     fit-margin-right="0"
     fit-margin-left="0"
     fit-margin-top="0"
     showgrid="false"
     inkscape:document-rotation="0"
     inkscape:current-layer="layer1"
     inkscape:document-units="mm"
     inkscape:cy="327.45607"
     inkscape:cx="461.73235"
     inkscape:zoom="0.35"
     inkscape:pageshadow="2"
     inkscape:pageopacity="0.0"
     borderopacity="1.0"
     bordercolor="#666666"
     pagecolor="#ffffff"
     id="base" />
  <metadata
     id="metadata364">
    <rdf:RDF>
      <cc:Work
         rdf:about="">
        <dc:format>image/svg+xml</dc:format>
        <dc:type
           rdf:resource="http://purl.org/dc/dcmitype/StillImage" />
        <dc:title></dc:title>
      </cc:Work>
    </rdf:RDF>
  </metadata>
  <g
     transform="translate(16.333351,-61.527248)"
     id="layer1"
     inkscape:groupmode="layer"
     inkscape:label="Layer 1">
    <path
       style="fill:#80a3b7;fill-opacity:1;stroke-width:0.199022"
       d="m 6.1452421,61.527248 v 0.0012 c -0.033282,0 -0.065406,0 -0.096553,0.0017 -0.1540212,-0.0072 -0.270454,0.01504 -0.3772001,0.07902 -0.3574408,0.155913 -0.5596057,0.55312 -0.9017505,1.322792 -0.7377773,1.659563 -1.8190263,2.288088 -3.93645676,2.288088 -0.87834821,0 -1.47929409,-0.07045 -1.97166034,-0.279847 -0.3765125,-0.210389 -0.7434469,-0.500501 -1.1261236,-0.879806 -0.041595,-0.04796 -0.083477,-0.0977 -0.1258662,-0.149435 -1.0745793,-1.310597 -1.2340036,-1.351116 -2.6614753,-0.676415 -0.6775948,0.32027 -1.8455773,0.978976 -2.5954657,1.463819 l -1.3634283,0.881544 0.1423441,0.765149 c 0.078301,0.420838 0.259742,1.086311 0.4032081,1.478825 0.1520188,0.416025 0.206761,0.996889 0.131222,1.392769 -0.2046739,1.073295 -1.2567184,2.719601 -2.1522685,3.367982 -0.763266,0.552588 -0.943247,0.594036 -2.577359,0.594036 -0.259778,0 -0.480677,6.4e-5 -0.670562,0.0027 -0.195048,-0.0081 -0.361361,-0.004 -0.505273,0.01651 -0.592092,0.03959 -0.673807,0.160606 -0.864838,0.52979 -0.494248,0.955272 -1.307323,4.543052 -1.223014,5.280082 0.0013,0.08842 0.01013,0.1504 0.02887,0.180641 0.03679,0.05949 0.249114,0.194997 0.555287,0.361851 0.316378,0.202355 0.732771,0.437883 1.165908,0.653736 1.397844,0.696668 1.563482,0.845475 2.052181,1.8438 0.929532,1.898758 0.413944,3.901197 -1.326274,5.150707 -1.272232,0.913498 -1.394949,1.424735 -0.688693,2.869423 0.921703,1.885284 2.287689,3.803309 2.708822,3.803309 0.209379,0 0.851967,-0.179051 1.428002,-0.397873 0.6758699,-0.256722 1.1796116,-0.381561 1.6657291,-0.370957 0.062848,0.0024 0.126047,0.0062 0.1893178,0.01098 0.4241375,0.04024 0.850205,0.184791 1.3821622,0.436136 0.3818805,0.180436 0.7202256,0.378618 1.0160844,0.596086 0.343701,0.296833 0.6822509,0.642263 0.9596773,0.97795 0.516227,0.763133 0.7063047,1.694629 0.5900651,2.828602 -0.09098,0.887512 -0.057143,1.374176 0.1094844,1.574854 0.2374849,0.285978 2.5361764,1.121374 4.09330138,1.487614 0.64553099,0.15183 1.07901736,0.22571 1.41340562,0.1685 0.1008352,0.0173 0.1733342,0.0284 0.2061216,0.0311 0.2105006,0.0174 0.5068902,-0.3459 0.7725551,-0.91003 0.092126,-0.16062 0.1888836,-0.345729 0.2954728,-0.55796 0.5904993,-1.175668 0.8363929,-1.45801 1.6120844,-1.851644 2.1991095,-1.116059 4.4224416,-0.736474 5.6445269,0.963619 0.4804119,0.6683 0.8465859,0.981996 1.1464139,0.981996 h 0.0156 0.0064 c 0.01685,0 0.03828,-0.0027 0.06391,-0.008 0.711902,-0.113386 3.31323,-1.426956 4.482648,-2.278498 0.87579,-0.637722 0.918469,-0.711716 0.7686,-1.333255 -0.08728,-0.361923 -0.303012,-0.990906 -0.479351,-1.397763 -0.413076,-0.953016 -0.399505,-1.654741 0.05115,-2.642715 0.20956,-0.459536 0.426224,-0.851399 0.661815,-1.183273 0.124792,-0.153017 0.26078,-0.304974 0.408322,-0.455579 0.181632,-0.185406 0.358647,-0.347471 0.534502,-0.487654 0.693111,-0.464445 1.565957,-0.651541 2.768415,-0.656354 0.567013,0.0705 0.954768,0.0874 1.248142,-0.0019 l 0.471498,-0.0012 0.377695,-0.795873 c 0.496154,-1.04537 1.411016,-4.748844 1.266247,-5.125845 -0.06226,-0.162102 -0.545938,-0.498572 -1.074833,-0.747694 -1.369134,-0.644906 -2.022769,-1.326592 -2.359968,-2.461396 -0.156207,-0.525761 -0.252663,-1.021135 -0.289866,-1.48517 -0.0028,-0.08237 -0.0041,-0.16578 -0.0041,-0.25045 0,-0.255069 0.0037,-0.481574 0.01425,-0.686378 0.108916,-0.977057 0.539775,-1.779493 1.289917,-2.393843 0.490204,-0.401465 0.943658,-0.938324 1.007603,-1.193056 0.0082,-0.03311 0.01295,-0.07094 0.01417,-0.113089 0.02781,-0.140099 -0.0097,-0.282272 -0.08032,-0.489983 -0.230417,-0.814232 -0.937699,-2.17811 -1.902395,-3.62047 -0.833435,-1.24618 -0.847671,-1.256289 -1.608307,-1.13841 -0.422088,0.06544 -1.022358,0.250679 -1.333911,0.411706 -0.687643,0.355385 -1.055494,0.356362 -2.039853,0.0054 -1.113964,-0.397122 -2.269618,-1.261741 -2.777714,-2.078218 -0.345969,-0.556087 -0.469471,-1.118784 -0.546542,-2.489924 l -0.02841,-0.505423 c 0.03723,-0.516955 0.03267,-0.774859 -0.05331,-0.949469 l -0.01784,-0.316612 -1.224643,-0.456822 C 9.6491775,62.261699 8.3698529,61.908618 7.4797553,61.728387 6.8851304,61.607963 6.4640208,61.53058 6.1452301,61.527926 Z m -2.6214978,5.39679 c 0.4406639,9.6e-5 0.8807126,0.0212 1.3181677,0.06381 4.3821268,0.426893 8.291297,2.770133 10.732162,6.433064 1.266007,1.899868 2.099118,4.268283 2.328524,6.620196 0.361709,3.708818 -0.849411,7.647302 -3.22785,10.49734 -0.581403,0.696668 -1.821945,1.8876 -2.481059,2.381877 -2.882591,2.16161 -6.5787635,3.19131 -10.1429057,2.825733 C -0.72485637,95.46135 -3.5624654,94.27663 -5.6673134,92.5237 -5.9320495,92.303166 -6.2705754,91.984574 -6.6151812,91.638779 -6.7723749,91.484012 -6.9256965,91.325976 -7.0749288,91.164828 -7.4660495,90.75077 -7.8247572,90.342163 -8.0445098,90.049409 -10.18667,87.196018 -11.222176,83.541821 -10.880767,80.041111 c 0.280563,-2.8766 1.442285,-5.697252 3.2277156,-7.836677 0.5814038,-0.696656 1.8219458,-1.887601 2.4810598,-2.381877 2.4961027,-1.871762 5.61131664,-2.899725 8.6957359,-2.898519 z m -0.063789,1.267279 c -0.9052139,0.0025 -1.8156486,0.09832 -2.71608432,0.292875 -1.08561585,0.234599 -1.90449438,0.516508 -2.91940738,1.004983 -3.7817243,1.820096 -6.4002669,5.16938 -7.2434633,9.265031 -0.4977461,2.417607 -0.2639641,5.137692 0.6370147,7.411943 0.8124596,2.050848 2.1355491,3.897386 3.7756557,5.269431 2.0604091,1.723653 4.57773033,2.786575 7.2660455,3.068062 0.858227,0.08988 2.4896002,0.02472 3.4456104,-0.137649 C 11.063669,93.45598 15.310581,89.380981 16.412699,84.091864 17.236678,80.137723 16.26162,76.167043 13.685215,72.984408 11.206592,69.922558 7.3825872,68.18046 3.4599553,68.191317 Z m -7.9568006,4.237945 c 0.4674444,0 0.9294949,0.12754 1.5320584,0.423105 0.4394094,0.215516 0.6140705,0.308328 1.0941434,0.756488 0.2576804,0.244744 0.6214422,0.601709 1.12322969,1.101209 l 1.3987128,1.392334 h 0.001206 l 0.007479,0.0075 0.61357591,-0.201824 c 0.3374523,-0.111003 1.3640194,-0.447087 2.2812228,-0.746825 3.2032151,-1.04689 5.0367895,-1.646186 5.5111938,-1.801496 L 9.528016,73.208581 c 0.048868,0.03889 0.2267495,0.2087 0.450616,0.429909 l 0.170089,0.170292 0.604698,0.605569 -3.4416299,2.452976 -3.4416538,2.453036 2.1056448,2.104454 2.0992755,2.098158 0.00627,0.0063 1.508728,-0.295058 1.4745894,-0.288388 c 0.04785,0.02294 0.438408,0.398884 0.792954,0.752061 0.223806,0.224635 0.414294,0.419921 0.515672,0.528294 0.04524,0.0494 0.07313,0.08256 0.077,0.09253 -0.04258,0.0212 -0.975202,0.418257 -2.103751,0.895633 L 8.2543482,86.099329 7.3620189,88.205714 6.4696896,90.312099 6.1269296,89.969802 5.7810211,89.623971 5.0969607,88.940078 5.1683377,88.571617 C 5.2077366,88.368478 5.3405631,87.690906 5.463546,87.065928 L 5.6872074,85.92952 3.8529696,84.09414 C 2.8128074,83.045248 1.6773831,81.913423 1.4948327,81.753457 c 0.01959,-0.02581 0.017998,-0.02725 -0.0082,-0.0072 -0.010374,-0.0088 -0.016321,-0.0136 -0.017528,-0.01239 -0.00205,0.0024 -0.1309808,0.18303 -0.3078616,0.430766 -0.42118205,0.58353 -1.22693471,1.708454 -2.14256987,2.992174 -1.22910603,1.723232 -2.24628823,3.148256 -2.40970663,3.376088 -0.018458,0.02338 -0.031606,0.03914 -0.03789,0.04518 -0.036552,-0.02364 -0.3000688,-0.277025 -0.6122128,-0.589236 l -0.6046379,-0.604761 0.1938899,-0.590912 c 0.1066617,-0.325011 0.5577474,-1.702254 1.0024403,-3.060595 0.4446459,-1.35833 1.0117778,-3.089993 1.2602663,-3.848109 l 0.451774,-1.378438 -0.0076,-0.0076 0.00121,-0.0017 -0.3908555,-0.390019 -0.9761798,-0.979819 c -1.4798013,-1.485339 -1.5483801,-1.56628 -1.8665554,-2.20179 -0.084646,-0.169133 -0.2076777,-0.469137 -0.2732888,-0.666691 -0.2491145,-0.75001 -0.2378114,-1.261923 0.034681,-1.5713 0.1624773,-0.184501 0.3669464,-0.257603 0.720515,-0.257603 z"
       id="path17973-2-83-5"
       inkscape:connector-curvature="0" />
  </g>
</svg>
