<?xml version="1.0" encoding="UTF-8" standalone="no"?>
<svg
   xmlns:dc="http://purl.org/dc/elements/1.1/"
   xmlns:cc="http://creativecommons.org/ns#"
   xmlns:rdf="http://www.w3.org/1999/02/22-rdf-syntax-ns#"
   xmlns:svg="http://www.w3.org/2000/svg"
   xmlns="http://www.w3.org/2000/svg"
   xmlns:sodipodi="http://sodipodi.sourceforge.net/DTD/sodipodi-0.dtd"
   xmlns:inkscape="http://www.inkscape.org/namespaces/inkscape"
   width="39.687508mm"
   height="39.687592mm"
   viewBox="0 0 39.687508 39.687591"
   version="1.1"
   id="svg321"
   inkscape:version="1.0 (4035a4fb49, 2020-05-01)"
   sodipodi:docname="مشروع تعليمي.svg">
  <defs
     id="defs315" />
  <sodipodi:namedview
     id="base"
     pagecolor="#ffffff"
     bordercolor="#666666"
     borderopacity="1.0"
     inkscape:pageopacity="0.0"
     inkscape:pageshadow="2"
     inkscape:zoom="0.35"
     inkscape:cx="696.90846"
     inkscape:cy="453.16115"
     inkscape:document-units="mm"
     inkscape:current-layer="layer1"
     inkscape:document-rotation="0"
     showgrid="false"
     fit-margin-top="0"
     fit-margin-left="0"
     fit-margin-right="0"
     fit-margin-bottom="0"
     inkscape:window-width="1424"
     inkscape:window-height="1030"
     inkscape:window-x="32"
     inkscape:window-y="0"
     inkscape:window-maximized="0" />
  <metadata
     id="metadata318">
    <rdf:RDF>
      <cc:Work
         rdf:about="">
        <dc:format>image/svg+xml</dc:format>
        <dc:type
           rdf:resource="http://purl.org/dc/dcmitype/StillImage" />
        <dc:title />
      </cc:Work>
    </rdf:RDF>
  </metadata>
  <g
     inkscape:label="Layer 1"
     inkscape:groupmode="layer"
     id="layer1"
     transform="translate(5.7500175,-28.26778)">
    <path
       inkscape:connector-curvature="0"
       id="path17973-2-83-94"
       d="m 16.728615,28.26839 h -6.4e-5 c -0.03333,0 -0.06538,0 -0.09654,0.0017 -0.154021,-0.0072 -0.270514,0.01503 -0.37726,0.07901 -0.357429,0.155914 -0.559534,0.553138 -0.901679,1.322808 -0.737789,1.659595 -1.81911,2.288128 -3.936516,2.288128 -0.878349,0 -1.479222,-0.07045 -1.971564,-0.279862 C 9.0684312,31.469794 8.7015208,31.17968 8.318832,30.800356 8.277239,30.752406 8.235344,30.702657 8.192966,30.650932 7.1183868,29.340307 6.9589012,29.2998 5.5314184,29.974509 4.8538355,30.294782 3.6859256,30.953497 2.9360247,31.438335 l -1.3634402,0.881566 0.1423564,0.765147 c 0.078301,0.420842 0.259778,1.086336 0.4031959,1.478855 0.1520309,0.416029 0.206761,0.996902 0.1312341,1.392787 -0.2046864,1.073307 -1.25677871,2.719647 -2.15230438,3.368035 -0.76329062,0.552596 -0.94317527,0.594043 -2.57731092,0.594043 -0.2597541,0 -0.4807254,6.4e-5 -0.6706343,0.0027 -0.1950477,-0.0081 -0.3612889,-0.004 -0.5052135,0.01653 -0.5920553,0.03958 -0.6738671,0.160595 -0.8648979,0.529796 -0.49426,0.955271 -1.3072625,4.543107 -1.2229538,5.280135 0.00133,0.08844 0.010133,0.150415 0.028867,0.180656 0.036804,0.05949 0.2491144,0.194986 0.5552871,0.361854 0.3164143,0.202358 0.7327711,0.437889 1.1659077,0.653745 1.3978442,0.696675 1.5634944,0.845474 2.0521933,1.843823 0.9295559,1.898782 0.4138719,3.901245 -1.3263464,5.150783 -1.2722074,0.913511 -1.3948768,1.424752 -0.6886325,2.869448 0.921691,1.885304 2.2876888,3.803361 2.7088106,3.803361 0.2093785,0 0.85197842,-0.179048 1.4280139,-0.397887 0.67586911,-0.256721 1.1795987,-0.381548 1.6657166,-0.370947 0.06286,0.0024 0.1260589,0.0061 0.1893295,0.01098 0.4241255,0.04023 0.8502052,0.184781 1.3821505,0.436138 0.3818927,0.18043 0.7202373,0.378623 1.0160963,0.596094 0.343713,0.296837 0.6822749,0.642263 0.9596892,0.977967 0.5162031,0.763131 0.7062809,1.694651 0.5900534,2.828634 -0.09098,0.887523 -0.057143,1.374201 0.109484,1.574869 0.2374858,0.28599 2.5361876,1.121393 4.0933007,1.487636 0.645531,0.151824 1.079005,0.225709 1.413394,0.168496 0.100847,0.0173 0.173346,0.02839 0.206121,0.0311 0.210501,0.01741 0.506842,-0.345908 0.772495,-0.910049 0.09214,-0.160619 0.188943,-0.345727 0.295545,-0.557964 0.590487,-1.175673 0.836332,-1.458021 1.612012,-1.851662 2.199109,-1.116072 4.422501,-0.736486 5.644599,0.963631 0.480424,0.668304 0.846586,0.982002 1.146402,0.982002 h 0.01561 0.0064 c 0.01689,0 0.03829,-0.0026 0.06391,-0.008 0.711903,-0.113378 3.313232,-1.426969 4.482685,-2.278525 0.875765,-0.637722 0.918448,-0.711732 0.768564,-1.333265 -0.08728,-0.361929 -0.302998,-0.990917 -0.479351,-1.397782 -0.413075,-0.953042 -0.399492,-1.654772 0.05115,-2.642758 0.209572,-0.459543 0.426223,-0.85141 0.661813,-1.183287 0.124794,-0.153021 0.260816,-0.304979 0.408324,-0.455574 0.181636,-0.185419 0.358645,-0.347486 0.534514,-0.487673 0.693134,-0.46445 1.565944,-0.651548 2.768404,-0.65636 0.567012,0.0705 0.95478,0.0874 1.24818,-0.0019 l 0.471458,-0.0013 0.377695,-0.795883 c 0.496155,-1.045381 1.411015,-4.748902 1.266248,-5.125908 -0.06224,-0.162103 -0.545938,-0.498589 -1.074832,-0.747716 -1.369121,-0.644902 -2.022758,-1.326596 -2.359957,-2.461414 -0.156207,-0.525767 -0.252671,-1.021159 -0.289866,-1.4852 -0.0028,-0.08237 -0.0041,-0.165782 -0.0041,-0.250453 0,-0.255073 0.0037,-0.48158 0.01423,-0.686387 0.108916,-0.977069 0.539787,-1.779514 1.289915,-2.393873 0.490241,-0.40147 0.94366,-0.938335 1.007605,-1.193058 0.0082,-0.03312 0.01297,-0.07095 0.01418,-0.113115 0.02781,-0.140101 -0.0097,-0.282263 -0.08031,-0.489977 -0.230417,-0.814253 -0.937688,-2.178136 -1.902396,-3.620525 -0.833424,-1.246197 -0.847662,-1.256306 -1.608307,-1.138426 -0.422074,0.06544 -1.022358,0.250683 -1.33391,0.411724 -0.687644,0.355388 -1.055494,0.356366 -2.039853,0.0054 -1.113964,-0.397115 -2.269619,-1.261757 -2.777691,-2.078243 -0.345982,-0.556096 -0.469495,-1.118799 -0.546555,-2.489946 l -0.02841,-0.50544 c 0.03723,-0.516961 0.03265,-0.77487 -0.05331,-0.949494 L 22.130732,29.709675 20.90609,29.252847 C 20.232536,29.001574 18.9532,28.648489 18.063114,28.468244 17.468501,28.347818 17.047367,28.270434 16.728625,28.26778 Z m -2.621534,5.39687 c 0.440652,9.6e-5 0.8807,0.02118 1.31818,0.0638 4.382126,0.426885 8.291273,2.770167 10.732137,6.433143 1.266007,1.899892 2.099082,4.268348 2.328463,6.620291 0.361698,3.708862 -0.84935,7.647409 -3.227787,10.497471 -0.581404,0.696676 -1.821948,1.887632 -2.481035,2.381905 -2.882605,2.161647 -6.578789,3.191373 -10.142931,2.825778 C 9.8585165,62.20294 7.0208727,61.018204 4.9160602,59.26524 4.651288,59.044715 4.3127502,58.726108 3.9681444,58.380319 3.8109629,58.225551 3.6576411,58.0675 3.5084087,57.906351 3.1172879,57.492287 2.7586168,57.083687 2.5388158,56.79093 0.39666798,53.937504 -0.63883761,50.28325 -0.29742854,46.782496 -0.01686597,43.905859 1.1448676,41.085171 2.9302864,38.945708 3.5117022,38.249056 4.7522318,37.058084 5.4113338,36.563802 7.9074478,34.692017 11.022663,33.664054 14.107081,33.66526 Z m -0.06378,1.267282 c -0.905225,0.0025 -1.81566,0.09833 -2.716096,0.292878 -1.085628,0.23459 -1.9045532,0.516528 -2.9194676,1.005008 -3.7817236,1.820119 -6.4001934,5.169433 -7.2433898,9.265146 -0.4977463,2.417638 -0.26397608,5.137768 0.6370024,7.412048 0.812496,2.050873 2.1355489,3.897435 3.7756681,5.269495 2.0603961,1.723677 4.5777049,2.78661 7.2660199,3.068101 0.858275,0.08988 2.4896,0.02471 3.44561,-0.137648 5.358357,-0.910025 9.605198,-4.985076 10.707315,-10.274272 0.823981,-3.95419 -0.151019,-7.924919 -2.727423,-11.107592 -2.478588,-3.061901 -6.302604,-4.804021 -10.225237,-4.793164 z m 0.08319,4.837652 v 0 h 6.4e-5 c 0.889193,0.0054 1.762752,0.234201 2.540446,0.665082 l 7.403864,4.098729 c 0.458772,0.255146 0.458772,0.914668 0,1.169826 l -7.403855,4.098792 c -1.600745,0.886896 -3.545698,0.886896 -5.146443,0 L 6.8304574,47.206535 V 45.883039 H 14.858163 V 45.118942 H 6.0658759 v 1.664483 l 0.7641955,0.42311 v 2.115084 l 0.3822663,2.29235 v 3.056459 H 5.6831873 v -3.056459 l 0.3823751,-2.29235 V 46.783364 L 4.1163032,45.704265 c -0.4592291,-0.255049 -0.4592291,-0.91521 0,-1.17026 L 11.52018,40.435276 c 0.79714,-0.441651 1.694583,-0.670752 2.605997,-0.665082 z m -5.3626608,10.252517 2.0175968,1.11711 c 2.061614,1.14173 4.566221,1.14173 6.627847,0 l 1.64381,-0.91047 c 0.124805,0.880602 0.312555,1.751155 0.561898,2.604929 0.764545,1.217619 -0.549666,0.931096 -0.549666,0.931096 -1.0184,0.01683 -2.033314,0.727029 -2.832637,1.291711 -0.337971,0.229861 -0.659524,0.483016 -0.962211,0.757618 -0.435814,0.4092 -0.909,0.798523 -1.544326,0.573115 -0.306475,-0.127748 -0.58021,-0.32282 -0.800868,-0.5708 -2.413313,-2.363799 -4.1572589,-2.029519 -4.1572589,-2.029519 -0.295883,0.05463 -0.7083554,-0.0065 -0.7121554,-0.367465 -0.00374,-0.260574 0.2075934,-0.456612 0.311553,-0.673624 0.3401666,-0.865293 0.4758036,-1.797418 0.3964165,-2.723701 z"
       style="fill:#d6b28a;fill-opacity:1;stroke-width:0.199023" />
  </g>
</svg>
