<?xml version="1.0" encoding="UTF-8" standalone="no"?>
<svg
   xmlns:dc="http://purl.org/dc/elements/1.1/"
   xmlns:cc="http://creativecommons.org/ns#"
   xmlns:rdf="http://www.w3.org/1999/02/22-rdf-syntax-ns#"
   xmlns:svg="http://www.w3.org/2000/svg"
   xmlns="http://www.w3.org/2000/svg"
   xmlns:sodipodi="http://sodipodi.sourceforge.net/DTD/sodipodi-0.dtd"
   xmlns:inkscape="http://www.inkscape.org/namespaces/inkscape"
   id="airport"
   width="80"
   height="80"
   viewBox="0 0 80 80"
   version="1.1"
   sodipodi:docname="Broker1.svg"
   inkscape:version="0.92.4 (5da689c313, 2019-01-14)">
  <metadata
     id="metadata10416">
    <rdf:RDF>
      <cc:Work
         rdf:about="">
        <dc:format>image/svg+xml</dc:format>
        <dc:type
           rdf:resource="http://purl.org/dc/dcmitype/StillImage" />
        <dc:title></dc:title>
      </cc:Work>
    </rdf:RDF>
  </metadata>
  <sodipodi:namedview
     pagecolor="#ffffff"
     bordercolor="#666666"
     borderopacity="1"
     objecttolerance="10"
     gridtolerance="10"
     guidetolerance="10"
     inkscape:pageopacity="0"
     inkscape:pageshadow="2"
     inkscape:window-width="1920"
     inkscape:window-height="1001"
     id="namedview10414"
     showgrid="false"
     fit-margin-top="0"
     fit-margin-left="0"
     fit-margin-right="0"
     fit-margin-bottom="0"
     inkscape:zoom="1.475"
     inkscape:cx="132.69115"
     inkscape:cy="11.974896"
     inkscape:window-x="-9"
     inkscape:window-y="-9"
     inkscape:window-maximized="1"
     inkscape:current-layer="airport" />
  <defs
     id="defs10407">
    <filter
       id="Path_29"
       x="19.5"
       y="18"
       width="40.375"
       height="42.625"
       filterUnits="userSpaceOnUse">
      <feOffset
         dy="-1"
         input="SourceAlpha"
         id="feOffset10396" />
      <feGaussianBlur
         result="blur"
         id="feGaussianBlur10398" />
      <feFlood
         flood-opacity="0.102"
         id="feFlood10400" />
      <feComposite
         operator="in"
         in2="blur"
         id="feComposite10402"
         result="result1" />
      <feComposite
         in="SourceGraphic"
         in2="result1"
         id="feComposite10404" />
    </filter>
    <filter
       filterUnits="userSpaceOnUse"
       height="42.625"
       width="40.375"
       y="18"
       x="19.5"
       id="Path_29-8">
      <feOffset
         id="feOffset10396-3"
         input="SourceAlpha"
         dy="-1" />
      <feGaussianBlur
         id="feGaussianBlur10398-4"
         result="blur" />
      <feFlood
         id="feFlood10400-8"
         flood-opacity="0.102" />
      <feComposite
         result="result1"
         id="feComposite10402-7"
         in2="blur"
         operator="in" />
      <feComposite
         id="feComposite10404-4"
         in2="result1"
         in="SourceGraphic" />
    </filter>
  </defs>
  <circle
     id="Ellipse_130-4-4-3"
     data-name="Ellipse 130"
     cx="39.999989"
     cy="39.999996"
     r="40"
     style="opacity:1;fill:#e2e3db;fill-opacity:1" />
  <g
     id="g27201"
     transform="matrix(0.15804615,0,0,0.15804615,99.086043,37.079342)">
    <path
       id="path27195"
       d="m -372.375,-155.63281 c -20.11109,-0.20838 -42.51219,5.59669 -59.30469,15.64648 -32.21715,19.28098 -52.84998,51.98945 -56.38867,89.39258 -0.82663,8.73723 -0.5759,20.679245 0.50781,24.203125 0.21143,0.6875 0.79235,1.25 1.29102,1.25 1.41032,0 39.21336,-8.917008 40.08398,-9.455078 0.42537,-0.26289 1.04197,-4.656059 1.36914,-9.761719 0.32716,-5.10565 1.30855,-11.949124 2.18164,-15.208984 5.11325,-19.09134 19.16981,-36.226353 36.89649,-44.976564 11.28069,-5.56835 18.29238,-7.07361 32.625,-7.00781 10.74896,0.0493 13.62066,0.42907 20.5,2.70898 11.46024,3.79809 19.84309,9.051345 29.04101,18.201175 5.86564,5.83497 9.11307,10.096594 12,15.746094 2.17696,4.26014 4.52874,7.748 5.22657,7.75 2.35337,0.008 39.62423,-8.988874 40.375,-9.746094 1.00965,-1.01832 -4.43231,-14.304223 -8.89649,-21.720703 -19.66125,-32.663842 -51.22746,-52.712962 -89.05273,-56.560552 -2.75654,-0.28039 -5.58207,-0.43116 -8.45508,-0.46093 z"
       style="fill:#1ccfc9;fill-opacity:1"
       inkscape:connector-curvature="0" />
    <path
       id="path27193"
       d="m -344.06055,-71.058594 c -0.85461,0.04443 -10.10273,9.446602 -20.55273,20.894532 -10.45,11.447939 -19.6156,21.093633 -20.36719,21.433593 -0.81841,0.37019 -4.56485,-1.995684 -9.33984,-5.896484 -4.38516,-3.58233 -8.58427,-6.513672 -9.33203,-6.513672 -1.81411,0 -6.71553,6.517894 -6.29493,8.371094 0.18286,0.80569 5.85796,5.981836 12.61133,11.503906 6.75338,5.52208 12.82838,9.796817 13.5,9.498047 1.42541,-0.63408 47.04676,-50.047333 47.58399,-51.539063 0.51593,-1.43258 -5.9471,-7.848753 -7.8086,-7.751953 z"
       style="fill:#00a887;fill-opacity:1"
       inkscape:connector-curvature="0" />
    <path
       id="path27191"
       d="m -263.52148,-68.412109 c -5.058,0.178813 -39.44366,7.774231 -40.84571,9.142578 -0.4139,0.40396 -0.24915,3.41054 0.36524,6.68164 1.65433,8.80782 0.54422,23.437326 -2.5,32.947266 -3.58169,11.18895 -8.87393,19.74893062 -17.61914,28.4941406 -8.66278,8.6627904 -17.15972,13.9478664 -28.49219,17.7226564 -7.0628,2.35259 -9.58152,2.6677 -21.5,2.6875 -12.22229,0.02035 -14.25716,-0.240992 -21.5,-2.763672 -22.78779,-7.93697 -38.78195,-24.159855 -45.98438,-46.640625 -0.96916,-3.025 -2.06536,-5.835804 -2.43554,-6.246094 -0.71103,-0.78807 -40.00197,7.980762 -41.39453,9.238281 -1.06959,0.96586 1.53071,10.8320005 5.19531,19.7187505 2.62476,6.36511 37.07058,70.4001795 42.73437,79.4433595 2.26148,3.61084 2.33943,3.644016 6.58594,2.691406 34.1956,-7.67108 137.43331,-32.097639 137.91211,-32.630859 0.35242,-0.39248 6.07398,-11.064844 12.71484,-23.714844 16.77775,-31.95946 21.21182,-46.513579 21.13672,-69.380859 -0.0354,-10.77305 -2.0863,-25.640989 -3.76953,-27.324219 -0.058,-0.05805 -0.26631,-0.07833 -0.60351,-0.06641 z"
       style="fill:#00a887;fill-opacity:1"
       inkscape:connector-curvature="0" />
    <path
       id="path27171"
       d="m -299.36328,60.894531 c -0.47052,0.0127 -16.71982,3.751989 -37.04102,8.470703 -3.34354,0.773797 -6.63034,1.537515 -10.16992,2.365235 -6.65019,1.549601 -11.6844,2.70784 -19.03906,4.43164 -44.01371,10.316026 -58.41845,13.783547 -62.94922,15.640625 -1.32813,0.389554 -2.23866,0.685536 -2.27539,0.78125 -0.021,0.05475 0.0997,0.364394 0.28906,0.796875 -1.5e-4,0.01247 -0.008,0.0246 -0.008,0.03711 0.0394,1.401907 12.32158,24.215931 25.14062,47.343751 12.00034,22.02326 24.22814,44.02502 26.5879,47.42578 0.83965,1.21006 2.13606,2.47293 3.22265,3.19727 1.47939,1.22963 2.54197,1.4349 4.26758,1.01367 0.44665,-0.10903 0.93426,-0.29168 1.42773,-0.50196 0.71818,-0.25953 1.41777,-0.62554 2.07422,-1.11328 0.36065,-0.24515 0.68126,-0.49433 0.92578,-0.73632 0.13486,-0.13346 0.78008,-1.22863 1.64063,-2.73438 4.28359,-7.38343 16.63619,-30.06165 30.71094,-56.45312 1.11471,-2.0902 1.56305,-2.93648 2.61132,-4.90235 0.0343,-0.0643 0.0517,-0.096 0.0859,-0.16015 16.98175,-31.683203 33.74805,-63.342746 33.74805,-64.103521 0,-0.45869 -0.5625,-0.817428 -1.25,-0.798828 z"
       style="fill:#005850;fill-opacity:1"
       inkscape:connector-curvature="0" />
  </g>
</svg>
