<?xml version="1.0" encoding="UTF-8" standalone="no"?>
<svg
   xmlns:dc="http://purl.org/dc/elements/1.1/"
   xmlns:cc="http://creativecommons.org/ns#"
   xmlns:rdf="http://www.w3.org/1999/02/22-rdf-syntax-ns#"
   xmlns:svg="http://www.w3.org/2000/svg"
   xmlns="http://www.w3.org/2000/svg"
   xmlns:sodipodi="http://sodipodi.sourceforge.net/DTD/sodipodi-0.dtd"
   xmlns:inkscape="http://www.inkscape.org/namespaces/inkscape"
   sodipodi:docname="مشروع سكني.svg"
   inkscape:version="1.0 (4035a4fb49, 2020-05-01)"
   id="svg505"
   version="1.1"
   viewBox="0 0 39.6875 39.6875"
   height="39.6875mm"
   width="39.6875mm">
  <defs
     id="defs499" />
  <sodipodi:namedview
     inkscape:window-maximized="0"
     inkscape:window-y="0"
     inkscape:window-x="32"
     inkscape:window-height="1030"
     inkscape:window-width="1424"
     fit-margin-bottom="0"
     fit-margin-right="0"
     fit-margin-left="0"
     fit-margin-top="0"
     showgrid="false"
     inkscape:document-rotation="0"
     inkscape:current-layer="layer1"
     inkscape:document-units="mm"
     inkscape:cy="224.59868"
     inkscape:cx="-192.55394"
     inkscape:zoom="0.35"
     inkscape:pageshadow="2"
     inkscape:pageopacity="0.0"
     borderopacity="1.0"
     bordercolor="#666666"
     pagecolor="#ffffff"
     id="base" />
  <metadata
     id="metadata502">
    <rdf:RDF>
      <cc:Work
         rdf:about="">
        <dc:format>image/svg+xml</dc:format>
        <dc:type
           rdf:resource="http://purl.org/dc/dcmitype/StillImage" />
        <dc:title></dc:title>
      </cc:Work>
    </rdf:RDF>
  </metadata>
  <g
     transform="translate(-156.7799,-88.741599)"
     id="layer1"
     inkscape:groupmode="layer"
     inkscape:label="Layer 1">
    <path
       style="fill:#c8ab37;fill-opacity:1;stroke-width:0.199022"
       d="m 179.25876,88.741599 v 0.0012 c -0.0333,0 -0.0654,-1.2e-5 -0.0966,0.0017 -0.15404,-0.0072 -0.27044,0.01503 -0.37721,0.07901 -0.35742,0.155912 -0.55959,0.553127 -0.90176,1.322781 -0.73778,1.65956 -1.81905,2.288067 -3.93648,2.288067 -0.87835,0 -1.47929,-0.07044 -1.97167,-0.279844 -0.37652,-0.210387 -0.74347,-0.500485 -1.12614,-0.879799 -0.0416,-0.04795 -0.0835,-0.0977 -0.12589,-0.149421 -1.07457,-1.310597 -1.23401,-1.351117 -2.6615,-0.676409 -0.67758,0.320267 -1.84557,0.978967 -2.59547,1.463794 l -1.36345,0.881536 0.14233,0.765142 c 0.0783,0.420834 0.25977,1.086301 0.40322,1.478812 0.15202,0.416033 0.20675,0.996892 0.13124,1.392756 -0.20468,1.073285 -1.25673,2.719577 -2.15229,3.367964 -0.76329,0.552582 -0.94326,0.594022 -2.5774,0.594022 -0.25977,0 -0.48068,7e-5 -0.67055,0.003 -0.19506,-0.008 -0.36137,-0.004 -0.50529,0.0165 -0.59209,0.0396 -0.67383,0.1606 -0.86484,0.52978 -0.49428,0.95526 -1.30735,4.54302 -1.22304,5.28003 0.001,0.0884 0.0101,0.1504 0.0289,0.18065 0.0368,0.0595 0.2491,0.19498 0.55528,0.36185 0.3164,0.20235 0.73278,0.43787 1.16593,0.65372 1.39787,0.69666 1.56351,0.84547 2.05222,1.84378 0.92954,1.89875 0.41392,3.90116 -1.3263,5.15067 -1.27225,0.91349 -1.39498,1.42472 -0.6887,2.86939 0.9217,1.88527 2.28772,3.80327 2.70883,3.80327 0.20939,0 0.852,-0.17905 1.42803,-0.39787 0.67587,-0.25672 1.1796,-0.38154 1.66573,-0.37094 0.0629,0.002 0.12606,0.006 0.18935,0.011 0.42412,0.0403 0.85021,0.18478 1.38215,0.43613 0.3819,0.18042 0.72025,0.37861 1.01611,0.59608 0.3437,0.29682 0.68226,0.64226 0.95969,0.97794 0.51623,0.76313 0.70629,1.69462 0.59008,2.82858 -0.091,0.8875 -0.0571,1.37416 0.10954,1.57484 0.23747,0.28596 2.53614,1.12136 4.09328,1.48759 0.64555,0.15183 1.07902,0.22571 1.4134,0.1685 0.10085,0.0173 0.17337,0.0284 0.20613,0.0311 0.21049,0.0174 0.5069,-0.3459 0.77257,-0.91002 0.0921,-0.16062 0.18889,-0.34573 0.29547,-0.55795 0.59052,-1.17566 0.83643,-1.458 1.61209,-1.85163 2.19914,-1.11604 4.42252,-0.73646 5.64461,0.96361 0.48041,0.6683 0.84658,0.98199 1.14641,0.98199 h 0.0156 0.006 c 0.0169,0 0.0383,-0.003 0.0639,-0.008 0.71193,-0.11338 3.31327,-1.42693 4.48273,-2.27847 0.8758,-0.63772 0.91845,-0.71172 0.76857,-1.33324 -0.0873,-0.36193 -0.303,-0.9909 -0.47934,-1.39776 -0.41307,-0.953 -0.3995,-1.65473 0.0511,-2.64269 0.2096,-0.45952 0.42624,-0.85139 0.66184,-1.18325 0.12478,-0.15302 0.26078,-0.30498 0.40831,-0.45558 0.18163,-0.18541 0.35865,-0.34747 0.53453,-0.48767 0.69311,-0.46442 1.56595,-0.65152 2.76842,-0.65633 0.56702,0.0705 0.95479,0.0874 1.24818,-0.002 l 0.47148,-0.001 0.37772,-0.79586 c 0.49613,-1.04535 1.411,-4.7488 1.26625,-5.1258 -0.0623,-0.1621 -0.54595,-0.49857 -1.07484,-0.7477 -1.36914,-0.64489 -2.02279,-1.32657 -2.35999,-2.46136 -0.15621,-0.52576 -0.25268,-1.02112 -0.28986,-1.48517 -0.003,-0.0823 -0.004,-0.16577 -0.004,-0.25044 0,-0.25507 0.004,-0.48157 0.0142,-0.68637 0.10893,-0.97704 0.53981,-1.77949 1.28995,-2.39382 0.49023,-0.40146 0.94367,-0.93831 1.00763,-1.19305 0.008,-0.0331 0.0129,-0.0709 0.0142,-0.11309 0.0278,-0.14009 -0.01,-0.28226 -0.0803,-0.48997 -0.23043,-0.81423 -0.93771,-2.178089 -1.9024,-3.620434 -0.83344,-1.24617 -0.8477,-1.256278 -1.60836,-1.138402 -0.42208,0.06544 -1.02234,0.250677 -1.3339,0.411704 -0.68766,0.355381 -1.05551,0.356358 -2.03988,0.0054 -1.11399,-0.397119 -2.26965,-1.261731 -2.77771,-2.0782 -0.34601,-0.556082 -0.46951,-1.118774 -0.54656,-2.489902 l -0.0284,-0.505418 c 0.0372,-0.51695 0.0327,-0.774853 -0.0533,-0.949473 l -0.0178,-0.316609 -1.22465,-0.456818 c -0.67358,-0.251268 -1.9529,-0.604345 -2.84301,-0.784575 -0.59462,-0.120435 -1.01577,-0.197805 -1.33451,-0.200459 z m -2.62154,5.396742 c 0.44064,9.6e-5 0.88071,0.0212 1.31818,0.0638 4.38218,0.42689 8.29137,2.770108 10.73224,6.433009 1.26603,1.89985 2.09917,4.26824 2.32856,6.62014 0.36171,3.70878 -0.84942,7.64724 -3.22788,10.49724 -0.58142,0.69666 -1.82192,1.88758 -2.481,2.38186 -2.88265,2.16159 -6.57892,3.19129 -10.14311,2.8257 -2.77562,-0.28471 -5.6133,-1.46941 -7.71813,-3.22233 -0.26478,-0.22052 -0.60331,-0.53912 -0.94791,-0.88491 -0.15718,-0.15477 -0.3105,-0.3128 -0.45976,-0.47395 -0.39112,-0.41405 -0.7498,-0.82266 -0.9696,-1.1154 -2.14217,-2.85337 -3.17767,-6.50754 -2.83626,-10.00821 0.28057,-2.87657 1.44237,-5.69721 3.22783,-7.836612 0.58139,-0.696638 1.82195,-1.887584 2.48105,-2.381856 2.49614,-1.871746 5.61133,-2.899687 8.69579,-2.898481 z m -0.0638,1.267255 c -0.90523,0.0025 -1.8157,0.09833 -2.71613,0.292872 -1.08564,0.234597 -1.90454,0.516516 -2.91944,1.004987 -3.78179,1.82008 -6.40034,5.169395 -7.24354,9.265005 -0.49773,2.41758 -0.26396,5.13759 0.63703,7.41182 0.81247,2.05083 2.13556,3.89734 3.77568,5.26937 2.06043,1.72364 4.57778,2.78656 7.26612,3.06805 0.85827,0.0899 2.48963,0.0247 3.44566,-0.13765 5.35839,-0.91001 9.60533,-4.98498 10.70748,-10.27405 0.824,-3.95409 -0.15108,-7.92474 -2.72752,-11.10736 -2.47863,-3.061806 -6.30267,-4.803888 -10.22534,-4.793044 z m -2.59984,2.001311 h 6e-5 c 0,6.4e-5 0.001,0 0.002,0 0.0583,0.0014 1.29834,0.692525 2.90099,1.617016 1.57638,0.909304 3.13231,1.806767 3.45745,1.994327 0.32517,0.1876 0.93323,0.53913 1.35129,0.78122 0.77516,0.44885 1.13124,0.65468 2.71288,1.56804 l 0.89721,0.51814 0.0107,5.1124 0.0107,5.11247 0.84464,0.0211 0.84453,0.0211 v 0.52754 0.48829 h -20.76387 v -1.01596 l 0.82532,-0.0102 h 2.64685 v -7.69234 h -1.94523 l 0.0117,-0.64352 0.0117,-0.64363 3.06147,-0.0212 3.06147,-0.021 0.0107,-3.83855 c 0.006,-2.110527 0.0274,-3.853924 0.0476,-3.875239 z m 2.18714,7.796543 v 1.19454 h 2.9336 v -1.19454 z m 3.79507,0 v 1.19454 h 2.93347 v -1.19454 z m -6.97999,1.21155 v 7.74768 h 0.93923 v -0.0525 -3.81935 -3.81948 -0.0564 z m 3.18492,0.75287 v 1.19447 h 2.9336 v -1.19447 z m 3.79507,0 v 1.19447 h 2.93347 v -1.19447 z m -1.85177,2.60704 v 4.2055 h 2.7973 v -4.2055 z"
       id="path17973-2-3"
       inkscape:connector-curvature="0" />
  </g>
</svg>
