<?xml version="1.0" encoding="UTF-8" standalone="no"?>
<!-- Created with Inkscape (http://www.inkscape.org/) -->

<svg
   xmlns:dc="http://purl.org/dc/elements/1.1/"
   xmlns:cc="http://creativecommons.org/ns#"
   xmlns:rdf="http://www.w3.org/1999/02/22-rdf-syntax-ns#"
   xmlns:svg="http://www.w3.org/2000/svg"
   xmlns="http://www.w3.org/2000/svg"
   xmlns:sodipodi="http://sodipodi.sourceforge.net/DTD/sodipodi-0.dtd"
   xmlns:inkscape="http://www.inkscape.org/namespaces/inkscape"
   width="21.167mm"
   height="21.167mm"
   viewBox="0 0 21.167 21.167"
   version="1.1"
   id="svg9137"
   inkscape:version="0.92.4 (5da689c313, 2019-01-14)"
   sodipodi:docname="Juma Masjid.svg">
  <defs
     id="defs9131" />
  <sodipodi:namedview
     id="base"
     pagecolor="#ffffff"
     bordercolor="#666666"
     borderopacity="1.0"
     inkscape:pageopacity="0.0"
     inkscape:pageshadow="2"
     inkscape:zoom="3.959798"
     inkscape:cx="-40.054353"
     inkscape:cy="58.33293"
     inkscape:document-units="mm"
     inkscape:current-layer="layer1"
     showgrid="false"
     fit-margin-top="0"
     fit-margin-left="0"
     fit-margin-right="0"
     fit-margin-bottom="0"
     inkscape:window-width="1920"
     inkscape:window-height="1001"
     inkscape:window-x="-9"
     inkscape:window-y="-9"
     inkscape:window-maximized="1"
     showguides="false" />
  <metadata
     id="metadata9134">
    <rdf:RDF>
      <cc:Work
         rdf:about="">
        <dc:format>image/svg+xml</dc:format>
        <dc:type
           rdf:resource="http://purl.org/dc/dcmitype/StillImage" />
        <dc:title></dc:title>
      </cc:Work>
    </rdf:RDF>
  </metadata>
  <g
     inkscape:label="Layer 1"
     inkscape:groupmode="layer"
     id="layer1"
     transform="translate(-82.650795,-141.02149)">
    <g
       id="g15003"
       transform="matrix(0.750012,0,0,0.7500116,20.661707,40.54524)">
      <path
         d="m 110.87301,148.07737 c 0,7.79322 -6.31755,14.11112 -14.111105,14.11112 -7.79357,0 -14.11111,-6.3179 -14.11111,-14.11112 0,-7.79321 6.31754,-14.11111 14.11111,-14.11111 7.793555,0 14.111105,6.3179 14.111105,14.11111"
         style="fill:#a0892c;fill-opacity:1;fill-rule:nonzero;stroke:none;stroke-width:0.35277778"
         id="path68603-8-3-7"
         inkscape:connector-curvature="0" />
      <path
         sodipodi:nodetypes="csssccccccsssscsccscccccsccccccscscccccccccscsscscscccccccccsccscsccccccsccccccccsssscccsccssssssssscscc"
         inkscape:connector-curvature="0"
         id="path8458-2"
         d="m 91.86229,137.21785 c -0.38499,-0.001 -0.68701,0.18554 -0.82169,0.5079 -0.0794,0.1902 -0.0651,0.66833 0.0261,0.86951 0.0966,0.21284 0.16624,0.28863 0.35113,0.38184 0.082,0.0413 0.15403,0.0794 0.1601,0.0848 0.007,0.006 -0.0253,0.0793 -0.0697,0.16446 -0.10823,0.20756 -0.0884,0.51844 0.0418,0.65701 l 0.0887,0.0944 -0.0979,0.0823 c -0.28689,0.24102 -0.29046,0.79001 -0.007,1.05742 0.0695,0.0655 0.12619,0.12788 0.12619,0.1387 0,0.0111 -0.41079,0.4306 -0.91288,0.93283 -0.59315,0.59333 -0.91288,0.93967 -0.91288,0.98886 0,0.0417 0.0153,0.0757 0.0339,0.0757 0.0947,0 0.41216,0.30942 0.50156,0.48883 0.0973,0.19514 0.0979,0.20265 0.0979,1.05705 v 0.86048 l 0.3726,0.37362 c 0.20493,0.20552 0.3726,0.39087 0.3726,0.41191 0,0.0211 -0.26827,0.30868 -0.59616,0.6391 l -0.59617,0.60075 v 1.13638 1.1363 l 0.16148,0.17823 c 0.0889,0.098 0.35702,0.37104 0.59596,0.60672 0.23893,0.23567 0.43456,0.45336 0.43467,0.48373 1.2e-4,0.0303 -0.16325,0.21935 -0.36306,0.41991 l -0.36329,0.3646 -0.01,3.26437 c -0.007,2.10179 0.003,3.28016 0.0267,3.30862 l 13.1518,-0.0315 c 0.0321,-0.0388 0.0403,-0.5533 0.0315,-1.98413 -0.0116,-1.87836 -0.0143,-1.94012 -0.0967,-2.22996 -0.38731,-1.36274 -1.70274,-2.59703 -3.8163,-3.58101 -0.59381,-0.27646 -0.584,-0.26754 -0.40855,-0.37217 0.32514,-0.19389 0.35812,-0.73321 0.0629,-1.02845 l -0.13231,-0.1323 0.0835,-0.14147 c 0.11502,-0.19495 0.11744,-0.49116 0.006,-0.64304 l -0.082,-0.11098 0.17473,-0.0899 c 0.23215,-0.11947 0.37284,-0.34694 0.41984,-0.67884 0.024,-0.16942 0.0228,-0.27331 -0.004,-0.32312 -0.0534,-0.0998 -0.11011,-0.0551 -0.11011,0.0868 0,0.17517 -0.13914,0.4307 -0.27392,0.50303 -0.17127,0.0919 -0.56508,0.087 -0.72818,-0.009 -0.22618,-0.13322 -0.28339,-0.24841 -0.28339,-0.57092 0,-0.33281 0.0546,-0.46827 0.23841,-0.59202 0.0923,-0.0621 0.1801,-0.0853 0.32384,-0.0853 0.10845,0 0.20703,-0.016 0.21905,-0.0353 0.0395,-0.064 -0.12025,-0.11367 -0.36575,-0.11367 -0.19959,0 -0.28195,0.021 -0.47566,0.12131 -0.2008,0.10391 -0.2497,0.15055 -0.34233,0.32603 -0.10092,0.19108 -0.1069,0.22618 -0.0907,0.52594 0.0142,0.26143 0.0371,0.35731 0.12299,0.5151 0.11178,0.20538 0.23601,0.31637 0.40033,0.35762 0.12265,0.0308 0.12285,0.0353 0.007,0.1729 -0.14899,0.17709 -0.11055,0.58497 0.0692,0.73408 0.0568,0.0472 0.0511,0.0624 -0.0675,0.17757 -0.24236,0.23538 -0.26711,0.68175 -0.0514,0.92737 0.0606,0.069 0.14286,0.13583 0.18288,0.14852 0.04,0.0127 0.0628,0.0392 0.0506,0.0588 -0.0122,0.0197 -0.25813,0.15405 -0.54654,0.29853 -1.28746,0.64495 -2.09929,1.20399 -2.7885,1.92022 -0.55464,0.57639 -0.85732,1.0926 -1.02255,1.74397 -0.0905,0.35672 -0.0926,0.39721 -0.0926,1.75765 v 1.39247 h -0.4285 -0.42849 v -2.7813 -2.78129 l -0.37261,-0.37864 c -0.20493,-0.20827 -0.37261,-0.39625 -0.37261,-0.4178 0,-0.0216 0.26828,-0.29701 0.59618,-0.61211 l 0.59617,-0.57296 6.1e-4,-1.17428 6.1e-4,-1.1743 -0.59762,-0.57753 c -0.32871,-0.31764 -0.59726,-0.59329 -0.59675,-0.61261 6.1e-4,-0.0193 0.16861,-0.20554 0.37354,-0.41381 l 0.37262,-0.37864 v -0.85772 c 0,-0.92622 0.0208,-1.05754 0.20674,-1.30128 0.0514,-0.0675 0.1685,-0.17422 0.2601,-0.23724 0.0916,-0.063 0.16658,-0.14009 0.16658,-0.17125 0,-0.0311 -0.40131,-0.47044 -0.89185,-0.97626 l -0.89191,-0.91973 0.12714,-0.11177 c 0.15849,-0.13934 0.20348,-0.26013 0.20348,-0.5464 0,-0.26067 -0.079,-0.45647 -0.21977,-0.54427 -0.0533,-0.0332 -0.10414,-0.0657 -0.11288,-0.0721 -0.009,-0.007 0.0309,-0.0605 0.0882,-0.12031 0.0976,-0.1018 0.10314,-0.1251 0.0894,-0.36946 -0.0111,-0.18787 -0.0343,-0.28252 -0.0849,-0.33833 -0.081,-0.0895 -0.0859,-0.0818 0.11418,-0.1826 0.29449,-0.14845 0.44036,-0.41667 0.4173,-0.76718 -0.0146,-0.22281 -0.0864,-0.26486 -0.11842,-0.0695 -0.0554,0.33791 -0.26075,0.49991 -0.63625,0.50207 -0.25437,0.001 -0.3953,-0.0534 -0.5429,-0.21133 -0.0849,-0.0908 -0.0932,-0.12913 -0.0932,-0.42959 0,-0.31378 0.006,-0.33547 0.10879,-0.44349 0.0924,-0.0965 0.24836,-0.1741 0.50498,-0.25143 0.10657,-0.0321 -0.0451,-0.0859 -0.24387,-0.0864 z"
         style="fill:#000000;fill-opacity:0.09803922;stroke-width:0.03726052" />
      <path
         sodipodi:nodetypes="csssccccccsssscsccscccccsccccccscscccccccccscsscscscccccccccsccscsccccccsccccccccsssscccsccssssssssscscc"
         inkscape:connector-curvature="0"
         id="path8458"
         d="m 91.86229,137.57058 c -0.38499,-0.001 -0.68701,0.18554 -0.82169,0.5079 -0.0794,0.1902 -0.0651,0.66833 0.0261,0.86951 0.0966,0.21284 0.16624,0.28863 0.35113,0.38184 0.082,0.0413 0.15403,0.0794 0.1601,0.0848 0.007,0.006 -0.0253,0.0793 -0.0697,0.16446 -0.10823,0.20756 -0.0884,0.51844 0.0418,0.65701 l 0.0887,0.0944 -0.0979,0.0823 c -0.28689,0.24102 -0.29046,0.79001 -0.007,1.05742 0.0695,0.0655 0.12619,0.12788 0.12619,0.1387 0,0.0111 -0.41079,0.4306 -0.91288,0.93283 -0.59315,0.59333 -0.91288,0.93967 -0.91288,0.98886 0,0.0417 0.0153,0.0757 0.0339,0.0757 0.0947,0 0.41216,0.30942 0.50156,0.48883 0.0973,0.19514 0.0979,0.20265 0.0979,1.05705 v 0.86048 l 0.3726,0.37362 c 0.20493,0.20552 0.3726,0.39087 0.3726,0.41191 0,0.0211 -0.26827,0.30868 -0.59616,0.6391 l -0.59617,0.60075 v 1.13638 1.1363 l 0.16148,0.17823 c 0.0889,0.098 0.35702,0.37104 0.59596,0.60672 0.23893,0.23567 0.43456,0.45336 0.43467,0.48373 1.2e-4,0.0303 -0.16325,0.21935 -0.36306,0.41991 l -0.36329,0.3646 -0.01,3.26437 c -0.007,2.10179 0.003,3.28016 0.0267,3.30862 l 13.1518,-0.0315 c 0.0321,-0.0388 0.0403,-0.5533 0.0315,-1.98413 -0.0116,-1.87836 -0.0143,-1.94012 -0.0967,-2.22996 -0.38731,-1.36274 -1.70274,-2.59703 -3.8163,-3.58101 -0.59381,-0.27646 -0.584,-0.26754 -0.40855,-0.37217 0.32514,-0.19389 0.35812,-0.73321 0.0629,-1.02845 l -0.13231,-0.1323 0.0835,-0.14147 c 0.11502,-0.19495 0.11744,-0.49116 0.006,-0.64304 l -0.082,-0.11098 0.17473,-0.0899 c 0.23215,-0.11947 0.37284,-0.34694 0.41984,-0.67884 0.024,-0.16942 0.0228,-0.27331 -0.004,-0.32312 -0.0534,-0.0998 -0.11011,-0.0551 -0.11011,0.0868 0,0.17517 -0.13914,0.4307 -0.27392,0.50303 -0.17127,0.0919 -0.56508,0.087 -0.72818,-0.009 -0.22618,-0.13322 -0.28339,-0.24841 -0.28339,-0.57092 0,-0.33281 0.0546,-0.46827 0.23841,-0.59202 0.0923,-0.0621 0.1801,-0.0853 0.32384,-0.0853 0.10845,0 0.20703,-0.016 0.21905,-0.0353 0.0395,-0.064 -0.12025,-0.11367 -0.36575,-0.11367 -0.19959,0 -0.28195,0.021 -0.47566,0.12131 -0.2008,0.10391 -0.2497,0.15055 -0.34233,0.32603 -0.10092,0.19108 -0.1069,0.22618 -0.0907,0.52594 0.0142,0.26143 0.0371,0.35731 0.12299,0.5151 0.11178,0.20538 0.23601,0.31637 0.40033,0.35762 0.12265,0.0308 0.12285,0.0353 0.007,0.1729 -0.14899,0.17709 -0.11055,0.58497 0.0692,0.73408 0.0568,0.0472 0.0511,0.0624 -0.0675,0.17757 -0.24236,0.23538 -0.26711,0.68175 -0.0514,0.92737 0.0606,0.069 0.14286,0.13583 0.18288,0.14852 0.04,0.0127 0.0628,0.0392 0.0506,0.0588 -0.0122,0.0197 -0.25813,0.15405 -0.54654,0.29853 -1.28746,0.64495 -2.09929,1.20399 -2.7885,1.92022 -0.55464,0.57639 -0.85732,1.0926 -1.02255,1.74397 -0.0905,0.35672 -0.0926,0.39721 -0.0926,1.75765 v 1.39247 h -0.4285 -0.42849 v -2.7813 -2.78129 l -0.37261,-0.37864 c -0.20493,-0.20827 -0.37261,-0.39625 -0.37261,-0.4178 0,-0.0216 0.26828,-0.29701 0.59618,-0.61211 l 0.59617,-0.57296 6.2e-4,-1.17428 6.2e-4,-1.1743 -0.59762,-0.57753 c -0.32871,-0.31764 -0.59726,-0.59329 -0.59675,-0.61261 6.2e-4,-0.0193 0.16861,-0.20554 0.37354,-0.41381 l 0.37262,-0.37864 v -0.85772 c 0,-0.92622 0.0208,-1.05754 0.20674,-1.30128 0.0514,-0.0675 0.1685,-0.17422 0.2601,-0.23724 0.0916,-0.063 0.16658,-0.14009 0.16658,-0.17125 0,-0.0311 -0.40131,-0.47044 -0.89185,-0.97626 l -0.89193,-0.91973 0.12714,-0.11177 c 0.15849,-0.13934 0.20348,-0.26013 0.20348,-0.5464 0,-0.26067 -0.079,-0.45647 -0.21977,-0.54427 -0.0533,-0.0332 -0.10414,-0.0657 -0.11288,-0.0721 -0.009,-0.007 0.0309,-0.0605 0.0882,-0.12031 0.0976,-0.1018 0.10314,-0.1251 0.0894,-0.36946 -0.0111,-0.18787 -0.0343,-0.28252 -0.0849,-0.33833 -0.081,-0.0895 -0.0859,-0.0818 0.11418,-0.1826 0.29449,-0.14845 0.44036,-0.41667 0.4173,-0.76718 -0.0146,-0.22281 -0.0864,-0.26486 -0.11842,-0.0695 -0.0554,0.33791 -0.26075,0.49991 -0.63625,0.50207 -0.25437,10e-4 -0.3953,-0.0534 -0.5429,-0.21133 -0.0849,-0.0908 -0.0932,-0.12913 -0.0932,-0.42959 0,-0.31378 0.006,-0.33547 0.10879,-0.44349 0.0924,-0.0965 0.24836,-0.1741 0.50498,-0.25143 0.10657,-0.0321 -0.0451,-0.0859 -0.24387,-0.0864 z"
         style="fill:#ffffff;fill-opacity:1;stroke-width:0.03726052" />
    </g>
  </g>
</svg>
