<?xml version="1.0" encoding="UTF-8" standalone="no"?>
<!-- Created with Inkscape (http://www.inkscape.org/) -->

<svg
   xmlns:dc="http://purl.org/dc/elements/1.1/"
   xmlns:cc="http://creativecommons.org/ns#"
   xmlns:rdf="http://www.w3.org/1999/02/22-rdf-syntax-ns#"
   xmlns:svg="http://www.w3.org/2000/svg"
   xmlns="http://www.w3.org/2000/svg"
   xmlns:xlink="http://www.w3.org/1999/xlink"
   xmlns:sodipodi="http://sodipodi.sourceforge.net/DTD/sodipodi-0.dtd"
   xmlns:inkscape="http://www.inkscape.org/namespaces/inkscape"
   width="21.166666mm"
   height="21.166666mm"
   viewBox="0 0 21.166666 21.166666"
   version="1.1"
   id="svg8"
   inkscape:version="0.92.4 (5da689c313, 2019-01-14)"
   sodipodi:docname="freelance.svg">
  <defs
     id="defs2">
    <linearGradient
       inkscape:collect="always"
       id="linearGradient4172">
      <stop
         id="stop4170"
         offset="0"
         style="stop-color:#407ec9;stop-opacity:1" />
      <stop
         id="stop4168"
         offset="1"
         style="stop-color:#2cd5c4;stop-opacity:1;" />
    </linearGradient>
    <linearGradient
       inkscape:collect="always"
       xlink:href="#linearGradient4172"
       id="linearGradient4758"
       x1="-429.5871"
       y1="206.00388"
       x2="-366.7774"
       y2="206.00388"
       gradientUnits="userSpaceOnUse"
       gradientTransform="matrix(0.23245206,0,0,0.23245206,189.043,93.028836)" />
  </defs>
  <sodipodi:namedview
     id="base"
     pagecolor="#ffffff"
     bordercolor="#666666"
     borderopacity="1.0"
     inkscape:pageopacity="0.0"
     inkscape:pageshadow="2"
     inkscape:zoom="2.8"
     inkscape:cx="91.237796"
     inkscape:cy="14.108276"
     inkscape:document-units="mm"
     inkscape:current-layer="layer1"
     showgrid="false"
     fit-margin-top="0"
     fit-margin-left="0"
     fit-margin-right="0"
     fit-margin-bottom="0"
     inkscape:window-width="1920"
     inkscape:window-height="1121"
     inkscape:window-x="-9"
     inkscape:window-y="-9"
     inkscape:window-maximized="1" />
  <metadata
     id="metadata5">
    <rdf:RDF>
      <cc:Work
         rdf:about="">
        <dc:format>image/svg+xml</dc:format>
        <dc:type
           rdf:resource="http://purl.org/dc/dcmitype/StillImage" />
        <dc:title></dc:title>
      </cc:Work>
    </rdf:RDF>
  </metadata>
  <g
     inkscape:label="Layer 1"
     inkscape:groupmode="layer"
     id="layer1"
     transform="translate(-85.900966,-130.33126)">
    <circle
       id="Ellipse_130-7-1"
       data-name="Ellipse 130"
       cx="96.484299"
       cy="140.9146"
       r="10.583333"
       style="fill:#e2e3db;fill-opacity:1;stroke-width:0.26458332" />
    <path
       style="fill:url(#linearGradient4758);fill-opacity:1;stroke-width:0.06150293"
       d="m 98.321351,134.24157 c -0.006,0 -0.0105,9.3e-4 -0.0165,0.001 -0.003,4.5e-4 -0.007,4.5e-4 -0.0105,0.001 -4.7e-4,9e-5 -9.3e-4,2.3e-4 -0.001,4.7e-4 -0.0178,0.002 -0.0378,0.009 -0.0603,0.0203 -0.004,7e-4 -0.006,0.001 -0.009,0.002 -0.001,4.6e-4 -0.003,4.6e-4 -0.005,9.3e-4 -1.8e-4,5e-5 -4.7e-4,6e-5 -7e-4,1.2e-4 -2e-4,6e-5 -9.3e-4,7e-4 -0.001,9.3e-4 -0.0133,0.004 -0.0256,0.008 -0.0357,0.0143 -0.003,0.002 -0.0141,0.0121 -0.0211,0.0182 -0.006,0.004 -0.0118,0.006 -0.0169,0.0105 -0.009,0.007 -0.033,0.0285 -0.063,0.0577 -0.0294,0.0223 -0.0583,0.0464 -0.0855,0.0724 -0.012,0.0117 -0.0541,0.0561 -0.0874,0.0911 -0.22613,0.21347 -0.5369,0.55572 -1.0017,1.06188 -0.59356,0.64636 -1.02909,1.11663 -1.15475,1.24857 -0.0208,0.0196 -0.0409,0.0386 -0.0551,0.051 -0.0312,0.0189 -0.058,0.0169 -0.0919,-0.0131 -0.038,-0.055 -0.0928,-0.13706 -0.1552,-0.23327 -0.0461,-0.0711 -0.10179,-0.1455 -0.16361,-0.22091 -0.0789,-0.10063 -0.166,-0.19801 -0.25971,-0.29166 -0.0809,-0.0848 -0.16572,-0.16484 -0.25405,-0.24 -0.0128,-0.0118 -0.0259,-0.0247 -0.0386,-0.0362 -0.0961,-0.0863 -0.18816,-0.16116 -0.26823,-0.21634 -0.006,-0.004 -0.0117,-0.007 -0.0166,-0.0105 -0.43081,-0.29314 -0.91581,-0.46743 -1.41469,-0.52818 -0.40418,-0.0714 -0.52457,-0.067 -0.98236,0.0141 -0.16163,0.0287 -0.31402,0.0652 -0.45983,0.10949 -0.30204,0.0901 -0.57408,0.21694 -0.83378,0.39053 -0.006,0.004 -0.0119,0.008 -0.018,0.0124 -0.0163,0.0105 -0.0325,0.0224 -0.0487,0.0338 -0.006,0.005 -0.0125,0.008 -0.0187,0.0128 -0.0205,0.0146 -0.0408,0.0296 -0.0611,0.0447 -0.0216,0.0159 -0.0434,0.0314 -0.0647,0.0478 -0.0461,0.0349 -0.0912,0.0712 -0.13562,0.10867 -0.19985,0.15386 -0.36192,0.30785 -0.44998,0.4351 -0.007,0.008 -0.012,0.0146 -0.0184,0.022 -0.006,0.007 -0.0105,0.0132 -0.0162,0.0196 -0.008,0.0105 -0.0165,0.021 -0.023,0.0302 -0.0197,0.0275 -0.0323,0.0511 -0.0358,0.0703 -6.9e-4,0.004 -0.001,0.006 -0.001,0.009 -1.3e-4,0.002 -2.3e-4,0.004 -2.3e-4,0.006 -2.2e-4,0.008 10e-4,0.0169 0.005,0.0248 -0.001,0.014 -1.8e-4,0.0269 0.005,0.0386 0.0613,0.15818 0.16505,0.1299 0.35399,-0.0953 0.0195,-0.0194 0.0423,-0.0422 0.0652,-0.0654 0.0275,-0.0272 0.0553,-0.0546 0.0882,-0.0875 0.0396,-0.0396 0.0805,-0.0778 0.12181,-0.11497 0.0272,-0.0241 0.0548,-0.0474 0.0826,-0.0705 0.0147,-0.0124 0.0293,-0.0248 0.0441,-0.0368 0.0867,-0.0696 0.17636,-0.13349 0.2681,-0.19232 0.0167,-0.0105 0.0332,-0.0211 0.0501,-0.0314 0.0152,-0.009 0.0306,-0.018 0.0458,-0.0271 0.0542,-0.0317 0.10926,-0.0622 0.16517,-0.0911 0.0105,-0.006 0.0212,-0.0117 0.0319,-0.0164 0.0249,-0.0126 0.05,-0.0246 0.0752,-0.0365 0.0227,-0.0105 0.0457,-0.0204 0.0686,-0.0304 0.72082,-0.30931 1.51405,-0.33305 2.22274,-0.10436 0.22152,0.077 0.43707,0.17888 0.6387,0.3003 0.0253,0.0154 0.0501,0.0315 0.075,0.0475 0.0211,0.0134 0.0422,0.0266 0.063,0.0405 0.055,0.0372 0.10856,0.0763 0.1612,0.11637 0.17533,0.14263 0.34668,0.30826 0.49299,0.47677 0.0236,0.0295 0.0468,0.0593 0.0693,0.09 0.007,0.0105 0.0145,0.0198 0.0216,0.0298 0.0229,0.0318 0.045,0.0643 0.0667,0.0971 0.0139,0.0211 0.0272,0.0427 0.0406,0.0643 0.0195,0.0312 0.0392,0.0623 0.0576,0.0946 0.0414,0.0724 0.0726,0.12867 0.0961,0.17502 0.003,0.007 0.008,0.0167 0.0105,0.0227 0.002,0.005 0.003,0.009 0.006,0.0135 0.0177,0.0415 0.0286,0.0737 0.0326,0.10005 2.4e-4,0.002 4.7e-4,0.005 7e-4,0.007 9.4e-4,0.008 7e-4,0.0151 4.7e-4,0.0222 -0.002,0.0236 -0.0127,0.0441 -0.0292,0.066 -0.008,0.009 -0.0176,0.0184 -0.0282,0.029 v 1.3e-4 l -0.002,0.002 -1.2e-4,1.2e-4 c -2.3e-4,2.3e-4 -4.6e-4,4.6e-4 -9.3e-4,9.3e-4 l -1.2e-4,1.2e-4 c -4.6e-4,4.6e-4 -7e-4,7e-4 -9.3e-4,9.3e-4 l -1.2e-4,1.2e-4 -0.002,0.002 c -0.003,0.004 -0.006,0.005 -0.008,0.008 0,0 -1.3e-4,1.2e-4 -1.3e-4,1.2e-4 -0.0117,0.0117 -0.0226,0.0216 -0.0336,0.0314 -0.0399,0.0204 -0.075,-0.002 -0.14126,-0.0993 -0.0301,-0.0463 -0.0661,-0.10623 -0.11416,-0.18764 -0.0275,-0.0466 -0.0568,-0.0919 -0.0866,-0.13658 -0.0189,-0.0282 -0.038,-0.0563 -0.0578,-0.0837 -0.0138,-0.0194 -0.0276,-0.0385 -0.0419,-0.0574 -0.0176,-0.024 -0.0355,-0.0473 -0.0534,-0.0704 -0.001,-0.001 -0.002,-0.002 -0.003,-0.005 -4e-5,-5e-5 -1e-4,-8e-5 -1.3e-4,-1.2e-4 -0.11855,-0.15169 -0.24608,-0.28272 -0.39052,-0.40097 -0.24418,-0.20645 -0.51885,-0.36888 -0.81034,-0.48277 -0.21751,-0.10366 -0.33738,-0.14076 -0.55113,-0.15364 -0.31228,-0.0536 -0.6328,-0.0541 -0.94693,0.004 -0.22984,0.0184 -0.35039,0.0661 -0.61563,0.19171 -0.0589,0.0279 -0.11287,0.0546 -0.16373,0.0805 -0.16426,0.0753 -0.30166,0.15659 -0.38728,0.23604 -10e-4,0.001 -0.003,0.002 -0.005,0.004 -0.002,0.001 -0.003,0.004 -0.005,0.005 -2.2e-4,1.8e-4 -4.6e-4,2.2e-4 -6.9e-4,4.6e-4 -0.002,0.001 -0.003,0.004 -0.006,0.005 -0.026,0.0216 -0.0428,0.0405 -0.0531,0.0569 -1e-4,1.7e-4 -2.3e-4,2.4e-4 -4.7e-4,4.7e-4 -0.001,0.001 -0.002,0.004 -0.003,0.005 -0.003,0.005 -0.006,0.0105 -0.009,0.0148 -0.001,0.002 -0.002,0.005 -0.003,0.007 -2e-5,5e-5 -9e-5,7e-5 -1.3e-4,1.2e-4 -9.2e-4,0.002 -10e-4,0.003 -0.002,0.006 -4e-5,8e-5 -8e-5,1.5e-4 -1.2e-4,2.3e-4 -7e-4,0.001 -0.002,0.002 -0.002,0.004 0,0 0,1.3e-4 0,1.3e-4 -0.002,0.005 -0.003,0.0105 -0.005,0.0147 0,0 0,1.1e-4 0,1.1e-4 -9e-5,4.7e-4 -5e-5,7e-4 -1.3e-4,0.001 -1.6e-4,9.3e-4 0,0.002 -1.2e-4,0.002 -0.001,0.007 -0.002,0.0124 1.2e-4,0.0168 0.001,0.0136 0.005,0.0243 0.0124,0.0314 0.002,0.002 0.006,0.005 0.0105,0.007 0.0124,0.006 0.0309,0.005 0.0531,2.3e-4 10e-4,-2.3e-4 0.002,-2.3e-4 0.003,-7e-4 0.004,-7e-4 0.007,-0.001 0.0105,-0.002 5e-5,-1e-5 7e-5,1e-5 1.2e-4,0 0.001,-4.7e-4 0.002,-9.4e-4 0.003,-10e-4 0.0105,-0.003 0.0222,-0.006 0.0339,-0.0117 0.002,-9.2e-4 0.003,-0.002 0.006,-0.004 0.002,-0.001 0.005,-0.001 0.007,-0.002 0.0373,-0.0166 0.0819,-0.0408 0.13321,-0.0729 0.0258,-0.0161 0.0532,-0.034 0.0823,-0.054 0.009,-0.006 0.0206,-0.0132 0.0314,-0.0198 2.3e-4,-1.2e-4 4.6e-4,-2.3e-4 7e-4,-4.6e-4 0.0613,-0.0331 0.12946,-0.0684 0.20024,-0.10448 4.7e-4,-2.3e-4 9.3e-4,-4.6e-4 10e-4,-7e-4 0.12298,-0.0573 0.26264,-0.11357 0.38439,-0.15135 0.038,-0.0118 0.0761,-0.0227 0.11439,-0.0328 1.6e-4,-5e-5 2.3e-4,-9e-5 4.6e-4,-1.3e-4 0.0381,-0.0105 0.0763,-0.019 0.11451,-0.0272 0.012,-0.002 0.024,-0.005 0.036,-0.007 0.0124,-0.002 0.0248,-0.005 0.0373,-0.007 0.13307,-0.0105 0.28655,-0.0139 0.47509,-0.0146 0.13389,-4.7e-4 0.2383,-2.3e-4 0.3313,10e-4 4.7e-4,1e-5 9.2e-4,-1e-5 10e-4,0 0.002,2e-5 0.005,8e-5 0.006,1.1e-4 0.0125,4.7e-4 0.0281,4.7e-4 0.04,9.4e-4 4.7e-4,1e-5 9.2e-4,-1e-5 0.001,0 0.0117,4.6e-4 0.0206,10e-4 0.0318,0.002 0.13921,0.0216 0.27639,0.0535 0.40999,0.0962 0.0302,0.009 0.0604,0.02 0.0903,0.031 0.003,0.001 0.006,0.002 0.009,0.004 0.0117,0.005 0.0225,0.009 0.0338,0.0132 0.19682,0.0763 0.38449,0.17558 0.55821,0.29695 0.002,0.001 0.005,0.004 0.007,0.005 0.0244,0.0171 0.0483,0.0351 0.0721,0.0531 0.006,0.005 0.0117,0.008 0.0168,0.0124 7e-5,6e-5 1.8e-4,7e-5 2.4e-4,1.2e-4 0.002,10e-4 0.003,0.003 0.006,0.005 0.0445,0.0345 0.0878,0.0708 0.13021,0.10821 0.17537,0.1608 0.33711,0.34614 0.45947,0.53094 0.002,0.004 0.006,0.008 0.008,0.0119 0.0117,0.0174 0.0219,0.0346 0.0325,0.0519 0.005,0.008 0.009,0.0166 0.0148,0.0247 0.0105,0.0189 0.022,0.0377 0.0325,0.0569 0.004,0.007 0.008,0.0132 0.0117,0.0199 2.3e-4,4.7e-4 4.6e-4,7e-4 7e-4,0.001 0.0427,0.08 0.0733,0.13892 0.0983,0.18966 0.005,0.009 0.012,0.0243 0.0161,0.0331 0.003,0.007 0.006,0.0127 0.008,0.0192 0.0152,0.11834 -0.0445,0.24198 -0.21838,0.45694 -0.15121,0.17 -0.43371,0.48157 -0.72687,0.80026 -0.34155,0.37129 -0.73865,0.80314 -0.88243,0.95966 -0.14254,0.15521 -0.22692,0.29038 -0.25477,0.4101 -7e-4,0.002 -0.002,0.006 -0.002,0.009 -9.4e-4,0.002 -0.005,0.008 -0.005,0.009 0,0.002 9.3e-4,0.006 0.001,0.009 -0.002,0.0146 -0.003,0.0288 -0.005,0.0429 -0.004,0.0363 -0.001,0.0704 0.007,0.10272 0.002,0.008 0.003,0.0168 0.006,0.0247 0.001,0.004 0.003,0.007 0.005,0.0105 0.0253,0.0805 0.0866,0.14674 0.18175,0.19807 0.002,0.001 0.005,0.002 0.006,0.004 0.0852,0.0562 0.19166,0.0984 0.25442,0.0984 0.0129,0 0.0254,4.6e-4 0.0373,0.001 0.005,2.3e-4 0.008,10e-4 0.0121,10e-4 0.005,0.001 0.009,0.004 0.0143,0.006 0.0733,0.0357 0.13174,0.085 0.17562,0.14884 0.003,0.006 0.007,0.0128 0.009,0.0192 0.0217,0.0711 0.0314,0.16681 0.0317,0.29166 -2.2e-4,0.27435 -0.0192,0.32039 -0.15628,0.38283 -0.21623,0.0985 -0.87911,0.14282 -1.32518,0.10202 -0.15018,-0.0203 -0.29927,-0.0496 -0.44375,-0.0875 -0.40608,-0.1171 -0.77218,-0.31431 -1.08518,-0.57022 -0.14207,-0.12337 -0.2839,-0.26333 -0.41143,-0.40517 -0.12509,-0.14782 -0.23703,-0.30613 -0.3331,-0.4734 -0.0232,-0.0408 -0.0457,-0.0822 -0.0672,-0.12397 -0.001,-0.002 -0.002,-0.004 -0.003,-0.006 -0.13913,-0.27303 -0.23835,-0.56591 -0.29371,-0.86778 -0.0519,-0.39997 -0.0413,-0.8644 0.0316,-1.2291 0.0241,-0.0992 0.0529,-0.19801 0.0883,-0.29585 0.0223,-0.0616 0.042,-0.11744 0.0589,-0.16794 1e-5,-4e-5 -1e-5,-8e-5 0,-1.1e-4 0.0174,-0.0519 0.0317,-0.0978 0.0436,-0.13911 7e-5,-2.1e-4 1.7e-4,-4.7e-4 2.3e-4,-7e-4 0.0218,-0.0651 0.0379,-0.12135 0.045,-0.16529 0.0125,-0.0569 0.0162,-0.0972 0.008,-0.11053 -0.002,-0.003 -0.005,-0.007 -0.007,-0.0105 -2.1e-4,-4.7e-4 -1.1e-4,-0.002 -4.7e-4,-0.002 -0.0261,-0.0422 -0.0583,-0.0581 -0.0937,-0.0507 -0.005,1.7e-4 -0.008,2.3e-4 -0.0124,9.3e-4 -0.001,-1e-5 -0.002,-2.3e-4 -0.003,-2.3e-4 -7e-4,0 -0.001,4.6e-4 -0.002,7e-4 -0.003,-1.6e-4 -0.007,-7e-4 -0.0117,-7e-4 -0.0322,0 -0.068,0.0311 -0.10681,0.088 -0.005,0.006 -0.008,0.0118 -0.0126,0.0177 -7e-4,10e-4 -10e-4,0.002 -0.002,0.003 -0.0238,0.0338 -0.0466,0.0735 -0.0668,0.12145 -0.0146,0.0349 -0.0283,0.07 -0.0419,0.10494 -2.2e-4,9.3e-4 -6.9e-4,0.001 -9.2e-4,0.002 -8e-5,1.9e-4 -1.6e-4,4.5e-4 -2.3e-4,6.9e-4 -0.0478,0.10926 -0.0939,0.24118 -0.13406,0.38763 -0.005,0.0147 -0.009,0.0273 -0.0134,0.0425 -0.0218,0.0714 -0.0394,0.15698 -0.0536,0.25069 -0.008,0.0428 -0.0174,0.0851 -0.0244,0.1289 -0.0277,0.17182 -0.0402,0.34519 -0.0385,0.51832 -10e-4,0.51856 0.12792,1.01376 0.35256,1.45818 0.003,0.008 0.008,0.0153 0.0117,0.0229 0.0167,0.0323 0.0332,0.0647 0.051,0.0964 0.0134,0.0246 0.0274,0.0487 0.0413,0.0729 0.005,0.009 0.0105,0.0175 0.0152,0.0262 0.005,0.007 0.008,0.0147 0.0131,0.022 0.0117,0.019 0.0227,0.0381 0.0346,0.0569 0.0212,0.0342 0.0431,0.0679 0.0655,0.10109 0.002,0.003 0.003,0.006 0.006,0.009 0.0384,0.0566 0.0785,0.11194 0.12036,0.16602 0.1388,0.18236 0.29562,0.35095 0.46836,0.50199 0.0147,0.0128 0.0293,0.0258 0.0442,0.0384 0.13069,0.11439 0.26548,0.21454 0.40097,0.29395 0.0538,0.0315 0.11159,0.0623 0.17154,0.0923 0.001,7e-4 0.002,0.001 0.004,0.002 0.006,0.004 0.0118,0.006 0.0177,0.009 4.7e-4,2.3e-4 9.3e-4,4.6e-4 0.001,9.3e-4 0.0209,0.0105 0.0419,0.0212 0.063,0.0316 0.0399,0.0198 0.0796,0.0388 0.1194,0.057 0.005,0.002 0.0105,0.005 0.0152,0.007 0.0263,0.0119 0.0526,0.0239 0.0788,0.0351 0.0306,0.0133 0.0613,0.0257 0.0922,0.038 0.0143,0.006 0.0286,0.0117 0.0429,0.0166 0.12223,0.047 0.24724,0.0867 0.37465,0.11916 0.005,0.001 0.009,0.002 0.0146,0.004 0.34977,0.0872 0.71622,0.11893 1.0882,0.0816 0.18255,-0.0157 0.36564,-0.0466 0.54775,-0.0941 0.0507,-0.009 0.13277,-0.0241 0.15257,-0.0275 0.0156,2.3e-4 0.0283,0.002 0.0377,0.006 0.0197,0.0631 0.0332,0.42797 0.0422,1.00351 0.002,0.50635 0.005,1.16271 0.006,1.88617 l 0.006,2.72655 v 2.3e-4 l 0.14511,0.11772 v -1.2e-4 c 0.004,0.004 0.008,0.006 0.0119,0.008 4e-5,3e-5 7e-5,9e-5 1.1e-4,1.1e-4 7e-4,4.7e-4 0.001,9.4e-4 0.001,0.001 10e-4,10e-4 0.003,0.002 0.005,0.004 0.003,0.002 0.007,0.005 0.0117,0.007 10e-5,5e-5 1.5e-4,1.9e-4 2.4e-4,2.4e-4 0.008,0.006 0.0183,0.0105 0.0294,0.0153 7e-4,2.3e-4 10e-4,7e-4 0.002,9.2e-4 5e-5,3e-5 1e-4,-1e-5 1.3e-4,0 2.3e-4,1.5e-4 9.3e-4,2.4e-4 0.001,4.7e-4 0.008,0.004 0.0189,0.007 0.0301,0.0105 0.005,0.004 0.008,0.004 0.0117,0.004 0.001,2.3e-4 0.002,7e-4 0.004,0.001 9e-5,2e-5 1.5e-4,-3e-5 2.3e-4,0 0.002,7e-4 0.006,10e-4 0.008,10e-4 0.005,0.001 0.009,0.002 0.0153,0.004 0.006,0.001 0.0105,0.002 0.0174,0.005 0.004,6.8e-4 0.006,0.001 0.0105,0.002 0,0 1.3e-4,0 1.3e-4,0 0.006,9.3e-4 0.0136,0.002 0.0197,0.002 0.005,0.002 0.0105,0.006 0.0149,0.007 0.005,0.002 0.0427,0.003 0.0808,0.005 1.9e-4,1e-5 4.7e-4,-2e-5 7e-4,0 0.001,5e-5 0.001,1.8e-4 0.002,2.3e-4 0.0473,0.005 0.10506,0.008 0.17395,0.0121 0.017,9.3e-4 0.0304,0.002 0.049,0.002 2.3e-4,1e-5 4.6e-4,-2e-5 9.3e-4,0 0.056,0.002 0.11886,0.005 0.18992,0.007 4.6e-4,1e-5 6.9e-4,-1e-5 10e-4,0 0.14256,0.004 0.31729,0.007 0.53274,0.009 9.4e-4,1e-5 0.001,-10e-6 0.002,0 0.028,2.3e-4 0.0715,2.3e-4 0.10086,7e-4 0.65022,0.006 1.63186,0.007 3.16332,0.007 0.007,0 0.009,0 0.0164,0 h 4.362629 v -1.1e-4 h 0.047 l 0.0969,-0.12325 c 2.3e-4,-2.4e-4 9.3e-4,-4.7e-4 0.001,-7e-4 0.002,-0.002 0.004,-0.005 0.005,-0.007 l 0.0127,-0.0163 0.0844,-0.0683 0.024,-0.0195 v -1.1e-4 l 1.1e-4,-0.0359 0.0306,-0.0307 h 1.3e-4 v -1.2e-4 -2.69508 c 1.4e-4,-0.20725 7e-4,-0.32116 9.3e-4,-0.56314 4.6e-4,-1.29918 0.0126,-2.43755 0.0296,-2.97797 0.0117,-0.21885 0.026,-0.33157 0.0457,-0.3576 0.008,-0.007 0.0178,-0.0141 0.0283,-0.0213 0.0611,-0.0382 0.16246,-0.0822 0.26847,-0.11275 0.0131,-0.004 0.0254,-0.008 0.038,-0.0125 1.5e-4,-6e-5 2.3e-4,-7e-5 4.6e-4,-1.3e-4 1.2e-4,-3e-5 2.2e-4,-7e-5 4.6e-4,-1.1e-4 0.0138,-0.005 0.0272,-0.009 0.0402,-0.0149 0.20341,-0.0739 0.30988,-0.16595 0.31604,-0.29946 0.0227,-0.0744 0.0185,-0.15344 -0.0183,-0.23028 -0.007,-0.0143 -0.08,-0.10039 -0.19472,-0.23184 -0.075,-0.10005 -0.16862,-0.2117 -0.28349,-0.33838 -0.34754,-0.38326 -0.78798,-0.86606 -1.24026,-1.36099 -1.11278,-1.22869 -2.471059,-2.71329 -3.158889,-3.44333 -0.0922,-0.0979 -0.16674,-0.17867 -0.23471,-0.24181 -0.0357,-0.0373 -0.0877,-0.0927 -0.0919,-0.0955 -0.0146,-0.0105 -0.0419,-0.0186 -0.0731,-0.0263 -1.9e-4,-9e-5 -10e-4,-0.001 -0.002,-0.001 -0.0297,-0.0117 -0.0601,-0.0167 -0.0925,-0.0155 -0.007,-0.002 -0.0136,-0.002 -0.02,-0.002 -7e-5,-1e-5 -1.6e-4,0 -2.3e-4,0 -7e-4,-3e-5 -0.001,-2.2e-4 -0.002,-2.3e-4 -7e-4,-8e-5 -0.002,-7e-4 -0.002,-7e-4 -7e-4,0 -10e-4,1.2e-4 -0.002,1.2e-4 -1.4e-4,0 -2.3e-4,-1.2e-4 -4.6e-4,-1.2e-4 -1.7e-4,0 -2.3e-4,0 -4.6e-4,0 0,0 -1.2e-4,0 -1.2e-4,0 -0.003,0 -0.007,4.7e-4 -0.0105,4.7e-4 -0.001,-3e-5 -0.002,-1.1e-4 -0.005,-1.2e-4 -9.3e-4,-2e-5 -0.002,-4.7e-4 -0.002,-4.7e-4 -1.5e-4,0 -2.2e-4,0 -4.5e-4,0 -1.2e-4,0 -2.4e-4,0 -4.7e-4,0 -9.3e-4,0 -0.002,2.3e-4 -0.002,2.4e-4 -0.002,-3e-5 -0.006,-2.4e-4 -0.008,-2.4e-4 -2.3e-4,0 -7e-4,0 -9.3e-4,0 -2.3e-4,0 -4.6e-4,1.2e-4 -9.3e-4,1.2e-4 -2.3e-4,0 -6.9e-4,-1.2e-4 -9.2e-4,-1.2e-4 z m -7.36944,2.70612 c -0.0139,0 -0.0303,0.009 -0.0456,0.0253 -0.0343,-0.004 -0.0577,0.007 -0.0701,0.0322 -1.4e-4,2.3e-4 -2.3e-4,7e-4 -4.6e-4,9.3e-4 -0.007,0.014 -0.009,0.0325 -0.0105,0.055 -6e-5,9.3e-4 -4.6e-4,0.001 -4.6e-4,0.002 0,5e-5 1.1e-4,2.1e-4 1.1e-4,2.3e-4 0,1.8e-4 0,2.4e-4 0,4.7e-4 0,2e-4 -1.1e-4,4.7e-4 -1.1e-4,7e-4 0,0 0,1.2e-4 0,1.2e-4 0,2.2e-4 0,4.6e-4 0,7e-4 0,0 0,1.3e-4 0,1.3e-4 0,1.2e-4 0,2.2e-4 0,4.5e-4 0,0 0,1.3e-4 0,1.3e-4 0,1.1e-4 0,2.3e-4 0,4.5e-4 0,0.006 0.0119,0.0224 0.0289,0.0431 0.0346,0.0674 0.1417,0.17988 0.34919,0.36697 0.0694,0.0638 0.14542,0.13171 0.23581,0.20889 0.021,0.018 0.0364,0.0312 0.056,0.048 0.0728,0.0641 0.13232,0.11801 0.21994,0.194 0.008,0.007 0.0141,0.0125 0.022,0.0194 0.13069,0.1218 0.21495,0.20748 0.26284,0.27329 0.0452,0.0726 0.0527,0.13327 0.0534,0.2215 2.4e-4,0.0401 0.003,0.0771 0.009,0.1117 7e-4,0.019 0.002,0.0373 0.006,0.0545 0,0 0,1.2e-4 0,1.2e-4 0.003,0.0149 0.007,0.0293 0.012,0.0433 0,0 0,1.2e-4 0,1.2e-4 0.005,0.014 0.0117,0.0278 0.0185,0.0413 0,0 0,1.1e-4 0,1.1e-4 0.007,0.0136 0.016,0.0272 0.0258,0.0408 0,0 0,1.2e-4 0,1.2e-4 0.007,0.009 0.0156,0.0198 0.024,0.03 0,0 1.2e-4,1.2e-4 1.2e-4,1.2e-4 6e-5,7e-5 7e-5,1.7e-4 1.2e-4,2.4e-4 0.0224,0.0377 0.0506,0.07 0.0866,0.0991 0.0347,0.0281 0.0732,0.0504 0.11392,0.068 0.035,0.0168 0.0725,0.0289 0.11159,0.0367 0.18888,0.0468 0.39544,-0.005 0.5122,-0.1528 0.0163,-0.0208 0.0312,-0.0437 0.0446,-0.0683 1.5e-4,-2.3e-4 2.3e-4,-4.6e-4 4.6e-4,-9.3e-4 0.007,-0.0117 0.0148,-0.023 0.0213,-0.0351 0.009,-0.0176 0.0185,-0.0356 0.026,-0.0547 0.0265,-0.0564 0.0427,-0.11782 0.0454,-0.18187 7e-4,-0.0154 4.7e-4,-0.0309 -4.5e-4,-0.0466 0,0 0,-1.3e-4 0,-1.3e-4 -9.4e-4,-0.0156 -0.002,-0.0315 -0.006,-0.0473 -1e-5,-8e-5 10e-6,-1.7e-4 0,-2.3e-4 -0.002,-0.0159 -0.006,-0.0318 -0.0105,-0.0478 -2e-5,-8e-5 -9e-5,-1.5e-4 -1.2e-4,-2.3e-4 -9.3e-4,-0.004 -0.002,-0.007 -0.004,-0.0105 -1e-5,-3e-5 1e-5,-8e-5 0,-1.1e-4 -0.008,-0.0522 -0.0238,-0.0995 -0.0471,-0.1373 -0.004,-0.0442 -0.005,-0.088 -0.006,-0.13142 0,-4e-5 0,-8e-5 0,-1.2e-4 0.0169,-0.0744 0.0573,-0.17457 0.12348,-0.30571 0.0377,-0.0746 0.0673,-0.14243 0.0896,-0.20193 1.1e-4,-2.3e-4 2.2e-4,-4.6e-4 4.6e-4,-9.3e-4 0.002,-0.005 0.004,-0.009 0.006,-0.0139 0.0398,-0.1039 0.0508,-0.1763 0.0304,-0.20938 -4.7e-4,-4.6e-4 -7e-4,-9.3e-4 -10e-4,-0.001 -1e-4,-1.7e-4 -1.4e-4,-4.7e-4 -2.4e-4,-7e-4 -0.005,-0.007 -0.008,-0.0125 -0.0131,-0.018 -0.002,-0.005 -0.004,-0.0105 -0.006,-0.0143 -0.004,-0.007 -0.008,-0.0126 -0.0127,-0.017 -0.0126,-0.0117 -0.029,-0.0143 -0.048,-0.0105 -0.002,4.7e-4 -0.003,4.7e-4 -0.005,9.3e-4 -0.002,-9.3e-4 -0.006,-0.002 -0.008,-0.004 0,0 -1.2e-4,0 -1.2e-4,0 -0.007,-0.001 -0.015,-0.002 -0.0236,-0.002 -2.4e-4,0 -7e-4,2.4e-4 -9.4e-4,4.7e-4 -7e-4,-2e-5 -0.001,-1.1e-4 -0.002,-1.2e-4 0,0 -1.3e-4,0 -1.3e-4,0 0,0 -1.1e-4,-1.3e-4 -1.1e-4,-1.3e-4 0,0 -1.3e-4,0 -1.3e-4,0 -8e-5,0 -1.5e-4,0 -2.4e-4,0 -2.3e-4,0 -6.8e-4,-1.1e-4 -9.2e-4,-1.1e-4 -1.7e-4,0 -2.3e-4,0 -4.6e-4,0 0,0 -1.3e-4,0 -1.3e-4,0 -6e-5,0 -1.8e-4,1.1e-4 -2.3e-4,1.1e-4 -4.7e-4,0 -9.3e-4,-1.1e-4 -0.001,-1.1e-4 -0.0121,0 -0.0325,0.0191 -0.0576,0.0503 -0.0653,0.0539 -0.13862,0.15735 -0.21466,0.3074 -0.0306,0.0604 -0.0558,0.10716 -0.0797,0.14655 -0.0105,0.015 -0.0213,0.0301 -0.0315,0.0431 -0.0105,0.0138 -0.0211,0.0254 -0.0314,0.0369 -0.0618,0.0605 -0.13258,0.0833 -0.262,0.10541 -0.0387,0.007 -0.0715,0.0118 -0.10168,0.0148 -2.3e-4,1e-5 -4.6e-4,9e-5 -7e-4,1.2e-4 -0.17313,0.0105 -0.25662,-0.0567 -0.73804,-0.47582 -10e-4,-9.3e-4 -0.002,-0.001 -0.002,-0.002 -0.0202,-0.0176 -0.0365,-0.031 -0.0557,-0.0476 -0.27443,-0.23978 -0.44517,-0.38181 -0.53611,-0.43449 -7e-4,-4.6e-4 -0.002,-10e-4 -0.004,-0.002 -0.0378,-0.0306 -0.062,-0.0492 -0.0649,-0.0492 -1.4e-4,0 -4.6e-4,4.7e-4 -7e-4,4.7e-4 -2e-5,0 -4.6e-4,-4.7e-4 -4.6e-4,-4.7e-4 -1.8e-4,0 -7e-4,4.7e-4 -9.3e-4,4.7e-4 -3e-5,0 -4.7e-4,-4.7e-4 -7e-4,-4.7e-4 -0.001,0 -0.005,0.002 -0.008,0.005 -7e-4,-1.2e-4 -0.002,-10e-4 -0.003,-10e-4 -0.001,-6e-5 -0.004,2.3e-4 -0.005,4.7e-4 -0.002,-7e-4 -0.006,-0.004 -0.007,-0.004 -2e-4,0 -4.7e-4,1.2e-4 -7e-4,1.3e-4 -4e-5,-1e-5 -2e-4,-1.3e-4 -2.4e-4,-1.3e-4 -0.001,0 -0.002,4.7e-4 -0.005,7e-4 -2.2e-4,-2e-5 -10e-4,-7e-4 -10e-4,-7e-4 z m 6.11138,3.02495 c 0.36299,-4.7e-4 0.79485,7e-4 1.30298,0.003 l 2.679939,0.0152 h 4.6e-4 c 0.0428,0.002 0.0687,0.005 0.0753,0.007 0.0176,0.007 0.0319,0.0223 0.0438,0.0542 1e-5,3e-5 -10e-6,8e-5 0,1.2e-4 0.008,0.0598 0.0159,0.154 0.0227,0.2776 v 1.47583 1.53938 c -10e-4,0.0225 -0.004,0.0465 -0.005,0.0654 -9.4e-4,0.007 -0.001,0.0176 -0.002,0.0246 -2e-5,2.3e-4 -9e-5,7e-4 -1.1e-4,9.3e-4 -0.001,0.0152 -0.004,0.0246 -0.006,0.0371 -7e-5,4.7e-4 -1.8e-4,9.3e-4 -2.4e-4,10e-4 -0.006,0.0338 -0.0105,0.0624 -0.0174,0.0793 -0.002,0.005 -0.005,0.009 -0.007,0.0127 -0.0181,0.0217 -0.22569,0.0398 -0.55196,0.054 -0.0295,0.001 -0.0672,0.002 -0.0985,0.003 l -2.143829,0.0121 c -0.53525,0.003 -0.97944,0.005 -1.3473,0.003 -0.84855,-0.0126 -1.51631,-0.0332 -1.55691,-0.0621 -2.3e-4,-2.3e-4 -0.002,-4.7e-4 -0.002,-7e-4 -7e-4,-7e-4 -0.001,-0.004 -0.002,-0.005 -5e-5,-8e-5 -7e-5,-2.3e-4 -1.2e-4,-4.6e-4 -3e-5,-6e-5 -8e-5,-1.8e-4 -1.2e-4,-2.4e-4 -0.005,-0.007 -0.009,-0.0225 -0.0131,-0.0476 -0.005,-0.029 -0.009,-0.069 -0.0135,-0.11856 0,0 0,-1.3e-4 0,-1.3e-4 -0.005,-0.0496 -0.008,-0.10868 -0.012,-0.17562 0,-7e-5 1e-5,-1.6e-4 0,-2.3e-4 -2.2e-4,-0.006 -6.9e-4,-0.0136 -9.2e-4,-0.0197 -0.0105,-0.19928 -0.0191,-0.46292 -0.025,-0.75569 -0.002,-0.0961 -0.002,-0.20017 -0.003,-0.30079 -9.4e-4,-0.12998 -0.002,-0.25447 -0.002,-0.39232 -1e-4,-0.20955 7e-4,-0.32949 0.001,-0.49179 2.3e-4,-0.0633 2.3e-4,-0.14245 7e-4,-0.19928 7e-5,-0.005 1.7e-4,-0.009 2.3e-4,-0.0146 0.003,-0.16094 0.008,-0.31458 0.0149,-0.44854 0,0 0,-1.1e-4 0,-1.1e-4 0.0117,-0.24613 0.0267,-0.43498 0.0458,-0.5241 0.006,-0.0296 0.0129,-0.0482 0.0201,-0.0542 0.13698,-0.0247 0.71973,-0.0435 1.4428,-0.0566 0.0554,-2e-4 0.10144,-7e-4 0.16036,-7e-4 z m 1.2345,0.22246 c -0.44707,0 -0.89314,0.005 -1.28507,0.0147 -0.024,1.4e-4 -0.07,-3e-5 -0.0931,1.2e-4 -0.52281,0.004 -0.79362,0.0118 -0.9468,0.0311 -0.0727,0.007 -0.12404,0.0167 -0.16025,0.0279 h -0.0331 v 1.2e-4 l 0.008,0.008 c -0.023,0.009 -0.0396,0.0198 -0.0528,0.0318 -0.0183,0.0166 -0.0336,0.0345 -0.0465,0.0597 l -0.005,-0.005 v 0.0136 c -0.0582,0.10436 -0.0611,0.37328 -0.0612,1.33745 0,0.002 0,0.002 0,0.005 0,0.0126 -2.3e-4,0.0192 -2.3e-4,0.0321 0,0.004 1.1e-4,0.005 1.2e-4,0.008 0,0.003 -10e-6,0.006 0,0.009 -10e-6,0.002 0,0.004 0,0.006 0,0.006 -1.2e-4,0.008 -1.2e-4,0.0138 0,7e-4 0,0.001 0,0.002 0,4.7e-4 0,7e-4 0,0.001 0,9e-5 0,1.4e-4 0,2.3e-4 0,0.001 0,0.001 0,0.002 0,0.001 0,0.002 0,0.003 0,0.002 0,0.002 0,0.005 0,7e-4 0,9.3e-4 0,0.002 0,2.3e-4 0,2.3e-4 0,7e-4 0,9e-5 0,1.5e-4 0,2.3e-4 0,0 0,1.3e-4 0,1.3e-4 0,9e-5 0,1.3e-4 0,2.2e-4 0,0.16958 2.3e-4,0.31989 0.001,0.45324 1.4e-4,0.019 4.7e-4,0.0318 7e-4,0.0502 4.7e-4,0.0746 1.4e-4,0.18462 9.3e-4,0.24674 0,0 0,1.1e-4 0,1.1e-4 0.001,0.0944 0.003,0.17515 0.006,0.24445 0,0 0,1.3e-4 0,1.3e-4 0.002,0.0693 0.006,0.1272 0.009,0.17609 0.001,0.0198 0.005,0.0324 0.006,0.0493 1.1e-4,9.3e-4 2.4e-4,0.001 4.7e-4,0.002 9.2e-4,0.009 10e-4,0.0196 0.002,0.0281 0.001,0.0105 0.002,0.0256 0.004,0.0356 0.005,0.0373 0.0105,0.068 0.0177,0.0935 9.4e-4,0.004 0.002,0.006 0.002,0.008 0.006,0.0215 0.0131,0.0396 0.0208,0.0547 0.006,0.0122 0.0134,0.0225 0.0209,0.0319 0,0 0,1.1e-4 0,1.1e-4 4.6e-4,9.4e-4 9.2e-4,0.004 0.001,0.004 2.3e-4,4.7e-4 0.002,7e-4 0.002,10e-4 0.001,0.002 0.003,0.005 0.005,0.006 0.008,0.009 0.0178,0.0174 0.0285,0.0251 l 0.0612,0.0873 h 2.46708 c 0.009,0 0.0126,0 0.0218,0 0.002,0 0.003,0 0.006,0 0.81857,0 1.36783,-0.001 1.740109,-0.008 0.002,-5e-5 0.003,-8e-5 0.006,-1.3e-4 0.006,-9e-5 0.009,-4.6e-4 0.015,-4.6e-4 0.61005,-0.0117 0.75488,-0.0356 0.8071,-0.0878 0.0105,-0.0105 0.0195,-0.0227 0.0278,-0.0391 0,0 0,-1.3e-4 0,-1.3e-4 0.008,-0.0163 0.0156,-0.0365 0.0222,-0.0622 4.6e-4,-10e-4 7e-4,-0.005 0.001,-0.006 0.0303,-0.0854 0.0401,-0.27119 0.0436,-0.6632 0.0168,-0.4134 0.018,-0.92053 0.004,-1.34994 -4.7e-4,-0.0254 -10e-4,-0.0512 -0.002,-0.0759 v -0.71797 l -0.0307,-0.02 -1.2e-4,-0.0105 -0.0456,-0.0233 c -8e-5,-7e-5 -2.2e-4,-1.7e-4 -4.5e-4,-2.3e-4 l -2.4e-4,-1.2e-4 c -2.3e-4,-2.3e-4 -9.3e-4,-4.6e-4 -10e-4,-7e-4 -0.006,-0.0163 -0.012,-0.0296 -0.0185,-0.0361 -0.0273,-0.0273 -0.0802,-0.0469 -0.2101,-0.0611 -0.16115,-0.0208 -0.4778,-0.0294 -1.071849,-0.0329 -0.39463,-0.0105 -0.84533,-0.0149 -1.29673,-0.0149 z m -0.0366,3.64214 h 0.0457 0.0482 c 1.53307,0.001 2.807669,0.0216 2.888369,0.0465 l 0.3713,0.38284 0.12119,0.12492 0.004,0.004 c 0.0232,0.0245 0.0443,0.0468 0.0638,0.0672 1e-4,9e-5 1.7e-4,2.3e-4 2.4e-4,4.7e-4 0.0617,0.0742 0.11019,0.13804 0.12997,0.1761 -0.10867,0.0448 -0.86428,0.0559 -3.074669,0.0574 l -0.5361,-1.1e-4 c -1.41174,-4.7e-4 -2.61792,-0.0105 -3.22662,-0.0248 -0.0908,-0.004 -0.16297,-0.008 -0.21719,-0.0132 0,0 -1.1e-4,0 -1.1e-4,0 0,0 -1.2e-4,0 -1.2e-4,0 -2e-4,-2e-5 -2.3e-4,-1e-4 -4.7e-4,-1.3e-4 -4.6e-4,-4e-5 -9.3e-4,-5e-5 -0.001,-1.1e-4 -4.7e-4,-4e-5 -7e-4,-8e-5 -9.3e-4,-1.2e-4 -0.002,-1.8e-4 -0.004,-4.6e-4 -0.005,-7e-4 -0.0234,-0.002 -0.0447,-0.005 -0.0616,-0.007 -1.4e-4,-3e-5 -2.1e-4,2e-5 -4.6e-4,0 -0.006,-9.4e-4 -0.009,-0.002 -0.0153,-0.004 -0.0105,-0.002 -0.0222,-0.004 -0.0296,-0.006 0,0 -1.2e-4,0 -1.2e-4,0 -0.0128,-0.004 -0.0203,-0.007 -0.0239,-0.0117 l 0.0729,-0.10168 c 0.0307,-0.0428 0.083,-0.10774 0.14235,-0.1785 0.008,-0.0105 0.0166,-0.0197 0.0251,-0.0299 0.0633,-0.0746 0.13303,-0.15391 0.19628,-0.22211 l 0.20421,-0.22019 c 0.21374,-0.0218 1.43233,-0.0389 2.88043,-0.04 z m 2.812439,0.18209 -0.21009,0.001 h -0.49791 c -0.0703,-4.7e-4 -0.16276,-1.4e-4 -0.24805,0 h -1.630439 c -0.0646,0 -0.0906,-2.3e-4 -0.15856,-2.3e-4 -0.14753,0 -0.21221,4.6e-4 -0.34439,4.6e-4 -0.2672,1.2e-4 -0.51849,4.7e-4 -0.73334,0.001 -0.1429,4.5e-4 -0.36194,3e-5 -0.48062,6.9e-4 -7e-4,10e-6 -0.002,0 -0.002,0 0,0 -1.2e-4,0 -1.2e-4,0 -0.005,2e-5 -0.0153,-3e-5 -0.0204,0 -0.0105,6e-5 -0.0322,7e-5 -0.0427,1.3e-4 -0.56677,0.003 -0.86842,0.0105 -1.03631,0.0274 l -0.18475,0.001 -0.0382,0.0576 c -9.2e-4,7e-4 -0.001,10e-4 -0.002,0.002 -4.7e-4,1.8e-4 -7e-4,4.6e-4 -9.4e-4,7e-4 -0.0299,0.0147 -0.0464,0.0318 -0.0553,0.0515 -9.3e-4,9.2e-4 -0.002,0.002 -0.003,0.003 0,0 0,1.2e-4 0,1.2e-4 -0.0402,0.0442 -0.0687,0.088 -0.0687,0.10902 0,3e-5 1.1e-4,1.1e-4 1.2e-4,1.2e-4 -1e-5,2.3e-4 -1.2e-4,7e-4 -1.2e-4,9.3e-4 0,0.002 0.006,0.003 0.0159,0.006 l -0.0296,0.0447 2.64823,7e-4 h 0.009 c 0.12659,2.2e-4 0.23873,0.001 0.36962,0.001 0.18853,0 0.35319,-7e-4 0.53237,-0.001 l 2.502049,4.7e-4 -0.0105,-0.0105 -0.017,-0.0181 c 10e-4,-4.5e-4 0.006,-9.2e-4 0.006,-0.001 0,-0.002 -0.004,-0.006 -0.005,-0.009 6.9e-4,-4.7e-4 0.005,-6.9e-4 0.005,-0.001 0,-0.0227 -0.0458,-0.0919 -0.10191,-0.15376 -0.0161,-0.0178 -0.0354,-0.0326 -0.0673,-0.0452 l -0.0462,-0.0634 h -0.0486 l -0.003,-0.003 z m -2.807509,0.36999 c -0.0218,0 -0.0344,9.3e-4 -0.0547,9.3e-4 -4.6e-4,0 -0.001,-1e-5 -0.001,0 -0.002,1e-5 -0.006,9e-5 -0.008,1.2e-4 -0.15551,0.001 -0.28583,0.005 -0.37358,0.0105 -9.3e-4,-0.002 -0.006,-0.001 -0.0105,7e-4 -0.0602,0.004 -0.10378,0.008 -0.10378,0.0138 0,0 0,1.3e-4 0,1.3e-4 0,0.004 -0.004,0.017 -0.006,0.0267 -0.002,0.002 -0.006,0.005 -0.008,0.007 -0.0752,0.0294 -0.10856,0.0728 -0.10856,0.13284 0,0.007 0.0184,0.0139 0.0504,0.0201 9.4e-4,7e-4 10e-4,0.001 0.002,0.002 0.005,0.004 0.0105,0.006 0.0177,0.008 0.0213,0.007 0.0543,0.0126 0.10273,0.0161 0.0968,0.007 0.25529,0.007 0.50583,0.007 7e-4,0 10e-4,0 0.002,0 0.001,0 0.002,0 0.003,0 0.007,1e-5 0.009,1.3e-4 0.0166,1.3e-4 0.0964,0 0.18617,-9.4e-4 0.26871,-0.002 0.0617,-9.2e-4 0.12583,-0.002 0.16879,-0.005 0.13003,-0.005 0.2149,-0.0117 0.2149,-0.0189 0,-0.002 -2.1e-4,-0.005 -2.4e-4,-0.007 0,-2e-5 2.4e-4,-9e-5 2.4e-4,-1.2e-4 0,-1.3e-4 -2.4e-4,-9.2e-4 -2.4e-4,-0.001 -3e-5,-0.002 -2.3e-4,-0.005 -4.6e-4,-0.007 1e-5,-2e-5 4.6e-4,1e-5 4.6e-4,0 0,0 1.2e-4,0 1.2e-4,0 0,-1e-4 -6.9e-4,-0.001 -6.9e-4,-0.002 -2.3e-4,-0.009 -9.3e-4,-0.0189 -0.002,-0.0277 -1.9e-4,-0.002 -2.3e-4,-0.005 -4.7e-4,-0.006 0,0 0,-1.1e-4 0,-1.1e-4 -2.3e-4,-0.002 -9.2e-4,-0.005 -0.001,-0.007 -7e-4,-0.004 -0.001,-0.007 -0.002,-0.0105 -9e-5,-4.7e-4 -1.6e-4,-7e-4 -2.4e-4,-0.001 0,0 0,-1.2e-4 0,-1.2e-4 0,0 0,-1.3e-4 0,-1.3e-4 -7e-4,-0.002 -9.2e-4,-0.006 -0.001,-0.009 -7e-4,-0.002 -0.002,-0.005 -0.002,-0.007 0,0 0,-1.2e-4 0,-1.2e-4 -4.6e-4,-0.001 -7e-4,-0.003 -0.001,-0.005 -7e-4,-0.002 -0.002,-0.004 -0.002,-0.006 -0.001,-0.003 -0.004,-0.008 -0.006,-0.0117 -5e-5,-8e-5 -9e-5,-1.6e-4 -1.3e-4,-2.3e-4 0,0 0,-1.3e-4 0,-1.3e-4 -6e-5,-1.3e-4 -1.7e-4,-2.2e-4 -2.2e-4,-4.6e-4 -4.7e-4,-9.3e-4 -4.7e-4,-0.002 -9.4e-4,-0.004 -2.3e-4,-4.5e-4 -2.3e-4,-0.001 -7e-4,-0.002 -0.003,-0.007 -0.008,-0.0126 -0.0136,-0.0181 -0.004,-0.004 -0.006,-0.007 -0.009,-0.009 0,0 0,-1.3e-4 0,-1.3e-4 -0.006,-0.0105 -0.0174,-0.02 -0.0317,-0.0283 -0.002,-10e-4 -0.004,-0.002 -0.005,-0.004 -2.3e-4,-1.5e-4 -7e-4,-2.1e-4 -0.001,-4.7e-4 -0.005,-0.002 -0.0105,-0.003 -0.0156,-0.006 -0.002,-7e-4 -0.004,-10e-4 -0.006,-0.002 -0.006,-0.002 -0.0118,-0.005 -0.0192,-0.007 0,0 -1e-4,0 -1e-4,0 0,0 -1.3e-4,-1.2e-4 -1.3e-4,-1.2e-4 -0.001,-2.4e-4 -0.002,-4.7e-4 -0.003,-9.4e-4 -0.0494,-0.0136 -0.12246,-0.0218 -0.23376,-0.026 -6.9e-4,-2e-5 -0.002,2e-5 -0.002,0 -0.008,-2.3e-4 -0.0227,-1.9e-4 -0.0317,-4.7e-4 -0.0105,-2.3e-4 -0.0257,-2.3e-4 -0.0365,-6.9e-4 -0.0105,-2.4e-4 -0.019,-9.4e-4 -0.0306,-0.001 -0.0505,-0.001 -0.10832,-0.001 -0.16997,-0.001 0,0 -1.2e-4,-1.1e-4 -1.2e-4,-1.1e-4 -0.001,-1e-5 -0.002,0 -0.004,0 -0.003,-1e-5 -0.006,-2.3e-4 -0.009,-2.3e-4 -0.002,0 -0.003,1.1e-4 -0.007,1.1e-4 -0.003,0 -0.007,1.2e-4 -0.0117,1.2e-4 -0.006,-1e-5 -0.008,-4.7e-4 -0.0138,-4.7e-4 z m 0.0669,0.49238 c 0.13596,0 0.19308,4.6e-4 0.3194,4.6e-4 0.0279,1e-5 0.043,1.2e-4 0.0705,1.3e-4 0.0226,10e-6 0.0376,-2e-5 0.0599,0 0.47176,2.3e-4 0.91715,6.9e-4 1.264539,0.002 0.003,1e-5 0.008,-1e-5 0.0105,0 0.21541,9.4e-4 0.42133,0.002 0.61382,0.004 0.075,7e-4 0.16701,9.3e-4 0.23449,10e-4 0.002,1e-5 0.005,9e-5 0.007,1.1e-4 9.3e-4,2e-5 0.001,-1e-5 0.002,0 0.18448,0.002 0.34284,0.005 0.47593,0.007 0.2711,0.006 0.44336,0.0147 0.54776,0.0261 0.0164,0.002 0.0283,0.004 0.0415,0.006 0.008,10e-4 0.0168,0.002 0.024,0.005 0,0 1.3e-4,0 1.3e-4,0 4.7e-4,1e-4 9.4e-4,2.4e-4 10e-4,4.7e-4 0.0105,0.002 0.0211,0.005 0.0283,0.008 0.0219,0.008 0.0312,0.0183 0.0341,0.0295 0,0 0,1.3e-4 0,1.3e-4 10e-4,0.006 9.3e-4,0.0117 -2.3e-4,0.0178 0,0 0,1.2e-4 0,1.2e-4 -6.9e-4,0.004 -0.002,0.006 -0.003,0.009 -4.7e-4,10e-4 -9.2e-4,0.002 -0.001,0.003 -2.3e-4,7e-4 -4.6e-4,0.001 -7e-4,0.002 -4.6e-4,9.3e-4 -4.6e-4,0.002 -0.001,0.003 -0.003,0.006 -0.009,0.0105 -0.0163,0.0159 -0.015,0.009 -0.0392,0.0185 -0.0786,0.026 -0.0197,0.004 -0.0431,0.007 -0.0711,0.0105 -0.0273,0.004 -0.0587,0.006 -0.0953,0.009 -2.2e-4,1e-5 -4.7e-4,-3e-5 -6.9e-4,0 -0.37372,0.0276 -1.26732,0.033 -3.410529,0.0393 -1.40688,0.005 -2.61604,4.7e-4 -3.25222,-0.008 -0.10121,-0.005 -0.18234,-0.0105 -0.25033,-0.0169 -4.7e-4,-3e-5 -7e-4,-8e-5 -0.001,-1.1e-4 -0.023,-0.002 -0.0486,-0.005 -0.0683,-0.007 -0.0723,-0.009 -0.12319,-0.0212 -0.1588,-0.0349 -0.0388,-0.0148 -0.0592,-0.0323 -0.0701,-0.0527 -9e-5,-4.7e-4 -3e-5,-9.3e-4 -1.2e-4,-10e-4 -0.004,-0.0227 0.008,-0.0407 0.0676,-0.0547 0.0105,-0.002 0.0241,-0.004 0.0374,-0.006 0.0119,-10e-4 0.0218,-0.004 0.0359,-0.005 0.0449,-0.005 0.11019,-0.008 0.1797,-0.0117 2.3e-4,-1e-5 7e-4,0 9.3e-4,0 3e-5,0 8e-5,0 1.2e-4,0 1.3e-4,-1e-5 2.3e-4,-1.1e-4 4.6e-4,-1.2e-4 0.0633,-0.002 0.14051,-0.004 0.21995,-0.006 0.0323,-7e-4 0.0546,-0.001 0.0893,-0.002 2.3e-4,-1e-5 7e-4,0 9.3e-4,0 0.40553,-0.008 0.97895,-0.0141 1.65121,-0.0178 0.0246,-1.3e-4 0.0549,-10e-5 0.0797,-2.2e-4 0.029,-1.6e-4 0.064,-1e-4 0.0935,-2.3e-4 0.0557,-2.4e-4 0.12012,-2.4e-4 0.17706,-4.7e-4 0.31237,-0.001 0.63075,-0.002 0.97178,-0.002 0.003,0 0.006,1e-5 0.008,0 0.0519,0 0.0772,-2.2e-4 0.13058,-2.2e-4 z"
       id="path4683"
       inkscape:connector-curvature="0" />
  </g>
</svg>
