<?xml version="1.0" encoding="UTF-8" standalone="no"?>
<svg
   xmlns:dc="http://purl.org/dc/elements/1.1/"
   xmlns:cc="http://creativecommons.org/ns#"
   xmlns:rdf="http://www.w3.org/1999/02/22-rdf-syntax-ns#"
   xmlns:svg="http://www.w3.org/2000/svg"
   xmlns="http://www.w3.org/2000/svg"
   xmlns:sodipodi="http://sodipodi.sourceforge.net/DTD/sodipodi-0.dtd"
   xmlns:inkscape="http://www.inkscape.org/namespaces/inkscape"
   width="39.687504mm"
   height="39.6875mm"
   viewBox="0 0 39.687504 39.6875"
   version="1.1"
   id="svg220"
   inkscape:version="1.0 (4035a4fb49, 2020-05-01)"
   sodipodi:docname="مشروع شبكة اتصالات.svg">
  <defs
     id="defs214" />
  <sodipodi:namedview
     fit-margin-bottom="0"
     fit-margin-right="0"
     fit-margin-left="0"
     fit-margin-top="0"
     id="base"
     pagecolor="#ffffff"
     bordercolor="#666666"
     borderopacity="1.0"
     inkscape:pageopacity="0.0"
     inkscape:pageshadow="2"
     inkscape:zoom="0.35"
     inkscape:cx="-4368.8174"
     inkscape:cy="127.44528"
     inkscape:document-units="mm"
     inkscape:current-layer="layer1"
     inkscape:document-rotation="0"
     showgrid="false"
     inkscape:window-width="1424"
     inkscape:window-height="1030"
     inkscape:window-x="224"
     inkscape:window-y="0"
     inkscape:window-maximized="0" />
  <metadata
     id="metadata217">
    <rdf:RDF>
      <cc:Work
         rdf:about="">
        <dc:format>image/svg+xml</dc:format>
        <dc:type
           rdf:resource="http://purl.org/dc/dcmitype/StillImage" />
        <dc:title></dc:title>
      </cc:Work>
    </rdf:RDF>
  </metadata>
  <g
     transform="translate(-78.160707,-114.44677)"
     inkscape:label="Layer 1"
     inkscape:groupmode="layer"
     id="layer1">
    <path
       inkscape:connector-curvature="0"
       id="path17973-2-0"
       d="m 100.63957,114.44705 v 0 c -0.0333,0 -0.0654,0 -0.0966,0.002 -0.15404,-0.007 -0.27044,0.015 -0.37721,0.079 -0.357418,0.15591 -0.559595,0.55311 -0.901753,1.3228 -0.737783,1.65958 -1.819054,2.2881 -3.936479,2.2881 -0.878357,0 -1.479296,-0.0704 -1.971671,-0.27985 -0.376533,-0.21039 -0.743462,-0.5005 -1.126149,-0.87981 -0.0416,-0.048 -0.08349,-0.0977 -0.125885,-0.14944 -1.074573,-1.3106 -1.234005,-1.35112 -2.6615,-0.67641 -0.67759,0.32027 -1.845568,0.97898 -2.595473,1.46382 l -1.363454,0.88156 0.142344,0.76516 c 0.07831,0.42084 0.259768,1.08631 0.403213,1.47883 0.152022,0.41602 0.206747,0.9969 0.131243,1.39277 -0.204689,1.07331 -1.256735,2.71963 -2.152295,3.36802 -0.763287,0.55259 -0.943256,0.59404 -2.577393,0.59404 -0.259777,0 -0.480681,6e-5 -0.670564,0.003 -0.195048,-0.008 -0.361363,-0.004 -0.505276,0.0165 -0.592094,0.0396 -0.67383,0.16059 -0.864847,0.5298 -0.494278,0.95526 -1.307343,4.54308 -1.223042,5.2801 0.0013,0.0884 0.01013,0.15041 0.02887,0.18065 0.03678,0.0595 0.249114,0.195 0.555283,0.36187 0.316412,0.20235 0.732797,0.43787 1.165928,0.65374 1.397877,0.69664 1.563522,0.84546 2.052224,1.84379 0.929538,1.89879 0.413924,3.90123 -1.326291,5.15076 -1.272249,0.91351 -1.39499,1.42475 -0.688711,2.86945 0.921693,1.88529 2.287722,3.80333 2.708824,3.80333 0.209395,0 0.852014,-0.17906 1.428048,-0.39788 0.675864,-0.25673 1.1796,-0.38156 1.665723,-0.37097 0.06287,0.002 0.126059,0.006 0.189352,0.011 0.42412,0.0402 0.8502,0.18478 1.382159,0.43614 0.38188,0.18043 0.720239,0.37861 1.016105,0.59609 0.343691,0.29684 0.682261,0.64227 0.959679,0.97795 0.516226,0.76315 0.706299,1.69465 0.590072,2.82863 -0.09098,0.88752 -0.05708,1.37419 0.109549,1.57487 0.23748,0.28596 2.536138,1.12137 4.093288,1.48761 0.645542,0.15184 1.079016,0.22571 1.413394,0.1685 0.100841,0.0173 0.173357,0.0284 0.206125,0.0311 0.210493,0.0174 0.506902,-0.34592 0.77257,-0.91005 0.09213,-0.16061 0.188888,-0.34572 0.295475,-0.55796 0.590524,-1.17568 0.836422,-1.45801 1.6121,-1.85165 2.199135,-1.11606 4.422505,-0.73647 5.644595,0.96361 0.48042,0.66832 0.84658,0.98201 1.14642,0.98201 h 0.0156 0.006 c 0.0169,0 0.0383,-0.003 0.0639,-0.008 0.71191,-0.11338 3.31327,-1.42695 4.48272,-2.2785 0.8758,-0.63773 0.91845,-0.71173 0.76858,-1.33328 -0.0873,-0.36191 -0.303,-0.99091 -0.47934,-1.39775 -0.41308,-0.95305 -0.39951,-1.65477 0.0511,-2.64274 0.20961,-0.45954 0.42625,-0.85141 0.66184,-1.18329 0.12478,-0.15302 0.26079,-0.30498 0.40833,-0.45558 0.18163,-0.18541 0.35864,-0.34746 0.53451,-0.48766 0.69312,-0.46445 1.56597,-0.65155 2.76844,-0.65637 0.56701,0.0705 0.95479,0.0874 1.24816,-0.002 l 0.47149,-0.001 0.37771,-0.79588 c 0.49616,-1.04537 1.41103,-4.74887 1.26627,-5.12589 -0.0623,-0.16211 -0.54595,-0.49856 -1.07485,-0.7477 -1.36913,-0.6449 -2.02279,-1.32659 -2.35997,-2.4614 -0.15622,-0.52577 -0.25269,-1.02115 -0.28986,-1.4852 -0.003,-0.0824 -0.004,-0.16578 -0.004,-0.25044 0,-0.25507 0.004,-0.48158 0.0142,-0.68639 0.10892,-0.97706 0.53978,-1.7795 1.28993,-2.39385 0.49023,-0.40148 0.94367,-0.93834 1.00763,-1.19306 0.008,-0.0331 0.013,-0.0709 0.0142,-0.1131 0.0278,-0.1401 -0.01,-0.28228 -0.0803,-0.48997 -0.23042,-0.81427 -0.93771,-2.17814 -1.90241,-3.62052 -0.83344,-1.24618 -0.8477,-1.2563 -1.60836,-1.13841 -0.42207,0.0654 -1.02234,0.25069 -1.33389,0.41171 -0.68766,0.35539 -1.05551,0.35638 -2.03988,0.005 -1.11399,-0.39712 -2.26966,-1.26177 -2.77772,-2.07825 -0.34599,-0.55607 -0.46951,-1.11879 -0.54656,-2.48994 l -0.0284,-0.50543 c 0.0372,-0.51697 0.0327,-0.77486 -0.0533,-0.94948 l -0.0178,-0.31661 -1.22466,-0.45683 c -0.67357,-0.25127 -1.95289,-0.60435 -2.843,-0.78459 -0.59463,-0.12043 -1.01577,-0.19781 -1.33452,-0.20046 z m -2.62154,5.39682 c 0.440637,1e-4 0.880712,0.0212 1.31819,0.0638 4.38217,0.4269 8.29135,2.77016 10.73223,6.43311 1.26604,1.89988 2.09918,4.26831 2.32856,6.62024 0.3617,3.70885 -0.84942,7.64737 -3.22788,10.49741 -0.58142,0.69669 -1.82191,1.88763 -2.481,2.3819 -2.88265,2.16162 -6.57892,3.19134 -10.143097,2.82576 -2.775638,-0.28472 -5.613308,-1.46945 -7.718147,-3.22238 -0.264761,-0.22053 -0.603299,-0.53913 -0.947896,-0.88493 -0.157188,-0.15476 -0.310503,-0.31281 -0.459761,-0.47394 -0.391122,-0.41408 -0.749814,-0.82268 -0.969596,-1.11543 -2.142169,-2.85341 -3.177677,-6.50765 -2.836264,-10.00839 0.280566,-2.87661 1.442369,-5.69728 3.227816,-7.83672 0.581404,-0.69667 1.821959,-1.88761 2.481063,-2.3819 2.496132,-1.87178 5.611322,-2.89975 8.695782,-2.89854 z m -0.06378,1.26728 c -0.905238,0.002 -1.815699,0.0983 -2.716119,0.29287 -1.08565,0.23461 -1.904544,0.51653 -2.919439,1.00501 -3.781788,1.82011 -6.400349,5.16942 -7.243544,9.26509 -0.497732,2.41762 -0.263971,5.13773 0.637018,7.41201 0.812481,2.05086 2.135563,3.89742 3.775683,5.26946 2.060431,1.72367 4.577784,2.7866 7.266117,3.06809 0.858262,0.0899 2.489636,0.0247 3.445664,-0.13765 5.3584,-0.91002 9.60532,-4.98505 10.70748,-10.27421 0.82399,-3.95416 -0.15109,-7.92487 -2.72753,-11.10753 -2.47862,-3.06186 -6.30267,-4.80399 -10.22533,-4.79314 z m 2.20379,4.28846 c 0.71145,0.005 2.08054,0.37934 2.9533,0.80864 1.10941,0.54567 2.43641,1.82923 3.00697,2.90857 0.4936,0.93373 0.89553,2.24982 0.89553,2.93226 0,0.52516 -0.004,0.53533 -0.41437,0.53533 -6e-4,0 -10e-4,0 -0.002,0 -7.3e-4,0 -0.002,0 -0.002,0 -0.003,0 -0.005,0 -0.008,0 -0.40109,0 -0.4266,-0.0239 -0.4266,-0.40073 0,-0.22043 -0.0816,-0.71416 -0.18143,-1.09718 -0.64568,-2.47753 -2.70016,-4.34169 -5.22798,-4.74365 l -0.928387,-0.14762 v -0.39887 c 0,-0.35445 0.03735,-0.39868 0.335187,-0.39675 z m -0.335187,1.91334 0.700807,0.0815 c 1.45395,0.16903 3.13956,1.31274 3.84563,2.60934 0.33129,0.60832 0.69445,1.81201 0.69445,2.30175 0,0.23581 -0.0638,0.27892 -0.41274,0.27892 -0.39942,0 -0.41548,-0.0187 -0.49637,-0.57859 -0.12124,-0.83912 -0.61228,-1.84075 -1.19954,-2.4467 -0.6311,-0.65121 -1.73698,-1.22873 -2.53319,-1.32298 -0.576819,-0.0683 -0.598258,-0.0782 -0.598983,-0.47097 -2.5e-5,-0.002 -6.4e-5,-0.005 -6.4e-5,-0.008 0,-0.002 6.4e-5,-0.004 6.4e-5,-0.005 -6e-6,-0.005 -6.4e-5,-0.008 -6.4e-5,-0.0127 z m -8.50337,0.2464 3.002365,2.99013 2.846428,2.83486 c 0.07947,0.0663 0.141936,0.11503 0.184865,0.14382 l 0.519616,-0.20769 c 0.517421,-0.20684 0.553152,-0.25177 0.63141,-0.7937 0.0985,-0.68205 0.350019,-0.9953 0.926885,-1.15448 0.850448,-0.23469 1.612898,0.36736 1.607928,1.2697 -0.004,0.77008 -0.54812,1.28236 -1.361397,1.28236 -0.37229,0 -0.422256,0.0469 -0.616822,0.57865 l -0.211738,0.57858 3.006727,2.96197 3.00673,2.96196 -0.35645,0.23432 c -0.54935,0.36118 -1.8127,0.8352 -2.75259,1.03279 -1.03651,0.21791 -3.192398,0.21692 -4.185382,-0.002 -3.876711,-0.85438 -6.883111,-3.95754 -7.552858,-7.79599 -0.102635,-0.58823 -0.18661,-1.33244 -0.18661,-1.65381 0,-1.55117 0.496691,-3.53489 1.183949,-4.72852 z m 8.652885,1.6427 c 0.06748,-0.001 0.165362,0.016 0.307502,0.0409 1.50174,0.26407 2.62112,1.378 2.89862,2.88459 0.0841,0.45672 0.0841,0.45683 -0.34148,0.45683 -0.39904,0 -0.43393,-0.0324 -0.55654,-0.51771 -0.24489,-0.96926 -0.95973,-1.6826 -1.93962,-1.93553 -0.16599,-0.0429 -0.27907,-0.0754 -0.356009,-0.11554 -0.135345,-0.0275 -0.161988,-0.11701 -0.161988,-0.37026 0,-0.0171 6.4e-5,-0.0326 1.21e-4,-0.0482 0,-0.006 -1.21e-4,-0.0112 -1.21e-4,-0.0172 0,-0.28559 0.0011,-0.37564 0.149515,-0.37795 z m -9.284296,2.89512 c -0.0148,0.0262 -0.02544,0.0602 -0.03267,0.10456 l 0.0722,0.86505 c 0.09334,1.11857 0.434013,2.31038 0.958867,3.35473 0.37193,0.74005 1.494984,2.25353 1.672206,2.25353 0.05306,0 0.163547,-0.0807 0.245531,-0.17946 0.12272,-0.14778 0.04963,-0.29318 -0.413686,-0.82229 -1.08666,-1.24099 -1.891928,-3.33629 -1.897224,-4.93659 -0.002,-0.60968 -0.01714,-0.63953 -0.324343,-0.63953 z m 0.29878,7.21602 c 0.02589,-0.003 0.49116,0.4328 1.046281,0.97971 1.009127,0.99415 1.893525,1.59848 3.096447,2.116 0.403757,0.17373 0.61022,0.334 0.646377,0.50226 0.01616,0.0162 0.02487,0.0292 0.02487,0.0384 0,0.004 -0.0059,0.008 -0.01727,0.0118 0.02432,0.2188 -0.148015,0.22029 -3.397096,0.22029 -1.887219,0 -3.413021,-0.0411 -3.390674,-0.0914 0.04626,-0.10405 1.956577,-3.72925 1.990126,-3.77667 1.21e-4,0 4.83e-4,6e-5 8.45e-4,0 z"
       style="fill:#7a8c80;fill-opacity:1;stroke-width:0.199024" />
  </g>
</svg>
