<?xml version="1.0" encoding="UTF-8" standalone="no"?>
<!-- Created with Inkscape (http://www.inkscape.org/) -->

<svg
   xmlns:dc="http://purl.org/dc/elements/1.1/"
   xmlns:cc="http://creativecommons.org/ns#"
   xmlns:rdf="http://www.w3.org/1999/02/22-rdf-syntax-ns#"
   xmlns:svg="http://www.w3.org/2000/svg"
   xmlns="http://www.w3.org/2000/svg"
   xmlns:sodipodi="http://sodipodi.sourceforge.net/DTD/sodipodi-0.dtd"
   xmlns:inkscape="http://www.inkscape.org/namespaces/inkscape"
   width="21.166927mm"
   height="21.166603mm"
   viewBox="0 0 21.166927 21.166603"
   version="1.1"
   id="svg20149"
   inkscape:version="0.92.4 (5da689c313, 2019-01-14)"
   sodipodi:docname="construction.svg">
  <defs
     id="defs20143" />
  <sodipodi:namedview
     id="base"
     pagecolor="#ffffff"
     bordercolor="#666666"
     borderopacity="1.0"
     inkscape:pageopacity="0.0"
     inkscape:pageshadow="2"
     inkscape:zoom="3.959798"
     inkscape:cx="80.946204"
     inkscape:cy="33.870472"
     inkscape:document-units="mm"
     inkscape:current-layer="layer1"
     showgrid="false"
     fit-margin-top="0"
     fit-margin-left="0"
     fit-margin-right="0"
     fit-margin-bottom="0"
     inkscape:window-width="1920"
     inkscape:window-height="1001"
     inkscape:window-x="-9"
     inkscape:window-y="-9"
     inkscape:window-maximized="1" />
  <metadata
     id="metadata20146">
    <rdf:RDF>
      <cc:Work
         rdf:about="">
        <dc:format>image/svg+xml</dc:format>
        <dc:type
           rdf:resource="http://purl.org/dc/dcmitype/StillImage" />
        <dc:title></dc:title>
      </cc:Work>
    </rdf:RDF>
  </metadata>
  <g
     inkscape:label="Layer 1"
     inkscape:groupmode="layer"
     id="layer1"
     transform="translate(170.61448,-186.5099)">
    <path
       sodipodi:nodetypes="ccccccccccsccccccccccccc"
       inkscape:connector-curvature="0"
       style="fill:#918a6f;fill-opacity:1;stroke-width:0.10058012"
       d="m -160.09763,186.51006 c -0.3011,0.002 -0.60026,0.0175 -0.89688,0.0446 -0.37529,0.024 -0.72306,0.0625 -1.00876,0.1166 -4.09566,0.77575 -7.27936,3.77567 -8.34508,7.86378 -0.21248,0.81514 -0.25691,1.22319 -0.2654,2.43642 -0.009,1.338 0.0633,2.00816 0.34581,2.96327 0.0305,0.1103 0.0651,0.22085 0.10223,0.33233 0.003,0.007 0.004,0.0136 0.007,0.021 0.007,0.0232 0.0159,0.0458 0.0236,0.0689 0.005,0.0145 0.01,0.0288 0.0148,0.0434 1.30734,3.90139 4.73589,6.72076 8.79689,7.21914 0.8646,0.10611 2.39546,0.0591 3.2525,-0.0997 3.99288,-0.74015 7.2821,-3.82387 8.33784,-7.81707 0.0729,-0.27574 0.13285,-0.65516 0.17849,-1.07825 0.094,-0.65931 0.12729,-1.33599 0.0951,-2.02419 -0.006,-0.4267 -0.0293,-0.81497 -0.0749,-1.10652 -0.22686,-1.44995 -0.85919,-3.06666 -1.69191,-4.32576 -0.14245,-0.21538 -0.35258,-0.4798 -0.59293,-0.75868 -0.36285,-0.4443 -0.76089,-0.85916 -1.1902,-1.2398 -0.29959,-0.28114 -0.58611,-0.52871 -0.8151,-0.69096 -1.24344,-0.88098 -2.76532,-1.53504 -4.18513,-1.79884 -0.25233,-0.0469 -0.54705,-0.0826 -0.86246,-0.10816 -0.41082,-0.044 -0.81971,-0.0643 -1.22521,-0.0614 z"
       id="path9317-1-6-8-3-7-1-2-6" />
    <g
       id="g853"
       transform="matrix(0.03477432,0,0,0.03477432,-168.27274,182.48173)"
       style="fill:#ffffff">
      <path
         inkscape:connector-curvature="0"
         id="path815"
         style="fill:#ffffff;fill-rule:evenodd"
         d="m 189.4088,312.9542 h 3.45 v -18.2999 h 5.4 v 18.2999 h 75.1499 v -42.5999 h 5.4 v 42.5999 h 7.2 v 347.4 h -96.5999 z m 9,10.1999 h 65.9999 v 16.8001 h -65.9999 z m 0,28.3465 h 65.9999 v 16.8001 h -65.9999 z m 0,28.3465 h 65.9999 v 16.8 h -65.9999 z m 0,28.3464 h 65.9999 v 16.8001 h -65.9999 z m 0,28.3465 h 65.9999 v 16.8001 h -65.9999 z m 0,28.3464 h 65.9999 v 16.8001 h -65.9999 z m 0,28.3465 h 65.9999 v 16.8001 h -65.9999 z m 0,28.3464 h 65.9999 v 16.8001 h -65.9999 z m 0,28.3465 h 65.9999 v 16.8001 h -65.9999 z m 0,28.3465 h 65.9999 v 16.8 h -65.9999 z m 0,28.3464 h 65.9999 v 16.8001 h -65.9999 z" />
      <path
         inkscape:connector-curvature="0"
         id="path817"
         style="fill:#ffffff;fill-rule:evenodd"
         d="m 294.8579,613.4066 h 33.5999 V 179.0065 h -33.5999 z m 6.2614,-30.6964 22.0141,12.7924 -22.0861,12.6684 z m 20.3856,-27.8252 -22.0793,12.6799 22.0207,12.7809 z m 0,-55.3504 -22.0793,12.6799 22.0207,12.7809 z m -20.3856,27.8251 22.0141,12.7925 -22.0861,12.6683 z m 20.3856,-82.9887 -22.0793,12.6799 22.0207,12.7808 z m -20.3856,27.8251 22.0141,12.7925 -22.0861,12.6683 z m 20.3856,-83.1756 -22.0793,12.68 22.0207,12.7808 z m -20.3856,27.8252 22.0141,12.7925 -22.0861,12.6683 z m 20.3856,-82.4649 -22.0793,12.6799 22.0207,12.7808 z m -20.3856,27.8251 22.0141,12.7925 -22.0861,12.6683 z m 20.3856,-83.1756 -22.0793,12.68 22.0207,12.7808 z m -20.3856,27.8252 22.0141,12.7925 -22.0861,12.6683 z m 20.3856,-82.9888 -22.0793,12.6799 22.0207,12.7809 z m -20.3856,27.8252 22.0141,12.7924 -22.0861,12.6684 z m 0,-55.3505 22.0141,12.7925 -22.0861,12.6683 z m 6.8091,-10.2101 2.5075,1.4553 11.0104,6.3905 0.0178,-7.8458 z m 15.1333,419.6461 -4.6128,2.6804 h 4.6205 z" />
      <path
         inkscape:connector-curvature="0"
         id="path819"
         style="fill:#ffffff;fill-rule:evenodd"
         d="M 388.025,228.8378 H 119.452 l -15.5673,26.5884 H 374.366 l 13.659,-22.3752 z m -32.1418,5.5021 10.0341,17.4719 10.1138,-17.4257 z m -43.6521,0 10.0338,17.4719 10.1137,-17.4257 z m 22.0187,16.1314 10.1228,-17.4203 10.0247,17.4773 z m -65.8191,-16.1314 10.0341,17.4719 10.1138,-17.4257 z m 22.019,16.1314 10.1228,-17.4203 10.0247,17.4773 z m -65.2567,-16.1314 10.0341,17.4719 10.1138,-17.4257 z m 22.0187,16.1314 10.1231,-17.4203 10.0247,17.4773 z m -65.8188,-16.1314 10.0341,17.4719 10.1138,-17.4257 z m 22.0187,16.1314 10.1231,-17.4203 10.0247,17.4773 z m -65.6708,-16.1314 10.0338,17.4719 10.1137,-17.4257 z m 22.0187,16.1314 10.1228,-17.4203 10.0247,17.4773 z m -43.8001,0 10.1228,-17.4203 10.0247,17.4773 z" />
      <path
         inkscape:connector-curvature="0"
         id="path821"
         style="fill:#ffffff;fill-rule:evenodd"
         d="m 283.693,212.6078 v 77.4 h 60.0001 v -77.4 z" />
      <path
         inkscape:connector-curvature="0"
         id="path823"
         style="fill:#ffffff;fill-rule:evenodd"
         d="m 317.893,220.4079 v 30.0634 h 16.3568 v -30.0634 z" />
      <path
         inkscape:connector-curvature="0"
         id="path825"
         style="fill:#ffffff;fill-rule:evenodd"
         d="m 114.4925,259.7148 v 133.8001 h 5.4 V 259.7148 Z" />
      <path
         inkscape:connector-curvature="0"
         id="path827"
         style="fill:#ffffff;fill-rule:evenodd"
         d="m 111.0327,394.9274 h 12.0188 c 2.3714,0 4.5702,1.9553 4.3113,4.3118 l -1.6973,15.4501 c -0.2587,2.3562 -1.9411,4.3119 -4.3117,4.3119 h -8.6234 c -2.3709,0 -4.053,-1.9549 -4.3117,-4.3119 l -1.6973,-15.4501 c -0.2592,-2.3573 1.9399,-4.3118 4.3113,-4.3118 z m -2.2124,9.7546 5.402,-7.8678 h 2.5504 l -7.6354,10.9586 z m 12.3541,-7.823 2.3354,0.0446 -12.7107,18.1903 -0.5053,-2.9936 z m 4.0903,5.292 -11.5421,15.153 2.9825,0.0126 8.2866,-11.3851 z m -1.3507,10.9666 -3.189,4.2669 h 1.7067 l 1.0781,-1.4375 z m -12.7774,-16.2374 -2.6052,3.1438 -0.0898,-1.1901 1.6169,-1.9985 z" />
      <path
         inkscape:connector-curvature="0"
         id="path829"
         style="fill:#ffffff;fill-rule:evenodd"
         d="m 121.6491,420.8491 v 5.218 c 0,3.0917 -1.8459,5.0306 -3.8276,7.1127 -0.7382,0.7758 -2.5484,1.8408 -1.3487,3.5929 2.5656,3.7474 7.7346,-0.5159 10.6421,-1.4491 1.8402,5.6744 -2.7491,9.4941 -7.9336,10.0522 -6.0721,0.6526 -12.06,-2.819 -11.975,-9.5538 0.0692,-5.5166 5.9389,-9.586 5.9389,-9.7549 v -5.218 z" />
      <path
         inkscape:connector-curvature="0"
         id="path831"
         style="fill:#ffffff;fill-rule:evenodd"
         d="M 294.8309,619.9534 H 401.631 v 15.6 H 294.8309 Z m 0,25.8001 H 401.631 v 15.5999 H 294.8309 Z" />
      <path
         inkscape:connector-curvature="0"
         id="path833"
         style="fill:#ffffff;fill-rule:evenodd"
         d="m 72.381,504.453 h 93.6003 v 28.2002 H 72.381 Z m 55.4414,-54.3382 -1.9789,1.3584 33.1047,48.232 1.9789,-1.3583 z m -18.5536,0 1.9789,1.3584 -33.1047,48.232 -1.9789,-1.3583 z" />
    </g>
  </g>
  <style
     id="style24296"
     type="text/css">
	.st0{fill:none;stroke:#000000;stroke-width:2;stroke-linecap:round;stroke-linejoin:round;stroke-miterlimit:10;}
</style>
  <style
     id="style24326"
     type="text/css">
	.st0{fill:none;stroke:#000000;stroke-width:2;stroke-linecap:round;stroke-linejoin:round;stroke-miterlimit:10;}
</style>
</svg>
