<?xml version="1.0" encoding="UTF-8" standalone="no"?>
<svg
   xmlns:dc="http://purl.org/dc/elements/1.1/"
   xmlns:cc="http://creativecommons.org/ns#"
   xmlns:rdf="http://www.w3.org/1999/02/22-rdf-syntax-ns#"
   xmlns:svg="http://www.w3.org/2000/svg"
   xmlns="http://www.w3.org/2000/svg"
   xmlns:sodipodi="http://sodipodi.sourceforge.net/DTD/sodipodi-0.dtd"
   xmlns:inkscape="http://www.inkscape.org/namespaces/inkscape"
   width="39.687504mm"
   height="39.6875mm"
   viewBox="0 0 39.687504 39.6875"
   version="1.1"
   id="svg90"
   inkscape:version="1.0 (4035a4fb49, 2020-05-01)"
   sodipodi:docname="مشروع صحي.svg"
   inkscape:export-filename="C:\Users\abshuwaier\Desktop\icon\New folder\مشروع صحي.png"
   inkscape:export-xdpi="300.16"
   inkscape:export-ydpi="300.16">
  <defs
     id="defs84" />
  <sodipodi:namedview
     fit-margin-bottom="0"
     fit-margin-right="0"
     fit-margin-left="0"
     fit-margin-top="0"
     id="base"
     pagecolor="#ffffff"
     bordercolor="#666666"
     borderopacity="1.0"
     inkscape:pageopacity="0.0"
     inkscape:pageshadow="2"
     inkscape:zoom="0.35"
     inkscape:cx="614.58944"
     inkscape:cy="301.73101"
     inkscape:document-units="mm"
     inkscape:current-layer="layer1"
     inkscape:document-rotation="0"
     showgrid="false"
     inkscape:window-width="1424"
     inkscape:window-height="1030"
     inkscape:window-x="224"
     inkscape:window-y="0"
     inkscape:window-maximized="0" />
  <metadata
     id="metadata87">
    <rdf:RDF>
      <cc:Work
         rdf:about="">
        <dc:format>image/svg+xml</dc:format>
        <dc:type
           rdf:resource="http://purl.org/dc/dcmitype/StillImage" />
        <dc:title></dc:title>
      </cc:Work>
    </rdf:RDF>
  </metadata>
  <g
     transform="translate(-91.767854,-68.333669)"
     inkscape:label="Layer 1"
     inkscape:groupmode="layer"
     id="layer1">
    <path
       inkscape:connector-curvature="0"
       id="path17973-2-83-8"
       d="m 114.24668,68.333928 h -6e-5 c -0.0333,0 -0.0654,0 -0.0965,0.002 -0.15406,-0.007 -0.27051,0.015 -0.37729,0.079 -0.35741,0.155939 -0.55952,0.553135 -0.90169,1.322809 -0.73777,1.659585 -1.81912,2.288099 -3.93653,2.288099 -0.87835,0 -1.47924,-0.0704 -1.97161,-0.279847 -0.37654,-0.210388 -0.74345,-0.500506 -1.12615,-0.879812 -0.0416,-0.0479 -0.0835,-0.0977 -0.1259,-0.149419 -1.07455,-1.310618 -1.23407,-1.351138 -2.66155,-0.676434 -0.6776,0.320287 -1.84549,0.978991 -2.59539,1.463817 l -1.363453,0.881562 0.142345,0.765163 c 0.0783,0.420827 0.25975,1.086321 0.40318,1.478827 0.152055,0.416037 0.206765,0.996902 0.131275,1.392788 -0.204695,1.073301 -1.256805,2.719616 -2.152365,3.368 -0.763275,0.552595 -0.94319,0.594045 -2.577314,0.594045 -0.259793,0 -0.480765,6e-5 -0.670637,0.003 -0.195052,-0.008 -0.361304,-0.004 -0.505205,0.0165 -0.592107,0.0396 -0.673897,0.160588 -0.864919,0.529795 -0.494295,0.955272 -1.307274,4.543089 -1.222993,5.280114 0.001,0.0884 0.0102,0.1504 0.0289,0.18064 0.0368,0.0595 0.249093,0.194995 0.555266,0.361865 0.316413,0.20236 0.732788,0.437875 1.165942,0.653735 1.397864,0.696685 1.563516,0.845475 2.052221,1.843825 0.929529,1.89876 0.413844,3.901215 -1.326364,5.150735 -1.272243,0.9135 -1.394924,1.424745 -0.688637,2.869435 0.92168,1.88529 2.287714,3.80334 2.70881,3.80334 0.20938,0 0.852015,-0.17905 1.428035,-0.39787 0.675865,-0.25673 1.17961,-0.38156 1.665725,-0.37096 0.0629,0.002 0.12607,0.006 0.18937,0.011 0.424125,0.0402 0.850198,0.18479 1.382148,0.43614 0.38187,0.18043 0.72025,0.37862 1.01611,0.59609 0.34368,0.29683 0.68225,0.64226 0.95966,0.97796 0.51623,0.76314 0.70629,1.69464 0.59009,2.82862 -0.091,0.88752 -0.0572,1.37419 0.10947,1.57486 0.2375,0.28598 2.5362,1.12138 4.09336,1.48762 0.64554,0.15183 1.07902,0.22572 1.41338,0.1685 0.10084,0.0173 0.17337,0.0284 0.20613,0.0311 0.21049,0.0174 0.50684,-0.3459 0.77253,-0.91003 0.0921,-0.16062 0.18895,-0.34573 0.2955,-0.55796 0.59055,-1.17568 0.83638,-1.45802 1.61204,-1.85166 2.19913,-1.11606 4.42258,-0.73648 5.64469,0.96362 0.4804,0.6683 0.84655,0.98201 1.1464,0.98201 h 0.0156 0.006 c 0.0169,0 0.0383,-0.003 0.0639,-0.008 0.71192,-0.11339 3.31326,-1.42697 4.48272,-2.27852 0.87581,-0.63772 0.91845,-0.71172 0.76858,-1.33327 -0.0873,-0.36191 -0.30301,-0.99091 -0.47932,-1.39776 -0.41309,-0.95304 -0.39952,-1.65476 0.0511,-2.64274 0.2096,-0.459525 0.42626,-0.851405 0.66185,-1.18328 0.12476,-0.15302 0.26079,-0.30498 0.40833,-0.455565 0.1816,-0.18543 0.35862,-0.34749 0.53451,-0.487675 0.69311,-0.46445 1.56594,-0.651545 2.76841,-0.656355 0.56701,0.0705 0.95481,0.0874 1.24819,-0.002 l 0.47146,-0.001 0.37774,-0.795885 c 0.49611,-1.04536 1.41099,-4.748865 1.26625,-5.125875 -0.0623,-0.162095 -0.54595,-0.498575 -1.07484,-0.7477 -1.36914,-0.644895 -2.02278,-1.32659 -2.35999,-2.46141 -0.15623,-0.525755 -0.2527,-1.02114 -0.28985,-1.485185 -0.003,-0.0823 -0.004,-0.16579 -0.004,-0.25045 0,-0.25507 0.004,-0.481575 0.0142,-0.686375 0.10891,-0.977071 0.5398,-1.779534 1.28993,-2.393859 0.49024,-0.401476 0.94367,-0.938342 1.00764,-1.193069 0.008,-0.0331 0.013,-0.071 0.0141,-0.113099 0.0278,-0.140089 -0.01,-0.282278 -0.0803,-0.489976 -0.23046,-0.814253 -0.93775,-2.178141 -1.90242,-3.620508 -0.83344,-1.246189 -0.84771,-1.256289 -1.60836,-1.13841 -0.42209,0.0654 -1.02235,0.250678 -1.3339,0.411706 -0.68767,0.355387 -1.05549,0.356377 -2.03989,0.005 -1.11398,-0.397126 -2.26964,-1.261749 -2.7777,-2.078231 -0.34601,-0.556095 -0.46952,-1.118801 -0.54654,-2.489958 l -0.0284,-0.505426 c 0.0372,-0.516955 0.0327,-0.774863 -0.0533,-0.949472 l -0.0178,-0.316617 -1.2247,-0.456826 c -0.67357,-0.251317 -1.95288,-0.604404 -2.84298,-0.784633 -0.59462,-0.120439 -1.01578,-0.197808 -1.33453,-0.200458 z m -2.62153,5.396822 c 0.44064,9e-5 0.88072,0.0212 1.3182,0.0638 4.38216,0.426896 8.29132,2.770155 10.73221,6.433113 1.26605,1.899873 2.09911,4.268302 2.3285,6.620232 0.36169,3.70884 -0.84937,7.647365 -3.22783,10.49742 -0.58142,0.69666 -1.82196,1.88761 -2.48104,2.381885 -2.88266,2.16164 -6.57887,3.19134 -10.14305,2.82576 -2.77562,-0.28471 -5.6133,-1.46944 -7.71812,-3.222385 -0.26477,-0.22051 -0.60332,-0.539145 -0.94789,-0.88492 -0.15718,-0.15477 -0.31051,-0.31281 -0.45978,-0.47396 -0.39112,-0.414075 -0.7498,-0.82266 -0.96959,-1.11543 -2.142173,-2.853405 -3.177653,-6.50763 -2.836238,-10.00837 0.28053,-2.876605 1.442305,-5.69729 3.227738,-7.836731 0.58141,-0.696654 1.82196,-1.887614 2.48106,-2.381889 2.49611,-1.871774 5.61136,-2.899745 8.69583,-2.898535 z m -0.0638,1.267279 c -0.90523,0.002 -1.8157,0.0983 -2.71611,0.292868 -1.08567,0.234607 -1.90461,0.516525 -2.91949,1.005001 -3.7818,1.820114 -6.400298,5.169434 -7.243473,9.265107 -0.497735,2.41761 -0.263975,5.137725 0.637015,7.411995 0.812468,2.050865 2.135538,3.897405 3.775668,5.269465 2.06042,1.723665 4.57778,2.786595 7.2661,3.068095 0.85827,0.0899 2.48966,0.0247 3.44568,-0.13765 5.35839,-0.91002 9.60524,-4.985055 10.70741,-10.27421 0.82398,-3.954165 -0.15104,-7.924881 -2.72748,-11.107543 -2.47862,-3.061873 -6.30268,-4.803988 -10.22532,-4.793128 z m 0.0517,5.71494 c 1.33639,0 1.52231,0.006 1.66503,0.0498 0.47939,0.148779 0.83335,0.479476 1.03258,0.964812 0.0613,0.149388 0.0632,0.196058 0.0774,1.904813 l 0.0146,1.751656 1.75262,0.0146 c 1.70973,0.0142 1.7564,0.0162 1.90582,0.0774 0.40367,0.165545 0.68641,0.423735 0.85844,0.78385 0.16712,0.34984 0.17644,0.46533 0.16453,2.048015 -0.009,1.20861 -0.0171,1.416595 -0.0593,1.543275 -0.15882,0.476185 -0.48539,0.820835 -0.96369,1.01696 -0.14942,0.0613 -0.19609,0.0632 -1.90582,0.0774 l -1.75262,0.0146 -0.0146,1.751645 c -0.0143,1.708765 -0.0161,1.755435 -0.0774,1.904815 -0.2217,0.540055 -0.67511,0.91501 -1.20783,0.9989 -0.23307,0.0367 -2.78086,0.0344 -3.00872,-0.003 v 6e-5 c -0.39521,-0.0644 -0.84452,-0.378945 -1.04742,-0.733365 -0.20334,-0.355285 -0.19204,-0.236845 -0.20842,-2.16767 l -0.0148,-1.751635 -1.75269,-0.0147 c -1.70972,-0.0142 -1.75636,-0.0161 -1.90582,-0.0774 -0.54036,-0.221585 -0.91558,-0.674675 -0.99953,-1.2071 -0.0394,-0.249805 -0.0394,-2.727965 0,-2.9778 0.084,-0.532415 0.45917,-0.985595 0.99953,-1.20721 0.14946,-0.0613 0.1961,-0.0632 1.90582,-0.0774 l 1.75269,-0.0146 0.0146,-1.751716 c 0.0143,-1.708755 0.0162,-1.755425 0.0775,-1.904813 0.19926,-0.485336 0.55312,-0.815973 1.03251,-0.964742 0.14273,-0.0443 0.32867,-0.0498 1.66502,-0.0498 z"
       style="fill:#f27070;fill-opacity:1;stroke-width:0.199024" />
  </g>
</svg>
