<?xml version="1.0" encoding="UTF-8" standalone="no"?>
<!-- Created with Inkscape (http://www.inkscape.org/) -->

<svg
   xmlns:dc="http://purl.org/dc/elements/1.1/"
   xmlns:cc="http://creativecommons.org/ns#"
   xmlns:rdf="http://www.w3.org/1999/02/22-rdf-syntax-ns#"
   xmlns:svg="http://www.w3.org/2000/svg"
   xmlns="http://www.w3.org/2000/svg"
   xmlns:xlink="http://www.w3.org/1999/xlink"
   xmlns:sodipodi="http://sodipodi.sourceforge.net/DTD/sodipodi-0.dtd"
   xmlns:inkscape="http://www.inkscape.org/namespaces/inkscape"
   width="40.20892mm"
   height="43.837795mm"
   viewBox="0 0 40.208919 43.837795"
   version="1.1"
   id="svg8"
   inkscape:version="0.92.4 (5da689c313, 2019-01-14)"
   sodipodi:docname="KPIS.svg">
  <defs
     id="defs2">
    <linearGradient
       inkscape:collect="always"
       xlink:href="#linearGradient4172"
       id="linearGradient2329"
       gradientUnits="userSpaceOnUse"
       gradientTransform="matrix(0.29595471,0,0,0.29595471,128.76774,95.205026)"
       x1="258.62305"
       y1="634.02356"
       x2="368.55933"
       y2="634.02356" />
    <linearGradient
       id="linearGradient4172"
       inkscape:collect="always">
      <stop
         style="stop-color:#407ec9;stop-opacity:1"
         offset="0"
         id="stop4170" />
      <stop
         style="stop-color:#2cd5c4;stop-opacity:1;"
         offset="1"
         id="stop4168" />
    </linearGradient>
  </defs>
  <sodipodi:namedview
     id="base"
     pagecolor="#ffffff"
     bordercolor="#666666"
     borderopacity="1.0"
     inkscape:pageopacity="0.0"
     inkscape:pageshadow="2"
     inkscape:zoom="0.35"
     inkscape:cx="-895.96881"
     inkscape:cy="598.81762"
     inkscape:document-units="mm"
     inkscape:current-layer="layer1"
     showgrid="false"
     fit-margin-top="0"
     fit-margin-left="0"
     fit-margin-right="0"
     fit-margin-bottom="0"
     inkscape:window-width="1920"
     inkscape:window-height="1001"
     inkscape:window-x="-9"
     inkscape:window-y="-9"
     inkscape:window-maximized="1" />
  <metadata
     id="metadata5">
    <rdf:RDF>
      <cc:Work
         rdf:about="">
        <dc:format>image/svg+xml</dc:format>
        <dc:type
           rdf:resource="http://purl.org/dc/dcmitype/StillImage" />
        <dc:title></dc:title>
      </cc:Work>
    </rdf:RDF>
  </metadata>
  <g
     inkscape:label="Layer 1"
     inkscape:groupmode="layer"
     id="layer1"
     transform="translate(-205.30841,-263.4327)">
    <path
       style="fill:url(#linearGradient2329);fill-opacity:1;stroke-width:0.06730041"
       d="m 206.11818,263.43277 -0.80977,0.88728 0.0543,15.03319 3.04581,-3.58944 10.75439,-0.12971 0.76067,-0.85214 v -10.58592 l -0.26872,-0.26924 c -0.0434,-0.0691 -0.0952,-0.12924 -0.16795,-0.18035 -0.007,-0.007 -0.0138,-0.0142 -0.0207,-0.0202 l -0.0889,-0.0765 -0.21652,-0.21704 h -0.0351 -6.44767 -0.0563 c -2.16785,6e-5 -6.50348,0 -6.50348,0 z m 2.03037,3.09697 h 6.95668 v 0.81442 h -6.95668 z m 0,2.54454 h 9.41803 v 0.94517 h -9.41803 z m 0,2.54507 h 9.41803 v 0.94516 h -9.41803 z m 19.20141,1.08107 -0.001,5.3e-4 c -0.35425,0 -0.70468,0.004 -1.02578,0.0109 -0.52506,0.005 -0.82852,0.0176 -0.99838,0.0444 -0.16044,0.0143 -0.26802,0.0307 -0.28785,0.0506 -0.0222,0.0222 -0.0396,0.1432 -0.0537,0.3607 -0.0414,0.39352 -0.0454,1.33364 -0.0455,3.6556 v 0.0594 0.0191 0.0186 c 5e-5,0.53206 -7e-5,1.0423 0.002,1.50585 0.004,1.42334 0.0156,2.43241 0.0279,2.43241 h 0.001 c 0.0171,0 0.4176,-0.17176 0.89039,-0.38137 0.90753,-0.40237 2.49771,-0.89506 3.19567,-0.99012 0.22872,-0.0311 0.48116,-0.075 0.5612,-0.0972 0.0201,-0.005 0.0381,-0.0167 0.0532,-0.0393 l 0.0925,-0.0181 v -3.16001 -0.0202 -0.0238 -0.11782 c -3.2e-4,-1.45419 -0.006,-2.23299 -0.031,-2.6417 -0.0157,-0.35434 -0.0379,-0.53142 -0.0687,-0.56224 -0.0178,-0.0178 -0.10268,-0.033 -0.23668,-0.0465 -0.15927,-0.0325 -0.48725,-0.0444 -1.08624,-0.0491 -0.31116,-0.007 -0.64794,-0.0109 -0.98857,-0.0109 z m -6.53087,5.41414 c -2.00872,1e-5 -2.12907,0.009 -2.28668,0.16536 -0.16253,0.16254 -0.16602,0.27577 -0.16329,4.92838 l 0.002,4.76199 0.43357,-0.83354 c 0.23863,-0.45845 0.62075,-1.11415 0.84904,-1.45624 0.83635,-1.25316 2.02859,-2.52374 3.26543,-3.48093 l 0.35347,-0.27337 v -1.73943 c 0,-1.62872 -0.011,-1.75111 -0.1664,-1.90686 -0.15761,-0.15761 -0.27744,-0.16535 -2.28616,-0.16536 h -5.3e-4 z m 10.60349,1.95647 -0.97048,0.0992 c -1.3105,0.13422 -3.02816,0.59826 -4.25969,1.15083 -0.39399,0.17676 -0.66303,0.25411 -0.7829,0.38706 -0.0609,0.04 -0.10504,0.0768 -0.13333,0.11007 l -0.0873,0.0413 0.33642,0.56637 c 0.20854,0.40561 0.59679,1.02532 1.20147,2.03554 l 1.19373,1.99523 0.005,-0.002 0.0186,0.031 0.39688,-0.19895 0.47335,-0.19172 c 0.30557,-0.12346 0.71755,-0.25326 1.09399,-0.34933 0.13161,-0.0313 0.29694,-0.067 0.4532,-0.10129 0.057,-0.0111 0.11139,-0.0197 0.16123,-0.0269 l 0.81598,-0.11731 0.001,-0.0734 0.0744,-0.0124 v -0.004 -0.0336 -2.61896 -0.002 -0.002 -5.1e-4 -0.001 -2.19883 z m 0.75138,0.004 v 0.0393 h -0.006 l 0.006,0.46095 v 2.17351 0.0682 0.0181 2.57969 l 0.0749,0.0124 5.3e-4,0.078 0.77463,0.0941 c 0.0502,0.005 0.0999,0.0145 0.14986,0.0217 0.64678,0.13409 1.09564,0.24844 1.49655,0.38809 0.65872,0.24518 1.2713,0.55619 1.83038,0.92914 0.0345,0.0236 0.0693,0.0465 0.10336,0.0708 0.90744,0.64255 1.69174,1.46928 2.28513,2.42362 0.006,0.01 0.0128,0.0201 0.0186,0.03 0.0918,0.1491 0.17924,0.30073 0.26148,0.45579 0.002,0.004 0.004,0.0101 0.007,0.015 2.7e-4,5.3e-4 0.001,10e-4 0.001,0.002 0.0369,0.07 0.072,0.14022 0.10697,0.21136 0.0161,0.0328 0.0313,0.0657 0.047,0.0987 0.11171,0.23616 0.21342,0.47803 0.30179,0.72554 0.4316,1.20863 0.54623,3.6112 0.22841,4.78265 -0.0172,0.0629 -0.03,0.11939 -0.0444,0.17932 -0.10579,0.36023 -0.17755,0.65201 -0.16123,0.66249 5.3e-4,2.7e-4 0.0763,0.0324 0.0791,0.0336 0.001,5.3e-4 7.9e-4,0.002 0.004,0.002 0.0374,0.0156 0.89154,0.37946 1.5787,0.67179 0.32929,0.13991 0.33246,0.14243 0.72607,0.30903 0.029,0.0125 0.0466,0.0193 0.0755,0.0315 0.0269,0.0111 0.0446,0.0187 0.0713,0.03 1.21746,0.51758 2.2561,0.9451 2.31407,0.95189 0.0346,0.004 0.0826,-0.0661 0.1385,-0.18862 0.007,-0.005 0.0141,-0.0141 0.0186,-0.0217 0.002,-0.004 0.006,-0.015 0.01,-0.0212 0.1298,-0.23764 0.25829,-0.65721 0.37104,-1.17253 0.14686,-0.54379 0.25562,-1.09436 0.33073,-1.64797 0.007,-0.0418 0.0146,-0.0862 0.0207,-0.12712 0.2583,-1.76649 0.10217,-3.58171 -0.39377,-5.31285 -0.16854,-0.61291 -0.38141,-1.20915 -0.63356,-1.78697 -0.0111,-0.0272 -0.0237,-0.0547 -0.0357,-0.0817 -0.031,-0.0698 -0.0628,-0.13897 -0.0951,-0.20826 -0.60135,-1.30883 -1.40947,-2.53059 -2.41277,-3.60288 -1.07162,-1.16926 -2.34089,-2.14918 -3.75998,-2.84841 -1.78336,-0.87871 -3.9877,-1.49034 -5.37331,-1.49034 h -0.11473 z m -7.68222,2.16215 -5.3e-4,5e-4 v 0.002 c -0.001,0 -0.006,0.002 -0.009,0.002 -7.9e-4,-2.9e-4 -0.002,-10e-5 -0.002,-0.002 -0.10381,2.1e-4 -0.44934,0.24296 -0.87127,0.58704 -0.0331,0.0261 -0.0674,0.054 -0.1018,0.0822 -0.0329,0.0273 -0.0655,0.0551 -0.0992,0.0837 -0.0559,0.0471 -0.11154,0.0942 -0.1695,0.14573 -0.3149,0.27242 -0.64314,0.57356 -0.94257,0.87023 -0.14796,0.14083 -0.28735,0.27652 -0.39895,0.39481 -0.18949,0.20084 -0.41966,0.47763 -0.65887,0.78497 -0.77439,0.95914 -1.51309,2.05446 -1.51309,2.30115 0,10e-4 0.002,0.004 0.002,0.004 -9.5e-4,0.004 -0.001,0.0101 -0.001,0.014 l -0.0289,0.0501 0.2868,0.13746 c 0.14667,0.0854 0.36288,0.20044 0.61082,0.32815 0.39794,0.20911 0.89714,0.45728 1.4459,0.71365 1.27349,0.59498 2.35733,1.08421 2.40813,1.08727 0.006,3.2e-4 0.0149,-0.005 0.0269,-0.015 l 0.005,0.002 0.0114,-0.016 c 0.10072,-0.0897 0.3409,-0.40489 0.59221,-0.78341 0.22083,-0.3326 0.61602,-0.79744 0.99167,-1.17616 0.0293,-0.0289 0.0595,-0.0589 0.0884,-0.0863 0.0601,-0.057 0.11868,-0.11027 0.17518,-0.15968 0.0848,-0.0744 0.1621,-0.14624 0.23926,-0.21755 l 0.70901,-0.61136 -1.36115,-2.26136 c -0.29115,-0.48375 -0.55383,-0.90918 -0.78549,-1.27796 -0.0594,-0.0966 -0.12675,-0.20662 -0.18035,-0.29248 l -0.40617,-0.69092 -0.0372,0.0212 h -0.001 c -0.0111,-0.0125 -0.0201,-0.0217 -0.0243,-0.0217 z m -16.70803,1.36684 c -1.16105,1e-5 -1.71655,0.007 -2.00659,0.0393 l -0.2558,0.002 -0.0408,0.0801 c -0.007,0.004 -0.0133,0.0107 -0.0196,0.016 -0.1453,0.13147 -0.15245,0.48824 -0.15245,7.98452 0,7.73591 0.002,7.84895 0.1664,8.01295 0.15765,0.15763 0.27774,0.1664 2.28772,0.1664 2.00997,0 2.12954,-0.009 2.2872,-0.1664 0.16397,-0.16397 0.16639,-0.27719 0.16639,-7.96592 0,-6.92467 -0.0153,-7.81988 -0.13022,-7.98401 -0.0195,-0.0278 -0.0363,-0.0512 -0.0589,-0.0713 -0.002,-0.0111 -0.006,-0.0196 -0.009,-0.0217 -0.0111,-0.01 -0.0383,-0.018 -0.0754,-0.0258 -0.18322,-0.0649 -0.64122,-0.0661 -2.15801,-0.0661 z m 6.50762,2.64635 c -1.04484,0 -2.0898,0.0483 -2.22726,0.14469 l -0.185,0.12919 v 6.53139 0.03 6.56135 l 0.185,0.1292 c 0.15512,0.10863 0.51344,0.12919 2.22726,0.12919 1.71381,0 2.07161,-0.0204 2.22673,-0.12919 l 0.18501,-0.1292 v -6.56135 -0.03 -6.53139 l -0.18501,-0.12919 c -0.13744,-0.0961 -1.1819,-0.14466 -2.22673,-0.14469 z m 5.05757,2.06189 -5.3e-4,5e-4 c -0.0307,9.6e-4 -0.20369,0.44585 -0.38447,0.98909 -0.43553,1.30884 -0.74637,3.10255 -0.75293,4.34289 -0.004,0.94518 0.27173,2.88149 0.52297,3.76101 0.0616,0.2386 0.11953,0.41542 0.16588,0.49041 0.0273,0.0444 0.0297,0.0821 0.0631,0.0977 l 0.007,0.0264 0.005,-0.001 5.3e-4,0.002 0.009,-0.004 c 0.006,0.005 0.0109,0.0114 0.0155,0.0114 0.01,0 0.0948,-0.0296 0.18551,-0.061 0.018,-0.004 0.0367,-0.007 0.0568,-0.0145 0.006,-0.002 0.10267,-0.0388 0.11317,-0.0429 0.37669,-0.10171 1.07207,-0.37105 2.41691,-0.87798 0.6778,-0.25548 1.14462,-0.44003 1.46502,-0.58446 l 0.709,-0.26562 -0.001,-0.004 -0.006,-0.0207 -0.0191,-0.0687 c -0.004,-0.10616 -0.0418,-0.29425 -0.10284,-0.49868 -0.001,-0.004 -0.002,-0.009 -0.005,-0.0124 -0.0292,-0.35649 -0.0644,-0.8995 -0.094,-1.47537 -0.006,-0.10875 -0.0104,-0.20641 -0.014,-0.3054 9.5e-4,-0.83837 0.0633,-1.64208 0.18862,-2.15749 0.0769,-0.3161 0.13775,-0.59962 0.17518,-0.80564 0.002,-0.007 0.005,-0.016 0.009,-0.0233 0.004,-0.0111 0.004,-0.0233 10e-4,-0.0362 0.0237,-0.14059 0.0368,-0.24393 0.0253,-0.25374 -0.002,-0.002 -0.0417,-0.0198 -0.0506,-0.0248 -0.004,-0.005 -0.007,-0.011 -0.0134,-0.0124 -0.006,-0.002 -0.0551,-0.0238 -0.0729,-0.0315 -0.52991,-0.26514 -3.08811,-1.4562 -4.14496,-1.93322 l -0.40049,-0.19068 -0.006,0.0124 c -0.0143,-0.005 -0.0621,-0.0269 -0.0646,-0.0269 z m 4.81366,8.6527 -5.3e-4,10e-4 h 5.3e-4 z m -5.3e-4,10e-4 c -0.0114,1e-4 -0.083,0.0225 -0.18552,0.0563 -0.11741,0.0377 -0.29445,0.0991 -0.49351,0.1695 -0.0453,0.016 -0.0743,0.0257 -0.12299,0.0429 -1.36167,0.47956 -3.98507,1.43944 -4.0721,1.5012 -0.11407,0.0808 0.31564,0.99807 0.88574,1.94768 0.0166,0.0281 0.0333,0.0557 0.0501,0.0837 0.0289,0.0476 0.0567,0.0947 0.0863,0.14211 0.0737,0.11963 0.14916,0.23731 0.22686,0.3545 0.0111,0.0173 0.0222,0.0356 0.0336,0.0527 0.0139,0.0208 0.0291,0.0409 0.0429,0.0615 0.0592,0.0872 0.11953,0.17359 0.18087,0.25941 0.0386,0.054 0.078,0.10765 0.11782,0.16123 0.0753,0.10183 0.15137,0.20299 0.22944,0.30283 0.98602,1.26072 2.20438,2.35021 3.57963,3.19877 0.63332,0.4 1.28769,0.74527 1.94717,1.01647 0.44734,0.18397 0.90431,0.33728 1.06763,0.35967 0.0125,0.002 0.0265,0.004 0.0346,0.004 0.004,0 0.009,-0.002 0.0129,-0.002 0.004,0.001 0.0136,0.004 0.0155,0.004 0.0525,8e-4 0.0785,0.009 0.14934,-0.19844 0.15843,-0.31306 0.37868,-1.02386 0.72089,-2.30528 0.15288,-0.57252 0.28163,-1.08188 0.38654,-1.51102 0.0581,-0.22087 0.10376,-0.39922 0.14056,-0.54777 0.009,-0.0316 0.0182,-0.0701 0.0253,-0.0987 0.0363,-0.14947 0.0583,-0.24942 0.0584,-0.2713 0,-5.3e-4 -2.1e-4,-0.002 -5.3e-4,-0.002 0.001,-0.0111 0.006,-0.0294 0.006,-0.0377 9e-5,-10e-4 -0.005,-0.004 -0.006,-0.005 9.5e-4,-0.005 0.007,-0.0351 0.007,-0.0372 6e-5,-0.004 -0.004,-0.0123 -0.0109,-0.0191 6.4e-4,-0.0111 -4.5e-4,-0.0195 -0.002,-0.0212 -0.0341,-0.0252 -0.54044,-0.27519 -1.125,-0.55604 -0.0942,-0.0452 -0.19029,-0.0969 -0.28732,-0.15141 -0.812,-0.47045 -1.7568,-1.28662 -2.44688,-2.07946 -0.30892,-0.36778 -0.56705,-0.73665 -0.73897,-1.0759 -0.168,-0.33149 -0.34135,-0.61705 -0.44235,-0.73691 -0.0284,-0.0377 -0.0502,-0.0594 -0.062,-0.0594 -9.5e-4,0 -0.005,0.001 -0.005,0.001 -0.001,-2.7e-4 -0.004,-0.002 -0.004,-0.002 z m 15.18409,0.31626 -0.0165,0.0279 -0.0274,-0.0114 -0.14107,0.27698 c -1.1276,1.62301 -1.71715,2.26662 -2.65411,2.90318 -0.54843,0.37259 -1.03797,0.65311 -1.5322,0.86352 -0.32301,0.12939 -0.65687,0.23906 -0.99942,0.32814 -0.6429,0.1512 -1.35159,0.21457 -2.24224,0.22118 l -1.04438,0.007 -0.63873,-0.0341 -0.0109,0.0382 -0.0289,-0.001 -5e-4,0.002 h -0.01 l -0.67076,2.48047 c -0.0998,0.36862 -0.18975,0.71401 -0.27078,1.03353 -0.20721,0.77673 -0.37216,1.40665 -0.37363,1.44539 -3e-4,0.0111 0.0162,0.0232 0.0393,0.0372 -10e-4,0.0111 -0.005,0.0254 -0.002,0.0269 8e-5,8e-5 0.001,5.3e-4 0.001,5.3e-4 v 10e-4 c 9.5e-4,0.001 0.004,0.002 0.006,0.004 6.4e-4,8e-4 3.2e-4,0.004 10e-4,0.004 0.0399,0.0399 0.40392,0.12796 0.80874,0.19585 0.63877,0.10715 1.50222,0.14994 2.38642,0.13488 0.8304,-10e-4 1.64369,-0.0442 2.15542,-0.13488 0.28943,-0.0513 0.57941,-0.1131 0.8692,-0.18552 2.95181,-0.67741 5.76813,-2.43294 7.51168,-4.6948 0.60018,-0.77858 1.33259,-1.93959 1.60042,-2.50114 0.001,-0.001 0.002,-0.004 0.002,-0.004 2.7e-4,-5.3e-4 5.3e-4,-5.3e-4 0.001,-0.002 0.0125,-0.0253 0.021,-0.0478 0.031,-0.0703 0.004,-0.005 0.006,-0.0144 0.0103,-0.0202 0.001,-0.004 0.004,-0.007 0.004,-0.0108 0.004,-0.0111 0.009,-0.0213 0.0119,-0.031 0.004,-0.009 0.006,-0.0156 0.009,-0.0238 0.002,-0.005 0.004,-0.01 0.004,-0.0134 0.005,-0.0159 0.0121,-0.033 0.016,-0.0465 0.001,-0.002 7.9e-4,-0.004 0.002,-0.007 0.004,-0.0125 0.004,-0.0197 0.006,-0.0295 0.002,-0.0111 0.006,-0.0233 0.006,-0.031 v -10e-4 -0.001 -10e-4 c 0,-0.002 -0.004,-0.005 -0.004,-0.009 -0.004,-0.0111 -0.0126,-0.0234 -0.0258,-0.0377 0.002,-0.009 0.002,-0.0127 0.004,-0.0202 0.009,-0.0263 0.0137,-0.0459 0.009,-0.0496 -2.5e-4,-1.6e-4 -0.002,-2.7e-4 -0.002,-5.3e-4 -2.7e-4,-0.004 -10e-4,-0.009 -0.002,-0.0109 -2.7e-4,-0.001 5.3e-4,-0.004 0,-0.004 -1.8e-4,-1.5e-4 -0.004,-10e-4 -0.004,-0.002 -2.6e-4,-5.3e-4 -10e-4,-10e-4 -10e-4,-0.002 -0.007,-0.005 -0.0652,-0.0334 -0.15969,-0.0754 -0.14029,-0.0636 -0.40605,-0.1781 -0.68058,-0.29611 -0.41552,-0.20252 -0.94236,-0.44211 -1.52342,-0.68781 -0.45888,-0.19405 -0.81267,-0.34147 -1.11517,-0.46509 -0.36348,-0.15289 -0.73963,-0.3098 -1.13741,-0.47232 -0.0125,-0.004 -0.0294,-5.3e-4 -0.0506,0.0103 l -0.11161,-0.046 z"
       id="path2321"
       inkscape:connector-curvature="0" />
  </g>
</svg>
