<?xml version="1.0" encoding="UTF-8" standalone="no"?>
<!-- Created with Inkscape (http://www.inkscape.org/) -->

<svg
   xmlns:dc="http://purl.org/dc/elements/1.1/"
   xmlns:cc="http://creativecommons.org/ns#"
   xmlns:rdf="http://www.w3.org/1999/02/22-rdf-syntax-ns#"
   xmlns:svg="http://www.w3.org/2000/svg"
   xmlns="http://www.w3.org/2000/svg"
   xmlns:sodipodi="http://sodipodi.sourceforge.net/DTD/sodipodi-0.dtd"
   xmlns:inkscape="http://www.inkscape.org/namespaces/inkscape"
   width="21.166666mm"
   height="21.166666mm"
   viewBox="0 0 21.166666 21.166666"
   version="1.1"
   id="svg8"
   inkscape:version="0.92.4 (5da689c313, 2019-01-14)"
   sodipodi:docname="sakany.svg">
  <defs
     id="defs2" />
  <sodipodi:namedview
     id="base"
     pagecolor="#ffffff"
     bordercolor="#666666"
     borderopacity="1.0"
     inkscape:pageopacity="0.0"
     inkscape:pageshadow="2"
     inkscape:zoom="0.24748737"
     inkscape:cx="-1498.1649"
     inkscape:cy="495.80967"
     inkscape:document-units="mm"
     inkscape:current-layer="layer1"
     showgrid="false"
     fit-margin-top="0"
     fit-margin-left="0"
     fit-margin-right="0"
     fit-margin-bottom="0"
     inkscape:window-width="1920"
     inkscape:window-height="1121"
     inkscape:window-x="-9"
     inkscape:window-y="-9"
     inkscape:window-maximized="1" />
  <metadata
     id="metadata5">
    <rdf:RDF>
      <cc:Work
         rdf:about="">
        <dc:format>image/svg+xml</dc:format>
        <dc:type
           rdf:resource="http://purl.org/dc/dcmitype/StillImage" />
        <dc:title></dc:title>
      </cc:Work>
    </rdf:RDF>
  </metadata>
  <g
     inkscape:label="Layer 1"
     inkscape:groupmode="layer"
     id="layer1"
     transform="translate(-133.80357,-339.33332)">
    <circle
       style="fill:#0fc2b2;fill-opacity:1;stroke-width:0.26458332"
       id="Ellipse_65"
       data-name="Ellipse 65"
       cx="144.3869"
       cy="349.91666"
       r="10.583333" />
    <g
       id="g5325"
       transform="matrix(1.1398444,0,0,1.1398444,-20.191701,-48.933885)">
      <g
         transform="matrix(0.48365206,0,0,0.48365206,150.84395,252.4071)"
         id="g5315">
        <g
           data-name="Group 132"
           id="Group_132-0"
           transform="matrix(0.26458333,0,0,0.26458333,-29.157209,195.20706)"
           style="fill:#ffffff;fill-opacity:1">
          <path
             transform="translate(-1697.763,-112.662)"
             d="m 1708.24,155.426 a 2.629,2.629 0 0 0 -1.954,0.825 2.926,2.926 0 0 0 0,4 2.748,2.748 0 0 0 3.925,0 2.928,2.928 0 0 0 0,-4 2.653,2.653 0 0 0 -1.972,-0.825"
             data-name="Path 244"
             id="Path_244-9"
             inkscape:connector-curvature="0"
             style="fill:#ffffff;fill-opacity:1" />
          <path
             transform="translate(-1699.941,-112.662)"
             d="m 1716.96,155.426 a 2.65,2.65 0 0 0 -1.972,0.825 2.926,2.926 0 0 0 0,4 2.748,2.748 0 0 0 3.925,0 2.879,2.879 0 0 0 0,-4 2.63,2.63 0 0 0 -1.954,-0.825"
             data-name="Path 245"
             id="Path_245-8"
             inkscape:connector-curvature="0"
             style="fill:#ffffff;fill-opacity:1" />
          <path
             transform="translate(-1708.61,-102.788)"
             d="m 1751.677,121.738 a 2.877,2.877 0 0 0 2.9,-2.9 2.723,2.723 0 0 0 -0.843,-2.025 2.835,2.835 0 0 0 -2.062,-0.825 2.816,2.816 0 0 0 -2.849,2.849 2.834,2.834 0 0 0 0.825,2.061 2.759,2.759 0 0 0 2.025,0.843"
             data-name="Path 246"
             id="Path_246-2"
             inkscape:connector-curvature="0"
             style="fill:#ffffff;fill-opacity:1" />
          <path
             transform="translate(-1695.18,-98.381)"
             d="m 1792.982,122.6 h -5.842 a 48.252,48.252 0 0 1 0.467,6.609 37.016,37.016 0 0 1 -0.234,3.961 h -0.806 a 5.154,5.154 0 0 1 -2.957,-0.573 2.91,2.91 0 0 1 -0.718,-2.33 V 122.6 h -5.538 v 6.932 q 0,3.924 -2.42,3.925 a 1.784,1.784 0 0 1 -1.7,-0.825 7.271,7.271 0 0 1 -0.466,-3.137 v -6.829 h -5.843 v 6.234 a 6.257,6.257 0 0 1 -0.646,3.424 2.72,2.72 0 0 1 -2.312,0.842 h -4.1 c -0.375,-5.427 -2.6,-9.313 -6.824,-11.57 l 27.086,-16.521 v -6.7 L 1745.685,120 v 4.212 q 8.119,1.667 8.514,8.961 h -13.013 v -12.712 h -5.842 v 12.707 h -7.134 v -5.036 q 0,-4.014 -1.81,-5.968 -2.079,-2.205 -6.811,-2.2 a 40.683,40.683 0 0 0 -7.85,0.7 v 12.51 h -2.062 q -4.714,0 -6.7,-1.684 c -2.223,-1.883 -1.734,-5.2 -1.734,-7.794 v -3.228 h -6.062 v 6.254 c 0,0.524 0.026,1.026 0.073,1.513 q 0.922,9.49 13.834,9.492 h 8.227 v -13.03 a 10.369,10.369 0 0 1 1.935,-0.179 3.264,3.264 0 0 1 2.689,0.914 5.538,5.538 0 0 1 0.7,3.262 v 9.033 h 41.24 q 3.781,0 4.892,-2.384 0.968,2.671 5.018,2.67 4.159,0 5.485,-2.562 1.4,2.276 6.308,2.276 h 7.331 a 80.218,80.218 0 0 0 0.483,-8.854 46.936,46.936 0 0 0 -0.413,-6.269"
             data-name="Path 247"
             id="Path_247-1"
             inkscape:connector-curvature="0"
             style="fill:#ffffff;fill-opacity:1" />
        </g>
        <g
           transform="matrix(0.26458333,0,0,0.26458333,-6.6824429,195.20706)"
           data-name="Group 135"
           id="Group_135-2">
          <path
             transform="translate(-1808.49,-98.381)"
             d="m 1808.49,98.381 v 6.7 l 34.538,21.336 v -6.425 z"
             data-name="Path 248"
             id="Path_248-8"
             inkscape:connector-curvature="0"
             style="fill:#84939e" />
        </g>
      </g>
    </g>
  </g>
</svg>
