<?xml version="1.0" encoding="UTF-8" standalone="no"?>
<svg
   xmlns:dc="http://purl.org/dc/elements/1.1/"
   xmlns:cc="http://creativecommons.org/ns#"
   xmlns:rdf="http://www.w3.org/1999/02/22-rdf-syntax-ns#"
   xmlns:svg="http://www.w3.org/2000/svg"
   xmlns="http://www.w3.org/2000/svg"
   xmlns:sodipodi="http://sodipodi.sourceforge.net/DTD/sodipodi-0.dtd"
   xmlns:inkscape="http://www.inkscape.org/namespaces/inkscape"
   sodipodi:docname="مشروع مترو.svg"
   inkscape:version="1.0 (4035a4fb49, 2020-05-01)"
   id="svg344"
   version="1.1"
   viewBox="0 0 39.687492 39.687546"
   height="39.687546mm"
   width="39.687492mm">
  <defs
     id="defs338" />
  <sodipodi:namedview
     inkscape:window-maximized="0"
     inkscape:window-y="0"
     inkscape:window-x="96"
     inkscape:window-height="1030"
     inkscape:window-width="1424"
     fit-margin-bottom="0"
     fit-margin-right="0"
     fit-margin-left="0"
     fit-margin-top="0"
     showgrid="false"
     inkscape:document-rotation="0"
     inkscape:current-layer="layer1"
     inkscape:document-units="mm"
     inkscape:cy="530.31311"
     inkscape:cx="481.73199"
     inkscape:zoom="0.35"
     inkscape:pageshadow="2"
     inkscape:pageopacity="0.0"
     borderopacity="1.0"
     bordercolor="#666666"
     pagecolor="#ffffff"
     id="base" />
  <metadata
     id="metadata341">
    <rdf:RDF>
      <cc:Work
         rdf:about="">
        <dc:format>image/svg+xml</dc:format>
        <dc:type
           rdf:resource="http://purl.org/dc/dcmitype/StillImage" />
        <dc:title></dc:title>
      </cc:Work>
    </rdf:RDF>
  </metadata>
  <g
     transform="translate(21.624923,-7.8546555)"
     id="layer1"
     inkscape:groupmode="layer"
     inkscape:label="Layer 1">
    <path
       style="fill:#3a6f8f;fill-opacity:1;stroke-width:0.0772318"
       d="m 0.85370299,7.8546555 -6.393e-5,0.00121 c -0.0332941,0 -0.0653698,-1.21e-5 -0.0965046,0.00169 -0.15406598,-0.00724 -0.27051084,0.01503 -0.37729319,0.079012 -0.3574048,0.1559128 -0.55950956,0.5531316 -0.9016787,1.322792 C -1.2596031,10.918935 -2.3409372,11.54746 -4.4583326,11.54746 c -0.8783367,0 -1.4792226,-0.07045 -1.9715891,-0.279859 -0.3765247,-0.210377 -0.7434477,-0.500489 -1.1261246,-0.879795 -0.041606,-0.04796 -0.083513,-0.0977 -0.1259023,-0.149435 -1.0745426,-1.310596 -1.2340647,-1.3511154 -2.6615364,-0.676414 -0.677559,0.3202697 -1.84547,0.978976 -2.595359,1.463807 l -1.363441,0.881556 0.142344,0.765149 c 0.0783,0.420838 0.259742,1.086311 0.403208,1.478825 0.152019,0.416025 0.206725,0.99689 0.131235,1.392769 -0.204687,1.073296 -1.256792,2.719603 -2.152342,3.367983 -0.763268,0.552589 -0.943176,0.594037 -2.577289,0.594037 -0.25979,0 -0.480749,6.4e-5 -0.670634,0.0027 -0.195048,-0.0081 -0.361289,-0.004 -0.505202,0.01651 -0.592092,0.03958 -0.673879,0.160593 -0.86491,0.52979 -0.494285,0.95526 -1.307252,4.543052 -1.222979,5.28007 0.0013,0.08843 0.01013,0.1504 0.02889,0.180654 0.03678,0.05949 0.24909,0.194984 0.555263,0.36185 0.316415,0.202355 0.732808,0.437871 1.165933,0.653736 1.397857,0.696656 1.563495,0.845464 2.052194,1.843789 0.92952,1.89877 0.413848,3.901198 -1.326347,5.15072 -1.272232,0.913498 -1.394914,1.424735 -0.688621,2.869411 0.921656,1.885284 2.28769,3.80331 2.708776,3.80331 0.209415,0 0.852015,-0.179052 1.428051,-0.39787 0.675834,-0.256725 1.179564,-0.381552 1.665682,-0.370961 0.06288,0.0024 0.126059,0.0062 0.189366,0.01098 0.424126,0.04024 0.850193,0.184792 1.382139,0.436133 0.381856,0.180439 0.720238,0.378618 1.016097,0.596102 0.343677,0.296833 0.682251,0.642253 0.959654,0.977937 0.5162148,0.763137 0.7063169,1.694633 0.5900891,2.8286 -0.09098,0.887515 -0.057179,1.37418 0.1094602,1.57486 0.237498,0.285974 2.5361773,1.121366 4.0933156,1.48761 0.6455435,0.151824 1.079018,0.225703 1.4133703,0.16849 0.1008473,0.0173 0.1733705,0.02839 0.2061217,0.0311 0.2105007,0.0174 0.5068302,-0.345904 0.7725315,-0.910043 0.092126,-0.160603 0.1889439,-0.345721 0.2954971,-0.55794 0.5905358,-1.175671 0.8363692,-1.458017 1.6120249,-1.851654 2.19913488,-1.116056 4.4225406,-0.736474 5.6446267,0.96362 0.4803999,0.668297 0.8465504,0.982003 1.1464023,0.982003 h 0.015573 0.00639 c 0.016888,0 0.0383,-0.0027 0.06391,-0.008 0.7119024,-0.113393 3.3132323,-1.426957 4.4826751,-2.278499 0.8757915,-0.637727 0.9184475,-0.711722 0.7685625,-1.333261 -0.08728,-0.361923 -0.302999,-0.990906 -0.479314,-1.397763 -0.413076,-0.953016 -0.3995051,-1.654741 0.05111,-2.642716 0.209595,-0.459535 0.42626,-0.851398 0.661854,-1.183272 0.124744,-0.153018 0.260768,-0.304974 0.40831,-0.455567 0.181611,-0.185419 0.358624,-0.347484 0.534516,-0.487667 0.693094,-0.464445 1.565919,-0.65154 2.768378,-0.656353 0.567,0.0705 0.954806,0.0874 1.248166,-0.0019 l 0.471499,-0.0012 0.377705,-0.795873 c 0.496107,-1.045358 1.410972,-4.748845 1.266239,-5.125846 -0.06226,-0.162101 -0.545939,-0.498571 -1.074833,-0.747694 -1.369123,-0.644906 -2.022772,-1.326592 -2.35996,-2.461396 -0.156228,-0.525749 -0.252696,-1.021136 -0.289864,-1.485171 -0.0028,-0.08236 -0.0041,-0.16578 -0.0041,-0.250449 0,-0.25507 0.0037,-0.481575 0.01421,-0.686379 0.108919,-0.977057 0.539801,-1.779505 1.289918,-2.393843 0.49023,-0.401465 0.943657,-0.938324 1.007629,-1.193056 0.0082,-0.03311 0.01297,-0.07094 0.01415,-0.11309 0.02781,-0.140098 -0.0097,-0.282271 -0.08029,-0.489982 -0.230444,-0.814233 -0.937725,-2.178111 -1.902383,-3.620471 -0.833439,-1.246181 -0.847697,-1.256289 -1.608347,-1.138411 -0.422089,0.06544 -1.022358,0.250679 -1.333887,0.411707 -0.687642,0.355385 -1.055482,0.356374 -2.0398419,0.0054 C 8.5656392,15.239699 7.4099845,14.375079 6.901936,13.558603 6.5559308,13.002516 6.432417,12.439818 6.3553943,11.068678 L 6.3269493,10.563255 C 6.3642003,10.0463 6.3596403,9.7883956 6.2736423,9.6137853 L 6.2558256,9.2971732 5.0311581,8.8403518 C 4.3575921,8.5890698 3.078303,8.2360012 2.1882048,8.0557575 1.5935797,7.9353337 1.1724336,7.8579502 0.85369093,7.8552964 Z M -1.7678084,13.251446 c 0.440628,9.6e-5 0.8807131,0.0212 1.31818053,0.06381 4.38211727,0.426894 8.29124127,2.770134 10.73210787,6.433066 1.266043,1.899856 2.099083,4.268284 2.328489,6.620185 0.361672,3.708819 -0.849363,7.647315 -3.2278152,10.497353 -0.581404,0.696656 -1.8219466,1.887601 -2.4810127,2.381865 -2.8826287,2.161623 -6.57880328,3.191323 -10.1429475,2.825733 -2.775593,-0.284711 -5.6132389,-1.469431 -7.7180526,-3.22236 -0.26476,-0.220522 -0.603298,-0.539127 -0.947868,-0.88491 -0.157194,-0.154767 -0.310516,-0.312814 -0.459784,-0.473963 -0.391109,-0.414058 -0.749793,-0.822652 -0.969582,-1.115406 -2.142161,-2.853392 -3.177619,-6.50759 -2.83621,-10.008312 0.280563,-2.876589 1.442285,-5.697242 3.227705,-7.836668 0.581404,-0.696655 1.821947,-1.8876 2.481049,-2.381877 2.4960794,-1.871774 5.6112967,-2.899725 8.6957406,-2.898519 z m -0.063778,1.267267 c -0.9052252,0.0025 -1.8156858,0.09833 -2.7160979,0.292875 -1.0856406,0.234599 -1.9045787,0.51652 -2.9194576,1.004995 -3.7817611,1.820097 -6.4002341,5.169382 -7.2434071,9.265034 -0.497733,2.417607 -0.263963,5.137692 0.637015,7.411944 0.81246,2.050848 2.135515,3.897386 3.775634,5.269431 2.060398,1.723654 4.5777451,2.786576 7.2660256,3.068063 0.8582637,0.08987 2.4896378,0.02472 3.44564859,-0.137649 C 5.7721199,39.783393 10.018926,35.708393 11.121081,30.419275 11.945062,26.465133 10.97005,22.494453 8.3936192,19.311817 5.9150317,16.249967 2.0910488,14.507868 -1.8315864,14.518713 Z m 1.32248707,3.778579 v 0 c 2.61853183,0.0012 2.59500883,0.02718 3.10104273,0.283466 0.4937779,0.250075 1.0194023,0.878045 1.1924592,1.424603 0.04163,0.131485 0.3900595,1.906599 0.774184,3.944636 0.3841245,2.038049 0.7417223,3.920704 0.7947154,4.183675 0.1530925,0.759564 0.1708494,1.449199 0.04964,1.928289 C 5.2645182,30.60894 5.0926797,30.951864 4.7552031,31.327237 4.6208325,31.488409 4.471371,31.633718 4.309014,31.760511 4.0320941,31.992396 3.7663325,32.13697 3.3858872,32.275657 L 3.0749011,32.389 2.1982774,32.3908 c -0.7398767,0.0224 -1.93495348,0.02003 -4.0129509,0.01826 -1.0742772,-0.0012 -1.9129143,-0.0029 -2.5701348,-0.0065 -1.9281499,-0.0014 -2.1133905,-0.02017 -2.3610213,-0.0855 -0.4809431,-0.126866 -0.8728845,-0.334456 -1.239614,-0.659587 -0.1399076,-0.120194 -0.2679571,-0.252947 -0.382677,-0.397181 -0.4822576,-0.593146 -0.7181269,-1.323975 -0.6716841,-2.098352 0.013475,-0.223574 0.3294064,-2.020197 0.7021072,-3.992491 0.9320656,-4.932285 0.9440322,-4.993094 1.0301987,-5.233966 0.2557975,-0.715667 0.872595,-1.307556 1.6006498,-1.536028 0.3056301,-0.09591 0.4147406,-0.09876 3.9042747,-0.101255 0.4911361,0 0.91908576,-0.0012 1.29312554,-0.0012 z m -0.001206,1.258919 v 0.0012 c -0.35042028,0 -0.78257997,0.0025 -1.31731197,0.0053 l -1.9629157,0.01001 c -0.3264751,0.01194 -0.5487855,0.02747 -0.5953248,0.04692 -0.4105548,0.171427 -0.4480951,0.754571 -0.062402,0.968663 0.082741,0.04592 0.7052556,0.06033 2.6579177,0.06163 2.18794032,0.0014 2.56979697,-0.0087 2.69021059,-0.07086 0.0504719,-0.02609 0.0938145,-0.05784 0.13030531,-0.09378 0.070641,-0.07719 0.1186524,-0.172125 0.1390511,-0.273369 0.033101,-0.219593 -0.079134,-0.464445 -0.32818803,-0.59317 -0.0551644,-0.02852 -0.48956785,-0.04876 -1.08562854,-0.06082 -0.0840193,0 -0.1699446,-0.0012 -0.26571336,-0.0012 z M -1.748387,21.965942 c -2.9309655,0 -3.6098874,-0.0057 -3.847711,0.103439 -0.059061,0.0449 -0.1311738,0.121256 -0.1796915,0.188434 -0.1605716,0.368992 -0.8987836,4.033938 -0.8612674,4.299756 0.045779,0.324938 0.2275458,0.544193 0.5444066,0.657536 0.1239239,0.02427 0.3032295,0.0407 0.5754328,0.05197 0.7090555,0.01086 2.1762512,0.01677 3.8321978,0.01372 l 3.5888494,-0.0065 c 0.3453055,-0.0071 0.5443101,-0.01614 0.583696,-0.02705 0.011219,-0.0031 0.02257,-0.0068 0.033909,-0.01049 l 0.1309447,-0.06998 C 2.9035688,27.032511 3.0438745,26.83737 3.0799431,26.572095 3.1141061,26.320584 2.3719974,22.525961 2.2455522,22.305669 2.2018232,22.229528 2.1052828,22.121987 2.0310104,22.066643 c -0.010495,-0.0078 -0.020374,-0.01497 -0.031255,-0.02163 -0.010977,-0.0055 -0.022184,-0.01098 -0.033777,-0.01608 -0.00434,-0.0019 -0.00869,-0.0037 -0.013089,-0.0057 -0.1687383,-0.05696 -0.6953639,-0.05732 -3.7012764,-0.05732 z m -4.2848286,6.579123 c -0.081112,0.0018 -0.1618502,0.01258 -0.2404653,0.03197 -0.1704754,0.04715 -0.3338456,0.146166 -0.4893749,0.296988 -0.2121536,0.205733 -0.3179227,0.462998 -0.326982,0.719721 -0.00265,0.218543 0.061317,0.435723 0.1796919,0.619646 0.1086039,0.160255 0.2648931,0.296554 0.4650798,0.38834 0.11016,0.05052 0.2457007,0.07819 0.3836058,0.08325 0.02912,0 0.0604,-0.0018 0.09478,-0.0034 0.047082,-0.0022 0.088266,-0.0048 0.1257455,-0.0081 0.092862,-0.01338 0.1811271,-0.03765 0.2570038,-0.07284 0.2953765,-0.136962 0.5339962,-0.437195 0.6155667,-0.748768 0.030423,-0.138566 0.034151,-0.28244 0.010133,-0.422478 -0.067203,-0.330258 -0.2981631,-0.624399 -0.6222979,-0.775246 -0.1550467,-0.07216 -0.3060402,-0.108324 -0.4524739,-0.109048 v -6.4e-5 z m 8.5226594,0.003 c -0.1434903,-0.0016 -0.2903945,0.02683 -0.4332575,0.08824 -0.7461856,0.320825 -0.8873115,1.296508 -0.2622995,1.813258 0.1110889,0.0918 0.2082328,0.15128 0.3172469,0.186503 0.019976,0.0063 0.040508,0.01206 0.061703,0.01714 0.1010644,0.02345 0.2151932,0.02902 0.3602396,0.02212 0.2019841,-0.0097 0.3299854,-0.04908 0.5002316,-0.154295 C 3.4688573,30.251926 3.6522523,29.64912 3.4395802,29.185797 3.2562215,28.78631 2.8861384,28.552507 2.4894438,28.54808 Z m -8.7569002,4.773525 1.1158466,6.4e-5 h 1.1159068 l -0.2767631,0.585677 -0.2767631,0.58575 2.7991522,0.01234 c 1.53952587,0.0068 2.8069329,0.0046 2.816318,-0.0048 0.00941,-0.0094 -0.10135399,-0.26244 -0.2463039,-0.562191 -0.14493786,-0.299763 -0.26400041,-0.561552 -0.26400041,-0.581757 0,-0.0012 0.001809,-0.0022 0.004946,-0.0033 v -6.3e-5 c -0.003498,-0.0084 -0.005308,-0.0135 -0.005308,-0.01471 0,-0.0093 0.49208901,-0.01689 1.09346951,-0.01689 h 1.0934092 l 0.015489,0.02374 h 0.01462 l 1.105026,1.697369 c 0.6077618,0.933548 1.1548223,1.77801 1.2156684,1.876635 l 0.1106788,0.179341 H 3.7275128 3.7214828 2.28734 2.27914 L 1.9686003,36.453324 1.657964,35.807875 H -1.7766144 -5.211539 l -0.302554,0.645449 -0.3025902,0.64551 h -0.023632 -1.4147699 -0.014464 c -0.6829148,0 -1.0569787,-0.0037 -1.2468274,-0.01671 -0.097289,-0.0041 -0.1534423,-0.0087 -0.1534423,-0.01358 0,-0.0012 0.00145,-0.0036 0.0035,-0.0075 -0.019216,-0.0071 -0.023776,-0.01556 -0.017745,-0.02549 0.021038,-0.03481 0.573358,-0.884668 1.2273817,-1.888602 z"
       id="path18678"
       inkscape:connector-curvature="0" />
  </g>
</svg>
