<?xml version="1.0" encoding="UTF-8" standalone="no"?>
<!-- Created with Inkscape (http://www.inkscape.org/) -->

<svg
   xmlns:dc="http://purl.org/dc/elements/1.1/"
   xmlns:cc="http://creativecommons.org/ns#"
   xmlns:rdf="http://www.w3.org/1999/02/22-rdf-syntax-ns#"
   xmlns:svg="http://www.w3.org/2000/svg"
   xmlns="http://www.w3.org/2000/svg"
   xmlns:sodipodi="http://sodipodi.sourceforge.net/DTD/sodipodi-0.dtd"
   xmlns:inkscape="http://www.inkscape.org/namespaces/inkscape"
   width="21.166544mm"
   height="21.16663mm"
   viewBox="0 0 21.166544 21.16663"
   version="1.1"
   id="svg20149"
   inkscape:version="0.92.4 (5da689c313, 2019-01-14)"
   sodipodi:docname="Land Use2.svg">
  <defs
     id="defs20143" />
  <sodipodi:namedview
     id="base"
     pagecolor="#ffffff"
     bordercolor="#666666"
     borderopacity="1.0"
     inkscape:pageopacity="0.0"
     inkscape:pageshadow="2"
     inkscape:zoom="3.959798"
     inkscape:cx="-14.800581"
     inkscape:cy="58.788052"
     inkscape:document-units="mm"
     inkscape:current-layer="layer1"
     showgrid="false"
     fit-margin-top="0"
     fit-margin-left="0"
     fit-margin-right="0"
     fit-margin-bottom="0"
     inkscape:window-width="1920"
     inkscape:window-height="1001"
     inkscape:window-x="-9"
     inkscape:window-y="-9"
     inkscape:window-maximized="1" />
  <metadata
     id="metadata20146">
    <rdf:RDF>
      <cc:Work
         rdf:about="">
        <dc:format>image/svg+xml</dc:format>
        <dc:type
           rdf:resource="http://purl.org/dc/dcmitype/StillImage" />
        <dc:title></dc:title>
      </cc:Work>
    </rdf:RDF>
  </metadata>
  <g
     inkscape:label="Layer 1"
     inkscape:groupmode="layer"
     id="layer1"
     transform="translate(7.3286744,-160.8583)">
    <g
       id="g18602"
       transform="matrix(1.4088554,0,0,1.4088554,-1.3252828,-70.121294)">
      <path
         id="path18565"
         d="m 2.0022372,165.4602 c -0.4046064,-0.005 -0.7240113,0.021 -1.0117397,0.0852 -0.4250343,0.0418 -0.5947808,0.14509 -0.94491265,0.38135 l -0.62434196,0.42142 0.48749942,0.48583 c 0.26811109,0.26721 0.51069109,0.49472 0.53906329,0.50566 0.028333,0.0108 0.1759924,-0.14219 0.3281212,-0.34023 0.2235957,-0.29108 0.5566579,-0.48827 0.9187484,-0.569 0.096998,-0.007 0.206032,-0.007 0.3367448,-0.002 0.1542749,0.005 0.2818532,0.01 0.4487897,0.0157 0.032116,0.008 0.064156,0.0174 0.095716,0.0281 0.4591967,0.15518 0.599552,0.13089 1.3159741,-0.22803 0.4209734,-0.21091 0.64565,-0.36942 0.6751493,-0.47555 l 0.00849,-0.005 -0.00618,-0.001 c 0.00541,-0.0257 -7.72e-4,-0.0484 -0.019996,-0.0677 -0.051494,-0.0528 -0.4512678,-0.10277 -1.0035716,-0.13472 -0.097661,-0.0108 -0.1999406,-0.0203 -0.3068052,-0.0298 -0.3747055,-0.0458 -0.7254396,-0.0677 -1.0525724,-0.065 -0.062612,-0.001 -0.124992,-0.004 -0.1838671,-0.004 z"
         style="fill:#2cd5c4;fill-opacity:1;stroke-width:0.14657705"
         inkscape:connector-curvature="0" />
      <path
         id="path18563"
         d="m 5.3226445,165.7862 -0.4501484,0.31286 -0.089371,0.0593 c -0.012661,0.008 -0.023702,0.0163 -0.035822,0.0246 -0.2423175,0.16096 -0.4756718,0.28669 -0.5413253,0.28669 -0.073266,0 -0.092937,0.0668 -0.043697,0.14834 0.049256,0.0816 0.2144317,0.14833 0.3671319,0.14833 0.1527002,0 0.4806128,0.22846 0.728682,0.50761 0.039528,0.0445 0.079557,0.0862 0.1200591,0.12642 0.057747,0.0667 0.1253394,0.1269 0.204434,0.1813 0.1307125,0.10494 0.2782942,0.18973 0.4457633,0.25735 0.149859,0.0623 0.3144253,0.10951 0.4986937,0.14305 0.032888,0.008 0.063461,0.0186 0.097677,0.0272 0.1907304,0.0481 0.4970648,0.0571 0.8392137,0.0381 0.1366111,-0.001 0.2798306,-0.005 0.4336656,-0.0124 1.06074,-0.0514 1.1750473,-0.0912 1.9191541,-0.66654 0.182841,-0.14136 0.3336418,-0.2721 0.4539248,-0.39088 0.227618,-0.20572 0.330244,-0.342 0.320416,-0.43713 0.04076,-0.13889 -0.03444,-0.22074 -0.236488,-0.22697 -0.139421,-0.005 -1.3286206,-0.12463 -2.6426882,-0.26749 z"
         style="fill:#2cd5c4;fill-opacity:1;stroke-width:0.14657705"
         inkscape:connector-curvature="0" />
      <path
         id="path18561"
         d="m -0.87754873,166.76635 c -0.0132021,0 -0.0833258,0.0472 -0.18402137,0.12021 -0.070796,0.0485 -0.15585,0.10927 -0.2532726,0.1813 -0.252771,0.15774 -0.5717512,0.40428 -1.0061503,0.75332 -0.9062261,0.72814 -1.307227,1.06731 -1.438148,1.26048 -0.018683,0.0207 -0.033661,0.0385 -0.040995,0.0506 -0.052344,0.0867 -0.0095,0.1887 0.095114,0.22666 0.047171,0.0172 0.3672245,0.0653 0.7681405,0.12173 0.9049446,0.14515 2.31590941,0.33187 3.00060103,0.38225 0.0184514,0.001 0.0358991,4.5e-4 0.0527301,-0.002 0.005409,5.6e-4 0.0119724,0.001 0.0172169,0.002 0.0212305,0.002 0.0435429,-0.01 0.0657771,-0.0331 0.094496,-0.062 0.1593395,-0.21181 0.2062482,-0.46783 0.068017,-0.37107 0.058443,-0.74307 -0.021463,-1.0866 -0.015054,-0.0844 -0.033197,-0.16347 -0.055354,-0.23226 -0.024319,-0.0755 -0.062612,-0.15775 -0.1090184,-0.24223 -0.073498,-0.15506 -0.1639795,-0.29934 -0.27051211,-0.42898 -0.19763239,-0.24051 -0.34985391,-0.40213 -0.51123934,-0.47434 -0.11355844,-0.0817 -0.21627696,-0.13125 -0.29243784,-0.13125 -0.00232,0 -0.007801,0.002 -0.0118161,0.004 -0.003859,-7.7e-4 -0.008955,-0.004 -0.0115036,-0.004 z"
         style="fill:#2cd5c4;fill-opacity:1;stroke-width:0.14657705"
         inkscape:connector-curvature="0" />
      <path
         id="path18559"
         d="m 1.8724972,166.80095 c -0.2990928,0.004 -0.4403282,0.0487 -0.5863889,0.16694 -0.048329,0.0305 -0.096118,0.0655 -0.1474271,0.10686 -0.3384432,0.27261 -0.3786815,0.40114 -0.3801407,1.28589 -2.3e-5,0.0108 -3.01e-4,0.0194 -3.01e-4,0.0305 0,0.002 1.467e-4,0.005 1.467e-4,0.007 0,0.005 -1.467e-4,0.007 -1.467e-4,0.012 v 1.02899 l 0.6644104,-0.49385 0.664418,-0.4937 2.4928359,0.52213 2.4926815,0.52227 0.7022168,-0.54904 0.7022168,-0.54904 H 7.5676506 c -0.1381241,0 -0.2700412,-0.004 -0.3972257,-0.0108 -0.2250318,-0.0167 -0.4291724,-0.0385 -0.6149695,-0.0668 -0.6504983,-0.11335 -1.1327633,-0.3543 -1.5095224,-0.74366 -0.5811159,-0.60051 -0.7543752,-0.65703 -2.2640598,-0.73941 -0.1680481,-0.01 -0.3095306,-0.0154 -0.4392628,-0.0201 -0.091794,-0.005 -0.1722479,-0.008 -0.2472277,-0.0108 -0.030341,-0.001 -0.062689,-0.004 -0.090274,-0.004 -0.046862,-7.7e-4 -0.091995,-0.001 -0.1326119,-0.001 z"
         style="fill:#407ec9;fill-opacity:1;stroke-width:0.14657705"
         inkscape:connector-curvature="0" />
      <path
         id="path18557"
         d="m 2.1803602,168.84379 -0.6384083,0.4695 -0.00154,0.001 c -0.283127,0.2083 -0.5068,0.3991 -0.5685472,0.48039 l -0.078786,0.0615 0.1879589,0.0198 c 0.2476677,0.0514 0.8697861,0.14324 1.5842165,0.2309 0.4481798,0.0549 0.8640191,0.0945 1.243851,0.11912 0.3932034,0.043 0.7170628,0.0745 0.8770123,0.0827 0.137854,0.007 0.4204099,-0.0291 0.7029734,-0.0862 0.3391998,-0.0352 0.5994362,-0.098 0.7663263,-0.18947 0.055277,-0.0303 0.1016762,-0.0609 0.1425942,-0.0908 0.041535,-0.0215 0.069097,-0.0406 0.078021,-0.0554 0.00154,-0.002 7.721e-4,-0.005 -6.022e-4,-0.007 0.038987,-0.0381 0.056436,-0.0692 0.041303,-0.0846 -0.033197,-0.034 -1.023019,-0.26144 -2.1997958,-0.5055 L 2.55293,168.9238 Z"
         style="fill:#2cd5c4;fill-opacity:1;stroke-width:0.14657705"
         inkscape:connector-curvature="0" />
      <path
         id="path18555"
         transform="matrix(0.26458333,0,0,0.26458333,-7.3286744,160.8583)"
         d="m 56.941406,33.892578 c -1.389482,-0.02268 -2.023131,0.179526 -2.736328,0.658203 -1.603744,1.075994 -1.504482,1.121069 3.738281,1.65625 l 3.183594,0.324219 c 0.02045,0.0038 0.03903,0.01575 0.05859,0.01953 0.380217,0.188221 0.166515,0.460569 -0.291016,0.978516 l -1.566406,1.228515 c -0.812523,0.637531 -1.426844,1.078838 -1.958984,1.38086 -0.07324,0.04082 -0.147173,0.07656 -0.220703,0.111328 -0.665285,0.222614 -1.384164,0.347324 -2.19336,0.388672 -0.09338,-0.01512 -0.18175,-0.01418 -0.28125,-0.0293 -1.065301,-0.154583 -3.411341,-0.445338 -5.21289,-0.646484 l -2.589844,-0.289063 -0.185547,-0.02734 c -0.0088,-0.0076 -0.02053,-0.01393 -0.02344,-0.02148 -0.05252,-0.08731 -0.0399,-0.222056 0.01758,-0.378906 l 0.386718,-0.419922 0.617188,-0.544922 c 0.0058,-0.0038 0.0098,-0.0061 0.01563,-0.01367 0.02045,-0.0189 0.03347,-0.03144 0.05273,-0.04883 0.846633,-0.749669 1.296352,-1.218592 1.355469,-1.449219 0.10563,-0.236598 -0.06876,-0.284437 -0.501953,-0.146484 -0.125764,0.02268 -0.273535,0.05741 -0.445313,0.103515 -0.04581,0.01512 -0.12715,0.01783 -0.224609,0.02539 -0.530215,0.0189 -1.531764,-0.0069 -2.818359,-0.07422 -1.884828,-0.106582 -4.42343,-0.303174 -7.115235,-0.564453 C 33.129878,35.64054 28.505893,35.253828 27.46484,35.230471 l -1.302735,-0.117188 -2.947265,2.333985 c -1.012167,0.735533 -2.198796,1.650043 -3.640625,2.810546 -0.818505,0.658848 -1.596325,1.304904 -2.314453,1.916016 -0.229059,0.182173 -0.587355,0.465049 -0.78125,0.619141 -1.837294,1.46022 -2.806682,2.379725 -3.03711,2.978515 -0.02627,0.0378 -0.04694,0.06937 -0.06445,0.09961 -0.319306,0.371527 -0.419595,0.587873 -0.275391,0.626953 0.0088,0.0025 0.568256,0.06439 0.646485,0.07422 0.245979,0.154204 0.578094,0.271871 0.943359,0.318359 10.972322,1.383572 31.378866,3.308289 32.847656,3.097656 0.457238,-0.06576 1.066347,-0.215686 1.705079,-0.40625 0.683929,-0.190488 1.392299,-0.420014 1.925781,-0.640625 0.101253,-0.04082 0.243487,-0.118466 0.408203,-0.214844 0.02045,-0.0076 0.04569,-0.01978 0.06641,-0.02734 2.422132,-1.12407 16.150391,-12.119623 16.150391,-12.935547 0,0 0,-0.002 0,-0.002 0,0 0,-0.002 0,-0.002 0,-0.0029 -0.0018,-0.004 -0.002,-0.0078 6e-5,-0.0011 0.002,-0.0039 0.002,-0.0039 0,-0.218835 -0.170035,-0.395583 -0.617188,-0.558594 -0.866358,-0.326173 -2.799508,-0.597886 -6.736328,-1.013672 -1.557261,-0.164409 -2.662387,-0.259831 -3.496094,-0.273437 z m -28.001953,4.06836 3.978516,0.251953 c 2.127364,0.134551 4.509529,0.330376 6.273437,0.505859 1.435556,0.170835 2.503618,0.31841 3.228516,0.455078 1.587141,0.423421 0.78006,1.196172 -3.292969,4.275391 -3.580982,2.707275 -3.36704,2.680537 -12.898437,1.644531 -2.819464,-0.30652 -5.227985,-0.766188 -5.75,-1.080078 -0.05603,-0.0378 -0.09564,-0.07019 -0.103516,-0.101563 -0.0058,-0.02268 -0.0061,-0.04543 -0.002,-0.07227 0.10913,-0.424781 1.569368,-1.819925 3.402344,-3.234375 l 1.726562,-1.332031 c 0.896062,-0.598867 1.70567,-1.059 2.212891,-1.205079 0.214173,-0.06198 0.645987,-0.09608 1.224609,-0.107421 z m 18.558594,4.589843 v 0.002 c 0.888243,0.01512 1.996249,0.07197 3.048828,0.15625 0.321672,0.03024 0.641949,0.06862 0.962891,0.09961 0.445361,0.04082 0.82324,0.08267 1.173828,0.125 0.102712,0.01512 0.235247,0.02665 0.328125,0.04102 l 0.566406,0.08789 c 1.122813,0.204472 1.397515,0.488207 0.871094,1.097656 l -1.654297,1.296875 c -0.938197,0.735496 -1.924186,1.370531 -2.644531,1.726563 -0.234017,0.08542 -0.467039,0.149139 -0.701172,0.193359 -0.24627,0.02646 -0.509862,0.04102 -0.804688,0.04102 -0.477167,-0.0514 -1.128078,-0.126471 -2.050781,-0.240235 -0.722301,-0.117921 -2.147642,-0.309204 -3.582031,-0.470703 -0.02045,-0.0023 -0.0368,-0.0021 -0.05664,-0.0059 -0.262613,-0.0378 -0.553878,-0.07498 -0.789062,-0.109375 -0.900352,-0.143622 -1.600147,-0.328599 -1.890625,-0.5 0.189664,-0.32315 0.906201,-1.009342 1.867187,-1.765625 0.386623,-0.304252 0.718273,-0.545743 1.033203,-0.757813 0.469639,-0.267968 0.9429,-0.514089 1.390625,-0.724609 0.765048,-0.25663 1.608104,-0.310733 2.931641,-0.292969 z"
         style="fill:#2cd5c4;fill-opacity:1;stroke-width:0.55399197"
         inkscape:connector-curvature="0" />
      <path
         id="path18549"
         d="m 7.8992536,173.20663 -0.1891632,0.14879 c -0.1172788,0.0671 -0.2482544,0.16227 -0.4280761,0.29501 -0.272836,0.2014 -0.5821504,0.40694 -0.7861366,0.52531 -0.012893,0.004 -0.026403,0.007 -0.035668,0.007 -0.1086949,0 -0.1976323,0.0633 -0.1976323,0.14063 0,0.0999 0.380241,0.17141 1.2057435,0.22439 0.03397,0.004 0.062303,0.007 0.097832,0.012 0.8365039,0.0957 1.5536136,0.18161 1.5934423,0.19114 0.03984,0.01 0.316826,-0.21532 0.615572,-0.49974 0.3587558,-0.34155 0.5362688,-0.57647 0.5336208,-0.70343 7.72e-4,-0.007 4.25e-4,-0.012 -0.0016,-0.0161 -0.0095,-0.0601 -0.06539,-0.0923 -0.17011,-0.0951 -0.09959,-0.002 -0.6349048,-0.0648 -1.1895702,-0.13791 -0.4080342,-0.0539 -0.6512704,-0.0841 -0.8419313,-0.0692 z"
         style="fill:#2cd5c4;fill-opacity:1;stroke-width:0.14657705"
         inkscape:connector-curvature="0" />
      <path
         id="path18547"
         d="m -1.1480609,174.05825 c -0.3913736,0.004 -0.5212448,0.10938 -0.9081639,0.44213 -0.158691,0.13646 -0.268474,0.2323 -0.3429441,0.30559 l -0.2378475,0.19234 0.02347,0.004 0.1917263,0.0422 c 0.03837,0.0147 0.087633,0.029 0.1483382,0.0464 0.1692448,0.0485 0.6096502,0.0903 1.0373016,0.10374 0.29606645,0.0251 0.53082578,0.0243 0.72625782,-0.007 0.15943223,-0.0161 0.28255583,-0.0484 0.39918658,-0.10867 0.13492024,-0.0649 0.261603,-0.16178 0.4253586,-0.30514 0.2297257,-0.2011 0.4014409,-0.39155 0.4298826,-0.47025 0.00834,-0.0121 0.013742,-0.0216 0.013742,-0.0263 0,-5.2e-4 -7.721e-4,-7.8e-4 -0.00154,-0.001 l 0.04856,-0.0456 -0.032039,-0.002 0.00154,-0.001 -0.5369403,-0.0498 c -0.15850578,-0.0203 -0.3381421,-0.0403 -0.53589025,-0.0588 -0.0104939,-7.8e-4 -0.0193012,-0.002 -0.029955,-0.004 -0.0138187,-0.001 -0.023161,-0.002 -0.0365939,-0.004 -0.0135879,-10e-4 -0.0253223,-0.004 -0.0389871,-0.004 -0.0109627,-7.8e-4 -0.0184514,-0.001 -0.0291833,-0.002 -0.25033896,-0.0238 -0.44576331,-0.0407 -0.59667225,-0.0434 -0.010109,-3.4e-4 -0.019378,-3.5e-4 -0.029183,-6e-4 -0.00695,-5e-5 -0.014515,-3.1e-4 -0.021309,-3e-4 -0.023007,-4.1e-4 -0.046862,-0.001 -0.06817,-7.7e-4 z"
         style="fill:#407ec9;fill-opacity:1;stroke-width:0.14657705"
         inkscape:connector-curvature="0" />
      <path
         id="path18545"
         d="m 1.3680673,174.29837 -0.013588,0.0126 -0.089216,-0.006 -0.4870438,0.5194 -0.1986901,0.21184 -0.3199607,0.25873 0.032811,0.004 -0.037521,0.0334 0.010422,7.7e-4 -0.00541,0.006 0.03312,0.004 -0.00154,0.002 0.7769185,0.0863 c 0.4272345,0.0476 0.9723351,0.11011 1.2113329,0.13895 0.1183679,0.0143 0.2210558,0.0251 0.3216285,0.0353 0.2810503,0.054 0.5257998,0.0661 0.7510554,0.0319 0.018683,0.001 0.08179,0.008 0.093903,0.01 0.069174,0.005 0.1684109,-0.0308 0.2798845,-0.0927 0.1045876,-0.0371 0.1936487,-0.093 0.2889637,-0.16845 0.079295,-0.0541 0.1617948,-0.11647 0.2532727,-0.19066 0.1549622,-0.12569 0.2693309,-0.22575 0.3376481,-0.30863 L 4.8537411,174.67 4.5443649,174.6157 C 4.313844,174.525 3.7665662,174.47783 2.7811143,174.41051 l -0.139259,-0.01 c -0.00695,-5.4e-4 -0.014206,-0.001 -0.021154,-0.001 z"
         style="fill:#407ec9;fill-opacity:1;stroke-width:0.14657705"
         inkscape:connector-curvature="0" />
      <path
         id="path18543"
         d="m 5.7206268,174.6785 c -0.044006,-0.001 -0.088382,0.004 -0.133824,0.0121 l -0.1209618,-0.0108 -0.1131101,0.0897 -0.03173,-0.002 -0.1156741,0.10374 c -0.1133264,0.0769 -0.2395227,0.17627 -0.3901152,0.308 l -0.6412802,0.561 0.5652197,0.0612 c 0.1472727,0.0232 0.339331,0.0441 0.580946,0.0629 l 0.3689462,0.0399 c 0.8333,0.0903 1.5666374,0.17365 1.6297355,0.18538 0.063075,0.012 0.402792,-0.19559 0.7548384,-0.46073 0.3520463,-0.26513 0.6427085,-0.52411 0.6458198,-0.57566 0.00309,-0.0516 -0.5647565,-0.13797 -1.2618469,-0.19202 -0.054738,-0.004 -0.1087948,-0.01 -0.1637557,-0.0137 -0.088336,-0.01 -0.1781462,-0.018 -0.2708209,-0.0264 l -0.6151162,-0.0558 c -0.2711916,-0.0289 -0.4897459,-0.0559 -0.5845746,-0.0745 -0.034433,-0.007 -0.068479,-0.0108 -0.1026727,-0.012 z"
         style="fill:#2cd5c4;fill-opacity:1;stroke-width:0.14657705"
         inkscape:connector-curvature="0" />
      <path
         id="path18541"
         d="m -2.8618706,175.40778 c -0.4091612,2e-4 -0.514891,0.10086 -0.8451043,0.42082 -0.1856195,0.17988 -0.298753,0.31552 -0.3387135,0.42082 -0.045859,0.0674 -0.065082,0.11636 -0.047326,0.13458 0.00896,0.01 0.031191,0.0196 0.059755,0.0304 0.070255,0.0898 0.2643667,0.14201 0.5909283,0.18131 0.4910276,0.059 0.8258809,0.09 1.0849283,0.0779 0.023933,0.001 0.051341,0.004 0.073961,0.005 0.00695,2.6e-4 0.014592,-3.1e-4 0.021925,-4.6e-4 0.011431,7.7e-4 0.02123,0.002 0.032811,0.004 0.049951,0.005 0.1260266,-0.0192 0.2147175,-0.0605 0.2311385,-0.0678 0.4158316,-0.20128 0.6719685,-0.42369 0.3186716,-0.27671 0.54684549,-0.53425 0.50700862,-0.57217 -3.0881e-4,-3e-4 -0.00232,-6.2e-4 -0.00232,-7.8e-4 -4.7096e-4,-6.4e-4 -3.165e-4,-0.001 -7.7207e-4,-0.002 -0.0132021,-0.012 -0.1023866,-0.029 -0.21880135,-0.0474 -0.2247925,-0.037 -0.5912526,-0.0804 -1.0091688,-0.1154 -0.3609017,-0.0302 -0.6095268,-0.0508 -0.7955169,-0.0508 z"
         style="fill:#2cd5c4;fill-opacity:1;stroke-width:0.14657705"
         inkscape:connector-curvature="0" />
      <path
         id="path18539"
         d="m -0.13435259,175.66574 -0.0238558,0.02 -0.0101092,-7.7e-4 -0.16058258,0.14107 c -0.13486614,0.0825 -0.285644,0.21126 -0.50488545,0.40751 l -0.30514548,0.27309 -0.3249481,0.27186 0.018451,0.002 -0.038987,0.035 1.23008559,0.14607 c 0.94512101,0.11227 1.47867201,0.17344 1.84293961,0.15226 0.03559,0.002 0.077751,0.006 0.111289,0.007 0.011275,5.7e-4 0.02401,-2.9e-4 0.037521,-0.002 0.011732,7.7e-4 0.023161,0.002 0.034974,0.004 0.04995,0.004 0.1409498,-0.0351 0.2508562,-0.10157 0.1994929,-0.0843 0.3668925,-0.22664 0.6142129,-0.44501 l 0.6479274,-0.57203 -0.1593704,-0.0157 c -0.033584,-0.0174 -0.099484,-0.0222 -0.1949072,-0.024 -0.022852,-4.5e-4 -0.076431,-0.005 -0.1134117,-0.006 l -0.5422364,-0.0536 c -0.5554999,-0.0549 -1.3360315,-0.1344 -1.734369,-0.17661 -0.1423163,-0.015 -0.2573953,-0.0251 -0.3576127,-0.0275 z"
         style="fill:#2cd5c4;fill-opacity:1;stroke-width:0.14657705"
         inkscape:connector-curvature="0" />
      <path
         id="path25838"
         d="m 3.7993568,176.07568 -0.6854328,0.57384 -0.685425,0.57369 0.4658747,0.0638 c 0.126204,0.0269 0.2978111,0.0483 0.4950576,0.0647 1.2473482,0.14724 1.9705873,0.0726 2.6742863,-0.26295 0.5059354,-0.24123 0.7952158,-0.40551 0.8331688,-0.52681 0.022389,-0.0262 0.028101,-0.0472 0.018142,-0.0651 l 0.075582,-0.0609 -0.2307448,-0.0278 C 6.520474,176.31545 5.9721,176.25281 5.0672249,176.17906 Z"
         style="fill:#2cd5c4;fill-opacity:1;stroke-width:0.14657705"
         inkscape:connector-curvature="0" />
    </g>
    <circle
       id="Ellipse_130-4-4-3-7-0-0"
       data-name="Ellipse 130"
       cx="-13.771478"
       cy="128.1617"
       r="10.583333"
       style="opacity:1;fill:#2cd5c4;fill-opacity:1;stroke-width:0.26458332" />
  </g>
</svg>
