<?xml version="1.0" encoding="UTF-8" standalone="no"?>
<!-- Created with Inkscape (http://www.inkscape.org/) -->

<svg
   xmlns:dc="http://purl.org/dc/elements/1.1/"
   xmlns:cc="http://creativecommons.org/ns#"
   xmlns:rdf="http://www.w3.org/1999/02/22-rdf-syntax-ns#"
   xmlns:svg="http://www.w3.org/2000/svg"
   xmlns="http://www.w3.org/2000/svg"
   xmlns:sodipodi="http://sodipodi.sourceforge.net/DTD/sodipodi-0.dtd"
   xmlns:inkscape="http://www.inkscape.org/namespaces/inkscape"
   width="21.166666mm"
   height="13.378147mm"
   viewBox="0 0 21.166666 13.378147"
   version="1.1"
   id="svg20149"
   inkscape:version="0.92.4 (5da689c313, 2019-01-14)"
   sodipodi:docname="Land Parcel2.svg">
  <defs
     id="defs20143" />
  <sodipodi:namedview
     id="base"
     pagecolor="#ffffff"
     bordercolor="#666666"
     borderopacity="1.0"
     inkscape:pageopacity="0.0"
     inkscape:pageshadow="2"
     inkscape:zoom="2.8"
     inkscape:cx="-46.252347"
     inkscape:cy="-2.6105438"
     inkscape:document-units="mm"
     inkscape:current-layer="layer1"
     showgrid="false"
     fit-margin-top="0"
     fit-margin-left="0"
     fit-margin-right="0"
     fit-margin-bottom="0"
     inkscape:window-width="1920"
     inkscape:window-height="1001"
     inkscape:window-x="-9"
     inkscape:window-y="-9"
     inkscape:window-maximized="1" />
  <metadata
     id="metadata20146">
    <rdf:RDF>
      <cc:Work
         rdf:about="">
        <dc:format>image/svg+xml</dc:format>
        <dc:type
           rdf:resource="http://purl.org/dc/dcmitype/StillImage" />
        <dc:title></dc:title>
      </cc:Work>
    </rdf:RDF>
  </metadata>
  <g
     inkscape:label="Layer 1"
     inkscape:groupmode="layer"
     id="layer1"
     transform="translate(170.82524,-189.86421)">
    <g
       id="g14840"
       transform="matrix(1.1760751,0,0,1.2100134,27.966573,-41.932135)">
      <path
         id="path12550"
         d="m -159.97036,191.5654 c -0.32281,-0.005 -0.65257,0.0537 -0.98788,0.17477 -0.36296,0.13101 -0.63989,0.32432 -0.97476,0.68028 -0.46879,0.49833 -0.6787,1.05139 -0.67392,1.77556 0.003,0.63069 0.0765,0.82916 0.77551,2.12984 0.26733,0.4974 0.6604,1.31325 0.89711,1.86187 0.0817,0.18904 0.36417,0.92137 0.50267,1.30293 0.0892,0.24556 0.16412,0.39284 0.22428,0.44016 0.15848,0.12467 0.3605,0.0798 0.45383,-0.10064 0.0278,-0.0537 0.14005,-0.34022 0.24957,-0.63658 0.29348,-0.79418 0.51776,-1.33367 0.81379,-1.95792 0.27045,-0.57028 0.64009,-1.27192 0.76022,-1.44307 0.12215,-0.17406 0.31365,-0.61744 0.40636,-0.94095 0.17927,-0.62546 0.10032,-1.32297 -0.21819,-1.93003 -0.1897,-0.36153 -0.65216,-0.82791 -1.01981,-1.02847 -0.39004,-0.21275 -0.79373,-0.32207 -1.20878,-0.32776 z"
         style="fill:#407ec9;fill-opacity:1;stroke-width:0.03592403"
         inkscape:connector-curvature="0" />
      <path
         id="path12548"
         d="m -160.02156,193.18784 c 0.37085,-0.003 0.7353,0.204 0.90943,0.54365 0.0913,0.17807 0.12635,0.60049 0.0653,0.7858 -0.0621,0.18837 -0.34748,0.48804 -0.55813,0.58612 -0.30656,0.14276 -0.73759,0.0947 -1.00912,-0.11236 -0.26016,-0.19844 -0.43453,-0.62023 -0.38646,-0.93459 0.0564,-0.36895 0.36898,-0.72803 0.72355,-0.8311 0.084,-0.0245 0.16995,-0.0366 0.25554,-0.0374 z"
         style="fill:#ffffff;stroke-width:0.03592403"
         inkscape:connector-curvature="0" />
      <path
         id="path12546"
         d="m -163.95482,197.48132 c -1.91877,5.2e-4 -1.81625,-0.0415 -2.88005,1.18377 -0.84728,0.97587 -0.81776,0.93818 -0.772,0.98396 0.0206,0.0206 0.29344,0.1562 0.60642,0.30151 0.313,0.14531 0.58824,0.26475 0.6117,0.26554 0.0426,10e-4 0.30061,-0.11309 1.55602,-0.69028 0.36553,-0.16805 0.86656,-0.39822 1.11355,-0.51147 0.90504,-0.41502 1.59944,-0.74454 1.63014,-0.77361 0.0173,-0.0164 0.0218,-0.0685 0.01,-0.11591 -0.0303,-0.12056 -0.37587,-0.63704 -0.42881,-0.64078 -0.024,-0.001 -0.6751,-0.002 -1.44685,-0.002 z"
         style="fill:#2cd5c4;fill-opacity:1;stroke-width:0.03592403"
         inkscape:connector-curvature="0" />
      <path
         id="path12544"
         d="m -155.97751,197.48232 c -0.8496,-7.8e-4 -1.56481,-2.2e-4 -1.58943,0.001 -0.0513,0.003 -0.69378,1.27197 -0.87235,1.72242 -0.14026,0.35375 -0.13166,0.3834 0.14473,0.49508 0.18683,0.0755 0.19401,0.0758 0.33791,0.0125 0.58308,-0.25633 1.74566,-0.78736 2.14079,-0.97787 0.12842,-0.0619 0.46791,-0.2201 0.75442,-0.35143 1.31883,-0.60457 1.25842,-0.56527 1.10015,-0.71396 -0.18093,-0.16997 -0.35564,-0.18619 -2.01622,-0.18803 z"
         style="fill:#2cd5c4;fill-opacity:1;stroke-width:0.03592403"
         inkscape:connector-curvature="0" />
      <path
         id="path12542"
         d="m -153.44727,198.31301 c -0.0516,-2.5e-4 -0.79101,0.324 -1.31024,0.57463 -0.21895,0.10575 -0.73304,0.34263 -1.88458,0.86831 -0.34577,0.15784 -0.6442,0.30186 -0.66309,0.32018 -0.0218,0.021 -0.0152,0.0508 0.018,0.0809 0.0438,0.0398 0.82272,0.40326 4.32731,2.01904 0.13831,0.0638 0.37274,0.17116 0.52093,0.23875 0.14818,0.0676 0.30973,0.14207 0.35914,0.16543 0.20524,0.0971 0.67062,-0.0669 0.84747,-0.29882 0.30509,-0.39998 0.26134,-0.84502 -0.13054,-1.32821 -0.0802,-0.0988 -0.30619,-0.38973 -0.50239,-0.6466 -0.19621,-0.25685 -0.49435,-0.64487 -0.66256,-0.86221 -0.16821,-0.21735 -0.43124,-0.56069 -0.5845,-0.76306 -0.15327,-0.20237 -0.30397,-0.3682 -0.33494,-0.36835 z"
         style="fill:#407ec9;fill-opacity:1;stroke-width:0.03592403"
         inkscape:connector-curvature="0" />
      <path
         id="path12540"
         d="m -161.81024,198.80284 c -0.0988,0.0125 -0.62101,0.24061 -1.54967,0.67702 -0.30624,0.14392 -0.65384,0.30285 -0.77239,0.3532 -0.11848,0.0503 -0.33676,0.15101 -0.48495,0.22386 -0.14818,0.0728 -0.41493,0.19645 -0.59275,0.27461 -0.17782,0.0782 -0.33797,0.15638 -0.3559,0.17381 -0.0746,0.0727 -0.0309,0.0964 1.27195,0.69056 0.12843,0.0587 0.34664,0.15964 0.48496,0.22455 0.1383,0.0649 0.33231,0.15479 0.43111,0.19966 0.0988,0.0449 0.27657,0.12579 0.3951,0.17978 0.11861,0.054 0.23185,0.0999 0.25162,0.10195 0.0199,0.002 0.30259,-0.11945 0.6286,-0.27013 1.64195,-0.7588 1.55503,-0.69505 1.25639,-0.92134 -0.21505,-0.16295 -0.33874,-0.35075 -0.46736,-0.70922 -0.27328,-0.76167 -0.44296,-1.18286 -0.48264,-1.19809 -0.002,-10e-4 -0.008,-10e-4 -0.0141,-2.7e-4 z"
         style="fill:#407ec9;fill-opacity:1;stroke-width:0.03592403"
         inkscape:connector-curvature="0" />
      <path
         id="path12538"
         d="m -168.0258,200.1527 c -0.0301,0.007 -0.25151,0.27176 -0.49211,0.591 -0.50071,0.66438 -0.56077,0.80608 -0.48481,1.14547 0.0772,0.34516 0.37896,0.64846 0.69773,0.7015 0.0821,0.0137 1.04637,0.0228 2.14296,0.0201 l 1.99389,-0.005 0.31423,-0.15786 c 0.17288,-0.0868 0.31436,-0.17772 0.31436,-0.20209 0,-0.0629 -0.0473,-0.0922 -0.4311,-0.26689 -0.80201,-0.365 -1.02054,-0.46495 -1.40099,-0.64064 -1.92157,-0.88741 -2.60869,-1.19425 -2.65416,-1.18551 z"
         style="fill:#2cd5c4;fill-opacity:1;stroke-width:0.03592403"
         inkscape:connector-curvature="0" />
      <path
         id="path24269"
         d="m -158.11262,200.46396 -0.0156,0.008 c -0.0708,0.0151 -0.38615,0.14627 -0.73397,0.30666 -0.36944,0.17035 -0.98692,0.4548 -1.3722,0.63211 -1.42927,0.6578 -1.6707,0.77687 -1.68127,0.8288 -0.008,0.0358 0.0989,0.10683 0.32329,0.21644 l 0.33413,0.16328 3.75402,0.002 c 2.11571,0.001 3.77595,-0.0123 3.80422,-0.0297 0.0941,-0.0597 0.0122,-0.12878 -0.3425,-0.28811 -0.43405,-0.19517 -0.80728,-0.36551 -1.16253,-0.53067 -0.14818,-0.0689 -0.3503,-0.16236 -0.44908,-0.20764 -0.0988,-0.0453 -0.2847,-0.13097 -0.41312,-0.19033 -1.33575,-0.61734 -1.90124,-0.86884 -2.02244,-0.89955 z"
         style="fill:#2cd5c4;fill-opacity:1;stroke-width:0.03592403"
         inkscape:connector-curvature="0" />
    </g>
  </g>
  <style
     id="style24296"
     type="text/css">
	.st0{fill:none;stroke:#000000;stroke-width:2;stroke-linecap:round;stroke-linejoin:round;stroke-miterlimit:10;}
</style>
  <style
     id="style24326"
     type="text/css">
	.st0{fill:none;stroke:#000000;stroke-width:2;stroke-linecap:round;stroke-linejoin:round;stroke-miterlimit:10;}
</style>
</svg>
