<?xml version="1.0" encoding="UTF-8" standalone="no"?>
<svg
   xmlns:dc="http://purl.org/dc/elements/1.1/"
   xmlns:cc="http://creativecommons.org/ns#"
   xmlns:rdf="http://www.w3.org/1999/02/22-rdf-syntax-ns#"
   xmlns:svg="http://www.w3.org/2000/svg"
   xmlns="http://www.w3.org/2000/svg"
   xmlns:sodipodi="http://sodipodi.sourceforge.net/DTD/sodipodi-0.dtd"
   xmlns:inkscape="http://www.inkscape.org/namespaces/inkscape"
   sodipodi:docname="مشروع تجاري.svg"
   inkscape:version="1.0 (4035a4fb49, 2020-05-01)"
   id="svg581"
   version="1.1"
   viewBox="0 0 39.687489 39.687542"
   height="39.687542mm"
   width="39.687489mm">
  <defs
     id="defs575" />
  <sodipodi:namedview
     inkscape:window-maximized="0"
     inkscape:window-y="0"
     inkscape:window-x="192"
     inkscape:window-height="1030"
     inkscape:window-width="1424"
     fit-margin-bottom="0"
     fit-margin-right="0"
     fit-margin-left="0"
     fit-margin-top="0"
     showgrid="false"
     inkscape:document-rotation="0"
     inkscape:current-layer="layer1"
     inkscape:document-units="mm"
     inkscape:cy="356.01811"
     inkscape:cx="173.16086"
     inkscape:zoom="0.35"
     inkscape:pageshadow="2"
     inkscape:pageopacity="0.0"
     borderopacity="1.0"
     bordercolor="#666666"
     pagecolor="#ffffff"
     id="base" />
  <metadata
     id="metadata578">
    <rdf:RDF>
      <cc:Work
         rdf:about="">
        <dc:format>image/svg+xml</dc:format>
        <dc:type
           rdf:resource="http://purl.org/dc/dcmitype/StillImage" />
        <dc:title></dc:title>
      </cc:Work>
    </rdf:RDF>
  </metadata>
  <g
     transform="translate(-60.017856,-53.970209)"
     id="layer1"
     inkscape:groupmode="layer"
     inkscape:label="Layer 1">
    <path
       style="fill:#c7dad4;fill-opacity:1;stroke-width:0.199024"
       d="m 82.496459,53.970209 -6.4e-5,6.03e-4 c -0.0333,0 -0.06538,-7e-6 -0.09651,0.0017 -0.15404,-0.0072 -0.270509,0.01503 -0.377273,0.07902 -0.35742,0.155916 -0.559527,0.553137 -0.901685,1.32281 -0.737773,1.659601 -1.819098,2.288126 -3.936497,2.288126 -0.878347,0 -1.47922,-0.07044 -1.971588,-0.279854 -0.37653,-0.210386 -0.743457,-0.5005 -1.126139,-0.879818 -0.0416,-0.04795 -0.08348,-0.0977 -0.125883,-0.14943 -1.074561,-1.310622 -1.234055,-1.351139 -2.661534,-0.676424 -0.67758,0.320276 -1.845482,0.978989 -2.595381,1.463832 l -1.363437,0.881561 0.142342,0.765158 c 0.07831,0.420847 0.259762,1.086331 0.403207,1.478849 0.15202,0.416035 0.206749,0.996908 0.131242,1.392791 -0.204683,1.07331 -1.256783,2.719644 -2.152334,3.368039 -0.763278,0.552594 -0.94318,0.594042 -2.5773,0.594042 -0.259775,0 -0.48074,6.4e-5 -0.670621,0.0027 -0.195046,-0.0081 -0.361298,-0.004 -0.505211,0.01651 -0.592088,0.03959 -0.673883,0.160601 -0.864897,0.529797 -0.494275,0.955284 -1.307266,4.543124 -1.222968,5.280156 0.0013,0.08843 0.01013,0.150405 0.02887,0.180649 0.03679,0.0595 0.24911,0.194994 0.555275,0.36186 0.316409,0.202357 0.73279,0.437881 1.16592,0.653743 1.397858,0.696672 1.563501,0.845481 2.052202,1.843824 0.929524,1.898792 0.413855,3.901256 -1.32634,5.15079 -1.272237,0.913512 -1.394912,1.424754 -0.688641,2.869459 0.921685,1.885313 2.287694,3.803363 2.708796,3.803363 0.209389,0 0.852001,-0.179047 1.428029,-0.397875 0.675855,-0.256728 1.179585,-0.381559 1.665704,-0.370961 0.06287,0.0024 0.126059,0.0062 0.189354,0.01098 0.424116,0.04024 0.850188,0.184788 1.382141,0.436136 0.381875,0.180436 0.720234,0.378627 1.016094,0.596103 0.34369,0.296836 0.682253,0.642265 0.959669,0.977963 0.516221,0.763139 0.70629,1.694653 0.590067,2.828639 -0.09099,0.887526 -0.05715,1.374197 0.109485,1.574878 0.237476,0.285982 2.536174,1.121389 4.093303,1.487632 0.645537,0.151828 1.079005,0.225716 1.41338,0.168502 0.100843,0.0173 0.173355,0.02838 0.206127,0.03109 0.210485,0.01741 0.506832,-0.345906 0.772497,-0.910043 0.09213,-0.160619 0.188949,-0.345734 0.295532,-0.557961 0.590518,-1.17569 0.836352,-1.458039 1.61202,-1.851679 2.199109,-1.116069 4.42252,-0.736482 5.644602,0.963634 0.48041,0.66831 0.84657,0.982015 1.146407,0.982015 h 0.01558 0.0064 c 0.01689,0 0.03831,-0.0027 0.06391,-0.008 0.711903,-0.113392 3.313232,-1.426981 4.482679,-2.27853 0.875792,-0.637734 0.91844,-0.711736 0.768565,-1.333282 -0.08728,-0.361928 -0.30301,-0.99092 -0.479317,-1.397777 -0.413075,-0.953041 -0.399508,-1.654776 0.05111,-2.642759 0.209601,-0.459542 0.42626,-0.851414 0.661848,-1.183291 0.12475,-0.153022 0.260773,-0.304979 0.408318,-0.455581 0.181607,-0.185411 0.358618,-0.347481 0.534512,-0.487671 0.693097,-0.464451 1.565922,-0.651548 2.768377,-0.656359 0.567006,0.07049 0.954799,0.0874 1.248167,-0.0019 l 0.471495,-0.0012 0.377708,-0.79588 c 0.496105,-1.045382 1.410971,-4.748918 1.266235,-5.12593 -0.06225,-0.162102 -0.545939,-0.498578 -1.074827,-0.747709 -1.369125,-0.644905 -2.022771,-1.326601 -2.359966,-2.461425 -0.156229,-0.525765 -0.252698,-1.021152 -0.289856,-1.485201 -0.0028,-0.08236 -0.0041,-0.165778 -0.0041,-0.250445 0,-0.255074 0.0037,-0.481589 0.01421,-0.686391 0.108919,-0.977072 0.539807,-1.779526 1.289923,-2.393876 0.49023,-0.401476 0.943658,-0.938345 1.007632,-1.193071 0.0082,-0.03312 0.01296,-0.07094 0.01414,-0.113101 0.02781,-0.140097 -0.0096,-0.28227 -0.08028,-0.489981 -0.230446,-0.814254 -0.937721,-2.178143 -1.902386,-3.620534 -0.833433,-1.246194 -0.847702,-1.256308 -1.608349,-1.138421 -0.422078,0.06544 -1.022348,0.25068 -1.333878,0.411711 -0.687644,0.35539 -1.055485,0.356373 -2.039846,0.0054 -1.113998,-0.397124 -2.269655,-1.261764 -2.7777,-2.078252 -0.346008,-0.556092 -0.469516,-1.118803 -0.546544,-2.489959 l -0.02844,-0.505434 c 0.03725,-0.516963 0.03269,-0.774868 -0.05331,-0.949487 L 87.8986,55.412163 86.673937,54.955335 c -0.673561,-0.251277 -1.952872,-0.60436 -2.842965,-0.784602 -0.594622,-0.120429 -1.01576,-0.197811 -1.334508,-0.200465 z m -2.621508,5.396872 c 0.440633,9.6e-5 0.880699,0.02119 1.318171,0.06381 4.382123,0.426899 8.291253,2.770171 10.732108,6.433162 1.266045,1.899889 2.099094,4.268346 2.328486,6.620291 0.361682,3.708873 -0.849358,7.647426 -3.227806,10.497498 -0.581404,0.696675 -1.821942,1.887629 -2.481013,2.381911 -2.882622,2.161644 -6.578792,3.191369 -10.14293,2.825774 -2.775606,-0.284715 -5.613245,-1.46945 -7.718064,-3.222408 -0.264758,-0.220527 -0.603292,-0.539133 -0.947886,-0.884927 -0.157183,-0.15477 -0.310497,-0.312812 -0.459756,-0.473965 -0.391117,-0.414066 -0.749804,-0.822671 -0.969585,-1.115427 -2.142145,-2.853436 -3.177644,-6.50769 -2.836233,-10.008456 0.280563,-2.876635 1.442292,-5.697337 3.227721,-7.836795 0.581397,-0.696662 1.821938,-1.887629 2.481035,-2.38191 2.496106,-1.871794 5.611325,-2.899765 8.695752,-2.898558 z m -0.06378,1.267289 c -0.905225,0.0025 -1.815677,0.09833 -2.716091,0.292879 -1.085634,0.2346 -1.904584,0.516526 -2.919468,1.005007 -3.781747,1.820125 -6.400218,5.169456 -7.243405,9.265167 -0.497725,2.417642 -0.263963,5.137774 0.637016,7.412063 0.812468,2.050875 2.135536,3.897437 3.77564,5.2695 2.060406,1.723679 4.577735,2.786619 7.266036,3.068116 0.858257,0.08987 2.48961,0.02472 3.44563,-0.137654 5.358349,-0.910027 9.605153,-4.985088 10.707308,-10.27429 C 93.587818,72.580969 92.61281,68.610223 90.036382,65.427537 87.557795,62.365645 83.733789,60.623519 79.811171,60.63437 Z m -0.597547,1.515115 h 0.05106 c 0.03253,1.21e-4 1.694439,0.364017 3.693775,0.80878 1.999686,0.444845 3.645305,0.808843 3.657116,0.808843 0.01171,0 0.02126,2.200276 0.02126,4.889569 v 4.889692 h -2.2683 c -0.434273,0 -0.842376,-0.0027 -1.192789,-0.0074 l -1.10008,0.0095 v -0.04505 c -0.01379,-0.002 -0.02265,-0.004 -0.02456,-0.0061 -0.02698,-0.02696 -0.04907,-0.721795 -0.04907,-1.54409 v -1.495111 h -2.788412 v -0.49104 -1.285859 c -0.0052,-0.600395 -0.0072,-1.386266 -0.0072,-2.414125 0,-0.708375 0.0027,-1.376469 0.0072,-1.960165 z m -7.134917,2.058809 h 4.692161 0.0399 v 0.621087 l 0.0049,0.07746 h 0.990717 v 0.04331 l 0.0042,2.42e-4 -0.0192,2.735543 -0.01939,2.735606 -1.636901,0.01975 -1.636836,0.01982 v 4.263247 4.263185 h 0.367858 0.367793 v -3.933742 -3.933787 h 3.016297 3.016298 v 3.933787 3.93373 h 0.366799 0.366856 l 0.01939,-2.371255 0.01939,-2.371316 3.21762,-0.01913 3.217564,-0.01919 0.01944,2.372064 0.01947,2.372062 0.71717,0.02106 c 0.402893,0.01182 0.645088,-0.0015 0.703059,-0.03776 V 81.26694 H 82.039007 69.789886 V 80.127269 78.98754 h 0.625358 0.625354 v -7.018546 -6.560655 h -0.0039 v -0.501445 h 0.996955 v -0.698545 z m 7.716441,0.161708 v 0.367654 h 1.839219 v -0.367654 z m 2.207074,0 v 0.367654 h 1.839282 v -0.367654 z m 2.207016,0 v 0.367654 h 1.839219 v -0.367654 z m -4.377306,1.132438 v 0.367595 h 1.839219 V 65.50244 Z m 2.17023,0 v 0.367595 h 1.839217 V 65.50244 Z m 2.207076,0 v 0.367595 h 1.839219 V 65.50244 Z m -12.76574,0.417198 v 0.438942 h 5.938636 v -0.438942 z m 9.024017,0.618346 v 0.367655 h 1.240424 v -0.367655 z m 1.534707,0 v 0.367655 h 1.839282 v -0.367655 z m 3.185139,0 v 0.367655 h 0.861096 v -0.367655 z m -13.743863,0.847724 v 0.438948 h 5.938636 v -0.438948 z m 10.558724,0.243589 v 0.367594 h 1.839282 v -0.367594 z m 2.207016,0 v 0.367594 h 1.839219 v -0.367594 z m -4.41409,1.09125 v 0.367658 h 1.240424 v -0.367658 z m 2.207074,0 v 0.367658 h 0.881111 v -0.367658 z m 2.207016,0 v 0.367658 h 1.839219 v -0.367658 z m -12.76574,0.131235 v 0.438943 h 5.938636 v -0.438943 z m 0,1.466075 v 0.438942 h 2.445311 v -0.438942 z m 4.399501,1.316828 v 0.367658 h 4.908514 v -0.367658 z m -4.399501,0.149246 v 0.438942 h 2.445311 v -0.438942 z m 11.002584,0.218473 v 0.367657 h 1.360135 v -0.367657 z m 1.763156,0 v 0.367657 h 1.839219 v -0.367657 z m -8.386753,0.911724 v 0.367654 h 3.384093 v -0.367654 z m -4.378987,0.335873 v 0.438943 h 2.445311 v -0.438943 z m 4.378987,0.943505 v 0.367654 h 4.908575 v -0.367654 z m 6.619358,0.51316 v 0.761794 h 0.479895 v -0.761794 z m 1.44524,0 v 0.761794 h 0.479896 v -0.761794 z m 0.722619,0 v 0.761794 h 0.479896 v -0.761794 z m 0.722619,0 v 0.761794 h 0.479896 v -0.761794 z m 1.522989,0 v 0.761794 h 0.479889 v -0.761794 z m 0.766777,0 v 0.761794 h 0.47989 v -0.761794 z m -16.178589,0.0095 v 0.438879 h 2.445311 v -0.438879 z m 7.476588,0.756746 v 0.367655 h 1.831427 v -0.367655 z m -7.476588,0.709265 v 0.438878 h 2.445311 v -0.438878 z m 10.998345,0.182704 v 0.761796 h 0.479895 v -0.761796 z m 0.722618,0 v 0.761796 h 0.47996 v -0.761796 z m 0.722622,0 v 0.761796 h 0.479896 v -0.761796 z m 0.722619,0 v 0.761796 h 0.479896 v -0.761796 z m 0.722619,0 v 0.761796 h 0.479896 v -0.761796 z m 0.722618,0 v 0.761796 h 0.479897 v -0.761796 z m 1.44,0 v 0.761796 h 0.479891 v -0.761796 z m -10.495373,0.38741 v 0.367657 h 3.751136 v -0.367657 z m -5.556068,0.895956 v 0.438946 h 2.445311 v -0.438946 z m 4.378987,0.383423 v 0.367657 H 80.73106 V 78.03167 Z m 6.619358,0.0372 v 0.761797 h 0.479895 V 78.06887 Z m 1.44524,0 v 0.761797 h 0.479896 V 78.06887 Z m 0.722619,0 v 0.761797 h 0.479896 V 78.06887 Z m 1.445237,0 v 0.761797 h 0.479897 V 78.06887 Z m 1.44,0 v 0.761797 H 87.97483 V 78.06887 Z"
       id="path17973-2-83-6"
       inkscape:connector-curvature="0" />
  </g>
</svg>
