<?xml version="1.0" encoding="UTF-8" standalone="no"?>
<svg
   xmlns:dc="http://purl.org/dc/elements/1.1/"
   xmlns:cc="http://creativecommons.org/ns#"
   xmlns:rdf="http://www.w3.org/1999/02/22-rdf-syntax-ns#"
   xmlns:svg="http://www.w3.org/2000/svg"
   xmlns="http://www.w3.org/2000/svg"
   xmlns:sodipodi="http://sodipodi.sourceforge.net/DTD/sodipodi-0.dtd"
   xmlns:inkscape="http://www.inkscape.org/namespaces/inkscape"
   width="39.687504mm"
   height="39.687584mm"
   viewBox="0 0 39.687504 39.687584"
   version="1.1"
   id="svg174"
   inkscape:version="1.0 (4035a4fb49, 2020-05-01)"
   sodipodi:docname="مشروع اجتماعي.svg">
  <defs
     id="defs168" />
  <sodipodi:namedview
     fit-margin-bottom="0"
     fit-margin-right="0"
     fit-margin-left="0"
     fit-margin-top="0"
     id="base"
     pagecolor="#ffffff"
     bordercolor="#666666"
     borderopacity="1.0"
     inkscape:pageopacity="0.0"
     inkscape:pageshadow="2"
     inkscape:zoom="0.35"
     inkscape:cx="-1.1249551"
     inkscape:cy="227.44657"
     inkscape:document-units="mm"
     inkscape:current-layer="layer1"
     inkscape:document-rotation="0"
     showgrid="false"
     inkscape:window-width="1424"
     inkscape:window-height="1030"
     inkscape:window-x="32"
     inkscape:window-y="0"
     inkscape:window-maximized="0" />
  <metadata
     id="metadata171">
    <rdf:RDF>
      <cc:Work
         rdf:about="">
        <dc:format>image/svg+xml</dc:format>
        <dc:type
           rdf:resource="http://purl.org/dc/dcmitype/StillImage" />
        <dc:title></dc:title>
      </cc:Work>
    </rdf:RDF>
  </metadata>
  <g
     transform="translate(-106.13098,-87.988095)"
     inkscape:label="Layer 1"
     inkscape:groupmode="layer"
     id="layer1">
    <path
       inkscape:connector-curvature="0"
       id="path17973-2-83"
       d="m 128.60982,87.988095 -7e-5,0.0012 c -0.0333,0 -0.0654,-1.2e-5 -0.0965,0.0017 -0.15402,-0.0072 -0.27047,0.01502 -0.37724,0.07901 -0.35743,0.155903 -0.55956,0.553116 -0.90171,1.322788 -0.73779,1.659565 -1.81911,2.288087 -3.93655,2.288087 -0.87836,0 -1.47922,-0.07045 -1.9716,-0.279851 -0.37652,-0.21038 -0.74348,-0.500497 -1.12617,-0.879808 -0.0416,-0.04795 -0.0835,-0.0977 -0.12587,-0.149425 -1.0746,-1.310605 -1.23407,-1.351112 -2.66157,-0.676413 -0.6776,0.320275 -1.84547,0.978967 -2.59541,1.463805 l -1.36346,0.881557 0.14234,0.765137 c 0.0783,0.420844 0.25979,1.086316 0.40322,1.478824 0.15201,0.416031 0.20676,0.996892 0.13126,1.392777 -0.20469,1.073288 -1.25679,2.719596 -2.15236,3.367986 -0.76331,0.552585 -0.94319,0.594021 -2.57735,0.594021 -0.25976,0 -0.48072,-1.2e-5 -0.6706,0.0027 -0.19506,-0.0081 -0.3613,-0.004 -0.50525,0.01653 -0.59207,0.03959 -0.67389,0.160656 -0.86488,0.52985 -0.49429,0.95526 -1.3073,4.54304 -1.223,5.28006 0.001,0.0884 0.0101,0.1504 0.0289,0.18065 0.0368,0.0595 0.24912,0.19492 0.55531,0.36179 0.31641,0.20236 0.73278,0.43788 1.16591,0.65374 1.39789,0.69666 1.56352,0.84547 2.05222,1.8438 0.92956,1.89875 0.41388,3.90125 -1.32633,5.15076 -1.27225,0.9135 -1.39493,1.42467 -0.68868,2.86935 0.92172,1.88528 2.28776,3.8033 2.70886,3.8033 0.20938,0 0.852,-0.17898 1.42803,-0.3978 0.67587,-0.25673 1.17961,-0.38156 1.66573,-0.37096 0.0629,0.002 0.12607,0.006 0.18938,0.011 0.42407,0.0402 0.85015,0.18479 1.38212,0.43613 0.3819,0.18043 0.72025,0.37862 1.01613,0.5961 0.34367,0.29683 0.68225,0.64225 0.95965,0.97794 0.51623,0.76313 0.70629,1.69462 0.59006,2.82861 -0.091,0.88751 -0.0571,1.3741 0.1095,1.57477 0.23747,0.28598 2.53621,1.12144 4.09337,1.48768 0.64554,0.15183 1.07899,0.22571 1.41339,0.16849 0.10084,0.0173 0.17337,0.0284 0.20613,0.0311 0.21049,0.0174 0.50683,-0.34589 0.77249,-0.91002 0.0921,-0.16061 0.18896,-0.34573 0.29553,-0.55795 0.59055,-1.17567 0.83638,-1.45801 1.61205,-1.85164 2.19913,-1.11606 4.42258,-0.73648 5.64466,0.96361 0.48043,0.6683 0.8466,0.982 1.14641,0.982 h 0.0156 0.006 c 0.0169,0 0.0383,-0.003 0.0639,-0.008 0.71192,-0.11339 3.31327,-1.42696 4.48271,-2.2785 0.87581,-0.63772 0.91846,-0.71172 0.76857,-1.33326 -0.0873,-0.36192 -0.303,-0.9909 -0.47933,-1.39775 -0.41309,-0.95302 -0.39953,-1.65475 0.0511,-2.64272 0.2096,-0.45953 0.42622,-0.85139 0.66181,-1.18326 0.12479,-0.15302 0.26082,-0.30498 0.40834,-0.45558 0.18163,-0.18541 0.35864,-0.34748 0.5345,-0.48767 0.69314,-0.46444 1.56598,-0.65154 2.76845,-0.65635 0.56701,0.0705 0.95478,0.0874 1.24819,-0.002 l 0.47146,-0.001 0.37771,-0.79588 c 0.49615,-1.04535 1.41102,-4.74876 1.26626,-5.12577 -0.0623,-0.1621 -0.54596,-0.49857 -1.07485,-0.7477 -1.36914,-0.6449 -2.02279,-1.32658 -2.35995,-2.46139 -0.15624,-0.52575 -0.25271,-1.02112 -0.28986,-1.48518 -0.003,-0.0824 -0.004,-0.16583 -0.004,-0.25049 0,-0.25507 0.004,-0.48153 0.0142,-0.68633 0.10892,-0.97706 0.53976,-1.77949 1.28992,-2.39383 0.49026,-0.40147 0.94367,-0.93833 1.00766,-1.19306 0.008,-0.0331 0.013,-0.0709 0.0141,-0.11309 0.0278,-0.1401 -0.01,-0.28232 -0.0803,-0.49004 -0.23042,-0.814243 -0.93777,-2.178046 -1.90245,-3.620403 -0.83348,-1.246176 -0.84765,-1.256357 -1.60829,-1.138477 -0.42209,0.06544 -1.02236,0.250743 -1.33392,0.411773 -0.68767,0.35539 -1.05551,0.356355 -2.03988,0.0054 -1.11397,-0.397116 -2.26964,-1.261749 -2.7777,-2.078226 -0.346,-0.556095 -0.46957,-1.118789 -0.5466,-2.489926 l -0.0284,-0.505419 c 0.0372,-0.516962 0.0326,-0.774847 -0.0533,-0.949472 l -0.0178,-0.316616 -1.22465,-0.456817 c -0.67356,-0.251273 -1.95288,-0.604359 -2.84303,-0.784594 -0.59462,-0.120425 -1.01574,-0.197798 -1.33448,-0.200452 z m -2.62155,5.396776 c 0.44065,9.6e-5 0.88068,0.02121 1.3182,0.06381 4.38217,0.4269 8.29134,2.770127 10.73221,6.433054 1.26602,1.899875 2.09912,4.268285 2.32848,6.620185 0.36172,3.70882 -0.84934,7.64731 -3.22781,10.49733 -0.5814,0.69667 -1.82195,1.8876 -2.48106,2.38188 -2.88264,2.16161 -6.57884,3.19131 -10.14303,2.82572 -2.77562,-0.28471 -5.61331,-1.46942 -7.71814,-3.22235 -0.26476,-0.22052 -0.60331,-0.53913 -0.9479,-0.88492 -0.15719,-0.15477 -0.3105,-0.3128 -0.45977,-0.47395 -0.3911,-0.41406 -0.7498,-0.82266 -0.96958,-1.1154 -2.14218,-2.85341 -3.1777,-6.5076 -2.83627,-10.00831 0.28057,-2.87659 1.4423,-5.69724 3.22777,-7.836661 0.58137,-0.696654 1.82194,-1.887606 2.48102,-2.381878 2.49616,-1.871762 5.6114,-2.899716 8.69588,-2.89851 z m -0.0638,1.267274 c -0.90524,0.0025 -1.81571,0.09833 -2.71611,0.292867 -1.08567,0.234603 -1.90462,0.516528 -2.91951,1.004998 -3.7818,1.8201 -6.4003,5.16938 -7.2435,9.26502 -0.4977,2.4176 -0.26398,5.13769 0.63701,7.41194 0.8125,2.05084 2.13558,3.89738 3.77571,5.26942 2.06042,1.72365 4.57774,2.78658 7.2661,3.06807 0.85827,0.0899 2.48963,0.0247 3.44566,-0.13766 5.35839,-0.91 9.60526,-4.985 10.70745,-10.27412 0.82395,-3.95413 -0.15108,-7.92481 -2.72748,-11.107443 -2.47862,-3.061849 -6.30269,-4.803949 -10.22533,-4.793092 z m -7.29704,6.061235 c 0.13979,0 0.27913,0.0149 0.4065,0.0446 0.0347,0.007 0.0668,0.0156 0.0991,0.027 0.0214,0.007 0.0423,0.0138 0.0627,0.0215 0.36347,0.13693 0.70217,0.45902 0.87389,0.83101 0.11058,0.2395 0.13078,0.34084 0.12919,0.64874 -0.002,0.30176 -0.0245,0.41456 -0.13241,0.65188 -0.35128,0.77201 -1.2653,1.13207 -2.05268,0.80857 -0.33476,-0.13755 -0.67146,-0.45901 -0.83686,-0.79904 -0.0902,-0.18539 -0.11586,-0.2833 -0.12193,-0.53385 -0.006,-0.076 -0.007,-0.1529 -0.001,-0.23018 0.003,-0.27273 0.0258,-0.36413 0.12161,-0.55913 0.15317,-0.31169 0.44422,-0.61112 0.74371,-0.76516 0.18784,-0.0966 0.44885,-0.14649 0.70851,-0.14587 z m 7.34709,0.0217 h 0.0748 c 0.36612,0.002 0.44009,0.0186 0.63683,0.12239 0.12782,0.0674 0.33821,0.23826 0.46755,0.37967 0.58584,0.64066 0.53553,1.61735 -0.11384,2.21051 -0.14377,0.1313 -0.34792,0.26182 -0.4967,0.31743 -0.33898,0.12678 -0.82121,0.12403 -1.16192,-0.007 -0.16226,-0.0622 -0.31282,-0.16501 -0.4903,-0.33592 -0.0162,-0.0153 -0.032,-0.0308 -0.0475,-0.0467 -0.23992,-0.24009 -0.29014,-0.32176 -0.37732,-0.6086 -0.11885,-0.39111 -0.10407,-0.76555 0.0439,-1.11055 0.12047,-0.28092 0.46775,-0.64877 0.75625,-0.80099 0.18763,-0.099 0.26439,-0.11792 0.60288,-0.12051 0.01,0 0.0201,6e-5 0.0305,0 0.0236,3e-5 0.0485,0 0.075,0 z m 7.34812,0 c 0.43035,0 0.5026,0.0123 0.70835,0.12088 0.28529,0.15055 0.63261,0.51636 0.76183,0.80243 0.0764,0.16907 0.0984,0.30781 0.0997,0.62755 0.001,0.35711 -0.0148,0.44435 -0.12436,0.67012 -0.16208,0.33387 -0.54105,0.68358 -0.8769,0.80914 -0.334,0.12492 -0.82175,0.12401 -1.15021,-0.002 -0.13161,-0.0505 -0.34923,-0.19234 -0.48359,-0.31505 -0.64954,-0.59331 -0.69987,-1.5699 -0.11397,-2.21064 0.12932,-0.14142 0.33976,-0.31228 0.46758,-0.37967 0.20944,-0.11047 0.2796,-0.12258 0.71159,-0.12258 z m -14.69623,3.42107 v 7e-5 c 1.04735,0 1.33442,10e-4 1.52226,0.0456 h 0.007 l 0.007,0.003 c 0.0596,0.0152 0.11046,0.0351 0.17527,0.0611 0.54109,0.21772 0.88355,0.67888 1.56977,2.11366 0.20094,0.42022 0.377,0.76403 0.39124,0.76403 0.0142,0 0.19049,-0.34304 0.39172,-0.76234 0.68932,-1.43619 1.03267,-1.89794 1.57301,-2.11535 0.26895,-0.10823 0.29755,-0.11006 1.71118,-0.11006 1.41364,0 1.44224,0.002 1.71117,0.11006 0.54036,0.21741 0.88365,0.67916 1.57296,2.11535 0.20124,0.4193 0.37752,0.76234 0.39172,0.76234 0.0142,0 0.19029,-0.34381 0.39125,-0.76403 0.68362,-1.42935 1.03181,-1.89651 1.57738,-2.11648 0.0611,-0.0246 0.11006,-0.0436 0.16752,-0.0583 l 0.007,-0.003 0.007,-6e-5 c 0.18682,-0.0441 0.47556,-0.0456 1.52196,-0.0456 1.39144,0 1.44595,0.003 1.69538,0.10413 0.33299,0.13457 0.62087,0.39085 0.88488,0.78771 0.22297,0.33525 1.03013,1.97401 1.46812,2.93826 0.12551,0.26462 0.21372,0.46062 0.23778,0.53447 0.006,0.0175 0.0105,0.0351 0.0146,0.0526 0.0226,0.0603 0.0351,0.10093 0.0351,0.11733 0,0.20607 -0.14884,0.46844 -0.32366,0.57048 -0.18745,0.10941 -0.48417,0.11239 -0.66325,0.007 -0.18132,-0.10705 -0.25553,-0.23297 -1.0501,-1.7818 l -0.67855,-1.32286 -0.0229,4.15096 c -0.001,0.10525 -0.001,0.19808 -0.002,0.29811 -0.016,2.91069 -0.022,3.63937 -0.0642,3.86992 -0.01,0.0666 -0.0216,0.10077 -0.0357,0.12668 -0.21756,0.39731 -0.82002,0.44558 -1.13108,0.12724 -0.024,-0.022 -0.0448,-0.0458 -0.0629,-0.0752 -0.005,-0.007 -0.01,-0.0136 -0.0142,-0.0206 -0.0226,-0.0345 -0.0392,-0.0758 -0.052,-0.17106 -0.0532,-0.27942 -0.0531,-0.84781 -0.0531,-2.1682 0,-1.2e-4 0,-0.001 0,-0.001 l -0.0228,-2.21436 -0.14661,-0.0142 -0.0894,-0.009 h -0.0573 l -0.0131,2.1753 c -0.0126,2.10536 -0.0163,2.18639 -0.10681,2.34036 -0.009,0.0157 -0.0188,0.0309 -0.0287,0.0456 -0.0341,0.0726 -0.08,0.11383 -0.14148,0.15915 -0.20936,0.17761 -0.48862,0.21002 -0.73497,0.0947 -0.0778,-0.029 -0.1438,-0.0739 -0.20395,-0.13809 -0.0413,-0.0381 -0.0805,-0.0815 -0.11658,-0.13023 -0.0533,-0.0719 -0.0769,-0.11029 -0.0895,-0.86193 -0.0124,-0.57883 -0.0185,-1.60227 -0.0288,-3.46264 l -0.0226,-4.08439 -0.15229,0.28153 c -0.0951,0.17561 -0.44553,0.84728 -0.77884,1.49259 -0.22652,0.4386 -0.38363,0.73753 -0.50749,0.94124 -0.0284,0.053 -0.0477,0.0882 -0.0559,0.10208 -0.0284,0.0478 -0.0625,0.0902 -0.10095,0.12724 -0.14914,0.18337 -0.26268,0.20296 -0.45856,0.20296 -0.17941,0 -0.28562,-0.01 -0.42447,-0.16751 -0.0212,-0.0182 -0.0414,-0.0381 -0.0603,-0.0597 -0.009,-0.0105 -0.0348,-0.0534 -0.0738,-0.12251 -0.15682,-0.24148 -0.36965,-0.64924 -0.72566,-1.33793 l -0.76956,-1.48886 -0.0228,4.14647 c -0.0223,4.04442 -0.025,4.15015 -0.11409,4.29782 -0.19827,0.32882 -0.59811,0.41217 -0.91248,0.25878 -0.0336,-0.0144 -0.0652,-0.0328 -0.0974,-0.0558 -0.0876,-0.0625 -0.14885,-0.1042 -0.19166,-0.19585 -0.01,-0.0144 -0.0193,-0.0293 -0.0283,-0.0447 -0.0905,-0.15394 -0.0943,-0.23535 -0.10724,-2.33757 l -0.0135,-2.17809 h -0.1328 -0.13273 l -0.0135,2.17809 c -0.013,2.10222 -0.0167,2.18363 -0.10717,2.33757 -0.0101,0.0172 -0.0207,0.0337 -0.0316,0.0497 -0.0298,0.0621 -0.0683,0.10138 -0.11789,0.13672 -0.30952,0.28336 -0.78696,0.23458 -1.07616,-0.15542 -0.0948,-0.12788 -0.0956,-0.15711 -0.11826,-4.28062 l -0.0228,-4.15188 -0.76956,1.48618 c -0.3575,0.69036 -0.57065,1.09813 -0.72769,1.33886 -0.0379,0.0671 -0.0629,0.1087 -0.0719,0.11896 -0.0171,0.0196 -0.0361,0.0382 -0.0566,0.0556 -0.14071,0.16186 -0.24728,0.17162 -0.42815,0.17162 -0.18056,0 -0.28703,-0.01 -0.42742,-0.17081 -0.0209,-0.0176 -0.0403,-0.0364 -0.0578,-0.0564 -0.009,-0.0106 -0.0361,-0.0554 -0.0766,-0.12706 -0.15657,-0.24173 -0.36891,-0.64791 -0.7225,-1.33077 l -0.7696,-1.48618 -0.0228,4.14378 c -0.0222,4.04176 -0.0251,4.14755 -0.11409,4.29521 -0.19825,0.32882 -0.59809,0.41217 -0.91249,0.25879 -0.0336,-0.0144 -0.0652,-0.0328 -0.0974,-0.0558 -0.0876,-0.0625 -0.14881,-0.10421 -0.19157,-0.19585 -0.01,-0.0144 -0.0193,-0.0293 -0.0283,-0.0447 -0.0905,-0.15394 -0.0942,-0.23536 -0.10725,-2.33757 l -0.0134,-2.1781 h -0.13283 -0.1328 l -0.0135,2.1781 c -0.013,2.10221 -0.0167,2.18363 -0.10723,2.33757 -0.13864,0.23588 -0.35709,0.36572 -0.60897,0.36186 -0.11552,-0.002 -0.24158,-0.0172 -0.28008,-0.0342 -0.13238,-0.0587 -0.25695,-0.16811 -0.34442,-0.30267 -0.0332,-0.0511 -0.054,-0.10726 -0.0683,-0.40048 -0.0372,-0.46793 -0.0393,-1.4576 -0.041,-3.69369 0,-0.0653 -0.001,-0.12294 -0.001,-0.19038 l -0.0228,-4.14976 -0.74245,1.43364 c -0.40835,0.78852 -0.76773,1.46604 -0.79871,1.50557 -0.18576,0.23724 -0.58377,0.30824 -0.85163,0.15191 -0.17603,-0.10279 -0.32308,-0.36529 -0.32209,-0.57547 6e-5,-0.0173 0.0132,-0.0601 0.0371,-0.12344 0.003,-0.0136 0.007,-0.0273 0.0118,-0.041 0.0206,-0.0632 0.0883,-0.21612 0.18612,-0.42479 0.42166,-0.94027 1.28482,-2.69465 1.52175,-3.05081 0.26218,-0.39417 0.55059,-0.65052 0.88291,-0.78483 0.24944,-0.10082 0.304,-0.10421 1.69546,-0.10421 z"
       style="fill:#7fa2b6;fill-opacity:1;stroke-width:0.199024" />
  </g>
</svg>
