<?xml version="1.0" encoding="UTF-8" standalone="no"?>
<svg
   xmlns:dc="http://purl.org/dc/elements/1.1/"
   xmlns:cc="http://creativecommons.org/ns#"
   xmlns:rdf="http://www.w3.org/1999/02/22-rdf-syntax-ns#"
   xmlns:svg="http://www.w3.org/2000/svg"
   xmlns="http://www.w3.org/2000/svg"
   xmlns:sodipodi="http://sodipodi.sourceforge.net/DTD/sodipodi-0.dtd"
   xmlns:inkscape="http://www.inkscape.org/namespaces/inkscape"
   width="39.687553mm"
   height="39.687519mm"
   viewBox="0 0 39.687553 39.687519"
   version="1.1"
   id="svg459"
   inkscape:version="1.0 (4035a4fb49, 2020-05-01)"
   sodipodi:docname="مشروع ميناء بحري.svg">
  <defs
     id="defs453" />
  <sodipodi:namedview
     id="base"
     pagecolor="#ffffff"
     bordercolor="#666666"
     borderopacity="1.0"
     inkscape:pageopacity="0.0"
     inkscape:pageshadow="2"
     inkscape:zoom="0.35"
     inkscape:cx="176.01806"
     inkscape:cy="438.87446"
     inkscape:document-units="mm"
     inkscape:current-layer="layer1"
     inkscape:document-rotation="0"
     showgrid="false"
     fit-margin-top="0"
     fit-margin-left="0"
     fit-margin-right="0"
     fit-margin-bottom="0"
     inkscape:window-width="1424"
     inkscape:window-height="1030"
     inkscape:window-x="160"
     inkscape:window-y="0"
     inkscape:window-maximized="0" />
  <metadata
     id="metadata456">
    <rdf:RDF>
      <cc:Work
         rdf:about="">
        <dc:format>image/svg+xml</dc:format>
        <dc:type
           rdf:resource="http://purl.org/dc/dcmitype/StillImage" />
        <dc:title />
      </cc:Work>
    </rdf:RDF>
  </metadata>
  <g
     inkscape:label="Layer 1"
     inkscape:groupmode="layer"
     id="layer1"
     transform="translate(-59.261889,-32.047798)">
    <path
       inkscape:connector-curvature="0"
       id="path17973-2-83-0"
       d="m 81.740445,32.048338 h -6.4e-5 c -0.0333,0 -0.06538,0 -0.0965,0.0017 -0.154025,-0.0072 -0.270511,0.01503 -0.377259,0.07901 -0.357435,0.155915 -0.559536,0.55314 -0.90168,1.322813 -0.737791,1.659602 -1.819099,2.288137 -3.936513,2.288137 -0.878344,0 -1.47922,-0.07045 -1.971591,-0.279863 -0.376526,-0.21038 -0.743442,-0.500498 -1.126127,-0.879809 -0.0416,-0.04796 -0.08348,-0.0977 -0.125872,-0.149438 -1.074571,-1.310629 -1.234055,-1.351137 -2.66153,-0.676425 -0.677586,0.320275 -1.845499,0.978992 -2.595389,1.463831 l -1.363437,0.88157 0.14234,0.765149 c 0.07831,0.420857 0.259755,1.086341 0.403214,1.478861 0.152014,0.416031 0.206727,0.996905 0.131231,1.392791 -0.204686,1.073313 -1.256784,2.719646 -2.152336,3.368036 -0.763265,0.552598 -0.943178,0.594046 -2.577289,0.594046 -0.259783,0 -0.48075,6.4e-5 -0.670624,0.0027 -0.195047,-0.0081 -0.361299,-0.004 -0.505205,0.01651 -0.592097,0.03959 -0.673882,0.160595 -0.864906,0.529798 -0.494254,0.955275 -1.307254,4.543125 -1.222947,5.280155 0.0013,0.08842 0.01012,0.150414 0.02886,0.180656 0.03677,0.05949 0.249122,0.194988 0.555289,0.361857 0.316383,0.202358 0.732781,0.437877 1.165902,0.653746 1.397852,0.696667 1.563497,0.845477 2.052198,1.843818 0.929517,1.898801 0.413873,3.90126 -1.326346,5.150802 -1.272235,0.913513 -1.394912,1.424758 -0.688629,2.869457 0.921695,1.885314 2.287687,3.803366 2.708776,3.803366 0.209411,0 0.852009,-0.179051 1.428048,-0.397877 0.675862,-0.256724 1.179567,-0.381553 1.665714,-0.370961 0.06285,0.0024 0.126029,0.0062 0.18933,0.01098 0.424122,0.04024 0.850191,0.184794 1.382144,0.436138 0.38189,0.180442 0.720234,0.378624 1.016093,0.596108 0.343676,0.296838 0.682244,0.642264 0.959683,0.97796 0.516216,0.763143 0.706283,1.694656 0.590052,2.828645 -0.09098,0.887525 -0.05714,1.374201 0.109495,1.574875 0.237471,0.285985 2.536173,1.121397 4.093285,1.487641 0.645535,0.151828 1.079009,0.225712 1.413396,0.168495 0.100842,0.0173 0.173338,0.02838 0.206122,0.0311 0.210466,0.01741 0.506833,-0.345905 0.772491,-0.91004 0.09213,-0.160623 0.18895,-0.345737 0.295538,-0.557968 0.590501,-1.175689 0.836334,-1.458035 1.612019,-1.851676 2.199103,-1.116076 4.422498,-0.736488 5.644584,0.963635 0.4804,0.668312 0.846583,0.982017 1.146397,0.982017 h 0.01558 0.0065 c 0.01686,0 0.03827,-0.0027 0.06391,-0.008 0.7119,-0.113388 3.313225,-1.426979 4.48264,-2.278538 0.875791,-0.637735 0.918437,-0.711728 0.768594,-1.333278 -0.08731,-0.361931 -0.303004,-0.990923 -0.479345,-1.397788 -0.413076,-0.953029 -0.399509,-1.654765 0.05111,-2.642755 0.209602,-0.459543 0.426258,-0.851412 0.661847,-1.183292 0.124785,-0.15302 0.260773,-0.304978 0.408319,-0.455586 0.181638,-0.18541 0.358648,-0.347477 0.534511,-0.487662 0.693099,-0.464453 1.565922,-0.651551 2.768407,-0.656364 0.567006,0.0705 0.954767,0.0874 1.248134,-0.0019 l 0.471495,-0.0012 0.377703,-0.795885 c 0.496141,-1.045387 1.411004,-4.748921 1.266235,-5.125929 -0.06225,-0.162103 -0.545937,-0.498579 -1.074827,-0.747705 -1.36912,-0.644917 -2.022763,-1.326614 -2.359959,-2.461436 -0.15623,-0.525769 -0.252666,-1.021151 -0.289856,-1.485206 -0.0028,-0.08235 -0.0041,-0.165771 -0.0041,-0.250442 0,-0.255073 0.0037,-0.481582 0.01423,-0.686389 0.108919,-0.977073 0.539777,-1.779521 1.289921,-2.393882 0.490201,-0.401471 0.943659,-0.938338 1.007601,-1.193075 0.0082,-0.03313 0.01296,-0.07094 0.01417,-0.113091 0.02777,-0.140101 -0.0097,-0.282276 -0.08031,-0.48999 -0.230418,-0.814246 -0.937692,-2.178146 -1.902383,-3.620528 -0.833432,-1.246201 -0.847703,-1.256309 -1.60835,-1.138429 -0.422078,0.06544 -1.022315,0.250683 -1.333878,0.411713 -0.687642,0.35539 -1.055482,0.35638 -2.039842,0.0054 C 89.452467,39.432319 88.296844,38.567685 87.788767,37.751196 87.442792,37.1951 87.319283,36.632393 87.242223,35.261231 L 87.213783,34.7558 c 0.03725,-0.516963 0.03269,-0.774871 -0.05328,-0.949485 l -0.01784,-0.316619 -1.224639,-0.456829 c -0.673565,-0.251284 -1.952888,-0.604358 -2.84298,-0.784605 -0.594618,-0.120425 -1.015771,-0.19781 -1.334517,-0.200464 z m -2.6215,5.396877 c 0.440625,9.6e-5 0.880707,0.0212 1.318173,0.06381 4.382116,0.4269 8.29124,2.770177 10.732123,6.433167 1.266011,1.899887 2.099058,4.268352 2.32845,6.620303 0.361715,3.708866 -0.849326,7.647425 -3.227769,10.497497 -0.581403,0.696679 -1.82197,1.88763 -2.481041,2.381915 -2.882594,2.161656 -6.578762,3.191372 -10.142901,2.825777 -2.775621,-0.284712 -5.613237,-1.469451 -7.718073,-3.222411 -0.264731,-0.220525 -0.603271,-0.539135 -0.947874,-0.884923 -0.157184,-0.15477 -0.310507,-0.31282 -0.459744,-0.473971 -0.391146,-0.414065 -0.749826,-0.822666 -0.969581,-1.115424 -2.142152,-2.853437 -3.177653,-6.507694 -2.836243,-10.00846 0.280568,-2.876646 1.442289,-5.697344 3.227708,-7.836804 0.581403,-0.696667 1.821941,-1.88763 2.481043,-2.381915 2.496109,-1.871804 5.611322,-2.899771 8.695729,-2.898565 z m -0.06378,1.267287 c -0.905226,0.0025 -1.815684,0.09833 -2.716087,0.292879 -1.085618,0.234603 -1.904587,0.516529 -2.919465,1.005012 -3.781721,1.820125 -6.400189,5.169463 -7.243388,9.26518 -0.497734,2.417647 -0.263966,5.137775 0.637014,7.412063 0.812455,2.05088 2.135545,3.897448 3.775621,5.269503 2.060433,1.723681 4.577739,2.786632 7.266055,3.068123 0.858232,0.08987 2.489596,0.02472 3.445608,-0.137651 5.358336,-0.910024 9.605165,-4.985092 10.707288,-10.274294 0.823982,-3.954205 -0.151027,-7.924948 -2.727419,-11.107635 -2.478615,-3.061899 -6.302602,-4.804025 -10.225227,-4.79318 z m 0.01472,3.069812 4.82e-4,6.4e-5 7.24e-4,6.4e-5 c 0.416109,-6.4e-5 0.834069,0.08982 1.206507,0.275304 0.361139,0.17986 0.647164,0.433366 0.855107,0.727838 0.124273,0.158617 0.224637,0.330938 0.293972,0.513223 0.08827,0.232009 0.124371,0.483875 0.113995,0.738792 0.0092,0.667281 -0.286727,1.333151 -0.909788,1.763754 -0.418822,0.289466 -0.443179,0.338551 -0.447297,0.89882 l -0.0042,0.592623 v 1.241677 l 0.0033,0.650755 0.05842,2.707377 c 0.03984,1.847015 0.109272,4.038623 0.154377,4.870252 0.03429,0.632588 0.05877,1.005711 0.09768,1.243172 0.03039,0.134998 0.06509,0.243433 0.104992,0.331265 0.03636,0.05791 0.08118,0.101004 0.138,0.147 0.69907,0.565783 2.90759,-0.182357 3.583898,-1.214004 0.265946,-0.405609 0.247079,-0.987508 -0.04482,-1.382079 l -0.142279,-0.192298 -0.1312,-0.139581 0.134808,-0.0445 0.835536,-0.413824 c 0.375952,-0.186206 0.691601,-0.376115 1.02669,-0.62839 0,-1.21e-4 0.0018,-0.0013 0.0018,-0.0013 0.107704,-0.08295 0.216273,-0.169498 0.325129,-0.259284 0.200951,-0.168364 0.416077,-0.362435 0.660027,-0.593178 0.127562,-0.12063 0.250943,-0.23605 0.367108,-0.343665 0.281779,-0.272915 0.45662,-0.435766 0.570486,-0.515334 0.0173,-0.01494 0.03387,-0.0293 0.04913,-0.04232 l 0.111855,-0.13285 0.01248,0.03246 c 0.01443,-0.01025 0.02407,-0.01601 0.0278,-0.01601 0.124147,0 0.297358,0.858987 0.298698,1.47523 0.0012,0.805054 -0.245451,1.633413 -0.809104,2.721153 -0.207242,0.399964 -0.320406,0.615097 -0.419907,0.724653 l -0.02302,0.04673 -0.02219,-0.0035 c -0.09465,0.07693 -0.188181,0.06538 -0.354879,0.03832 -0.285963,-0.04636 -0.402097,-0.0074 -1.045716,0.619475 -0.369213,0.434838 -0.912852,0.950076 -1.427475,1.356711 -0.863214,0.718247 -1.648791,1.085375 -3.203509,1.607405 -0.717328,0.240851 -1.463674,0.531934 -1.658528,0.646822 -0.07882,0.04649 -0.140619,0.0822 -0.193163,0.107362 -0.141353,0.08969 -0.201206,0.08421 -0.349103,-0.01613 -0.04265,-0.02281 -0.09146,-0.05192 -0.150067,-0.08749 -0.18595,-0.112814 -0.897021,-0.389577 -1.580289,-0.614988 -0.469963,-0.155023 -0.898999,-0.314111 -1.294837,-0.481932 -0.268562,-0.103405 -0.48423,-0.192828 -0.596311,-0.249259 -0.198876,-0.100221 -0.40235,-0.216991 -0.608153,-0.348213 -0.883229,-0.515118 -1.589289,-1.130166 -2.260554,-1.935739 -0.09685,-0.116203 -0.177488,-0.211839 -0.24727,-0.290261 -0.08393,-0.08765 -0.154984,-0.159064 -0.216434,-0.216231 -0.156931,-0.126988 -0.270064,-0.127796 -0.492341,-0.09903 -0.396893,0.05134 -0.418281,0.0345 -0.810415,-0.63991 -0.564069,-0.970101 -0.871992,-1.960842 -0.870747,-2.805523 -3.2e-5,-0.0012 0,-0.0021 0,-0.0033 -0.0012,-0.01969 -0.0012,-0.03927 -0.0012,-0.05864 0,-0.0528 0.0022,-0.110944 0.0065,-0.172418 0.02943,-0.628028 0.166731,-1.259313 0.294038,-1.316902 0.0043,-0.0028 0.0085,-0.0045 0.01258,-0.0045 0,0 0.0017,-9.6e-5 0.0017,0 0.0016,9.6e-5 0.0032,0 0.0045,0 0.04546,0 0.411448,0.334521 0.813415,0.743351 0.883261,0.898385 1.916558,1.658552 2.6924,1.980794 l 0.574156,0.238535 -0.09781,0.124382 c -0.0095,0.01784 -0.02493,0.03662 -0.04527,0.05752 l -0.07227,0.09167 c -0.681065,0.865369 -0.184418,1.789413 1.35035,2.512957 0.88291,0.4162 1.741911,0.470134 2.155752,0.135167 0.04022,-0.03255 0.07441,-0.06294 0.103747,-0.0984 0.03748,-0.05159 0.07052,-0.1156 0.09995,-0.204143 0.06665,-0.238077 0.09219,-0.684689 0.137905,-1.701063 0.0444,-0.985868 0.108408,-3.17668 0.142278,-4.868454 l 0.06148,-3.076025 0.0093,-1.241689 v -0.620826 c 0,-0.221708 -0.02065,-0.417178 -0.05155,-0.527061 -0.03173,-0.03268 -0.07032,-0.06894 -0.113868,-0.10724 -0.246886,-0.09815 -0.870044,-0.711903 -1.042202,-1.044518 -0.3801,-0.734702 -0.137075,-2.007827 0.491797,-2.576216 0.459779,-0.415537 1.104133,-0.634361 1.753115,-0.634481 z m 0.01791,1.446689 c -0.411448,0.0012 -0.829792,0.408975 -0.829792,0.809843 0,0.698585 0.897658,1.027533 1.432806,0.525057 0.116389,-0.109291 0.215604,-0.281419 0.249155,-0.421122 0.0089,-0.08494 0.003,-0.170777 -0.01635,-0.254048 -0.108281,-0.323363 -0.505012,-0.657269 -0.830909,-0.65967 -0.0017,-2.4e-5 -0.0032,-6.4e-5 -0.0049,-6.4e-5 z"
       style="fill:#addfea;fill-opacity:1;stroke-width:0.199024" />
  </g>
</svg>
