<?xml version="1.0" encoding="UTF-8" standalone="no"?>
<svg
   xmlns:dc="http://purl.org/dc/elements/1.1/"
   xmlns:cc="http://creativecommons.org/ns#"
   xmlns:rdf="http://www.w3.org/1999/02/22-rdf-syntax-ns#"
   xmlns:svg="http://www.w3.org/2000/svg"
   xmlns="http://www.w3.org/2000/svg"
   xmlns:sodipodi="http://sodipodi.sourceforge.net/DTD/sodipodi-0.dtd"
   xmlns:inkscape="http://www.inkscape.org/namespaces/inkscape"
   sodipodi:docname="مشروع مدن تنموية.svg"
   inkscape:version="1.0 (4035a4fb49, 2020-05-01)"
   id="svg252"
   version="1.1"
   viewBox="0 0 39.687504 39.6875"
   height="39.6875mm"
   width="39.687504mm">
  <defs
     id="defs246" />
  <sodipodi:namedview
     inkscape:window-maximized="0"
     inkscape:window-y="0"
     inkscape:window-x="32"
     inkscape:window-height="1030"
     inkscape:window-width="1424"
     fit-margin-bottom="0"
     fit-margin-right="0"
     fit-margin-left="0"
     fit-margin-top="0"
     showgrid="false"
     inkscape:document-rotation="0"
     inkscape:current-layer="layer1"
     inkscape:document-units="mm"
     inkscape:cy="170.31196"
     inkscape:cx="78.874994"
     inkscape:zoom="0.35"
     inkscape:pageshadow="2"
     inkscape:pageopacity="0.0"
     borderopacity="1.0"
     bordercolor="#666666"
     pagecolor="#ffffff"
     id="base" />
  <metadata
     id="metadata249">
    <rdf:RDF>
      <cc:Work
         rdf:about="">
        <dc:format>image/svg+xml</dc:format>
        <dc:type
           rdf:resource="http://purl.org/dc/dcmitype/StillImage" />
        <dc:title></dc:title>
      </cc:Work>
    </rdf:RDF>
  </metadata>
  <g
     transform="translate(-84.964325,-103.10496)"
     id="layer1"
     inkscape:groupmode="layer"
     inkscape:label="Layer 1">
    <path
       style="fill:#d4d7ac;fill-opacity:1;stroke-width:0.199022"
       d="m 107.44317,103.10496 -7e-5,10e-4 c -0.0333,0 -0.0654,6e-5 -0.0965,0.002 -0.15403,-0.007 -0.2705,0.015 -0.37726,0.0789 -0.35744,0.15591 -0.55954,0.55312 -0.9017,1.32278 -0.73778,1.65956 -1.81912,2.28813 -3.93654,2.28813 -0.87836,0 -1.47924,-0.0705 -1.97162,-0.27991 -0.37652,-0.21038 -0.743447,-0.50048 -1.12614,-0.8798 -0.04161,-0.048 -0.08349,-0.0977 -0.125891,-0.14941 -1.074565,-1.3106 -1.234065,-1.35111 -2.661563,-0.67642 -0.677578,0.32027 -1.845499,0.97897 -2.595408,1.4638 l -1.363454,0.88154 0.142345,0.76514 c 0.07831,0.42084 0.259769,1.0863 0.403212,1.47882 0.152021,0.41602 0.206752,0.99687 0.131248,1.39275 -0.204688,1.07329 -1.256804,2.71957 -2.152363,3.36797 -0.763287,0.55257 -0.943197,0.59401 -2.577326,0.59401 -0.25978,0 -0.480742,7e-5 -0.670628,0.003 -0.19505,-0.008 -0.361305,-0.004 -0.50522,0.0165 -0.592098,0.0396 -0.673885,0.16061 -0.864906,0.52979 -0.494277,0.95526 -1.307277,4.54302 -1.222991,5.28004 0.0013,0.0884 0.01013,0.1504 0.02888,0.18064 0.03678,0.0595 0.249105,0.195 0.555281,0.36184 0.316405,0.20236 0.732791,0.43789 1.165932,0.65374 1.397871,0.69666 1.56351,0.84545 2.052227,1.84378 0.929529,1.89874 0.413863,3.90117 -1.326361,5.15067 -1.272245,0.91349 -1.394927,1.42472 -0.688651,2.86939 0.921701,1.88526 2.287712,3.80327 2.708838,3.80327 0.209393,0 0.852,-0.17905 1.428029,-0.39787 0.675865,-0.25672 1.179612,-0.38154 1.665734,-0.37095 0.06287,0.002 0.126061,0.006 0.189345,0.011 0.424129,0.0402 0.850201,0.18478 1.382164,0.43613 0.381872,0.18043 0.720245,0.37862 1.016107,0.59609 0.343692,0.29683 0.682257,0.64225 0.959675,0.97793 0.516232,0.76313 0.7063,1.69462 0.590083,2.82857 -0.09099,0.88752 -0.05716,1.37418 0.109485,1.57486 0.237477,0.28597 2.536202,1.12136 4.093337,1.48759 0.64556,0.15182 1.07902,0.22571 1.41341,0.16849 0.10083,0.0173 0.17334,0.0284 0.20613,0.0311 0.21048,0.0174 0.50683,-0.3459 0.7725,-0.91002 0.0921,-0.16062 0.18895,-0.34573 0.29553,-0.55794 0.59053,-1.17567 0.83637,-1.45801 1.61205,-1.85164 2.19913,-1.11605 4.42256,-0.73648 5.64465,0.96362 0.48042,0.66828 0.84659,0.98199 1.14642,0.98199 h 0.0156 0.006 c 0.0169,0 0.0383,-0.003 0.0639,-0.008 0.71191,-0.11339 3.31326,-1.42696 4.48271,-2.27848 0.8758,-0.63772 0.91847,-0.71172 0.7686,-1.33326 -0.0873,-0.36191 -0.30301,-0.99089 -0.47934,-1.39774 -0.41309,-0.95301 -0.39952,-1.65473 0.0511,-2.6427 0.20959,-0.45953 0.42625,-0.85139 0.66183,-1.18325 0.12478,-0.15302 0.2608,-0.30498 0.40833,-0.45557 0.18164,-0.18542 0.35864,-0.34749 0.53451,-0.48766 0.69312,-0.46445 1.56597,-0.65154 2.76844,-0.65636 0.56701,0.0705 0.95479,0.0874 1.24816,-0.002 l 0.4715,-0.001 0.37771,-0.79586 c 0.49613,-1.04535 1.411,-4.74879 1.26625,-5.12581 -0.0622,-0.16209 -0.54596,-0.49856 -1.07484,-0.74768 -1.36913,-0.64489 -2.02279,-1.32656 -2.35999,-2.46136 -0.15622,-0.52576 -0.25269,-1.02114 -0.28985,-1.48518 -0.003,-0.0824 -0.004,-0.16578 -0.004,-0.25043 0,-0.25506 0.004,-0.48158 0.0142,-0.68638 0.10893,-0.97705 0.5398,-1.77948 1.28995,-2.39381 0.49023,-0.40148 0.94367,-0.93833 1.00763,-1.19305 0.008,-0.0331 0.013,-0.0709 0.0142,-0.1131 0.0278,-0.1401 -0.01,-0.28226 -0.0803,-0.48996 -0.23043,-0.81425 -0.93771,-2.1781 -1.90241,-3.62046 -0.83345,-1.24616 -0.84772,-1.25627 -1.60837,-1.13839 -0.42208,0.0654 -1.02235,0.25067 -1.33389,0.41169 -0.68766,0.35539 -1.0555,0.35638 -2.03988,0.005 -1.11399,-0.39711 -2.26965,-1.26173 -2.77772,-2.0782 -0.346,-0.55607 -0.4695,-1.11878 -0.54655,-2.48989 l -0.0284,-0.50543 c 0.0372,-0.51695 0.0327,-0.77484 -0.0533,-0.94946 l -0.0178,-0.31661 -1.22467,-0.45682 c -0.67355,-0.25128 -1.95289,-0.60435 -2.843,-0.78459 -0.59462,-0.12043 -1.01576,-0.19781 -1.33451,-0.20046 z m -2.62156,5.39674 c 0.44065,1e-4 0.88071,0.0212 1.3182,0.0638 4.38216,0.42689 8.29135,2.77011 10.73224,6.43302 1.26603,1.89984 2.09912,4.26823 2.3285,6.62013 0.3617,3.70878 -0.84935,7.64724 -3.22782,10.49725 -0.58143,0.69666 -1.82198,1.88758 -2.48107,2.38186 -2.88264,2.16158 -6.57886,3.19129 -10.14303,2.82571 -2.77565,-0.28472 -5.613319,-1.46943 -7.718166,-3.22234 -0.264751,-0.22052 -0.603292,-0.53912 -0.947889,-0.88491 -0.157183,-0.15477 -0.310507,-0.31281 -0.459764,-0.47396 -0.391125,-0.41404 -0.749812,-0.82265 -0.969592,-1.1154 -2.142169,-2.85336 -3.177686,-6.50754 -2.836274,-10.00821 0.280579,-2.87657 1.442312,-5.69721 3.227773,-7.83662 0.581398,-0.69663 1.821952,-1.88758 2.481061,-2.38185 2.496128,-1.87176 5.611371,-2.8997 8.695831,-2.89849 z m -0.0638,1.26726 c -0.90524,0.002 -1.8157,0.0983 -2.71613,0.29288 -1.08564,0.23459 -1.90459,0.51651 -2.919494,1.00498 -3.781787,1.82008 -6.400296,5.16939 -7.243477,9.26501 -0.497739,2.41758 -0.263979,5.13759 0.637009,7.41183 0.812481,2.05083 2.135559,3.89734 3.775683,5.26937 2.06043,1.72364 4.577789,2.78655 7.266119,3.06805 0.85826,0.0899 2.48964,0.0247 3.44568,-0.13765 5.35839,-0.91 9.60526,-4.98498 10.70741,-10.27405 0.82399,-3.9541 -0.15103,-7.92475 -2.72747,-11.10736 -2.47863,-3.06182 -6.30267,-4.8039 -10.22533,-4.79306 z m -5.555391,1.96311 c 0.003,0 0.0063,0.008 0.0099,0.0207 0.02176,0.0772 0.239514,0.8328 0.483891,1.67891 l 0.44411,1.53838 -0.359631,0.52785 -0.35981,0.52785 0.106168,0.0626 c 0.12851,0.0758 0.208054,0.21928 0.216668,0.39158 l 0.0064,0.12818 1.893545,1.09278 c 1.04146,0.6011 1.88954,1.09705 1.88439,1.10225 -0.005,0.005 -0.55585,-0.12534 -1.22378,-0.28975 -0.66794,-0.16448 -1.42258,-0.35023 -1.67696,-0.41289 l -0.46243,-0.11384 -0.278403,-0.57478 c -0.15997,-0.33008 -0.29205,-0.56648 -0.310314,-0.5549 -0.01916,0.0119 -0.02587,0.10928 -0.01714,0.24439 0.0081,0.12366 0.02913,0.51993 0.04689,0.88061 0.01773,0.36059 0.04582,0.91572 0.06228,1.23342 0.01649,0.31771 0.04454,0.8656 0.06248,1.21766 0.04762,0.93403 0.09203,1.78675 0.109618,2.10761 0.01526,0.27875 0.06708,1.30299 0.155797,3.07571 0.02537,0.50665 0.05297,1.01245 0.06117,1.12408 0.008,0.11163 0.0245,0.42781 0.036,0.70257 0.0115,0.27486 0.0248,0.52077 0.0298,0.54648 0.003,0.0164 0.008,0.10026 0.0117,0.16837 v -2.44926 l 0.75674,-0.53871 0.75674,-0.5385 0.009,-1.90329 0.009,-1.90304 1.71124,-1.41445 c 0.94121,-0.77799 1.71801,-1.41456 1.7262,-1.41456 0.008,0 0.0148,0.94846 0.0148,2.10766 v 2.10761 h 0.29678 0.29684 v -0.32769 -0.32795 h 0.18742 0.18749 v -0.42161 -0.42142 h 0.14059 0.14072 v -0.56213 -0.56201 h 0.17171 0.17178 v 0.56201 0.56206 h 0.12501 0.12495 v 0.42005 0.42006 l 0.19533,0.009 0.19521,0.009 0.009,0.3201 0.009,0.31997 h 0.29571 0.29572 v -0.57951 -0.57956 l 0.57024,0.52648 c 0.31361,0.28953 0.61573,0.56659 0.67157,0.61589 l 0.10163,0.0895 v 1.15018 1.1501 h 1.06224 1.06232 v -2.44971 -2.44977 l 1.22628,0.81195 c 0.67444,0.44657 1.22816,0.82893 1.23045,0.84944 0.002,0.0207 0.006,0.63124 0.008,1.35681 l 0.004,1.31922 v 0.43613 h 0.15706 0.17183 v -0.24987 -0.24956 h 0.10819 0.1083 l 0.009,-0.32023 c 0.008,-0.30491 0.0123,-0.32051 0.0794,-0.32989 0.0686,-0.01 0.0701,-0.019 0.0701,-0.41388 v -0.40366 h 0.0938 0.0938 v 0.40385 0.4039 l 0.0814,0.01 c 0.0815,0.01 0.0817,0.0101 0.0861,0.32211 l 0.004,0.31219 0.10032,0.01 0.10025,0.01 0.009,0.24015 0.009,0.24015 0.18063,0.009 0.18068,0.009 -0.011,2.53544 c -0.005,0.67182 0.0106,1.89565 0.0116,1.93495 h -1.64347 l -13.76236,-0.004 -6.058912,-0.002 v -0.62319 -0.62312 l 0.226511,-0.009 0.22645,-0.009 0.0088,-0.33569 0.0088,-0.33574 h 0.139474 0.139596 v -0.41949 -0.41962 l 0.1015,-0.01 0.101511,-0.01 0.0086,-0.55433 0.0086,-0.55422 h 0.11653 0.116398 v 0.5544 0.55415 l 0.109305,0.009 0.109365,0.009 -0.0094,0.42018 -0.0094,0.42017 h 0.157942 0.157872 v 0.34342 0.34358 h 0.234242 0.234437 v -1.54567 -1.54561 h 1.04671 1.046591 v 1.9256 c 0,1.05906 0.0076,1.91774 0.01684,1.90858 0.01601,-0.016 0.03193,-0.28044 0.10799,-1.78894 0.0182,-0.36069 0.04651,-0.91575 0.0631,-1.23349 0.01661,-0.31773 0.03738,-0.71812 0.04626,-0.88989 0.07011,-1.35842 0.0972,-1.86539 0.15687,-2.9507 0.0091,-0.16317 0.0584,-1.1187 0.109787,-2.12326 0.0514,-1.0047 0.10238,-1.99872 0.113358,-2.20906 0.01554,-0.2984 0.01134,-0.3826 -0.01958,-0.3826 -0.02176,0 -0.885198,0.48682 -1.918483,1.08181 -1.033247,0.59498 -1.892582,1.08897 -1.90976,1.09778 -0.0331,0.0169 0.267622,-0.30141 0.9383,-0.99308 0.224821,-0.23183 0.589348,-0.6111 0.810224,-0.84297 0.220841,-0.23183 0.459692,-0.48187 0.530768,-0.55548 l 0.129258,-0.13371 0.60784,0.0477 c 0.334259,0.0261 0.625319,0.0479 0.646804,0.0479 0.02498,0 0.03904,-0.0463 0.03904,-0.1288 0,-0.16195 0.08942,-0.31039 0.233615,-0.38802 l 0.110052,-0.0592 0.0018,-2.20201 c 0.0014,-1.63161 0.0072,-2.08466 0.03174,-2.08201 h 6.4e-5 z"
       id="path17973-2-4"
       inkscape:connector-curvature="0" />
  </g>
</svg>
